<?xml version="1.0" encoding="UTF-8" standalone="no"?><svg xmlns="http://www.w3.org/2000/svg" xmlns:xlink="http://www.w3.org/1999/xlink" contentStyleType="text/css" height="824px" preserveAspectRatio="none" style="width:722px;height:824px;background:#FFFFFF;" version="1.1" viewBox="0 0 722 824" width="722px" zoomAndPan="magnify"><defs/><g><rect fill="#F1F1F1" height="50.1875" rx="12.5" ry="12.5" style="stroke:#181818;stroke-width:0.5;" width="104" x="25" y="194.2832"/><text fill="#000000" font-family="sans-serif" font-size="12" lengthAdjust="spacing" textLength="84" x="35" y="216.7402">(2) Enter doctor</text><text fill="#000000" font-family="sans-serif" font-size="12" lengthAdjust="spacing" textLength="62" x="35" y="231.834">information</text><polygon fill="#F1F1F1" points="77,150.2832,89,162.2832,77,174.2832,65,162.2832,77,150.2832" style="stroke:#181818;stroke-width:0.5;"/><rect fill="#F1F1F1" height="50.1875" rx="12.5" ry="12.5" style="stroke:#181818;stroke-width:0.5;" width="112" x="21" y="391.4834"/><text fill="#000000" font-family="sans-serif" font-size="12" lengthAdjust="spacing" textLength="92" x="31" y="413.9404">(3.2) Click button</text><text fill="#000000" font-family="sans-serif" font-size="12" lengthAdjust="spacing" textLength="92" x="31" y="429.0342">"Save" to confirm</text><line style="stroke:#000000;stroke-width:1.5;" x1="15" x2="15" y1="12.4551" y2="812.1396"/><ellipse cx="281.75" cy="50.0957" fill="#222222" rx="10" ry="10" style="stroke:#222222;stroke-width:1.0;"/><rect fill="#F1F1F1" height="50.1875" rx="12.5" ry="12.5" style="stroke:#181818;stroke-width:0.5;" width="116" x="223.75" y="80.0957"/><text fill="#000000" font-family="sans-serif" font-size="12" lengthAdjust="spacing" textLength="96" x="233.75" y="102.5527">(1) Display doctor</text><text fill="#000000" font-family="sans-serif" font-size="12" lengthAdjust="spacing" textLength="89" x="233.75" y="117.6465">information view</text><rect fill="#F1F1F1" height="35.0938" rx="12.5" ry="12.5" style="stroke:#181818;stroke-width:0.5;" width="147" x="208.25" y="279.4707"/><text fill="#000000" font-family="sans-serif" font-size="12" lengthAdjust="spacing" textLength="127" x="218.25" y="301.9277">(3) Validate data format</text><polygon fill="#F1F1F1" points="281.75,334.5645,281.75,334.5645,293.75,346.5645,281.75,358.5645,281.75,358.5645,269.75,346.5645,281.75,334.5645" style="stroke:#181818;stroke-width:0.5;"/><text fill="#000000" font-family="sans-serif" font-size="11" lengthAdjust="spacing" textLength="48" x="285.75" y="369.9834">Valid data</text><text fill="#000000" font-family="sans-serif" font-size="11" lengthAdjust="spacing" textLength="54" x="293.75" y="344.1475">Invalid data</text><rect fill="#F1F1F1" height="50.1875" rx="12.5" ry="12.5" style="stroke:#181818;stroke-width:0.5;" width="108" x="379.25" y="229.3301"/><text fill="#000000" font-family="sans-serif" font-size="12" lengthAdjust="spacing" textLength="69" x="389.25" y="251.7871">(3.1) Display</text><text fill="#000000" font-family="sans-serif" font-size="12" lengthAdjust="spacing" textLength="88" x="389.25" y="266.8809">error notification</text><rect fill="#F1F1F1" height="35.0938" rx="12.5" ry="12.5" style="stroke:#181818;stroke-width:0.5;" width="176" x="193.75" y="461.6709"/><text fill="#000000" font-family="sans-serif" font-size="12" lengthAdjust="spacing" textLength="156" x="203.75" y="484.1279">(4) Process creating request</text><rect fill="#F1F1F1" height="50.1875" rx="12.5" ry="12.5" style="stroke:#181818;stroke-width:0.5;" width="108" x="143" y="615.8584"/><text fill="#000000" font-family="sans-serif" font-size="12" lengthAdjust="spacing" textLength="69" x="153" y="638.3154">(5.1) Display</text><text fill="#000000" font-family="sans-serif" font-size="12" lengthAdjust="spacing" textLength="88" x="153" y="653.4092">error notification</text><rect fill="#F1F1F1" height="50.1875" rx="12.5" ry="12.5" style="stroke:#181818;stroke-width:0.5;" width="191" x="271" y="685.9521"/><text fill="#000000" font-family="sans-serif" font-size="12" lengthAdjust="spacing" textLength="171" x="281" y="708.4092">(6) Display success notification</text><text fill="#000000" font-family="sans-serif" font-size="12" lengthAdjust="spacing" textLength="97" x="281" y="723.5029">and list of doctors</text><line style="stroke:#000000;stroke-width:1.5;" x1="137" x2="137" y1="12.4551" y2="812.1396"/><rect fill="#F1F1F1" height="35.0938" rx="12.5" ry="12.5" style="stroke:#181818;stroke-width:0.5;" width="109" x="507.75" y="516.7646"/><text fill="#000000" font-family="sans-serif" font-size="12" lengthAdjust="spacing" textLength="89" x="517.75" y="539.2217">(5) Validate data</text><polygon fill="#F1F1F1" points="562.25,571.8584,562.25,571.8584,574.25,583.8584,562.25,595.8584,562.25,595.8584,550.25,583.8584,562.25,571.8584" style="stroke:#181818;stroke-width:0.5;"/><text fill="#000000" font-family="sans-serif" font-size="11" lengthAdjust="spacing" textLength="54" x="496.25" y="581.4414">Invalid data</text><text fill="#000000" font-family="sans-serif" font-size="11" lengthAdjust="spacing" textLength="48" x="574.25" y="581.4414">Valid data</text><rect fill="#F1F1F1" height="35.0938" rx="12.5" ry="12.5" style="stroke:#181818;stroke-width:0.5;" width="104" x="595" y="615.8584"/><text fill="#000000" font-family="sans-serif" font-size="12" lengthAdjust="spacing" textLength="84" x="605" y="638.3154">(5.2) Store data</text><polygon fill="#F1F1F1" points="562.25,746.1396,574.25,758.1396,562.25,770.1396,550.25,758.1396,562.25,746.1396" style="stroke:#181818;stroke-width:0.5;"/><ellipse cx="562.25" cy="801.1396" fill="none" rx="11" ry="11" style="stroke:#222222;stroke-width:1.0;"/><ellipse cx="562.25" cy="801.1396" fill="#222222" rx="6" ry="6" style="stroke:#111111;stroke-width:1.0;"/><line style="stroke:#000000;stroke-width:1.5;" x1="491.25" x2="491.25" y1="12.4551" y2="812.1396"/><line style="stroke:#000000;stroke-width:1.5;" x1="703" x2="703" y1="12.4551" y2="812.1396"/><line style="stroke:#181818;stroke-width:1.0;" x1="77" x2="77" y1="174.2832" y2="194.2832"/><polygon fill="#181818" points="73,184.2832,77,194.2832,81,184.2832,77,188.2832" style="stroke:#181818;stroke-width:1.0;"/><line style="stroke:#181818;stroke-width:1.0;" x1="281.75" x2="281.75" y1="60.0957" y2="80.0957"/><polygon fill="#181818" points="277.75,70.0957,281.75,80.0957,285.75,70.0957,281.75,74.0957" style="stroke:#181818;stroke-width:1.0;"/><line style="stroke:#181818;stroke-width:1.0;" x1="293.75" x2="433.25" y1="346.5645" y2="346.5645"/><line style="stroke:#181818;stroke-width:1.0;" x1="433.25" x2="433.25" y1="279.5176" y2="346.5645"/><polygon fill="#181818" points="429.25,289.5176,433.25,279.5176,437.25,289.5176,433.25,285.5176" style="stroke:#181818;stroke-width:1.0;"/><line style="stroke:#181818;stroke-width:1.0;" x1="281.75" x2="281.75" y1="314.5645" y2="334.5645"/><polygon fill="#181818" points="277.75,324.5645,281.75,334.5645,285.75,324.5645,281.75,328.5645" style="stroke:#181818;stroke-width:1.0;"/><line style="stroke:#181818;stroke-width:1.0;" x1="574.25" x2="647" y1="583.8584" y2="583.8584"/><line style="stroke:#181818;stroke-width:1.0;" x1="647" x2="647" y1="583.8584" y2="615.8584"/><polygon fill="#181818" points="643,605.8584,647,615.8584,651,605.8584,647,609.8584" style="stroke:#181818;stroke-width:1.0;"/><line style="stroke:#181818;stroke-width:1.0;" x1="562.25" x2="562.25" y1="551.8584" y2="571.8584"/><polygon fill="#181818" points="558.25,561.8584,562.25,571.8584,566.25,561.8584,562.25,565.8584" style="stroke:#181818;stroke-width:1.0;"/><line style="stroke:#181818;stroke-width:1.0;" x1="562.25" x2="562.25" y1="770.1396" y2="790.1396"/><polygon fill="#181818" points="558.25,780.1396,562.25,790.1396,566.25,780.1396,562.25,784.1396" style="stroke:#181818;stroke-width:1.0;"/><line style="stroke:#181818;stroke-width:1.0;" x1="77" x2="77" y1="244.4707" y2="261.9707"/><line style="stroke:#181818;stroke-width:1.0;" x1="77" x2="281.75" y1="261.9707" y2="261.9707"/><line style="stroke:#181818;stroke-width:1.0;" x1="281.75" x2="281.75" y1="261.9707" y2="279.4707"/><polygon fill="#181818" points="277.75,269.4707,281.75,279.4707,285.75,269.4707,281.75,273.4707" style="stroke:#181818;stroke-width:1.0;"/><line style="stroke:#181818;stroke-width:1.0;" x1="433.25" x2="433.25" y1="162.2832" y2="229.3301"/><line style="stroke:#181818;stroke-width:1.0;" x1="433.25" x2="89" y1="162.2832" y2="162.2832"/><polygon fill="#181818" points="99,158.2832,89,162.2832,99,166.2832,95,162.2832" style="stroke:#181818;stroke-width:1.0;"/><line style="stroke:#181818;stroke-width:1.0;" x1="281.75" x2="281.75" y1="130.2832" y2="135.2832"/><line style="stroke:#181818;stroke-width:1.0;" x1="281.75" x2="77" y1="135.2832" y2="135.2832"/><line style="stroke:#181818;stroke-width:1.0;" x1="77" x2="77" y1="135.2832" y2="150.2832"/><polygon fill="#181818" points="73,140.2832,77,150.2832,81,140.2832,77,144.2832" style="stroke:#181818;stroke-width:1.0;"/><line style="stroke:#181818;stroke-width:1.0;" x1="281.75" x2="281.75" y1="358.5645" y2="376.0645"/><line style="stroke:#181818;stroke-width:1.0;" x1="281.75" x2="77" y1="376.0645" y2="376.0645"/><line style="stroke:#181818;stroke-width:1.0;" x1="77" x2="77" y1="376.0645" y2="391.4834"/><polygon fill="#181818" points="73,381.4834,77,391.4834,81,381.4834,77,385.4834" style="stroke:#181818;stroke-width:1.0;"/><line style="stroke:#181818;stroke-width:1.0;" x1="77" x2="77" y1="441.6709" y2="446.6709"/><line style="stroke:#181818;stroke-width:1.0;" x1="77" x2="281.75" y1="446.6709" y2="446.6709"/><line style="stroke:#181818;stroke-width:1.0;" x1="281.75" x2="281.75" y1="446.6709" y2="461.6709"/><polygon fill="#181818" points="277.75,451.6709,281.75,461.6709,285.75,451.6709,281.75,455.6709" style="stroke:#181818;stroke-width:1.0;"/><line style="stroke:#181818;stroke-width:1.0;" x1="281.75" x2="281.75" y1="496.7646" y2="501.7646"/><line style="stroke:#181818;stroke-width:1.0;" x1="281.75" x2="562.25" y1="501.7646" y2="501.7646"/><line style="stroke:#181818;stroke-width:1.0;" x1="562.25" x2="562.25" y1="501.7646" y2="516.7646"/><polygon fill="#181818" points="558.25,506.7646,562.25,516.7646,566.25,506.7646,562.25,510.7646" style="stroke:#181818;stroke-width:1.0;"/><line style="stroke:#181818;stroke-width:1.0;" x1="647" x2="647" y1="650.9521" y2="668.4521"/><line style="stroke:#181818;stroke-width:1.0;" x1="647" x2="366.5" y1="668.4521" y2="668.4521"/><line style="stroke:#181818;stroke-width:1.0;" x1="366.5" x2="366.5" y1="668.4521" y2="685.9521"/><polygon fill="#181818" points="362.5,675.9521,366.5,685.9521,370.5,675.9521,366.5,679.9521" style="stroke:#181818;stroke-width:1.0;"/><line style="stroke:#181818;stroke-width:1.0;" x1="550.25" x2="197" y1="583.8584" y2="583.8584"/><line style="stroke:#181818;stroke-width:1.0;" x1="197" x2="197" y1="583.8584" y2="615.8584"/><polygon fill="#181818" points="193,605.8584,197,615.8584,201,605.8584,197,609.8584" style="stroke:#181818;stroke-width:1.0;"/><line style="stroke:#181818;stroke-width:1.0;" x1="197" x2="197" y1="666.0459" y2="758.1396"/><line style="stroke:#181818;stroke-width:1.0;" x1="197" x2="550.25" y1="758.1396" y2="758.1396"/><polygon fill="#181818" points="540.25,754.1396,550.25,758.1396,540.25,762.1396,544.25,758.1396" style="stroke:#181818;stroke-width:1.0;"/><line style="stroke:#181818;stroke-width:1.0;" x1="366.5" x2="366.5" y1="736.1396" y2="740.1396"/><line style="stroke:#181818;stroke-width:1.0;" x1="366.5" x2="592.25" y1="740.1396" y2="740.1396"/><line style="stroke:#181818;stroke-width:1.0;" x1="592.25" x2="592.25" y1="740.1396" y2="758.1396"/><line style="stroke:#181818;stroke-width:1.0;" x1="592.25" x2="574.25" y1="758.1396" y2="758.1396"/><polygon fill="#181818" points="584.25,754.1396,574.25,758.1396,584.25,762.1396,580.25,758.1396" style="stroke:#181818;stroke-width:1.0;"/><text fill="#000000" font-family="sans-serif" font-size="18" lengthAdjust="spacing" textLength="49" x="51.5" y="31.1406">Admin</text><text fill="#000000" font-family="sans-serif" font-size="18" lengthAdjust="spacing" textLength="59" x="284.625" y="31.1406">System</text><text fill="#000000" font-family="sans-serif" font-size="18" lengthAdjust="spacing" textLength="77" x="558.625" y="31.1406">Database</text><!--MD5=[41349fccd1f3c38c8ca1e9fc235b1845]
@startuml CreateDoctorActi
|Admin|
|System|

start
:(1) Display doctor\ninformation view;

repeat
    |Admin|
    :(2) Enter doctor\ninformation;
    |System|
    :(3) Validate data format;
    backward :(3.1) Display\nerror notification;
repeat while () is (Invalid data) not (Valid data)
    |Admin|
    :(3.2) Click button\n"Save" to confirm;
    |System|
    :(4) Process creating request;
    |Database|
    :(5) Validate data;
    if () then (Invalid data)
        |System|
        :(5.1) Display\nerror notification;
    else (Valid data)
        |Database|  
        :(5.2) Store data;
        |System|
        :(6) Display success notification\nand list of doctors;
        endif
    |Database|
stop
@enduml

PlantUML version 1.2022.7(Tue Aug 23 00:01:30 ICT 2022)
(GPL source distribution)
Java Runtime: Java(TM) SE Runtime Environment
JVM: Java HotSpot(TM) 64-Bit Server VM
Default Encoding: Cp1252
Language: en
Country: US
--></g></svg>