<?xml version="1.0" encoding="us-ascii" standalone="no"?><svg xmlns="http://www.w3.org/2000/svg" xmlns:xlink="http://www.w3.org/1999/xlink" contentStyleType="text/css" height="712px" preserveAspectRatio="none" style="width:952px;height:712px;background:#FFFFFF;" version="1.1" viewBox="0 0 952 712" width="952px" zoomAndPan="magnify"><defs/><g><rect fill="none" height="20.9531" style="stroke:none;stroke-width:1.0;" width="919" x="15" y="12.7451"/><ellipse cx="187.5" cy="48.6982" fill="#222222" rx="10" ry="10" style="stroke:#222222;stroke-width:1.0;"/><rect fill="#F1F1F1" height="47.9375" rx="12.5" ry="12.5" style="stroke:#181818;stroke-width:0.5;" width="123" x="126" y="78.6982"/><text fill="#000000" font-family="sans-serif" font-size="12" lengthAdjust="spacing" textLength="103" x="136" y="99.8369">(1) Select doctor</text><text fill="#000000" font-family="sans-serif" font-size="12" lengthAdjust="spacing" textLength="91" x="136" y="113.8057">needs deleting</text><rect fill="#F1F1F1" height="47.9375" rx="12.5" ry="12.5" style="stroke:#181818;stroke-width:0.5;" width="112" x="21" y="258.5732"/><text fill="#000000" font-family="sans-serif" font-size="12" lengthAdjust="spacing" textLength="60" x="31" y="279.7119">(2.1) Click</text><text fill="#000000" font-family="sans-serif" font-size="12" lengthAdjust="spacing" textLength="92" x="31" y="293.6807">"Cancel" button</text><ellipse cx="77" cy="336.5107" fill="none" rx="10" ry="10" style="stroke:#222222;stroke-width:1.5;"/><line style="stroke:#222222;stroke-width:2.5;" x1="70.8128" x2="83.1872" y1="330.3236" y2="342.6979"/><line style="stroke:#222222;stroke-width:2.5;" x1="83.1872" x2="70.8128" y1="330.3236" y2="342.6979"/><rect fill="#F1F1F1" height="47.9375" rx="12.5" ry="12.5" style="stroke:#181818;stroke-width:0.5;" width="118" x="239" y="258.5732"/><text fill="#000000" font-family="sans-serif" font-size="12" lengthAdjust="spacing" textLength="61" x="249" y="279.7119">(2.2) Click</text><text fill="#000000" font-family="sans-serif" font-size="12" lengthAdjust="spacing" textLength="98" x="249" y="293.6807">"Confirm" button</text><line style="stroke:#000000;stroke-width:1.5;" x1="15" x2="15" y1="12.7451" y2="700.292"/><rect fill="#F1F1F1" height="47.9375" rx="12.5" ry="12.5" style="stroke:#181818;stroke-width:0.5;" width="164" x="367" y="146.6357"/><text fill="#000000" font-family="sans-serif" font-size="12" lengthAdjust="spacing" textLength="144" x="377" y="167.7744">(2) Display confirmation</text><text fill="#000000" font-family="sans-serif" font-size="12" lengthAdjust="spacing" textLength="79" x="377" y="181.7432">messagebox</text><polygon fill="#F1F1F1" points="449,214.5732,449,214.5732,461,226.5732,449,238.5732,449,238.5732,437,226.5732,449,214.5732" style="stroke:#181818;stroke-width:0.5;"/><text fill="#000000" font-family="sans-serif" font-size="11" lengthAdjust="spacing" textLength="39" x="398" y="223.979">Cancel</text><text fill="#000000" font-family="sans-serif" font-size="11" lengthAdjust="spacing" textLength="44" x="461" y="223.979">Confirm</text><rect fill="#F1F1F1" height="33.9688" rx="12.5" ry="12.5" style="stroke:#181818;stroke-width:0.5;" width="194" x="462.5" y="326.5107"/><text fill="#000000" font-family="sans-serif" font-size="12" lengthAdjust="spacing" textLength="174" x="472.5" y="347.6494">(3) Process deleting request</text><rect fill="#F1F1F1" height="47.9375" rx="12.5" ry="12.5" style="stroke:#181818;stroke-width:0.5;" width="120" x="424.5" y="478.4482"/><text fill="#000000" font-family="sans-serif" font-size="12" lengthAdjust="spacing" textLength="76" x="434.5" y="499.5869">(4.1) Display</text><text fill="#000000" font-family="sans-serif" font-size="12" lengthAdjust="spacing" textLength="100" x="434.5" y="513.5557">error notification</text><rect fill="#F1F1F1" height="61.9063" rx="12.5" ry="12.5" style="stroke:#181818;stroke-width:0.5;" width="140" x="564.5" y="546.3857"/><text fill="#000000" font-family="sans-serif" font-size="12" lengthAdjust="spacing" textLength="120" x="574.5" y="567.5244">(5) Display success</text><text fill="#000000" font-family="sans-serif" font-size="12" lengthAdjust="spacing" textLength="65" x="574.5" y="581.4932">notification</text><text fill="#000000" font-family="sans-serif" font-size="12" lengthAdjust="spacing" textLength="110" x="574.5" y="595.4619">and list of doctors</text><line style="stroke:#000000;stroke-width:1.5;" x1="361" x2="361" y1="12.7451" y2="700.292"/><rect fill="#F1F1F1" height="33.9688" rx="12.5" ry="12.5" style="stroke:#181818;stroke-width:0.5;" width="120" x="731.5" y="380.4795"/><text fill="#000000" font-family="sans-serif" font-size="12" lengthAdjust="spacing" textLength="100" x="741.5" y="401.6182">(4) Validate data</text><polygon fill="#F1F1F1" points="791.5,434.4482,791.5,434.4482,803.5,446.4482,791.5,458.4482,791.5,458.4482,779.5,446.4482,791.5,434.4482" style="stroke:#181818;stroke-width:0.5;"/><text fill="#000000" font-family="sans-serif" font-size="11" lengthAdjust="spacing" textLength="66" x="713.5" y="443.854">Invalid data</text><text fill="#000000" font-family="sans-serif" font-size="11" lengthAdjust="spacing" textLength="57" x="803.5" y="443.854">Valid data</text><rect fill="#F1F1F1" height="33.9688" rx="12.5" ry="12.5" style="stroke:#181818;stroke-width:0.5;" width="123" x="805" y="478.4482"/><text fill="#000000" font-family="sans-serif" font-size="12" lengthAdjust="spacing" textLength="103" x="815" y="499.5869">(4.2) Delete data</text><polygon fill="#F1F1F1" points="791.5,618.292,803.5,630.292,791.5,642.292,779.5,630.292,791.5,618.292" style="stroke:#181818;stroke-width:0.5;"/><ellipse cx="791.5" cy="673.292" fill="none" rx="11" ry="11" style="stroke:#222222;stroke-width:1.0;"/><ellipse cx="791.5" cy="673.292" fill="#222222" rx="6" ry="6" style="stroke:#222222;stroke-width:1.0;"/><line style="stroke:#000000;stroke-width:1.5;" x1="708.5" x2="708.5" y1="12.7451" y2="700.292"/><line style="stroke:#000000;stroke-width:1.5;" x1="932" x2="932" y1="12.7451" y2="700.292"/><line style="stroke:#181818;stroke-width:1.0;" x1="187.5" x2="187.5" y1="58.6982" y2="78.6982"/><polygon fill="#181818" points="183.5,68.6982,187.5,78.6982,191.5,68.6982,187.5,72.6982" style="stroke:#181818;stroke-width:1.0;"/><line style="stroke:#181818;stroke-width:1.0;" x1="77" x2="77" y1="306.5107" y2="326.5107"/><polygon fill="#181818" points="73,316.5107,77,326.5107,81,316.5107,77,320.5107" style="stroke:#181818;stroke-width:1.0;"/><line style="stroke:#181818;stroke-width:1.0;" x1="449" x2="449" y1="194.5732" y2="214.5732"/><polygon fill="#181818" points="445,204.5732,449,214.5732,453,204.5732,449,208.5732" style="stroke:#181818;stroke-width:1.0;"/><line style="stroke:#181818;stroke-width:1.0;" x1="803.5" x2="866.5" y1="446.4482" y2="446.4482"/><line style="stroke:#181818;stroke-width:1.0;" x1="866.5" x2="866.5" y1="446.4482" y2="478.4482"/><polygon fill="#181818" points="862.5,468.4482,866.5,478.4482,870.5,468.4482,866.5,472.4482" style="stroke:#181818;stroke-width:1.0;"/><line style="stroke:#181818;stroke-width:1.0;" x1="791.5" x2="791.5" y1="414.4482" y2="434.4482"/><polygon fill="#181818" points="787.5,424.4482,791.5,434.4482,795.5,424.4482,791.5,428.4482" style="stroke:#181818;stroke-width:1.0;"/><line style="stroke:#181818;stroke-width:1.0;" x1="791.5" x2="791.5" y1="642.292" y2="662.292"/><polygon fill="#181818" points="787.5,652.292,791.5,662.292,795.5,652.292,791.5,656.292" style="stroke:#181818;stroke-width:1.0;"/><line style="stroke:#181818;stroke-width:1.0;" x1="187.5" x2="187.5" y1="126.6357" y2="131.6357"/><line style="stroke:#181818;stroke-width:1.0;" x1="187.5" x2="449" y1="131.6357" y2="131.6357"/><line style="stroke:#181818;stroke-width:1.0;" x1="449" x2="449" y1="131.6357" y2="146.6357"/><polygon fill="#181818" points="445,136.6357,449,146.6357,453,136.6357,449,140.6357" style="stroke:#181818;stroke-width:1.0;"/><line style="stroke:#181818;stroke-width:1.0;" x1="298" x2="298" y1="306.5107" y2="311.5107"/><line style="stroke:#181818;stroke-width:1.0;" x1="298" x2="559.5" y1="311.5107" y2="311.5107"/><line style="stroke:#181818;stroke-width:1.0;" x1="559.5" x2="559.5" y1="311.5107" y2="326.5107"/><polygon fill="#181818" points="555.5,316.5107,559.5,326.5107,563.5,316.5107,559.5,320.5107" style="stroke:#181818;stroke-width:1.0;"/><line style="stroke:#181818;stroke-width:1.0;" x1="559.5" x2="559.5" y1="360.4795" y2="365.4795"/><line style="stroke:#181818;stroke-width:1.0;" x1="559.5" x2="791.5" y1="365.4795" y2="365.4795"/><line style="stroke:#181818;stroke-width:1.0;" x1="791.5" x2="791.5" y1="365.4795" y2="380.4795"/><polygon fill="#181818" points="787.5,370.4795,791.5,380.4795,795.5,370.4795,791.5,374.4795" style="stroke:#181818;stroke-width:1.0;"/><line style="stroke:#181818;stroke-width:1.0;" x1="866.5" x2="866.5" y1="512.417" y2="529.917"/><line style="stroke:#181818;stroke-width:1.0;" x1="866.5" x2="634.5" y1="529.917" y2="529.917"/><line style="stroke:#181818;stroke-width:1.0;" x1="634.5" x2="634.5" y1="529.917" y2="546.3857"/><polygon fill="#181818" points="630.5,536.3857,634.5,546.3857,638.5,536.3857,634.5,540.3857" style="stroke:#181818;stroke-width:1.0;"/><line style="stroke:#181818;stroke-width:1.0;" x1="779.5" x2="484.5" y1="446.4482" y2="446.4482"/><line style="stroke:#181818;stroke-width:1.0;" x1="484.5" x2="484.5" y1="446.4482" y2="478.4482"/><polygon fill="#181818" points="480.5,468.4482,484.5,478.4482,488.5,468.4482,484.5,472.4482" style="stroke:#181818;stroke-width:1.0;"/><line style="stroke:#181818;stroke-width:1.0;" x1="484.5" x2="484.5" y1="526.3857" y2="630.292"/><line style="stroke:#181818;stroke-width:1.0;" x1="484.5" x2="779.5" y1="630.292" y2="630.292"/><polygon fill="#181818" points="769.5,626.292,779.5,630.292,769.5,634.292,773.5,630.292" style="stroke:#181818;stroke-width:1.0;"/><line style="stroke:#181818;stroke-width:1.0;" x1="634.5" x2="634.5" y1="608.292" y2="612.292"/><line style="stroke:#181818;stroke-width:1.0;" x1="634.5" x2="821.5" y1="612.292" y2="612.292"/><line style="stroke:#181818;stroke-width:1.0;" x1="821.5" x2="821.5" y1="612.292" y2="630.292"/><line style="stroke:#181818;stroke-width:1.0;" x1="821.5" x2="803.5" y1="630.292" y2="630.292"/><polygon fill="#181818" points="813.5,626.292,803.5,630.292,813.5,634.292,809.5,630.292" style="stroke:#181818;stroke-width:1.0;"/><line style="stroke:#181818;stroke-width:1.0;" x1="437" x2="77" y1="226.5732" y2="226.5732"/><line style="stroke:#181818;stroke-width:1.0;" x1="77" x2="77" y1="226.5732" y2="258.5732"/><polygon fill="#181818" points="73,248.5732,77,258.5732,81,248.5732,77,252.5732" style="stroke:#181818;stroke-width:1.0;"/><line style="stroke:#181818;stroke-width:1.0;" x1="461" x2="473" y1="226.5732" y2="226.5732"/><line style="stroke:#181818;stroke-width:1.0;" x1="473" x2="473" y1="226.5732" y2="244.5732"/><line style="stroke:#181818;stroke-width:1.0;" x1="473" x2="298" y1="244.5732" y2="244.5732"/><line style="stroke:#181818;stroke-width:1.0;" x1="298" x2="298" y1="244.5732" y2="258.5732"/><polygon fill="#181818" points="294,248.5732,298,258.5732,302,248.5732,298,252.5732" style="stroke:#181818;stroke-width:1.0;"/><text fill="#000000" font-family="sans-serif" font-size="18" lengthAdjust="spacing" textLength="58" x="159" y="29.4531">Admin</text><text fill="#000000" font-family="sans-serif" font-size="18" lengthAdjust="spacing" textLength="69" x="500.25" y="29.4531">System</text><text fill="#000000" font-family="sans-serif" font-size="18" lengthAdjust="spacing" textLength="88" x="776.25" y="29.4531">Database</text><!--SRC=[TLAnJiCm4Dtp5QTEyO94WOLEg5tOa2frokBObsBXd8llWgYKZyTEGXgWUB0it_ExzzwvVxAjexvWqL6An_9MmHuz6W4RZ8HO4I5Q1fiknT5nK_JxCmksVGAl5UmSdxm-WmdKkDXgSO4gQf5P7x4EdniOLk4QA1N8AnAKMqq6lIfoeP_wvtCYl4dzjzwPjufM8sm5TISIQ3D0a6o1dZ6HZ0sliwmNB2Fk9ytiONnmf-0b1fD4ppuXudk7B1D-fqNNcl7xnRs2W_REQa58cnvXIvFFz941GtKK-QVnH9KzJp5MX36621J4DSuCQKx61zE7QvIpjXJpaZPF9xjPAln7myDbaDoP74IQ-q93HPeiUCS2ePb-1byOqrHSypiebd3w0W00]--></g></svg>