<?xml version="1.0" encoding="UTF-8" standalone="no"?><svg xmlns="http://www.w3.org/2000/svg" xmlns:xlink="http://www.w3.org/1999/xlink" contentStyleType="text/css" height="1034px" preserveAspectRatio="none" style="width:691px;height:1034px;background:#FFFFFF;" version="1.1" viewBox="0 0 691 1034" width="691px" zoomAndPan="magnify"><defs/><g><ellipse cx="77" cy="50.0957" fill="#222222" rx="10" ry="10" style="stroke:#222222;stroke-width:1.0;"/><rect fill="#F1F1F1" height="50.1875" rx="12.5" ry="12.5" style="stroke:#181818;stroke-width:0.5;" width="109" x="22.5" y="80.0957"/><text fill="#000000" font-family="sans-serif" font-size="12" lengthAdjust="spacing" textLength="89" x="32.5" y="102.5527">(1) Select doctor</text><text fill="#000000" font-family="sans-serif" font-size="12" lengthAdjust="spacing" textLength="86" x="32.5" y="117.6465">needs updating</text><rect fill="#F1F1F1" height="50.1875" rx="12.5" ry="12.5" style="stroke:#181818;stroke-width:0.5;" width="104" x="25" y="389.752"/><text fill="#000000" font-family="sans-serif" font-size="12" lengthAdjust="spacing" textLength="84" x="35" y="412.209">(5) Enter doctor</text><text fill="#000000" font-family="sans-serif" font-size="12" lengthAdjust="spacing" textLength="62" x="35" y="427.3027">information</text><polygon fill="#F1F1F1" points="77,345.752,89,357.752,77,369.752,65,357.752,77,345.752" style="stroke:#181818;stroke-width:0.5;"/><rect fill="#F1F1F1" height="50.1875" rx="12.5" ry="12.5" style="stroke:#181818;stroke-width:0.5;" width="112" x="21" y="586.9521"/><text fill="#000000" font-family="sans-serif" font-size="12" lengthAdjust="spacing" textLength="92" x="31" y="609.4092">(6.2) Click button</text><text fill="#000000" font-family="sans-serif" font-size="12" lengthAdjust="spacing" textLength="92" x="31" y="624.5029">"Save" to confirm</text><line style="stroke:#000000;stroke-width:1.5;" x1="15" x2="15" y1="12.4551" y2="1022.7021"/><rect fill="#F1F1F1" height="50.1875" rx="12.5" ry="12.5" style="stroke:#181818;stroke-width:0.5;" width="119" x="206.75" y="150.2832"/><text fill="#000000" font-family="sans-serif" font-size="12" lengthAdjust="spacing" textLength="87" x="216.75" y="172.7402">(2) Get selected</text><text fill="#000000" font-family="sans-serif" font-size="12" lengthAdjust="spacing" textLength="99" x="216.75" y="187.834">doctor information</text><rect fill="#F1F1F1" height="50.1875" rx="12.5" ry="12.5" style="stroke:#181818;stroke-width:0.5;" width="116" x="208.25" y="275.5645"/><text fill="#000000" font-family="sans-serif" font-size="12" lengthAdjust="spacing" textLength="96" x="218.25" y="298.0215">(4) Display doctor</text><text fill="#000000" font-family="sans-serif" font-size="12" lengthAdjust="spacing" textLength="89" x="218.25" y="313.1152">information view</text><rect fill="#F1F1F1" height="35.0938" rx="12.5" ry="12.5" style="stroke:#181818;stroke-width:0.5;" width="147" x="192.75" y="474.9395"/><text fill="#000000" font-family="sans-serif" font-size="12" lengthAdjust="spacing" textLength="127" x="202.75" y="497.3965">(6) Validate data format</text><polygon fill="#F1F1F1" points="266.25,530.0332,266.25,530.0332,278.25,542.0332,266.25,554.0332,266.25,554.0332,254.25,542.0332,266.25,530.0332" style="stroke:#181818;stroke-width:0.5;"/><text fill="#000000" font-family="sans-serif" font-size="11" lengthAdjust="spacing" textLength="48" x="270.25" y="565.4521">Valid data</text><text fill="#000000" font-family="sans-serif" font-size="11" lengthAdjust="spacing" textLength="54" x="278.25" y="539.6162">Invalid data</text><rect fill="#F1F1F1" height="50.1875" rx="12.5" ry="12.5" style="stroke:#181818;stroke-width:0.5;" width="108" x="363.75" y="424.7988"/><text fill="#000000" font-family="sans-serif" font-size="12" lengthAdjust="spacing" textLength="69" x="373.75" y="447.2559">(6.1) Display</text><text fill="#000000" font-family="sans-serif" font-size="12" lengthAdjust="spacing" textLength="88" x="373.75" y="462.3496">error notification</text><rect fill="#F1F1F1" height="35.0938" rx="12.5" ry="12.5" style="stroke:#181818;stroke-width:0.5;" width="180" x="176.25" y="657.1396"/><text fill="#000000" font-family="sans-serif" font-size="12" lengthAdjust="spacing" textLength="160" x="186.25" y="679.5967">(7) Process updating request</text><rect fill="#F1F1F1" height="50.1875" rx="12.5" ry="12.5" style="stroke:#181818;stroke-width:0.5;" width="108" x="143" y="811.3271"/><text fill="#000000" font-family="sans-serif" font-size="12" lengthAdjust="spacing" textLength="69" x="153" y="833.7842">(8.1) Display</text><text fill="#000000" font-family="sans-serif" font-size="12" lengthAdjust="spacing" textLength="88" x="153" y="848.8779">error notification</text><rect fill="#F1F1F1" height="65.2813" rx="12.5" ry="12.5" style="stroke:#181818;stroke-width:0.5;" width="129" x="271" y="881.4209"/><text fill="#000000" font-family="sans-serif" font-size="12" lengthAdjust="spacing" textLength="109" x="281" y="903.8779">(9) Display success</text><text fill="#000000" font-family="sans-serif" font-size="12" lengthAdjust="spacing" textLength="59" x="281" y="918.9717">notification</text><text fill="#000000" font-family="sans-serif" font-size="12" lengthAdjust="spacing" textLength="97" x="281" y="934.0654">and list of doctors</text><line style="stroke:#000000;stroke-width:1.5;" x1="137" x2="137" y1="12.4551" y2="1022.7021"/><rect fill="#F1F1F1" height="35.0938" rx="12.5" ry="12.5" style="stroke:#181818;stroke-width:0.5;" width="97" x="498.25" y="220.4707"/><text fill="#000000" font-family="sans-serif" font-size="12" lengthAdjust="spacing" textLength="77" x="508.25" y="242.9277">(3) Query data</text><rect fill="#F1F1F1" height="35.0938" rx="12.5" ry="12.5" style="stroke:#181818;stroke-width:0.5;" width="109" x="492.25" y="712.2334"/><text fill="#000000" font-family="sans-serif" font-size="12" lengthAdjust="spacing" textLength="89" x="502.25" y="734.6904">(8) Validate data</text><polygon fill="#F1F1F1" points="546.75,767.3271,546.75,767.3271,558.75,779.3271,546.75,791.3271,546.75,791.3271,534.75,779.3271,546.75,767.3271" style="stroke:#181818;stroke-width:0.5;"/><text fill="#000000" font-family="sans-serif" font-size="11" lengthAdjust="spacing" textLength="54" x="480.75" y="776.9102">Invalid data</text><text fill="#000000" font-family="sans-serif" font-size="11" lengthAdjust="spacing" textLength="48" x="558.75" y="776.9102">Valid data</text><rect fill="#F1F1F1" height="35.0938" rx="12.5" ry="12.5" style="stroke:#181818;stroke-width:0.5;" width="104" x="564" y="811.3271"/><text fill="#000000" font-family="sans-serif" font-size="12" lengthAdjust="spacing" textLength="84" x="574" y="833.7842">(8.2) Store data</text><polygon fill="#F1F1F1" points="546.75,956.7021,558.75,968.7021,546.75,980.7021,534.75,968.7021,546.75,956.7021" style="stroke:#181818;stroke-width:0.5;"/><ellipse cx="546.75" cy="1011.7021" fill="none" rx="11" ry="11" style="stroke:#222222;stroke-width:1.0;"/><ellipse cx="546.75" cy="1011.7021" fill="#222222" rx="6" ry="6" style="stroke:#111111;stroke-width:1.0;"/><line style="stroke:#000000;stroke-width:1.5;" x1="475.75" x2="475.75" y1="12.4551" y2="1022.7021"/><line style="stroke:#000000;stroke-width:1.5;" x1="672" x2="672" y1="12.4551" y2="1022.7021"/><line style="stroke:#181818;stroke-width:1.0;" x1="77" x2="77" y1="60.0957" y2="80.0957"/><polygon fill="#181818" points="73,70.0957,77,80.0957,81,70.0957,77,74.0957" style="stroke:#181818;stroke-width:1.0;"/><line style="stroke:#181818;stroke-width:1.0;" x1="77" x2="77" y1="369.752" y2="389.752"/><polygon fill="#181818" points="73,379.752,77,389.752,81,379.752,77,383.752" style="stroke:#181818;stroke-width:1.0;"/><line style="stroke:#181818;stroke-width:1.0;" x1="278.25" x2="417.75" y1="542.0332" y2="542.0332"/><line style="stroke:#181818;stroke-width:1.0;" x1="417.75" x2="417.75" y1="474.9863" y2="542.0332"/><polygon fill="#181818" points="413.75,484.9863,417.75,474.9863,421.75,484.9863,417.75,480.9863" style="stroke:#181818;stroke-width:1.0;"/><line style="stroke:#181818;stroke-width:1.0;" x1="266.25" x2="266.25" y1="510.0332" y2="530.0332"/><polygon fill="#181818" points="262.25,520.0332,266.25,530.0332,270.25,520.0332,266.25,524.0332" style="stroke:#181818;stroke-width:1.0;"/><line style="stroke:#181818;stroke-width:1.0;" x1="558.75" x2="616" y1="779.3271" y2="779.3271"/><line style="stroke:#181818;stroke-width:1.0;" x1="616" x2="616" y1="779.3271" y2="811.3271"/><polygon fill="#181818" points="612,801.3271,616,811.3271,620,801.3271,616,805.3271" style="stroke:#181818;stroke-width:1.0;"/><line style="stroke:#181818;stroke-width:1.0;" x1="546.75" x2="546.75" y1="747.3271" y2="767.3271"/><polygon fill="#181818" points="542.75,757.3271,546.75,767.3271,550.75,757.3271,546.75,761.3271" style="stroke:#181818;stroke-width:1.0;"/><line style="stroke:#181818;stroke-width:1.0;" x1="546.75" x2="546.75" y1="980.7021" y2="1000.7021"/><polygon fill="#181818" points="542.75,990.7021,546.75,1000.7021,550.75,990.7021,546.75,994.7021" style="stroke:#181818;stroke-width:1.0;"/><line style="stroke:#181818;stroke-width:1.0;" x1="77" x2="77" y1="130.2832" y2="135.2832"/><line style="stroke:#181818;stroke-width:1.0;" x1="77" x2="266.25" y1="135.2832" y2="135.2832"/><line style="stroke:#181818;stroke-width:1.0;" x1="266.25" x2="266.25" y1="135.2832" y2="150.2832"/><polygon fill="#181818" points="262.25,140.2832,266.25,150.2832,270.25,140.2832,266.25,144.2832" style="stroke:#181818;stroke-width:1.0;"/><line style="stroke:#181818;stroke-width:1.0;" x1="266.25" x2="266.25" y1="200.4707" y2="205.4707"/><line style="stroke:#181818;stroke-width:1.0;" x1="266.25" x2="546.75" y1="205.4707" y2="205.4707"/><line style="stroke:#181818;stroke-width:1.0;" x1="546.75" x2="546.75" y1="205.4707" y2="220.4707"/><polygon fill="#181818" points="542.75,210.4707,546.75,220.4707,550.75,210.4707,546.75,214.4707" style="stroke:#181818;stroke-width:1.0;"/><line style="stroke:#181818;stroke-width:1.0;" x1="546.75" x2="546.75" y1="255.5645" y2="260.5645"/><line style="stroke:#181818;stroke-width:1.0;" x1="546.75" x2="266.25" y1="260.5645" y2="260.5645"/><line style="stroke:#181818;stroke-width:1.0;" x1="266.25" x2="266.25" y1="260.5645" y2="275.5645"/><polygon fill="#181818" points="262.25,265.5645,266.25,275.5645,270.25,265.5645,266.25,269.5645" style="stroke:#181818;stroke-width:1.0;"/><line style="stroke:#181818;stroke-width:1.0;" x1="77" x2="77" y1="439.9395" y2="457.4395"/><line style="stroke:#181818;stroke-width:1.0;" x1="77" x2="266.25" y1="457.4395" y2="457.4395"/><line style="stroke:#181818;stroke-width:1.0;" x1="266.25" x2="266.25" y1="457.4395" y2="474.9395"/><polygon fill="#181818" points="262.25,464.9395,266.25,474.9395,270.25,464.9395,266.25,468.9395" style="stroke:#181818;stroke-width:1.0;"/><line style="stroke:#181818;stroke-width:1.0;" x1="417.75" x2="417.75" y1="357.752" y2="424.7988"/><line style="stroke:#181818;stroke-width:1.0;" x1="417.75" x2="89" y1="357.752" y2="357.752"/><polygon fill="#181818" points="99,353.752,89,357.752,99,361.752,95,357.752" style="stroke:#181818;stroke-width:1.0;"/><line style="stroke:#181818;stroke-width:1.0;" x1="266.25" x2="266.25" y1="325.752" y2="330.752"/><line style="stroke:#181818;stroke-width:1.0;" x1="266.25" x2="77" y1="330.752" y2="330.752"/><line style="stroke:#181818;stroke-width:1.0;" x1="77" x2="77" y1="330.752" y2="345.752"/><polygon fill="#181818" points="73,335.752,77,345.752,81,335.752,77,339.752" style="stroke:#181818;stroke-width:1.0;"/><line style="stroke:#181818;stroke-width:1.0;" x1="266.25" x2="266.25" y1="554.0332" y2="571.5332"/><line style="stroke:#181818;stroke-width:1.0;" x1="266.25" x2="77" y1="571.5332" y2="571.5332"/><line style="stroke:#181818;stroke-width:1.0;" x1="77" x2="77" y1="571.5332" y2="586.9521"/><polygon fill="#181818" points="73,576.9521,77,586.9521,81,576.9521,77,580.9521" style="stroke:#181818;stroke-width:1.0;"/><line style="stroke:#181818;stroke-width:1.0;" x1="77" x2="77" y1="637.1396" y2="642.1396"/><line style="stroke:#181818;stroke-width:1.0;" x1="77" x2="266.25" y1="642.1396" y2="642.1396"/><line style="stroke:#181818;stroke-width:1.0;" x1="266.25" x2="266.25" y1="642.1396" y2="657.1396"/><polygon fill="#181818" points="262.25,647.1396,266.25,657.1396,270.25,647.1396,266.25,651.1396" style="stroke:#181818;stroke-width:1.0;"/><line style="stroke:#181818;stroke-width:1.0;" x1="266.25" x2="266.25" y1="692.2334" y2="697.2334"/><line style="stroke:#181818;stroke-width:1.0;" x1="266.25" x2="546.75" y1="697.2334" y2="697.2334"/><line style="stroke:#181818;stroke-width:1.0;" x1="546.75" x2="546.75" y1="697.2334" y2="712.2334"/><polygon fill="#181818" points="542.75,702.2334,546.75,712.2334,550.75,702.2334,546.75,706.2334" style="stroke:#181818;stroke-width:1.0;"/><line style="stroke:#181818;stroke-width:1.0;" x1="616" x2="616" y1="846.4209" y2="863.9209"/><line style="stroke:#181818;stroke-width:1.0;" x1="616" x2="335.5" y1="863.9209" y2="863.9209"/><line style="stroke:#181818;stroke-width:1.0;" x1="335.5" x2="335.5" y1="863.9209" y2="881.4209"/><polygon fill="#181818" points="331.5,871.4209,335.5,881.4209,339.5,871.4209,335.5,875.4209" style="stroke:#181818;stroke-width:1.0;"/><line style="stroke:#181818;stroke-width:1.0;" x1="534.75" x2="197" y1="779.3271" y2="779.3271"/><line style="stroke:#181818;stroke-width:1.0;" x1="197" x2="197" y1="779.3271" y2="811.3271"/><polygon fill="#181818" points="193,801.3271,197,811.3271,201,801.3271,197,805.3271" style="stroke:#181818;stroke-width:1.0;"/><line style="stroke:#181818;stroke-width:1.0;" x1="197" x2="197" y1="861.5146" y2="968.7021"/><line style="stroke:#181818;stroke-width:1.0;" x1="197" x2="534.75" y1="968.7021" y2="968.7021"/><polygon fill="#181818" points="524.75,964.7021,534.75,968.7021,524.75,972.7021,528.75,968.7021" style="stroke:#181818;stroke-width:1.0;"/><line style="stroke:#181818;stroke-width:1.0;" x1="335.5" x2="335.5" y1="946.7021" y2="950.7021"/><line style="stroke:#181818;stroke-width:1.0;" x1="335.5" x2="576.75" y1="950.7021" y2="950.7021"/><line style="stroke:#181818;stroke-width:1.0;" x1="576.75" x2="576.75" y1="950.7021" y2="968.7021"/><line style="stroke:#181818;stroke-width:1.0;" x1="576.75" x2="558.75" y1="968.7021" y2="968.7021"/><polygon fill="#181818" points="568.75,964.7021,558.75,968.7021,568.75,972.7021,564.75,968.7021" style="stroke:#181818;stroke-width:1.0;"/><text fill="#000000" font-family="sans-serif" font-size="18" lengthAdjust="spacing" textLength="49" x="51.5" y="31.1406">Admin</text><text fill="#000000" font-family="sans-serif" font-size="18" lengthAdjust="spacing" textLength="59" x="276.875" y="31.1406">System</text><text fill="#000000" font-family="sans-serif" font-size="18" lengthAdjust="spacing" textLength="77" x="535.375" y="31.1406">Database</text><!--MD5=[a84cc5165978d3386766fa41e0f0fe1f]
@startuml UpdateDoctorActi
|Admin|
start
:(1) Select doctor\nneeds updating;
|System|
:(2) Get selected\ndoctor information;
|Database| 
:(3) Query data;
|System|
:(4) Display doctor\ninformation view;
repeat
    |Admin|
    :(5) Enter doctor\ninformation;
    |System|
    :(6) Validate data format;
    backward :(6.1) Display\nerror notification;
repeat while () is (Invalid data) not (Valid data)
    |Admin|
    :(6.2) Click button\n"Save" to confirm;
    |System|
    :(7) Process updating request;
    |Database|
    :(8) Validate data;
    if () then (Invalid data)
        |System|
        :(8.1) Display\nerror notification;
    else (Valid data)
        |Database|  
        :(8.2) Store data;
        |System|
        :(9) Display success\nnotification\nand list of doctors;
        endif
    |Database|
stop
@enduml

PlantUML version 1.2022.7(Tue Aug 23 00:01:30 ICT 2022)
(GPL source distribution)
Java Runtime: Java(TM) SE Runtime Environment
JVM: Java HotSpot(TM) 64-Bit Server VM
Default Encoding: Cp1252
Language: en
Country: US
--></g></svg>