<?xml version="1.0" encoding="UTF-8" standalone="no"?><svg xmlns="http://www.w3.org/2000/svg" xmlns:xlink="http://www.w3.org/1999/xlink" contentStyleType="text/css" height="1017px" preserveAspectRatio="none" style="width:892px;height:1017px;background:#FFFFFF;" version="1.1" viewBox="0 0 892 1017" width="892px" zoomAndPan="magnify"><defs/><g><rect fill="#FFFFFF" height="354.5156" style="stroke:#181818;stroke-width:1.0;" width="10" x="39" y="410.7734"/><rect fill="#FFFFFF" height="546.625" style="stroke:#181818;stroke-width:1.0;" width="10" x="222" y="249.0156"/><rect fill="#FFFFFF" height="28" style="stroke:#181818;stroke-width:1.0;" width="10" x="227" y="303.7188"/><rect fill="#FFFFFF" height="28" style="stroke:#181818;stroke-width:1.0;" width="10" x="227" y="676.5859"/><rect fill="#FFFFFF" height="82.7031" style="stroke:#181818;stroke-width:1.0;" width="10" x="410" y="903.0469"/><rect fill="#FFFFFF" height="28" style="stroke:#181818;stroke-width:1.0;" width="10" x="415" y="957.75"/><rect fill="#FFFFFF" height="134.0547" style="stroke:#181818;stroke-width:1.0;" width="10" x="603" y="114.9609"/><rect fill="#FFFFFF" height="180.7578" style="stroke:#181818;stroke-width:1.0;" width="10" x="603" y="457.4766"/><rect fill="#FFFFFF" height="107.4063" style="stroke:#181818;stroke-width:1.0;" width="10" x="603" y="795.6406"/><rect fill="#FFFFFF" height="103.7031" style="stroke:#181818;stroke-width:1.0;" width="10" x="777" y="114.9609"/><rect fill="#FFFFFF" height="28" style="stroke:#181818;stroke-width:1.0;" width="10" x="782" y="153.3125"/><rect fill="#FFFFFF" height="103.7031" style="stroke:#181818;stroke-width:1.0;" width="10" x="777" y="504.1797"/><rect fill="#FFFFFF" height="28" style="stroke:#181818;stroke-width:1.0;" width="10" x="782" y="542.5313"/><rect fill="#FFFFFF" height="30.3516" style="stroke:#181818;stroke-width:1.0;" width="10" x="777" y="842.3438"/><rect fill="none" height="365.8672" style="stroke:#000000;stroke-width:1.5;" width="876" x="10" y="353.7188"/><line style="stroke:#181818;stroke-width:0.5;stroke-dasharray:5.0,5.0;" x1="44" x2="44" y1="82.6094" y2="1010.75"/><line style="stroke:#181818;stroke-width:0.5;stroke-dasharray:5.0,5.0;" x1="226.5" x2="226.5" y1="82.6094" y2="1010.75"/><line style="stroke:#181818;stroke-width:0.5;stroke-dasharray:5.0,5.0;" x1="414.5" x2="414.5" y1="82.6094" y2="1010.75"/><line style="stroke:#181818;stroke-width:0.5;stroke-dasharray:5.0,5.0;" x1="608" x2="608" y1="82.6094" y2="1010.75"/><line style="stroke:#181818;stroke-width:0.5;stroke-dasharray:5.0,5.0;" x1="782" x2="782" y1="82.6094" y2="1010.75"/><text fill="#000000" font-family="sans-serif" font-size="14" lengthAdjust="spacing" textLength="42" x="20" y="79.5332">Parent</text><ellipse cx="44" cy="13.5" fill="#E2E2F0" rx="8" ry="8" style="stroke:#181818;stroke-width:0.5;"/><path d="M44,21.5 L44,48.5 M31,29.5 L57,29.5 M44,48.5 L31,63.5 M44,48.5 L57,63.5 " fill="none" style="stroke:#181818;stroke-width:0.5;"/><text fill="#000000" font-family="sans-serif" font-size="14" lengthAdjust="spacing" textLength="64" x="192" y="61.9238">Document</text><text fill="#000000" font-family="sans-serif" font-size="14" lengthAdjust="spacing" textLength="111" x="168.5" y="79.5332">ManagementView</text><path d="M206.5,19.3906 L206.5,43.3906 M206.5,31.3906 L223.5,31.3906 " fill="none" style="stroke:#181818;stroke-width:0.5;"/><ellipse cx="235.5" cy="31.3906" fill="#E2E2F0" rx="12" ry="12" style="stroke:#181818;stroke-width:0.5;"/><text fill="#000000" font-family="sans-serif" font-size="14" lengthAdjust="spacing" textLength="64" x="380" y="61.9238">Document</text><text fill="#000000" font-family="sans-serif" font-size="14" lengthAdjust="spacing" textLength="99" x="362.5" y="79.5332">InformationView</text><path d="M394.5,19.3906 L394.5,43.3906 M394.5,31.3906 L411.5,31.3906 " fill="none" style="stroke:#181818;stroke-width:0.5;"/><ellipse cx="423.5" cy="31.3906" fill="#E2E2F0" rx="12" ry="12" style="stroke:#181818;stroke-width:0.5;"/><text fill="#000000" font-family="sans-serif" font-size="14" lengthAdjust="spacing" textLength="64" x="573" y="61.9238">Document</text><text fill="#000000" font-family="sans-serif" font-size="14" lengthAdjust="spacing" textLength="62" x="574" y="79.5332">Controller</text><ellipse cx="608" cy="31.3906" fill="#E2E2F0" rx="12" ry="12" style="stroke:#181818;stroke-width:0.5;"/><polygon fill="#181818" points="604,19.3906,610,14.3906,608,19.3906,610,24.3906,604,19.3906" style="stroke:#181818;stroke-width:1.0;"/><text fill="#000000" font-family="sans-serif" font-size="14" lengthAdjust="spacing" textLength="78" x="740" y="79.5332">DOCUMENT</text><ellipse cx="782" cy="49" fill="#E2E2F0" rx="12" ry="12" style="stroke:#181818;stroke-width:0.5;"/><line style="stroke:#181818;stroke-width:0.5;" x1="770" x2="794" y1="63" y2="63"/><rect fill="#FFFFFF" height="354.5156" style="stroke:#181818;stroke-width:1.0;" width="10" x="39" y="410.7734"/><rect fill="#FFFFFF" height="546.625" style="stroke:#181818;stroke-width:1.0;" width="10" x="222" y="249.0156"/><rect fill="#FFFFFF" height="28" style="stroke:#181818;stroke-width:1.0;" width="10" x="227" y="303.7188"/><rect fill="#FFFFFF" height="28" style="stroke:#181818;stroke-width:1.0;" width="10" x="227" y="676.5859"/><rect fill="#FFFFFF" height="82.7031" style="stroke:#181818;stroke-width:1.0;" width="10" x="410" y="903.0469"/><rect fill="#FFFFFF" height="28" style="stroke:#181818;stroke-width:1.0;" width="10" x="415" y="957.75"/><rect fill="#FFFFFF" height="134.0547" style="stroke:#181818;stroke-width:1.0;" width="10" x="603" y="114.9609"/><rect fill="#FFFFFF" height="180.7578" style="stroke:#181818;stroke-width:1.0;" width="10" x="603" y="457.4766"/><rect fill="#FFFFFF" height="107.4063" style="stroke:#181818;stroke-width:1.0;" width="10" x="603" y="795.6406"/><rect fill="#FFFFFF" height="103.7031" style="stroke:#181818;stroke-width:1.0;" width="10" x="777" y="114.9609"/><rect fill="#FFFFFF" height="28" style="stroke:#181818;stroke-width:1.0;" width="10" x="782" y="153.3125"/><rect fill="#FFFFFF" height="103.7031" style="stroke:#181818;stroke-width:1.0;" width="10" x="777" y="504.1797"/><rect fill="#FFFFFF" height="28" style="stroke:#181818;stroke-width:1.0;" width="10" x="782" y="542.5313"/><rect fill="#FFFFFF" height="30.3516" style="stroke:#181818;stroke-width:1.0;" width="10" x="777" y="842.3438"/><polygon fill="#181818" points="765,110.9609,775,114.9609,765,118.9609,769,114.9609" style="stroke:#181818;stroke-width:1.0;"/><line style="stroke:#181818;stroke-width:1.0;" x1="613" x2="771" y1="114.9609" y2="114.9609"/><text fill="#000000" font-family="sans-serif" font-size="13" font-weight="bold" lengthAdjust="spacing" textLength="7" x="620" y="110.1045">1</text><text fill="#000000" font-family="sans-serif" font-size="13" lengthAdjust="spacing" textLength="124" x="631" y="110.1045">Get list of documents</text><line style="stroke:#181818;stroke-width:1.0;" x1="792" x2="834" y1="145.3125" y2="145.3125"/><line style="stroke:#181818;stroke-width:1.0;" x1="834" x2="834" y1="145.3125" y2="158.3125"/><line style="stroke:#181818;stroke-width:1.0;" x1="793" x2="834" y1="158.3125" y2="158.3125"/><polygon fill="#181818" points="803,154.3125,793,158.3125,803,162.3125,799,158.3125" style="stroke:#181818;stroke-width:1.0;"/><text fill="#000000" font-family="sans-serif" font-size="13" font-weight="bold" lengthAdjust="spacing" textLength="7" x="799" y="140.4561">2</text><text fill="#000000" font-family="sans-serif" font-size="13" lengthAdjust="spacing" textLength="64" x="810" y="140.4561">Query data</text><polygon fill="#181818" points="624,214.6641,614,218.6641,624,222.6641,620,218.6641" style="stroke:#181818;stroke-width:1.0;"/><line style="stroke:#181818;stroke-width:1.0;stroke-dasharray:2.0,2.0;" x1="618" x2="781" y1="218.6641" y2="218.6641"/><text fill="#000000" font-family="sans-serif" font-size="13" font-weight="bold" lengthAdjust="spacing" textLength="7" x="630" y="213.8076">3</text><text fill="#000000" font-family="sans-serif" font-size="13" lengthAdjust="spacing" textLength="103" x="641" y="213.8076">List of documents</text><polygon fill="#181818" points="243,245.0156,233,249.0156,243,253.0156,239,249.0156" style="stroke:#181818;stroke-width:1.0;"/><line style="stroke:#181818;stroke-width:1.0;stroke-dasharray:2.0,2.0;" x1="237" x2="607" y1="249.0156" y2="249.0156"/><text fill="#000000" font-family="sans-serif" font-size="13" font-weight="bold" lengthAdjust="spacing" textLength="7" x="249" y="244.1592">4</text><text fill="#000000" font-family="sans-serif" font-size="13" lengthAdjust="spacing" textLength="103" x="260" y="244.1592">List of documents</text><line style="stroke:#181818;stroke-width:1.0;" x1="237" x2="279" y1="295.7188" y2="295.7188"/><line style="stroke:#181818;stroke-width:1.0;" x1="279" x2="279" y1="295.7188" y2="308.7188"/><line style="stroke:#181818;stroke-width:1.0;" x1="238" x2="279" y1="308.7188" y2="308.7188"/><polygon fill="#181818" points="248,304.7188,238,308.7188,248,312.7188,244,308.7188" style="stroke:#181818;stroke-width:1.0;"/><text fill="#000000" font-family="sans-serif" font-size="13" font-weight="bold" lengthAdjust="spacing" textLength="7" x="244" y="282.6865">5</text><text fill="#000000" font-family="sans-serif" font-size="13" lengthAdjust="spacing" textLength="64" x="255" y="274.5107">Display list</text><text fill="#000000" font-family="sans-serif" font-size="13" lengthAdjust="spacing" textLength="78" x="255" y="290.8623">of documents</text><path d="M10,353.7188 L75,353.7188 L75,362.0703 L65,372.0703 L10,372.0703 L10,353.7188 " fill="#EEEEEE" style="stroke:#000000;stroke-width:1.5;"/><rect fill="none" height="365.8672" style="stroke:#000000;stroke-width:1.5;" width="876" x="10" y="353.7188"/><text fill="#000000" font-family="sans-serif" font-size="13" font-weight="bold" lengthAdjust="spacing" textLength="20" x="25" y="368.2139">opt</text><text fill="#000000" font-family="sans-serif" font-size="11" font-weight="bold" lengthAdjust="spacing" textLength="46" x="90" y="367.1377">[Search]</text><polygon fill="#181818" points="210,406.7734,220,410.7734,210,414.7734,214,410.7734" style="stroke:#181818;stroke-width:1.0;"/><line style="stroke:#181818;stroke-width:1.0;" x1="49" x2="216" y1="410.7734" y2="410.7734"/><text fill="#000000" font-family="sans-serif" font-size="13" font-weight="bold" lengthAdjust="spacing" textLength="7" x="56" y="397.7412">6</text><text fill="#000000" font-family="sans-serif" font-size="13" lengthAdjust="spacing" textLength="103" x="67" y="389.5654">Enters the search</text><text fill="#000000" font-family="sans-serif" font-size="13" lengthAdjust="spacing" textLength="121" x="67" y="405.917">criteria in search box</text><polygon fill="#181818" points="591,453.4766,601,457.4766,591,461.4766,595,457.4766" style="stroke:#181818;stroke-width:1.0;"/><line style="stroke:#181818;stroke-width:1.0;" x1="232" x2="597" y1="457.4766" y2="457.4766"/><text fill="#000000" font-family="sans-serif" font-size="13" font-weight="bold" lengthAdjust="spacing" textLength="7" x="239" y="444.4443">7</text><text fill="#000000" font-family="sans-serif" font-size="13" lengthAdjust="spacing" textLength="151" x="250" y="436.2686">Send searching document</text><text fill="#000000" font-family="sans-serif" font-size="13" lengthAdjust="spacing" textLength="110" x="250" y="452.6201">information request</text><polygon fill="#181818" points="765,500.1797,775,504.1797,765,508.1797,769,504.1797" style="stroke:#181818;stroke-width:1.0;"/><line style="stroke:#181818;stroke-width:1.0;" x1="613" x2="771" y1="504.1797" y2="504.1797"/><text fill="#000000" font-family="sans-serif" font-size="13" font-weight="bold" lengthAdjust="spacing" textLength="7" x="620" y="491.1475">8</text><text fill="#000000" font-family="sans-serif" font-size="13" lengthAdjust="spacing" textLength="134" x="631" y="482.9717">Search document base</text><text fill="#000000" font-family="sans-serif" font-size="13" lengthAdjust="spacing" textLength="106" x="631" y="499.3232">on given keywords</text><line style="stroke:#181818;stroke-width:1.0;" x1="792" x2="834" y1="534.5313" y2="534.5313"/><line style="stroke:#181818;stroke-width:1.0;" x1="834" x2="834" y1="534.5313" y2="547.5313"/><line style="stroke:#181818;stroke-width:1.0;" x1="793" x2="834" y1="547.5313" y2="547.5313"/><polygon fill="#181818" points="803,543.5313,793,547.5313,803,551.5313,799,547.5313" style="stroke:#181818;stroke-width:1.0;"/><text fill="#000000" font-family="sans-serif" font-size="13" font-weight="bold" lengthAdjust="spacing" textLength="7" x="799" y="529.6748">9</text><text fill="#000000" font-family="sans-serif" font-size="13" lengthAdjust="spacing" textLength="64" x="810" y="529.6748">Query data</text><polygon fill="#181818" points="624,603.8828,614,607.8828,624,611.8828,620,607.8828" style="stroke:#181818;stroke-width:1.0;"/><line style="stroke:#181818;stroke-width:1.0;stroke-dasharray:2.0,2.0;" x1="618" x2="781" y1="607.8828" y2="607.8828"/><text fill="#000000" font-family="sans-serif" font-size="13" font-weight="bold" lengthAdjust="spacing" textLength="14" x="630" y="603.0264">10</text><text fill="#000000" font-family="sans-serif" font-size="13" lengthAdjust="spacing" textLength="71" x="648" y="603.0264">Query result</text><polygon fill="#181818" points="243,634.2344,233,638.2344,243,642.2344,239,638.2344" style="stroke:#181818;stroke-width:1.0;"/><line style="stroke:#181818;stroke-width:1.0;stroke-dasharray:2.0,2.0;" x1="237" x2="607" y1="638.2344" y2="638.2344"/><text fill="#000000" font-family="sans-serif" font-size="13" font-weight="bold" lengthAdjust="spacing" textLength="14" x="249" y="633.3779">11</text><text fill="#000000" font-family="sans-serif" font-size="13" lengthAdjust="spacing" textLength="71" x="267" y="633.3779">Query result</text><line style="stroke:#181818;stroke-width:1.0;" x1="237" x2="279" y1="668.5859" y2="668.5859"/><line style="stroke:#181818;stroke-width:1.0;" x1="279" x2="279" y1="668.5859" y2="681.5859"/><line style="stroke:#181818;stroke-width:1.0;" x1="238" x2="279" y1="681.5859" y2="681.5859"/><polygon fill="#181818" points="248,677.5859,238,681.5859,248,685.5859,244,681.5859" style="stroke:#181818;stroke-width:1.0;"/><text fill="#000000" font-family="sans-serif" font-size="13" font-weight="bold" lengthAdjust="spacing" textLength="14" x="244" y="663.7295">12</text><text fill="#000000" font-family="sans-serif" font-size="13" lengthAdjust="spacing" textLength="146" x="262" y="663.7295">Display list of documents</text><polygon fill="#181818" points="210,761.2891,220,765.2891,210,769.2891,214,765.2891" style="stroke:#181818;stroke-width:1.0;"/><line style="stroke:#181818;stroke-width:1.0;" x1="44" x2="216" y1="765.2891" y2="765.2891"/><text fill="#000000" font-family="sans-serif" font-size="13" font-weight="bold" lengthAdjust="spacing" textLength="14" x="51" y="752.2568">13</text><text fill="#000000" font-family="sans-serif" font-size="13" lengthAdjust="spacing" textLength="59" x="69" y="744.0811">Select the</text><text fill="#000000" font-family="sans-serif" font-size="13" lengthAdjust="spacing" textLength="131" x="69" y="760.4326">document want to view</text><polygon fill="#181818" points="591,791.6406,601,795.6406,591,799.6406,595,795.6406" style="stroke:#181818;stroke-width:1.0;"/><line style="stroke:#181818;stroke-width:1.0;" x1="227" x2="597" y1="795.6406" y2="795.6406"/><text fill="#000000" font-family="sans-serif" font-size="13" font-weight="bold" lengthAdjust="spacing" textLength="14" x="234" y="790.7842">14</text><text fill="#000000" font-family="sans-serif" font-size="13" lengthAdjust="spacing" textLength="202" x="252" y="790.7842">Get selected document information</text><polygon fill="#181818" points="765,838.3438,775,842.3438,765,846.3438,769,842.3438" style="stroke:#181818;stroke-width:1.0;"/><line style="stroke:#181818;stroke-width:1.0;" x1="613" x2="771" y1="842.3438" y2="842.3438"/><text fill="#000000" font-family="sans-serif" font-size="13" font-weight="bold" lengthAdjust="spacing" textLength="14" x="620" y="829.3115">15</text><text fill="#000000" font-family="sans-serif" font-size="13" lengthAdjust="spacing" textLength="74" x="638" y="821.1357">Get selected</text><text fill="#000000" font-family="sans-serif" font-size="13" lengthAdjust="spacing" textLength="124" x="638" y="837.4873">document information</text><polygon fill="#181818" points="624,868.6953,614,872.6953,624,876.6953,620,872.6953" style="stroke:#181818;stroke-width:1.0;"/><line style="stroke:#181818;stroke-width:1.0;stroke-dasharray:2.0,2.0;" x1="618" x2="781" y1="872.6953" y2="872.6953"/><text fill="#000000" font-family="sans-serif" font-size="13" font-weight="bold" lengthAdjust="spacing" textLength="14" x="630" y="867.8389">16</text><text fill="#000000" font-family="sans-serif" font-size="13" lengthAdjust="spacing" textLength="71" x="648" y="867.8389">Query result</text><polygon fill="#181818" points="431,899.0469,421,903.0469,431,907.0469,427,903.0469" style="stroke:#181818;stroke-width:1.0;"/><line style="stroke:#181818;stroke-width:1.0;stroke-dasharray:2.0,2.0;" x1="425" x2="607" y1="903.0469" y2="903.0469"/><text fill="#000000" font-family="sans-serif" font-size="13" font-weight="bold" lengthAdjust="spacing" textLength="14" x="437" y="898.1904">17</text><text fill="#000000" font-family="sans-serif" font-size="13" lengthAdjust="spacing" textLength="71" x="455" y="898.1904">Query result</text><line style="stroke:#181818;stroke-width:1.0;" x1="425" x2="467" y1="949.75" y2="949.75"/><line style="stroke:#181818;stroke-width:1.0;" x1="467" x2="467" y1="949.75" y2="962.75"/><line style="stroke:#181818;stroke-width:1.0;" x1="426" x2="467" y1="962.75" y2="962.75"/><polygon fill="#181818" points="436,958.75,426,962.75,436,966.75,432,962.75" style="stroke:#181818;stroke-width:1.0;"/><text fill="#000000" font-family="sans-serif" font-size="13" font-weight="bold" lengthAdjust="spacing" textLength="14" x="432" y="936.7178">18</text><text fill="#000000" font-family="sans-serif" font-size="13" lengthAdjust="spacing" textLength="151" x="450" y="928.542">Display view with selected</text><text fill="#000000" font-family="sans-serif" font-size="13" lengthAdjust="spacing" textLength="124" x="450" y="944.8936">document information</text><!--MD5=[3e99a15732c5f3cdc8728b803d64d1d9]
@startuml ViewDocumentSeq
autonumber
hide footbox

actor Parent
boundary "Document\nManagementView" as DocumentManagementView
boundary "Document\nInformationView" as DocumentInformationView
control "Document\nController" as DocumentController
entity DOCUMENT
DocumentController -> DOCUMENT: Get list of documents
activate DocumentController
activate DOCUMENT
DOCUMENT -> DOCUMENT: Query data
activate DOCUMENT
deactivate DOCUMENT
DOCUMENT - -> DocumentController: List of documents
deactivate DOCUMENT
DocumentController - -> DocumentManagementView: List of documents
deactivate DocumentController
activate DocumentManagementView
DocumentManagementView -> DocumentManagementView: Display list\nof documents
activate DocumentManagementView
deactivate DocumentManagementView
opt Search
    Parent -> DocumentManagementView: Enters the search\ncriteria in search box
    activate Parent
    DocumentManagementView -> DocumentController: Send searching document\ninformation request
    activate DocumentController
    DocumentController -> DOCUMENT: Search document base\non given keywords
    activate DOCUMENT
    DOCUMENT -> DOCUMENT: Query data
    activate DOCUMENT
    deactivate DOCUMENT
    DOCUMENT - -> DocumentController: Query result
    deactivate DOCUMENT
    DocumentController - -> DocumentManagementView: Query result
    deactivate DocumentController
    DocumentManagementView -> DocumentManagementView: Display list of documents
    activate DocumentManagementView
    deactivate DocumentManagementView
end
Parent -> DocumentManagementView: Select the\ndocument want to view
deactivate Parent
DocumentManagementView -> DocumentController: Get selected document information
deactivate DocumentManagementView
activate DocumentController
DocumentController -> DOCUMENT: Get selected\ndocument information
activate DOCUMENT
DOCUMENT - -> DocumentController: Query result
deactivate DOCUMENT
DocumentController - -> DocumentInformationView: Query result
deactivate DocumentController
activate DocumentInformationView
DocumentInformationView -> DocumentInformationView: Display view with selected\ndocument information
activate DocumentInformationView
deactivate DocumentInformationView
deactivate DocumentInformationView
@end

PlantUML version 1.2022.7(Tue Aug 23 00:01:30 ICT 2022)
(GPL source distribution)
Java Runtime: Java(TM) SE Runtime Environment
JVM: Java HotSpot(TM) 64-Bit Server VM
Default Encoding: Cp1252
Language: en
Country: US
--></g></svg>