<?xml version="1.0" encoding="UTF-8" standalone="no"?><svg xmlns="http://www.w3.org/2000/svg" xmlns:xlink="http://www.w3.org/1999/xlink" contentStyleType="text/css" height="508px" preserveAspectRatio="none" style="width:638px;height:508px;background:#FFFFFF;" version="1.1" viewBox="0 0 638 508" width="638px" zoomAndPan="magnify"><defs/><g><rect fill="#FFFFFF" height="196.9453" style="stroke:#181818;stroke-width:1.0;" width="10" x="39" y="295.7188"/><rect fill="#FFFFFF" height="317" style="stroke:#181818;stroke-width:1.0;" width="10" x="193" y="175.6641"/><rect fill="#FFFFFF" height="28" style="stroke:#181818;stroke-width:1.0;" width="10" x="198" y="214.0156"/><rect fill="#FFFFFF" height="60.7031" style="stroke:#181818;stroke-width:1.0;" width="10" x="362.5" y="114.9609"/><rect fill="#FFFFFF" height="30.3516" style="stroke:#181818;stroke-width:1.0;" width="10" x="502.5" y="114.9609"/><rect fill="none" height="64.7969" style="stroke:#000000;stroke-width:1.5;" width="622.5" x="10" y="341.0703"/><rect fill="none" height="64.7969" style="stroke:#000000;stroke-width:1.5;" width="622.5" x="10" y="419.8672"/><line style="stroke:#181818;stroke-width:0.5;stroke-dasharray:5.0,5.0;" x1="44" x2="44" y1="82.6094" y2="501.6641"/><line style="stroke:#181818;stroke-width:0.5;stroke-dasharray:5.0,5.0;" x1="198" x2="198" y1="82.6094" y2="501.6641"/><line style="stroke:#181818;stroke-width:0.5;stroke-dasharray:5.0,5.0;" x1="367" x2="367" y1="82.6094" y2="501.6641"/><line style="stroke:#181818;stroke-width:0.5;stroke-dasharray:5.0,5.0;" x1="507.5" x2="507.5" y1="82.6094" y2="501.6641"/><line style="stroke:#181818;stroke-width:0.5;stroke-dasharray:5.0,5.0;" x1="581.5" x2="581.5" y1="82.6094" y2="501.6641"/><text fill="#000000" font-family="sans-serif" font-size="14" lengthAdjust="spacing" textLength="42" x="20" y="79.5332">Parent</text><ellipse cx="44" cy="13.5" fill="#E2E2F0" rx="8" ry="8" style="stroke:#181818;stroke-width:0.5;"/><path d="M44,21.5 L44,48.5 M31,29.5 L57,29.5 M44,48.5 L31,63.5 M44,48.5 L57,63.5 " fill="none" style="stroke:#181818;stroke-width:0.5;"/><text fill="#000000" font-family="sans-serif" font-size="14" lengthAdjust="spacing" textLength="178" x="106" y="79.5332">SleepTimeManagementView</text><path d="M177.5,37 L177.5,61 M177.5,49 L194.5,49 " fill="none" style="stroke:#181818;stroke-width:0.5;"/><ellipse cx="206.5" cy="49" fill="#E2E2F0" rx="12" ry="12" style="stroke:#181818;stroke-width:0.5;"/><text fill="#000000" font-family="sans-serif" font-size="14" lengthAdjust="spacing" textLength="129" x="300" y="79.5332">SleepTimeController</text><ellipse cx="367.5" cy="49" fill="#E2E2F0" rx="12" ry="12" style="stroke:#181818;stroke-width:0.5;"/><polygon fill="#181818" points="363.5,37,369.5,32,367.5,37,369.5,42,363.5,37" style="stroke:#181818;stroke-width:1.0;"/><text fill="#000000" font-family="sans-serif" font-size="14" lengthAdjust="spacing" textLength="40" x="484.5" y="79.5332">CHILD</text><ellipse cx="507.5" cy="49" fill="#E2E2F0" rx="12" ry="12" style="stroke:#181818;stroke-width:0.5;"/><line style="stroke:#181818;stroke-width:0.5;" x1="495.5" x2="519.5" y1="63" y2="63"/><text fill="#000000" font-family="sans-serif" font-size="14" lengthAdjust="spacing" textLength="76" x="540.5" y="79.5332">SLEEPTIME</text><ellipse cx="581.5" cy="49" fill="#E2E2F0" rx="12" ry="12" style="stroke:#181818;stroke-width:0.5;"/><line style="stroke:#181818;stroke-width:0.5;" x1="569.5" x2="593.5" y1="63" y2="63"/><rect fill="#FFFFFF" height="196.9453" style="stroke:#181818;stroke-width:1.0;" width="10" x="39" y="295.7188"/><rect fill="#FFFFFF" height="317" style="stroke:#181818;stroke-width:1.0;" width="10" x="193" y="175.6641"/><rect fill="#FFFFFF" height="28" style="stroke:#181818;stroke-width:1.0;" width="10" x="198" y="214.0156"/><rect fill="#FFFFFF" height="60.7031" style="stroke:#181818;stroke-width:1.0;" width="10" x="362.5" y="114.9609"/><rect fill="#FFFFFF" height="30.3516" style="stroke:#181818;stroke-width:1.0;" width="10" x="502.5" y="114.9609"/><polygon fill="#181818" points="490.5,110.9609,500.5,114.9609,490.5,118.9609,494.5,114.9609" style="stroke:#181818;stroke-width:1.0;"/><line style="stroke:#181818;stroke-width:1.0;" x1="372.5" x2="496.5" y1="114.9609" y2="114.9609"/><text fill="#000000" font-family="sans-serif" font-size="13" font-weight="bold" lengthAdjust="spacing" textLength="7" x="379.5" y="110.1045">1</text><text fill="#000000" font-family="sans-serif" font-size="13" lengthAdjust="spacing" textLength="105" x="390.5" y="110.1045">Get list of children</text><polygon fill="#181818" points="383.5,141.3125,373.5,145.3125,383.5,149.3125,379.5,145.3125" style="stroke:#181818;stroke-width:1.0;"/><line style="stroke:#181818;stroke-width:1.0;stroke-dasharray:2.0,2.0;" x1="377.5" x2="506.5" y1="145.3125" y2="145.3125"/><text fill="#000000" font-family="sans-serif" font-size="13" font-weight="bold" lengthAdjust="spacing" textLength="7" x="389.5" y="140.4561">2</text><text fill="#000000" font-family="sans-serif" font-size="13" lengthAdjust="spacing" textLength="84" x="400.5" y="140.4561">List of children</text><polygon fill="#181818" points="214,171.6641,204,175.6641,214,179.6641,210,175.6641" style="stroke:#181818;stroke-width:1.0;"/><line style="stroke:#181818;stroke-width:1.0;stroke-dasharray:2.0,2.0;" x1="208" x2="366.5" y1="175.6641" y2="175.6641"/><text fill="#000000" font-family="sans-serif" font-size="13" font-weight="bold" lengthAdjust="spacing" textLength="7" x="220" y="170.8076">3</text><text fill="#000000" font-family="sans-serif" font-size="13" lengthAdjust="spacing" textLength="84" x="231" y="170.8076">List of children</text><line style="stroke:#181818;stroke-width:1.0;" x1="208" x2="250" y1="206.0156" y2="206.0156"/><line style="stroke:#181818;stroke-width:1.0;" x1="250" x2="250" y1="206.0156" y2="219.0156"/><line style="stroke:#181818;stroke-width:1.0;" x1="209" x2="250" y1="219.0156" y2="219.0156"/><polygon fill="#181818" points="219,215.0156,209,219.0156,219,223.0156,215,219.0156" style="stroke:#181818;stroke-width:1.0;"/><text fill="#000000" font-family="sans-serif" font-size="13" font-weight="bold" lengthAdjust="spacing" textLength="7" x="215" y="201.1592">4</text><text fill="#000000" font-family="sans-serif" font-size="13" lengthAdjust="spacing" textLength="127" x="226" y="201.1592">Display list of children</text><polygon fill="#181818" points="181,291.7188,191,295.7188,181,299.7188,185,295.7188" style="stroke:#181818;stroke-width:1.0;"/><line style="stroke:#181818;stroke-width:1.0;" x1="49" x2="187" y1="295.7188" y2="295.7188"/><text fill="#000000" font-family="sans-serif" font-size="13" font-weight="bold" lengthAdjust="spacing" textLength="7" x="56" y="282.6865">5</text><text fill="#000000" font-family="sans-serif" font-size="13" lengthAdjust="spacing" textLength="114" x="67" y="274.5107">Select child want to</text><text fill="#000000" font-family="sans-serif" font-size="13" lengthAdjust="spacing" textLength="88" x="67" y="290.8623">view sleep time</text><polygon fill="#181818" points="181,322.0703,191,326.0703,181,330.0703,185,326.0703" style="stroke:#181818;stroke-width:1.0;"/><line style="stroke:#181818;stroke-width:1.0;" x1="49" x2="187" y1="326.0703" y2="326.0703"/><text fill="#000000" font-family="sans-serif" font-size="13" font-weight="bold" lengthAdjust="spacing" textLength="7" x="56" y="321.2139">6</text><text fill="#000000" font-family="sans-serif" font-size="13" lengthAdjust="spacing" textLength="93" x="67" y="321.2139">Choose function</text><path d="M10,341.0703 L75,341.0703 L75,349.4219 L65,359.4219 L10,359.4219 L10,341.0703 " fill="#EEEEEE" style="stroke:#000000;stroke-width:1.5;"/><rect fill="none" height="64.7969" style="stroke:#000000;stroke-width:1.5;" width="622.5" x="10" y="341.0703"/><text fill="#000000" font-family="sans-serif" font-size="13" font-weight="bold" lengthAdjust="spacing" textLength="20" x="25" y="355.5654">opt</text><text fill="#000000" font-family="sans-serif" font-size="11" font-weight="bold" lengthAdjust="spacing" textLength="46" x="90" y="354.4893">[Update]</text><rect fill="none" height="41.4453" style="stroke:#000000;stroke-width:1.5;" width="608.5" x="17" y="359.4219"/><path d="M17,359.4219 L79,359.4219 L79,367.4219 L69,377.4219 L17,377.4219 L17,359.4219 " fill="#EEEEEE" style="stroke:#000000;stroke-width:2.0;"/><text fill="#000000" font-family="sans-serif" font-size="13" font-weight="bold" lengthAdjust="spacing" textLength="17" x="30" y="374.917">ref</text><text fill="#000000" font-family="sans-serif" font-size="12" lengthAdjust="spacing" textLength="165" x="238.75" y="393.8789">Sequence Update Sleep Time</text><path d="M10,419.8672 L75,419.8672 L75,428.2188 L65,438.2188 L10,438.2188 L10,419.8672 " fill="#EEEEEE" style="stroke:#000000;stroke-width:1.5;"/><rect fill="none" height="64.7969" style="stroke:#000000;stroke-width:1.5;" width="622.5" x="10" y="419.8672"/><text fill="#000000" font-family="sans-serif" font-size="13" font-weight="bold" lengthAdjust="spacing" textLength="20" x="25" y="434.3623">opt</text><text fill="#000000" font-family="sans-serif" font-size="11" font-weight="bold" lengthAdjust="spacing" textLength="143" x="90" y="433.2861">[View Sleep Time History]</text><rect fill="none" height="41.4453" style="stroke:#000000;stroke-width:1.5;" width="608.5" x="17" y="438.2188"/><path d="M17,438.2188 L79,438.2188 L79,446.2188 L69,456.2188 L17,456.2188 L17,438.2188 " fill="#EEEEEE" style="stroke:#000000;stroke-width:2.0;"/><text fill="#000000" font-family="sans-serif" font-size="13" font-weight="bold" lengthAdjust="spacing" textLength="17" x="30" y="453.7139">ref</text><text fill="#000000" font-family="sans-serif" font-size="12" lengthAdjust="spacing" textLength="192" x="225.25" y="472.6758">Sequence View Sleep Time History</text><!--MD5=[959cbe5a2736ba4cd989b86c4aa44c95]
@startuml ManageSleepTimeSeq
autonumber
hide footbox

actor Parent
boundary SleepTimeManagementView
control SleepTimeController
entity CHILD
entity SLEEPTIME

SleepTimeController -> CHILD: Get list of children
activate SleepTimeController
activate CHILD
CHILD - - -> SleepTimeController: List of children
deactivate CHILD
SleepTimeController - -> SleepTimeManagementView: List of children
deactivate SleepTimeController
activate SleepTimeManagementView
SleepTimeManagementView -> SleepTimeManagementView: Display list of children
activate SleepTimeManagementView
deactivate SleepTimeManagementView
Parent -> SleepTimeManagementView: Select child want to\nview sleep time
activate Parent

Parent -> SleepTimeManagementView: Choose function

opt Update
    ref over Parent, SleepTimeManagementView, SleepTimeController, CHILD, SLEEPTIME: Sequence Update Sleep Time
end

opt View Sleep Time History
    ref over Parent, SleepTimeManagementView, SleepTimeController, CHILD, SLEEPTIME: Sequence View Sleep Time History
end
@enduml

PlantUML version 1.2022.7(Tue Aug 23 00:01:30 ICT 2022)
(GPL source distribution)
Java Runtime: Java(TM) SE Runtime Environment
JVM: Java HotSpot(TM) 64-Bit Server VM
Default Encoding: Cp1252
Language: en
Country: US
--></g></svg>