<?xml version="1.0" encoding="UTF-8" standalone="no"?><svg xmlns="http://www.w3.org/2000/svg" xmlns:xlink="http://www.w3.org/1999/xlink" contentStyleType="text/css" height="1175px" preserveAspectRatio="none" style="width:879px;height:1175px;background:#FFFFFF;" version="1.1" viewBox="0 0 879 1175" width="879px" zoomAndPan="magnify"><defs/><g><rect fill="#FFFFFF" height="248.5938" style="stroke:#181818;stroke-width:1.0;" width="10" x="39" y="370.9063"/><rect fill="#FFFFFF" height="980.8906" style="stroke:#181818;stroke-width:1.0;" width="10" x="263" y="148.3125"/><rect fill="#FFFFFF" height="28" style="stroke:#181818;stroke-width:1.0;" width="10" x="268" y="298.5547"/><rect fill="#FFFFFF" height="28" style="stroke:#181818;stroke-width:1.0;" width="10" x="268" y="409.2578"/><rect fill="#FFFFFF" height="28" style="stroke:#181818;stroke-width:1.0;" width="10" x="268" y="538.3125"/><rect fill="#FFFFFF" height="28" style="stroke:#181818;stroke-width:1.0;" width="10" x="268" y="877.9609"/><rect fill="#FFFFFF" height="28" style="stroke:#181818;stroke-width:1.0;" width="10" x="268" y="1101.2031"/><rect fill="#FFFFFF" height="60.7031" style="stroke:#181818;stroke-width:1.0;" width="10" x="504" y="199.5"/><rect fill="#FFFFFF" height="413" style="stroke:#181818;stroke-width:1.0;" width="10" x="504" y="649.8516"/><rect fill="#FFFFFF" height="30.3516" style="stroke:#181818;stroke-width:1.0;" width="10" x="744" y="199.5"/><rect fill="#FFFFFF" height="352.2969" style="stroke:#181818;stroke-width:1.0;" width="10" x="744" y="680.2031"/><rect fill="#FFFFFF" height="28" style="stroke:#181818;stroke-width:1.0;" width="10" x="749" y="718.5547"/><rect fill="#FFFFFF" height="28" style="stroke:#181818;stroke-width:1.0;" width="10" x="749" y="967.1484"/><rect fill="none" height="241.9453" style="stroke:#000000;stroke-width:1.5;" width="628" x="172" y="99.6094"/><rect fill="none" height="691.9453" style="stroke:#000000;stroke-width:1.5;" width="862" x="10" y="459.2578"/><rect fill="none" height="375.6484" style="stroke:#000000;stroke-width:1.5;" width="684" x="172" y="768.5547"/><line style="stroke:#181818;stroke-width:0.5;stroke-dasharray:5.0,5.0;" x1="44" x2="44" y1="82.6094" y2="1168.2031"/><line style="stroke:#181818;stroke-width:0.5;stroke-dasharray:5.0,5.0;" x1="268" x2="268" y1="82.6094" y2="1168.2031"/><line style="stroke:#181818;stroke-width:0.5;stroke-dasharray:5.0,5.0;" x1="508.5" x2="508.5" y1="82.6094" y2="1168.2031"/><line style="stroke:#181818;stroke-width:0.5;stroke-dasharray:5.0,5.0;" x1="749" x2="749" y1="82.6094" y2="1168.2031"/><text fill="#000000" font-family="sans-serif" font-size="14" lengthAdjust="spacing" textLength="42" x="20" y="79.5332">Parent</text><ellipse cx="44" cy="13.5" fill="#E2E2F0" rx="8" ry="8" style="stroke:#181818;stroke-width:0.5;"/><path d="M44,21.5 L44,48.5 M31,29.5 L57,29.5 M44,48.5 L31,63.5 M44,48.5 L57,63.5 " fill="none" style="stroke:#181818;stroke-width:0.5;"/><text fill="#000000" font-family="sans-serif" font-size="14" lengthAdjust="spacing" textLength="166" x="182" y="79.5332">SleepTimeInformationView</text><path d="M247.5,37 L247.5,61 M247.5,49 L264.5,49 " fill="none" style="stroke:#181818;stroke-width:0.5;"/><ellipse cx="276.5" cy="49" fill="#E2E2F0" rx="12" ry="12" style="stroke:#181818;stroke-width:0.5;"/><text fill="#000000" font-family="sans-serif" font-size="14" lengthAdjust="spacing" textLength="129" x="441.5" y="79.5332">SleepTimeController</text><ellipse cx="509" cy="49" fill="#E2E2F0" rx="12" ry="12" style="stroke:#181818;stroke-width:0.5;"/><polygon fill="#181818" points="505,37,511,32,509,37,511,42,505,37" style="stroke:#181818;stroke-width:1.0;"/><text fill="#000000" font-family="sans-serif" font-size="14" lengthAdjust="spacing" textLength="76" x="708" y="79.5332">SLEEPTIME</text><ellipse cx="749" cy="49" fill="#E2E2F0" rx="12" ry="12" style="stroke:#181818;stroke-width:0.5;"/><line style="stroke:#181818;stroke-width:0.5;" x1="737" x2="761" y1="63" y2="63"/><rect fill="#FFFFFF" height="248.5938" style="stroke:#181818;stroke-width:1.0;" width="10" x="39" y="370.9063"/><rect fill="#FFFFFF" height="980.8906" style="stroke:#181818;stroke-width:1.0;" width="10" x="263" y="148.3125"/><rect fill="#FFFFFF" height="28" style="stroke:#181818;stroke-width:1.0;" width="10" x="268" y="298.5547"/><rect fill="#FFFFFF" height="28" style="stroke:#181818;stroke-width:1.0;" width="10" x="268" y="409.2578"/><rect fill="#FFFFFF" height="28" style="stroke:#181818;stroke-width:1.0;" width="10" x="268" y="538.3125"/><rect fill="#FFFFFF" height="28" style="stroke:#181818;stroke-width:1.0;" width="10" x="268" y="877.9609"/><rect fill="#FFFFFF" height="28" style="stroke:#181818;stroke-width:1.0;" width="10" x="268" y="1101.2031"/><rect fill="#FFFFFF" height="60.7031" style="stroke:#181818;stroke-width:1.0;" width="10" x="504" y="199.5"/><rect fill="#FFFFFF" height="413" style="stroke:#181818;stroke-width:1.0;" width="10" x="504" y="649.8516"/><rect fill="#FFFFFF" height="30.3516" style="stroke:#181818;stroke-width:1.0;" width="10" x="744" y="199.5"/><rect fill="#FFFFFF" height="352.2969" style="stroke:#181818;stroke-width:1.0;" width="10" x="744" y="680.2031"/><rect fill="#FFFFFF" height="28" style="stroke:#181818;stroke-width:1.0;" width="10" x="749" y="718.5547"/><rect fill="#FFFFFF" height="28" style="stroke:#181818;stroke-width:1.0;" width="10" x="749" y="967.1484"/><path d="M172,99.6094 L233,99.6094 L233,107.9609 L223,117.9609 L172,117.9609 L172,99.6094 " fill="#EEEEEE" style="stroke:#000000;stroke-width:1.5;"/><rect fill="none" height="241.9453" style="stroke:#000000;stroke-width:1.5;" width="628" x="172" y="99.6094"/><text fill="#000000" font-family="sans-serif" font-size="13" font-weight="bold" lengthAdjust="spacing" textLength="16" x="187" y="114.1045">alt</text><text fill="#000000" font-family="sans-serif" font-size="11" font-weight="bold" lengthAdjust="spacing" textLength="61" x="248" y="113.0283">[First time]</text><line style="stroke:#181818;stroke-width:1.0;" x1="268" x2="315" y1="135.3125" y2="135.3125"/><line style="stroke:#181818;stroke-width:1.0;" x1="315" x2="315" y1="135.3125" y2="148.3125"/><line style="stroke:#181818;stroke-width:1.0;" x1="274" x2="315" y1="148.3125" y2="148.3125"/><polygon fill="#181818" points="284,144.3125,274,148.3125,284,152.3125,280,148.3125" style="stroke:#181818;stroke-width:1.0;"/><text fill="#000000" font-family="sans-serif" font-size="13" font-weight="bold" lengthAdjust="spacing" textLength="7" x="280" y="130.4561">1</text><text fill="#000000" font-family="sans-serif" font-size="13" lengthAdjust="spacing" textLength="177" x="291" y="130.4561">Display with empty information</text><line style="stroke:#000000;stroke-width:1.0;stroke-dasharray:2.0,2.0;" x1="172" x2="800" y1="162.3125" y2="162.3125"/><text fill="#000000" font-family="sans-serif" font-size="11" font-weight="bold" lengthAdjust="spacing" textLength="46" x="177" y="173.7314">[Update]</text><polygon fill="#181818" points="732,195.5,742,199.5,732,203.5,736,199.5" style="stroke:#181818;stroke-width:1.0;"/><line style="stroke:#181818;stroke-width:1.0;" x1="514" x2="738" y1="199.5" y2="199.5"/><text fill="#000000" font-family="sans-serif" font-size="13" font-weight="bold" lengthAdjust="spacing" textLength="7" x="521" y="194.6436">2</text><text fill="#000000" font-family="sans-serif" font-size="13" lengthAdjust="spacing" textLength="205" x="532" y="194.6436">Get selected sleep time information</text><polygon fill="#181818" points="525,225.8516,515,229.8516,525,233.8516,521,229.8516" style="stroke:#181818;stroke-width:1.0;"/><line style="stroke:#181818;stroke-width:1.0;stroke-dasharray:2.0,2.0;" x1="519" x2="748" y1="229.8516" y2="229.8516"/><text fill="#000000" font-family="sans-serif" font-size="13" font-weight="bold" lengthAdjust="spacing" textLength="7" x="531" y="224.9951">3</text><text fill="#000000" font-family="sans-serif" font-size="13" lengthAdjust="spacing" textLength="182" x="542" y="224.9951">Selected sleep time information</text><polygon fill="#181818" points="284,256.2031,274,260.2031,284,264.2031,280,260.2031" style="stroke:#181818;stroke-width:1.0;"/><line style="stroke:#181818;stroke-width:1.0;stroke-dasharray:2.0,2.0;" x1="278" x2="508" y1="260.2031" y2="260.2031"/><text fill="#000000" font-family="sans-serif" font-size="13" font-weight="bold" lengthAdjust="spacing" textLength="7" x="290" y="255.3467">4</text><text fill="#000000" font-family="sans-serif" font-size="13" lengthAdjust="spacing" textLength="182" x="301" y="255.3467">Selected sleep time information</text><line style="stroke:#181818;stroke-width:1.0;" x1="278" x2="320" y1="290.5547" y2="290.5547"/><line style="stroke:#181818;stroke-width:1.0;" x1="320" x2="320" y1="290.5547" y2="303.5547"/><line style="stroke:#181818;stroke-width:1.0;" x1="279" x2="320" y1="303.5547" y2="303.5547"/><polygon fill="#181818" points="289,299.5547,279,303.5547,289,307.5547,285,303.5547" style="stroke:#181818;stroke-width:1.0;"/><text fill="#000000" font-family="sans-serif" font-size="13" font-weight="bold" lengthAdjust="spacing" textLength="7" x="285" y="285.6982">5</text><text fill="#000000" font-family="sans-serif" font-size="13" lengthAdjust="spacing" textLength="174" x="296" y="285.6982">Display sleep time information</text><polygon fill="#181818" points="251,366.9063,261,370.9063,251,374.9063,255,370.9063" style="stroke:#181818;stroke-width:1.0;"/><line style="stroke:#181818;stroke-width:1.0;" x1="49" x2="257" y1="370.9063" y2="370.9063"/><text fill="#000000" font-family="sans-serif" font-size="13" font-weight="bold" lengthAdjust="spacing" textLength="7" x="56" y="366.0498">6</text><text fill="#000000" font-family="sans-serif" font-size="13" lengthAdjust="spacing" textLength="162" x="67" y="366.0498">Enter sleep time information</text><line style="stroke:#181818;stroke-width:1.0;" x1="278" x2="320" y1="401.2578" y2="401.2578"/><line style="stroke:#181818;stroke-width:1.0;" x1="320" x2="320" y1="401.2578" y2="414.2578"/><line style="stroke:#181818;stroke-width:1.0;" x1="279" x2="320" y1="414.2578" y2="414.2578"/><polygon fill="#181818" points="289,410.2578,279,414.2578,289,418.2578,285,414.2578" style="stroke:#181818;stroke-width:1.0;"/><text fill="#000000" font-family="sans-serif" font-size="13" font-weight="bold" lengthAdjust="spacing" textLength="7" x="285" y="396.4014">7</text><text fill="#000000" font-family="sans-serif" font-size="13" lengthAdjust="spacing" textLength="76" x="296" y="396.4014">Validate data</text><path d="M10,459.2578 L71,459.2578 L71,467.6094 L61,477.6094 L10,477.6094 L10,459.2578 " fill="#EEEEEE" style="stroke:#000000;stroke-width:1.5;"/><rect fill="none" height="691.9453" style="stroke:#000000;stroke-width:1.5;" width="862" x="10" y="459.2578"/><text fill="#000000" font-family="sans-serif" font-size="13" font-weight="bold" lengthAdjust="spacing" textLength="16" x="25" y="473.7529">alt</text><text fill="#000000" font-family="sans-serif" font-size="11" font-weight="bold" lengthAdjust="spacing" textLength="69" x="86" y="472.6768">[Invalid data]</text><polygon fill="#181818" points="60,495.9609,50,499.9609,60,503.9609,56,499.9609" style="stroke:#181818;stroke-width:1.0;"/><line style="stroke:#181818;stroke-width:1.0;stroke-dasharray:2.0,2.0;" x1="54" x2="262" y1="499.9609" y2="499.9609"/><text fill="#000000" font-family="sans-serif" font-size="13" font-weight="bold" lengthAdjust="spacing" textLength="7" x="66" y="495.1045">8</text><text fill="#000000" font-family="sans-serif" font-size="13" lengthAdjust="spacing" textLength="94" x="77" y="495.1045">Error notification</text><line style="stroke:#181818;stroke-width:1.0;" x1="278" x2="320" y1="530.3125" y2="530.3125"/><line style="stroke:#181818;stroke-width:1.0;" x1="320" x2="320" y1="530.3125" y2="543.3125"/><line style="stroke:#181818;stroke-width:1.0;" x1="279" x2="320" y1="543.3125" y2="543.3125"/><polygon fill="#181818" points="289,539.3125,279,543.3125,289,547.3125,285,543.3125" style="stroke:#181818;stroke-width:1.0;"/><text fill="#000000" font-family="sans-serif" font-size="13" font-weight="bold" lengthAdjust="spacing" textLength="7" x="285" y="525.4561">9</text><text fill="#000000" font-family="sans-serif" font-size="13" lengthAdjust="spacing" textLength="139" x="296" y="525.4561">Display error notification</text><line style="stroke:#000000;stroke-width:1.0;stroke-dasharray:2.0,2.0;" x1="10" x2="872" y1="582.3125" y2="582.3125"/><text fill="#000000" font-family="sans-serif" font-size="11" font-weight="bold" lengthAdjust="spacing" textLength="61" x="15" y="593.7314">[Valid data]</text><polygon fill="#181818" points="251,615.5,261,619.5,251,623.5,255,619.5" style="stroke:#181818;stroke-width:1.0;"/><line style="stroke:#181818;stroke-width:1.0;" x1="44" x2="257" y1="619.5" y2="619.5"/><text fill="#000000" font-family="sans-serif" font-size="13" font-weight="bold" lengthAdjust="spacing" textLength="14" x="51" y="614.6436">10</text><text fill="#000000" font-family="sans-serif" font-size="13" lengthAdjust="spacing" textLength="172" x="69" y="614.6436">Click button "Save" to confirm</text><polygon fill="#181818" points="492,645.8516,502,649.8516,492,653.8516,496,649.8516" style="stroke:#181818;stroke-width:1.0;"/><line style="stroke:#181818;stroke-width:1.0;" x1="273" x2="498" y1="649.8516" y2="649.8516"/><text fill="#000000" font-family="sans-serif" font-size="13" font-weight="bold" lengthAdjust="spacing" textLength="14" x="280" y="644.9951">11</text><text fill="#000000" font-family="sans-serif" font-size="13" lengthAdjust="spacing" textLength="194" x="298" y="644.9951">Send updating sleep time request</text><polygon fill="#181818" points="732,676.2031,742,680.2031,732,684.2031,736,680.2031" style="stroke:#181818;stroke-width:1.0;"/><line style="stroke:#181818;stroke-width:1.0;" x1="514" x2="738" y1="680.2031" y2="680.2031"/><text fill="#000000" font-family="sans-serif" font-size="13" font-weight="bold" lengthAdjust="spacing" textLength="14" x="521" y="675.3467">12</text><text fill="#000000" font-family="sans-serif" font-size="13" lengthAdjust="spacing" textLength="97" x="539" y="675.3467">Send information</text><line style="stroke:#181818;stroke-width:1.0;" x1="759" x2="801" y1="710.5547" y2="710.5547"/><line style="stroke:#181818;stroke-width:1.0;" x1="801" x2="801" y1="710.5547" y2="723.5547"/><line style="stroke:#181818;stroke-width:1.0;" x1="760" x2="801" y1="723.5547" y2="723.5547"/><polygon fill="#181818" points="770,719.5547,760,723.5547,770,727.5547,766,723.5547" style="stroke:#181818;stroke-width:1.0;"/><text fill="#000000" font-family="sans-serif" font-size="13" font-weight="bold" lengthAdjust="spacing" textLength="14" x="766" y="705.6982">13</text><text fill="#000000" font-family="sans-serif" font-size="13" lengthAdjust="spacing" textLength="76" x="784" y="705.6982">Validate data</text><path d="M172,768.5547 L233,768.5547 L233,776.9063 L223,786.9063 L172,786.9063 L172,768.5547 " fill="#EEEEEE" style="stroke:#000000;stroke-width:1.5;"/><rect fill="none" height="375.6484" style="stroke:#000000;stroke-width:1.5;" width="684" x="172" y="768.5547"/><text fill="#000000" font-family="sans-serif" font-size="13" font-weight="bold" lengthAdjust="spacing" textLength="16" x="187" y="783.0498">alt</text><text fill="#000000" font-family="sans-serif" font-size="11" font-weight="bold" lengthAdjust="spacing" textLength="69" x="248" y="781.9736">[Invalid data]</text><polygon fill="#181818" points="525,805.2578,515,809.2578,525,813.2578,521,809.2578" style="stroke:#181818;stroke-width:1.0;"/><line style="stroke:#181818;stroke-width:1.0;stroke-dasharray:2.0,2.0;" x1="519" x2="743" y1="809.2578" y2="809.2578"/><text fill="#000000" font-family="sans-serif" font-size="13" font-weight="bold" lengthAdjust="spacing" textLength="14" x="531" y="804.4014">14</text><text fill="#000000" font-family="sans-serif" font-size="13" lengthAdjust="spacing" textLength="94" x="549" y="804.4014">Error notification</text><polygon fill="#181818" points="284,835.6094,274,839.6094,284,843.6094,280,839.6094" style="stroke:#181818;stroke-width:1.0;"/><line style="stroke:#181818;stroke-width:1.0;stroke-dasharray:2.0,2.0;" x1="278" x2="503" y1="839.6094" y2="839.6094"/><text fill="#000000" font-family="sans-serif" font-size="13" font-weight="bold" lengthAdjust="spacing" textLength="14" x="290" y="834.7529">15</text><text fill="#000000" font-family="sans-serif" font-size="13" lengthAdjust="spacing" textLength="94" x="308" y="834.7529">Error notification</text><line style="stroke:#181818;stroke-width:1.0;" x1="278" x2="320" y1="869.9609" y2="869.9609"/><line style="stroke:#181818;stroke-width:1.0;" x1="320" x2="320" y1="869.9609" y2="882.9609"/><line style="stroke:#181818;stroke-width:1.0;" x1="279" x2="320" y1="882.9609" y2="882.9609"/><polygon fill="#181818" points="289,878.9609,279,882.9609,289,886.9609,285,882.9609" style="stroke:#181818;stroke-width:1.0;"/><text fill="#000000" font-family="sans-serif" font-size="13" font-weight="bold" lengthAdjust="spacing" textLength="14" x="285" y="865.1045">16</text><text fill="#000000" font-family="sans-serif" font-size="13" lengthAdjust="spacing" textLength="139" x="303" y="865.1045">Display error notification</text><line style="stroke:#000000;stroke-width:1.0;stroke-dasharray:2.0,2.0;" x1="172" x2="856" y1="921.9609" y2="921.9609"/><text fill="#000000" font-family="sans-serif" font-size="11" font-weight="bold" lengthAdjust="spacing" textLength="61" x="177" y="933.3799">[Valid data]</text><line style="stroke:#181818;stroke-width:1.0;" x1="759" x2="801" y1="959.1484" y2="959.1484"/><line style="stroke:#181818;stroke-width:1.0;" x1="801" x2="801" y1="959.1484" y2="972.1484"/><line style="stroke:#181818;stroke-width:1.0;" x1="760" x2="801" y1="972.1484" y2="972.1484"/><polygon fill="#181818" points="770,968.1484,760,972.1484,770,976.1484,766,972.1484" style="stroke:#181818;stroke-width:1.0;"/><text fill="#000000" font-family="sans-serif" font-size="13" font-weight="bold" lengthAdjust="spacing" textLength="14" x="766" y="954.292">17</text><text fill="#000000" font-family="sans-serif" font-size="13" lengthAdjust="spacing" textLength="60" x="784" y="954.292">Store data</text><polygon fill="#181818" points="525,1028.5,515,1032.5,525,1036.5,521,1032.5" style="stroke:#181818;stroke-width:1.0;"/><line style="stroke:#181818;stroke-width:1.0;stroke-dasharray:2.0,2.0;" x1="519" x2="748" y1="1032.5" y2="1032.5"/><text fill="#000000" font-family="sans-serif" font-size="13" font-weight="bold" lengthAdjust="spacing" textLength="14" x="531" y="1027.6436">18</text><text fill="#000000" font-family="sans-serif" font-size="13" lengthAdjust="spacing" textLength="117" x="549" y="1027.6436">Success notification</text><polygon fill="#181818" points="284,1058.8516,274,1062.8516,284,1066.8516,280,1062.8516" style="stroke:#181818;stroke-width:1.0;"/><line style="stroke:#181818;stroke-width:1.0;stroke-dasharray:2.0,2.0;" x1="278" x2="508" y1="1062.8516" y2="1062.8516"/><text fill="#000000" font-family="sans-serif" font-size="13" font-weight="bold" lengthAdjust="spacing" textLength="14" x="290" y="1057.9951">19</text><text fill="#000000" font-family="sans-serif" font-size="13" lengthAdjust="spacing" textLength="117" x="308" y="1057.9951">Success notification</text><line style="stroke:#181818;stroke-width:1.0;" x1="278" x2="320" y1="1093.2031" y2="1093.2031"/><line style="stroke:#181818;stroke-width:1.0;" x1="320" x2="320" y1="1093.2031" y2="1106.2031"/><line style="stroke:#181818;stroke-width:1.0;" x1="279" x2="320" y1="1106.2031" y2="1106.2031"/><polygon fill="#181818" points="289,1102.2031,279,1106.2031,289,1110.2031,285,1106.2031" style="stroke:#181818;stroke-width:1.0;"/><text fill="#000000" font-family="sans-serif" font-size="13" font-weight="bold" lengthAdjust="spacing" textLength="14" x="285" y="1088.3467">20</text><text fill="#000000" font-family="sans-serif" font-size="13" lengthAdjust="spacing" textLength="145" x="303" y="1088.3467">Dislay update successful</text><!--MD5=[5bdc1c586e4502c7d7871504cf383753]
@startuml UpdateSleepTimeSeq
autonumber
hide footbox

actor Parent
boundary SleepTimeInformationView
control SleepTimeController
entity SLEEPTIME

alt First time 
    SleepTimeInformationView -> SleepTimeInformationView: Display with empty information
    activate SleepTimeInformationView
else Update
    SleepTimeController -> SLEEPTIME: Get selected sleep time information
    activate SleepTimeController
    activate SLEEPTIME
    SLEEPTIME - -> SleepTimeController: Selected sleep time information
    deactivate SLEEPTIME
    SleepTimeController - -> SleepTimeInformationView: Selected sleep time information
    deactivate SleepTimeController
    SleepTimeInformationView -> SleepTimeInformationView: Display sleep time information
    activate SleepTimeInformationView
    deactivate SleepTimeInformationView
end
    Parent -> SleepTimeInformationView: Enter sleep time information  
    activate Parent
    SleepTimeInformationView -> SleepTimeInformationView: Validate data
    activate SleepTimeInformationView
    deactivate SleepTimeInformationView
alt Invalid data
    SleepTimeInformationView - -> Parent: Error notification
    SleepTimeInformationView -> SleepTimeInformationView: Display error notification
    activate SleepTimeInformationView
    deactivate SleepTimeInformationView
else Valid data
    Parent -> SleepTimeInformationView: Click button "Save" to confirm
    deactivate Parent
    SleepTimeInformationView -> SleepTimeController: Send updating sleep time request
    activate SleepTimeController
    SleepTimeController -> SLEEPTIME: Send information
    activate SLEEPTIME 
    SLEEPTIME -> SLEEPTIME: Validate data
    activate SLEEPTIME 
    deactivate SLEEPTIME 
    alt Invalid data
        SLEEPTIME - -> SleepTimeController: Error notification
        SleepTimeController - -> SleepTimeInformationView: Error notification
        SleepTimeInformationView -> SleepTimeInformationView: Display error notification
        activate SleepTimeInformationView
        deactivate SleepTimeInformationView
    else Valid data
        SLEEPTIME -> SLEEPTIME: Store data
        activate SLEEPTIME 
        deactivate SLEEPTIME 
        SLEEPTIME - -> SleepTimeController: Success notification
        deactivate SLEEPTIME 
        SleepTimeController - -> SleepTimeInformationView: Success notification
        deactivate SleepTimeController
        SleepTimeInformationView -> SleepTimeInformationView: Dislay update successful
        activate SleepTimeInformationView
        deactivate SleepTimeInformationView
        deactivate SleepTimeInformationView
    end
end
@enduml

PlantUML version 1.2022.7(Tue Aug 23 00:01:30 ICT 2022)
(GPL source distribution)
Java Runtime: Java(TM) SE Runtime Environment
JVM: Java HotSpot(TM) 64-Bit Server VM
Default Encoding: Cp1252
Language: en
Country: US
--></g></svg>