<?xml version="1.0" encoding="UTF-8" standalone="no"?><svg xmlns="http://www.w3.org/2000/svg" xmlns:xlink="http://www.w3.org/1999/xlink" contentStyleType="text/css" height="578px" preserveAspectRatio="none" style="width:789px;height:578px;background:#FFFFFF;" version="1.1" viewBox="0 0 789 578" width="789px" zoomAndPan="magnify"><defs/><g><rect fill="#FFFFFF" height="30" style="stroke:#181818;stroke-width:1.0;" width="10" x="24" y="295.7188"/><rect fill="#FFFFFF" height="180.4063" style="stroke:#181818;stroke-width:1.0;" width="10" x="198" y="175.6641"/><rect fill="#FFFFFF" height="28" style="stroke:#181818;stroke-width:1.0;" width="10" x="203" y="214.0156"/><rect fill="#FFFFFF" height="82.7031" style="stroke:#181818;stroke-width:1.0;" width="10" x="382" y="463.4766"/><rect fill="#FFFFFF" height="28" style="stroke:#181818;stroke-width:1.0;" width="10" x="387" y="518.1797"/><rect fill="#FFFFFF" height="60.7031" style="stroke:#181818;stroke-width:1.0;" width="10" x="575" y="114.9609"/><rect fill="#FFFFFF" height="107.4063" style="stroke:#181818;stroke-width:1.0;" width="10" x="575" y="356.0703"/><rect fill="#FFFFFF" height="30.3516" style="stroke:#181818;stroke-width:1.0;" width="10" x="742" y="114.9609"/><rect fill="#FFFFFF" height="30.3516" style="stroke:#181818;stroke-width:1.0;" width="10" x="742" y="402.7734"/><line style="stroke:#181818;stroke-width:0.5;stroke-dasharray:5.0,5.0;" x1="29" x2="29" y1="82.6094" y2="571.1797"/><line style="stroke:#181818;stroke-width:0.5;stroke-dasharray:5.0,5.0;" x1="203" x2="203" y1="82.6094" y2="571.1797"/><line style="stroke:#181818;stroke-width:0.5;stroke-dasharray:5.0,5.0;" x1="386.5" x2="386.5" y1="82.6094" y2="571.1797"/><line style="stroke:#181818;stroke-width:0.5;stroke-dasharray:5.0,5.0;" x1="579.5" x2="579.5" y1="82.6094" y2="571.1797"/><line style="stroke:#181818;stroke-width:0.5;stroke-dasharray:5.0,5.0;" x1="747" x2="747" y1="82.6094" y2="571.1797"/><text fill="#000000" font-family="sans-serif" font-size="14" lengthAdjust="spacing" textLength="42" x="5" y="79.5332">Parent</text><ellipse cx="29" cy="13.5" fill="#E2E2F0" rx="8" ry="8" style="stroke:#181818;stroke-width:0.5;"/><path d="M29,21.5 L29,48.5 M16,29.5 L42,29.5 M29,48.5 L16,63.5 M29,48.5 L42,63.5 " fill="none" style="stroke:#181818;stroke-width:0.5;"/><text fill="#000000" font-family="sans-serif" font-size="14" lengthAdjust="spacing" textLength="67" x="166.5" y="61.9238">SleepTime</text><text fill="#000000" font-family="sans-serif" font-size="14" lengthAdjust="spacing" textLength="72" x="164" y="79.5332">HistoryView</text><path d="M182.5,19.3906 L182.5,43.3906 M182.5,31.3906 L199.5,31.3906 " fill="none" style="stroke:#181818;stroke-width:0.5;"/><ellipse cx="211.5" cy="31.3906" fill="#E2E2F0" rx="12" ry="12" style="stroke:#181818;stroke-width:0.5;"/><text fill="#000000" font-family="sans-serif" font-size="14" lengthAdjust="spacing" textLength="67" x="350.5" y="61.9238">SleepTime</text><text fill="#000000" font-family="sans-serif" font-size="14" lengthAdjust="spacing" textLength="99" x="334.5" y="79.5332">InformationView</text><path d="M366.5,19.3906 L366.5,43.3906 M366.5,31.3906 L383.5,31.3906 " fill="none" style="stroke:#181818;stroke-width:0.5;"/><ellipse cx="395.5" cy="31.3906" fill="#E2E2F0" rx="12" ry="12" style="stroke:#181818;stroke-width:0.5;"/><text fill="#000000" font-family="sans-serif" font-size="14" lengthAdjust="spacing" textLength="129" x="512.5" y="79.5332">SleepTimeController</text><ellipse cx="580" cy="49" fill="#E2E2F0" rx="12" ry="12" style="stroke:#181818;stroke-width:0.5;"/><polygon fill="#181818" points="576,37,582,32,580,37,582,42,576,37" style="stroke:#181818;stroke-width:1.0;"/><text fill="#000000" font-family="sans-serif" font-size="14" lengthAdjust="spacing" textLength="76" x="706" y="79.5332">SLEEPTIME</text><ellipse cx="747" cy="49" fill="#E2E2F0" rx="12" ry="12" style="stroke:#181818;stroke-width:0.5;"/><line style="stroke:#181818;stroke-width:0.5;" x1="735" x2="759" y1="63" y2="63"/><rect fill="#FFFFFF" height="30" style="stroke:#181818;stroke-width:1.0;" width="10" x="24" y="295.7188"/><rect fill="#FFFFFF" height="180.4063" style="stroke:#181818;stroke-width:1.0;" width="10" x="198" y="175.6641"/><rect fill="#FFFFFF" height="28" style="stroke:#181818;stroke-width:1.0;" width="10" x="203" y="214.0156"/><rect fill="#FFFFFF" height="82.7031" style="stroke:#181818;stroke-width:1.0;" width="10" x="382" y="463.4766"/><rect fill="#FFFFFF" height="28" style="stroke:#181818;stroke-width:1.0;" width="10" x="387" y="518.1797"/><rect fill="#FFFFFF" height="60.7031" style="stroke:#181818;stroke-width:1.0;" width="10" x="575" y="114.9609"/><rect fill="#FFFFFF" height="107.4063" style="stroke:#181818;stroke-width:1.0;" width="10" x="575" y="356.0703"/><rect fill="#FFFFFF" height="30.3516" style="stroke:#181818;stroke-width:1.0;" width="10" x="742" y="114.9609"/><rect fill="#FFFFFF" height="30.3516" style="stroke:#181818;stroke-width:1.0;" width="10" x="742" y="402.7734"/><polygon fill="#181818" points="730,110.9609,740,114.9609,730,118.9609,734,114.9609" style="stroke:#181818;stroke-width:1.0;"/><line style="stroke:#181818;stroke-width:1.0;" x1="585" x2="736" y1="114.9609" y2="114.9609"/><text fill="#000000" font-family="sans-serif" font-size="13" font-weight="bold" lengthAdjust="spacing" textLength="7" x="592" y="110.1045">1</text><text fill="#000000" font-family="sans-serif" font-size="13" lengthAdjust="spacing" textLength="127" x="603" y="110.1045">Get list of sleep times</text><polygon fill="#181818" points="596,141.3125,586,145.3125,596,149.3125,592,145.3125" style="stroke:#181818;stroke-width:1.0;"/><line style="stroke:#181818;stroke-width:1.0;stroke-dasharray:2.0,2.0;" x1="590" x2="746" y1="145.3125" y2="145.3125"/><text fill="#000000" font-family="sans-serif" font-size="13" font-weight="bold" lengthAdjust="spacing" textLength="7" x="602" y="140.4561">2</text><text fill="#000000" font-family="sans-serif" font-size="13" lengthAdjust="spacing" textLength="106" x="613" y="140.4561">List of sleep times</text><polygon fill="#181818" points="219,171.6641,209,175.6641,219,179.6641,215,175.6641" style="stroke:#181818;stroke-width:1.0;"/><line style="stroke:#181818;stroke-width:1.0;stroke-dasharray:2.0,2.0;" x1="213" x2="579" y1="175.6641" y2="175.6641"/><text fill="#000000" font-family="sans-serif" font-size="13" font-weight="bold" lengthAdjust="spacing" textLength="7" x="225" y="170.8076">3</text><text fill="#000000" font-family="sans-serif" font-size="13" lengthAdjust="spacing" textLength="106" x="236" y="170.8076">List of sleep times</text><line style="stroke:#181818;stroke-width:1.0;" x1="213" x2="255" y1="206.0156" y2="206.0156"/><line style="stroke:#181818;stroke-width:1.0;" x1="255" x2="255" y1="206.0156" y2="219.0156"/><line style="stroke:#181818;stroke-width:1.0;" x1="214" x2="255" y1="219.0156" y2="219.0156"/><polygon fill="#181818" points="224,215.0156,214,219.0156,224,223.0156,220,219.0156" style="stroke:#181818;stroke-width:1.0;"/><text fill="#000000" font-family="sans-serif" font-size="13" font-weight="bold" lengthAdjust="spacing" textLength="7" x="220" y="201.1592">4</text><text fill="#000000" font-family="sans-serif" font-size="13" lengthAdjust="spacing" textLength="149" x="231" y="201.1592">Display list of sleep times</text><polygon fill="#181818" points="186,291.7188,196,295.7188,186,299.7188,190,295.7188" style="stroke:#181818;stroke-width:1.0;"/><line style="stroke:#181818;stroke-width:1.0;" x1="34" x2="192" y1="295.7188" y2="295.7188"/><text fill="#000000" font-family="sans-serif" font-size="13" font-weight="bold" lengthAdjust="spacing" textLength="7" x="41" y="282.6865">5</text><text fill="#000000" font-family="sans-serif" font-size="13" lengthAdjust="spacing" textLength="59" x="52" y="274.5107">Select the</text><text fill="#000000" font-family="sans-serif" font-size="13" lengthAdjust="spacing" textLength="134" x="52" y="290.8623">sleep time want to view</text><polygon fill="#181818" points="563,352.0703,573,356.0703,563,360.0703,567,356.0703" style="stroke:#181818;stroke-width:1.0;"/><line style="stroke:#181818;stroke-width:1.0;" x1="203" x2="569" y1="356.0703" y2="356.0703"/><text fill="#000000" font-family="sans-serif" font-size="13" font-weight="bold" lengthAdjust="spacing" textLength="7" x="210" y="351.2139">6</text><text fill="#000000" font-family="sans-serif" font-size="13" lengthAdjust="spacing" textLength="205" x="221" y="351.2139">Get selected sleep time information</text><polygon fill="#181818" points="730,398.7734,740,402.7734,730,406.7734,734,402.7734" style="stroke:#181818;stroke-width:1.0;"/><line style="stroke:#181818;stroke-width:1.0;" x1="585" x2="736" y1="402.7734" y2="402.7734"/><text fill="#000000" font-family="sans-serif" font-size="13" font-weight="bold" lengthAdjust="spacing" textLength="7" x="592" y="389.7412">7</text><text fill="#000000" font-family="sans-serif" font-size="13" lengthAdjust="spacing" textLength="74" x="603" y="381.5654">Get selected</text><text fill="#000000" font-family="sans-serif" font-size="13" lengthAdjust="spacing" textLength="127" x="603" y="397.917">sleep time information</text><polygon fill="#181818" points="596,429.125,586,433.125,596,437.125,592,433.125" style="stroke:#181818;stroke-width:1.0;"/><line style="stroke:#181818;stroke-width:1.0;stroke-dasharray:2.0,2.0;" x1="590" x2="746" y1="433.125" y2="433.125"/><text fill="#000000" font-family="sans-serif" font-size="13" font-weight="bold" lengthAdjust="spacing" textLength="7" x="602" y="428.2686">8</text><text fill="#000000" font-family="sans-serif" font-size="13" lengthAdjust="spacing" textLength="71" x="613" y="428.2686">Query result</text><polygon fill="#181818" points="403,459.4766,393,463.4766,403,467.4766,399,463.4766" style="stroke:#181818;stroke-width:1.0;"/><line style="stroke:#181818;stroke-width:1.0;stroke-dasharray:2.0,2.0;" x1="397" x2="579" y1="463.4766" y2="463.4766"/><text fill="#000000" font-family="sans-serif" font-size="13" font-weight="bold" lengthAdjust="spacing" textLength="7" x="409" y="458.6201">9</text><text fill="#000000" font-family="sans-serif" font-size="13" lengthAdjust="spacing" textLength="71" x="420" y="458.6201">Query result</text><line style="stroke:#181818;stroke-width:1.0;" x1="397" x2="439" y1="510.1797" y2="510.1797"/><line style="stroke:#181818;stroke-width:1.0;" x1="439" x2="439" y1="510.1797" y2="523.1797"/><line style="stroke:#181818;stroke-width:1.0;" x1="398" x2="439" y1="523.1797" y2="523.1797"/><polygon fill="#181818" points="408,519.1797,398,523.1797,408,527.1797,404,523.1797" style="stroke:#181818;stroke-width:1.0;"/><text fill="#000000" font-family="sans-serif" font-size="13" font-weight="bold" lengthAdjust="spacing" textLength="14" x="404" y="497.1475">10</text><text fill="#000000" font-family="sans-serif" font-size="13" lengthAdjust="spacing" textLength="151" x="422" y="488.9717">Display view with selected</text><text fill="#000000" font-family="sans-serif" font-size="13" lengthAdjust="spacing" textLength="127" x="422" y="505.3232">sleep time information</text><!--MD5=[555637725a3823770195501dfa6e25ce]
@startuml ViewSleepTimeHistorySeq
autonumber
hide footbox

actor Parent
boundary "SleepTime\nHistoryView" as SleepTimeHistoryView
boundary "SleepTime\nInformationView" as SleepTimeInformationView
control SleepTimeController
entity SLEEPTIME

SleepTimeController -> SLEEPTIME: Get list of sleep times
activate SleepTimeController
activate SLEEPTIME
SLEEPTIME - -> SleepTimeController: List of sleep times
deactivate SLEEPTIME
SleepTimeController - -> SleepTimeHistoryView: List of sleep times
deactivate SleepTimeController
activate SleepTimeHistoryView
SleepTimeHistoryView -> SleepTimeHistoryView: Display list of sleep times
activate SleepTimeHistoryView
deactivate SleepTimeHistoryView
Parent -> SleepTimeHistoryView: Select the\nsleep time want to view
activate Parent
deactivate Parent
SleepTimeHistoryView -> SleepTimeController: Get selected sleep time information
deactivate SleepTimeHistoryView
activate SleepTimeController
SleepTimeController -> SLEEPTIME: Get selected\nsleep time information
activate SLEEPTIME
SLEEPTIME - -> SleepTimeController: Query result
deactivate SLEEPTIME
SleepTimeController - -> SleepTimeInformationView: Query result
deactivate SleepTimeController
activate SleepTimeInformationView
SleepTimeInformationView -> SleepTimeInformationView: Display view with selected\nsleep time information
activate SleepTimeInformationView
deactivate SleepTimeInformationView
deactivate SleepTimeInformationView
@end

PlantUML version 1.2022.7(Tue Aug 23 00:01:30 ICT 2022)
(GPL source distribution)
Java Runtime: Java(TM) SE Runtime Environment
JVM: Java HotSpot(TM) 64-Bit Server VM
Default Encoding: Cp1252
Language: en
Country: US
--></g></svg>