<?xml version="1.0" encoding="UTF-8" standalone="no"?><svg xmlns="http://www.w3.org/2000/svg" xmlns:xlink="http://www.w3.org/1999/xlink" contentStyleType="text/css" height="824px" preserveAspectRatio="none" style="width:735px;height:824px;background:#FFFFFF;" version="1.1" viewBox="0 0 735 824" width="735px" zoomAndPan="magnify"><defs/><g><rect fill="#F1F1F1" height="50.1875" rx="12.5" ry="12.5" style="stroke:#181818;stroke-width:0.5;" width="125" x="21" y="194.2832"/><text fill="#000000" font-family="sans-serif" font-size="12" lengthAdjust="spacing" textLength="105" x="31" y="216.7402">(2) Enter meal time</text><text fill="#000000" font-family="sans-serif" font-size="12" lengthAdjust="spacing" textLength="62" x="31" y="231.834">information</text><polygon fill="#F1F1F1" points="83.5,150.2832,95.5,162.2832,83.5,174.2832,71.5,162.2832,83.5,150.2832" style="stroke:#181818;stroke-width:0.5;"/><rect fill="#F1F1F1" height="50.1875" rx="12.5" ry="12.5" style="stroke:#181818;stroke-width:0.5;" width="112" x="27.5" y="391.4834"/><text fill="#000000" font-family="sans-serif" font-size="12" lengthAdjust="spacing" textLength="92" x="37.5" y="413.9404">(3.2) Click button</text><text fill="#000000" font-family="sans-serif" font-size="12" lengthAdjust="spacing" textLength="92" x="37.5" y="429.0342">"Save" to confirm</text><line style="stroke:#000000;stroke-width:1.5;" x1="15" x2="15" y1="12.4551" y2="812.1396"/><ellipse cx="294.75" cy="50.0957" fill="#222222" rx="10" ry="10" style="stroke:#222222;stroke-width:1.0;"/><rect fill="#F1F1F1" height="50.1875" rx="12.5" ry="12.5" style="stroke:#181818;stroke-width:0.5;" width="137" x="226.25" y="80.0957"/><text fill="#000000" font-family="sans-serif" font-size="12" lengthAdjust="spacing" textLength="117" x="236.25" y="102.5527">(1) Display meal time</text><text fill="#000000" font-family="sans-serif" font-size="12" lengthAdjust="spacing" textLength="89" x="236.25" y="117.6465">information view</text><rect fill="#F1F1F1" height="35.0938" rx="12.5" ry="12.5" style="stroke:#181818;stroke-width:0.5;" width="147" x="221.25" y="279.4707"/><text fill="#000000" font-family="sans-serif" font-size="12" lengthAdjust="spacing" textLength="127" x="231.25" y="301.9277">(3) Validate data format</text><polygon fill="#F1F1F1" points="294.75,334.5645,294.75,334.5645,306.75,346.5645,294.75,358.5645,294.75,358.5645,282.75,346.5645,294.75,334.5645" style="stroke:#181818;stroke-width:0.5;"/><text fill="#000000" font-family="sans-serif" font-size="11" lengthAdjust="spacing" textLength="48" x="298.75" y="369.9834">Valid data</text><text fill="#000000" font-family="sans-serif" font-size="11" lengthAdjust="spacing" textLength="54" x="306.75" y="344.1475">Invalid data</text><rect fill="#F1F1F1" height="50.1875" rx="12.5" ry="12.5" style="stroke:#181818;stroke-width:0.5;" width="108" x="392.25" y="229.3301"/><text fill="#000000" font-family="sans-serif" font-size="12" lengthAdjust="spacing" textLength="69" x="402.25" y="251.7871">(3.1) Display</text><text fill="#000000" font-family="sans-serif" font-size="12" lengthAdjust="spacing" textLength="88" x="402.25" y="266.8809">error notification</text><rect fill="#F1F1F1" height="35.0938" rx="12.5" ry="12.5" style="stroke:#181818;stroke-width:0.5;" width="176" x="206.75" y="461.6709"/><text fill="#000000" font-family="sans-serif" font-size="12" lengthAdjust="spacing" textLength="156" x="216.75" y="484.1279">(4) Process creating request</text><rect fill="#F1F1F1" height="50.1875" rx="12.5" ry="12.5" style="stroke:#181818;stroke-width:0.5;" width="108" x="156" y="615.8584"/><text fill="#000000" font-family="sans-serif" font-size="12" lengthAdjust="spacing" textLength="69" x="166" y="638.3154">(5.1) Display</text><text fill="#000000" font-family="sans-serif" font-size="12" lengthAdjust="spacing" textLength="88" x="166" y="653.4092">error notification</text><rect fill="#F1F1F1" height="50.1875" rx="12.5" ry="12.5" style="stroke:#181818;stroke-width:0.5;" width="191" x="284" y="685.9521"/><text fill="#000000" font-family="sans-serif" font-size="12" lengthAdjust="spacing" textLength="171" x="294" y="708.4092">(6) Display success notification</text><text fill="#000000" font-family="sans-serif" font-size="12" lengthAdjust="spacing" textLength="118" x="294" y="723.5029">and list of meal times</text><line style="stroke:#000000;stroke-width:1.5;" x1="150" x2="150" y1="12.4551" y2="812.1396"/><rect fill="#F1F1F1" height="35.0938" rx="12.5" ry="12.5" style="stroke:#181818;stroke-width:0.5;" width="109" x="520.75" y="516.7646"/><text fill="#000000" font-family="sans-serif" font-size="12" lengthAdjust="spacing" textLength="89" x="530.75" y="539.2217">(5) Validate data</text><polygon fill="#F1F1F1" points="575.25,571.8584,575.25,571.8584,587.25,583.8584,575.25,595.8584,575.25,595.8584,563.25,583.8584,575.25,571.8584" style="stroke:#181818;stroke-width:0.5;"/><text fill="#000000" font-family="sans-serif" font-size="11" lengthAdjust="spacing" textLength="54" x="509.25" y="581.4414">Invalid data</text><text fill="#000000" font-family="sans-serif" font-size="11" lengthAdjust="spacing" textLength="48" x="587.25" y="581.4414">Valid data</text><rect fill="#F1F1F1" height="35.0938" rx="12.5" ry="12.5" style="stroke:#181818;stroke-width:0.5;" width="104" x="608" y="615.8584"/><text fill="#000000" font-family="sans-serif" font-size="12" lengthAdjust="spacing" textLength="84" x="618" y="638.3154">(5.2) Store data</text><polygon fill="#F1F1F1" points="575.25,746.1396,587.25,758.1396,575.25,770.1396,563.25,758.1396,575.25,746.1396" style="stroke:#181818;stroke-width:0.5;"/><ellipse cx="575.25" cy="801.1396" fill="none" rx="11" ry="11" style="stroke:#222222;stroke-width:1.0;"/><ellipse cx="575.25" cy="801.1396" fill="#222222" rx="6" ry="6" style="stroke:#111111;stroke-width:1.0;"/><line style="stroke:#000000;stroke-width:1.5;" x1="504.25" x2="504.25" y1="12.4551" y2="812.1396"/><line style="stroke:#000000;stroke-width:1.5;" x1="716" x2="716" y1="12.4551" y2="812.1396"/><line style="stroke:#181818;stroke-width:1.0;" x1="83.5" x2="83.5" y1="174.2832" y2="194.2832"/><polygon fill="#181818" points="79.5,184.2832,83.5,194.2832,87.5,184.2832,83.5,188.2832" style="stroke:#181818;stroke-width:1.0;"/><line style="stroke:#181818;stroke-width:1.0;" x1="294.75" x2="294.75" y1="60.0957" y2="80.0957"/><polygon fill="#181818" points="290.75,70.0957,294.75,80.0957,298.75,70.0957,294.75,74.0957" style="stroke:#181818;stroke-width:1.0;"/><line style="stroke:#181818;stroke-width:1.0;" x1="306.75" x2="446.25" y1="346.5645" y2="346.5645"/><line style="stroke:#181818;stroke-width:1.0;" x1="446.25" x2="446.25" y1="279.5176" y2="346.5645"/><polygon fill="#181818" points="442.25,289.5176,446.25,279.5176,450.25,289.5176,446.25,285.5176" style="stroke:#181818;stroke-width:1.0;"/><line style="stroke:#181818;stroke-width:1.0;" x1="294.75" x2="294.75" y1="314.5645" y2="334.5645"/><polygon fill="#181818" points="290.75,324.5645,294.75,334.5645,298.75,324.5645,294.75,328.5645" style="stroke:#181818;stroke-width:1.0;"/><line style="stroke:#181818;stroke-width:1.0;" x1="587.25" x2="660" y1="583.8584" y2="583.8584"/><line style="stroke:#181818;stroke-width:1.0;" x1="660" x2="660" y1="583.8584" y2="615.8584"/><polygon fill="#181818" points="656,605.8584,660,615.8584,664,605.8584,660,609.8584" style="stroke:#181818;stroke-width:1.0;"/><line style="stroke:#181818;stroke-width:1.0;" x1="575.25" x2="575.25" y1="551.8584" y2="571.8584"/><polygon fill="#181818" points="571.25,561.8584,575.25,571.8584,579.25,561.8584,575.25,565.8584" style="stroke:#181818;stroke-width:1.0;"/><line style="stroke:#181818;stroke-width:1.0;" x1="575.25" x2="575.25" y1="770.1396" y2="790.1396"/><polygon fill="#181818" points="571.25,780.1396,575.25,790.1396,579.25,780.1396,575.25,784.1396" style="stroke:#181818;stroke-width:1.0;"/><line style="stroke:#181818;stroke-width:1.0;" x1="83.5" x2="83.5" y1="244.4707" y2="261.9707"/><line style="stroke:#181818;stroke-width:1.0;" x1="83.5" x2="294.75" y1="261.9707" y2="261.9707"/><line style="stroke:#181818;stroke-width:1.0;" x1="294.75" x2="294.75" y1="261.9707" y2="279.4707"/><polygon fill="#181818" points="290.75,269.4707,294.75,279.4707,298.75,269.4707,294.75,273.4707" style="stroke:#181818;stroke-width:1.0;"/><line style="stroke:#181818;stroke-width:1.0;" x1="446.25" x2="446.25" y1="162.2832" y2="229.3301"/><line style="stroke:#181818;stroke-width:1.0;" x1="446.25" x2="95.5" y1="162.2832" y2="162.2832"/><polygon fill="#181818" points="105.5,158.2832,95.5,162.2832,105.5,166.2832,101.5,162.2832" style="stroke:#181818;stroke-width:1.0;"/><line style="stroke:#181818;stroke-width:1.0;" x1="294.75" x2="294.75" y1="130.2832" y2="135.2832"/><line style="stroke:#181818;stroke-width:1.0;" x1="294.75" x2="83.5" y1="135.2832" y2="135.2832"/><line style="stroke:#181818;stroke-width:1.0;" x1="83.5" x2="83.5" y1="135.2832" y2="150.2832"/><polygon fill="#181818" points="79.5,140.2832,83.5,150.2832,87.5,140.2832,83.5,144.2832" style="stroke:#181818;stroke-width:1.0;"/><line style="stroke:#181818;stroke-width:1.0;" x1="294.75" x2="294.75" y1="358.5645" y2="376.0645"/><line style="stroke:#181818;stroke-width:1.0;" x1="294.75" x2="83.5" y1="376.0645" y2="376.0645"/><line style="stroke:#181818;stroke-width:1.0;" x1="83.5" x2="83.5" y1="376.0645" y2="391.4834"/><polygon fill="#181818" points="79.5,381.4834,83.5,391.4834,87.5,381.4834,83.5,385.4834" style="stroke:#181818;stroke-width:1.0;"/><line style="stroke:#181818;stroke-width:1.0;" x1="83.5" x2="83.5" y1="441.6709" y2="446.6709"/><line style="stroke:#181818;stroke-width:1.0;" x1="83.5" x2="294.75" y1="446.6709" y2="446.6709"/><line style="stroke:#181818;stroke-width:1.0;" x1="294.75" x2="294.75" y1="446.6709" y2="461.6709"/><polygon fill="#181818" points="290.75,451.6709,294.75,461.6709,298.75,451.6709,294.75,455.6709" style="stroke:#181818;stroke-width:1.0;"/><line style="stroke:#181818;stroke-width:1.0;" x1="294.75" x2="294.75" y1="496.7646" y2="501.7646"/><line style="stroke:#181818;stroke-width:1.0;" x1="294.75" x2="575.25" y1="501.7646" y2="501.7646"/><line style="stroke:#181818;stroke-width:1.0;" x1="575.25" x2="575.25" y1="501.7646" y2="516.7646"/><polygon fill="#181818" points="571.25,506.7646,575.25,516.7646,579.25,506.7646,575.25,510.7646" style="stroke:#181818;stroke-width:1.0;"/><line style="stroke:#181818;stroke-width:1.0;" x1="660" x2="660" y1="650.9521" y2="668.4521"/><line style="stroke:#181818;stroke-width:1.0;" x1="660" x2="379.5" y1="668.4521" y2="668.4521"/><line style="stroke:#181818;stroke-width:1.0;" x1="379.5" x2="379.5" y1="668.4521" y2="685.9521"/><polygon fill="#181818" points="375.5,675.9521,379.5,685.9521,383.5,675.9521,379.5,679.9521" style="stroke:#181818;stroke-width:1.0;"/><line style="stroke:#181818;stroke-width:1.0;" x1="563.25" x2="210" y1="583.8584" y2="583.8584"/><line style="stroke:#181818;stroke-width:1.0;" x1="210" x2="210" y1="583.8584" y2="615.8584"/><polygon fill="#181818" points="206,605.8584,210,615.8584,214,605.8584,210,609.8584" style="stroke:#181818;stroke-width:1.0;"/><line style="stroke:#181818;stroke-width:1.0;" x1="210" x2="210" y1="666.0459" y2="758.1396"/><line style="stroke:#181818;stroke-width:1.0;" x1="210" x2="563.25" y1="758.1396" y2="758.1396"/><polygon fill="#181818" points="553.25,754.1396,563.25,758.1396,553.25,762.1396,557.25,758.1396" style="stroke:#181818;stroke-width:1.0;"/><line style="stroke:#181818;stroke-width:1.0;" x1="379.5" x2="379.5" y1="736.1396" y2="740.1396"/><line style="stroke:#181818;stroke-width:1.0;" x1="379.5" x2="605.25" y1="740.1396" y2="740.1396"/><line style="stroke:#181818;stroke-width:1.0;" x1="605.25" x2="605.25" y1="740.1396" y2="758.1396"/><line style="stroke:#181818;stroke-width:1.0;" x1="605.25" x2="587.25" y1="758.1396" y2="758.1396"/><polygon fill="#181818" points="597.25,754.1396,587.25,758.1396,597.25,762.1396,593.25,758.1396" style="stroke:#181818;stroke-width:1.0;"/><text fill="#000000" font-family="sans-serif" font-size="18" lengthAdjust="spacing" textLength="53" x="56" y="31.1406">Parent</text><text fill="#000000" font-family="sans-serif" font-size="18" lengthAdjust="spacing" textLength="59" x="297.625" y="31.1406">System</text><text fill="#000000" font-family="sans-serif" font-size="18" lengthAdjust="spacing" textLength="77" x="571.625" y="31.1406">Database</text><!--MD5=[9521e0d6c06b6c93edccb31ea74427d3]
@startuml CreateMealTimeActi
|Parent|
|System|

start
:(1) Display meal time\ninformation view;

repeat
    |Parent|
    :(2) Enter meal time\ninformation;
    |System|
    :(3) Validate data format;
    backward :(3.1) Display\nerror notification;
repeat while () is (Invalid data) not (Valid data)
    |Parent|
    :(3.2) Click button\n"Save" to confirm;
    |System|
    :(4) Process creating request;
    |Database|
    :(5) Validate data;
    if () then (Invalid data)
        |System|
        :(5.1) Display\nerror notification;
    else (Valid data)
        |Database|  
        :(5.2) Store data;
        |System|
        :(6) Display success notification\nand list of meal times;
        endif
    |Database|
stop
@enduml

PlantUML version 1.2022.7(Tue Aug 23 00:01:30 ICT 2022)
(GPL source distribution)
Java Runtime: Java(TM) SE Runtime Environment
JVM: Java HotSpot(TM) 64-Bit Server VM
Default Encoding: Cp1252
Language: en
Country: US
--></g></svg>