<?xml version="1.0" encoding="UTF-8" standalone="no"?><svg xmlns="http://www.w3.org/2000/svg" xmlns:xlink="http://www.w3.org/1999/xlink" contentStyleType="text/css" height="728px" preserveAspectRatio="none" style="width:889px;height:728px;background:#FFFFFF;" version="1.1" viewBox="0 0 889 728" width="889px" zoomAndPan="magnify"><defs/><g><ellipse cx="176.75" cy="50.0957" fill="#222222" rx="10" ry="10" style="stroke:#222222;stroke-width:1.0;"/><rect fill="#F1F1F1" height="50.1875" rx="12.5" ry="12.5" style="stroke:#181818;stroke-width:0.5;" width="130" x="111.75" y="80.0957"/><text fill="#000000" font-family="sans-serif" font-size="12" lengthAdjust="spacing" textLength="110" x="121.75" y="102.5527">(1) Select meal time</text><text fill="#000000" font-family="sans-serif" font-size="12" lengthAdjust="spacing" textLength="82" x="121.75" y="117.6465">needs deleting</text><rect fill="#F1F1F1" height="50.1875" rx="12.5" ry="12.5" style="stroke:#181818;stroke-width:0.5;" width="104" x="21" y="264.4707"/><text fill="#000000" font-family="sans-serif" font-size="12" lengthAdjust="spacing" textLength="62" x="31" y="286.9277">(2.1) Clickn</text><text fill="#000000" font-family="sans-serif" font-size="12" lengthAdjust="spacing" textLength="84" x="31" y="302.0215">"Cancel" button</text><ellipse cx="73" cy="344.6582" fill="none" rx="10" ry="10" style="stroke:#222222;stroke-width:1.5;"/><line style="stroke:#222222;stroke-width:2.5;" x1="66.8128" x2="79.1872" y1="338.471" y2="350.8454"/><line style="stroke:#222222;stroke-width:2.5;" x1="79.1872" x2="66.8128" y1="338.471" y2="350.8454"/><rect fill="#F1F1F1" height="50.1875" rx="12.5" ry="12.5" style="stroke:#181818;stroke-width:0.5;" width="109" x="226" y="264.4707"/><text fill="#000000" font-family="sans-serif" font-size="12" lengthAdjust="spacing" textLength="55" x="236" y="286.9277">(2.2) Click</text><text fill="#000000" font-family="sans-serif" font-size="12" lengthAdjust="spacing" textLength="89" x="236" y="302.0215">"Confirm" button</text><line style="stroke:#000000;stroke-width:1.5;" x1="15" x2="15" y1="12.4551" y2="716.2207"/><rect fill="#F1F1F1" height="50.1875" rx="12.5" ry="12.5" style="stroke:#181818;stroke-width:0.5;" width="150" x="345" y="150.2832"/><text fill="#000000" font-family="sans-serif" font-size="12" lengthAdjust="spacing" textLength="130" x="355" y="172.7402">(2) Display confirmation</text><text fill="#000000" font-family="sans-serif" font-size="12" lengthAdjust="spacing" textLength="72" x="355" y="187.834">messagebox</text><polygon fill="#F1F1F1" points="420,220.4707,420,220.4707,432,232.4707,420,244.4707,420,244.4707,408,232.4707,420,220.4707" style="stroke:#181818;stroke-width:0.5;"/><text fill="#000000" font-family="sans-serif" font-size="11" lengthAdjust="spacing" textLength="33" x="375" y="230.0537">Cancel</text><text fill="#000000" font-family="sans-serif" font-size="11" lengthAdjust="spacing" textLength="37" x="432" y="230.0537">Confirm</text><rect fill="#F1F1F1" height="35.0938" rx="12.5" ry="12.5" style="stroke:#181818;stroke-width:0.5;" width="176" x="435.75" y="334.6582"/><text fill="#000000" font-family="sans-serif" font-size="12" lengthAdjust="spacing" textLength="156" x="445.75" y="357.1152">(3) Process deleting request</text><rect fill="#F1F1F1" height="50.1875" rx="12.5" ry="12.5" style="stroke:#181818;stroke-width:0.5;" width="108" x="398.25" y="488.8457"/><text fill="#000000" font-family="sans-serif" font-size="12" lengthAdjust="spacing" textLength="69" x="408.25" y="511.3027">(4.1) Display</text><text fill="#000000" font-family="sans-serif" font-size="12" lengthAdjust="spacing" textLength="88" x="408.25" y="526.3965">error notification</text><rect fill="#F1F1F1" height="65.2813" rx="12.5" ry="12.5" style="stroke:#181818;stroke-width:0.5;" width="138" x="526.25" y="558.9395"/><text fill="#000000" font-family="sans-serif" font-size="12" lengthAdjust="spacing" textLength="109" x="536.25" y="581.3965">(5) Display success</text><text fill="#000000" font-family="sans-serif" font-size="12" lengthAdjust="spacing" textLength="59" x="536.25" y="596.4902">notification</text><text fill="#000000" font-family="sans-serif" font-size="12" lengthAdjust="spacing" textLength="118" x="536.25" y="611.584">and list of meal times</text><line style="stroke:#000000;stroke-width:1.5;" x1="339" x2="339" y1="12.4551" y2="716.2207"/><rect fill="#F1F1F1" height="35.0938" rx="12.5" ry="12.5" style="stroke:#181818;stroke-width:0.5;" width="109" x="684.75" y="389.752"/><text fill="#000000" font-family="sans-serif" font-size="12" lengthAdjust="spacing" textLength="89" x="694.75" y="412.209">(4) Validate data</text><polygon fill="#F1F1F1" points="739.25,444.8457,739.25,444.8457,751.25,456.8457,739.25,468.8457,739.25,468.8457,727.25,456.8457,739.25,444.8457" style="stroke:#181818;stroke-width:0.5;"/><text fill="#000000" font-family="sans-serif" font-size="11" lengthAdjust="spacing" textLength="54" x="673.25" y="454.4287">Invalid data</text><text fill="#000000" font-family="sans-serif" font-size="11" lengthAdjust="spacing" textLength="48" x="751.25" y="454.4287">Valid data</text><rect fill="#F1F1F1" height="35.0938" rx="12.5" ry="12.5" style="stroke:#181818;stroke-width:0.5;" width="111" x="755.25" y="488.8457"/><text fill="#000000" font-family="sans-serif" font-size="12" lengthAdjust="spacing" textLength="91" x="765.25" y="511.3027">(4.2) Delete data</text><polygon fill="#F1F1F1" points="739.25,634.2207,751.25,646.2207,739.25,658.2207,727.25,646.2207,739.25,634.2207" style="stroke:#181818;stroke-width:0.5;"/><ellipse cx="739.25" cy="689.2207" fill="none" rx="11" ry="11" style="stroke:#222222;stroke-width:1.0;"/><ellipse cx="739.25" cy="689.2207" fill="#222222" rx="6" ry="6" style="stroke:#111111;stroke-width:1.0;"/><line style="stroke:#000000;stroke-width:1.5;" x1="668.25" x2="668.25" y1="12.4551" y2="716.2207"/><line style="stroke:#000000;stroke-width:1.5;" x1="870.25" x2="870.25" y1="12.4551" y2="716.2207"/><line style="stroke:#181818;stroke-width:1.0;" x1="176.75" x2="176.75" y1="60.0957" y2="80.0957"/><polygon fill="#181818" points="172.75,70.0957,176.75,80.0957,180.75,70.0957,176.75,74.0957" style="stroke:#181818;stroke-width:1.0;"/><line style="stroke:#181818;stroke-width:1.0;" x1="73" x2="73" y1="314.6582" y2="334.6582"/><polygon fill="#181818" points="69,324.6582,73,334.6582,77,324.6582,73,328.6582" style="stroke:#181818;stroke-width:1.0;"/><line style="stroke:#181818;stroke-width:1.0;" x1="420" x2="420" y1="200.4707" y2="220.4707"/><polygon fill="#181818" points="416,210.4707,420,220.4707,424,210.4707,420,214.4707" style="stroke:#181818;stroke-width:1.0;"/><line style="stroke:#181818;stroke-width:1.0;" x1="751.25" x2="810.75" y1="456.8457" y2="456.8457"/><line style="stroke:#181818;stroke-width:1.0;" x1="810.75" x2="810.75" y1="456.8457" y2="488.8457"/><polygon fill="#181818" points="806.75,478.8457,810.75,488.8457,814.75,478.8457,810.75,482.8457" style="stroke:#181818;stroke-width:1.0;"/><line style="stroke:#181818;stroke-width:1.0;" x1="739.25" x2="739.25" y1="424.8457" y2="444.8457"/><polygon fill="#181818" points="735.25,434.8457,739.25,444.8457,743.25,434.8457,739.25,438.8457" style="stroke:#181818;stroke-width:1.0;"/><line style="stroke:#181818;stroke-width:1.0;" x1="739.25" x2="739.25" y1="658.2207" y2="678.2207"/><polygon fill="#181818" points="735.25,668.2207,739.25,678.2207,743.25,668.2207,739.25,672.2207" style="stroke:#181818;stroke-width:1.0;"/><line style="stroke:#181818;stroke-width:1.0;" x1="176.75" x2="176.75" y1="130.2832" y2="135.2832"/><line style="stroke:#181818;stroke-width:1.0;" x1="176.75" x2="420" y1="135.2832" y2="135.2832"/><line style="stroke:#181818;stroke-width:1.0;" x1="420" x2="420" y1="135.2832" y2="150.2832"/><polygon fill="#181818" points="416,140.2832,420,150.2832,424,140.2832,420,144.2832" style="stroke:#181818;stroke-width:1.0;"/><line style="stroke:#181818;stroke-width:1.0;" x1="280.5" x2="280.5" y1="314.6582" y2="319.6582"/><line style="stroke:#181818;stroke-width:1.0;" x1="280.5" x2="523.75" y1="319.6582" y2="319.6582"/><line style="stroke:#181818;stroke-width:1.0;" x1="523.75" x2="523.75" y1="319.6582" y2="334.6582"/><polygon fill="#181818" points="519.75,324.6582,523.75,334.6582,527.75,324.6582,523.75,328.6582" style="stroke:#181818;stroke-width:1.0;"/><line style="stroke:#181818;stroke-width:1.0;" x1="523.75" x2="523.75" y1="369.752" y2="374.752"/><line style="stroke:#181818;stroke-width:1.0;" x1="523.75" x2="739.25" y1="374.752" y2="374.752"/><line style="stroke:#181818;stroke-width:1.0;" x1="739.25" x2="739.25" y1="374.752" y2="389.752"/><polygon fill="#181818" points="735.25,379.752,739.25,389.752,743.25,379.752,739.25,383.752" style="stroke:#181818;stroke-width:1.0;"/><line style="stroke:#181818;stroke-width:1.0;" x1="810.75" x2="810.75" y1="523.9395" y2="541.4395"/><line style="stroke:#181818;stroke-width:1.0;" x1="810.75" x2="595.25" y1="541.4395" y2="541.4395"/><line style="stroke:#181818;stroke-width:1.0;" x1="595.25" x2="595.25" y1="541.4395" y2="558.9395"/><polygon fill="#181818" points="591.25,548.9395,595.25,558.9395,599.25,548.9395,595.25,552.9395" style="stroke:#181818;stroke-width:1.0;"/><line style="stroke:#181818;stroke-width:1.0;" x1="727.25" x2="452.25" y1="456.8457" y2="456.8457"/><line style="stroke:#181818;stroke-width:1.0;" x1="452.25" x2="452.25" y1="456.8457" y2="488.8457"/><polygon fill="#181818" points="448.25,478.8457,452.25,488.8457,456.25,478.8457,452.25,482.8457" style="stroke:#181818;stroke-width:1.0;"/><line style="stroke:#181818;stroke-width:1.0;" x1="452.25" x2="452.25" y1="539.0332" y2="646.2207"/><line style="stroke:#181818;stroke-width:1.0;" x1="452.25" x2="727.25" y1="646.2207" y2="646.2207"/><polygon fill="#181818" points="717.25,642.2207,727.25,646.2207,717.25,650.2207,721.25,646.2207" style="stroke:#181818;stroke-width:1.0;"/><line style="stroke:#181818;stroke-width:1.0;" x1="595.25" x2="595.25" y1="624.2207" y2="628.2207"/><line style="stroke:#181818;stroke-width:1.0;" x1="595.25" x2="769.25" y1="628.2207" y2="628.2207"/><line style="stroke:#181818;stroke-width:1.0;" x1="769.25" x2="769.25" y1="628.2207" y2="646.2207"/><line style="stroke:#181818;stroke-width:1.0;" x1="769.25" x2="751.25" y1="646.2207" y2="646.2207"/><polygon fill="#181818" points="761.25,642.2207,751.25,646.2207,761.25,650.2207,757.25,646.2207" style="stroke:#181818;stroke-width:1.0;"/><line style="stroke:#181818;stroke-width:1.0;" x1="408" x2="73" y1="232.4707" y2="232.4707"/><line style="stroke:#181818;stroke-width:1.0;" x1="73" x2="73" y1="232.4707" y2="264.4707"/><polygon fill="#181818" points="69,254.4707,73,264.4707,77,254.4707,73,258.4707" style="stroke:#181818;stroke-width:1.0;"/><line style="stroke:#181818;stroke-width:1.0;" x1="432" x2="444" y1="232.4707" y2="232.4707"/><line style="stroke:#181818;stroke-width:1.0;" x1="444" x2="444" y1="232.4707" y2="250.4707"/><line style="stroke:#181818;stroke-width:1.0;" x1="444" x2="280.5" y1="250.4707" y2="250.4707"/><line style="stroke:#181818;stroke-width:1.0;" x1="280.5" x2="280.5" y1="250.4707" y2="264.4707"/><polygon fill="#181818" points="276.5,254.4707,280.5,264.4707,284.5,254.4707,280.5,258.4707" style="stroke:#181818;stroke-width:1.0;"/><text fill="#000000" font-family="sans-serif" font-size="18" lengthAdjust="spacing" textLength="53" x="150.5" y="31.1406">Parent</text><text fill="#000000" font-family="sans-serif" font-size="18" lengthAdjust="spacing" textLength="59" x="474.125" y="31.1406">System</text><text fill="#000000" font-family="sans-serif" font-size="18" lengthAdjust="spacing" textLength="77" x="730.75" y="31.1406">Database</text><!--MD5=[f967298a0565c09ccf1af48b75d87df2]
@startuml DeleteMealTimeActi
|Parent|
start
:(1) Select meal time\nneeds deleting;
|System|
:(2) Display confirmation\nmessagebox;      
if () then (Cancel)
    |Parent|
    :(2.1) Clickn\n"Cancel" button;
    end
else (Confirm)
    |Parent|
    :(2.2) Click\n"Confirm" button;
    |System|
    :(3) Process deleting request;
    |Database|
    :(4) Validate data;
    if () then (Invalid data)
        |System|
        :(4.1) Display\nerror notification;
    else (Valid data)
        |Database|  
        :(4.2) Delete data;
        |System|
        :(5) Display success\nnotification\nand list of meal times;
        endif
    |Database|
stop
@enduml

PlantUML version 1.2022.7(Tue Aug 23 00:01:30 ICT 2022)
(GPL source distribution)
Java Runtime: Java(TM) SE Runtime Environment
JVM: Java HotSpot(TM) 64-Bit Server VM
Default Encoding: Cp1252
Language: en
Country: US
--></g></svg>