<?xml version="1.0" encoding="UTF-8" standalone="no"?><svg xmlns="http://www.w3.org/2000/svg" xmlns:xlink="http://www.w3.org/1999/xlink" contentStyleType="text/css" height="487px" preserveAspectRatio="none" style="width:541px;height:487px;background:#FFFFFF;" version="1.1" viewBox="0 0 541 487" width="541px" zoomAndPan="magnify"><defs/><g><rect fill="#F1F1F1" height="35.0938" rx="12.5" ry="12.5" style="stroke:#181818;stroke-width:0.5;" width="228" x="57.75" y="150.2832"/><text fill="#000000" font-family="sans-serif" font-size="12" lengthAdjust="spacing" textLength="208" x="67.75" y="172.7402">(2) Select child want to view meal time</text><rect fill="#F1F1F1" height="35.0938" rx="12.5" ry="12.5" style="stroke:#181818;stroke-width:0.5;" width="128" x="107.75" y="205.377"/><text fill="#000000" font-family="sans-serif" font-size="12" lengthAdjust="spacing" textLength="108" x="117.75" y="227.834">(3) Choose function</text><polygon fill="#F1F1F1" points="49.5,260.4707,49.5,260.4707,61.5,272.4707,49.5,284.4707,49.5,284.4707,37.5,272.4707,49.5,260.4707" style="stroke:#181818;stroke-width:0.5;"/><text fill="#000000" font-family="sans-serif" font-size="11" lengthAdjust="spacing" textLength="32" x="53.5" y="295.8896">Create</text><rect fill="#F1F1F1" height="95.4688" rx="12.5" ry="12.5" style="stroke:#181818;stroke-width:0.5;" width="57" x="21" y="318.3066"/><text fill="#000000" font-family="sans-serif" font-size="12" lengthAdjust="spacing" textLength="25" x="31" y="340.7637">(3.1)</text><text fill="#000000" font-family="sans-serif" font-size="12" lengthAdjust="spacing" textLength="35" x="31" y="355.8574">Activity</text><text fill="#000000" font-family="sans-serif" font-size="12" lengthAdjust="spacing" textLength="37" x="31" y="370.9512">Create</text><text fill="#000000" font-family="sans-serif" font-size="12" lengthAdjust="spacing" textLength="26" x="31" y="386.0449">Meal</text><text fill="#000000" font-family="sans-serif" font-size="12" lengthAdjust="spacing" textLength="28" x="31" y="401.1387">Time</text><polygon fill="#F1F1F1" points="131.5,260.4707,131.5,260.4707,143.5,272.4707,131.5,284.4707,131.5,284.4707,119.5,272.4707,131.5,260.4707" style="stroke:#181818;stroke-width:0.5;"/><text fill="#000000" font-family="sans-serif" font-size="11" lengthAdjust="spacing" textLength="34" x="135.5" y="295.8896">Update</text><rect fill="#F1F1F1" height="95.4688" rx="12.5" ry="12.5" style="stroke:#181818;stroke-width:0.5;" width="60" x="101.5" y="318.3066"/><text fill="#000000" font-family="sans-serif" font-size="12" lengthAdjust="spacing" textLength="25" x="111.5" y="340.7637">(3.2)</text><text fill="#000000" font-family="sans-serif" font-size="12" lengthAdjust="spacing" textLength="35" x="111.5" y="355.8574">Activity</text><text fill="#000000" font-family="sans-serif" font-size="12" lengthAdjust="spacing" textLength="40" x="111.5" y="370.9512">Update</text><text fill="#000000" font-family="sans-serif" font-size="12" lengthAdjust="spacing" textLength="26" x="111.5" y="386.0449">Meal</text><text fill="#000000" font-family="sans-serif" font-size="12" lengthAdjust="spacing" textLength="28" x="111.5" y="401.1387">Time</text><polygon fill="#F1F1F1" points="213.5,260.4707,213.5,260.4707,225.5,272.4707,213.5,284.4707,213.5,284.4707,201.5,272.4707,213.5,260.4707" style="stroke:#181818;stroke-width:0.5;"/><text fill="#000000" font-family="sans-serif" font-size="11" lengthAdjust="spacing" textLength="30" x="217.5" y="295.8896">Delete</text><text fill="#000000" font-family="sans-serif" font-size="11" lengthAdjust="spacing" textLength="35" x="225.5" y="270.0537">Search</text><rect fill="#F1F1F1" height="95.4688" rx="12.5" ry="12.5" style="stroke:#181818;stroke-width:0.5;" width="56" x="185.5" y="318.3066"/><text fill="#000000" font-family="sans-serif" font-size="12" lengthAdjust="spacing" textLength="25" x="195.5" y="340.7637">(3.3)</text><text fill="#000000" font-family="sans-serif" font-size="12" lengthAdjust="spacing" textLength="35" x="195.5" y="355.8574">Activity</text><text fill="#000000" font-family="sans-serif" font-size="12" lengthAdjust="spacing" textLength="36" x="195.5" y="370.9512">Delete</text><text fill="#000000" font-family="sans-serif" font-size="12" lengthAdjust="spacing" textLength="26" x="195.5" y="386.0449">Meal</text><text fill="#000000" font-family="sans-serif" font-size="12" lengthAdjust="spacing" textLength="28" x="195.5" y="401.1387">Time</text><rect fill="#F1F1F1" height="95.4688" rx="12.5" ry="12.5" style="stroke:#181818;stroke-width:0.5;" width="59" x="263.5" y="314.3887"/><text fill="#000000" font-family="sans-serif" font-size="12" lengthAdjust="spacing" textLength="25" x="273.5" y="336.8457">(3.4)</text><text fill="#000000" font-family="sans-serif" font-size="12" lengthAdjust="spacing" textLength="35" x="273.5" y="351.9395">Activity</text><text fill="#000000" font-family="sans-serif" font-size="12" lengthAdjust="spacing" textLength="39" x="273.5" y="367.0332">Search</text><text fill="#000000" font-family="sans-serif" font-size="12" lengthAdjust="spacing" textLength="26" x="273.5" y="382.127">Meal</text><text fill="#000000" font-family="sans-serif" font-size="12" lengthAdjust="spacing" textLength="28" x="273.5" y="397.2207">Time</text><line style="stroke:#000000;stroke-width:1.5;" x1="15" x2="15" y1="12.4551" y2="475.7754"/><ellipse cx="381.5" cy="50.0957" fill="#222222" rx="10" ry="10" style="stroke:#222222;stroke-width:1.0;"/><rect fill="#F1F1F1" height="50.1875" rx="12.5" ry="12.5" style="stroke:#181818;stroke-width:0.5;" width="98" x="332.5" y="80.0957"/><text fill="#000000" font-family="sans-serif" font-size="12" lengthAdjust="spacing" textLength="78" x="342.5" y="102.5527">(1) Display list</text><text fill="#000000" font-family="sans-serif" font-size="12" lengthAdjust="spacing" textLength="57" x="342.5" y="117.6465">of children</text><ellipse cx="381.5" cy="464.7754" fill="none" rx="11" ry="11" style="stroke:#222222;stroke-width:1.0;"/><ellipse cx="381.5" cy="464.7754" fill="#222222" rx="6" ry="6" style="stroke:#111111;stroke-width:1.0;"/><line style="stroke:#000000;stroke-width:1.5;" x1="326.5" x2="326.5" y1="12.4551" y2="475.7754"/><line style="stroke:#000000;stroke-width:1.5;" x1="434.5" x2="434.5" y1="12.4551" y2="475.7754"/><line style="stroke:#000000;stroke-width:1.5;" x1="521.5" x2="521.5" y1="12.4551" y2="475.7754"/><line style="stroke:#181818;stroke-width:1.0;" x1="171.75" x2="171.75" y1="185.377" y2="205.377"/><polygon fill="#181818" points="167.75,195.377,171.75,205.377,175.75,195.377,171.75,199.377" style="stroke:#181818;stroke-width:1.0;"/><line style="stroke:#181818;stroke-width:1.0;" x1="49.5" x2="49.5" y1="284.4707" y2="318.3066"/><polygon fill="#181818" points="45.5,308.3066,49.5,318.3066,53.5,308.3066,49.5,312.3066" style="stroke:#181818;stroke-width:1.0;"/><line style="stroke:#181818;stroke-width:1.0;" x1="49.5" x2="49.5" y1="413.7754" y2="433.7754"/><polygon fill="#181818" points="45.5,423.7754,49.5,433.7754,53.5,423.7754,49.5,427.7754" style="stroke:#181818;stroke-width:1.0;"/><line style="stroke:#181818;stroke-width:1.0;" x1="131.5" x2="131.5" y1="284.4707" y2="318.3066"/><polygon fill="#181818" points="127.5,308.3066,131.5,318.3066,135.5,308.3066,131.5,312.3066" style="stroke:#181818;stroke-width:1.0;"/><line style="stroke:#181818;stroke-width:1.0;" x1="131.5" x2="131.5" y1="413.7754" y2="433.7754"/><polygon fill="#181818" points="127.5,423.7754,131.5,433.7754,135.5,423.7754,131.5,427.7754" style="stroke:#181818;stroke-width:1.0;"/><line style="stroke:#181818;stroke-width:1.0;" x1="213.5" x2="213.5" y1="284.4707" y2="318.3066"/><polygon fill="#181818" points="209.5,308.3066,213.5,318.3066,217.5,308.3066,213.5,312.3066" style="stroke:#181818;stroke-width:1.0;"/><line style="stroke:#181818;stroke-width:1.0;" x1="213.5" x2="213.5" y1="413.7754" y2="433.7754"/><polygon fill="#181818" points="209.5,423.7754,213.5,433.7754,217.5,423.7754,213.5,427.7754" style="stroke:#181818;stroke-width:1.0;"/><line style="stroke:#181818;stroke-width:1.0;" x1="61.5" x2="119.5" y1="272.4707" y2="272.4707"/><polygon fill="#181818" points="109.5,268.4707,119.5,272.4707,109.5,276.4707,113.5,272.4707" style="stroke:#181818;stroke-width:1.0;"/><line style="stroke:#181818;stroke-width:1.0;" x1="143.5" x2="201.5" y1="272.4707" y2="272.4707"/><polygon fill="#181818" points="191.5,268.4707,201.5,272.4707,191.5,276.4707,195.5,272.4707" style="stroke:#181818;stroke-width:1.0;"/><line style="stroke:#181818;stroke-width:1.0;" x1="171.75" x2="171.75" y1="240.4707" y2="245.4707"/><line style="stroke:#181818;stroke-width:1.0;" x1="171.75" x2="49.5" y1="245.4707" y2="245.4707"/><line style="stroke:#181818;stroke-width:1.0;" x1="49.5" x2="49.5" y1="245.4707" y2="260.4707"/><polygon fill="#181818" points="45.5,250.4707,49.5,260.4707,53.5,250.4707,49.5,254.4707" style="stroke:#181818;stroke-width:1.0;"/><line style="stroke:#181818;stroke-width:1.0;" x1="225.5" x2="293" y1="272.4707" y2="272.4707"/><line style="stroke:#181818;stroke-width:1.0;" x1="293" x2="293" y1="272.4707" y2="314.3887"/><polygon fill="#181818" points="289,304.3887,293,314.3887,297,304.3887,293,308.3887" style="stroke:#181818;stroke-width:1.0;"/><line style="stroke:#181818;stroke-width:1.0;" x1="293" x2="293" y1="409.8574" y2="433.7754"/><polygon fill="#181818" points="289,423.7754,293,433.7754,297,423.7754,293,427.7754" style="stroke:#181818;stroke-width:1.0;"/><line style="stroke:#181818;stroke-width:1.0;" x1="49.5" x2="293" y1="433.7754" y2="433.7754"/><line style="stroke:#181818;stroke-width:1.0;" x1="381.5" x2="381.5" y1="60.0957" y2="80.0957"/><polygon fill="#181818" points="377.5,70.0957,381.5,80.0957,385.5,70.0957,381.5,74.0957" style="stroke:#181818;stroke-width:1.0;"/><line style="stroke:#181818;stroke-width:1.0;" x1="381.5" x2="381.5" y1="130.2832" y2="135.2832"/><line style="stroke:#181818;stroke-width:1.0;" x1="381.5" x2="171.75" y1="135.2832" y2="135.2832"/><line style="stroke:#181818;stroke-width:1.0;" x1="171.75" x2="171.75" y1="135.2832" y2="150.2832"/><polygon fill="#181818" points="167.75,140.2832,171.75,150.2832,175.75,140.2832,171.75,144.2832" style="stroke:#181818;stroke-width:1.0;"/><line style="stroke:#181818;stroke-width:1.0;" x1="171.75" x2="171.75" y1="433.7754" y2="438.7754"/><line style="stroke:#181818;stroke-width:1.0;" x1="171.75" x2="381.5" y1="438.7754" y2="438.7754"/><line style="stroke:#181818;stroke-width:1.0;" x1="381.5" x2="381.5" y1="438.7754" y2="453.7754"/><polygon fill="#181818" points="377.5,443.7754,381.5,453.7754,385.5,443.7754,381.5,447.7754" style="stroke:#181818;stroke-width:1.0;"/><text fill="#000000" font-family="sans-serif" font-size="18" lengthAdjust="spacing" textLength="53" x="144.25" y="31.1406">Parent</text><text fill="#000000" font-family="sans-serif" font-size="18" lengthAdjust="spacing" textLength="59" x="351" y="31.1406">System</text><text fill="#000000" font-family="sans-serif" font-size="18" lengthAdjust="spacing" textLength="77" x="439.5" y="31.1406">Database</text><!--MD5=[6bd4285bad596ae3c496bcfc42db43c2]
@startuml ManageMealTimesActi
|Parent|
|System|
|Database|
|System|
start
:(1) Display list\nof children;
|Parent|
:(2) Select child want to view meal time;
|Parent|
:(3) Choose function;
if () then (Create)
  :(3.1)\nActivity\nCreate\nMeal\nTime; 
elseif () then (Update) 
  :(3.2)\nActivity\nUpdate\nMeal\nTime; 
elseif () then (Delete)
  :(3.3)\nActivity\nDelete\nMeal\nTime; 
else (Search)
  :(3.4)\nActivity\nSearch\nMeal\nTime;  
endif
|System|
stop
@enduml

PlantUML version 1.2022.7(Tue Aug 23 00:01:30 ICT 2022)
(GPL source distribution)
Java Runtime: Java(TM) SE Runtime Environment
JVM: Java HotSpot(TM) 64-Bit Server VM
Default Encoding: Cp1252
Language: en
Country: US
--></g></svg>