<?xml version="1.0" encoding="UTF-8" standalone="no"?><svg xmlns="http://www.w3.org/2000/svg" xmlns:xlink="http://www.w3.org/1999/xlink" contentStyleType="text/css" height="1034px" preserveAspectRatio="none" style="width:714px;height:1034px;background:#FFFFFF;" version="1.1" viewBox="0 0 714 1034" width="714px" zoomAndPan="magnify"><defs/><g><ellipse cx="86" cy="50.0957" fill="#222222" rx="10" ry="10" style="stroke:#222222;stroke-width:1.0;"/><rect fill="#F1F1F1" height="50.1875" rx="12.5" ry="12.5" style="stroke:#181818;stroke-width:0.5;" width="130" x="21" y="80.0957"/><text fill="#000000" font-family="sans-serif" font-size="12" lengthAdjust="spacing" textLength="110" x="31" y="102.5527">(1) Select meal time</text><text fill="#000000" font-family="sans-serif" font-size="12" lengthAdjust="spacing" textLength="86" x="31" y="117.6465">needs updating</text><rect fill="#F1F1F1" height="50.1875" rx="12.5" ry="12.5" style="stroke:#181818;stroke-width:0.5;" width="125" x="23.5" y="389.752"/><text fill="#000000" font-family="sans-serif" font-size="12" lengthAdjust="spacing" textLength="105" x="33.5" y="412.209">(5) Enter meal time</text><text fill="#000000" font-family="sans-serif" font-size="12" lengthAdjust="spacing" textLength="62" x="33.5" y="427.3027">information</text><polygon fill="#F1F1F1" points="86,345.752,98,357.752,86,369.752,74,357.752,86,345.752" style="stroke:#181818;stroke-width:0.5;"/><rect fill="#F1F1F1" height="50.1875" rx="12.5" ry="12.5" style="stroke:#181818;stroke-width:0.5;" width="112" x="30" y="586.9521"/><text fill="#000000" font-family="sans-serif" font-size="12" lengthAdjust="spacing" textLength="92" x="40" y="609.4092">(6.2) Click button</text><text fill="#000000" font-family="sans-serif" font-size="12" lengthAdjust="spacing" textLength="92" x="40" y="624.5029">"Save" to confirm</text><line style="stroke:#000000;stroke-width:1.5;" x1="15" x2="15" y1="12.4551" y2="1022.7021"/><rect fill="#F1F1F1" height="50.1875" rx="12.5" ry="12.5" style="stroke:#181818;stroke-width:0.5;" width="140" x="216.5" y="150.2832"/><text fill="#000000" font-family="sans-serif" font-size="12" lengthAdjust="spacing" textLength="87" x="226.5" y="172.7402">(2) Get selected</text><text fill="#000000" font-family="sans-serif" font-size="12" lengthAdjust="spacing" textLength="120" x="226.5" y="187.834">meal time information</text><rect fill="#F1F1F1" height="50.1875" rx="12.5" ry="12.5" style="stroke:#181818;stroke-width:0.5;" width="137" x="218" y="275.5645"/><text fill="#000000" font-family="sans-serif" font-size="12" lengthAdjust="spacing" textLength="117" x="228" y="298.0215">(4) Display meal time</text><text fill="#000000" font-family="sans-serif" font-size="12" lengthAdjust="spacing" textLength="89" x="228" y="313.1152">information view</text><rect fill="#F1F1F1" height="35.0938" rx="12.5" ry="12.5" style="stroke:#181818;stroke-width:0.5;" width="147" x="213" y="474.9395"/><text fill="#000000" font-family="sans-serif" font-size="12" lengthAdjust="spacing" textLength="127" x="223" y="497.3965">(6) Validate data format</text><polygon fill="#F1F1F1" points="286.5,530.0332,286.5,530.0332,298.5,542.0332,286.5,554.0332,286.5,554.0332,274.5,542.0332,286.5,530.0332" style="stroke:#181818;stroke-width:0.5;"/><text fill="#000000" font-family="sans-serif" font-size="11" lengthAdjust="spacing" textLength="48" x="290.5" y="565.4521">Valid data</text><text fill="#000000" font-family="sans-serif" font-size="11" lengthAdjust="spacing" textLength="54" x="298.5" y="539.6162">Invalid data</text><rect fill="#F1F1F1" height="50.1875" rx="12.5" ry="12.5" style="stroke:#181818;stroke-width:0.5;" width="108" x="384" y="424.7988"/><text fill="#000000" font-family="sans-serif" font-size="12" lengthAdjust="spacing" textLength="69" x="394" y="447.2559">(6.1) Display</text><text fill="#000000" font-family="sans-serif" font-size="12" lengthAdjust="spacing" textLength="88" x="394" y="462.3496">error notification</text><rect fill="#F1F1F1" height="35.0938" rx="12.5" ry="12.5" style="stroke:#181818;stroke-width:0.5;" width="180" x="196.5" y="657.1396"/><text fill="#000000" font-family="sans-serif" font-size="12" lengthAdjust="spacing" textLength="160" x="206.5" y="679.5967">(7) Process updating request</text><rect fill="#F1F1F1" height="50.1875" rx="12.5" ry="12.5" style="stroke:#181818;stroke-width:0.5;" width="108" x="161" y="811.3271"/><text fill="#000000" font-family="sans-serif" font-size="12" lengthAdjust="spacing" textLength="69" x="171" y="833.7842">(8.1) Display</text><text fill="#000000" font-family="sans-serif" font-size="12" lengthAdjust="spacing" textLength="88" x="171" y="848.8779">error notification</text><rect fill="#F1F1F1" height="65.2813" rx="12.5" ry="12.5" style="stroke:#181818;stroke-width:0.5;" width="138" x="289" y="881.4209"/><text fill="#000000" font-family="sans-serif" font-size="12" lengthAdjust="spacing" textLength="109" x="299" y="903.8779">(9) Display success</text><text fill="#000000" font-family="sans-serif" font-size="12" lengthAdjust="spacing" textLength="59" x="299" y="918.9717">notification</text><text fill="#000000" font-family="sans-serif" font-size="12" lengthAdjust="spacing" textLength="118" x="299" y="934.0654">and list of meal times</text><line style="stroke:#000000;stroke-width:1.5;" x1="155" x2="155" y1="12.4551" y2="1022.7021"/><rect fill="#F1F1F1" height="35.0938" rx="12.5" ry="12.5" style="stroke:#181818;stroke-width:0.5;" width="97" x="518.5" y="220.4707"/><text fill="#000000" font-family="sans-serif" font-size="12" lengthAdjust="spacing" textLength="77" x="528.5" y="242.9277">(3) Query data</text><rect fill="#F1F1F1" height="35.0938" rx="12.5" ry="12.5" style="stroke:#181818;stroke-width:0.5;" width="109" x="512.5" y="712.2334"/><text fill="#000000" font-family="sans-serif" font-size="12" lengthAdjust="spacing" textLength="89" x="522.5" y="734.6904">(8) Validate data</text><polygon fill="#F1F1F1" points="567,767.3271,567,767.3271,579,779.3271,567,791.3271,567,791.3271,555,779.3271,567,767.3271" style="stroke:#181818;stroke-width:0.5;"/><text fill="#000000" font-family="sans-serif" font-size="11" lengthAdjust="spacing" textLength="54" x="501" y="776.9102">Invalid data</text><text fill="#000000" font-family="sans-serif" font-size="11" lengthAdjust="spacing" textLength="48" x="579" y="776.9102">Valid data</text><rect fill="#F1F1F1" height="35.0938" rx="12.5" ry="12.5" style="stroke:#181818;stroke-width:0.5;" width="104" x="586.5" y="811.3271"/><text fill="#000000" font-family="sans-serif" font-size="12" lengthAdjust="spacing" textLength="84" x="596.5" y="833.7842">(8.2) Store data</text><polygon fill="#F1F1F1" points="567,956.7021,579,968.7021,567,980.7021,555,968.7021,567,956.7021" style="stroke:#181818;stroke-width:0.5;"/><ellipse cx="567" cy="1011.7021" fill="none" rx="11" ry="11" style="stroke:#222222;stroke-width:1.0;"/><ellipse cx="567" cy="1011.7021" fill="#222222" rx="6" ry="6" style="stroke:#111111;stroke-width:1.0;"/><line style="stroke:#000000;stroke-width:1.5;" x1="496" x2="496" y1="12.4551" y2="1022.7021"/><line style="stroke:#000000;stroke-width:1.5;" x1="694.5" x2="694.5" y1="12.4551" y2="1022.7021"/><line style="stroke:#181818;stroke-width:1.0;" x1="86" x2="86" y1="60.0957" y2="80.0957"/><polygon fill="#181818" points="82,70.0957,86,80.0957,90,70.0957,86,74.0957" style="stroke:#181818;stroke-width:1.0;"/><line style="stroke:#181818;stroke-width:1.0;" x1="86" x2="86" y1="369.752" y2="389.752"/><polygon fill="#181818" points="82,379.752,86,389.752,90,379.752,86,383.752" style="stroke:#181818;stroke-width:1.0;"/><line style="stroke:#181818;stroke-width:1.0;" x1="298.5" x2="438" y1="542.0332" y2="542.0332"/><line style="stroke:#181818;stroke-width:1.0;" x1="438" x2="438" y1="474.9863" y2="542.0332"/><polygon fill="#181818" points="434,484.9863,438,474.9863,442,484.9863,438,480.9863" style="stroke:#181818;stroke-width:1.0;"/><line style="stroke:#181818;stroke-width:1.0;" x1="286.5" x2="286.5" y1="510.0332" y2="530.0332"/><polygon fill="#181818" points="282.5,520.0332,286.5,530.0332,290.5,520.0332,286.5,524.0332" style="stroke:#181818;stroke-width:1.0;"/><line style="stroke:#181818;stroke-width:1.0;" x1="579" x2="638.5" y1="779.3271" y2="779.3271"/><line style="stroke:#181818;stroke-width:1.0;" x1="638.5" x2="638.5" y1="779.3271" y2="811.3271"/><polygon fill="#181818" points="634.5,801.3271,638.5,811.3271,642.5,801.3271,638.5,805.3271" style="stroke:#181818;stroke-width:1.0;"/><line style="stroke:#181818;stroke-width:1.0;" x1="567" x2="567" y1="747.3271" y2="767.3271"/><polygon fill="#181818" points="563,757.3271,567,767.3271,571,757.3271,567,761.3271" style="stroke:#181818;stroke-width:1.0;"/><line style="stroke:#181818;stroke-width:1.0;" x1="567" x2="567" y1="980.7021" y2="1000.7021"/><polygon fill="#181818" points="563,990.7021,567,1000.7021,571,990.7021,567,994.7021" style="stroke:#181818;stroke-width:1.0;"/><line style="stroke:#181818;stroke-width:1.0;" x1="86" x2="86" y1="130.2832" y2="135.2832"/><line style="stroke:#181818;stroke-width:1.0;" x1="86" x2="286.5" y1="135.2832" y2="135.2832"/><line style="stroke:#181818;stroke-width:1.0;" x1="286.5" x2="286.5" y1="135.2832" y2="150.2832"/><polygon fill="#181818" points="282.5,140.2832,286.5,150.2832,290.5,140.2832,286.5,144.2832" style="stroke:#181818;stroke-width:1.0;"/><line style="stroke:#181818;stroke-width:1.0;" x1="286.5" x2="286.5" y1="200.4707" y2="205.4707"/><line style="stroke:#181818;stroke-width:1.0;" x1="286.5" x2="567" y1="205.4707" y2="205.4707"/><line style="stroke:#181818;stroke-width:1.0;" x1="567" x2="567" y1="205.4707" y2="220.4707"/><polygon fill="#181818" points="563,210.4707,567,220.4707,571,210.4707,567,214.4707" style="stroke:#181818;stroke-width:1.0;"/><line style="stroke:#181818;stroke-width:1.0;" x1="567" x2="567" y1="255.5645" y2="260.5645"/><line style="stroke:#181818;stroke-width:1.0;" x1="567" x2="286.5" y1="260.5645" y2="260.5645"/><line style="stroke:#181818;stroke-width:1.0;" x1="286.5" x2="286.5" y1="260.5645" y2="275.5645"/><polygon fill="#181818" points="282.5,265.5645,286.5,275.5645,290.5,265.5645,286.5,269.5645" style="stroke:#181818;stroke-width:1.0;"/><line style="stroke:#181818;stroke-width:1.0;" x1="86" x2="86" y1="439.9395" y2="457.4395"/><line style="stroke:#181818;stroke-width:1.0;" x1="86" x2="286.5" y1="457.4395" y2="457.4395"/><line style="stroke:#181818;stroke-width:1.0;" x1="286.5" x2="286.5" y1="457.4395" y2="474.9395"/><polygon fill="#181818" points="282.5,464.9395,286.5,474.9395,290.5,464.9395,286.5,468.9395" style="stroke:#181818;stroke-width:1.0;"/><line style="stroke:#181818;stroke-width:1.0;" x1="438" x2="438" y1="357.752" y2="424.7988"/><line style="stroke:#181818;stroke-width:1.0;" x1="438" x2="98" y1="357.752" y2="357.752"/><polygon fill="#181818" points="108,353.752,98,357.752,108,361.752,104,357.752" style="stroke:#181818;stroke-width:1.0;"/><line style="stroke:#181818;stroke-width:1.0;" x1="286.5" x2="286.5" y1="325.752" y2="330.752"/><line style="stroke:#181818;stroke-width:1.0;" x1="286.5" x2="86" y1="330.752" y2="330.752"/><line style="stroke:#181818;stroke-width:1.0;" x1="86" x2="86" y1="330.752" y2="345.752"/><polygon fill="#181818" points="82,335.752,86,345.752,90,335.752,86,339.752" style="stroke:#181818;stroke-width:1.0;"/><line style="stroke:#181818;stroke-width:1.0;" x1="286.5" x2="286.5" y1="554.0332" y2="571.5332"/><line style="stroke:#181818;stroke-width:1.0;" x1="286.5" x2="86" y1="571.5332" y2="571.5332"/><line style="stroke:#181818;stroke-width:1.0;" x1="86" x2="86" y1="571.5332" y2="586.9521"/><polygon fill="#181818" points="82,576.9521,86,586.9521,90,576.9521,86,580.9521" style="stroke:#181818;stroke-width:1.0;"/><line style="stroke:#181818;stroke-width:1.0;" x1="86" x2="86" y1="637.1396" y2="642.1396"/><line style="stroke:#181818;stroke-width:1.0;" x1="86" x2="286.5" y1="642.1396" y2="642.1396"/><line style="stroke:#181818;stroke-width:1.0;" x1="286.5" x2="286.5" y1="642.1396" y2="657.1396"/><polygon fill="#181818" points="282.5,647.1396,286.5,657.1396,290.5,647.1396,286.5,651.1396" style="stroke:#181818;stroke-width:1.0;"/><line style="stroke:#181818;stroke-width:1.0;" x1="286.5" x2="286.5" y1="692.2334" y2="697.2334"/><line style="stroke:#181818;stroke-width:1.0;" x1="286.5" x2="567" y1="697.2334" y2="697.2334"/><line style="stroke:#181818;stroke-width:1.0;" x1="567" x2="567" y1="697.2334" y2="712.2334"/><polygon fill="#181818" points="563,702.2334,567,712.2334,571,702.2334,567,706.2334" style="stroke:#181818;stroke-width:1.0;"/><line style="stroke:#181818;stroke-width:1.0;" x1="638.5" x2="638.5" y1="846.4209" y2="863.9209"/><line style="stroke:#181818;stroke-width:1.0;" x1="638.5" x2="358" y1="863.9209" y2="863.9209"/><line style="stroke:#181818;stroke-width:1.0;" x1="358" x2="358" y1="863.9209" y2="881.4209"/><polygon fill="#181818" points="354,871.4209,358,881.4209,362,871.4209,358,875.4209" style="stroke:#181818;stroke-width:1.0;"/><line style="stroke:#181818;stroke-width:1.0;" x1="555" x2="215" y1="779.3271" y2="779.3271"/><line style="stroke:#181818;stroke-width:1.0;" x1="215" x2="215" y1="779.3271" y2="811.3271"/><polygon fill="#181818" points="211,801.3271,215,811.3271,219,801.3271,215,805.3271" style="stroke:#181818;stroke-width:1.0;"/><line style="stroke:#181818;stroke-width:1.0;" x1="215" x2="215" y1="861.5146" y2="968.7021"/><line style="stroke:#181818;stroke-width:1.0;" x1="215" x2="555" y1="968.7021" y2="968.7021"/><polygon fill="#181818" points="545,964.7021,555,968.7021,545,972.7021,549,968.7021" style="stroke:#181818;stroke-width:1.0;"/><line style="stroke:#181818;stroke-width:1.0;" x1="358" x2="358" y1="946.7021" y2="950.7021"/><line style="stroke:#181818;stroke-width:1.0;" x1="358" x2="597" y1="950.7021" y2="950.7021"/><line style="stroke:#181818;stroke-width:1.0;" x1="597" x2="597" y1="950.7021" y2="968.7021"/><line style="stroke:#181818;stroke-width:1.0;" x1="597" x2="579" y1="968.7021" y2="968.7021"/><polygon fill="#181818" points="589,964.7021,579,968.7021,589,972.7021,585,968.7021" style="stroke:#181818;stroke-width:1.0;"/><text fill="#000000" font-family="sans-serif" font-size="18" lengthAdjust="spacing" textLength="49" x="60.5" y="31.1406">Admin</text><text fill="#000000" font-family="sans-serif" font-size="18" lengthAdjust="spacing" textLength="59" x="296" y="31.1406">System</text><text fill="#000000" font-family="sans-serif" font-size="18" lengthAdjust="spacing" textLength="77" x="556.75" y="31.1406">Database</text><!--MD5=[f7b548d2c2ddb9b401068f7c2a99566b]
@startuml UpdateMealTimeActi
|Admin|
start
:(1) Select meal time\nneeds updating;
|System|
:(2) Get selected\nmeal time information;
|Database| 
:(3) Query data;
|System|
:(4) Display meal time\ninformation view;
repeat
    |Admin|
    :(5) Enter meal time\ninformation;
    |System|
    :(6) Validate data format;
    backward :(6.1) Display\nerror notification;
repeat while () is (Invalid data) not (Valid data)
    |Admin|
    :(6.2) Click button\n"Save" to confirm;
    |System|
    :(7) Process updating request;
    |Database|
    :(8) Validate data;
    if () then (Invalid data)
        |System|
        :(8.1) Display\nerror notification;
    else (Valid data)
        |Database|  
        :(8.2) Store data;
        |System|
        :(9) Display success\nnotification\nand list of meal times;
        endif
    |Database|
stop
@enduml

PlantUML version 1.2022.7(Tue Aug 23 00:01:30 ICT 2022)
(GPL source distribution)
Java Runtime: Java(TM) SE Runtime Environment
JVM: Java HotSpot(TM) 64-Bit Server VM
Default Encoding: Cp1252
Language: en
Country: US
--></g></svg>