<?xml version="1.0" encoding="UTF-8" standalone="no"?><svg xmlns="http://www.w3.org/2000/svg" xmlns:xlink="http://www.w3.org/1999/xlink" contentStyleType="text/css" height="457px" preserveAspectRatio="none" style="width:605px;height:457px;background:#FFFFFF;" version="1.1" viewBox="0 0 605 457" width="605px" zoomAndPan="magnify"><defs/><g><rect fill="#FFFFFF" height="30" style="stroke:#181818;stroke-width:1.0;" width="10" x="22.5" y="131.3125"/><rect fill="#FFFFFF" height="293.8125" style="stroke:#181818;stroke-width:1.0;" width="10" x="178.5" y="131.3125"/><rect fill="#FFFFFF" height="180.7578" style="stroke:#181818;stroke-width:1.0;" width="10" x="348.5" y="208.0156"/><rect fill="#FFFFFF" height="103.7031" style="stroke:#181818;stroke-width:1.0;" width="10" x="501.5" y="254.7188"/><rect fill="#FFFFFF" height="28" style="stroke:#181818;stroke-width:1.0;" width="10" x="506.5" y="293.0703"/><line style="stroke:#181818;stroke-width:0.5;stroke-dasharray:5.0,5.0;" x1="27" x2="27" y1="82.6094" y2="450.125"/><line style="stroke:#181818;stroke-width:0.5;stroke-dasharray:5.0,5.0;" x1="183" x2="183" y1="82.6094" y2="450.125"/><line style="stroke:#181818;stroke-width:0.5;stroke-dasharray:5.0,5.0;" x1="353.5" x2="353.5" y1="82.6094" y2="450.125"/><line style="stroke:#181818;stroke-width:0.5;stroke-dasharray:5.0,5.0;" x1="506" x2="506" y1="82.6094" y2="450.125"/><text fill="#000000" font-family="sans-serif" font-size="14" lengthAdjust="spacing" textLength="39" x="5" y="79.5332">Admin</text><ellipse cx="27.5" cy="13.5" fill="#E2E2F0" rx="8" ry="8" style="stroke:#181818;stroke-width:0.5;"/><path d="M27.5,21.5 L27.5,48.5 M14.5,29.5 L40.5,29.5 M27.5,48.5 L14.5,63.5 M27.5,48.5 L40.5,63.5 " fill="none" style="stroke:#181818;stroke-width:0.5;"/><text fill="#000000" font-family="sans-serif" font-size="14" lengthAdjust="spacing" textLength="153" x="104" y="79.5332">DoctorManagementView</text><path d="M163,37 L163,61 M163,49 L180,49 " fill="none" style="stroke:#181818;stroke-width:0.5;"/><ellipse cx="192" cy="49" fill="#E2E2F0" rx="12" ry="12" style="stroke:#181818;stroke-width:0.5;"/><text fill="#000000" font-family="sans-serif" font-size="14" lengthAdjust="spacing" textLength="104" x="298.5" y="79.5332">DoctorController</text><ellipse cx="353.5" cy="49" fill="#E2E2F0" rx="12" ry="12" style="stroke:#181818;stroke-width:0.5;"/><polygon fill="#181818" points="349.5,37,355.5,32,353.5,37,355.5,42,349.5,37" style="stroke:#181818;stroke-width:1.0;"/><text fill="#000000" font-family="sans-serif" font-size="14" lengthAdjust="spacing" textLength="61" x="473" y="79.5332">DOCTOR</text><ellipse cx="506.5" cy="49" fill="#E2E2F0" rx="12" ry="12" style="stroke:#181818;stroke-width:0.5;"/><line style="stroke:#181818;stroke-width:0.5;" x1="494.5" x2="518.5" y1="63" y2="63"/><rect fill="#FFFFFF" height="30" style="stroke:#181818;stroke-width:1.0;" width="10" x="22.5" y="131.3125"/><rect fill="#FFFFFF" height="293.8125" style="stroke:#181818;stroke-width:1.0;" width="10" x="178.5" y="131.3125"/><rect fill="#FFFFFF" height="180.7578" style="stroke:#181818;stroke-width:1.0;" width="10" x="348.5" y="208.0156"/><rect fill="#FFFFFF" height="103.7031" style="stroke:#181818;stroke-width:1.0;" width="10" x="501.5" y="254.7188"/><rect fill="#FFFFFF" height="28" style="stroke:#181818;stroke-width:1.0;" width="10" x="506.5" y="293.0703"/><polygon fill="#181818" points="166.5,127.3125,176.5,131.3125,166.5,135.3125,170.5,131.3125" style="stroke:#181818;stroke-width:1.0;"/><line style="stroke:#181818;stroke-width:1.0;" x1="32.5" x2="172.5" y1="131.3125" y2="131.3125"/><text fill="#000000" font-family="sans-serif" font-size="13" font-weight="bold" lengthAdjust="spacing" textLength="7" x="39.5" y="118.2803">1</text><text fill="#000000" font-family="sans-serif" font-size="13" lengthAdjust="spacing" textLength="103" x="50.5" y="110.1045">Enters the search</text><text fill="#000000" font-family="sans-serif" font-size="13" lengthAdjust="spacing" textLength="121" x="50.5" y="126.4561">criteria in search box</text><polygon fill="#181818" points="336.5,204.0156,346.5,208.0156,336.5,212.0156,340.5,208.0156" style="stroke:#181818;stroke-width:1.0;"/><line style="stroke:#181818;stroke-width:1.0;" x1="188.5" x2="342.5" y1="208.0156" y2="208.0156"/><text fill="#000000" font-family="sans-serif" font-size="13" font-weight="bold" lengthAdjust="spacing" textLength="7" x="195.5" y="194.9834">2</text><text fill="#000000" font-family="sans-serif" font-size="13" lengthAdjust="spacing" textLength="130" x="206.5" y="186.8076">Send searching doctor</text><text fill="#000000" font-family="sans-serif" font-size="13" lengthAdjust="spacing" textLength="110" x="206.5" y="203.1592">information request</text><polygon fill="#181818" points="489.5,250.7188,499.5,254.7188,489.5,258.7188,493.5,254.7188" style="stroke:#181818;stroke-width:1.0;"/><line style="stroke:#181818;stroke-width:1.0;" x1="358.5" x2="495.5" y1="254.7188" y2="254.7188"/><text fill="#000000" font-family="sans-serif" font-size="13" font-weight="bold" lengthAdjust="spacing" textLength="7" x="365.5" y="241.6865">3</text><text fill="#000000" font-family="sans-serif" font-size="13" lengthAdjust="spacing" textLength="113" x="376.5" y="233.5107">Search doctor base</text><text fill="#000000" font-family="sans-serif" font-size="13" lengthAdjust="spacing" textLength="106" x="376.5" y="249.8623">on given keywords</text><line style="stroke:#181818;stroke-width:1.0;" x1="516.5" x2="558.5" y1="285.0703" y2="285.0703"/><line style="stroke:#181818;stroke-width:1.0;" x1="558.5" x2="558.5" y1="285.0703" y2="298.0703"/><line style="stroke:#181818;stroke-width:1.0;" x1="517.5" x2="558.5" y1="298.0703" y2="298.0703"/><polygon fill="#181818" points="527.5,294.0703,517.5,298.0703,527.5,302.0703,523.5,298.0703" style="stroke:#181818;stroke-width:1.0;"/><text fill="#000000" font-family="sans-serif" font-size="13" font-weight="bold" lengthAdjust="spacing" textLength="7" x="523.5" y="280.2139">4</text><text fill="#000000" font-family="sans-serif" font-size="13" lengthAdjust="spacing" textLength="64" x="534.5" y="280.2139">Query data</text><polygon fill="#181818" points="369.5,354.4219,359.5,358.4219,369.5,362.4219,365.5,358.4219" style="stroke:#181818;stroke-width:1.0;"/><line style="stroke:#181818;stroke-width:1.0;stroke-dasharray:2.0,2.0;" x1="363.5" x2="505.5" y1="358.4219" y2="358.4219"/><text fill="#000000" font-family="sans-serif" font-size="13" font-weight="bold" lengthAdjust="spacing" textLength="7" x="375.5" y="353.5654">5</text><text fill="#000000" font-family="sans-serif" font-size="13" lengthAdjust="spacing" textLength="71" x="386.5" y="353.5654">Query result</text><polygon fill="#181818" points="199.5,384.7734,189.5,388.7734,199.5,392.7734,195.5,388.7734" style="stroke:#181818;stroke-width:1.0;"/><line style="stroke:#181818;stroke-width:1.0;stroke-dasharray:2.0,2.0;" x1="193.5" x2="352.5" y1="388.7734" y2="388.7734"/><text fill="#000000" font-family="sans-serif" font-size="13" font-weight="bold" lengthAdjust="spacing" textLength="7" x="205.5" y="383.917">6</text><text fill="#000000" font-family="sans-serif" font-size="13" lengthAdjust="spacing" textLength="71" x="216.5" y="383.917">Query result</text><line style="stroke:#181818;stroke-width:1.0;" x1="188.5" x2="230.5" y1="424.125" y2="424.125"/><line style="stroke:#181818;stroke-width:1.0;" x1="230.5" x2="230.5" y1="424.125" y2="437.125"/><line style="stroke:#181818;stroke-width:1.0;" x1="183.5" x2="230.5" y1="437.125" y2="437.125"/><polygon fill="#181818" points="193.5,433.125,183.5,437.125,193.5,441.125,189.5,437.125" style="stroke:#181818;stroke-width:1.0;"/><text fill="#000000" font-family="sans-serif" font-size="13" font-weight="bold" lengthAdjust="spacing" textLength="7" x="195.5" y="419.2686">7</text><text fill="#000000" font-family="sans-serif" font-size="13" lengthAdjust="spacing" textLength="125" x="206.5" y="419.2686">Display list of doctors</text><!--MD5=[bc1eb65a7d8859ba3444322ea1cc232b]
@startuml SearchDoctorSeq
autonumber
hide footbox

actor Admin
boundary DoctorManagementView
control DoctorController
entity DOCTOR

Admin -> DoctorManagementView: Enters the search\ncriteria in search box
activate Admin
activate DoctorManagementView
deactivate Admin
DoctorManagementView -> DoctorController: Send searching doctor\ninformation request
activate DoctorController
DoctorController -> DOCTOR: Search doctor base\non given keywords
activate DOCTOR
DOCTOR -> DOCTOR: Query data
activate DOCTOR
deactivate DOCTOR
DOCTOR - -> DoctorController: Query result
deactivate DOCTOR
DoctorController - -> DoctorManagementView: Query result
deactivate DoctorController
DoctorManagementView -> DoctorManagementView: Display list of doctors
deactivate DoctorManagementView
@end

PlantUML version 1.2022.7(Tue Aug 23 00:01:30 ICT 2022)
(GPL source distribution)
Java Runtime: Java(TM) SE Runtime Environment
JVM: Java HotSpot(TM) 64-Bit Server VM
Default Encoding: Cp1252
Language: en
Country: US
--></g></svg>