<?xml version="1.0" encoding="UTF-8" standalone="no"?><svg xmlns="http://www.w3.org/2000/svg" xmlns:xlink="http://www.w3.org/1999/xlink" contentStyleType="text/css" height="1239px" preserveAspectRatio="none" style="width:900px;height:1239px;background:#FFFFFF;" version="1.1" viewBox="0 0 900 1239" width="900px" zoomAndPan="magnify"><defs/><g><rect fill="#FFFFFF" height="473.7031" style="stroke:#181818;stroke-width:1.0;" width="10" x="37.5" y="210.1094"/><rect fill="#FFFFFF" height="990.7578" style="stroke:#181818;stroke-width:1.0;" width="10" x="164.5" y="210.1094"/><rect fill="#FFFFFF" height="832" style="stroke:#181818;stroke-width:1.0;" width="10" x="327.5" y="331.5156"/><rect fill="#FFFFFF" height="28" style="stroke:#181818;stroke-width:1.0;" width="10" x="332.5" y="369.8672"/><rect fill="#FFFFFF" height="28" style="stroke:#181818;stroke-width:1.0;" width="10" x="332.5" y="473.5703"/><rect fill="#FFFFFF" height="28" style="stroke:#181818;stroke-width:1.0;" width="10" x="332.5" y="602.625"/><rect fill="#FFFFFF" height="28" style="stroke:#181818;stroke-width:1.0;" width="10" x="332.5" y="942.2734"/><rect fill="#FFFFFF" height="91.0547" style="stroke:#181818;stroke-width:1.0;" width="10" x="544.5" y="240.4609"/><rect fill="#FFFFFF" height="486.7031" style="stroke:#181818;stroke-width:1.0;" width="10" x="544.5" y="714.1641"/><rect fill="#FFFFFF" height="30.3516" style="stroke:#181818;stroke-width:1.0;" width="10" x="765.5" y="270.8125"/><rect fill="#FFFFFF" height="352.2969" style="stroke:#181818;stroke-width:1.0;" width="10" x="765.5" y="744.5156"/><rect fill="#FFFFFF" height="28" style="stroke:#181818;stroke-width:1.0;" width="10" x="770.5" y="782.8672"/><rect fill="#FFFFFF" height="28" style="stroke:#181818;stroke-width:1.0;" width="10" x="770.5" y="1031.4609"/><rect fill="none" height="64.7969" style="stroke:#000000;stroke-width:1.5;" width="804" x="10" y="99.6094"/><rect fill="none" height="692.2969" style="stroke:#000000;stroke-width:1.5;" width="883.5" x="10" y="523.5703"/><rect fill="none" height="376" style="stroke:#000000;stroke-width:1.5;" width="797.5" x="80" y="832.8672"/><line style="stroke:#181818;stroke-width:0.5;stroke-dasharray:5.0,5.0;" x1="42" x2="42" y1="82.6094" y2="1232.8672"/><line style="stroke:#181818;stroke-width:0.5;stroke-dasharray:5.0,5.0;" x1="169" x2="169" y1="82.6094" y2="1232.8672"/><line style="stroke:#181818;stroke-width:0.5;stroke-dasharray:5.0,5.0;" x1="332" x2="332" y1="82.6094" y2="1232.8672"/><line style="stroke:#181818;stroke-width:0.5;stroke-dasharray:5.0,5.0;" x1="549.5" x2="549.5" y1="82.6094" y2="1232.8672"/><line style="stroke:#181818;stroke-width:0.5;stroke-dasharray:5.0,5.0;" x1="770" x2="770" y1="82.6094" y2="1232.8672"/><text fill="#000000" font-family="sans-serif" font-size="14" lengthAdjust="spacing" textLength="39" x="20" y="79.5332">Admin</text><ellipse cx="42.5" cy="13.5" fill="#E2E2F0" rx="8" ry="8" style="stroke:#181818;stroke-width:0.5;"/><path d="M42.5,21.5 L42.5,48.5 M29.5,29.5 L55.5,29.5 M42.5,48.5 L29.5,63.5 M42.5,48.5 L55.5,63.5 " fill="none" style="stroke:#181818;stroke-width:0.5;"/><text fill="#000000" font-family="sans-serif" font-size="14" lengthAdjust="spacing" textLength="153" x="90" y="79.5332">DoctorManagementView</text><path d="M149,37 L149,61 M149,49 L166,49 " fill="none" style="stroke:#181818;stroke-width:0.5;"/><ellipse cx="178" cy="49" fill="#E2E2F0" rx="12" ry="12" style="stroke:#181818;stroke-width:0.5;"/><text fill="#000000" font-family="sans-serif" font-size="14" lengthAdjust="spacing" textLength="141" x="259" y="79.5332">DoctorInformationView</text><path d="M312,37 L312,61 M312,49 L329,49 " fill="none" style="stroke:#181818;stroke-width:0.5;"/><ellipse cx="341" cy="49" fill="#E2E2F0" rx="12" ry="12" style="stroke:#181818;stroke-width:0.5;"/><text fill="#000000" font-family="sans-serif" font-size="14" lengthAdjust="spacing" textLength="104" x="494.5" y="79.5332">DoctorController</text><ellipse cx="549.5" cy="49" fill="#E2E2F0" rx="12" ry="12" style="stroke:#181818;stroke-width:0.5;"/><polygon fill="#181818" points="545.5,37,551.5,32,549.5,37,551.5,42,545.5,37" style="stroke:#181818;stroke-width:1.0;"/><text fill="#000000" font-family="sans-serif" font-size="14" lengthAdjust="spacing" textLength="61" x="737" y="79.5332">DOCTOR</text><ellipse cx="770.5" cy="49" fill="#E2E2F0" rx="12" ry="12" style="stroke:#181818;stroke-width:0.5;"/><line style="stroke:#181818;stroke-width:0.5;" x1="758.5" x2="782.5" y1="63" y2="63"/><rect fill="#FFFFFF" height="473.7031" style="stroke:#181818;stroke-width:1.0;" width="10" x="37.5" y="210.1094"/><rect fill="#FFFFFF" height="990.7578" style="stroke:#181818;stroke-width:1.0;" width="10" x="164.5" y="210.1094"/><rect fill="#FFFFFF" height="832" style="stroke:#181818;stroke-width:1.0;" width="10" x="327.5" y="331.5156"/><rect fill="#FFFFFF" height="28" style="stroke:#181818;stroke-width:1.0;" width="10" x="332.5" y="369.8672"/><rect fill="#FFFFFF" height="28" style="stroke:#181818;stroke-width:1.0;" width="10" x="332.5" y="473.5703"/><rect fill="#FFFFFF" height="28" style="stroke:#181818;stroke-width:1.0;" width="10" x="332.5" y="602.625"/><rect fill="#FFFFFF" height="28" style="stroke:#181818;stroke-width:1.0;" width="10" x="332.5" y="942.2734"/><rect fill="#FFFFFF" height="91.0547" style="stroke:#181818;stroke-width:1.0;" width="10" x="544.5" y="240.4609"/><rect fill="#FFFFFF" height="486.7031" style="stroke:#181818;stroke-width:1.0;" width="10" x="544.5" y="714.1641"/><rect fill="#FFFFFF" height="30.3516" style="stroke:#181818;stroke-width:1.0;" width="10" x="765.5" y="270.8125"/><rect fill="#FFFFFF" height="352.2969" style="stroke:#181818;stroke-width:1.0;" width="10" x="765.5" y="744.5156"/><rect fill="#FFFFFF" height="28" style="stroke:#181818;stroke-width:1.0;" width="10" x="770.5" y="782.8672"/><rect fill="#FFFFFF" height="28" style="stroke:#181818;stroke-width:1.0;" width="10" x="770.5" y="1031.4609"/><path d="M10,99.6094 L75,99.6094 L75,107.9609 L65,117.9609 L10,117.9609 L10,99.6094 " fill="#EEEEEE" style="stroke:#000000;stroke-width:1.5;"/><rect fill="none" height="64.7969" style="stroke:#000000;stroke-width:1.5;" width="804" x="10" y="99.6094"/><text fill="#000000" font-family="sans-serif" font-size="13" font-weight="bold" lengthAdjust="spacing" textLength="20" x="25" y="114.1045">opt</text><text fill="#000000" font-family="sans-serif" font-size="11" font-weight="bold" lengthAdjust="spacing" textLength="46" x="90" y="113.0283">[Search]</text><rect fill="none" height="41.4453" style="stroke:#000000;stroke-width:1.5;" width="790" x="17" y="117.9609"/><path d="M17,117.9609 L79,117.9609 L79,125.9609 L69,135.9609 L17,135.9609 L17,117.9609 " fill="#EEEEEE" style="stroke:#000000;stroke-width:2.0;"/><text fill="#000000" font-family="sans-serif" font-size="13" font-weight="bold" lengthAdjust="spacing" textLength="17" x="30" y="133.4561">ref</text><text fill="#000000" font-family="sans-serif" font-size="12" lengthAdjust="spacing" textLength="137" x="343.5" y="152.418">Sequence Search Doctor</text><polygon fill="#181818" points="152.5,206.1094,162.5,210.1094,152.5,214.1094,156.5,210.1094" style="stroke:#181818;stroke-width:1.0;"/><line style="stroke:#181818;stroke-width:1.0;" x1="47.5" x2="158.5" y1="210.1094" y2="210.1094"/><text fill="#000000" font-family="sans-serif" font-size="13" font-weight="bold" lengthAdjust="spacing" textLength="7" x="54.5" y="197.0771">1</text><text fill="#000000" font-family="sans-serif" font-size="13" lengthAdjust="spacing" textLength="77" x="65.5" y="188.9014">Select doctor</text><text fill="#000000" font-family="sans-serif" font-size="13" lengthAdjust="spacing" textLength="88" x="69.5" y="205.2529">needs updating</text><polygon fill="#181818" points="532.5,236.4609,542.5,240.4609,532.5,244.4609,536.5,240.4609" style="stroke:#181818;stroke-width:1.0;"/><line style="stroke:#181818;stroke-width:1.0;" x1="174.5" x2="538.5" y1="240.4609" y2="240.4609"/><text fill="#000000" font-family="sans-serif" font-size="13" font-weight="bold" lengthAdjust="spacing" textLength="7" x="181.5" y="235.6045">2</text><text fill="#000000" font-family="sans-serif" font-size="13" lengthAdjust="spacing" textLength="181" x="192.5" y="235.6045">Get selected doctor information</text><polygon fill="#181818" points="753.5,266.8125,763.5,270.8125,753.5,274.8125,757.5,270.8125" style="stroke:#181818;stroke-width:1.0;"/><line style="stroke:#181818;stroke-width:1.0;" x1="554.5" x2="759.5" y1="270.8125" y2="270.8125"/><text fill="#000000" font-family="sans-serif" font-size="13" font-weight="bold" lengthAdjust="spacing" textLength="7" x="561.5" y="265.9561">3</text><text fill="#000000" font-family="sans-serif" font-size="13" lengthAdjust="spacing" textLength="181" x="572.5" y="265.9561">Get selected doctor information</text><polygon fill="#181818" points="565.5,297.1641,555.5,301.1641,565.5,305.1641,561.5,301.1641" style="stroke:#181818;stroke-width:1.0;"/><line style="stroke:#181818;stroke-width:1.0;stroke-dasharray:2.0,2.0;" x1="559.5" x2="769.5" y1="301.1641" y2="301.1641"/><text fill="#000000" font-family="sans-serif" font-size="13" font-weight="bold" lengthAdjust="spacing" textLength="7" x="571.5" y="296.3076">4</text><text fill="#000000" font-family="sans-serif" font-size="13" lengthAdjust="spacing" textLength="158" x="582.5" y="296.3076">Selected doctor information</text><polygon fill="#181818" points="348.5,327.5156,338.5,331.5156,348.5,335.5156,344.5,331.5156" style="stroke:#181818;stroke-width:1.0;"/><line style="stroke:#181818;stroke-width:1.0;stroke-dasharray:2.0,2.0;" x1="342.5" x2="548.5" y1="331.5156" y2="331.5156"/><text fill="#000000" font-family="sans-serif" font-size="13" font-weight="bold" lengthAdjust="spacing" textLength="7" x="354.5" y="326.6592">5</text><text fill="#000000" font-family="sans-serif" font-size="13" lengthAdjust="spacing" textLength="158" x="365.5" y="326.6592">Selected doctor information</text><line style="stroke:#181818;stroke-width:1.0;" x1="342.5" x2="384.5" y1="361.8672" y2="361.8672"/><line style="stroke:#181818;stroke-width:1.0;" x1="384.5" x2="384.5" y1="361.8672" y2="374.8672"/><line style="stroke:#181818;stroke-width:1.0;" x1="343.5" x2="384.5" y1="374.8672" y2="374.8672"/><polygon fill="#181818" points="353.5,370.8672,343.5,374.8672,353.5,378.8672,349.5,374.8672" style="stroke:#181818;stroke-width:1.0;"/><text fill="#000000" font-family="sans-serif" font-size="13" font-weight="bold" lengthAdjust="spacing" textLength="7" x="349.5" y="357.0107">6</text><text fill="#000000" font-family="sans-serif" font-size="13" lengthAdjust="spacing" textLength="150" x="360.5" y="357.0107">Display doctor information</text><polygon fill="#181818" points="315.5,431.2188,325.5,435.2188,315.5,439.2188,319.5,435.2188" style="stroke:#181818;stroke-width:1.0;"/><line style="stroke:#181818;stroke-width:1.0;" x1="47.5" x2="321.5" y1="435.2188" y2="435.2188"/><text fill="#000000" font-family="sans-serif" font-size="13" font-weight="bold" lengthAdjust="spacing" textLength="7" x="54.5" y="430.3623">7</text><text fill="#000000" font-family="sans-serif" font-size="13" lengthAdjust="spacing" textLength="138" x="65.5" y="430.3623">Enter doctor information</text><line style="stroke:#181818;stroke-width:1.0;" x1="342.5" x2="384.5" y1="465.5703" y2="465.5703"/><line style="stroke:#181818;stroke-width:1.0;" x1="384.5" x2="384.5" y1="465.5703" y2="478.5703"/><line style="stroke:#181818;stroke-width:1.0;" x1="343.5" x2="384.5" y1="478.5703" y2="478.5703"/><polygon fill="#181818" points="353.5,474.5703,343.5,478.5703,353.5,482.5703,349.5,478.5703" style="stroke:#181818;stroke-width:1.0;"/><text fill="#000000" font-family="sans-serif" font-size="13" font-weight="bold" lengthAdjust="spacing" textLength="7" x="349.5" y="460.7139">8</text><text fill="#000000" font-family="sans-serif" font-size="13" lengthAdjust="spacing" textLength="76" x="360.5" y="460.7139">Validate data</text><path d="M10,523.5703 L71,523.5703 L71,531.9219 L61,541.9219 L10,541.9219 L10,523.5703 " fill="#EEEEEE" style="stroke:#000000;stroke-width:1.5;"/><rect fill="none" height="692.2969" style="stroke:#000000;stroke-width:1.5;" width="883.5" x="10" y="523.5703"/><text fill="#000000" font-family="sans-serif" font-size="13" font-weight="bold" lengthAdjust="spacing" textLength="16" x="25" y="538.0654">alt</text><text fill="#000000" font-family="sans-serif" font-size="11" font-weight="bold" lengthAdjust="spacing" textLength="69" x="86" y="536.9893">[Invalid data]</text><polygon fill="#181818" points="58.5,560.2734,48.5,564.2734,58.5,568.2734,54.5,564.2734" style="stroke:#181818;stroke-width:1.0;"/><line style="stroke:#181818;stroke-width:1.0;stroke-dasharray:2.0,2.0;" x1="52.5" x2="326.5" y1="564.2734" y2="564.2734"/><text fill="#000000" font-family="sans-serif" font-size="13" font-weight="bold" lengthAdjust="spacing" textLength="7" x="64.5" y="559.417">9</text><text fill="#000000" font-family="sans-serif" font-size="13" lengthAdjust="spacing" textLength="94" x="75.5" y="559.417">Error notification</text><line style="stroke:#181818;stroke-width:1.0;" x1="342.5" x2="384.5" y1="594.625" y2="594.625"/><line style="stroke:#181818;stroke-width:1.0;" x1="384.5" x2="384.5" y1="594.625" y2="607.625"/><line style="stroke:#181818;stroke-width:1.0;" x1="343.5" x2="384.5" y1="607.625" y2="607.625"/><polygon fill="#181818" points="353.5,603.625,343.5,607.625,353.5,611.625,349.5,607.625" style="stroke:#181818;stroke-width:1.0;"/><text fill="#000000" font-family="sans-serif" font-size="13" font-weight="bold" lengthAdjust="spacing" textLength="14" x="349.5" y="589.7686">10</text><text fill="#000000" font-family="sans-serif" font-size="13" lengthAdjust="spacing" textLength="139" x="367.5" y="589.7686">Display error notification</text><line style="stroke:#000000;stroke-width:1.0;stroke-dasharray:2.0,2.0;" x1="10" x2="893.5" y1="646.625" y2="646.625"/><text fill="#000000" font-family="sans-serif" font-size="11" font-weight="bold" lengthAdjust="spacing" textLength="61" x="15" y="658.0439">[Valid data]</text><polygon fill="#181818" points="315.5,679.8125,325.5,683.8125,315.5,687.8125,319.5,683.8125" style="stroke:#181818;stroke-width:1.0;"/><line style="stroke:#181818;stroke-width:1.0;" x1="42.5" x2="321.5" y1="683.8125" y2="683.8125"/><text fill="#000000" font-family="sans-serif" font-size="13" font-weight="bold" lengthAdjust="spacing" textLength="14" x="49.5" y="678.9561">11</text><text fill="#000000" font-family="sans-serif" font-size="13" lengthAdjust="spacing" textLength="172" x="67.5" y="678.9561">Click button "Save" to confirm</text><polygon fill="#181818" points="532.5,710.1641,542.5,714.1641,532.5,718.1641,536.5,714.1641" style="stroke:#181818;stroke-width:1.0;"/><line style="stroke:#181818;stroke-width:1.0;" x1="337.5" x2="538.5" y1="714.1641" y2="714.1641"/><text fill="#000000" font-family="sans-serif" font-size="13" font-weight="bold" lengthAdjust="spacing" textLength="14" x="344.5" y="709.3076">12</text><text fill="#000000" font-family="sans-serif" font-size="13" lengthAdjust="spacing" textLength="170" x="362.5" y="709.3076">Send updating doctor request</text><polygon fill="#181818" points="753.5,740.5156,763.5,744.5156,753.5,748.5156,757.5,744.5156" style="stroke:#181818;stroke-width:1.0;"/><line style="stroke:#181818;stroke-width:1.0;" x1="554.5" x2="759.5" y1="744.5156" y2="744.5156"/><text fill="#000000" font-family="sans-serif" font-size="13" font-weight="bold" lengthAdjust="spacing" textLength="14" x="561.5" y="739.6592">13</text><text fill="#000000" font-family="sans-serif" font-size="13" lengthAdjust="spacing" textLength="97" x="579.5" y="739.6592">Send information</text><line style="stroke:#181818;stroke-width:1.0;" x1="780.5" x2="822.5" y1="774.8672" y2="774.8672"/><line style="stroke:#181818;stroke-width:1.0;" x1="822.5" x2="822.5" y1="774.8672" y2="787.8672"/><line style="stroke:#181818;stroke-width:1.0;" x1="781.5" x2="822.5" y1="787.8672" y2="787.8672"/><polygon fill="#181818" points="791.5,783.8672,781.5,787.8672,791.5,791.8672,787.5,787.8672" style="stroke:#181818;stroke-width:1.0;"/><text fill="#000000" font-family="sans-serif" font-size="13" font-weight="bold" lengthAdjust="spacing" textLength="14" x="787.5" y="770.0107">14</text><text fill="#000000" font-family="sans-serif" font-size="13" lengthAdjust="spacing" textLength="76" x="805.5" y="770.0107">Validate data</text><path d="M80,832.8672 L141,832.8672 L141,841.2188 L131,851.2188 L80,851.2188 L80,832.8672 " fill="#EEEEEE" style="stroke:#000000;stroke-width:1.5;"/><rect fill="none" height="376" style="stroke:#000000;stroke-width:1.5;" width="797.5" x="80" y="832.8672"/><text fill="#000000" font-family="sans-serif" font-size="13" font-weight="bold" lengthAdjust="spacing" textLength="16" x="95" y="847.3623">alt</text><text fill="#000000" font-family="sans-serif" font-size="11" font-weight="bold" lengthAdjust="spacing" textLength="69" x="156" y="846.2861">[Invalid data]</text><polygon fill="#181818" points="565.5,869.5703,555.5,873.5703,565.5,877.5703,561.5,873.5703" style="stroke:#181818;stroke-width:1.0;"/><line style="stroke:#181818;stroke-width:1.0;stroke-dasharray:2.0,2.0;" x1="559.5" x2="764.5" y1="873.5703" y2="873.5703"/><text fill="#000000" font-family="sans-serif" font-size="13" font-weight="bold" lengthAdjust="spacing" textLength="14" x="571.5" y="868.7139">15</text><text fill="#000000" font-family="sans-serif" font-size="13" lengthAdjust="spacing" textLength="94" x="589.5" y="868.7139">Error notification</text><polygon fill="#181818" points="348.5,899.9219,338.5,903.9219,348.5,907.9219,344.5,903.9219" style="stroke:#181818;stroke-width:1.0;"/><line style="stroke:#181818;stroke-width:1.0;stroke-dasharray:2.0,2.0;" x1="342.5" x2="543.5" y1="903.9219" y2="903.9219"/><text fill="#000000" font-family="sans-serif" font-size="13" font-weight="bold" lengthAdjust="spacing" textLength="14" x="354.5" y="899.0654">16</text><text fill="#000000" font-family="sans-serif" font-size="13" lengthAdjust="spacing" textLength="94" x="372.5" y="899.0654">Error notification</text><line style="stroke:#181818;stroke-width:1.0;" x1="342.5" x2="384.5" y1="934.2734" y2="934.2734"/><line style="stroke:#181818;stroke-width:1.0;" x1="384.5" x2="384.5" y1="934.2734" y2="947.2734"/><line style="stroke:#181818;stroke-width:1.0;" x1="343.5" x2="384.5" y1="947.2734" y2="947.2734"/><polygon fill="#181818" points="353.5,943.2734,343.5,947.2734,353.5,951.2734,349.5,947.2734" style="stroke:#181818;stroke-width:1.0;"/><text fill="#000000" font-family="sans-serif" font-size="13" font-weight="bold" lengthAdjust="spacing" textLength="14" x="349.5" y="929.417">17</text><text fill="#000000" font-family="sans-serif" font-size="13" lengthAdjust="spacing" textLength="139" x="367.5" y="929.417">Display error notification</text><line style="stroke:#000000;stroke-width:1.0;stroke-dasharray:2.0,2.0;" x1="80" x2="877.5" y1="986.2734" y2="986.2734"/><text fill="#000000" font-family="sans-serif" font-size="11" font-weight="bold" lengthAdjust="spacing" textLength="61" x="85" y="997.6924">[Valid data]</text><line style="stroke:#181818;stroke-width:1.0;" x1="780.5" x2="822.5" y1="1023.4609" y2="1023.4609"/><line style="stroke:#181818;stroke-width:1.0;" x1="822.5" x2="822.5" y1="1023.4609" y2="1036.4609"/><line style="stroke:#181818;stroke-width:1.0;" x1="781.5" x2="822.5" y1="1036.4609" y2="1036.4609"/><polygon fill="#181818" points="791.5,1032.4609,781.5,1036.4609,791.5,1040.4609,787.5,1036.4609" style="stroke:#181818;stroke-width:1.0;"/><text fill="#000000" font-family="sans-serif" font-size="13" font-weight="bold" lengthAdjust="spacing" textLength="14" x="787.5" y="1018.6045">18</text><text fill="#000000" font-family="sans-serif" font-size="13" lengthAdjust="spacing" textLength="60" x="805.5" y="1018.6045">Store data</text><polygon fill="#181818" points="565.5,1092.8125,555.5,1096.8125,565.5,1100.8125,561.5,1096.8125" style="stroke:#181818;stroke-width:1.0;"/><line style="stroke:#181818;stroke-width:1.0;stroke-dasharray:2.0,2.0;" x1="559.5" x2="769.5" y1="1096.8125" y2="1096.8125"/><text fill="#000000" font-family="sans-serif" font-size="13" font-weight="bold" lengthAdjust="spacing" textLength="14" x="571.5" y="1091.9561">19</text><text fill="#000000" font-family="sans-serif" font-size="13" lengthAdjust="spacing" textLength="117" x="589.5" y="1091.9561">Success notification</text><polygon fill="#181818" points="348.5,1123.1641,338.5,1127.1641,348.5,1131.1641,344.5,1127.1641" style="stroke:#181818;stroke-width:1.0;"/><line style="stroke:#181818;stroke-width:1.0;stroke-dasharray:2.0,2.0;" x1="342.5" x2="543.5" y1="1127.1641" y2="1127.1641"/><text fill="#000000" font-family="sans-serif" font-size="13" font-weight="bold" lengthAdjust="spacing" textLength="14" x="354.5" y="1122.3076">20</text><text fill="#000000" font-family="sans-serif" font-size="13" lengthAdjust="spacing" textLength="117" x="372.5" y="1122.3076">Success notification</text><line style="stroke:#181818;stroke-width:1.0;" x1="337.5" x2="379.5" y1="1162.5156" y2="1162.5156"/><line style="stroke:#181818;stroke-width:1.0;" x1="379.5" x2="379.5" y1="1162.5156" y2="1175.5156"/><line style="stroke:#181818;stroke-width:1.0;" x1="332.5" x2="379.5" y1="1175.5156" y2="1175.5156"/><polygon fill="#181818" points="342.5,1171.5156,332.5,1175.5156,342.5,1179.5156,338.5,1175.5156" style="stroke:#181818;stroke-width:1.0;"/><text fill="#000000" font-family="sans-serif" font-size="13" font-weight="bold" lengthAdjust="spacing" textLength="14" x="344.5" y="1157.6592">21</text><text fill="#000000" font-family="sans-serif" font-size="13" lengthAdjust="spacing" textLength="61" x="362.5" y="1157.6592">Close view</text><polygon fill="#181818" points="180.5,1196.8672,170.5,1200.8672,180.5,1204.8672,176.5,1200.8672" style="stroke:#181818;stroke-width:1.0;"/><line style="stroke:#181818;stroke-width:1.0;" x1="174.5" x2="548.5" y1="1200.8672" y2="1200.8672"/><text fill="#000000" font-family="sans-serif" font-size="13" font-weight="bold" lengthAdjust="spacing" textLength="14" x="186.5" y="1196.0107">22</text><text fill="#000000" font-family="sans-serif" font-size="13" lengthAdjust="spacing" textLength="269" x="204.5" y="1196.0107">Display success notification and list of doctors</text><!--MD5=[7655911e960e28700a87804e7d6bc638]
@startuml UpdateDoctorSeq
autonumber
hide footbox

actor Admin
boundary DoctorManagementView
boundary DoctorInformationView
control DoctorController
entity DOCTOR

opt Search
ref over Admin, DoctorManagementView, DoctorInformationView, DoctorController, DOCTOR: Sequence Search Doctor
end

Admin -> DoctorManagementView: Select doctor\n needs updating
activate Admin
activate DoctorManagementView
DoctorManagementView -> DoctorController: Get selected doctor information
activate DoctorController
DoctorController -> DOCTOR: Get selected doctor information
activate DOCTOR
DOCTOR - -> DoctorController: Selected doctor information
deactivate DOCTOR
DoctorController - -> DoctorInformationView: Selected doctor information
deactivate DoctorController
activate DoctorInformationView
DoctorInformationView -> DoctorInformationView: Display doctor information
activate DoctorInformationView
deactivate DoctorInformationView
Admin -> DoctorInformationView: Enter doctor information  
DoctorInformationView -> DoctorInformationView: Validate data
activate DoctorInformationView
deactivate DoctorInformationView
alt Invalid data
    DoctorInformationView - -> Admin: Error notification
    DoctorInformationView -> DoctorInformationView: Display error notification
    activate DoctorInformationView
    deactivate DoctorInformationView
else Valid data
    Admin -> DoctorInformationView: Click button "Save" to confirm
    deactivate Admin
    DoctorInformationView -> DoctorController: Send updating doctor request
    activate DoctorController
    DoctorController -> DOCTOR: Send information
    activate DOCTOR
    DOCTOR -> DOCTOR: Validate data
    activate DOCTOR
    deactivate DOCTOR
    alt Invalid data
        DOCTOR - -> DoctorController: Error notification
        DoctorController - -> DoctorInformationView: Error notification
        DoctorInformationView -> DoctorInformationView: Display error notification
        activate DoctorInformationView
        deactivate DoctorInformationView
    else Valid data
        DOCTOR -> DOCTOR: Store data
        activate DOCTOR
        deactivate DOCTOR
        DOCTOR - -> DoctorController: Success notification
        deactivate DOCTOR
        DoctorController - -> DoctorInformationView: Success notification
        DoctorInformationView -> DoctorInformationView: Close view
        deactivate DoctorInformationView
        DoctorController -> DoctorManagementView: Display success notification and list of doctors
        deactivate DoctorManagementView
        deactivate DoctorController
    end
end
@enduml

PlantUML version 1.2022.7(Tue Aug 23 00:01:30 ICT 2022)
(GPL source distribution)
Java Runtime: Java(TM) SE Runtime Environment
JVM: Java HotSpot(TM) 64-Bit Server VM
Default Encoding: Cp1252
Language: en
Country: US
--></g></svg>