<?xml version="1.0" encoding="UTF-8" standalone="no"?><svg xmlns="http://www.w3.org/2000/svg" xmlns:xlink="http://www.w3.org/1999/xlink" contentStyleType="text/css" height="444px" preserveAspectRatio="none" style="width:698px;height:444px;background:#FFFFFF;" version="1.1" viewBox="0 0 698 444" width="698px" zoomAndPan="magnify"><defs/><g><rect fill="#F1F1F1" height="35.0938" rx="12.5" ry="12.5" style="stroke:#181818;stroke-width:0.5;" width="190" x="21" y="135.1895"/><text fill="#000000" font-family="sans-serif" font-size="12" lengthAdjust="spacing" textLength="170" x="31" y="157.6465">(2) Choose which type of report</text><rect fill="#F1F1F1" height="35.0938" rx="12.5" ry="12.5" style="stroke:#181818;stroke-width:0.5;" width="144" x="44" y="190.2832"/><text fill="#000000" font-family="sans-serif" font-size="12" lengthAdjust="spacing" textLength="124" x="54" y="212.7402">(3) Choose timestamp</text><line style="stroke:#000000;stroke-width:1.5;" x1="15" x2="15" y1="12.4551" y2="432.6582"/><ellipse cx="336" cy="50.0957" fill="#222222" rx="10" ry="10" style="stroke:#222222;stroke-width:1.0;"/><rect fill="#F1F1F1" height="35.0938" rx="12.5" ry="12.5" style="stroke:#181818;stroke-width:0.5;" width="205" x="233.5" y="80.0957"/><text fill="#000000" font-family="sans-serif" font-size="12" lengthAdjust="spacing" textLength="185" x="243.5" y="102.5527">(1) Display with empty information</text><rect fill="#F1F1F1" height="35.0938" rx="12.5" ry="12.5" style="stroke:#181818;stroke-width:0.5;" width="230" x="221" y="245.377"/><text fill="#000000" font-family="sans-serif" font-size="12" lengthAdjust="spacing" textLength="210" x="231" y="267.834">(4) Send selected time and data report</text><rect fill="#F1F1F1" height="35.0938" rx="12.5" ry="12.5" style="stroke:#181818;stroke-width:0.5;" width="141" x="265.5" y="355.5645"/><text fill="#000000" font-family="sans-serif" font-size="12" lengthAdjust="spacing" textLength="121" x="275.5" y="378.0215">(6) Display report data</text><ellipse cx="336" cy="421.6582" fill="none" rx="11" ry="11" style="stroke:#222222;stroke-width:1.0;"/><ellipse cx="336" cy="421.6582" fill="#222222" rx="6" ry="6" style="stroke:#111111;stroke-width:1.0;"/><line style="stroke:#000000;stroke-width:1.5;" x1="215" x2="215" y1="12.4551" y2="432.6582"/><rect fill="#F1F1F1" height="35.0938" rx="12.5" ry="12.5" style="stroke:#181818;stroke-width:0.5;" width="214" x="461" y="300.4707"/><text fill="#000000" font-family="sans-serif" font-size="12" lengthAdjust="spacing" textLength="194" x="471" y="322.9277">(5) Query data base on given option</text><line style="stroke:#000000;stroke-width:1.5;" x1="455" x2="455" y1="12.4551" y2="432.6582"/><line style="stroke:#000000;stroke-width:1.5;" x1="679" x2="679" y1="12.4551" y2="432.6582"/><line style="stroke:#181818;stroke-width:1.0;" x1="116" x2="116" y1="170.2832" y2="190.2832"/><polygon fill="#181818" points="112,180.2832,116,190.2832,120,180.2832,116,184.2832" style="stroke:#181818;stroke-width:1.0;"/><line style="stroke:#181818;stroke-width:1.0;" x1="336" x2="336" y1="60.0957" y2="80.0957"/><polygon fill="#181818" points="332,70.0957,336,80.0957,340,70.0957,336,74.0957" style="stroke:#181818;stroke-width:1.0;"/><line style="stroke:#181818;stroke-width:1.0;" x1="336" x2="336" y1="390.6582" y2="410.6582"/><polygon fill="#181818" points="332,400.6582,336,410.6582,340,400.6582,336,404.6582" style="stroke:#181818;stroke-width:1.0;"/><line style="stroke:#181818;stroke-width:1.0;" x1="336" x2="336" y1="115.1895" y2="120.1895"/><line style="stroke:#181818;stroke-width:1.0;" x1="336" x2="116" y1="120.1895" y2="120.1895"/><line style="stroke:#181818;stroke-width:1.0;" x1="116" x2="116" y1="120.1895" y2="135.1895"/><polygon fill="#181818" points="112,125.1895,116,135.1895,120,125.1895,116,129.1895" style="stroke:#181818;stroke-width:1.0;"/><line style="stroke:#181818;stroke-width:1.0;" x1="116" x2="116" y1="225.377" y2="230.377"/><line style="stroke:#181818;stroke-width:1.0;" x1="116" x2="336" y1="230.377" y2="230.377"/><line style="stroke:#181818;stroke-width:1.0;" x1="336" x2="336" y1="230.377" y2="245.377"/><polygon fill="#181818" points="332,235.377,336,245.377,340,235.377,336,239.377" style="stroke:#181818;stroke-width:1.0;"/><line style="stroke:#181818;stroke-width:1.0;" x1="336" x2="336" y1="280.4707" y2="285.4707"/><line style="stroke:#181818;stroke-width:1.0;" x1="336" x2="568" y1="285.4707" y2="285.4707"/><line style="stroke:#181818;stroke-width:1.0;" x1="568" x2="568" y1="285.4707" y2="300.4707"/><polygon fill="#181818" points="564,290.4707,568,300.4707,572,290.4707,568,294.4707" style="stroke:#181818;stroke-width:1.0;"/><line style="stroke:#181818;stroke-width:1.0;" x1="568" x2="568" y1="335.5645" y2="340.5645"/><line style="stroke:#181818;stroke-width:1.0;" x1="568" x2="336" y1="340.5645" y2="340.5645"/><line style="stroke:#181818;stroke-width:1.0;" x1="336" x2="336" y1="340.5645" y2="355.5645"/><polygon fill="#181818" points="332,345.5645,336,355.5645,340,345.5645,336,349.5645" style="stroke:#181818;stroke-width:1.0;"/><text fill="#000000" font-family="sans-serif" font-size="18" lengthAdjust="spacing" textLength="49" x="90.5" y="31.1406">Admin</text><text fill="#000000" font-family="sans-serif" font-size="18" lengthAdjust="spacing" textLength="59" x="305.5" y="31.1406">System</text><text fill="#000000" font-family="sans-serif" font-size="18" lengthAdjust="spacing" textLength="77" x="528.5" y="31.1406">Database</text><!--MD5=[d295979b775854a46f247ba9969da878]
@startuml ViewUserReportActi
|Admin|
|System|
start
    :(1) Display with empty information;
    |Admin|
    :(2) Choose which type of report;   
    :(3) Choose timestamp;
    |System|
    :(4) Send selected time and data report;
    |Database|
    :(5) Query data base on given option;
    |System|
    :(6) Display report data;
stop
@enduml

PlantUML version 1.2022.7(Tue Aug 23 00:01:30 ICT 2022)
(GPL source distribution)
Java Runtime: Java(TM) SE Runtime Environment
JVM: Java HotSpot(TM) 64-Bit Server VM
Default Encoding: Cp1252
Language: en
Country: US
--></g></svg>