<?xml version="1.0" encoding="UTF-8" standalone="no"?><svg xmlns="http://www.w3.org/2000/svg" xmlns:xlink="http://www.w3.org/1999/xlink" contentStyleType="text/css" height="417px" preserveAspectRatio="none" style="width:635px;height:417px;background:#FFFFFF;" version="1.1" viewBox="0 0 635 417" width="635px" zoomAndPan="magnify"><defs/><g><rect fill="#F1F1F1" height="35.0938" rx="12.5" ry="12.5" style="stroke:#181818;stroke-width:0.5;" width="128" x="131" y="150.2832"/><text fill="#000000" font-family="sans-serif" font-size="12" lengthAdjust="spacing" textLength="108" x="141" y="172.7402">(2) Choose function</text><polygon fill="#F1F1F1" points="59.5,205.377,59.5,205.377,71.5,217.377,59.5,229.377,59.5,229.377,47.5,217.377,59.5,205.377" style="stroke:#181818;stroke-width:0.5;"/><text fill="#000000" font-family="sans-serif" font-size="11" lengthAdjust="spacing" textLength="32" x="63.5" y="240.7959">Create</text><rect fill="#F1F1F1" height="80.375" rx="12.5" ry="12.5" style="stroke:#181818;stroke-width:0.5;" width="77" x="21" y="263.2129"/><text fill="#000000" font-family="sans-serif" font-size="12" lengthAdjust="spacing" textLength="25" x="31" y="285.6699">(2.1)</text><text fill="#000000" font-family="sans-serif" font-size="12" lengthAdjust="spacing" textLength="35" x="31" y="300.7637">Activity</text><text fill="#000000" font-family="sans-serif" font-size="12" lengthAdjust="spacing" textLength="37" x="31" y="315.8574">Create</text><text fill="#000000" font-family="sans-serif" font-size="12" lengthAdjust="spacing" textLength="57" x="31" y="330.9512">Document</text><polygon fill="#F1F1F1" points="146.5,205.377,146.5,205.377,158.5,217.377,146.5,229.377,146.5,229.377,134.5,217.377,146.5,205.377" style="stroke:#181818;stroke-width:0.5;"/><text fill="#000000" font-family="sans-serif" font-size="11" lengthAdjust="spacing" textLength="34" x="150.5" y="240.7959">Update</text><rect fill="#F1F1F1" height="80.375" rx="12.5" ry="12.5" style="stroke:#181818;stroke-width:0.5;" width="77" x="108" y="263.2129"/><text fill="#000000" font-family="sans-serif" font-size="12" lengthAdjust="spacing" textLength="25" x="118" y="285.6699">(2.2)</text><text fill="#000000" font-family="sans-serif" font-size="12" lengthAdjust="spacing" textLength="35" x="118" y="300.7637">Activity</text><text fill="#000000" font-family="sans-serif" font-size="12" lengthAdjust="spacing" textLength="40" x="118" y="315.8574">Update</text><text fill="#000000" font-family="sans-serif" font-size="12" lengthAdjust="spacing" textLength="57" x="118" y="330.9512">Document</text><polygon fill="#F1F1F1" points="243.5,205.377,243.5,205.377,255.5,217.377,243.5,229.377,243.5,229.377,231.5,217.377,243.5,205.377" style="stroke:#181818;stroke-width:0.5;"/><text fill="#000000" font-family="sans-serif" font-size="11" lengthAdjust="spacing" textLength="30" x="247.5" y="240.7959">Delete</text><text fill="#000000" font-family="sans-serif" font-size="11" lengthAdjust="spacing" textLength="35" x="255.5" y="214.96">Search</text><rect fill="#F1F1F1" height="80.375" rx="12.5" ry="12.5" style="stroke:#181818;stroke-width:0.5;" width="77" x="205" y="263.2129"/><text fill="#000000" font-family="sans-serif" font-size="12" lengthAdjust="spacing" textLength="25" x="215" y="285.6699">(2.3)</text><text fill="#000000" font-family="sans-serif" font-size="12" lengthAdjust="spacing" textLength="35" x="215" y="300.7637">Activity</text><text fill="#000000" font-family="sans-serif" font-size="12" lengthAdjust="spacing" textLength="36" x="215" y="315.8574">Delete</text><text fill="#000000" font-family="sans-serif" font-size="12" lengthAdjust="spacing" textLength="57" x="215" y="330.9512">Document</text><rect fill="#F1F1F1" height="80.375" rx="12.5" ry="12.5" style="stroke:#181818;stroke-width:0.5;" width="77" x="300.5" y="259.2949"/><text fill="#000000" font-family="sans-serif" font-size="12" lengthAdjust="spacing" textLength="25" x="310.5" y="281.752">(2.4)</text><text fill="#000000" font-family="sans-serif" font-size="12" lengthAdjust="spacing" textLength="35" x="310.5" y="296.8457">Activity</text><text fill="#000000" font-family="sans-serif" font-size="12" lengthAdjust="spacing" textLength="39" x="310.5" y="311.9395">Search</text><text fill="#000000" font-family="sans-serif" font-size="12" lengthAdjust="spacing" textLength="57" x="310.5" y="327.0332">Document</text><line style="stroke:#000000;stroke-width:1.5;" x1="15" x2="15" y1="12.4551" y2="405.5879"/><ellipse cx="456" cy="50.0957" fill="#222222" rx="10" ry="10" style="stroke:#222222;stroke-width:1.0;"/><rect fill="#F1F1F1" height="50.1875" rx="12.5" ry="12.5" style="stroke:#181818;stroke-width:0.5;" width="137" x="387.5" y="80.0957"/><text fill="#000000" font-family="sans-serif" font-size="12" lengthAdjust="spacing" textLength="117" x="397.5" y="102.5527">(1) Display document</text><text fill="#000000" font-family="sans-serif" font-size="12" lengthAdjust="spacing" textLength="101" x="397.5" y="117.6465">management view</text><ellipse cx="456" cy="394.5879" fill="none" rx="11" ry="11" style="stroke:#222222;stroke-width:1.0;"/><ellipse cx="456" cy="394.5879" fill="#222222" rx="6" ry="6" style="stroke:#111111;stroke-width:1.0;"/><line style="stroke:#000000;stroke-width:1.5;" x1="381.5" x2="381.5" y1="12.4551" y2="405.5879"/><line style="stroke:#000000;stroke-width:1.5;" x1="528.5" x2="528.5" y1="12.4551" y2="405.5879"/><line style="stroke:#000000;stroke-width:1.5;" x1="615.5" x2="615.5" y1="12.4551" y2="405.5879"/><line style="stroke:#181818;stroke-width:1.0;" x1="59.5" x2="59.5" y1="229.377" y2="263.2129"/><polygon fill="#181818" points="55.5,253.2129,59.5,263.2129,63.5,253.2129,59.5,257.2129" style="stroke:#181818;stroke-width:1.0;"/><line style="stroke:#181818;stroke-width:1.0;" x1="59.5" x2="59.5" y1="343.5879" y2="363.5879"/><polygon fill="#181818" points="55.5,353.5879,59.5,363.5879,63.5,353.5879,59.5,357.5879" style="stroke:#181818;stroke-width:1.0;"/><line style="stroke:#181818;stroke-width:1.0;" x1="146.5" x2="146.5" y1="229.377" y2="263.2129"/><polygon fill="#181818" points="142.5,253.2129,146.5,263.2129,150.5,253.2129,146.5,257.2129" style="stroke:#181818;stroke-width:1.0;"/><line style="stroke:#181818;stroke-width:1.0;" x1="146.5" x2="146.5" y1="343.5879" y2="363.5879"/><polygon fill="#181818" points="142.5,353.5879,146.5,363.5879,150.5,353.5879,146.5,357.5879" style="stroke:#181818;stroke-width:1.0;"/><line style="stroke:#181818;stroke-width:1.0;" x1="243.5" x2="243.5" y1="229.377" y2="263.2129"/><polygon fill="#181818" points="239.5,253.2129,243.5,263.2129,247.5,253.2129,243.5,257.2129" style="stroke:#181818;stroke-width:1.0;"/><line style="stroke:#181818;stroke-width:1.0;" x1="243.5" x2="243.5" y1="343.5879" y2="363.5879"/><polygon fill="#181818" points="239.5,353.5879,243.5,363.5879,247.5,353.5879,243.5,357.5879" style="stroke:#181818;stroke-width:1.0;"/><line style="stroke:#181818;stroke-width:1.0;" x1="71.5" x2="134.5" y1="217.377" y2="217.377"/><polygon fill="#181818" points="124.5,213.377,134.5,217.377,124.5,221.377,128.5,217.377" style="stroke:#181818;stroke-width:1.0;"/><line style="stroke:#181818;stroke-width:1.0;" x1="158.5" x2="231.5" y1="217.377" y2="217.377"/><polygon fill="#181818" points="221.5,213.377,231.5,217.377,221.5,221.377,225.5,217.377" style="stroke:#181818;stroke-width:1.0;"/><line style="stroke:#181818;stroke-width:1.0;" x1="195" x2="195" y1="185.377" y2="190.377"/><line style="stroke:#181818;stroke-width:1.0;" x1="195" x2="59.5" y1="190.377" y2="190.377"/><line style="stroke:#181818;stroke-width:1.0;" x1="59.5" x2="59.5" y1="190.377" y2="205.377"/><polygon fill="#181818" points="55.5,195.377,59.5,205.377,63.5,195.377,59.5,199.377" style="stroke:#181818;stroke-width:1.0;"/><line style="stroke:#181818;stroke-width:1.0;" x1="255.5" x2="339" y1="217.377" y2="217.377"/><line style="stroke:#181818;stroke-width:1.0;" x1="339" x2="339" y1="217.377" y2="259.2949"/><polygon fill="#181818" points="335,249.2949,339,259.2949,343,249.2949,339,253.2949" style="stroke:#181818;stroke-width:1.0;"/><line style="stroke:#181818;stroke-width:1.0;" x1="339" x2="339" y1="339.6699" y2="363.5879"/><polygon fill="#181818" points="335,353.5879,339,363.5879,343,353.5879,339,357.5879" style="stroke:#181818;stroke-width:1.0;"/><line style="stroke:#181818;stroke-width:1.0;" x1="59.5" x2="339" y1="363.5879" y2="363.5879"/><line style="stroke:#181818;stroke-width:1.0;" x1="456" x2="456" y1="60.0957" y2="80.0957"/><polygon fill="#181818" points="452,70.0957,456,80.0957,460,70.0957,456,74.0957" style="stroke:#181818;stroke-width:1.0;"/><line style="stroke:#181818;stroke-width:1.0;" x1="456" x2="456" y1="130.2832" y2="135.2832"/><line style="stroke:#181818;stroke-width:1.0;" x1="456" x2="195" y1="135.2832" y2="135.2832"/><line style="stroke:#181818;stroke-width:1.0;" x1="195" x2="195" y1="135.2832" y2="150.2832"/><polygon fill="#181818" points="191,140.2832,195,150.2832,199,140.2832,195,144.2832" style="stroke:#181818;stroke-width:1.0;"/><line style="stroke:#181818;stroke-width:1.0;" x1="195" x2="195" y1="363.5879" y2="368.5879"/><line style="stroke:#181818;stroke-width:1.0;" x1="195" x2="456" y1="368.5879" y2="368.5879"/><line style="stroke:#181818;stroke-width:1.0;" x1="456" x2="456" y1="368.5879" y2="383.5879"/><polygon fill="#181818" points="452,373.5879,456,383.5879,460,373.5879,456,377.5879" style="stroke:#181818;stroke-width:1.0;"/><text fill="#000000" font-family="sans-serif" font-size="18" lengthAdjust="spacing" textLength="49" x="173.75" y="31.1406">Admin</text><text fill="#000000" font-family="sans-serif" font-size="18" lengthAdjust="spacing" textLength="59" x="425.5" y="31.1406">System</text><text fill="#000000" font-family="sans-serif" font-size="18" lengthAdjust="spacing" textLength="77" x="533.5" y="31.1406">Database</text><!--MD5=[b80614c8a776375378b2579445f0d731]
@startuml AdjustDocumentActi
|Admin|
|System|
|Database|
|System|
start
:(1) Display document\nmanagement view;
|Admin|
:(2) Choose function;
if () then (Create)
  :(2.1)\nActivity\nCreate\nDocument; 
elseif () then (Update) 
  :(2.2)\nActivity\nUpdate\nDocument; 
elseif () then (Delete)
  :(2.3)\nActivity\nDelete\nDocument; 
else (Search)
  :(2.4)\nActivity\nSearch\nDocument; 
endif
|System|
stop
@enduml

PlantUML version 1.2022.7(Tue Aug 23 00:01:30 ICT 2022)
(GPL source distribution)
Java Runtime: Java(TM) SE Runtime Environment
JVM: Java HotSpot(TM) 64-Bit Server VM
Default Encoding: Cp1252
Language: en
Country: US
--></g></svg>