<?xml version="1.0" encoding="UTF-8" standalone="no"?><svg xmlns="http://www.w3.org/2000/svg" xmlns:xlink="http://www.w3.org/1999/xlink" contentStyleType="text/css" height="1203px" preserveAspectRatio="none" style="width:899px;height:1203px;background:#FFFFFF;" version="1.1" viewBox="0 0 899 1203" width="899px" zoomAndPan="magnify"><defs/><g><rect fill="#FFFFFF" height="248.5938" style="stroke:#181818;stroke-width:1.0;" width="10" x="39" y="369.0703"/><rect fill="#FFFFFF" height="30" style="stroke:#181818;stroke-width:1.0;" width="10" x="131.5" y="1134.7188"/><rect fill="#FFFFFF" height="848.3516" style="stroke:#181818;stroke-width:1.0;" width="10" x="263" y="249.0156"/><rect fill="#FFFFFF" height="28" style="stroke:#181818;stroke-width:1.0;" width="10" x="268" y="303.7188"/><rect fill="#FFFFFF" height="28" style="stroke:#181818;stroke-width:1.0;" width="10" x="268" y="407.4219"/><rect fill="#FFFFFF" height="28" style="stroke:#181818;stroke-width:1.0;" width="10" x="268" y="536.4766"/><rect fill="#FFFFFF" height="28" style="stroke:#181818;stroke-width:1.0;" width="10" x="268" y="876.125"/><rect fill="#FFFFFF" height="134.0547" style="stroke:#181818;stroke-width:1.0;" width="10" x="508" y="114.9609"/><rect fill="#FFFFFF" height="516.7031" style="stroke:#181818;stroke-width:1.0;" width="10" x="508" y="648.0156"/><rect fill="#FFFFFF" height="352.2969" style="stroke:#181818;stroke-width:1.0;" width="10" x="677" y="678.3672"/><rect fill="#FFFFFF" height="28" style="stroke:#181818;stroke-width:1.0;" width="10" x="682" y="716.7188"/><rect fill="#FFFFFF" height="28" style="stroke:#181818;stroke-width:1.0;" width="10" x="682" y="965.3125"/><rect fill="#FFFFFF" height="103.7031" style="stroke:#181818;stroke-width:1.0;" width="10" x="795" y="114.9609"/><rect fill="#FFFFFF" height="28" style="stroke:#181818;stroke-width:1.0;" width="10" x="800" y="153.3125"/><rect fill="none" height="722.2969" style="stroke:#000000;stroke-width:1.5;" width="795" x="10" y="457.4219"/><rect fill="none" height="406" style="stroke:#000000;stroke-width:1.5;" width="721" x="68" y="766.7188"/><line style="stroke:#181818;stroke-width:0.5;stroke-dasharray:5.0,5.0;" x1="44" x2="44" y1="82.6094" y2="1196.7188"/><line style="stroke:#181818;stroke-width:0.5;stroke-dasharray:5.0,5.0;" x1="136" x2="136" y1="82.6094" y2="1196.7188"/><line style="stroke:#181818;stroke-width:0.5;stroke-dasharray:5.0,5.0;" x1="267.5" x2="267.5" y1="82.6094" y2="1196.7188"/><line style="stroke:#181818;stroke-width:0.5;stroke-dasharray:5.0,5.0;" x1="512.5" x2="512.5" y1="82.6094" y2="1196.7188"/><line style="stroke:#181818;stroke-width:0.5;stroke-dasharray:5.0,5.0;" x1="681.5" x2="681.5" y1="82.6094" y2="1196.7188"/><line style="stroke:#181818;stroke-width:0.5;stroke-dasharray:5.0,5.0;" x1="800" x2="800" y1="82.6094" y2="1196.7188"/><text fill="#000000" font-family="sans-serif" font-size="14" lengthAdjust="spacing" textLength="42" x="20" y="79.5332">Doctor</text><ellipse cx="44" cy="13.5" fill="#E2E2F0" rx="8" ry="8" style="stroke:#181818;stroke-width:0.5;"/><path d="M44,21.5 L44,48.5 M31,29.5 L57,29.5 M44,48.5 L31,63.5 M44,48.5 L57,63.5 " fill="none" style="stroke:#181818;stroke-width:0.5;"/><text fill="#000000" font-family="sans-serif" font-size="14" lengthAdjust="spacing" textLength="75" x="96" y="61.9238">Prescription</text><text fill="#000000" font-family="sans-serif" font-size="14" lengthAdjust="spacing" textLength="111" x="78" y="79.5332">ManagementView</text><path d="M116,19.3906 L116,43.3906 M116,31.3906 L133,31.3906 " fill="none" style="stroke:#181818;stroke-width:0.5;"/><ellipse cx="145" cy="31.3906" fill="#E2E2F0" rx="12" ry="12" style="stroke:#181818;stroke-width:0.5;"/><text fill="#000000" font-family="sans-serif" font-size="14" lengthAdjust="spacing" textLength="75" x="227.5" y="61.9238">Prescription</text><text fill="#000000" font-family="sans-serif" font-size="14" lengthAdjust="spacing" textLength="99" x="215.5" y="79.5332">InformationView</text><path d="M247.5,19.3906 L247.5,43.3906 M247.5,31.3906 L264.5,31.3906 " fill="none" style="stroke:#181818;stroke-width:0.5;"/><ellipse cx="276.5" cy="31.3906" fill="#E2E2F0" rx="12" ry="12" style="stroke:#181818;stroke-width:0.5;"/><text fill="#000000" font-family="sans-serif" font-size="14" lengthAdjust="spacing" textLength="137" x="441.5" y="79.5332">PrescriptionController</text><ellipse cx="513" cy="49" fill="#E2E2F0" rx="12" ry="12" style="stroke:#181818;stroke-width:0.5;"/><polygon fill="#181818" points="509,37,515,32,513,37,515,42,509,37" style="stroke:#181818;stroke-width:1.0;"/><text fill="#000000" font-family="sans-serif" font-size="14" lengthAdjust="spacing" textLength="101" x="628.5" y="79.5332">PRESCRIPTION</text><ellipse cx="682" cy="49" fill="#E2E2F0" rx="12" ry="12" style="stroke:#181818;stroke-width:0.5;"/><line style="stroke:#181818;stroke-width:0.5;" x1="670" x2="694" y1="63" y2="63"/><text fill="#000000" font-family="sans-serif" font-size="14" lengthAdjust="spacing" textLength="40" x="777" y="79.5332">CHILD</text><ellipse cx="800" cy="49" fill="#E2E2F0" rx="12" ry="12" style="stroke:#181818;stroke-width:0.5;"/><line style="stroke:#181818;stroke-width:0.5;" x1="788" x2="812" y1="63" y2="63"/><rect fill="#FFFFFF" height="248.5938" style="stroke:#181818;stroke-width:1.0;" width="10" x="39" y="369.0703"/><rect fill="#FFFFFF" height="30" style="stroke:#181818;stroke-width:1.0;" width="10" x="131.5" y="1134.7188"/><rect fill="#FFFFFF" height="848.3516" style="stroke:#181818;stroke-width:1.0;" width="10" x="263" y="249.0156"/><rect fill="#FFFFFF" height="28" style="stroke:#181818;stroke-width:1.0;" width="10" x="268" y="303.7188"/><rect fill="#FFFFFF" height="28" style="stroke:#181818;stroke-width:1.0;" width="10" x="268" y="407.4219"/><rect fill="#FFFFFF" height="28" style="stroke:#181818;stroke-width:1.0;" width="10" x="268" y="536.4766"/><rect fill="#FFFFFF" height="28" style="stroke:#181818;stroke-width:1.0;" width="10" x="268" y="876.125"/><rect fill="#FFFFFF" height="134.0547" style="stroke:#181818;stroke-width:1.0;" width="10" x="508" y="114.9609"/><rect fill="#FFFFFF" height="516.7031" style="stroke:#181818;stroke-width:1.0;" width="10" x="508" y="648.0156"/><rect fill="#FFFFFF" height="352.2969" style="stroke:#181818;stroke-width:1.0;" width="10" x="677" y="678.3672"/><rect fill="#FFFFFF" height="28" style="stroke:#181818;stroke-width:1.0;" width="10" x="682" y="716.7188"/><rect fill="#FFFFFF" height="28" style="stroke:#181818;stroke-width:1.0;" width="10" x="682" y="965.3125"/><rect fill="#FFFFFF" height="103.7031" style="stroke:#181818;stroke-width:1.0;" width="10" x="795" y="114.9609"/><rect fill="#FFFFFF" height="28" style="stroke:#181818;stroke-width:1.0;" width="10" x="800" y="153.3125"/><polygon fill="#181818" points="783,110.9609,793,114.9609,783,118.9609,787,114.9609" style="stroke:#181818;stroke-width:1.0;"/><line style="stroke:#181818;stroke-width:1.0;" x1="518" x2="789" y1="114.9609" y2="114.9609"/><text fill="#000000" font-family="sans-serif" font-size="13" font-weight="bold" lengthAdjust="spacing" textLength="7" x="525" y="110.1045">1</text><text fill="#000000" font-family="sans-serif" font-size="13" lengthAdjust="spacing" textLength="105" x="536" y="110.1045">Get list of children</text><line style="stroke:#181818;stroke-width:1.0;" x1="810" x2="852" y1="145.3125" y2="145.3125"/><line style="stroke:#181818;stroke-width:1.0;" x1="852" x2="852" y1="145.3125" y2="158.3125"/><line style="stroke:#181818;stroke-width:1.0;" x1="811" x2="852" y1="158.3125" y2="158.3125"/><polygon fill="#181818" points="821,154.3125,811,158.3125,821,162.3125,817,158.3125" style="stroke:#181818;stroke-width:1.0;"/><text fill="#000000" font-family="sans-serif" font-size="13" font-weight="bold" lengthAdjust="spacing" textLength="7" x="817" y="140.4561">2</text><text fill="#000000" font-family="sans-serif" font-size="13" lengthAdjust="spacing" textLength="64" x="828" y="140.4561">Query data</text><polygon fill="#181818" points="529,214.6641,519,218.6641,529,222.6641,525,218.6641" style="stroke:#181818;stroke-width:1.0;"/><line style="stroke:#181818;stroke-width:1.0;stroke-dasharray:2.0,2.0;" x1="523" x2="799" y1="218.6641" y2="218.6641"/><text fill="#000000" font-family="sans-serif" font-size="13" font-weight="bold" lengthAdjust="spacing" textLength="7" x="535" y="213.8076">3</text><text fill="#000000" font-family="sans-serif" font-size="13" lengthAdjust="spacing" textLength="71" x="546" y="213.8076">Query result</text><polygon fill="#181818" points="284,245.0156,274,249.0156,284,253.0156,280,249.0156" style="stroke:#181818;stroke-width:1.0;"/><line style="stroke:#181818;stroke-width:1.0;stroke-dasharray:2.0,2.0;" x1="278" x2="512" y1="249.0156" y2="249.0156"/><text fill="#000000" font-family="sans-serif" font-size="13" font-weight="bold" lengthAdjust="spacing" textLength="7" x="290" y="244.1592">4</text><text fill="#000000" font-family="sans-serif" font-size="13" lengthAdjust="spacing" textLength="71" x="301" y="244.1592">Query result</text><line style="stroke:#181818;stroke-width:1.0;" x1="278" x2="320" y1="295.7188" y2="295.7188"/><line style="stroke:#181818;stroke-width:1.0;" x1="320" x2="320" y1="295.7188" y2="308.7188"/><line style="stroke:#181818;stroke-width:1.0;" x1="279" x2="320" y1="308.7188" y2="308.7188"/><polygon fill="#181818" points="289,304.7188,279,308.7188,289,312.7188,285,308.7188" style="stroke:#181818;stroke-width:1.0;"/><text fill="#000000" font-family="sans-serif" font-size="13" font-weight="bold" lengthAdjust="spacing" textLength="7" x="285" y="282.6865">5</text><text fill="#000000" font-family="sans-serif" font-size="13" lengthAdjust="spacing" textLength="70" x="296" y="274.5107">Display with</text><text fill="#000000" font-family="sans-serif" font-size="13" lengthAdjust="spacing" textLength="103" x="296" y="290.8623">empty information</text><polygon fill="#181818" points="251,365.0703,261,369.0703,251,373.0703,255,369.0703" style="stroke:#181818;stroke-width:1.0;"/><line style="stroke:#181818;stroke-width:1.0;" x1="49" x2="257" y1="369.0703" y2="369.0703"/><text fill="#000000" font-family="sans-serif" font-size="13" font-weight="bold" lengthAdjust="spacing" textLength="7" x="56" y="364.2139">6</text><text fill="#000000" font-family="sans-serif" font-size="13" lengthAdjust="spacing" textLength="169" x="67" y="364.2139">Enter prescription information</text><line style="stroke:#181818;stroke-width:1.0;" x1="278" x2="320" y1="399.4219" y2="399.4219"/><line style="stroke:#181818;stroke-width:1.0;" x1="320" x2="320" y1="399.4219" y2="412.4219"/><line style="stroke:#181818;stroke-width:1.0;" x1="279" x2="320" y1="412.4219" y2="412.4219"/><polygon fill="#181818" points="289,408.4219,279,412.4219,289,416.4219,285,412.4219" style="stroke:#181818;stroke-width:1.0;"/><text fill="#000000" font-family="sans-serif" font-size="13" font-weight="bold" lengthAdjust="spacing" textLength="7" x="285" y="394.5654">7</text><text fill="#000000" font-family="sans-serif" font-size="13" lengthAdjust="spacing" textLength="76" x="296" y="394.5654">Validate data</text><path d="M10,457.4219 L71,457.4219 L71,465.7734 L61,475.7734 L10,475.7734 L10,457.4219 " fill="#EEEEEE" style="stroke:#000000;stroke-width:1.5;"/><rect fill="none" height="722.2969" style="stroke:#000000;stroke-width:1.5;" width="795" x="10" y="457.4219"/><text fill="#000000" font-family="sans-serif" font-size="13" font-weight="bold" lengthAdjust="spacing" textLength="16" x="25" y="471.917">alt</text><text fill="#000000" font-family="sans-serif" font-size="11" font-weight="bold" lengthAdjust="spacing" textLength="69" x="86" y="470.8408">[Invalid data]</text><polygon fill="#181818" points="60,494.125,50,498.125,60,502.125,56,498.125" style="stroke:#181818;stroke-width:1.0;"/><line style="stroke:#181818;stroke-width:1.0;stroke-dasharray:2.0,2.0;" x1="54" x2="262" y1="498.125" y2="498.125"/><text fill="#000000" font-family="sans-serif" font-size="13" font-weight="bold" lengthAdjust="spacing" textLength="7" x="66" y="493.2686">8</text><text fill="#000000" font-family="sans-serif" font-size="13" lengthAdjust="spacing" textLength="94" x="77" y="493.2686">Error notification</text><line style="stroke:#181818;stroke-width:1.0;" x1="278" x2="320" y1="528.4766" y2="528.4766"/><line style="stroke:#181818;stroke-width:1.0;" x1="320" x2="320" y1="528.4766" y2="541.4766"/><line style="stroke:#181818;stroke-width:1.0;" x1="279" x2="320" y1="541.4766" y2="541.4766"/><polygon fill="#181818" points="289,537.4766,279,541.4766,289,545.4766,285,541.4766" style="stroke:#181818;stroke-width:1.0;"/><text fill="#000000" font-family="sans-serif" font-size="13" font-weight="bold" lengthAdjust="spacing" textLength="7" x="285" y="523.6201">9</text><text fill="#000000" font-family="sans-serif" font-size="13" lengthAdjust="spacing" textLength="139" x="296" y="523.6201">Display error notification</text><line style="stroke:#000000;stroke-width:1.0;stroke-dasharray:2.0,2.0;" x1="10" x2="805" y1="580.4766" y2="580.4766"/><text fill="#000000" font-family="sans-serif" font-size="11" font-weight="bold" lengthAdjust="spacing" textLength="61" x="15" y="591.8955">[Valid data]</text><polygon fill="#181818" points="251,613.6641,261,617.6641,251,621.6641,255,617.6641" style="stroke:#181818;stroke-width:1.0;"/><line style="stroke:#181818;stroke-width:1.0;" x1="44" x2="257" y1="617.6641" y2="617.6641"/><text fill="#000000" font-family="sans-serif" font-size="13" font-weight="bold" lengthAdjust="spacing" textLength="14" x="51" y="612.8076">10</text><text fill="#000000" font-family="sans-serif" font-size="13" lengthAdjust="spacing" textLength="172" x="69" y="612.8076">Click button "Save" to confirm</text><polygon fill="#181818" points="496,644.0156,506,648.0156,496,652.0156,500,648.0156" style="stroke:#181818;stroke-width:1.0;"/><line style="stroke:#181818;stroke-width:1.0;" x1="273" x2="502" y1="648.0156" y2="648.0156"/><text fill="#000000" font-family="sans-serif" font-size="13" font-weight="bold" lengthAdjust="spacing" textLength="14" x="280" y="643.1592">11</text><text fill="#000000" font-family="sans-serif" font-size="13" lengthAdjust="spacing" textLength="198" x="298" y="643.1592">Send creating prescription request</text><polygon fill="#181818" points="665,674.3672,675,678.3672,665,682.3672,669,678.3672" style="stroke:#181818;stroke-width:1.0;"/><line style="stroke:#181818;stroke-width:1.0;" x1="518" x2="671" y1="678.3672" y2="678.3672"/><text fill="#000000" font-family="sans-serif" font-size="13" font-weight="bold" lengthAdjust="spacing" textLength="14" x="525" y="673.5107">12</text><text fill="#000000" font-family="sans-serif" font-size="13" lengthAdjust="spacing" textLength="97" x="543" y="673.5107">Send information</text><line style="stroke:#181818;stroke-width:1.0;" x1="692" x2="734" y1="708.7188" y2="708.7188"/><line style="stroke:#181818;stroke-width:1.0;" x1="734" x2="734" y1="708.7188" y2="721.7188"/><line style="stroke:#181818;stroke-width:1.0;" x1="693" x2="734" y1="721.7188" y2="721.7188"/><polygon fill="#181818" points="703,717.7188,693,721.7188,703,725.7188,699,721.7188" style="stroke:#181818;stroke-width:1.0;"/><text fill="#000000" font-family="sans-serif" font-size="13" font-weight="bold" lengthAdjust="spacing" textLength="14" x="699" y="703.8623">13</text><text fill="#000000" font-family="sans-serif" font-size="13" lengthAdjust="spacing" textLength="76" x="717" y="703.8623">Validate data</text><path d="M68,766.7188 L129,766.7188 L129,775.0703 L119,785.0703 L68,785.0703 L68,766.7188 " fill="#EEEEEE" style="stroke:#000000;stroke-width:1.5;"/><rect fill="none" height="406" style="stroke:#000000;stroke-width:1.5;" width="721" x="68" y="766.7188"/><text fill="#000000" font-family="sans-serif" font-size="13" font-weight="bold" lengthAdjust="spacing" textLength="16" x="83" y="781.2139">alt</text><text fill="#000000" font-family="sans-serif" font-size="11" font-weight="bold" lengthAdjust="spacing" textLength="69" x="144" y="780.1377">[Invalid data]</text><polygon fill="#181818" points="529,803.4219,519,807.4219,529,811.4219,525,807.4219" style="stroke:#181818;stroke-width:1.0;"/><line style="stroke:#181818;stroke-width:1.0;stroke-dasharray:2.0,2.0;" x1="523" x2="676" y1="807.4219" y2="807.4219"/><text fill="#000000" font-family="sans-serif" font-size="13" font-weight="bold" lengthAdjust="spacing" textLength="14" x="535" y="802.5654">14</text><text fill="#000000" font-family="sans-serif" font-size="13" lengthAdjust="spacing" textLength="94" x="553" y="802.5654">Error notification</text><polygon fill="#181818" points="284,833.7734,274,837.7734,284,841.7734,280,837.7734" style="stroke:#181818;stroke-width:1.0;"/><line style="stroke:#181818;stroke-width:1.0;stroke-dasharray:2.0,2.0;" x1="278" x2="507" y1="837.7734" y2="837.7734"/><text fill="#000000" font-family="sans-serif" font-size="13" font-weight="bold" lengthAdjust="spacing" textLength="14" x="290" y="832.917">15</text><text fill="#000000" font-family="sans-serif" font-size="13" lengthAdjust="spacing" textLength="94" x="308" y="832.917">Error notification</text><line style="stroke:#181818;stroke-width:1.0;" x1="278" x2="320" y1="868.125" y2="868.125"/><line style="stroke:#181818;stroke-width:1.0;" x1="320" x2="320" y1="868.125" y2="881.125"/><line style="stroke:#181818;stroke-width:1.0;" x1="279" x2="320" y1="881.125" y2="881.125"/><polygon fill="#181818" points="289,877.125,279,881.125,289,885.125,285,881.125" style="stroke:#181818;stroke-width:1.0;"/><text fill="#000000" font-family="sans-serif" font-size="13" font-weight="bold" lengthAdjust="spacing" textLength="14" x="285" y="863.2686">16</text><text fill="#000000" font-family="sans-serif" font-size="13" lengthAdjust="spacing" textLength="139" x="303" y="863.2686">Display error notification</text><line style="stroke:#000000;stroke-width:1.0;stroke-dasharray:2.0,2.0;" x1="68" x2="789" y1="920.125" y2="920.125"/><text fill="#000000" font-family="sans-serif" font-size="11" font-weight="bold" lengthAdjust="spacing" textLength="61" x="73" y="931.5439">[Valid data]</text><line style="stroke:#181818;stroke-width:1.0;" x1="692" x2="734" y1="957.3125" y2="957.3125"/><line style="stroke:#181818;stroke-width:1.0;" x1="734" x2="734" y1="957.3125" y2="970.3125"/><line style="stroke:#181818;stroke-width:1.0;" x1="693" x2="734" y1="970.3125" y2="970.3125"/><polygon fill="#181818" points="703,966.3125,693,970.3125,703,974.3125,699,970.3125" style="stroke:#181818;stroke-width:1.0;"/><text fill="#000000" font-family="sans-serif" font-size="13" font-weight="bold" lengthAdjust="spacing" textLength="14" x="699" y="952.4561">17</text><text fill="#000000" font-family="sans-serif" font-size="13" lengthAdjust="spacing" textLength="60" x="717" y="952.4561">Store data</text><polygon fill="#181818" points="529,1026.6641,519,1030.6641,529,1034.6641,525,1030.6641" style="stroke:#181818;stroke-width:1.0;"/><line style="stroke:#181818;stroke-width:1.0;stroke-dasharray:2.0,2.0;" x1="523" x2="681" y1="1030.6641" y2="1030.6641"/><text fill="#000000" font-family="sans-serif" font-size="13" font-weight="bold" lengthAdjust="spacing" textLength="14" x="535" y="1025.8076">18</text><text fill="#000000" font-family="sans-serif" font-size="13" lengthAdjust="spacing" textLength="117" x="553" y="1025.8076">Success notification</text><polygon fill="#181818" points="284,1057.0156,274,1061.0156,284,1065.0156,280,1061.0156" style="stroke:#181818;stroke-width:1.0;"/><line style="stroke:#181818;stroke-width:1.0;stroke-dasharray:2.0,2.0;" x1="278" x2="507" y1="1061.0156" y2="1061.0156"/><text fill="#000000" font-family="sans-serif" font-size="13" font-weight="bold" lengthAdjust="spacing" textLength="14" x="290" y="1056.1592">19</text><text fill="#000000" font-family="sans-serif" font-size="13" lengthAdjust="spacing" textLength="117" x="308" y="1056.1592">Success notification</text><line style="stroke:#181818;stroke-width:1.0;" x1="273" x2="315" y1="1096.3672" y2="1096.3672"/><line style="stroke:#181818;stroke-width:1.0;" x1="315" x2="315" y1="1096.3672" y2="1109.3672"/><line style="stroke:#181818;stroke-width:1.0;" x1="268" x2="315" y1="1109.3672" y2="1109.3672"/><polygon fill="#181818" points="278,1105.3672,268,1109.3672,278,1113.3672,274,1109.3672" style="stroke:#181818;stroke-width:1.0;"/><text fill="#000000" font-family="sans-serif" font-size="13" font-weight="bold" lengthAdjust="spacing" textLength="14" x="280" y="1091.5107">20</text><text fill="#000000" font-family="sans-serif" font-size="13" lengthAdjust="spacing" textLength="61" x="298" y="1091.5107">Close view</text><polygon fill="#181818" points="152.5,1130.7188,142.5,1134.7188,152.5,1138.7188,148.5,1134.7188" style="stroke:#181818;stroke-width:1.0;"/><line style="stroke:#181818;stroke-width:1.0;" x1="146.5" x2="507" y1="1134.7188" y2="1134.7188"/><text fill="#000000" font-family="sans-serif" font-size="13" font-weight="bold" lengthAdjust="spacing" textLength="14" x="158.5" y="1129.8623">21</text><text fill="#000000" font-family="sans-serif" font-size="13" lengthAdjust="spacing" textLength="300" x="176.5" y="1129.8623">Display success notification and list of prescriptions</text><!--MD5=[828c803ace4c6d04bc06da09c9970c10]
@startuml CreatePrescriptionSeq
autonumber
hide footbox

actor Doctor
boundary "Prescription\nManagementView" as PrescriptionManagementView
boundary "Prescription\nInformationView" as PrescriptionInformationView
control "PrescriptionController" as PrescriptionController
entity PRESCRIPTION
entity CHILD

PrescriptionController -> CHILD: Get list of children 
activate PrescriptionController
activate CHILD
CHILD -> CHILD: Query data
activate CHILD
deactivate CHILD
CHILD - -> PrescriptionController: Query result
deactivate CHILD
PrescriptionController - -> PrescriptionInformationView: Query result
deactivate PrescriptionController
activate PrescriptionInformationView
PrescriptionInformationView -> PrescriptionInformationView: Display with \nempty information
activate PrescriptionInformationView
deactivate PrescriptionInformationView
Doctor -> PrescriptionInformationView: Enter prescription information  
activate Doctor
PrescriptionInformationView -> PrescriptionInformationView: Validate data
activate PrescriptionInformationView
deactivate PrescriptionInformationView
alt Invalid data
    PrescriptionInformationView - -> Doctor: Error notification
    PrescriptionInformationView -> PrescriptionInformationView: Display error notification
    activate PrescriptionInformationView
    deactivate PrescriptionInformationView
else Valid data
    Doctor -> PrescriptionInformationView: Click button "Save" to confirm
    deactivate Doctor
    PrescriptionInformationView -> PrescriptionController: Send creating prescription request
    activate PrescriptionController
    PrescriptionController -> PRESCRIPTION: Send information
    activate PRESCRIPTION
    PRESCRIPTION -> PRESCRIPTION: Validate data
    activate PRESCRIPTION
    deactivate PRESCRIPTION
    alt Invalid data
        PRESCRIPTION - -> PrescriptionController: Error notification
        PrescriptionController - -> PrescriptionInformationView: Error notification
        PrescriptionInformationView -> PrescriptionInformationView: Display error notification
        activate PrescriptionInformationView
        deactivate PrescriptionInformationView
    else Valid data
        PRESCRIPTION -> PRESCRIPTION: Store data
        activate PRESCRIPTION
        deactivate PRESCRIPTION
        PRESCRIPTION - -> PrescriptionController: Success notification
        deactivate PRESCRIPTION
        PrescriptionController - -> PrescriptionInformationView: Success notification
        PrescriptionInformationView -> PrescriptionInformationView: Close view
        deactivate PrescriptionInformationView
        PrescriptionController -> PrescriptionManagementView: Display success notification and list of prescriptions
        activate PrescriptionManagementView
        deactivate PrescriptionController
        deactivate PrescriptionManagementView
    end
end
@enduml

PlantUML version 1.2022.7(Tue Aug 23 00:01:30 ICT 2022)
(GPL source distribution)
Java Runtime: Java(TM) SE Runtime Environment
JVM: Java HotSpot(TM) 64-Bit Server VM
Default Encoding: Cp1252
Language: en
Country: US
--></g></svg>