<?xml version="1.0" encoding="UTF-8" standalone="no"?><svg xmlns="http://www.w3.org/2000/svg" xmlns:xlink="http://www.w3.org/1999/xlink" contentStyleType="text/css" height="457px" preserveAspectRatio="none" style="width:669px;height:457px;background:#FFFFFF;" version="1.1" viewBox="0 0 669 457" width="669px" zoomAndPan="magnify"><defs/><g><rect fill="#FFFFFF" height="30" style="stroke:#181818;stroke-width:1.0;" width="10" x="24" y="131.3125"/><rect fill="#FFFFFF" height="293.8125" style="stroke:#181818;stroke-width:1.0;" width="10" x="180" y="131.3125"/><rect fill="#FFFFFF" height="180.7578" style="stroke:#181818;stroke-width:1.0;" width="10" x="381" y="208.0156"/><rect fill="#FFFFFF" height="103.7031" style="stroke:#181818;stroke-width:1.0;" width="10" x="565" y="254.7188"/><rect fill="#FFFFFF" height="28" style="stroke:#181818;stroke-width:1.0;" width="10" x="570" y="293.0703"/><line style="stroke:#181818;stroke-width:0.5;stroke-dasharray:5.0,5.0;" x1="29" x2="29" y1="82.6094" y2="450.125"/><line style="stroke:#181818;stroke-width:0.5;stroke-dasharray:5.0,5.0;" x1="184.5" x2="184.5" y1="82.6094" y2="450.125"/><line style="stroke:#181818;stroke-width:0.5;stroke-dasharray:5.0,5.0;" x1="385.5" x2="385.5" y1="82.6094" y2="450.125"/><line style="stroke:#181818;stroke-width:0.5;stroke-dasharray:5.0,5.0;" x1="569.5" x2="569.5" y1="82.6094" y2="450.125"/><text fill="#000000" font-family="sans-serif" font-size="14" lengthAdjust="spacing" textLength="42" x="5" y="79.5332">Doctor</text><ellipse cx="29" cy="13.5" fill="#E2E2F0" rx="8" ry="8" style="stroke:#181818;stroke-width:0.5;"/><path d="M29,21.5 L29,48.5 M16,29.5 L42,29.5 M29,48.5 L16,63.5 M29,48.5 L42,63.5 " fill="none" style="stroke:#181818;stroke-width:0.5;"/><text fill="#000000" font-family="sans-serif" font-size="14" lengthAdjust="spacing" textLength="75" x="144.5" y="61.9238">Prescription</text><text fill="#000000" font-family="sans-serif" font-size="14" lengthAdjust="spacing" textLength="111" x="126.5" y="79.5332">ManagementView</text><path d="M164.5,19.3906 L164.5,43.3906 M164.5,31.3906 L181.5,31.3906 " fill="none" style="stroke:#181818;stroke-width:0.5;"/><ellipse cx="193.5" cy="31.3906" fill="#E2E2F0" rx="12" ry="12" style="stroke:#181818;stroke-width:0.5;"/><text fill="#000000" font-family="sans-serif" font-size="14" lengthAdjust="spacing" textLength="75" x="345.5" y="61.9238">Prescription</text><text fill="#000000" font-family="sans-serif" font-size="14" lengthAdjust="spacing" textLength="62" x="352" y="79.5332">Controller</text><ellipse cx="386" cy="31.3906" fill="#E2E2F0" rx="12" ry="12" style="stroke:#181818;stroke-width:0.5;"/><polygon fill="#181818" points="382,19.3906,388,14.3906,386,19.3906,388,24.3906,382,19.3906" style="stroke:#181818;stroke-width:1.0;"/><text fill="#000000" font-family="sans-serif" font-size="14" lengthAdjust="spacing" textLength="101" x="516.5" y="79.5332">PRESCRIPTION</text><ellipse cx="570" cy="49" fill="#E2E2F0" rx="12" ry="12" style="stroke:#181818;stroke-width:0.5;"/><line style="stroke:#181818;stroke-width:0.5;" x1="558" x2="582" y1="63" y2="63"/><rect fill="#FFFFFF" height="30" style="stroke:#181818;stroke-width:1.0;" width="10" x="24" y="131.3125"/><rect fill="#FFFFFF" height="293.8125" style="stroke:#181818;stroke-width:1.0;" width="10" x="180" y="131.3125"/><rect fill="#FFFFFF" height="180.7578" style="stroke:#181818;stroke-width:1.0;" width="10" x="381" y="208.0156"/><rect fill="#FFFFFF" height="103.7031" style="stroke:#181818;stroke-width:1.0;" width="10" x="565" y="254.7188"/><rect fill="#FFFFFF" height="28" style="stroke:#181818;stroke-width:1.0;" width="10" x="570" y="293.0703"/><polygon fill="#181818" points="168,127.3125,178,131.3125,168,135.3125,172,131.3125" style="stroke:#181818;stroke-width:1.0;"/><line style="stroke:#181818;stroke-width:1.0;" x1="34" x2="174" y1="131.3125" y2="131.3125"/><text fill="#000000" font-family="sans-serif" font-size="13" font-weight="bold" lengthAdjust="spacing" textLength="7" x="41" y="118.2803">1</text><text fill="#000000" font-family="sans-serif" font-size="13" lengthAdjust="spacing" textLength="103" x="52" y="110.1045">Enters the search</text><text fill="#000000" font-family="sans-serif" font-size="13" lengthAdjust="spacing" textLength="121" x="52" y="126.4561">criteria in search box</text><polygon fill="#181818" points="369,204.0156,379,208.0156,369,212.0156,373,208.0156" style="stroke:#181818;stroke-width:1.0;"/><line style="stroke:#181818;stroke-width:1.0;" x1="190" x2="375" y1="208.0156" y2="208.0156"/><text fill="#000000" font-family="sans-serif" font-size="13" font-weight="bold" lengthAdjust="spacing" textLength="7" x="197" y="194.9834">2</text><text fill="#000000" font-family="sans-serif" font-size="13" lengthAdjust="spacing" textLength="161" x="208" y="186.8076">Send searching prescription</text><text fill="#000000" font-family="sans-serif" font-size="13" lengthAdjust="spacing" textLength="110" x="208" y="203.1592">information request</text><polygon fill="#181818" points="553,250.7188,563,254.7188,553,258.7188,557,254.7188" style="stroke:#181818;stroke-width:1.0;"/><line style="stroke:#181818;stroke-width:1.0;" x1="391" x2="559" y1="254.7188" y2="254.7188"/><text fill="#000000" font-family="sans-serif" font-size="13" font-weight="bold" lengthAdjust="spacing" textLength="7" x="398" y="241.6865">3</text><text fill="#000000" font-family="sans-serif" font-size="13" lengthAdjust="spacing" textLength="144" x="409" y="233.5107">Search prescription base</text><text fill="#000000" font-family="sans-serif" font-size="13" lengthAdjust="spacing" textLength="106" x="409" y="249.8623">on given keywords</text><line style="stroke:#181818;stroke-width:1.0;" x1="580" x2="622" y1="285.0703" y2="285.0703"/><line style="stroke:#181818;stroke-width:1.0;" x1="622" x2="622" y1="285.0703" y2="298.0703"/><line style="stroke:#181818;stroke-width:1.0;" x1="581" x2="622" y1="298.0703" y2="298.0703"/><polygon fill="#181818" points="591,294.0703,581,298.0703,591,302.0703,587,298.0703" style="stroke:#181818;stroke-width:1.0;"/><text fill="#000000" font-family="sans-serif" font-size="13" font-weight="bold" lengthAdjust="spacing" textLength="7" x="587" y="280.2139">4</text><text fill="#000000" font-family="sans-serif" font-size="13" lengthAdjust="spacing" textLength="64" x="598" y="280.2139">Query data</text><polygon fill="#181818" points="402,354.4219,392,358.4219,402,362.4219,398,358.4219" style="stroke:#181818;stroke-width:1.0;"/><line style="stroke:#181818;stroke-width:1.0;stroke-dasharray:2.0,2.0;" x1="396" x2="569" y1="358.4219" y2="358.4219"/><text fill="#000000" font-family="sans-serif" font-size="13" font-weight="bold" lengthAdjust="spacing" textLength="7" x="408" y="353.5654">5</text><text fill="#000000" font-family="sans-serif" font-size="13" lengthAdjust="spacing" textLength="71" x="419" y="353.5654">Query result</text><polygon fill="#181818" points="201,384.7734,191,388.7734,201,392.7734,197,388.7734" style="stroke:#181818;stroke-width:1.0;"/><line style="stroke:#181818;stroke-width:1.0;stroke-dasharray:2.0,2.0;" x1="195" x2="385" y1="388.7734" y2="388.7734"/><text fill="#000000" font-family="sans-serif" font-size="13" font-weight="bold" lengthAdjust="spacing" textLength="7" x="207" y="383.917">6</text><text fill="#000000" font-family="sans-serif" font-size="13" lengthAdjust="spacing" textLength="71" x="218" y="383.917">Query result</text><line style="stroke:#181818;stroke-width:1.0;" x1="190" x2="232" y1="424.125" y2="424.125"/><line style="stroke:#181818;stroke-width:1.0;" x1="232" x2="232" y1="424.125" y2="437.125"/><line style="stroke:#181818;stroke-width:1.0;" x1="185" x2="232" y1="437.125" y2="437.125"/><polygon fill="#181818" points="195,433.125,185,437.125,195,441.125,191,437.125" style="stroke:#181818;stroke-width:1.0;"/><text fill="#000000" font-family="sans-serif" font-size="13" font-weight="bold" lengthAdjust="spacing" textLength="7" x="197" y="419.2686">7</text><text fill="#000000" font-family="sans-serif" font-size="13" lengthAdjust="spacing" textLength="156" x="208" y="419.2686">Display list of prescriptions</text><!--MD5=[7b5736b60e3ec4bef7b5159234b3bfb5]
@startuml SearchPrescriptionSeq
autonumber
hide footbox

actor Doctor
boundary "Prescription\nManagementView" as PrescriptionManagementView
control "Prescription\nController" as PrescriptionController
entity PRESCRIPTION

Doctor -> PrescriptionManagementView: Enters the search\ncriteria in search box
activate Doctor
activate PrescriptionManagementView
deactivate Doctor
PrescriptionManagementView -> PrescriptionController: Send searching prescription\ninformation request
activate PrescriptionController
PrescriptionController -> PRESCRIPTION: Search prescription base\non given keywords
activate PRESCRIPTION
PRESCRIPTION -> PRESCRIPTION: Query data
activate PRESCRIPTION
deactivate PRESCRIPTION
PRESCRIPTION - -> PrescriptionController: Query result
deactivate PRESCRIPTION
PrescriptionController - -> PrescriptionManagementView: Query result
deactivate PrescriptionController
PrescriptionManagementView -> PrescriptionManagementView: Display list of prescriptions
deactivate PrescriptionManagementView
@enduml

PlantUML version 1.2022.7(Tue Aug 23 00:01:30 ICT 2022)
(GPL source distribution)
Java Runtime: Java(TM) SE Runtime Environment
JVM: Java HotSpot(TM) 64-Bit Server VM
Default Encoding: Cp1252
Language: en
Country: US
--></g></svg>