<?xml version="1.0" encoding="UTF-8" standalone="no"?><svg xmlns="http://www.w3.org/2000/svg" xmlns:xlink="http://www.w3.org/1999/xlink" contentStyleType="text/css" height="1404px" preserveAspectRatio="none" style="width:1025px;height:1404px;background:#FFFFFF;" version="1.1" viewBox="0 0 1025 1404" width="1025px" zoomAndPan="magnify"><defs/><g><rect fill="#FFFFFF" height="638.1094" style="stroke:#181818;stroke-width:1.0;" width="10" x="39" y="210.1094"/><rect fill="#FFFFFF" height="1155.1641" style="stroke:#181818;stroke-width:1.0;" width="10" x="182" y="210.1094"/><rect fill="#FFFFFF" height="996.4063" style="stroke:#181818;stroke-width:1.0;" width="10" x="303" y="331.5156"/><rect fill="#FFFFFF" height="28" style="stroke:#181818;stroke-width:1.0;" width="10" x="308" y="534.2734"/><rect fill="#FFFFFF" height="28" style="stroke:#181818;stroke-width:1.0;" width="10" x="308" y="637.9766"/><rect fill="#FFFFFF" height="28" style="stroke:#181818;stroke-width:1.0;" width="10" x="308" y="767.0313"/><rect fill="#FFFFFF" height="28" style="stroke:#181818;stroke-width:1.0;" width="10" x="308" y="1106.6797"/><rect fill="#FFFFFF" height="91.0547" style="stroke:#181818;stroke-width:1.0;" width="10" x="551" y="240.4609"/><rect fill="#FFFFFF" height="134.0547" style="stroke:#181818;stroke-width:1.0;" width="10" x="551" y="361.8672"/><rect fill="#FFFFFF" height="486.7031" style="stroke:#181818;stroke-width:1.0;" width="10" x="551" y="878.5703"/><rect fill="#FFFFFF" height="30.3516" style="stroke:#181818;stroke-width:1.0;" width="10" x="803" y="270.8125"/><rect fill="#FFFFFF" height="352.2969" style="stroke:#181818;stroke-width:1.0;" width="10" x="803" y="908.9219"/><rect fill="#FFFFFF" height="28" style="stroke:#181818;stroke-width:1.0;" width="10" x="808" y="947.2734"/><rect fill="#FFFFFF" height="28" style="stroke:#181818;stroke-width:1.0;" width="10" x="808" y="1195.8672"/><rect fill="#FFFFFF" height="103.7031" style="stroke:#181818;stroke-width:1.0;" width="10" x="921" y="361.8672"/><rect fill="#FFFFFF" height="28" style="stroke:#181818;stroke-width:1.0;" width="10" x="926" y="400.2188"/><rect fill="none" height="64.7969" style="stroke:#000000;stroke-width:1.5;" width="949" x="10" y="99.6094"/><rect fill="none" height="692.2969" style="stroke:#000000;stroke-width:1.5;" width="921" x="10" y="687.9766"/><rect fill="none" height="376" style="stroke:#000000;stroke-width:1.5;" width="796.5" x="118.5" y="997.2734"/><line style="stroke:#181818;stroke-width:0.5;stroke-dasharray:5.0,5.0;" x1="44" x2="44" y1="82.6094" y2="1397.2734"/><line style="stroke:#181818;stroke-width:0.5;stroke-dasharray:5.0,5.0;" x1="186.5" x2="186.5" y1="82.6094" y2="1397.2734"/><line style="stroke:#181818;stroke-width:0.5;stroke-dasharray:5.0,5.0;" x1="307.5" x2="307.5" y1="82.6094" y2="1397.2734"/><line style="stroke:#181818;stroke-width:0.5;stroke-dasharray:5.0,5.0;" x1="555.5" x2="555.5" y1="82.6094" y2="1397.2734"/><line style="stroke:#181818;stroke-width:0.5;stroke-dasharray:5.0,5.0;" x1="807.5" x2="807.5" y1="82.6094" y2="1397.2734"/><line style="stroke:#181818;stroke-width:0.5;stroke-dasharray:5.0,5.0;" x1="926" x2="926" y1="82.6094" y2="1397.2734"/><text fill="#000000" font-family="sans-serif" font-size="14" lengthAdjust="spacing" textLength="42" x="20" y="79.5332">Doctor</text><ellipse cx="44" cy="13.5" fill="#E2E2F0" rx="8" ry="8" style="stroke:#181818;stroke-width:0.5;"/><path d="M44,21.5 L44,48.5 M31,29.5 L57,29.5 M44,48.5 L31,63.5 M44,48.5 L57,63.5 " fill="none" style="stroke:#181818;stroke-width:0.5;"/><text fill="#000000" font-family="sans-serif" font-size="14" lengthAdjust="spacing" textLength="75" x="146.5" y="61.9238">Prescription</text><text fill="#000000" font-family="sans-serif" font-size="14" lengthAdjust="spacing" textLength="111" x="128.5" y="79.5332">ManagementView</text><path d="M166.5,19.3906 L166.5,43.3906 M166.5,31.3906 L183.5,31.3906 " fill="none" style="stroke:#181818;stroke-width:0.5;"/><ellipse cx="195.5" cy="31.3906" fill="#E2E2F0" rx="12" ry="12" style="stroke:#181818;stroke-width:0.5;"/><text fill="#000000" font-family="sans-serif" font-size="14" lengthAdjust="spacing" textLength="75" x="267.5" y="61.9238">Prescription</text><text fill="#000000" font-family="sans-serif" font-size="14" lengthAdjust="spacing" textLength="99" x="255.5" y="79.5332">InformationView</text><path d="M287.5,19.3906 L287.5,43.3906 M287.5,31.3906 L304.5,31.3906 " fill="none" style="stroke:#181818;stroke-width:0.5;"/><ellipse cx="316.5" cy="31.3906" fill="#E2E2F0" rx="12" ry="12" style="stroke:#181818;stroke-width:0.5;"/><text fill="#000000" font-family="sans-serif" font-size="14" lengthAdjust="spacing" textLength="75" x="515.5" y="61.9238">Prescription</text><text fill="#000000" font-family="sans-serif" font-size="14" lengthAdjust="spacing" textLength="62" x="522" y="79.5332">Controller</text><ellipse cx="556" cy="31.3906" fill="#E2E2F0" rx="12" ry="12" style="stroke:#181818;stroke-width:0.5;"/><polygon fill="#181818" points="552,19.3906,558,14.3906,556,19.3906,558,24.3906,552,19.3906" style="stroke:#181818;stroke-width:1.0;"/><text fill="#000000" font-family="sans-serif" font-size="14" lengthAdjust="spacing" textLength="101" x="754.5" y="79.5332">PRESCRIPTION</text><ellipse cx="808" cy="49" fill="#E2E2F0" rx="12" ry="12" style="stroke:#181818;stroke-width:0.5;"/><line style="stroke:#181818;stroke-width:0.5;" x1="796" x2="820" y1="63" y2="63"/><text fill="#000000" font-family="sans-serif" font-size="14" lengthAdjust="spacing" textLength="40" x="903" y="79.5332">CHILD</text><ellipse cx="926" cy="49" fill="#E2E2F0" rx="12" ry="12" style="stroke:#181818;stroke-width:0.5;"/><line style="stroke:#181818;stroke-width:0.5;" x1="914" x2="938" y1="63" y2="63"/><rect fill="#FFFFFF" height="638.1094" style="stroke:#181818;stroke-width:1.0;" width="10" x="39" y="210.1094"/><rect fill="#FFFFFF" height="1155.1641" style="stroke:#181818;stroke-width:1.0;" width="10" x="182" y="210.1094"/><rect fill="#FFFFFF" height="996.4063" style="stroke:#181818;stroke-width:1.0;" width="10" x="303" y="331.5156"/><rect fill="#FFFFFF" height="28" style="stroke:#181818;stroke-width:1.0;" width="10" x="308" y="534.2734"/><rect fill="#FFFFFF" height="28" style="stroke:#181818;stroke-width:1.0;" width="10" x="308" y="637.9766"/><rect fill="#FFFFFF" height="28" style="stroke:#181818;stroke-width:1.0;" width="10" x="308" y="767.0313"/><rect fill="#FFFFFF" height="28" style="stroke:#181818;stroke-width:1.0;" width="10" x="308" y="1106.6797"/><rect fill="#FFFFFF" height="91.0547" style="stroke:#181818;stroke-width:1.0;" width="10" x="551" y="240.4609"/><rect fill="#FFFFFF" height="134.0547" style="stroke:#181818;stroke-width:1.0;" width="10" x="551" y="361.8672"/><rect fill="#FFFFFF" height="486.7031" style="stroke:#181818;stroke-width:1.0;" width="10" x="551" y="878.5703"/><rect fill="#FFFFFF" height="30.3516" style="stroke:#181818;stroke-width:1.0;" width="10" x="803" y="270.8125"/><rect fill="#FFFFFF" height="352.2969" style="stroke:#181818;stroke-width:1.0;" width="10" x="803" y="908.9219"/><rect fill="#FFFFFF" height="28" style="stroke:#181818;stroke-width:1.0;" width="10" x="808" y="947.2734"/><rect fill="#FFFFFF" height="28" style="stroke:#181818;stroke-width:1.0;" width="10" x="808" y="1195.8672"/><rect fill="#FFFFFF" height="103.7031" style="stroke:#181818;stroke-width:1.0;" width="10" x="921" y="361.8672"/><rect fill="#FFFFFF" height="28" style="stroke:#181818;stroke-width:1.0;" width="10" x="926" y="400.2188"/><path d="M10,99.6094 L75,99.6094 L75,107.9609 L65,117.9609 L10,117.9609 L10,99.6094 " fill="#EEEEEE" style="stroke:#000000;stroke-width:1.5;"/><rect fill="none" height="64.7969" style="stroke:#000000;stroke-width:1.5;" width="949" x="10" y="99.6094"/><text fill="#000000" font-family="sans-serif" font-size="13" font-weight="bold" lengthAdjust="spacing" textLength="20" x="25" y="114.1045">opt</text><text fill="#000000" font-family="sans-serif" font-size="11" font-weight="bold" lengthAdjust="spacing" textLength="46" x="90" y="113.0283">[Search]</text><rect fill="none" height="41.4453" style="stroke:#000000;stroke-width:1.5;" width="935" x="17" y="117.9609"/><path d="M17,117.9609 L79,117.9609 L79,125.9609 L69,135.9609 L17,135.9609 L17,117.9609 " fill="#EEEEEE" style="stroke:#000000;stroke-width:2.0;"/><text fill="#000000" font-family="sans-serif" font-size="13" font-weight="bold" lengthAdjust="spacing" textLength="17" x="30" y="133.4561">ref</text><text fill="#000000" font-family="sans-serif" font-size="12" lengthAdjust="spacing" textLength="167" x="401" y="152.418">Sequence Search Prescription</text><polygon fill="#181818" points="170,206.1094,180,210.1094,170,214.1094,174,210.1094" style="stroke:#181818;stroke-width:1.0;"/><line style="stroke:#181818;stroke-width:1.0;" x1="49" x2="176" y1="210.1094" y2="210.1094"/><text fill="#000000" font-family="sans-serif" font-size="13" font-weight="bold" lengthAdjust="spacing" textLength="7" x="56" y="197.0771">1</text><text fill="#000000" font-family="sans-serif" font-size="13" lengthAdjust="spacing" textLength="108" x="67" y="188.9014">Select prescription</text><text fill="#000000" font-family="sans-serif" font-size="13" lengthAdjust="spacing" textLength="88" x="71" y="205.2529">needs updating</text><polygon fill="#181818" points="539,236.4609,549,240.4609,539,244.4609,543,240.4609" style="stroke:#181818;stroke-width:1.0;"/><line style="stroke:#181818;stroke-width:1.0;" x1="192" x2="545" y1="240.4609" y2="240.4609"/><text fill="#000000" font-family="sans-serif" font-size="13" font-weight="bold" lengthAdjust="spacing" textLength="7" x="199" y="235.6045">2</text><text fill="#000000" font-family="sans-serif" font-size="13" lengthAdjust="spacing" textLength="212" x="210" y="235.6045">Get selected prescription information</text><polygon fill="#181818" points="791,266.8125,801,270.8125,791,274.8125,795,270.8125" style="stroke:#181818;stroke-width:1.0;"/><line style="stroke:#181818;stroke-width:1.0;" x1="561" x2="797" y1="270.8125" y2="270.8125"/><text fill="#000000" font-family="sans-serif" font-size="13" font-weight="bold" lengthAdjust="spacing" textLength="7" x="568" y="265.9561">3</text><text fill="#000000" font-family="sans-serif" font-size="13" lengthAdjust="spacing" textLength="212" x="579" y="265.9561">Get selected prescription information</text><polygon fill="#181818" points="572,297.1641,562,301.1641,572,305.1641,568,301.1641" style="stroke:#181818;stroke-width:1.0;"/><line style="stroke:#181818;stroke-width:1.0;stroke-dasharray:2.0,2.0;" x1="566" x2="807" y1="301.1641" y2="301.1641"/><text fill="#000000" font-family="sans-serif" font-size="13" font-weight="bold" lengthAdjust="spacing" textLength="7" x="578" y="296.3076">4</text><text fill="#000000" font-family="sans-serif" font-size="13" lengthAdjust="spacing" textLength="189" x="589" y="296.3076">Selected prescription information</text><polygon fill="#181818" points="324,327.5156,314,331.5156,324,335.5156,320,331.5156" style="stroke:#181818;stroke-width:1.0;"/><line style="stroke:#181818;stroke-width:1.0;stroke-dasharray:2.0,2.0;" x1="318" x2="555" y1="331.5156" y2="331.5156"/><text fill="#000000" font-family="sans-serif" font-size="13" font-weight="bold" lengthAdjust="spacing" textLength="7" x="330" y="326.6592">5</text><text fill="#000000" font-family="sans-serif" font-size="13" lengthAdjust="spacing" textLength="189" x="341" y="326.6592">Selected prescription information</text><polygon fill="#181818" points="909,357.8672,919,361.8672,909,365.8672,913,361.8672" style="stroke:#181818;stroke-width:1.0;"/><line style="stroke:#181818;stroke-width:1.0;" x1="561" x2="915" y1="361.8672" y2="361.8672"/><text fill="#000000" font-family="sans-serif" font-size="13" font-weight="bold" lengthAdjust="spacing" textLength="7" x="568" y="357.0107">6</text><text fill="#000000" font-family="sans-serif" font-size="13" lengthAdjust="spacing" textLength="105" x="579" y="357.0107">Get list of children</text><line style="stroke:#181818;stroke-width:1.0;" x1="936" x2="978" y1="392.2188" y2="392.2188"/><line style="stroke:#181818;stroke-width:1.0;" x1="978" x2="978" y1="392.2188" y2="405.2188"/><line style="stroke:#181818;stroke-width:1.0;" x1="937" x2="978" y1="405.2188" y2="405.2188"/><polygon fill="#181818" points="947,401.2188,937,405.2188,947,409.2188,943,405.2188" style="stroke:#181818;stroke-width:1.0;"/><text fill="#000000" font-family="sans-serif" font-size="13" font-weight="bold" lengthAdjust="spacing" textLength="7" x="943" y="387.3623">7</text><text fill="#000000" font-family="sans-serif" font-size="13" lengthAdjust="spacing" textLength="64" x="954" y="387.3623">Query data</text><polygon fill="#181818" points="572,461.5703,562,465.5703,572,469.5703,568,465.5703" style="stroke:#181818;stroke-width:1.0;"/><line style="stroke:#181818;stroke-width:1.0;stroke-dasharray:2.0,2.0;" x1="566" x2="925" y1="465.5703" y2="465.5703"/><text fill="#000000" font-family="sans-serif" font-size="13" font-weight="bold" lengthAdjust="spacing" textLength="7" x="578" y="460.7139">8</text><text fill="#000000" font-family="sans-serif" font-size="13" lengthAdjust="spacing" textLength="71" x="589" y="460.7139">Query result</text><polygon fill="#181818" points="324,491.9219,314,495.9219,324,499.9219,320,495.9219" style="stroke:#181818;stroke-width:1.0;"/><line style="stroke:#181818;stroke-width:1.0;stroke-dasharray:2.0,2.0;" x1="318" x2="555" y1="495.9219" y2="495.9219"/><text fill="#000000" font-family="sans-serif" font-size="13" font-weight="bold" lengthAdjust="spacing" textLength="7" x="330" y="491.0654">9</text><text fill="#000000" font-family="sans-serif" font-size="13" lengthAdjust="spacing" textLength="71" x="341" y="491.0654">Query result</text><line style="stroke:#181818;stroke-width:1.0;" x1="318" x2="360" y1="526.2734" y2="526.2734"/><line style="stroke:#181818;stroke-width:1.0;" x1="360" x2="360" y1="526.2734" y2="539.2734"/><line style="stroke:#181818;stroke-width:1.0;" x1="319" x2="360" y1="539.2734" y2="539.2734"/><polygon fill="#181818" points="329,535.2734,319,539.2734,329,543.2734,325,539.2734" style="stroke:#181818;stroke-width:1.0;"/><text fill="#000000" font-family="sans-serif" font-size="13" font-weight="bold" lengthAdjust="spacing" textLength="14" x="325" y="521.417">10</text><text fill="#000000" font-family="sans-serif" font-size="13" lengthAdjust="spacing" textLength="181" x="343" y="521.417">Display prescription information</text><polygon fill="#181818" points="291,595.625,301,599.625,291,603.625,295,599.625" style="stroke:#181818;stroke-width:1.0;"/><line style="stroke:#181818;stroke-width:1.0;" x1="49" x2="297" y1="599.625" y2="599.625"/><text fill="#000000" font-family="sans-serif" font-size="13" font-weight="bold" lengthAdjust="spacing" textLength="14" x="56" y="594.7686">11</text><text fill="#000000" font-family="sans-serif" font-size="13" lengthAdjust="spacing" textLength="169" x="74" y="594.7686">Enter prescription information</text><line style="stroke:#181818;stroke-width:1.0;" x1="318" x2="360" y1="629.9766" y2="629.9766"/><line style="stroke:#181818;stroke-width:1.0;" x1="360" x2="360" y1="629.9766" y2="642.9766"/><line style="stroke:#181818;stroke-width:1.0;" x1="319" x2="360" y1="642.9766" y2="642.9766"/><polygon fill="#181818" points="329,638.9766,319,642.9766,329,646.9766,325,642.9766" style="stroke:#181818;stroke-width:1.0;"/><text fill="#000000" font-family="sans-serif" font-size="13" font-weight="bold" lengthAdjust="spacing" textLength="14" x="325" y="625.1201">12</text><text fill="#000000" font-family="sans-serif" font-size="13" lengthAdjust="spacing" textLength="76" x="343" y="625.1201">Validate data</text><path d="M10,687.9766 L71,687.9766 L71,696.3281 L61,706.3281 L10,706.3281 L10,687.9766 " fill="#EEEEEE" style="stroke:#000000;stroke-width:1.5;"/><rect fill="none" height="692.2969" style="stroke:#000000;stroke-width:1.5;" width="921" x="10" y="687.9766"/><text fill="#000000" font-family="sans-serif" font-size="13" font-weight="bold" lengthAdjust="spacing" textLength="16" x="25" y="702.4717">alt</text><text fill="#000000" font-family="sans-serif" font-size="11" font-weight="bold" lengthAdjust="spacing" textLength="69" x="86" y="701.3955">[Invalid data]</text><polygon fill="#181818" points="60,724.6797,50,728.6797,60,732.6797,56,728.6797" style="stroke:#181818;stroke-width:1.0;"/><line style="stroke:#181818;stroke-width:1.0;stroke-dasharray:2.0,2.0;" x1="54" x2="302" y1="728.6797" y2="728.6797"/><text fill="#000000" font-family="sans-serif" font-size="13" font-weight="bold" lengthAdjust="spacing" textLength="14" x="66" y="723.8232">13</text><text fill="#000000" font-family="sans-serif" font-size="13" lengthAdjust="spacing" textLength="94" x="84" y="723.8232">Error notification</text><line style="stroke:#181818;stroke-width:1.0;" x1="318" x2="360" y1="759.0313" y2="759.0313"/><line style="stroke:#181818;stroke-width:1.0;" x1="360" x2="360" y1="759.0313" y2="772.0313"/><line style="stroke:#181818;stroke-width:1.0;" x1="319" x2="360" y1="772.0313" y2="772.0313"/><polygon fill="#181818" points="329,768.0313,319,772.0313,329,776.0313,325,772.0313" style="stroke:#181818;stroke-width:1.0;"/><text fill="#000000" font-family="sans-serif" font-size="13" font-weight="bold" lengthAdjust="spacing" textLength="14" x="325" y="754.1748">14</text><text fill="#000000" font-family="sans-serif" font-size="13" lengthAdjust="spacing" textLength="139" x="343" y="754.1748">Display error notification</text><line style="stroke:#000000;stroke-width:1.0;stroke-dasharray:2.0,2.0;" x1="10" x2="931" y1="811.0313" y2="811.0313"/><text fill="#000000" font-family="sans-serif" font-size="11" font-weight="bold" lengthAdjust="spacing" textLength="61" x="15" y="822.4502">[Valid data]</text><polygon fill="#181818" points="291,844.2188,301,848.2188,291,852.2188,295,848.2188" style="stroke:#181818;stroke-width:1.0;"/><line style="stroke:#181818;stroke-width:1.0;" x1="44" x2="297" y1="848.2188" y2="848.2188"/><text fill="#000000" font-family="sans-serif" font-size="13" font-weight="bold" lengthAdjust="spacing" textLength="14" x="51" y="843.3623">15</text><text fill="#000000" font-family="sans-serif" font-size="13" lengthAdjust="spacing" textLength="172" x="69" y="843.3623">Click button "Save" to confirm</text><polygon fill="#181818" points="539,874.5703,549,878.5703,539,882.5703,543,878.5703" style="stroke:#181818;stroke-width:1.0;"/><line style="stroke:#181818;stroke-width:1.0;" x1="313" x2="545" y1="878.5703" y2="878.5703"/><text fill="#000000" font-family="sans-serif" font-size="13" font-weight="bold" lengthAdjust="spacing" textLength="14" x="320" y="873.7139">16</text><text fill="#000000" font-family="sans-serif" font-size="13" lengthAdjust="spacing" textLength="201" x="338" y="873.7139">Send updating prescription request</text><polygon fill="#181818" points="791,904.9219,801,908.9219,791,912.9219,795,908.9219" style="stroke:#181818;stroke-width:1.0;"/><line style="stroke:#181818;stroke-width:1.0;" x1="561" x2="797" y1="908.9219" y2="908.9219"/><text fill="#000000" font-family="sans-serif" font-size="13" font-weight="bold" lengthAdjust="spacing" textLength="14" x="568" y="904.0654">17</text><text fill="#000000" font-family="sans-serif" font-size="13" lengthAdjust="spacing" textLength="97" x="586" y="904.0654">Send information</text><line style="stroke:#181818;stroke-width:1.0;" x1="818" x2="860" y1="939.2734" y2="939.2734"/><line style="stroke:#181818;stroke-width:1.0;" x1="860" x2="860" y1="939.2734" y2="952.2734"/><line style="stroke:#181818;stroke-width:1.0;" x1="819" x2="860" y1="952.2734" y2="952.2734"/><polygon fill="#181818" points="829,948.2734,819,952.2734,829,956.2734,825,952.2734" style="stroke:#181818;stroke-width:1.0;"/><text fill="#000000" font-family="sans-serif" font-size="13" font-weight="bold" lengthAdjust="spacing" textLength="14" x="825" y="934.417">18</text><text fill="#000000" font-family="sans-serif" font-size="13" lengthAdjust="spacing" textLength="76" x="843" y="934.417">Validate data</text><path d="M118.5,997.2734 L179.5,997.2734 L179.5,1005.625 L169.5,1015.625 L118.5,1015.625 L118.5,997.2734 " fill="#EEEEEE" style="stroke:#000000;stroke-width:1.5;"/><rect fill="none" height="376" style="stroke:#000000;stroke-width:1.5;" width="796.5" x="118.5" y="997.2734"/><text fill="#000000" font-family="sans-serif" font-size="13" font-weight="bold" lengthAdjust="spacing" textLength="16" x="133.5" y="1011.7686">alt</text><text fill="#000000" font-family="sans-serif" font-size="11" font-weight="bold" lengthAdjust="spacing" textLength="69" x="194.5" y="1010.6924">[Invalid data]</text><polygon fill="#181818" points="572,1033.9766,562,1037.9766,572,1041.9766,568,1037.9766" style="stroke:#181818;stroke-width:1.0;"/><line style="stroke:#181818;stroke-width:1.0;stroke-dasharray:2.0,2.0;" x1="566" x2="802" y1="1037.9766" y2="1037.9766"/><text fill="#000000" font-family="sans-serif" font-size="13" font-weight="bold" lengthAdjust="spacing" textLength="14" x="578" y="1033.1201">19</text><text fill="#000000" font-family="sans-serif" font-size="13" lengthAdjust="spacing" textLength="94" x="596" y="1033.1201">Error notification</text><polygon fill="#181818" points="324,1064.3281,314,1068.3281,324,1072.3281,320,1068.3281" style="stroke:#181818;stroke-width:1.0;"/><line style="stroke:#181818;stroke-width:1.0;stroke-dasharray:2.0,2.0;" x1="318" x2="550" y1="1068.3281" y2="1068.3281"/><text fill="#000000" font-family="sans-serif" font-size="13" font-weight="bold" lengthAdjust="spacing" textLength="14" x="330" y="1063.4717">20</text><text fill="#000000" font-family="sans-serif" font-size="13" lengthAdjust="spacing" textLength="94" x="348" y="1063.4717">Error notification</text><line style="stroke:#181818;stroke-width:1.0;" x1="318" x2="360" y1="1098.6797" y2="1098.6797"/><line style="stroke:#181818;stroke-width:1.0;" x1="360" x2="360" y1="1098.6797" y2="1111.6797"/><line style="stroke:#181818;stroke-width:1.0;" x1="319" x2="360" y1="1111.6797" y2="1111.6797"/><polygon fill="#181818" points="329,1107.6797,319,1111.6797,329,1115.6797,325,1111.6797" style="stroke:#181818;stroke-width:1.0;"/><text fill="#000000" font-family="sans-serif" font-size="13" font-weight="bold" lengthAdjust="spacing" textLength="14" x="325" y="1093.8232">21</text><text fill="#000000" font-family="sans-serif" font-size="13" lengthAdjust="spacing" textLength="139" x="343" y="1093.8232">Display error notification</text><line style="stroke:#000000;stroke-width:1.0;stroke-dasharray:2.0,2.0;" x1="118.5" x2="915" y1="1150.6797" y2="1150.6797"/><text fill="#000000" font-family="sans-serif" font-size="11" font-weight="bold" lengthAdjust="spacing" textLength="61" x="123.5" y="1162.0986">[Valid data]</text><line style="stroke:#181818;stroke-width:1.0;" x1="818" x2="860" y1="1187.8672" y2="1187.8672"/><line style="stroke:#181818;stroke-width:1.0;" x1="860" x2="860" y1="1187.8672" y2="1200.8672"/><line style="stroke:#181818;stroke-width:1.0;" x1="819" x2="860" y1="1200.8672" y2="1200.8672"/><polygon fill="#181818" points="829,1196.8672,819,1200.8672,829,1204.8672,825,1200.8672" style="stroke:#181818;stroke-width:1.0;"/><text fill="#000000" font-family="sans-serif" font-size="13" font-weight="bold" lengthAdjust="spacing" textLength="14" x="825" y="1183.0107">22</text><text fill="#000000" font-family="sans-serif" font-size="13" lengthAdjust="spacing" textLength="60" x="843" y="1183.0107">Store data</text><polygon fill="#181818" points="572,1257.2188,562,1261.2188,572,1265.2188,568,1261.2188" style="stroke:#181818;stroke-width:1.0;"/><line style="stroke:#181818;stroke-width:1.0;stroke-dasharray:2.0,2.0;" x1="566" x2="807" y1="1261.2188" y2="1261.2188"/><text fill="#000000" font-family="sans-serif" font-size="13" font-weight="bold" lengthAdjust="spacing" textLength="14" x="578" y="1256.3623">23</text><text fill="#000000" font-family="sans-serif" font-size="13" lengthAdjust="spacing" textLength="117" x="596" y="1256.3623">Success notification</text><polygon fill="#181818" points="324,1287.5703,314,1291.5703,324,1295.5703,320,1291.5703" style="stroke:#181818;stroke-width:1.0;"/><line style="stroke:#181818;stroke-width:1.0;stroke-dasharray:2.0,2.0;" x1="318" x2="550" y1="1291.5703" y2="1291.5703"/><text fill="#000000" font-family="sans-serif" font-size="13" font-weight="bold" lengthAdjust="spacing" textLength="14" x="330" y="1286.7139">24</text><text fill="#000000" font-family="sans-serif" font-size="13" lengthAdjust="spacing" textLength="117" x="348" y="1286.7139">Success notification</text><line style="stroke:#181818;stroke-width:1.0;" x1="313" x2="355" y1="1326.9219" y2="1326.9219"/><line style="stroke:#181818;stroke-width:1.0;" x1="355" x2="355" y1="1326.9219" y2="1339.9219"/><line style="stroke:#181818;stroke-width:1.0;" x1="308" x2="355" y1="1339.9219" y2="1339.9219"/><polygon fill="#181818" points="318,1335.9219,308,1339.9219,318,1343.9219,314,1339.9219" style="stroke:#181818;stroke-width:1.0;"/><text fill="#000000" font-family="sans-serif" font-size="13" font-weight="bold" lengthAdjust="spacing" textLength="14" x="320" y="1322.0654">25</text><text fill="#000000" font-family="sans-serif" font-size="13" lengthAdjust="spacing" textLength="61" x="338" y="1322.0654">Close view</text><polygon fill="#181818" points="198,1361.2734,188,1365.2734,198,1369.2734,194,1365.2734" style="stroke:#181818;stroke-width:1.0;"/><line style="stroke:#181818;stroke-width:1.0;" x1="192" x2="555" y1="1365.2734" y2="1365.2734"/><text fill="#000000" font-family="sans-serif" font-size="13" font-weight="bold" lengthAdjust="spacing" textLength="14" x="204" y="1360.417">26</text><text fill="#000000" font-family="sans-serif" font-size="13" lengthAdjust="spacing" textLength="300" x="222" y="1360.417">Display success notification and list of prescriptions</text><!--MD5=[26edbdb132d99f889a5b641d12c46833]
@startuml UpdatePrescriptionSeq
autonumber
hide footbox

actor Doctor
boundary "Prescription\nManagementView" as PrescriptionManagementView
boundary "Prescription\nInformationView" as PrescriptionInformationView
control "Prescription\nController" as PrescriptionController
entity PRESCRIPTION
entity CHILD

opt Search
ref over Doctor, PrescriptionManagementView, PrescriptionInformationView, PrescriptionController, PRESCRIPTION, CHILD: Sequence Search Prescription
end 

Doctor -> PrescriptionManagementView: Select prescription\n needs updating
activate Doctor
activate PrescriptionManagementView
PrescriptionManagementView -> PrescriptionController: Get selected prescription information
activate PrescriptionController
PrescriptionController -> PRESCRIPTION: Get selected prescription information
activate PRESCRIPTION
PRESCRIPTION - -> PrescriptionController: Selected prescription information
deactivate PRESCRIPTION
PrescriptionController - -> PrescriptionInformationView: Selected prescription information
deactivate PrescriptionController
activate PrescriptionInformationView
PrescriptionController -> CHILD: Get list of children 
activate PrescriptionController
activate CHILD
CHILD -> CHILD: Query data
activate CHILD
deactivate CHILD
CHILD - -> PrescriptionController: Query result
deactivate CHILD
PrescriptionController - -> PrescriptionInformationView: Query result
deactivate PrescriptionController
PrescriptionInformationView -> PrescriptionInformationView: Display prescription information
activate PrescriptionInformationView
deactivate PrescriptionInformationView
Doctor -> PrescriptionInformationView: Enter prescription information  
PrescriptionInformationView -> PrescriptionInformationView: Validate data
activate PrescriptionInformationView
deactivate PrescriptionInformationView
alt Invalid data
    PrescriptionInformationView - -> Doctor: Error notification
    PrescriptionInformationView -> PrescriptionInformationView: Display error notification
    activate PrescriptionInformationView
    deactivate PrescriptionInformationView
else Valid data
    Doctor -> PrescriptionInformationView: Click button "Save" to confirm
    deactivate Doctor
    PrescriptionInformationView -> PrescriptionController: Send updating prescription request
    activate PrescriptionController
    PrescriptionController -> PRESCRIPTION: Send information
    activate PRESCRIPTION
    PRESCRIPTION -> PRESCRIPTION: Validate data
    activate PRESCRIPTION
    deactivate PRESCRIPTION
    alt Invalid data
        PRESCRIPTION - -> PrescriptionController: Error notification
        PrescriptionController - -> PrescriptionInformationView: Error notification
        PrescriptionInformationView -> PrescriptionInformationView: Display error notification
        activate PrescriptionInformationView
        deactivate PrescriptionInformationView
    else Valid data
        PRESCRIPTION -> PRESCRIPTION: Store data
        activate PRESCRIPTION
        deactivate PRESCRIPTION
        PRESCRIPTION - -> PrescriptionController: Success notification
        deactivate PRESCRIPTION
        PrescriptionController - -> PrescriptionInformationView: Success notification
        PrescriptionInformationView -> PrescriptionInformationView: Close view
        deactivate PrescriptionInformationView
        PrescriptionController -> PrescriptionManagementView: Display success notification and list of prescriptions
        deactivate PrescriptionManagementView
        deactivate PrescriptionController
    end
end
@enduml

PlantUML version 1.2022.7(Tue Aug 23 00:01:30 ICT 2022)
(GPL source distribution)
Java Runtime: Java(TM) SE Runtime Environment
JVM: Java HotSpot(TM) 64-Bit Server VM
Default Encoding: Cp1252
Language: en
Country: US
--></g></svg>