<?xml version="1.0" encoding="UTF-8" standalone="no"?><svg xmlns="http://www.w3.org/2000/svg" xmlns:xlink="http://www.w3.org/1999/xlink" contentStyleType="text/css" height="480px" preserveAspectRatio="none" style="width:470px;height:480px;background:#FFFFFF;" version="1.1" viewBox="0 0 470 480" width="470px" zoomAndPan="magnify"><defs/><g><rect fill="#F1F1F1" height="35.0938" rx="12.5" ry="12.5" style="stroke:#181818;stroke-width:0.5;" width="231" x="21" y="150.2832"/><text fill="#000000" font-family="sans-serif" font-size="12" lengthAdjust="spacing" textLength="211" x="31" y="172.7402">(2) Select child want to view sleep time</text><rect fill="#F1F1F1" height="35.0938" rx="12.5" ry="12.5" style="stroke:#181818;stroke-width:0.5;" width="128" x="72.5" y="205.377"/><text fill="#000000" font-family="sans-serif" font-size="12" lengthAdjust="spacing" textLength="108" x="82.5" y="227.834">(3) Choose function</text><polygon fill="#F1F1F1" points="136.5,267.0596,136.5,267.0596,148.5,279.0596,136.5,291.0596,136.5,291.0596,124.5,279.0596,136.5,267.0596" style="stroke:#181818;stroke-width:0.5;"/><text fill="#000000" font-family="sans-serif" font-size="11" lengthAdjust="spacing" textLength="34" x="90.5" y="276.6426">Update</text><text fill="#000000" font-family="sans-serif" font-size="11" lengthAdjust="spacing" textLength="56" x="148.5" y="262.8066">View Sleep</text><text fill="#000000" font-family="sans-serif" font-size="11" lengthAdjust="spacing" textLength="59" x="148.5" y="276.6426">Time History</text><rect fill="#F1F1F1" height="95.4688" rx="12.5" ry="12.5" style="stroke:#181818;stroke-width:0.5;" width="60" x="60.75" y="301.0596"/><text fill="#000000" font-family="sans-serif" font-size="12" lengthAdjust="spacing" textLength="25" x="70.75" y="323.5166">(3.1)</text><text fill="#000000" font-family="sans-serif" font-size="12" lengthAdjust="spacing" textLength="35" x="70.75" y="338.6104">Activity</text><text fill="#000000" font-family="sans-serif" font-size="12" lengthAdjust="spacing" textLength="40" x="70.75" y="353.7041">Update</text><text fill="#000000" font-family="sans-serif" font-size="12" lengthAdjust="spacing" textLength="32" x="70.75" y="368.7979">Sleep</text><text fill="#000000" font-family="sans-serif" font-size="12" lengthAdjust="spacing" textLength="28" x="70.75" y="383.8916">Time</text><rect fill="#F1F1F1" height="95.4688" rx="12.5" ry="12.5" style="stroke:#181818;stroke-width:0.5;" width="83" x="140.75" y="301.0596"/><text fill="#000000" font-family="sans-serif" font-size="12" lengthAdjust="spacing" textLength="25" x="150.75" y="323.5166">(3.2)</text><text fill="#000000" font-family="sans-serif" font-size="12" lengthAdjust="spacing" textLength="35" x="150.75" y="338.6104">Activity</text><text fill="#000000" font-family="sans-serif" font-size="12" lengthAdjust="spacing" textLength="26" x="150.75" y="353.7041">View</text><text fill="#000000" font-family="sans-serif" font-size="12" lengthAdjust="spacing" textLength="63" x="150.75" y="368.7979">Sleep Time</text><text fill="#000000" font-family="sans-serif" font-size="12" lengthAdjust="spacing" textLength="38" x="150.75" y="383.8916">History</text><polygon fill="#F1F1F1" points="136.5,402.5283,148.5,414.5283,136.5,426.5283,124.5,414.5283,136.5,402.5283" style="stroke:#181818;stroke-width:0.5;"/><line style="stroke:#000000;stroke-width:1.5;" x1="15" x2="15" y1="12.4551" y2="468.5283"/><ellipse cx="311" cy="50.0957" fill="#222222" rx="10" ry="10" style="stroke:#222222;stroke-width:1.0;"/><rect fill="#F1F1F1" height="50.1875" rx="12.5" ry="12.5" style="stroke:#181818;stroke-width:0.5;" width="98" x="262" y="80.0957"/><text fill="#000000" font-family="sans-serif" font-size="12" lengthAdjust="spacing" textLength="78" x="272" y="102.5527">(1) Display list</text><text fill="#000000" font-family="sans-serif" font-size="12" lengthAdjust="spacing" textLength="57" x="272" y="117.6465">of children</text><ellipse cx="311" cy="457.5283" fill="none" rx="11" ry="11" style="stroke:#222222;stroke-width:1.0;"/><ellipse cx="311" cy="457.5283" fill="#222222" rx="6" ry="6" style="stroke:#111111;stroke-width:1.0;"/><line style="stroke:#000000;stroke-width:1.5;" x1="256" x2="256" y1="12.4551" y2="468.5283"/><line style="stroke:#000000;stroke-width:1.5;" x1="364" x2="364" y1="12.4551" y2="468.5283"/><line style="stroke:#000000;stroke-width:1.5;" x1="451" x2="451" y1="12.4551" y2="468.5283"/><line style="stroke:#181818;stroke-width:1.0;" x1="136.5" x2="136.5" y1="185.377" y2="205.377"/><polygon fill="#181818" points="132.5,195.377,136.5,205.377,140.5,195.377,136.5,199.377" style="stroke:#181818;stroke-width:1.0;"/><line style="stroke:#181818;stroke-width:1.0;" x1="124.5" x2="90.75" y1="279.0596" y2="279.0596"/><line style="stroke:#181818;stroke-width:1.0;" x1="90.75" x2="90.75" y1="279.0596" y2="301.0596"/><polygon fill="#181818" points="86.75,291.0596,90.75,301.0596,94.75,291.0596,90.75,295.0596" style="stroke:#181818;stroke-width:1.0;"/><line style="stroke:#181818;stroke-width:1.0;" x1="148.5" x2="182.25" y1="279.0596" y2="279.0596"/><line style="stroke:#181818;stroke-width:1.0;" x1="182.25" x2="182.25" y1="279.0596" y2="301.0596"/><polygon fill="#181818" points="178.25,291.0596,182.25,301.0596,186.25,291.0596,182.25,295.0596" style="stroke:#181818;stroke-width:1.0;"/><line style="stroke:#181818;stroke-width:1.0;" x1="90.75" x2="90.75" y1="396.5283" y2="414.5283"/><line style="stroke:#181818;stroke-width:1.0;" x1="90.75" x2="124.5" y1="414.5283" y2="414.5283"/><polygon fill="#181818" points="114.5,410.5283,124.5,414.5283,114.5,418.5283,118.5,414.5283" style="stroke:#181818;stroke-width:1.0;"/><line style="stroke:#181818;stroke-width:1.0;" x1="182.25" x2="182.25" y1="396.5283" y2="414.5283"/><line style="stroke:#181818;stroke-width:1.0;" x1="182.25" x2="148.5" y1="414.5283" y2="414.5283"/><polygon fill="#181818" points="158.5,410.5283,148.5,414.5283,158.5,418.5283,154.5,414.5283" style="stroke:#181818;stroke-width:1.0;"/><line style="stroke:#181818;stroke-width:1.0;" x1="136.5" x2="136.5" y1="240.4707" y2="267.0596"/><polygon fill="#181818" points="132.5,257.0596,136.5,267.0596,140.5,257.0596,136.5,261.0596" style="stroke:#181818;stroke-width:1.0;"/><line style="stroke:#181818;stroke-width:1.0;" x1="311" x2="311" y1="60.0957" y2="80.0957"/><polygon fill="#181818" points="307,70.0957,311,80.0957,315,70.0957,311,74.0957" style="stroke:#181818;stroke-width:1.0;"/><line style="stroke:#181818;stroke-width:1.0;" x1="311" x2="311" y1="130.2832" y2="135.2832"/><line style="stroke:#181818;stroke-width:1.0;" x1="311" x2="136.5" y1="135.2832" y2="135.2832"/><line style="stroke:#181818;stroke-width:1.0;" x1="136.5" x2="136.5" y1="135.2832" y2="150.2832"/><polygon fill="#181818" points="132.5,140.2832,136.5,150.2832,140.5,140.2832,136.5,144.2832" style="stroke:#181818;stroke-width:1.0;"/><line style="stroke:#181818;stroke-width:1.0;" x1="136.5" x2="136.5" y1="426.5283" y2="431.5283"/><line style="stroke:#181818;stroke-width:1.0;" x1="136.5" x2="311" y1="431.5283" y2="431.5283"/><line style="stroke:#181818;stroke-width:1.0;" x1="311" x2="311" y1="431.5283" y2="446.5283"/><polygon fill="#181818" points="307,436.5283,311,446.5283,315,436.5283,311,440.5283" style="stroke:#181818;stroke-width:1.0;"/><text fill="#000000" font-family="sans-serif" font-size="18" lengthAdjust="spacing" textLength="53" x="109" y="31.1406">Parent</text><text fill="#000000" font-family="sans-serif" font-size="18" lengthAdjust="spacing" textLength="59" x="280.5" y="31.1406">System</text><text fill="#000000" font-family="sans-serif" font-size="18" lengthAdjust="spacing" textLength="77" x="369" y="31.1406">Database</text><!--MD5=[0b6b5e7b3b6b92eebfef9fb268a6e34f]
@startuml ManageSleepTimesActi
|Parent|
|System|
|Database|
|System|
start
:(1) Display list\nof children;
|Parent|
:(2) Select child want to view sleep time;
|Parent|    
:(3) Choose function;
if () then (Update)
  :(3.1)\nActivity\nUpdate\nSleep\nTime; 
else (View Sleep\nTime History) 
  :(3.2)\nActivity\nView\nSleep Time\nHistory; 
endif
|System|
stop
@enduml

PlantUML version 1.2022.7(Tue Aug 23 00:01:30 ICT 2022)
(GPL source distribution)
Java Runtime: Java(TM) SE Runtime Environment
JVM: Java HotSpot(TM) 64-Bit Server VM
Default Encoding: Cp1252
Language: en
Country: US
--></g></svg>