<?xml version="1.0" encoding="UTF-8" standalone="no"?><svg xmlns="http://www.w3.org/2000/svg" xmlns:xlink="http://www.w3.org/1999/xlink" contentStyleType="text/css" height="1082px" preserveAspectRatio="none" style="width:734px;height:1082px;background:#FFFFFF;" version="1.1" viewBox="0 0 734 1082" width="734px" zoomAndPan="magnify"><defs/><g><rect fill="#F1F1F1" height="50.1875" rx="12.5" ry="12.5" style="stroke:#181818;stroke-width:0.5;" width="128" x="21" y="452.6582"/><text fill="#000000" font-family="sans-serif" font-size="12" lengthAdjust="spacing" textLength="108" x="31" y="475.1152">(4) Enter sleep time</text><text fill="#000000" font-family="sans-serif" font-size="12" lengthAdjust="spacing" textLength="62" x="31" y="490.209">information</text><polygon fill="#F1F1F1" points="85,408.6582,97,420.6582,85,432.6582,73,420.6582,85,408.6582" style="stroke:#181818;stroke-width:0.5;"/><rect fill="#F1F1F1" height="65.2813" rx="12.5" ry="12.5" style="stroke:#181818;stroke-width:0.5;" width="92" x="39" y="649.8584"/><text fill="#000000" font-family="sans-serif" font-size="12" lengthAdjust="spacing" textLength="55" x="49" y="672.3154">(5.2) Click</text><text fill="#000000" font-family="sans-serif" font-size="12" lengthAdjust="spacing" textLength="72" x="49" y="687.4092">button "Save"</text><text fill="#000000" font-family="sans-serif" font-size="12" lengthAdjust="spacing" textLength="54" x="49" y="702.5029">to confirm</text><line style="stroke:#000000;stroke-width:1.5;" x1="15" x2="15" y1="12.4551" y2="1070.5146"/><ellipse cx="295.75" cy="50.0957" fill="#222222" rx="10" ry="10" style="stroke:#222222;stroke-width:1.0;"/><rect fill="#F1F1F1" height="35.0938" rx="12.5" ry="12.5" style="stroke:#181818;stroke-width:0.5;" width="203" x="194.25" y="80.0957"/><text fill="#000000" font-family="sans-serif" font-size="12" lengthAdjust="spacing" textLength="183" x="204.25" y="102.5527">(1) Display corresponding screen</text><polygon fill="#F1F1F1" points="295.75,135.1895,295.75,135.1895,307.75,147.1895,295.75,159.1895,295.75,159.1895,283.75,147.1895,295.75,135.1895" style="stroke:#181818;stroke-width:0.5;"/><text fill="#000000" font-family="sans-serif" font-size="11" lengthAdjust="spacing" textLength="43" x="240.75" y="144.7725">First time</text><text fill="#000000" font-family="sans-serif" font-size="11" lengthAdjust="spacing" textLength="34" x="307.75" y="144.7725">Update</text><rect fill="#F1F1F1" height="50.1875" rx="12.5" ry="12.5" style="stroke:#181818;stroke-width:0.5;" width="118" x="161.5" y="179.1895"/><text fill="#000000" font-family="sans-serif" font-size="12" lengthAdjust="spacing" textLength="94" x="171.5" y="201.6465">(1.1) Display with</text><text fill="#000000" font-family="sans-serif" font-size="12" lengthAdjust="spacing" textLength="98" x="171.5" y="216.7402">empty information</text><rect fill="#F1F1F1" height="50.1875" rx="12.5" ry="12.5" style="stroke:#181818;stroke-width:0.5;" width="143" x="299.5" y="179.1895"/><text fill="#000000" font-family="sans-serif" font-size="12" lengthAdjust="spacing" textLength="97" x="309.5" y="201.6465">(1.2) Get selected</text><text fill="#000000" font-family="sans-serif" font-size="12" lengthAdjust="spacing" textLength="123" x="309.5" y="216.7402">sleep time information</text><rect fill="#F1F1F1" height="50.1875" rx="12.5" ry="12.5" style="stroke:#181818;stroke-width:0.5;" width="143" x="299.5" y="304.4707"/><text fill="#000000" font-family="sans-serif" font-size="12" lengthAdjust="spacing" textLength="109" x="309.5" y="326.9277">(3) Display selected</text><text fill="#000000" font-family="sans-serif" font-size="12" lengthAdjust="spacing" textLength="123" x="309.5" y="342.0215">sleep time information</text><polygon fill="#F1F1F1" points="295.75,364.6582,307.75,376.6582,295.75,388.6582,283.75,376.6582,295.75,364.6582" style="stroke:#181818;stroke-width:0.5;"/><rect fill="#F1F1F1" height="35.0938" rx="12.5" ry="12.5" style="stroke:#181818;stroke-width:0.5;" width="147" x="222.25" y="537.8457"/><text fill="#000000" font-family="sans-serif" font-size="12" lengthAdjust="spacing" textLength="127" x="232.25" y="560.3027">(5) Validate data format</text><polygon fill="#F1F1F1" points="295.75,592.9395,295.75,592.9395,307.75,604.9395,295.75,616.9395,295.75,616.9395,283.75,604.9395,295.75,592.9395" style="stroke:#181818;stroke-width:0.5;"/><text fill="#000000" font-family="sans-serif" font-size="11" lengthAdjust="spacing" textLength="48" x="299.75" y="628.3584">Valid data</text><text fill="#000000" font-family="sans-serif" font-size="11" lengthAdjust="spacing" textLength="54" x="307.75" y="602.5225">Invalid data</text><rect fill="#F1F1F1" height="50.1875" rx="12.5" ry="12.5" style="stroke:#181818;stroke-width:0.5;" width="108" x="393.25" y="487.7051"/><text fill="#000000" font-family="sans-serif" font-size="12" lengthAdjust="spacing" textLength="69" x="403.25" y="510.1621">(5.1) Display</text><text fill="#000000" font-family="sans-serif" font-size="12" lengthAdjust="spacing" textLength="88" x="403.25" y="525.2559">error notification</text><rect fill="#F1F1F1" height="35.0938" rx="12.5" ry="12.5" style="stroke:#181818;stroke-width:0.5;" width="180" x="205.75" y="735.1396"/><text fill="#000000" font-family="sans-serif" font-size="12" lengthAdjust="spacing" textLength="160" x="215.75" y="757.5967">(6) Process updating request</text><rect fill="#F1F1F1" height="50.1875" rx="12.5" ry="12.5" style="stroke:#181818;stroke-width:0.5;" width="108" x="159" y="889.3271"/><text fill="#000000" font-family="sans-serif" font-size="12" lengthAdjust="spacing" textLength="69" x="169" y="911.7842">(7.1) Display</text><text fill="#000000" font-family="sans-serif" font-size="12" lengthAdjust="spacing" textLength="88" x="169" y="926.8779">error notification</text><rect fill="#F1F1F1" height="35.0938" rx="12.5" ry="12.5" style="stroke:#181818;stroke-width:0.5;" width="183" x="287" y="959.4209"/><text fill="#000000" font-family="sans-serif" font-size="12" lengthAdjust="spacing" textLength="163" x="297" y="981.8779">(8) Display update successful</text><line style="stroke:#000000;stroke-width:1.5;" x1="153" x2="153" y1="12.4551" y2="1070.5146"/><rect fill="#F1F1F1" height="35.0938" rx="12.5" ry="12.5" style="stroke:#181818;stroke-width:0.5;" width="97" x="603" y="249.377"/><text fill="#000000" font-family="sans-serif" font-size="12" lengthAdjust="spacing" textLength="77" x="613" y="271.834">(2) Query data</text><rect fill="#F1F1F1" height="35.0938" rx="12.5" ry="12.5" style="stroke:#181818;stroke-width:0.5;" width="109" x="521.75" y="790.2334"/><text fill="#000000" font-family="sans-serif" font-size="12" lengthAdjust="spacing" textLength="89" x="531.75" y="812.6904">(7) Validate data</text><polygon fill="#F1F1F1" points="576.25,845.3271,576.25,845.3271,588.25,857.3271,576.25,869.3271,576.25,869.3271,564.25,857.3271,576.25,845.3271" style="stroke:#181818;stroke-width:0.5;"/><text fill="#000000" font-family="sans-serif" font-size="11" lengthAdjust="spacing" textLength="54" x="510.25" y="854.9102">Invalid data</text><text fill="#000000" font-family="sans-serif" font-size="11" lengthAdjust="spacing" textLength="48" x="588.25" y="854.9102">Valid data</text><rect fill="#F1F1F1" height="35.0938" rx="12.5" ry="12.5" style="stroke:#181818;stroke-width:0.5;" width="104" x="607" y="889.3271"/><text fill="#000000" font-family="sans-serif" font-size="12" lengthAdjust="spacing" textLength="84" x="617" y="911.7842">(7.2) Store data</text><polygon fill="#F1F1F1" points="576.25,1004.5146,588.25,1016.5146,576.25,1028.5146,564.25,1016.5146,576.25,1004.5146" style="stroke:#181818;stroke-width:0.5;"/><ellipse cx="576.25" cy="1059.5146" fill="none" rx="11" ry="11" style="stroke:#222222;stroke-width:1.0;"/><ellipse cx="576.25" cy="1059.5146" fill="#222222" rx="6" ry="6" style="stroke:#111111;stroke-width:1.0;"/><line style="stroke:#000000;stroke-width:1.5;" x1="505.25" x2="505.25" y1="12.4551" y2="1070.5146"/><line style="stroke:#000000;stroke-width:1.5;" x1="715" x2="715" y1="12.4551" y2="1070.5146"/><line style="stroke:#181818;stroke-width:1.0;" x1="85" x2="85" y1="432.6582" y2="452.6582"/><polygon fill="#181818" points="81,442.6582,85,452.6582,89,442.6582,85,446.6582" style="stroke:#181818;stroke-width:1.0;"/><line style="stroke:#181818;stroke-width:1.0;" x1="295.75" x2="295.75" y1="60.0957" y2="80.0957"/><polygon fill="#181818" points="291.75,70.0957,295.75,80.0957,299.75,70.0957,295.75,74.0957" style="stroke:#181818;stroke-width:1.0;"/><line style="stroke:#181818;stroke-width:1.0;" x1="283.75" x2="220.5" y1="147.1895" y2="147.1895"/><line style="stroke:#181818;stroke-width:1.0;" x1="220.5" x2="220.5" y1="147.1895" y2="179.1895"/><polygon fill="#181818" points="216.5,169.1895,220.5,179.1895,224.5,169.1895,220.5,173.1895" style="stroke:#181818;stroke-width:1.0;"/><line style="stroke:#181818;stroke-width:1.0;" x1="307.75" x2="371" y1="147.1895" y2="147.1895"/><line style="stroke:#181818;stroke-width:1.0;" x1="371" x2="371" y1="147.1895" y2="179.1895"/><polygon fill="#181818" points="367,169.1895,371,179.1895,375,169.1895,371,173.1895" style="stroke:#181818;stroke-width:1.0;"/><line style="stroke:#181818;stroke-width:1.0;" x1="220.5" x2="220.5" y1="229.377" y2="376.6582"/><line style="stroke:#181818;stroke-width:1.0;" x1="220.5" x2="283.75" y1="376.6582" y2="376.6582"/><polygon fill="#181818" points="273.75,372.6582,283.75,376.6582,273.75,380.6582,277.75,376.6582" style="stroke:#181818;stroke-width:1.0;"/><line style="stroke:#181818;stroke-width:1.0;" x1="371" x2="371" y1="354.6582" y2="376.6582"/><line style="stroke:#181818;stroke-width:1.0;" x1="371" x2="307.75" y1="376.6582" y2="376.6582"/><polygon fill="#181818" points="317.75,372.6582,307.75,376.6582,317.75,380.6582,313.75,376.6582" style="stroke:#181818;stroke-width:1.0;"/><line style="stroke:#181818;stroke-width:1.0;" x1="295.75" x2="295.75" y1="115.1895" y2="135.1895"/><polygon fill="#181818" points="291.75,125.1895,295.75,135.1895,299.75,125.1895,295.75,129.1895" style="stroke:#181818;stroke-width:1.0;"/><line style="stroke:#181818;stroke-width:1.0;" x1="307.75" x2="447.25" y1="604.9395" y2="604.9395"/><line style="stroke:#181818;stroke-width:1.0;" x1="447.25" x2="447.25" y1="537.8926" y2="604.9395"/><polygon fill="#181818" points="443.25,547.8926,447.25,537.8926,451.25,547.8926,447.25,543.8926" style="stroke:#181818;stroke-width:1.0;"/><line style="stroke:#181818;stroke-width:1.0;" x1="295.75" x2="295.75" y1="572.9395" y2="592.9395"/><polygon fill="#181818" points="291.75,582.9395,295.75,592.9395,299.75,582.9395,295.75,586.9395" style="stroke:#181818;stroke-width:1.0;"/><line style="stroke:#181818;stroke-width:1.0;" x1="588.25" x2="659" y1="857.3271" y2="857.3271"/><line style="stroke:#181818;stroke-width:1.0;" x1="659" x2="659" y1="857.3271" y2="889.3271"/><polygon fill="#181818" points="655,879.3271,659,889.3271,663,879.3271,659,883.3271" style="stroke:#181818;stroke-width:1.0;"/><line style="stroke:#181818;stroke-width:1.0;" x1="576.25" x2="576.25" y1="825.3271" y2="845.3271"/><polygon fill="#181818" points="572.25,835.3271,576.25,845.3271,580.25,835.3271,576.25,839.3271" style="stroke:#181818;stroke-width:1.0;"/><line style="stroke:#181818;stroke-width:1.0;" x1="576.25" x2="576.25" y1="1028.5146" y2="1048.5146"/><polygon fill="#181818" points="572.25,1038.5146,576.25,1048.5146,580.25,1038.5146,576.25,1042.5146" style="stroke:#181818;stroke-width:1.0;"/><line style="stroke:#181818;stroke-width:1.0;" x1="371" x2="371" y1="229.377" y2="234.377"/><line style="stroke:#181818;stroke-width:1.0;" x1="371" x2="651.5" y1="234.377" y2="234.377"/><line style="stroke:#181818;stroke-width:1.0;" x1="651.5" x2="651.5" y1="234.377" y2="249.377"/><polygon fill="#181818" points="647.5,239.377,651.5,249.377,655.5,239.377,651.5,243.377" style="stroke:#181818;stroke-width:1.0;"/><line style="stroke:#181818;stroke-width:1.0;" x1="651.5" x2="651.5" y1="284.4707" y2="289.4707"/><line style="stroke:#181818;stroke-width:1.0;" x1="651.5" x2="371" y1="289.4707" y2="289.4707"/><line style="stroke:#181818;stroke-width:1.0;" x1="371" x2="371" y1="289.4707" y2="304.4707"/><polygon fill="#181818" points="367,294.4707,371,304.4707,375,294.4707,371,298.4707" style="stroke:#181818;stroke-width:1.0;"/><line style="stroke:#181818;stroke-width:1.0;" x1="85" x2="85" y1="502.8457" y2="520.3457"/><line style="stroke:#181818;stroke-width:1.0;" x1="85" x2="295.75" y1="520.3457" y2="520.3457"/><line style="stroke:#181818;stroke-width:1.0;" x1="295.75" x2="295.75" y1="520.3457" y2="537.8457"/><polygon fill="#181818" points="291.75,527.8457,295.75,537.8457,299.75,527.8457,295.75,531.8457" style="stroke:#181818;stroke-width:1.0;"/><line style="stroke:#181818;stroke-width:1.0;" x1="447.25" x2="447.25" y1="420.6582" y2="487.7051"/><line style="stroke:#181818;stroke-width:1.0;" x1="447.25" x2="97" y1="420.6582" y2="420.6582"/><polygon fill="#181818" points="107,416.6582,97,420.6582,107,424.6582,103,420.6582" style="stroke:#181818;stroke-width:1.0;"/><line style="stroke:#181818;stroke-width:1.0;" x1="295.75" x2="295.75" y1="388.6582" y2="393.6582"/><line style="stroke:#181818;stroke-width:1.0;" x1="295.75" x2="85" y1="393.6582" y2="393.6582"/><line style="stroke:#181818;stroke-width:1.0;" x1="85" x2="85" y1="393.6582" y2="408.6582"/><polygon fill="#181818" points="81,398.6582,85,408.6582,89,398.6582,85,402.6582" style="stroke:#181818;stroke-width:1.0;"/><line style="stroke:#181818;stroke-width:1.0;" x1="295.75" x2="295.75" y1="616.9395" y2="634.4395"/><line style="stroke:#181818;stroke-width:1.0;" x1="295.75" x2="85" y1="634.4395" y2="634.4395"/><line style="stroke:#181818;stroke-width:1.0;" x1="85" x2="85" y1="634.4395" y2="649.8584"/><polygon fill="#181818" points="81,639.8584,85,649.8584,89,639.8584,85,643.8584" style="stroke:#181818;stroke-width:1.0;"/><line style="stroke:#181818;stroke-width:1.0;" x1="85" x2="85" y1="715.1396" y2="720.1396"/><line style="stroke:#181818;stroke-width:1.0;" x1="85" x2="295.75" y1="720.1396" y2="720.1396"/><line style="stroke:#181818;stroke-width:1.0;" x1="295.75" x2="295.75" y1="720.1396" y2="735.1396"/><polygon fill="#181818" points="291.75,725.1396,295.75,735.1396,299.75,725.1396,295.75,729.1396" style="stroke:#181818;stroke-width:1.0;"/><line style="stroke:#181818;stroke-width:1.0;" x1="295.75" x2="295.75" y1="770.2334" y2="775.2334"/><line style="stroke:#181818;stroke-width:1.0;" x1="295.75" x2="576.25" y1="775.2334" y2="775.2334"/><line style="stroke:#181818;stroke-width:1.0;" x1="576.25" x2="576.25" y1="775.2334" y2="790.2334"/><polygon fill="#181818" points="572.25,780.2334,576.25,790.2334,580.25,780.2334,576.25,784.2334" style="stroke:#181818;stroke-width:1.0;"/><line style="stroke:#181818;stroke-width:1.0;" x1="659" x2="659" y1="924.4209" y2="941.9209"/><line style="stroke:#181818;stroke-width:1.0;" x1="659" x2="378.5" y1="941.9209" y2="941.9209"/><line style="stroke:#181818;stroke-width:1.0;" x1="378.5" x2="378.5" y1="941.9209" y2="959.4209"/><polygon fill="#181818" points="374.5,949.4209,378.5,959.4209,382.5,949.4209,378.5,953.4209" style="stroke:#181818;stroke-width:1.0;"/><line style="stroke:#181818;stroke-width:1.0;" x1="564.25" x2="213" y1="857.3271" y2="857.3271"/><line style="stroke:#181818;stroke-width:1.0;" x1="213" x2="213" y1="857.3271" y2="889.3271"/><polygon fill="#181818" points="209,879.3271,213,889.3271,217,879.3271,213,883.3271" style="stroke:#181818;stroke-width:1.0;"/><line style="stroke:#181818;stroke-width:1.0;" x1="213" x2="213" y1="939.5146" y2="1016.5146"/><line style="stroke:#181818;stroke-width:1.0;" x1="213" x2="564.25" y1="1016.5146" y2="1016.5146"/><polygon fill="#181818" points="554.25,1012.5146,564.25,1016.5146,554.25,1020.5146,558.25,1016.5146" style="stroke:#181818;stroke-width:1.0;"/><line style="stroke:#181818;stroke-width:1.0;" x1="378.5" x2="378.5" y1="994.5146" y2="998.5146"/><line style="stroke:#181818;stroke-width:1.0;" x1="378.5" x2="606.25" y1="998.5146" y2="998.5146"/><line style="stroke:#181818;stroke-width:1.0;" x1="606.25" x2="606.25" y1="998.5146" y2="1016.5146"/><line style="stroke:#181818;stroke-width:1.0;" x1="606.25" x2="588.25" y1="1016.5146" y2="1016.5146"/><polygon fill="#181818" points="598.25,1012.5146,588.25,1016.5146,598.25,1020.5146,594.25,1016.5146" style="stroke:#181818;stroke-width:1.0;"/><text fill="#000000" font-family="sans-serif" font-size="18" lengthAdjust="spacing" textLength="53" x="57.5" y="31.1406">Parent</text><text fill="#000000" font-family="sans-serif" font-size="18" lengthAdjust="spacing" textLength="59" x="299.625" y="31.1406">System</text><text fill="#000000" font-family="sans-serif" font-size="18" lengthAdjust="spacing" textLength="77" x="571.625" y="31.1406">Database</text><!--MD5=[77f497b3d1a59d34cf34b46b7155cdf0]
@startuml UpdateSleepTimeActi
|Parent|
|System|
start
:(1) Display corresponding screen;
if () then (First time)     
    |System|
    :(1.1) Display with\nempty information;
else (Update)
    :(1.2) Get selected\nsleep time information;
    |Database|
    :(2) Query data;
    |System|
    :(3) Display selected\nsleep time information;
endif
repeat
    |Parent|
    :(4) Enter sleep time\ninformation;
    |System|
    :(5) Validate data format;
    backward :(5.1) Display\nerror notification;
repeat while () is (Invalid data) not (Valid data)
    |Parent|
    :(5.2) Click\nbutton "Save"\nto confirm;
    |System|
    :(6) Process updating request;
    |Database|
    :(7) Validate data;
    if () then (Invalid data)
        |System|
        :(7.1) Display\nerror notification;
    else (Valid data)
        |Database|  
        :(7.2) Store data;
        |System|
        :(8) Display update successful;
        endif
    |Database|
stop
@enduml

PlantUML version 1.2022.7(Tue Aug 23 00:01:30 ICT 2022)
(GPL source distribution)
Java Runtime: Java(TM) SE Runtime Environment
JVM: Java HotSpot(TM) 64-Bit Server VM
Default Encoding: Cp1252
Language: en
Country: US
--></g></svg>