<?xml version="1.0" encoding="UTF-8" standalone="no"?><svg xmlns="http://www.w3.org/2000/svg" xmlns:xlink="http://www.w3.org/1999/xlink" contentStyleType="text/css" height="449px" preserveAspectRatio="none" style="width:492px;height:449px;background:#FFFFFF;" version="1.1" viewBox="0 0 492 449" width="492px" zoomAndPan="magnify"><defs/><g><rect fill="#F1F1F1" height="65.2813" rx="12.5" ry="12.5" style="stroke:#181818;stroke-width:0.5;" width="98" x="21" y="150.2832"/><text fill="#000000" font-family="sans-serif" font-size="12" lengthAdjust="spacing" textLength="72" x="31" y="172.7402">(2) Select the</text><text fill="#000000" font-family="sans-serif" font-size="12" lengthAdjust="spacing" textLength="58" x="43" y="187.834">sleep time</text><text fill="#000000" font-family="sans-serif" font-size="12" lengthAdjust="spacing" textLength="66" x="43" y="202.9277">want to view</text><line style="stroke:#000000;stroke-width:1.5;" x1="15" x2="15" y1="12.4551" y2="437.9395"/><ellipse cx="245.5" cy="50.0957" fill="#222222" rx="10" ry="10" style="stroke:#222222;stroke-width:1.0;"/><rect fill="#F1F1F1" height="50.1875" rx="12.5" ry="12.5" style="stroke:#181818;stroke-width:0.5;" width="111" x="190" y="80.0957"/><text fill="#000000" font-family="sans-serif" font-size="12" lengthAdjust="spacing" textLength="91" x="200" y="102.5527">(1) Display list of</text><text fill="#000000" font-family="sans-serif" font-size="12" lengthAdjust="spacing" textLength="65" x="212" y="117.6465">sleep times</text><rect fill="#F1F1F1" height="35.0938" rx="12.5" ry="12.5" style="stroke:#181818;stroke-width:0.5;" width="233" x="129" y="235.5645"/><text fill="#000000" font-family="sans-serif" font-size="12" lengthAdjust="spacing" textLength="213" x="139" y="258.0215">(3) Get selected sleep time information</text><rect fill="#F1F1F1" height="50.1875" rx="12.5" ry="12.5" style="stroke:#181818;stroke-width:0.5;" width="155" x="168" y="345.752"/><text fill="#000000" font-family="sans-serif" font-size="12" lengthAdjust="spacing" textLength="109" x="178" y="368.209">(5) Display selected</text><text fill="#000000" font-family="sans-serif" font-size="12" lengthAdjust="spacing" textLength="123" x="190" y="383.3027">sleep time information</text><ellipse cx="245.5" cy="426.9395" fill="none" rx="11" ry="11" style="stroke:#222222;stroke-width:1.0;"/><ellipse cx="245.5" cy="426.9395" fill="#222222" rx="6" ry="6" style="stroke:#111111;stroke-width:1.0;"/><line style="stroke:#000000;stroke-width:1.5;" x1="123" x2="123" y1="12.4551" y2="437.9395"/><rect fill="#F1F1F1" height="35.0938" rx="12.5" ry="12.5" style="stroke:#181818;stroke-width:0.5;" width="97" x="372" y="290.6582"/><text fill="#000000" font-family="sans-serif" font-size="12" lengthAdjust="spacing" textLength="77" x="382" y="313.1152">(4) Query data</text><line style="stroke:#000000;stroke-width:1.5;" x1="366" x2="366" y1="12.4551" y2="437.9395"/><line style="stroke:#000000;stroke-width:1.5;" x1="473" x2="473" y1="12.4551" y2="437.9395"/><line style="stroke:#181818;stroke-width:1.0;" x1="245.5" x2="245.5" y1="60.0957" y2="80.0957"/><polygon fill="#181818" points="241.5,70.0957,245.5,80.0957,249.5,70.0957,245.5,74.0957" style="stroke:#181818;stroke-width:1.0;"/><line style="stroke:#181818;stroke-width:1.0;" x1="245.5" x2="245.5" y1="395.9395" y2="415.9395"/><polygon fill="#181818" points="241.5,405.9395,245.5,415.9395,249.5,405.9395,245.5,409.9395" style="stroke:#181818;stroke-width:1.0;"/><line style="stroke:#181818;stroke-width:1.0;" x1="245.5" x2="245.5" y1="130.2832" y2="135.2832"/><line style="stroke:#181818;stroke-width:1.0;" x1="245.5" x2="70" y1="135.2832" y2="135.2832"/><line style="stroke:#181818;stroke-width:1.0;" x1="70" x2="70" y1="135.2832" y2="150.2832"/><polygon fill="#181818" points="66,140.2832,70,150.2832,74,140.2832,70,144.2832" style="stroke:#181818;stroke-width:1.0;"/><line style="stroke:#181818;stroke-width:1.0;" x1="70" x2="70" y1="215.5645" y2="220.5645"/><line style="stroke:#181818;stroke-width:1.0;" x1="70" x2="245.5" y1="220.5645" y2="220.5645"/><line style="stroke:#181818;stroke-width:1.0;" x1="245.5" x2="245.5" y1="220.5645" y2="235.5645"/><polygon fill="#181818" points="241.5,225.5645,245.5,235.5645,249.5,225.5645,245.5,229.5645" style="stroke:#181818;stroke-width:1.0;"/><line style="stroke:#181818;stroke-width:1.0;" x1="245.5" x2="245.5" y1="270.6582" y2="275.6582"/><line style="stroke:#181818;stroke-width:1.0;" x1="245.5" x2="420.5" y1="275.6582" y2="275.6582"/><line style="stroke:#181818;stroke-width:1.0;" x1="420.5" x2="420.5" y1="275.6582" y2="290.6582"/><polygon fill="#181818" points="416.5,280.6582,420.5,290.6582,424.5,280.6582,420.5,284.6582" style="stroke:#181818;stroke-width:1.0;"/><line style="stroke:#181818;stroke-width:1.0;" x1="420.5" x2="420.5" y1="325.752" y2="330.752"/><line style="stroke:#181818;stroke-width:1.0;" x1="420.5" x2="245.5" y1="330.752" y2="330.752"/><line style="stroke:#181818;stroke-width:1.0;" x1="245.5" x2="245.5" y1="330.752" y2="345.752"/><polygon fill="#181818" points="241.5,335.752,245.5,345.752,249.5,335.752,245.5,339.752" style="stroke:#181818;stroke-width:1.0;"/><text fill="#000000" font-family="sans-serif" font-size="18" lengthAdjust="spacing" textLength="53" x="42.5" y="31.1406">Parent</text><text fill="#000000" font-family="sans-serif" font-size="18" lengthAdjust="spacing" textLength="59" x="215" y="31.1406">System</text><text fill="#000000" font-family="sans-serif" font-size="18" lengthAdjust="spacing" textLength="77" x="381" y="31.1406">Database</text><!--MD5=[1de8da09de0570163196e9a6195af9a7]
@startuml ViewSleepTimeHistoryActi
|Parent|
|System|
start
|System|
:(1) Display list of\n    sleep times;
|Parent|
:(2) Select the\n    sleep time\n    want to view;
|System|
:(3) Get selected sleep time information;
|Database|
:(4) Query data;
|System|
:(5) Display selected\n    sleep time information;
stop
@enduml

PlantUML version 1.2022.7(Tue Aug 23 00:01:30 ICT 2022)
(GPL source distribution)
Java Runtime: Java(TM) SE Runtime Environment
JVM: Java HotSpot(TM) 64-Bit Server VM
Default Encoding: Cp1252
Language: en
Country: US
--></g></svg>