<?xml version="1.0" encoding="UTF-8" standalone="no"?><svg xmlns="http://www.w3.org/2000/svg" xmlns:xlink="http://www.w3.org/1999/xlink" contentStyleType="text/css" height="780px" preserveAspectRatio="none" style="width:700px;height:780px;background:#FFFFFF;" version="1.1" viewBox="0 0 700 780" width="700px" zoomAndPan="magnify"><defs/><g><rect fill="#F1F1F1" height="50.1875" rx="12.5" ry="12.5" style="stroke:#181818;stroke-width:0.5;" width="102" x="26" y="205.377"/><text fill="#000000" font-family="sans-serif" font-size="12" lengthAdjust="spacing" textLength="82" x="36" y="227.834">(3) Click button</text><text fill="#000000" font-family="sans-serif" font-size="12" lengthAdjust="spacing" textLength="52" x="36" y="242.9277">"Sign Up"</text><rect fill="#F1F1F1" height="50.1875" rx="12.5" ry="12.5" style="stroke:#181818;stroke-width:0.5;" width="112" x="21" y="135.1895"/><text fill="#000000" font-family="sans-serif" font-size="12" lengthAdjust="spacing" textLength="92" x="31" y="157.6465">(2) Enter register</text><text fill="#000000" font-family="sans-serif" font-size="12" lengthAdjust="spacing" textLength="62" x="31" y="172.7402">information</text><line style="stroke:#000000;stroke-width:1.5;" x1="15" x2="15" y1="12.4551" y2="768.2334"/><ellipse cx="274.25" cy="50.0957" fill="#222222" rx="10" ry="10" style="stroke:#222222;stroke-width:1.0;"/><rect fill="#F1F1F1" height="35.0938" rx="12.5" ry="12.5" style="stroke:#181818;stroke-width:0.5;" width="150" x="199.25" y="80.0957"/><text fill="#000000" font-family="sans-serif" font-size="12" lengthAdjust="spacing" textLength="130" x="209.25" y="102.5527">(1) Display sign up view</text><rect fill="#F1F1F1" height="35.0938" rx="12.5" ry="12.5" style="stroke:#181818;stroke-width:0.5;" width="147" x="200.75" y="290.5645"/><text fill="#000000" font-family="sans-serif" font-size="12" lengthAdjust="spacing" textLength="127" x="210.75" y="313.0215">(4) Validate data format</text><polygon fill="#F1F1F1" points="274.25,345.6582,274.25,345.6582,286.25,357.6582,274.25,369.6582,274.25,369.6582,262.25,357.6582,274.25,345.6582" style="stroke:#181818;stroke-width:0.5;"/><text fill="#000000" font-family="sans-serif" font-size="11" lengthAdjust="spacing" textLength="48" x="278.25" y="381.0771">Valid data</text><text fill="#000000" font-family="sans-serif" font-size="11" lengthAdjust="spacing" textLength="54" x="286.25" y="355.2412">Invalid data</text><rect fill="#F1F1F1" height="50.1875" rx="12.5" ry="12.5" style="stroke:#181818;stroke-width:0.5;" width="108" x="371.75" y="227.3301"/><text fill="#000000" font-family="sans-serif" font-size="12" lengthAdjust="spacing" textLength="69" x="381.75" y="249.7871">(4.1) Display</text><text fill="#000000" font-family="sans-serif" font-size="12" lengthAdjust="spacing" textLength="88" x="381.75" y="264.8809">error notification</text><rect fill="#F1F1F1" height="50.1875" rx="12.5" ry="12.5" style="stroke:#181818;stroke-width:0.5;" width="104" x="222.25" y="402.5771"/><text fill="#000000" font-family="sans-serif" font-size="12" lengthAdjust="spacing" textLength="84" x="232.25" y="425.0342">(4.2) Send data</text><text fill="#000000" font-family="sans-serif" font-size="12" lengthAdjust="spacing" textLength="65" x="232.25" y="440.1279">to database</text><rect fill="#F1F1F1" height="50.1875" rx="12.5" ry="12.5" style="stroke:#181818;stroke-width:0.5;" width="108" x="143" y="571.8584"/><text fill="#000000" font-family="sans-serif" font-size="12" lengthAdjust="spacing" textLength="69" x="153" y="594.3154">(5.1) Display</text><text fill="#000000" font-family="sans-serif" font-size="12" lengthAdjust="spacing" textLength="88" x="153" y="609.4092">error notification</text><rect fill="#F1F1F1" height="50.1875" rx="12.5" ry="12.5" style="stroke:#181818;stroke-width:0.5;" width="161" x="271" y="642.0459"/><text fill="#000000" font-family="sans-serif" font-size="12" lengthAdjust="spacing" textLength="120" x="281" y="664.5029">(6) Automatically login</text><text fill="#000000" font-family="sans-serif" font-size="12" lengthAdjust="spacing" textLength="141" x="281" y="679.5967">and redirect to HomeView</text><line style="stroke:#000000;stroke-width:1.5;" x1="137" x2="137" y1="12.4551" y2="768.2334"/><rect fill="#F1F1F1" height="35.0938" rx="12.5" ry="12.5" style="stroke:#181818;stroke-width:0.5;" width="109" x="500.25" y="472.7646"/><text fill="#000000" font-family="sans-serif" font-size="12" lengthAdjust="spacing" textLength="89" x="510.25" y="495.2217">(5) Validate data</text><polygon fill="#F1F1F1" points="554.75,527.8584,554.75,527.8584,566.75,539.8584,554.75,551.8584,554.75,551.8584,542.75,539.8584,554.75,527.8584" style="stroke:#181818;stroke-width:0.5;"/><text fill="#000000" font-family="sans-serif" font-size="11" lengthAdjust="spacing" textLength="54" x="488.75" y="537.4414">Invalid data</text><text fill="#000000" font-family="sans-serif" font-size="11" lengthAdjust="spacing" textLength="48" x="566.75" y="537.4414">Valid data</text><rect fill="#F1F1F1" height="50.1875" rx="12.5" ry="12.5" style="stroke:#181818;stroke-width:0.5;" width="89" x="587.5" y="571.8584"/><text fill="#000000" font-family="sans-serif" font-size="12" lengthAdjust="spacing" textLength="65" x="597.5" y="594.3154">(5.2) Create</text><text fill="#000000" font-family="sans-serif" font-size="12" lengthAdjust="spacing" textLength="69" x="597.5" y="609.4092">new account</text><polygon fill="#F1F1F1" points="554.75,702.2334,566.75,714.2334,554.75,726.2334,542.75,714.2334,554.75,702.2334" style="stroke:#181818;stroke-width:0.5;"/><ellipse cx="554.75" cy="757.2334" fill="none" rx="11" ry="11" style="stroke:#222222;stroke-width:1.0;"/><ellipse cx="554.75" cy="757.2334" fill="#222222" rx="6" ry="6" style="stroke:#111111;stroke-width:1.0;"/><line style="stroke:#000000;stroke-width:1.5;" x1="483.75" x2="483.75" y1="12.4551" y2="768.2334"/><line style="stroke:#000000;stroke-width:1.5;" x1="680.5" x2="680.5" y1="12.4551" y2="768.2334"/><line style="stroke:#181818;stroke-width:1.0;" x1="77" x2="77" y1="185.377" y2="205.377"/><polygon fill="#181818" points="73,195.377,77,205.377,81,195.377,77,199.377" style="stroke:#181818;stroke-width:1.0;"/><line style="stroke:#181818;stroke-width:1.0;" x1="274.25" x2="274.25" y1="60.0957" y2="80.0957"/><polygon fill="#181818" points="270.25,70.0957,274.25,80.0957,278.25,70.0957,274.25,74.0957" style="stroke:#181818;stroke-width:1.0;"/><line style="stroke:#181818;stroke-width:1.0;" x1="286.25" x2="425.75" y1="357.6582" y2="357.6582"/><line style="stroke:#181818;stroke-width:1.0;" x1="425.75" x2="425.75" y1="277.5176" y2="357.6582"/><polygon fill="#181818" points="421.75,287.5176,425.75,277.5176,429.75,287.5176,425.75,283.5176" style="stroke:#181818;stroke-width:1.0;"/><line style="stroke:#181818;stroke-width:1.0;" x1="274.25" x2="274.25" y1="325.6582" y2="345.6582"/><polygon fill="#181818" points="270.25,335.6582,274.25,345.6582,278.25,335.6582,274.25,339.6582" style="stroke:#181818;stroke-width:1.0;"/><line style="stroke:#181818;stroke-width:1.0;" x1="274.25" x2="274.25" y1="369.6582" y2="402.5771"/><polygon fill="#181818" points="270.25,392.5771,274.25,402.5771,278.25,392.5771,274.25,396.5771" style="stroke:#181818;stroke-width:1.0;"/><line style="stroke:#181818;stroke-width:1.0;" x1="566.75" x2="632" y1="539.8584" y2="539.8584"/><line style="stroke:#181818;stroke-width:1.0;" x1="632" x2="632" y1="539.8584" y2="571.8584"/><polygon fill="#181818" points="628,561.8584,632,571.8584,636,561.8584,632,565.8584" style="stroke:#181818;stroke-width:1.0;"/><line style="stroke:#181818;stroke-width:1.0;" x1="554.75" x2="554.75" y1="507.8584" y2="527.8584"/><polygon fill="#181818" points="550.75,517.8584,554.75,527.8584,558.75,517.8584,554.75,521.8584" style="stroke:#181818;stroke-width:1.0;"/><line style="stroke:#181818;stroke-width:1.0;" x1="554.75" x2="554.75" y1="726.2334" y2="746.2334"/><polygon fill="#181818" points="550.75,736.2334,554.75,746.2334,558.75,736.2334,554.75,740.2334" style="stroke:#181818;stroke-width:1.0;"/><line style="stroke:#181818;stroke-width:1.0;" x1="77" x2="77" y1="255.5645" y2="273.0645"/><line style="stroke:#181818;stroke-width:1.0;" x1="77" x2="274.25" y1="273.0645" y2="273.0645"/><line style="stroke:#181818;stroke-width:1.0;" x1="274.25" x2="274.25" y1="273.0645" y2="290.5645"/><polygon fill="#181818" points="270.25,280.5645,274.25,290.5645,278.25,280.5645,274.25,284.5645" style="stroke:#181818;stroke-width:1.0;"/><line style="stroke:#181818;stroke-width:1.0;" x1="425.75" x2="425.75" y1="160.2832" y2="227.3301"/><line style="stroke:#181818;stroke-width:1.0;" x1="425.75" x2="133" y1="160.2832" y2="160.2832"/><polygon fill="#181818" points="143,156.2832,133,160.2832,143,164.2832,139,160.2832" style="stroke:#181818;stroke-width:1.0;"/><line style="stroke:#181818;stroke-width:1.0;" x1="274.25" x2="274.25" y1="115.1895" y2="120.1895"/><line style="stroke:#181818;stroke-width:1.0;" x1="274.25" x2="77" y1="120.1895" y2="120.1895"/><line style="stroke:#181818;stroke-width:1.0;" x1="77" x2="77" y1="120.1895" y2="135.1895"/><polygon fill="#181818" points="73,125.1895,77,135.1895,81,125.1895,77,129.1895" style="stroke:#181818;stroke-width:1.0;"/><line style="stroke:#181818;stroke-width:1.0;" x1="274.25" x2="274.25" y1="452.7646" y2="457.7646"/><line style="stroke:#181818;stroke-width:1.0;" x1="274.25" x2="554.75" y1="457.7646" y2="457.7646"/><line style="stroke:#181818;stroke-width:1.0;" x1="554.75" x2="554.75" y1="457.7646" y2="472.7646"/><polygon fill="#181818" points="550.75,462.7646,554.75,472.7646,558.75,462.7646,554.75,466.7646" style="stroke:#181818;stroke-width:1.0;"/><line style="stroke:#181818;stroke-width:1.0;" x1="632" x2="632" y1="622.0459" y2="627.0459"/><line style="stroke:#181818;stroke-width:1.0;" x1="632" x2="351.5" y1="627.0459" y2="627.0459"/><line style="stroke:#181818;stroke-width:1.0;" x1="351.5" x2="351.5" y1="627.0459" y2="642.0459"/><polygon fill="#181818" points="347.5,632.0459,351.5,642.0459,355.5,632.0459,351.5,636.0459" style="stroke:#181818;stroke-width:1.0;"/><line style="stroke:#181818;stroke-width:1.0;" x1="542.75" x2="197" y1="539.8584" y2="539.8584"/><line style="stroke:#181818;stroke-width:1.0;" x1="197" x2="197" y1="539.8584" y2="571.8584"/><polygon fill="#181818" points="193,561.8584,197,571.8584,201,561.8584,197,565.8584" style="stroke:#181818;stroke-width:1.0;"/><line style="stroke:#181818;stroke-width:1.0;" x1="197" x2="197" y1="622.0459" y2="714.2334"/><line style="stroke:#181818;stroke-width:1.0;" x1="197" x2="542.75" y1="714.2334" y2="714.2334"/><polygon fill="#181818" points="532.75,710.2334,542.75,714.2334,532.75,718.2334,536.75,714.2334" style="stroke:#181818;stroke-width:1.0;"/><line style="stroke:#181818;stroke-width:1.0;" x1="351.5" x2="351.5" y1="692.2334" y2="696.2334"/><line style="stroke:#181818;stroke-width:1.0;" x1="351.5" x2="584.75" y1="696.2334" y2="696.2334"/><line style="stroke:#181818;stroke-width:1.0;" x1="584.75" x2="584.75" y1="696.2334" y2="714.2334"/><line style="stroke:#181818;stroke-width:1.0;" x1="584.75" x2="566.75" y1="714.2334" y2="714.2334"/><polygon fill="#181818" points="576.75,710.2334,566.75,714.2334,576.75,718.2334,572.75,714.2334" style="stroke:#181818;stroke-width:1.0;"/><text fill="#000000" font-family="sans-serif" font-size="18" lengthAdjust="spacing" textLength="53" x="49.5" y="31.1406">Parent</text><text fill="#000000" font-family="sans-serif" font-size="18" lengthAdjust="spacing" textLength="59" x="280.875" y="31.1406">System</text><text fill="#000000" font-family="sans-serif" font-size="18" lengthAdjust="spacing" textLength="77" x="543.625" y="31.1406">Database</text><!--MD5=[9406d98a42caa84cd264a4d219f2c678]
@startuml SignUpForParentActi   
|Parent|
|System|
start
:(1) Display sign up view;  
    |Parent|  
repeat :(2) Enter register\ninformation;
    :(3) Click button\n"Sign Up";
    |System|
    :(4) Validate data format;
    backward :(4.1) Display\nerror notification;
repeat while () is (Invalid data) not (Valid data)       
    |System|
    :(4.2) Send data\nto database;
    |Database|
    :(5) Validate data;
if () then (Invalid data)
    |System|
    :(5.1) Display\nerror notification;
else (Valid data)
    |Database|
    :(5.2) Create\nnew account;
    |System|
    :(6) Automatically login\nand redirect to HomeView;
    endif
|Database|
stop
@enduml

PlantUML version 1.2022.7(Tue Aug 23 00:01:30 ICT 2022)
(GPL source distribution)
Java Runtime: Java(TM) SE Runtime Environment
JVM: Java HotSpot(TM) 64-Bit Server VM
Default Encoding: Cp1252
Language: en
Country: US
--></g></svg>