<?xml version="1.0" encoding="UTF-8" standalone="no"?><svg xmlns="http://www.w3.org/2000/svg" xmlns:xlink="http://www.w3.org/1999/xlink" contentStyleType="text/css" height="778px" preserveAspectRatio="none" style="width:1057px;height:778px;background:#FFFFFF;" version="1.1" viewBox="0 0 1057 778" width="1057px" zoomAndPan="magnify"><defs/><g><!--MD5=[59b530d44ae785dc18db921986a9c15c]
class Document--><g id="elem_Document"><rect codeLine="8" fill="#FFFAFA" height="100.8281" id="Document" rx="2.5" ry="2.5" style="stroke:#000000;stroke-width:0.5;" width="122" x="7" y="59.5"/><ellipse cx="33.7" cy="75.5" fill="#ADD1B2" rx="11" ry="11" style="stroke:#181818;stroke-width:1.0;"/><path d="M36.4656,71.375 Q36.6219,71.1563 36.8094,71.0469 Q36.9969,70.9375 37.2156,70.9375 Q37.5906,70.9375 37.825,71.1953 Q38.0594,71.4531 38.0594,72.0625 L38.0594,73.5156 Q38.0594,74.125 37.825,74.3906 Q37.5906,74.6563 37.2156,74.6563 Q36.8719,74.6563 36.6688,74.4531 Q36.4656,74.2656 36.3563,73.75 Q36.3094,73.3906 36.1219,73.2031 Q35.7938,72.8281 35.1844,72.6094 Q34.575,72.3906 33.95,72.3906 Q33.1844,72.3906 32.5516,72.7188 Q31.9188,73.0469 31.4266,73.7969 Q30.9344,74.5469 30.9344,75.5781 L30.9344,76.6719 Q30.9344,77.9063 31.825,78.7266 Q32.7156,79.5469 34.3094,79.5469 Q35.2469,79.5469 35.9031,79.2969 Q36.2938,79.1406 36.7156,78.7031 Q36.9813,78.4375 37.1297,78.3594 Q37.2781,78.2813 37.4813,78.2813 Q37.8094,78.2813 38.0672,78.5391 Q38.325,78.7969 38.325,79.1406 Q38.325,79.4844 37.9813,79.8906 Q37.4813,80.4688 36.6844,80.7969 Q35.6063,81.25 34.3094,81.25 Q32.7938,81.25 31.5906,80.625 Q30.6063,80.125 29.9188,79.0547 Q29.2313,77.9844 29.2313,76.7031 L29.2313,75.5469 Q29.2313,74.2188 29.8484,73.0703 Q30.4656,71.9219 31.5594,71.3047 Q32.6531,70.6875 33.8875,70.6875 Q34.6219,70.6875 35.2703,70.8516 Q35.9188,71.0156 36.4656,71.375 Z " fill="#000000"/><text fill="#000000" font-family="sans-serif" font-size="14" lengthAdjust="spacing" textLength="64" x="50.3" y="81.2285">Document</text><line style="stroke:#000000;stroke-width:0.5;" x1="8" x2="128" y1="91.5" y2="91.5"/><rect fill="none" height="6" style="stroke:#C82930;stroke-width:1.0;" width="6" x="15" y="102.8047"/><text fill="#000000" font-family="sans-serif" font-size="14" lengthAdjust="spacing" textLength="96" x="27" y="110.0332">documentId: int</text><rect fill="none" height="6" style="stroke:#C82930;stroke-width:1.0;" width="6" x="15" y="120.4141"/><text fill="#000000" font-family="sans-serif" font-size="14" lengthAdjust="spacing" textLength="67" x="27" y="127.6426">title: String</text><rect fill="none" height="6" style="stroke:#C82930;stroke-width:1.0;" width="6" x="15" y="138.0234"/><text fill="#000000" font-family="sans-serif" font-size="14" lengthAdjust="spacing" textLength="92" x="27" y="145.252">content: String</text><line style="stroke:#000000;stroke-width:0.5;" x1="8" x2="128" y1="152.3281" y2="152.3281"/></g><!--MD5=[f9a29335b499db729be669fd1bd54958]
class Account--><g id="elem_Account"><rect codeLine="14" fill="#FFFAFA" height="153.6563" id="Account" rx="2.5" ry="2.5" style="stroke:#000000;stroke-width:0.5;" width="134" x="184" y="33"/><ellipse cx="221.95" cy="49" fill="#ADD1B2" rx="11" ry="11" style="stroke:#181818;stroke-width:1.0;"/><path d="M224.7156,44.875 Q224.8719,44.6563 225.0594,44.5469 Q225.2469,44.4375 225.4656,44.4375 Q225.8406,44.4375 226.075,44.6953 Q226.3094,44.9531 226.3094,45.5625 L226.3094,47.0156 Q226.3094,47.625 226.075,47.8906 Q225.8406,48.1563 225.4656,48.1563 Q225.1219,48.1563 224.9188,47.9531 Q224.7156,47.7656 224.6063,47.25 Q224.5594,46.8906 224.3719,46.7031 Q224.0438,46.3281 223.4344,46.1094 Q222.825,45.8906 222.2,45.8906 Q221.4344,45.8906 220.8016,46.2188 Q220.1688,46.5469 219.6766,47.2969 Q219.1844,48.0469 219.1844,49.0781 L219.1844,50.1719 Q219.1844,51.4063 220.075,52.2266 Q220.9656,53.0469 222.5594,53.0469 Q223.4969,53.0469 224.1531,52.7969 Q224.5438,52.6406 224.9656,52.2031 Q225.2313,51.9375 225.3797,51.8594 Q225.5281,51.7813 225.7313,51.7813 Q226.0594,51.7813 226.3172,52.0391 Q226.575,52.2969 226.575,52.6406 Q226.575,52.9844 226.2313,53.3906 Q225.7313,53.9688 224.9344,54.2969 Q223.8563,54.75 222.5594,54.75 Q221.0438,54.75 219.8406,54.125 Q218.8563,53.625 218.1688,52.5547 Q217.4813,51.4844 217.4813,50.2031 L217.4813,49.0469 Q217.4813,47.7188 218.0984,46.5703 Q218.7156,45.4219 219.8094,44.8047 Q220.9031,44.1875 222.1375,44.1875 Q222.8719,44.1875 223.5203,44.3516 Q224.1688,44.5156 224.7156,44.875 Z " fill="#000000"/><text fill="#000000" font-family="sans-serif" font-size="14" lengthAdjust="spacing" textLength="51" x="241.05" y="54.7285">Account</text><line style="stroke:#000000;stroke-width:0.5;" x1="185" x2="317" y1="65" y2="65"/><rect fill="none" height="6" style="stroke:#C82930;stroke-width:1.0;" width="6" x="192" y="76.3047"/><text fill="#000000" font-family="sans-serif" font-size="14" lengthAdjust="spacing" textLength="84" x="204" y="83.5332">accountId: int</text><rect fill="none" height="6" style="stroke:#C82930;stroke-width:1.0;" width="6" x="192" y="93.9141"/><text fill="#000000" font-family="sans-serif" font-size="14" lengthAdjust="spacing" textLength="108" x="204" y="101.1426">username: String</text><rect fill="none" height="6" style="stroke:#C82930;stroke-width:1.0;" width="6" x="192" y="111.5234"/><text fill="#000000" font-family="sans-serif" font-size="14" lengthAdjust="spacing" textLength="105" x="204" y="118.752">password: String</text><rect fill="none" height="6" style="stroke:#C82930;stroke-width:1.0;" width="6" x="192" y="129.1328"/><text fill="#000000" font-family="sans-serif" font-size="14" lengthAdjust="spacing" textLength="104" x="204" y="136.3613">firstName: String</text><rect fill="none" height="6" style="stroke:#C82930;stroke-width:1.0;" width="6" x="192" y="146.7422"/><text fill="#000000" font-family="sans-serif" font-size="14" lengthAdjust="spacing" textLength="103" x="204" y="153.9707">lastName: String</text><rect fill="none" height="6" style="stroke:#C82930;stroke-width:1.0;" width="6" x="192" y="164.3516"/><text fill="#000000" font-family="sans-serif" font-size="14" lengthAdjust="spacing" textLength="78" x="204" y="171.5801">email: String</text><line style="stroke:#000000;stroke-width:0.5;" x1="185" x2="317" y1="178.6563" y2="178.6563"/></g><polygon fill="none" points="251,186.6563,258,206.6563,244,206.6563" style="stroke:#000000;stroke-width:1.0;"/><line style="stroke:#000000;stroke-width:1.0;" x1="251" x2="251" y1="206.6563" y2="208"/><!--MD5=[cf9bc73d4b319b8f5d50999aecc13d13]
class Parent--><g id="elem_Parent"><rect codeLine="23" fill="#FFFAFA" height="83.2188" id="Parent" rx="2.5" ry="2.5" style="stroke:#000000;stroke-width:0.5;" width="122" x="278" y="282"/><ellipse cx="314.6" cy="298" fill="#ADD1B2" rx="11" ry="11" style="stroke:#181818;stroke-width:1.0;"/><path d="M317.3656,293.875 Q317.5219,293.6563 317.7094,293.5469 Q317.8969,293.4375 318.1156,293.4375 Q318.4906,293.4375 318.725,293.6953 Q318.9594,293.9531 318.9594,294.5625 L318.9594,296.0156 Q318.9594,296.625 318.725,296.8906 Q318.4906,297.1563 318.1156,297.1563 Q317.7719,297.1563 317.5688,296.9531 Q317.3656,296.7656 317.2563,296.25 Q317.2094,295.8906 317.0219,295.7031 Q316.6938,295.3281 316.0844,295.1094 Q315.475,294.8906 314.85,294.8906 Q314.0844,294.8906 313.4516,295.2188 Q312.8188,295.5469 312.3266,296.2969 Q311.8344,297.0469 311.8344,298.0781 L311.8344,299.1719 Q311.8344,300.4063 312.725,301.2266 Q313.6156,302.0469 315.2094,302.0469 Q316.1469,302.0469 316.8031,301.7969 Q317.1938,301.6406 317.6156,301.2031 Q317.8813,300.9375 318.0297,300.8594 Q318.1781,300.7813 318.3813,300.7813 Q318.7094,300.7813 318.9672,301.0391 Q319.225,301.2969 319.225,301.6406 Q319.225,301.9844 318.8813,302.3906 Q318.3813,302.9688 317.5844,303.2969 Q316.5063,303.75 315.2094,303.75 Q313.6938,303.75 312.4906,303.125 Q311.5063,302.625 310.8188,301.5547 Q310.1313,300.4844 310.1313,299.2031 L310.1313,298.0469 Q310.1313,296.7188 310.7484,295.5703 Q311.3656,294.4219 312.4594,293.8047 Q313.5531,293.1875 314.7875,293.1875 Q315.5219,293.1875 316.1703,293.3516 Q316.8188,293.5156 317.3656,293.875 Z " fill="#000000"/><text fill="#000000" font-family="sans-serif" font-size="14" lengthAdjust="spacing" textLength="42" x="333.4" y="303.7285">Parent</text><line style="stroke:#000000;stroke-width:0.5;" x1="279" x2="399" y1="314" y2="314"/><rect fill="none" height="6" style="stroke:#C82930;stroke-width:1.0;" width="6" x="286" y="325.3047"/><text fill="#000000" font-family="sans-serif" font-size="14" lengthAdjust="spacing" textLength="75" x="298" y="332.5332">parentId: int</text><rect fill="none" height="6" style="stroke:#C82930;stroke-width:1.0;" width="6" x="286" y="342.9141"/><text fill="#000000" font-family="sans-serif" font-size="14" lengthAdjust="spacing" textLength="96" x="298" y="350.1426">address: String</text><line style="stroke:#000000;stroke-width:0.5;" x1="279" x2="399" y1="357.2188" y2="357.2188"/></g><!--MD5=[5a42d898e2a5d299cc26761d1eaa7d84]
class Doctor--><g id="elem_Doctor"><rect codeLine="28" fill="#FFFAFA" height="100.8281" id="Doctor" rx="2.5" ry="2.5" style="stroke:#000000;stroke-width:0.5;" width="160" x="83" y="273"/><ellipse cx="137.75" cy="289" fill="#ADD1B2" rx="11" ry="11" style="stroke:#181818;stroke-width:1.0;"/><path d="M140.5156,284.875 Q140.6719,284.6563 140.8594,284.5469 Q141.0469,284.4375 141.2656,284.4375 Q141.6406,284.4375 141.875,284.6953 Q142.1094,284.9531 142.1094,285.5625 L142.1094,287.0156 Q142.1094,287.625 141.875,287.8906 Q141.6406,288.1563 141.2656,288.1563 Q140.9219,288.1563 140.7188,287.9531 Q140.5156,287.7656 140.4063,287.25 Q140.3594,286.8906 140.1719,286.7031 Q139.8438,286.3281 139.2344,286.1094 Q138.625,285.8906 138,285.8906 Q137.2344,285.8906 136.6016,286.2188 Q135.9688,286.5469 135.4766,287.2969 Q134.9844,288.0469 134.9844,289.0781 L134.9844,290.1719 Q134.9844,291.4063 135.875,292.2266 Q136.7656,293.0469 138.3594,293.0469 Q139.2969,293.0469 139.9531,292.7969 Q140.3438,292.6406 140.7656,292.2031 Q141.0313,291.9375 141.1797,291.8594 Q141.3281,291.7813 141.5313,291.7813 Q141.8594,291.7813 142.1172,292.0391 Q142.375,292.2969 142.375,292.6406 Q142.375,292.9844 142.0313,293.3906 Q141.5313,293.9688 140.7344,294.2969 Q139.6563,294.75 138.3594,294.75 Q136.8438,294.75 135.6406,294.125 Q134.6563,293.625 133.9688,292.5547 Q133.2813,291.4844 133.2813,290.2031 L133.2813,289.0469 Q133.2813,287.7188 133.8984,286.5703 Q134.5156,285.4219 135.6094,284.8047 Q136.7031,284.1875 137.9375,284.1875 Q138.6719,284.1875 139.3203,284.3516 Q139.9688,284.5156 140.5156,284.875 Z " fill="#000000"/><text fill="#000000" font-family="sans-serif" font-size="14" lengthAdjust="spacing" textLength="42" x="158.25" y="294.7285">Doctor</text><line style="stroke:#000000;stroke-width:0.5;" x1="84" x2="242" y1="305" y2="305"/><rect fill="none" height="6" style="stroke:#C82930;stroke-width:1.0;" width="6" x="91" y="316.3047"/><text fill="#000000" font-family="sans-serif" font-size="14" lengthAdjust="spacing" textLength="74" x="103" y="323.5332">doctorId: int</text><rect fill="none" height="6" style="stroke:#C82930;stroke-width:1.0;" width="6" x="91" y="333.9141"/><text fill="#000000" font-family="sans-serif" font-size="14" lengthAdjust="spacing" textLength="134" x="103" y="341.1426">phoneNumber: String</text><rect fill="none" height="6" style="stroke:#C82930;stroke-width:1.0;" width="6" x="91" y="351.5234"/><text fill="#000000" font-family="sans-serif" font-size="14" lengthAdjust="spacing" textLength="103" x="103" y="358.752">speciality: String</text><line style="stroke:#000000;stroke-width:0.5;" x1="84" x2="242" y1="365.8281" y2="365.8281"/></g><!--MD5=[661c05259cf57e4b4baa54079a4420a8]
class Child--><g id="elem_Child"><rect codeLine="37" fill="#FFFAFA" height="206.4844" id="Child" rx="2.5" ry="2.5" style="stroke:#000000;stroke-width:0.5;" width="136" x="529" y="7"/><ellipse cx="576.75" cy="23" fill="#ADD1B2" rx="11" ry="11" style="stroke:#181818;stroke-width:1.0;"/><path d="M579.5156,18.875 Q579.6719,18.6563 579.8594,18.5469 Q580.0469,18.4375 580.2656,18.4375 Q580.6406,18.4375 580.875,18.6953 Q581.1094,18.9531 581.1094,19.5625 L581.1094,21.0156 Q581.1094,21.625 580.875,21.8906 Q580.6406,22.1563 580.2656,22.1563 Q579.9219,22.1563 579.7188,21.9531 Q579.5156,21.7656 579.4063,21.25 Q579.3594,20.8906 579.1719,20.7031 Q578.8438,20.3281 578.2344,20.1094 Q577.625,19.8906 577,19.8906 Q576.2344,19.8906 575.6016,20.2188 Q574.9688,20.5469 574.4766,21.2969 Q573.9844,22.0469 573.9844,23.0781 L573.9844,24.1719 Q573.9844,25.4063 574.875,26.2266 Q575.7656,27.0469 577.3594,27.0469 Q578.2969,27.0469 578.9531,26.7969 Q579.3438,26.6406 579.7656,26.2031 Q580.0313,25.9375 580.1797,25.8594 Q580.3281,25.7813 580.5313,25.7813 Q580.8594,25.7813 581.1172,26.0391 Q581.375,26.2969 581.375,26.6406 Q581.375,26.9844 581.0313,27.3906 Q580.5313,27.9688 579.7344,28.2969 Q578.6563,28.75 577.3594,28.75 Q575.8438,28.75 574.6406,28.125 Q573.6563,27.625 572.9688,26.5547 Q572.2813,25.4844 572.2813,24.2031 L572.2813,23.0469 Q572.2813,21.7188 572.8984,20.5703 Q573.5156,19.4219 574.6094,18.8047 Q575.7031,18.1875 576.9375,18.1875 Q577.6719,18.1875 578.3203,18.3516 Q578.9688,18.5156 579.5156,18.875 Z " fill="#000000"/><text fill="#000000" font-family="sans-serif" font-size="14" lengthAdjust="spacing" textLength="32" x="597.25" y="28.7285">Child</text><line style="stroke:#000000;stroke-width:0.5;" x1="530" x2="664" y1="39" y2="39"/><rect fill="none" height="6" style="stroke:#C82930;stroke-width:1.0;" width="6" x="537" y="50.3047"/><text fill="#000000" font-family="sans-serif" font-size="14" lengthAdjust="spacing" textLength="63" x="549" y="57.5332">childId: int</text><rect fill="none" height="6" style="stroke:#C82930;stroke-width:1.0;" width="6" x="537" y="67.9141"/><text fill="#000000" font-family="sans-serif" font-size="14" lengthAdjust="spacing" textLength="75" x="549" y="75.1426">parentId: int</text><rect fill="none" height="6" style="stroke:#C82930;stroke-width:1.0;" width="6" x="537" y="85.5234"/><text fill="#000000" font-family="sans-serif" font-size="14" lengthAdjust="spacing" textLength="104" x="549" y="92.752">firstName: String</text><rect fill="none" height="6" style="stroke:#C82930;stroke-width:1.0;" width="6" x="537" y="103.1328"/><text fill="#000000" font-family="sans-serif" font-size="14" lengthAdjust="spacing" textLength="103" x="549" y="110.3613">lastName: String</text><rect fill="none" height="6" style="stroke:#C82930;stroke-width:1.0;" width="6" x="537" y="120.7422"/><text fill="#000000" font-family="sans-serif" font-size="14" lengthAdjust="spacing" textLength="110" x="549" y="127.9707">dateOfBirth: Date</text><rect fill="none" height="6" style="stroke:#C82930;stroke-width:1.0;" width="6" x="537" y="138.3516"/><text fill="#000000" font-family="sans-serif" font-size="14" lengthAdjust="spacing" textLength="90" x="549" y="145.5801">gender: String</text><rect fill="none" height="6" style="stroke:#C82930;stroke-width:1.0;" width="6" x="537" y="155.9609"/><text fill="#000000" font-family="sans-serif" font-size="14" lengthAdjust="spacing" textLength="90" x="549" y="163.1895">height: double</text><rect fill="none" height="6" style="stroke:#C82930;stroke-width:1.0;" width="6" x="537" y="173.5703"/><text fill="#000000" font-family="sans-serif" font-size="14" lengthAdjust="spacing" textLength="91" x="549" y="180.7988">weight: double</text><rect fill="none" height="6" style="stroke:#C82930;stroke-width:1.0;" width="6" x="537" y="191.1797"/><text fill="#000000" font-family="sans-serif" font-size="14" lengthAdjust="spacing" textLength="73" x="549" y="198.4082">note: String</text><line style="stroke:#000000;stroke-width:0.5;" x1="530" x2="664" y1="205.4844" y2="205.4844"/></g><!--MD5=[f87772265d819ff4919e920394a15e21]
class DoctorInstruction--><g id="elem_DoctorInstruction"><rect codeLine="49" fill="#FFFAFA" height="100.8281" id="DoctorInstruction" rx="2.5" ry="2.5" style="stroke:#000000;stroke-width:0.5;" width="139" x="447.5" y="454"/><ellipse cx="462.5" cy="470" fill="#ADD1B2" rx="11" ry="11" style="stroke:#181818;stroke-width:1.0;"/><path d="M465.2656,465.875 Q465.4219,465.6563 465.6094,465.5469 Q465.7969,465.4375 466.0156,465.4375 Q466.3906,465.4375 466.625,465.6953 Q466.8594,465.9531 466.8594,466.5625 L466.8594,468.0156 Q466.8594,468.625 466.625,468.8906 Q466.3906,469.1563 466.0156,469.1563 Q465.6719,469.1563 465.4688,468.9531 Q465.2656,468.7656 465.1563,468.25 Q465.1094,467.8906 464.9219,467.7031 Q464.5938,467.3281 463.9844,467.1094 Q463.375,466.8906 462.75,466.8906 Q461.9844,466.8906 461.3516,467.2188 Q460.7188,467.5469 460.2266,468.2969 Q459.7344,469.0469 459.7344,470.0781 L459.7344,471.1719 Q459.7344,472.4063 460.625,473.2266 Q461.5156,474.0469 463.1094,474.0469 Q464.0469,474.0469 464.7031,473.7969 Q465.0938,473.6406 465.5156,473.2031 Q465.7813,472.9375 465.9297,472.8594 Q466.0781,472.7813 466.2813,472.7813 Q466.6094,472.7813 466.8672,473.0391 Q467.125,473.2969 467.125,473.6406 Q467.125,473.9844 466.7813,474.3906 Q466.2813,474.9688 465.4844,475.2969 Q464.4063,475.75 463.1094,475.75 Q461.5938,475.75 460.3906,475.125 Q459.4063,474.625 458.7188,473.5547 Q458.0313,472.4844 458.0313,471.2031 L458.0313,470.0469 Q458.0313,468.7188 458.6484,467.5703 Q459.2656,466.4219 460.3594,465.8047 Q461.4531,465.1875 462.6875,465.1875 Q463.4219,465.1875 464.0703,465.3516 Q464.7188,465.5156 465.2656,465.875 Z " fill="#000000"/><text fill="#000000" font-family="sans-serif" font-size="14" lengthAdjust="spacing" textLength="107" x="476.5" y="475.7285">DoctorInstruction</text><line style="stroke:#000000;stroke-width:0.5;" x1="448.5" x2="585.5" y1="486" y2="486"/><rect fill="none" height="6" style="stroke:#C82930;stroke-width:1.0;" width="6" x="455.5" y="497.3047"/><text fill="#000000" font-family="sans-serif" font-size="14" lengthAdjust="spacing" textLength="63" x="467.5" y="504.5332">childId: int</text><rect fill="none" height="6" style="stroke:#C82930;stroke-width:1.0;" width="6" x="455.5" y="514.9141"/><text fill="#000000" font-family="sans-serif" font-size="14" lengthAdjust="spacing" textLength="74" x="467.5" y="522.1426">doctorId: int</text><rect fill="none" height="6" style="stroke:#C82930;stroke-width:1.0;" width="6" x="455.5" y="532.5234"/><text fill="#000000" font-family="sans-serif" font-size="14" lengthAdjust="spacing" textLength="66" x="467.5" y="539.752">date: Date</text><line style="stroke:#000000;stroke-width:0.5;" x1="448.5" x2="585.5" y1="546.8281" y2="546.8281"/></g><polygon fill="none" points="513.5032,554.8281,519.1025,575.2646,505.1361,574.2958" style="stroke:#000000;stroke-width:1.0;"/><line style="stroke:#000000;stroke-width:1.0;" x1="512.1193" x2="512" y1="574.7802" y2="576.5"/><line style="stroke:#000000;stroke-width:1.0;" x1="512.1608" x2="510.24" y1="454" y2="433.99"/><line style="stroke:#000000;stroke-width:1.0;" x1="447.5" x2="427.29" y1="457.6102" y2="444"/><!--MD5=[e6c01ac3c69e66d1cf255bf3522518de]
class Prescription--><g id="elem_Prescription"><rect codeLine="55" fill="#FFFAFA" height="65.6094" id="Prescription" rx="2.5" ry="2.5" style="stroke:#000000;stroke-width:0.5;" width="134" x="304" y="670"/><ellipse cx="331.15" cy="686" fill="#ADD1B2" rx="11" ry="11" style="stroke:#181818;stroke-width:1.0;"/><path d="M333.9156,681.875 Q334.0719,681.6563 334.2594,681.5469 Q334.4469,681.4375 334.6656,681.4375 Q335.0406,681.4375 335.275,681.6953 Q335.5094,681.9531 335.5094,682.5625 L335.5094,684.0156 Q335.5094,684.625 335.275,684.8906 Q335.0406,685.1563 334.6656,685.1563 Q334.3219,685.1563 334.1188,684.9531 Q333.9156,684.7656 333.8063,684.25 Q333.7594,683.8906 333.5719,683.7031 Q333.2438,683.3281 332.6344,683.1094 Q332.025,682.8906 331.4,682.8906 Q330.6344,682.8906 330.0016,683.2188 Q329.3688,683.5469 328.8766,684.2969 Q328.3844,685.0469 328.3844,686.0781 L328.3844,687.1719 Q328.3844,688.4063 329.275,689.2266 Q330.1656,690.0469 331.7594,690.0469 Q332.6969,690.0469 333.3531,689.7969 Q333.7438,689.6406 334.1656,689.2031 Q334.4313,688.9375 334.5797,688.8594 Q334.7281,688.7813 334.9313,688.7813 Q335.2594,688.7813 335.5172,689.0391 Q335.775,689.2969 335.775,689.6406 Q335.775,689.9844 335.4313,690.3906 Q334.9313,690.9688 334.1344,691.2969 Q333.0563,691.75 331.7594,691.75 Q330.2438,691.75 329.0406,691.125 Q328.0563,690.625 327.3688,689.5547 Q326.6813,688.4844 326.6813,687.2031 L326.6813,686.0469 Q326.6813,684.7188 327.2984,683.5703 Q327.9156,682.4219 329.0094,681.8047 Q330.1031,681.1875 331.3375,681.1875 Q332.0719,681.1875 332.7203,681.3516 Q333.3688,681.5156 333.9156,681.875 Z " fill="#000000"/><text fill="#000000" font-family="sans-serif" font-size="14" lengthAdjust="spacing" textLength="75" x="347.85" y="691.7285">Prescription</text><line style="stroke:#000000;stroke-width:0.5;" x1="305" x2="437" y1="702" y2="702"/><rect fill="none" height="6" style="stroke:#C82930;stroke-width:1.0;" width="6" x="312" y="713.3047"/><text fill="#000000" font-family="sans-serif" font-size="14" lengthAdjust="spacing" textLength="108" x="324" y="720.5332">prescriptionId: int</text><line style="stroke:#000000;stroke-width:0.5;" x1="305" x2="437" y1="727.6094" y2="727.6094"/></g><!--MD5=[e4c0252fc9d14f0a1ecbf4c860935157]
class PrescriptionDetail--><g id="elem_PrescriptionDetail"><rect codeLine="59" fill="#FFFAFA" height="136.0469" id="PrescriptionDetail" rx="2.5" ry="2.5" style="stroke:#000000;stroke-width:0.5;" width="170" x="222" y="436.5"/><ellipse cx="249.15" cy="452.5" fill="#ADD1B2" rx="11" ry="11" style="stroke:#181818;stroke-width:1.0;"/><path d="M251.9156,448.375 Q252.0719,448.1563 252.2594,448.0469 Q252.4469,447.9375 252.6656,447.9375 Q253.0406,447.9375 253.275,448.1953 Q253.5094,448.4531 253.5094,449.0625 L253.5094,450.5156 Q253.5094,451.125 253.275,451.3906 Q253.0406,451.6563 252.6656,451.6563 Q252.3219,451.6563 252.1188,451.4531 Q251.9156,451.2656 251.8063,450.75 Q251.7594,450.3906 251.5719,450.2031 Q251.2438,449.8281 250.6344,449.6094 Q250.025,449.3906 249.4,449.3906 Q248.6344,449.3906 248.0016,449.7188 Q247.3688,450.0469 246.8766,450.7969 Q246.3844,451.5469 246.3844,452.5781 L246.3844,453.6719 Q246.3844,454.9063 247.275,455.7266 Q248.1656,456.5469 249.7594,456.5469 Q250.6969,456.5469 251.3531,456.2969 Q251.7438,456.1406 252.1656,455.7031 Q252.4313,455.4375 252.5797,455.3594 Q252.7281,455.2813 252.9313,455.2813 Q253.2594,455.2813 253.5172,455.5391 Q253.775,455.7969 253.775,456.1406 Q253.775,456.4844 253.4313,456.8906 Q252.9313,457.4688 252.1344,457.7969 Q251.0563,458.25 249.7594,458.25 Q248.2438,458.25 247.0406,457.625 Q246.0563,457.125 245.3688,456.0547 Q244.6813,454.9844 244.6813,453.7031 L244.6813,452.5469 Q244.6813,451.2188 245.2984,450.0703 Q245.9156,448.9219 247.0094,448.3047 Q248.1031,447.6875 249.3375,447.6875 Q250.0719,447.6875 250.7203,447.8516 Q251.3688,448.0156 251.9156,448.375 Z " fill="#000000"/><text fill="#000000" font-family="sans-serif" font-size="14" lengthAdjust="spacing" textLength="111" x="265.85" y="458.2285">PrescriptionDetail</text><line style="stroke:#000000;stroke-width:0.5;" x1="223" x2="391" y1="468.5" y2="468.5"/><rect fill="none" height="6" style="stroke:#C82930;stroke-width:1.0;" width="6" x="230" y="479.8047"/><text fill="#000000" font-family="sans-serif" font-size="14" lengthAdjust="spacing" textLength="144" x="242" y="487.0332">prescriptionDetailId: int</text><rect fill="none" height="6" style="stroke:#C82930;stroke-width:1.0;" width="6" x="230" y="497.4141"/><text fill="#000000" font-family="sans-serif" font-size="14" lengthAdjust="spacing" textLength="108" x="242" y="504.6426">prescriptionId: int</text><rect fill="none" height="6" style="stroke:#C82930;stroke-width:1.0;" width="6" x="230" y="515.0234"/><text fill="#000000" font-family="sans-serif" font-size="14" lengthAdjust="spacing" textLength="137" x="242" y="522.252">medicineName: String</text><rect fill="none" height="6" style="stroke:#C82930;stroke-width:1.0;" width="6" x="230" y="532.6328"/><text fill="#000000" font-family="sans-serif" font-size="14" lengthAdjust="spacing" textLength="92" x="242" y="539.8613">dosage: String</text><rect fill="none" height="6" style="stroke:#C82930;stroke-width:1.0;" width="6" x="230" y="550.2422"/><text fill="#000000" font-family="sans-serif" font-size="14" lengthAdjust="spacing" textLength="117" x="242" y="557.4707">instructions: String</text><line style="stroke:#000000;stroke-width:0.5;" x1="223" x2="391" y1="564.5469" y2="564.5469"/></g><!--MD5=[1eff15c1769a8459ea4d5cc123625946]
class ImmunizationSchedule--><g id="elem_ImmunizationSchedule"><rect codeLine="67" fill="#FFFAFA" height="65.6094" id="ImmunizationSchedule" rx="2.5" ry="2.5" style="stroke:#000000;stroke-width:0.5;" width="172" x="537" y="670"/><ellipse cx="552" cy="686" fill="#ADD1B2" rx="11" ry="11" style="stroke:#181818;stroke-width:1.0;"/><path d="M554.7656,681.875 Q554.9219,681.6563 555.1094,681.5469 Q555.2969,681.4375 555.5156,681.4375 Q555.8906,681.4375 556.125,681.6953 Q556.3594,681.9531 556.3594,682.5625 L556.3594,684.0156 Q556.3594,684.625 556.125,684.8906 Q555.8906,685.1563 555.5156,685.1563 Q555.1719,685.1563 554.9688,684.9531 Q554.7656,684.7656 554.6563,684.25 Q554.6094,683.8906 554.4219,683.7031 Q554.0938,683.3281 553.4844,683.1094 Q552.875,682.8906 552.25,682.8906 Q551.4844,682.8906 550.8516,683.2188 Q550.2188,683.5469 549.7266,684.2969 Q549.2344,685.0469 549.2344,686.0781 L549.2344,687.1719 Q549.2344,688.4063 550.125,689.2266 Q551.0156,690.0469 552.6094,690.0469 Q553.5469,690.0469 554.2031,689.7969 Q554.5938,689.6406 555.0156,689.2031 Q555.2813,688.9375 555.4297,688.8594 Q555.5781,688.7813 555.7813,688.7813 Q556.1094,688.7813 556.3672,689.0391 Q556.625,689.2969 556.625,689.6406 Q556.625,689.9844 556.2813,690.3906 Q555.7813,690.9688 554.9844,691.2969 Q553.9063,691.75 552.6094,691.75 Q551.0938,691.75 549.8906,691.125 Q548.9063,690.625 548.2188,689.5547 Q547.5313,688.4844 547.5313,687.2031 L547.5313,686.0469 Q547.5313,684.7188 548.1484,683.5703 Q548.7656,682.4219 549.8594,681.8047 Q550.9531,681.1875 552.1875,681.1875 Q552.9219,681.1875 553.5703,681.3516 Q554.2188,681.5156 554.7656,681.875 Z " fill="#000000"/><text fill="#000000" font-family="sans-serif" font-size="14" lengthAdjust="spacing" textLength="140" x="566" y="691.7285">ImmunizationSchedule</text><line style="stroke:#000000;stroke-width:0.5;" x1="538" x2="708" y1="702" y2="702"/><rect fill="none" height="6" style="stroke:#C82930;stroke-width:1.0;" width="6" x="545" y="713.3047"/><text fill="#000000" font-family="sans-serif" font-size="14" lengthAdjust="spacing" textLength="91" x="557" y="720.5332">scheduleId: int</text><line style="stroke:#000000;stroke-width:0.5;" x1="538" x2="708" y1="727.6094" y2="727.6094"/></g><!--MD5=[888b49e9bead6742ea2f1f0adb586fcf]
class ImmunizationDetail--><g id="elem_ImmunizationDetail"><rect codeLine="71" fill="#FFFAFA" height="136.0469" id="ImmunizationDetail" rx="2.5" ry="2.5" style="stroke:#000000;stroke-width:0.5;" width="177" x="641.5" y="436.5"/><ellipse cx="669.1" cy="452.5" fill="#ADD1B2" rx="11" ry="11" style="stroke:#181818;stroke-width:1.0;"/><path d="M671.8656,448.375 Q672.0219,448.1563 672.2094,448.0469 Q672.3969,447.9375 672.6156,447.9375 Q672.9906,447.9375 673.225,448.1953 Q673.4594,448.4531 673.4594,449.0625 L673.4594,450.5156 Q673.4594,451.125 673.225,451.3906 Q672.9906,451.6563 672.6156,451.6563 Q672.2719,451.6563 672.0688,451.4531 Q671.8656,451.2656 671.7563,450.75 Q671.7094,450.3906 671.5219,450.2031 Q671.1938,449.8281 670.5844,449.6094 Q669.975,449.3906 669.35,449.3906 Q668.5844,449.3906 667.9516,449.7188 Q667.3188,450.0469 666.8266,450.7969 Q666.3344,451.5469 666.3344,452.5781 L666.3344,453.6719 Q666.3344,454.9063 667.225,455.7266 Q668.1156,456.5469 669.7094,456.5469 Q670.6469,456.5469 671.3031,456.2969 Q671.6938,456.1406 672.1156,455.7031 Q672.3813,455.4375 672.5297,455.3594 Q672.6781,455.2813 672.8813,455.2813 Q673.2094,455.2813 673.4672,455.5391 Q673.725,455.7969 673.725,456.1406 Q673.725,456.4844 673.3813,456.8906 Q672.8813,457.4688 672.0844,457.7969 Q671.0063,458.25 669.7094,458.25 Q668.1938,458.25 666.9906,457.625 Q666.0063,457.125 665.3188,456.0547 Q664.6313,454.9844 664.6313,453.7031 L664.6313,452.5469 Q664.6313,451.2188 665.2484,450.0703 Q665.8656,448.9219 666.9594,448.3047 Q668.0531,447.6875 669.2875,447.6875 Q670.0219,447.6875 670.6703,447.8516 Q671.3188,448.0156 671.8656,448.375 Z " fill="#000000"/><text fill="#000000" font-family="sans-serif" font-size="14" lengthAdjust="spacing" textLength="117" x="685.9" y="458.2285">ImmunizationDetail</text><line style="stroke:#000000;stroke-width:0.5;" x1="642.5" x2="817.5" y1="468.5" y2="468.5"/><rect fill="none" height="6" style="stroke:#C82930;stroke-width:1.0;" width="6" x="649.5" y="479.8047"/><text fill="#000000" font-family="sans-serif" font-size="14" lengthAdjust="spacing" textLength="151" x="661.5" y="487.0332">immunizationDetailId: int</text><rect fill="none" height="6" style="stroke:#C82930;stroke-width:1.0;" width="6" x="649.5" y="497.4141"/><text fill="#000000" font-family="sans-serif" font-size="14" lengthAdjust="spacing" textLength="91" x="661.5" y="504.6426">scheduleId: int</text><rect fill="none" height="6" style="stroke:#C82930;stroke-width:1.0;" width="6" x="649.5" y="515.0234"/><text fill="#000000" font-family="sans-serif" font-size="14" lengthAdjust="spacing" textLength="129" x="661.5" y="522.252">vaccineName: String</text><rect fill="none" height="6" style="stroke:#C82930;stroke-width:1.0;" width="6" x="649.5" y="532.6328"/><text fill="#000000" font-family="sans-serif" font-size="14" lengthAdjust="spacing" textLength="92" x="661.5" y="539.8613">dosage: String</text><rect fill="none" height="6" style="stroke:#C82930;stroke-width:1.0;" width="6" x="649.5" y="550.2422"/><text fill="#000000" font-family="sans-serif" font-size="14" lengthAdjust="spacing" textLength="73" x="661.5" y="557.4707">note: String</text><line style="stroke:#000000;stroke-width:0.5;" x1="642.5" x2="817.5" y1="564.5469" y2="564.5469"/></g><!--MD5=[c881b25adf3665c6568c9693d41a70f3]
class Activity--><g id="elem_Activity"><rect codeLine="82" fill="#FFFAFA" height="136.0469" id="Activity" rx="2.5" ry="2.5" style="stroke:#000000;stroke-width:0.5;" width="140" x="720" y="42"/><ellipse cx="763.8" cy="58" fill="#ADD1B2" rx="11" ry="11" style="stroke:#181818;stroke-width:1.0;"/><path d="M766.5656,53.875 Q766.7219,53.6563 766.9094,53.5469 Q767.0969,53.4375 767.3156,53.4375 Q767.6906,53.4375 767.925,53.6953 Q768.1594,53.9531 768.1594,54.5625 L768.1594,56.0156 Q768.1594,56.625 767.925,56.8906 Q767.6906,57.1563 767.3156,57.1563 Q766.9719,57.1563 766.7688,56.9531 Q766.5656,56.7656 766.4563,56.25 Q766.4094,55.8906 766.2219,55.7031 Q765.8938,55.3281 765.2844,55.1094 Q764.675,54.8906 764.05,54.8906 Q763.2844,54.8906 762.6516,55.2188 Q762.0188,55.5469 761.5266,56.2969 Q761.0344,57.0469 761.0344,58.0781 L761.0344,59.1719 Q761.0344,60.4063 761.925,61.2266 Q762.8156,62.0469 764.4094,62.0469 Q765.3469,62.0469 766.0031,61.7969 Q766.3938,61.6406 766.8156,61.2031 Q767.0813,60.9375 767.2297,60.8594 Q767.3781,60.7813 767.5813,60.7813 Q767.9094,60.7813 768.1672,61.0391 Q768.425,61.2969 768.425,61.6406 Q768.425,61.9844 768.0813,62.3906 Q767.5813,62.9688 766.7844,63.2969 Q765.7063,63.75 764.4094,63.75 Q762.8938,63.75 761.6906,63.125 Q760.7063,62.625 760.0188,61.5547 Q759.3313,60.4844 759.3313,59.2031 L759.3313,58.0469 Q759.3313,56.7188 759.9484,55.5703 Q760.5656,54.4219 761.6594,53.8047 Q762.7531,53.1875 763.9875,53.1875 Q764.7219,53.1875 765.3703,53.3516 Q766.0188,53.5156 766.5656,53.875 Z " fill="#000000"/><text fill="#000000" font-family="sans-serif" font-size="14" lengthAdjust="spacing" textLength="44" x="784.2" y="63.7285">Activity</text><line style="stroke:#000000;stroke-width:0.5;" x1="721" x2="859" y1="74" y2="74"/><rect fill="none" height="6" style="stroke:#C82930;stroke-width:1.0;" width="6" x="728" y="85.3047"/><text fill="#000000" font-family="sans-serif" font-size="14" lengthAdjust="spacing" textLength="111" x="740" y="92.5332">activityDate: Date</text><rect fill="none" height="6" style="stroke:#C82930;stroke-width:1.0;" width="6" x="728" y="102.9141"/><text fill="#000000" font-family="sans-serif" font-size="14" lengthAdjust="spacing" textLength="98" x="740" y="110.1426">startTime: Time</text><rect fill="none" height="6" style="stroke:#C82930;stroke-width:1.0;" width="6" x="728" y="120.5234"/><text fill="#000000" font-family="sans-serif" font-size="14" lengthAdjust="spacing" textLength="94" x="740" y="127.752">endTime: Time</text><rect fill="none" height="6" style="stroke:#C82930;stroke-width:1.0;" width="6" x="728" y="138.1328"/><text fill="#000000" font-family="sans-serif" font-size="14" lengthAdjust="spacing" textLength="114" x="740" y="145.3613">description: String</text><rect fill="none" height="6" style="stroke:#C82930;stroke-width:1.0;" width="6" x="728" y="155.7422"/><text fill="#000000" font-family="sans-serif" font-size="14" lengthAdjust="spacing" textLength="73" x="740" y="162.9707">note: String</text><line style="stroke:#000000;stroke-width:0.5;" x1="721" x2="859" y1="170.0469" y2="170.0469"/></g><polygon fill="none" points="789.2355,178.0469,796.0103,198.1243,782.0112,197.9669" style="stroke:#000000;stroke-width:1.0;"/><line style="stroke:#000000;stroke-width:1.0;" x1="789.0107" x2="789" y1="198.0456" y2="199"/><!--MD5=[1e43381f976e7945c181f2ebc4b11461]
class MealTime--><g id="elem_MealTime"><rect codeLine="90" fill="#FFFAFA" height="83.2188" id="MealTime" rx="2.5" ry="2.5" style="stroke:#000000;stroke-width:0.5;" width="121" x="899.5" y="282"/><ellipse cx="927.1" cy="298" fill="#ADD1B2" rx="11" ry="11" style="stroke:#181818;stroke-width:1.0;"/><path d="M929.8656,293.875 Q930.0219,293.6563 930.2094,293.5469 Q930.3969,293.4375 930.6156,293.4375 Q930.9906,293.4375 931.225,293.6953 Q931.4594,293.9531 931.4594,294.5625 L931.4594,296.0156 Q931.4594,296.625 931.225,296.8906 Q930.9906,297.1563 930.6156,297.1563 Q930.2719,297.1563 930.0688,296.9531 Q929.8656,296.7656 929.7563,296.25 Q929.7094,295.8906 929.5219,295.7031 Q929.1938,295.3281 928.5844,295.1094 Q927.975,294.8906 927.35,294.8906 Q926.5844,294.8906 925.9516,295.2188 Q925.3188,295.5469 924.8266,296.2969 Q924.3344,297.0469 924.3344,298.0781 L924.3344,299.1719 Q924.3344,300.4063 925.225,301.2266 Q926.1156,302.0469 927.7094,302.0469 Q928.6469,302.0469 929.3031,301.7969 Q929.6938,301.6406 930.1156,301.2031 Q930.3813,300.9375 930.5297,300.8594 Q930.6781,300.7813 930.8813,300.7813 Q931.2094,300.7813 931.4672,301.0391 Q931.725,301.2969 931.725,301.6406 Q931.725,301.9844 931.3813,302.3906 Q930.8813,302.9688 930.0844,303.2969 Q929.0063,303.75 927.7094,303.75 Q926.1938,303.75 924.9906,303.125 Q924.0063,302.625 923.3188,301.5547 Q922.6313,300.4844 922.6313,299.2031 L922.6313,298.0469 Q922.6313,296.7188 923.2484,295.5703 Q923.8656,294.4219 924.9594,293.8047 Q926.0531,293.1875 927.2875,293.1875 Q928.0219,293.1875 928.6703,293.3516 Q929.3188,293.5156 929.8656,293.875 Z " fill="#000000"/><text fill="#000000" font-family="sans-serif" font-size="14" lengthAdjust="spacing" textLength="61" x="943.9" y="303.7285">MealTime</text><line style="stroke:#000000;stroke-width:0.5;" x1="900.5" x2="1019.5" y1="314" y2="314"/><rect fill="none" height="6" style="stroke:#C82930;stroke-width:1.0;" width="6" x="907.5" y="325.3047"/><text fill="#000000" font-family="sans-serif" font-size="14" lengthAdjust="spacing" textLength="95" x="919.5" y="332.5332">mealTimeId: int</text><rect fill="none" height="6" style="stroke:#C82930;stroke-width:1.0;" width="6" x="907.5" y="342.9141"/><text fill="#000000" font-family="sans-serif" font-size="14" lengthAdjust="spacing" textLength="88" x="919.5" y="350.1426">source: String</text><line style="stroke:#000000;stroke-width:0.5;" x1="900.5" x2="1019.5" y1="357.2188" y2="357.2188"/></g><!--MD5=[99b6d4faf6f5d24c9ad7228099d7f7f9]
class MealTimeDetail--><g id="elem_MealTimeDetail"><rect codeLine="95" fill="#FFFAFA" height="100.8281" id="MealTimeDetail" rx="2.5" ry="2.5" style="stroke:#000000;stroke-width:0.5;" width="135" x="915.5" y="59.5"/><ellipse cx="933.2" cy="75.5" fill="#ADD1B2" rx="11" ry="11" style="stroke:#181818;stroke-width:1.0;"/><path d="M935.9656,71.375 Q936.1219,71.1563 936.3094,71.0469 Q936.4969,70.9375 936.7156,70.9375 Q937.0906,70.9375 937.325,71.1953 Q937.5594,71.4531 937.5594,72.0625 L937.5594,73.5156 Q937.5594,74.125 937.325,74.3906 Q937.0906,74.6563 936.7156,74.6563 Q936.3719,74.6563 936.1688,74.4531 Q935.9656,74.2656 935.8563,73.75 Q935.8094,73.3906 935.6219,73.2031 Q935.2938,72.8281 934.6844,72.6094 Q934.075,72.3906 933.45,72.3906 Q932.6844,72.3906 932.0516,72.7188 Q931.4188,73.0469 930.9266,73.7969 Q930.4344,74.5469 930.4344,75.5781 L930.4344,76.6719 Q930.4344,77.9063 931.325,78.7266 Q932.2156,79.5469 933.8094,79.5469 Q934.7469,79.5469 935.4031,79.2969 Q935.7938,79.1406 936.2156,78.7031 Q936.4813,78.4375 936.6297,78.3594 Q936.7781,78.2813 936.9813,78.2813 Q937.3094,78.2813 937.5672,78.5391 Q937.825,78.7969 937.825,79.1406 Q937.825,79.4844 937.4813,79.8906 Q936.9813,80.4688 936.1844,80.7969 Q935.1063,81.25 933.8094,81.25 Q932.2938,81.25 931.0906,80.625 Q930.1063,80.125 929.4188,79.0547 Q928.7313,77.9844 928.7313,76.7031 L928.7313,75.5469 Q928.7313,74.2188 929.3484,73.0703 Q929.9656,71.9219 931.0594,71.3047 Q932.1531,70.6875 933.3875,70.6875 Q934.1219,70.6875 934.7703,70.8516 Q935.4188,71.0156 935.9656,71.375 Z " fill="#000000"/><text fill="#000000" font-family="sans-serif" font-size="14" lengthAdjust="spacing" textLength="97" x="947.8" y="81.2285">MealTimeDetail</text><line style="stroke:#000000;stroke-width:0.5;" x1="916.5" x2="1049.5" y1="91.5" y2="91.5"/><rect fill="none" height="6" style="stroke:#C82930;stroke-width:1.0;" width="6" x="923.5" y="102.8047"/><text fill="#000000" font-family="sans-serif" font-size="14" lengthAdjust="spacing" textLength="95" x="935.5" y="110.0332">mealTimeId: int</text><rect fill="none" height="6" style="stroke:#C82930;stroke-width:1.0;" width="6" x="923.5" y="120.4141"/><text fill="#000000" font-family="sans-serif" font-size="14" lengthAdjust="spacing" textLength="109" x="935.5" y="127.6426">foodName: String</text><rect fill="none" height="6" style="stroke:#C82930;stroke-width:1.0;" width="6" x="923.5" y="138.0234"/><text fill="#000000" font-family="sans-serif" font-size="14" lengthAdjust="spacing" textLength="72" x="935.5" y="145.252">calories: int</text><line style="stroke:#000000;stroke-width:0.5;" x1="916.5" x2="1049.5" y1="152.3281" y2="152.3281"/></g><!--MD5=[85417ca0f7be8e9141b5b828ef3c5adc]
class SleepTime--><g id="elem_SleepTime"><rect codeLine="101" fill="#FFFAFA" height="83.2188" id="SleepTime" rx="2.5" ry="2.5" style="stroke:#000000;stroke-width:0.5;" width="149" x="715.5" y="282"/><ellipse cx="753" cy="298" fill="#ADD1B2" rx="11" ry="11" style="stroke:#181818;stroke-width:1.0;"/><path d="M755.7656,293.875 Q755.9219,293.6563 756.1094,293.5469 Q756.2969,293.4375 756.5156,293.4375 Q756.8906,293.4375 757.125,293.6953 Q757.3594,293.9531 757.3594,294.5625 L757.3594,296.0156 Q757.3594,296.625 757.125,296.8906 Q756.8906,297.1563 756.5156,297.1563 Q756.1719,297.1563 755.9688,296.9531 Q755.7656,296.7656 755.6563,296.25 Q755.6094,295.8906 755.4219,295.7031 Q755.0938,295.3281 754.4844,295.1094 Q753.875,294.8906 753.25,294.8906 Q752.4844,294.8906 751.8516,295.2188 Q751.2188,295.5469 750.7266,296.2969 Q750.2344,297.0469 750.2344,298.0781 L750.2344,299.1719 Q750.2344,300.4063 751.125,301.2266 Q752.0156,302.0469 753.6094,302.0469 Q754.5469,302.0469 755.2031,301.7969 Q755.5938,301.6406 756.0156,301.2031 Q756.2813,300.9375 756.4297,300.8594 Q756.5781,300.7813 756.7813,300.7813 Q757.1094,300.7813 757.3672,301.0391 Q757.625,301.2969 757.625,301.6406 Q757.625,301.9844 757.2813,302.3906 Q756.7813,302.9688 755.9844,303.2969 Q754.9063,303.75 753.6094,303.75 Q752.0938,303.75 750.8906,303.125 Q749.9063,302.625 749.2188,301.5547 Q748.5313,300.4844 748.5313,299.2031 L748.5313,298.0469 Q748.5313,296.7188 749.1484,295.5703 Q749.7656,294.4219 750.8594,293.8047 Q751.9531,293.1875 753.1875,293.1875 Q753.9219,293.1875 754.5703,293.3516 Q755.2188,293.5156 755.7656,293.875 Z " fill="#000000"/><text fill="#000000" font-family="sans-serif" font-size="14" lengthAdjust="spacing" textLength="67" x="772" y="303.7285">SleepTime</text><line style="stroke:#000000;stroke-width:0.5;" x1="716.5" x2="863.5" y1="314" y2="314"/><rect fill="none" height="6" style="stroke:#C82930;stroke-width:1.0;" width="6" x="723.5" y="325.3047"/><text fill="#000000" font-family="sans-serif" font-size="14" lengthAdjust="spacing" textLength="99" x="735.5" y="332.5332">sleepTimeId: int</text><rect fill="none" height="6" style="stroke:#C82930;stroke-width:1.0;" width="6" x="723.5" y="342.9141"/><text fill="#000000" font-family="sans-serif" font-size="14" lengthAdjust="spacing" textLength="123" x="735.5" y="350.1426">sleepQuality: String</text><line style="stroke:#000000;stroke-width:0.5;" x1="716.5" x2="863.5" y1="357.2188" y2="357.2188"/></g><!--MD5=[17141b2fa14ad8fc83e308f949349533]
class ChildEvent--><g id="elem_ChildEvent"><rect codeLine="106" fill="#FFFAFA" height="100.8281" id="ChildEvent" rx="2.5" ry="2.5" style="stroke:#000000;stroke-width:0.5;" width="142" x="538" y="273"/><ellipse cx="571.9" cy="289" fill="#ADD1B2" rx="11" ry="11" style="stroke:#181818;stroke-width:1.0;"/><path d="M574.6656,284.875 Q574.8219,284.6563 575.0094,284.5469 Q575.1969,284.4375 575.4156,284.4375 Q575.7906,284.4375 576.025,284.6953 Q576.2594,284.9531 576.2594,285.5625 L576.2594,287.0156 Q576.2594,287.625 576.025,287.8906 Q575.7906,288.1563 575.4156,288.1563 Q575.0719,288.1563 574.8688,287.9531 Q574.6656,287.7656 574.5563,287.25 Q574.5094,286.8906 574.3219,286.7031 Q573.9938,286.3281 573.3844,286.1094 Q572.775,285.8906 572.15,285.8906 Q571.3844,285.8906 570.7516,286.2188 Q570.1188,286.5469 569.6266,287.2969 Q569.1344,288.0469 569.1344,289.0781 L569.1344,290.1719 Q569.1344,291.4063 570.025,292.2266 Q570.9156,293.0469 572.5094,293.0469 Q573.4469,293.0469 574.1031,292.7969 Q574.4938,292.6406 574.9156,292.2031 Q575.1813,291.9375 575.3297,291.8594 Q575.4781,291.7813 575.6813,291.7813 Q576.0094,291.7813 576.2672,292.0391 Q576.525,292.2969 576.525,292.6406 Q576.525,292.9844 576.1813,293.3906 Q575.6813,293.9688 574.8844,294.2969 Q573.8063,294.75 572.5094,294.75 Q570.9938,294.75 569.7906,294.125 Q568.8063,293.625 568.1188,292.5547 Q567.4313,291.4844 567.4313,290.2031 L567.4313,289.0469 Q567.4313,287.7188 568.0484,286.5703 Q568.6656,285.4219 569.7594,284.8047 Q570.8531,284.1875 572.0875,284.1875 Q572.8219,284.1875 573.4703,284.3516 Q574.1188,284.5156 574.6656,284.875 Z " fill="#000000"/><text fill="#000000" font-family="sans-serif" font-size="14" lengthAdjust="spacing" textLength="68" x="590.1" y="294.7285">ChildEvent</text><line style="stroke:#000000;stroke-width:0.5;" x1="539" x2="679" y1="305" y2="305"/><rect fill="none" height="6" style="stroke:#C82930;stroke-width:1.0;" width="6" x="546" y="316.3047"/><text fill="#000000" font-family="sans-serif" font-size="14" lengthAdjust="spacing" textLength="69" x="558" y="323.5332">eventId: int</text><rect fill="none" height="6" style="stroke:#C82930;stroke-width:1.0;" width="6" x="546" y="333.9141"/><text fill="#000000" font-family="sans-serif" font-size="14" lengthAdjust="spacing" textLength="116" x="558" y="341.1426">eventName: String</text><rect fill="none" height="6" style="stroke:#C82930;stroke-width:1.0;" width="6" x="546" y="351.5234"/><text fill="#000000" font-family="sans-serif" font-size="14" lengthAdjust="spacing" textLength="94" x="558" y="358.752">location: String</text><line style="stroke:#000000;stroke-width:0.5;" x1="539" x2="679" y1="365.8281" y2="365.8281"/></g><!--MD5=[50d4997affe4b7e1b12b08ba12feba96]
class Chat--><g id="elem_Chat"><rect codeLine="116" fill="#FFFAFA" height="136.0469" id="Chat" rx="2.5" ry="2.5" style="stroke:#000000;stroke-width:0.5;" width="174" x="13" y="436.5"/><ellipse cx="80.75" cy="452.5" fill="#ADD1B2" rx="11" ry="11" style="stroke:#181818;stroke-width:1.0;"/><path d="M83.5156,448.375 Q83.6719,448.1563 83.8594,448.0469 Q84.0469,447.9375 84.2656,447.9375 Q84.6406,447.9375 84.875,448.1953 Q85.1094,448.4531 85.1094,449.0625 L85.1094,450.5156 Q85.1094,451.125 84.875,451.3906 Q84.6406,451.6563 84.2656,451.6563 Q83.9219,451.6563 83.7188,451.4531 Q83.5156,451.2656 83.4063,450.75 Q83.3594,450.3906 83.1719,450.2031 Q82.8438,449.8281 82.2344,449.6094 Q81.625,449.3906 81,449.3906 Q80.2344,449.3906 79.6016,449.7188 Q78.9688,450.0469 78.4766,450.7969 Q77.9844,451.5469 77.9844,452.5781 L77.9844,453.6719 Q77.9844,454.9063 78.875,455.7266 Q79.7656,456.5469 81.3594,456.5469 Q82.2969,456.5469 82.9531,456.2969 Q83.3438,456.1406 83.7656,455.7031 Q84.0313,455.4375 84.1797,455.3594 Q84.3281,455.2813 84.5313,455.2813 Q84.8594,455.2813 85.1172,455.5391 Q85.375,455.7969 85.375,456.1406 Q85.375,456.4844 85.0313,456.8906 Q84.5313,457.4688 83.7344,457.7969 Q82.6563,458.25 81.3594,458.25 Q79.8438,458.25 78.6406,457.625 Q77.6563,457.125 76.9688,456.0547 Q76.2813,454.9844 76.2813,453.7031 L76.2813,452.5469 Q76.2813,451.2188 76.8984,450.0703 Q77.5156,448.9219 78.6094,448.3047 Q79.7031,447.6875 80.9375,447.6875 Q81.6719,447.6875 82.3203,447.8516 Q82.9688,448.0156 83.5156,448.375 Z " fill="#000000"/><text fill="#000000" font-family="sans-serif" font-size="14" lengthAdjust="spacing" textLength="30" x="101.25" y="458.2285">Chat</text><line style="stroke:#000000;stroke-width:0.5;" x1="14" x2="186" y1="468.5" y2="468.5"/><rect fill="none" height="6" style="stroke:#C82930;stroke-width:1.0;" width="6" x="21" y="479.8047"/><text fill="#000000" font-family="sans-serif" font-size="14" lengthAdjust="spacing" textLength="61" x="33" y="487.0332">chatId: int</text><rect fill="none" height="6" style="stroke:#C82930;stroke-width:1.0;" width="6" x="21" y="497.4141"/><text fill="#000000" font-family="sans-serif" font-size="14" lengthAdjust="spacing" textLength="75" x="33" y="504.6426">parentId: int</text><rect fill="none" height="6" style="stroke:#C82930;stroke-width:1.0;" width="6" x="21" y="515.0234"/><text fill="#000000" font-family="sans-serif" font-size="14" lengthAdjust="spacing" textLength="74" x="33" y="522.252">doctorId: int</text><rect fill="none" height="6" style="stroke:#C82930;stroke-width:1.0;" width="6" x="21" y="532.6328"/><text fill="#000000" font-family="sans-serif" font-size="14" lengthAdjust="spacing" textLength="124" x="33" y="539.8613">lastMessage: String</text><rect fill="none" height="6" style="stroke:#C82930;stroke-width:1.0;" width="6" x="21" y="550.2422"/><text fill="#000000" font-family="sans-serif" font-size="14" lengthAdjust="spacing" textLength="148" x="33" y="557.4707">lastMessageTime: Date</text><line style="stroke:#000000;stroke-width:0.5;" x1="14" x2="186" y1="564.5469" y2="564.5469"/></g><!--MD5=[bea5b0d46523efab5ea1c1d339f396f0]
class Message--><g id="elem_Message"><rect codeLine="124" fill="#FFFAFA" height="136.0469" id="Message" rx="2.5" ry="2.5" style="stroke:#000000;stroke-width:0.5;" width="162" x="19" y="635"/><ellipse cx="67.25" cy="651" fill="#ADD1B2" rx="11" ry="11" style="stroke:#181818;stroke-width:1.0;"/><path d="M70.0156,646.875 Q70.1719,646.6563 70.3594,646.5469 Q70.5469,646.4375 70.7656,646.4375 Q71.1406,646.4375 71.375,646.6953 Q71.6094,646.9531 71.6094,647.5625 L71.6094,649.0156 Q71.6094,649.625 71.375,649.8906 Q71.1406,650.1563 70.7656,650.1563 Q70.4219,650.1563 70.2188,649.9531 Q70.0156,649.7656 69.9063,649.25 Q69.8594,648.8906 69.6719,648.7031 Q69.3438,648.3281 68.7344,648.1094 Q68.125,647.8906 67.5,647.8906 Q66.7344,647.8906 66.1016,648.2188 Q65.4688,648.5469 64.9766,649.2969 Q64.4844,650.0469 64.4844,651.0781 L64.4844,652.1719 Q64.4844,653.4063 65.375,654.2266 Q66.2656,655.0469 67.8594,655.0469 Q68.7969,655.0469 69.4531,654.7969 Q69.8438,654.6406 70.2656,654.2031 Q70.5313,653.9375 70.6797,653.8594 Q70.8281,653.7813 71.0313,653.7813 Q71.3594,653.7813 71.6172,654.0391 Q71.875,654.2969 71.875,654.6406 Q71.875,654.9844 71.5313,655.3906 Q71.0313,655.9688 70.2344,656.2969 Q69.1563,656.75 67.8594,656.75 Q66.3438,656.75 65.1406,656.125 Q64.1563,655.625 63.4688,654.5547 Q62.7813,653.4844 62.7813,652.2031 L62.7813,651.0469 Q62.7813,649.7188 63.3984,648.5703 Q64.0156,647.4219 65.1094,646.8047 Q66.2031,646.1875 67.4375,646.1875 Q68.1719,646.1875 68.8203,646.3516 Q69.4688,646.5156 70.0156,646.875 Z " fill="#000000"/><text fill="#000000" font-family="sans-serif" font-size="14" lengthAdjust="spacing" textLength="57" x="87.75" y="656.7285">Message</text><line style="stroke:#000000;stroke-width:0.5;" x1="20" x2="180" y1="667" y2="667"/><rect fill="none" height="6" style="stroke:#C82930;stroke-width:1.0;" width="6" x="27" y="678.3047"/><text fill="#000000" font-family="sans-serif" font-size="14" lengthAdjust="spacing" textLength="91" x="39" y="685.5332">messageId: int</text><rect fill="none" height="6" style="stroke:#C82930;stroke-width:1.0;" width="6" x="27" y="695.9141"/><text fill="#000000" font-family="sans-serif" font-size="14" lengthAdjust="spacing" textLength="61" x="39" y="703.1426">chatId: int</text><rect fill="none" height="6" style="stroke:#C82930;stroke-width:1.0;" width="6" x="27" y="713.5234"/><text fill="#000000" font-family="sans-serif" font-size="14" lengthAdjust="spacing" textLength="92" x="39" y="720.752">content: String</text><rect fill="none" height="6" style="stroke:#C82930;stroke-width:1.0;" width="6" x="27" y="731.1328"/><text fill="#000000" font-family="sans-serif" font-size="14" lengthAdjust="spacing" textLength="136" x="39" y="738.3613">receiverAccountId: int</text><rect fill="none" height="6" style="stroke:#C82930;stroke-width:1.0;" width="6" x="27" y="748.7422"/><text fill="#000000" font-family="sans-serif" font-size="14" lengthAdjust="spacing" textLength="129" x="39" y="755.9707">senderAccountId: int</text><line style="stroke:#000000;stroke-width:0.5;" x1="20" x2="180" y1="763.0469" y2="763.0469"/></g><!--MD5=[9763f67ba8fc8bba95fbe6f32f9498ab]
reverse link Account to Parent--><g id="link_Account_Parent"><path codeLine="34" d="M251,208 C251,208 282.43,248.9 307.73,281.81 " fill="none" id="Account-backto-Parent" style="stroke:#000000;stroke-width:1.0;"/></g><!--MD5=[93c6220bb58ba78de4a561c91c0c517e]
reverse link Account to Doctor--><g id="link_Account_Doctor"><path codeLine="35" d="M251,208 C251,208 224.87,242 201.09,272.94 " fill="none" id="Account-backto-Doctor" style="stroke:#000000;stroke-width:1.0;"/></g><!--MD5=[41bb3cf1e82e17a5394203e707a9d542]
reverse link DoctorInstruction to Prescription--><g id="link_DoctorInstruction_Prescription"><path codeLine="79" d="M512,576.5 C512,576.5 449.09,632.5 407.31,669.68 " fill="none" id="DoctorInstruction-backto-Prescription" style="stroke:#000000;stroke-width:1.0;"/></g><!--MD5=[5580a9bdf40cdd8d590991dd407aa62d]
reverse link DoctorInstruction to ImmunizationSchedule--><g id="link_DoctorInstruction_ImmunizationSchedule"><path codeLine="80" d="M512,576.5 C512,576.5 561.53,632.5 594.41,669.68 " fill="none" id="DoctorInstruction-backto-ImmunizationSchedule" style="stroke:#000000;stroke-width:1.0;"/></g><!--MD5=[db771ac730ef09dd033178d5ca3149dc]
reverse link Activity to MealTime--><g id="link_Activity_MealTime"><path codeLine="112" d="M789,199 C789,199 853.73,245.75 903.53,281.72 " fill="none" id="Activity-backto-MealTime" style="stroke:#000000;stroke-width:1.0;"/></g><!--MD5=[8d78d7f7873840fc453c7f5c77d9fac3]
reverse link Activity to SleepTime--><g id="link_Activity_SleepTime"><path codeLine="113" d="M789,199 C789,199 789.38,245.75 789.67,281.72 " fill="none" id="Activity-backto-SleepTime" style="stroke:#000000;stroke-width:1.0;"/></g><!--MD5=[004396c150ea572458108246a53eb53d]
reverse link Activity to ChildEvent--><g id="link_Activity_ChildEvent"><path codeLine="114" d="M789,199 C789,199 730.45,239.17 680.14,273.69 " fill="none" id="Activity-backto-ChildEvent" style="stroke:#000000;stroke-width:1.0;"/></g><!--MD5=[983db49d2c83cabe74c751fcf84cc6b4]
link Child to Parent--><g id="link_Child_Parent"><path codeLine="132" d="M528.88,166.85 C488.45,199.99 437.67,241.61 398.8,273.48 " fill="none" id="Child-to-Parent" style="stroke:#000000;stroke-width:1.0;"/><polygon fill="#000000" points="388.68,281.78,395.8556,281.0653,397.9557,274.1668,390.7801,274.8815,388.68,281.78" style="stroke:#000000;stroke-width:1.0;"/><text fill="#000000" font-family="sans-serif" font-size="13" lengthAdjust="spacing" textLength="20" x="500.8239" y="169.3759">1..*</text><text fill="#000000" font-family="sans-serif" font-size="13" lengthAdjust="spacing" textLength="7" x="384.9973" y="271.0512">1</text></g><!--MD5=[1a9064baad7d2139fa61f593fe19f4df]
link Child to DoctorInstruction--><g id="link_Child_DoctorInstruction"><path codeLine="134" d="M540.4,213.17 C532.02,232.52 524.65,252.98 520,273 C507.68,326.02 507.6,387.76 510.24,433.99 " fill="none" id="Child-DoctorInstruction" style="stroke:#000000;stroke-width:1.0;"/><text fill="#000000" font-family="sans-serif" font-size="13" lengthAdjust="spacing" textLength="7" x="524.8395" y="234.8243">1</text><text fill="#000000" font-family="sans-serif" font-size="13" lengthAdjust="spacing" textLength="20" x="484.1881" y="422.9267">0..*</text></g><!--MD5=[ea698c476efb57250031dd45367c64f2]
link Doctor to DoctorInstruction--><g id="link_Doctor_DoctorInstruction"><path codeLine="135" d="M243.19,366.11 C248.85,368.84 254.49,371.49 260,374 C324.97,403.59 345.59,401.2 409,434 C415.04,437.12 421.17,440.49 427.29,444 " fill="none" id="Doctor-DoctorInstruction" style="stroke:#000000;stroke-width:1.0;"/><text fill="#000000" font-family="sans-serif" font-size="13" lengthAdjust="spacing" textLength="7" x="251.0895" y="366.8199">1</text><text fill="#000000" font-family="sans-serif" font-size="13" lengthAdjust="spacing" textLength="20" x="400.0569" y="432.9369">0..*</text></g><!--MD5=[d7aa8369b338be1879b6b437bf03e25e]
link PrescriptionDetail to Prescription--><g id="link_PrescriptionDetail_Prescription"><path codeLine="136" d="M328.85,572.57 C337.97,600.6 348.33,632.4 356.49,657.46 " fill="none" id="PrescriptionDetail-to-Prescription" style="stroke:#000000;stroke-width:1.0;"/><polygon fill="#000000" points="360.55,669.9,362.4956,662.9563,356.8344,658.4897,354.8888,665.4334,360.55,669.9" style="stroke:#000000;stroke-width:1.0;"/><text fill="#000000" font-family="sans-serif" font-size="13" lengthAdjust="spacing" textLength="20" x="310.072" y="593.9255">1..*</text><text fill="#000000" font-family="sans-serif" font-size="13" lengthAdjust="spacing" textLength="7" x="346.2603" y="658.9948">1</text></g><!--MD5=[a51a782672795bfc1a26ab0b6623ba74]
link ImmunizationDetail to ImmunizationSchedule--><g id="link_ImmunizationDetail_ImmunizationSchedule"><path codeLine="137" d="M693.48,572.57 C678.08,600.86 660.58,632.98 646.88,658.15 " fill="none" id="ImmunizationDetail-to-ImmunizationSchedule" style="stroke:#000000;stroke-width:1.0;"/><polygon fill="#000000" points="640.48,669.9,646.862,666.543,646.2179,659.3607,639.8359,662.7177,640.48,669.9" style="stroke:#000000;stroke-width:1.0;"/><text fill="#000000" font-family="sans-serif" font-size="13" lengthAdjust="spacing" textLength="20" x="668.6826" y="593.9255">1..*</text><text fill="#000000" font-family="sans-serif" font-size="13" lengthAdjust="spacing" textLength="7" x="631.9509" y="658.9948">1</text></g><!--MD5=[b1187c2d4c4ed93712029c57bf78bd6e]
reverse link Child to ChildEvent--><g id="link_Child_ChildEvent"><path codeLine="139" d="M603.54,226.2 C604.46,242.57 605.38,258.63 606.18,272.81 " fill="none" id="Child-backto-ChildEvent" style="stroke:#000000;stroke-width:1.0;"/><polygon fill="#000000" points="602.79,213.03,599.1392,219.2487,603.4753,225.0104,607.1261,218.7918,602.79,213.03" style="stroke:#000000;stroke-width:1.0;"/><text fill="#000000" font-family="sans-serif" font-size="13" lengthAdjust="spacing" textLength="7" x="595.9653" y="235.0208">1</text><text fill="#000000" font-family="sans-serif" font-size="13" lengthAdjust="spacing" textLength="20" x="584.3772" y="262.0886">0..*</text></g><!--MD5=[a890e6b4fca6191ffe8ab7186026ed3f]
reverse link Child to SleepTime--><g id="link_Child_SleepTime"><path codeLine="141" d="M673.76,202.7 C676.86,206.2 679.95,209.64 683,213 C704.17,236.32 728.67,261.51 748.88,281.85 " fill="none" id="Child-backto-SleepTime" style="stroke:#000000;stroke-width:1.0;"/><polygon fill="#000000" points="665.01,192.75,665.9648,199.8976,672.9298,201.7654,671.975,194.6178,665.01,192.75" style="stroke:#000000;stroke-width:1.0;"/><text fill="#000000" font-family="sans-serif" font-size="13" lengthAdjust="spacing" textLength="7" x="672.8314" y="216.1636">1</text><text fill="#000000" font-family="sans-serif" font-size="13" lengthAdjust="spacing" textLength="20" x="720.4133" y="271.1328">0..*</text></g><!--MD5=[f28eeb142955e1e8c2b4aaf3a17229f6]
reverse link Child to MealTime--><g id="link_Child_MealTime"><path codeLine="143" d="M675.27,207.55 C677.81,209.46 680.39,211.28 683,213 C760.19,263.75 798,234.56 882,273 C887.83,275.67 893.75,278.71 899.58,281.95 " fill="none" id="Child-backto-MealTime" style="stroke:#000000;stroke-width:1.0;"/><polygon fill="#000000" points="665.08,199.27,667.2062,206.1605,674.3845,206.848,672.2583,199.9575,665.08,199.27" style="stroke:#000000;stroke-width:1.0;"/><text fill="#000000" font-family="sans-serif" font-size="13" lengthAdjust="spacing" textLength="7" x="673.1278" y="205.6468">1</text><text fill="#000000" font-family="sans-serif" font-size="13" lengthAdjust="spacing" textLength="20" x="872.4378" y="273.1198">0..*</text></g><!--MD5=[06e4e536ab221ac5dc5f48a3fa75b56d]
link MealTimeDetail to MealTime--><g id="link_MealTimeDetail_MealTime"><path codeLine="144" d="M977.61,160.59 C974.08,193 969.48,235.32 965.87,268.56 " fill="none" id="MealTimeDetail-to-MealTime" style="stroke:#000000;stroke-width:1.0;"/><polygon fill="#000000" points="964.43,281.74,969.0587,276.2106,965.7349,269.8112,961.1062,275.3406,964.43,281.74" style="stroke:#000000;stroke-width:1.0;"/><text fill="#000000" font-family="sans-serif" font-size="13" lengthAdjust="spacing" textLength="20" x="955.542" y="181.9933">1..*</text><text fill="#000000" font-family="sans-serif" font-size="13" lengthAdjust="spacing" textLength="7" x="957.584" y="271.0046">1</text></g><!--MD5=[f45da9d8c24c292656ddcd947d8e2b04]
reverse link Parent to Chat--><g id="link_Parent_Chat"><path codeLine="146" d="M274.01,373.18 C247.3,393.18 215.96,416.65 187.3,438.12 " fill="none" id="Parent-backto-Chat" style="stroke:#000000;stroke-width:1.0;"/><polygon fill="#000000" points="284.77,365.12,277.57,365.52,275.17,372.32,282.37,371.92,284.77,365.12" style="stroke:#000000;stroke-width:1.0;"/><text fill="#000000" font-family="sans-serif" font-size="13" lengthAdjust="spacing" textLength="7" x="263.8772" y="386.8444">1</text><text fill="#000000" font-family="sans-serif" font-size="13" lengthAdjust="spacing" textLength="20" x="195.0536" y="429.7001">0..*</text></g><!--MD5=[c74a075c6225050210a7499063f981f7]
reverse link Doctor to Chat--><g id="link_Doctor_Chat"><path codeLine="147" d="M141.06,386.83 C135.45,402.78 129.39,419.99 123.69,436.18 " fill="none" id="Doctor-backto-Chat" style="stroke:#000000;stroke-width:1.0;"/><polygon fill="#000000" points="145.45,374.36,139.6864,378.6937,141.4699,385.6807,147.2336,381.3471,145.45,374.36" style="stroke:#000000;stroke-width:1.0;"/><text fill="#000000" font-family="sans-serif" font-size="13" lengthAdjust="spacing" textLength="7" x="131.4967" y="395.4301">1</text><text fill="#000000" font-family="sans-serif" font-size="13" lengthAdjust="spacing" textLength="20" x="105.1018" y="425.8203">0..*</text></g><!--MD5=[0e57511ddfa407e901127168a4cd2134]
reverse link Chat to Message--><g id="link_Chat_Message"><path codeLine="148" d="M100,586.02 C100,602.26 100,619.17 100,634.89 " fill="none" id="Chat-backto-Message" style="stroke:#000000;stroke-width:1.0;"/><polygon fill="#000000" points="100,572.57,96,578.57,100,584.57,104,578.57,100,572.57" style="stroke:#000000;stroke-width:1.0;"/><text fill="#000000" font-family="sans-serif" font-size="13" lengthAdjust="spacing" textLength="7" x="88.4328" y="593.9255">1</text><text fill="#000000" font-family="sans-serif" font-size="13" lengthAdjust="spacing" textLength="20" x="78.9063" y="624.0772">0..*</text></g><!--MD5=[1eb96d881a115da814c03bb4610fe3bc]
@startuml ClassDiagram
skinparam class {
    BackgroundColor Snow
    BorderColor Black
    ArrowColor Black
}
skinparam groupInheritance 2

class Document {
    - documentId: int
    - title: String
    - content: String
}

class Account {
    - accountId: int
    - username: String
    - password: String
    - firstName: String
    - lastName: String
    - email: String
}

class Parent {
    - parentId: int
    - address: String
}

class Doctor {
    - doctorId: int
    - phoneNumber: String
    - speciality: String
}

Account <|- - Parent
Account <|- - Doctor

class Child {
    - childId: int
    - parentId: int
    - firstName: String
    - lastName: String
    - dateOfBirth: Date
    - gender: String
    - height: double
    - weight: double
    - note: String
}

class DoctorInstruction {
    - childId: int
    - doctorId: int
    - date: Date
}

class Prescription {
    - prescriptionId: int
}

class PrescriptionDetail {
    - prescriptionDetailId: int
    - prescriptionId: int
    - medicineName: String
    - dosage: String
    - instructions: String
}

class ImmunizationSchedule {
    - scheduleId: int
}

class ImmunizationDetail {
    - immunizationDetailId: int
    - scheduleId: int
    - vaccineName: String
    - dosage: String
    - note: String
}

DoctorInstruction <|- - Prescription
DoctorInstruction <|- - ImmunizationSchedule   

class Activity {
    - activityDate: Date
    - startTime: Time
    - endTime: Time
    - description: String
    - note: String
}

class MealTime {
    - mealTimeId: int
    - source: String
}

class MealTimeDetail {
    - mealTimeId: int
    - foodName: String
    - calories: int
}

class SleepTime {
    - sleepTimeId: int
    - sleepQuality: String
}

class ChildEvent {
    - eventId: int
    - eventName: String
    - location: String
}

Activity <|- - MealTime
Activity <|- - SleepTime
Activity <|- - ChildEvent

class Chat {
    - chatId: int
    - parentId: int
    - doctorId: int
    - lastMessage: String
    - lastMessageTime: Date
}

class Message {
    - messageId: int
    - chatId: int
    - content: String
    - receiverAccountId: int
    - senderAccountId: int
}

Child "1..*" - -* "1 " Parent

Child "1 " - - "0..* " DoctorInstruction
Doctor "1 " - - "0..* " DoctorInstruction
PrescriptionDetail "1..*" - -* "1 " Prescription
ImmunizationDetail "1..*" - -* "1 " ImmunizationSchedule

Child "1" *- - "0..*" ChildEvent

Child "1" *- - "0..*" SleepTime

Child "1 " *- - "0..*" MealTime
MealTimeDetail "1..*" - -* "1" MealTime

Parent "1 " *- - "0..*" Chat
Doctor "1 " *- - "0..*" Chat
Chat "1 " *- - "0..*" Message
@enduml

PlantUML version 1.2022.7(Tue Aug 23 00:01:30 ICT 2022)
(GPL source distribution)
Java Runtime: Java(TM) SE Runtime Environment
JVM: Java HotSpot(TM) 64-Bit Server VM
Default Encoding: Cp1252
Language: en
Country: US
--></g></svg>