<?xml version="1.0" encoding="UTF-8" standalone="no"?><svg xmlns="http://www.w3.org/2000/svg" xmlns:xlink="http://www.w3.org/1999/xlink" contentStyleType="text/css" height="297px" preserveAspectRatio="none" style="width:402px;height:297px;background:#FFFFFF;" version="1.1" viewBox="0 0 402 297" width="402px" zoomAndPan="magnify"><defs/><g><rect fill="#FFFFFF" height="166.5938" style="stroke:#181818;stroke-width:1.0;" width="10" x="39" y="114.9609"/><rect fill="#FFFFFF" height="166.5938" style="stroke:#181818;stroke-width:1.0;" width="10" x="167" y="114.9609"/><rect fill="none" height="64.7969" style="stroke:#000000;stroke-width:1.5;" width="386" x="10" y="129.9609"/><rect fill="none" height="64.7969" style="stroke:#000000;stroke-width:1.5;" width="386" x="10" y="208.7578"/><line style="stroke:#181818;stroke-width:0.5;stroke-dasharray:5.0,5.0;" x1="44" x2="44" y1="82.6094" y2="290.5547"/><line style="stroke:#181818;stroke-width:0.5;stroke-dasharray:5.0,5.0;" x1="172" x2="172" y1="82.6094" y2="290.5547"/><line style="stroke:#181818;stroke-width:0.5;stroke-dasharray:5.0,5.0;" x1="319" x2="319" y1="82.6094" y2="290.5547"/><text fill="#000000" font-family="sans-serif" font-size="14" lengthAdjust="spacing" textLength="42" x="20" y="79.5332">Parent</text><ellipse cx="44" cy="13.5" fill="#E2E2F0" rx="8" ry="8" style="stroke:#181818;stroke-width:0.5;"/><path d="M44,21.5 L44,48.5 M31,29.5 L57,29.5 M44,48.5 L31,63.5 M44,48.5 L57,63.5 " fill="none" style="stroke:#181818;stroke-width:0.5;"/><text fill="#000000" font-family="sans-serif" font-size="14" lengthAdjust="spacing" textLength="136" x="101" y="79.5332">DoctorInstructionView</text><path d="M151.5,37 L151.5,61 M151.5,49 L168.5,49 " fill="none" style="stroke:#181818;stroke-width:0.5;"/><ellipse cx="180.5" cy="49" fill="#E2E2F0" rx="12" ry="12" style="stroke:#181818;stroke-width:0.5;"/><text fill="#000000" font-family="sans-serif" font-size="14" lengthAdjust="spacing" textLength="127" x="253" y="79.5332">InstructionController</text><ellipse cx="319.5" cy="49" fill="#E2E2F0" rx="12" ry="12" style="stroke:#181818;stroke-width:0.5;"/><polygon fill="#181818" points="315.5,37,321.5,32,319.5,37,321.5,42,315.5,37" style="stroke:#181818;stroke-width:1.0;"/><rect fill="#FFFFFF" height="166.5938" style="stroke:#181818;stroke-width:1.0;" width="10" x="39" y="114.9609"/><rect fill="#FFFFFF" height="166.5938" style="stroke:#181818;stroke-width:1.0;" width="10" x="167" y="114.9609"/><polygon fill="#181818" points="155,110.9609,165,114.9609,155,118.9609,159,114.9609" style="stroke:#181818;stroke-width:1.0;"/><line style="stroke:#181818;stroke-width:1.0;" x1="49" x2="161" y1="114.9609" y2="114.9609"/><text fill="#000000" font-family="sans-serif" font-size="13" font-weight="bold" lengthAdjust="spacing" textLength="7" x="56" y="110.1045">1</text><text fill="#000000" font-family="sans-serif" font-size="13" lengthAdjust="spacing" textLength="93" x="67" y="110.1045">Choose function</text><path d="M10,129.9609 L75,129.9609 L75,138.3125 L65,148.3125 L10,148.3125 L10,129.9609 " fill="#EEEEEE" style="stroke:#000000;stroke-width:1.5;"/><rect fill="none" height="64.7969" style="stroke:#000000;stroke-width:1.5;" width="386" x="10" y="129.9609"/><text fill="#000000" font-family="sans-serif" font-size="13" font-weight="bold" lengthAdjust="spacing" textLength="20" x="25" y="144.4561">opt</text><text fill="#000000" font-family="sans-serif" font-size="11" font-weight="bold" lengthAdjust="spacing" textLength="168" x="90" y="143.3799">[View Immunization Schedule]</text><rect fill="none" height="41.4453" style="stroke:#000000;stroke-width:1.5;" width="372" x="17" y="148.3125"/><path d="M17,148.3125 L79,148.3125 L79,156.3125 L69,166.3125 L17,166.3125 L17,148.3125 " fill="#EEEEEE" style="stroke:#000000;stroke-width:2.0;"/><text fill="#000000" font-family="sans-serif" font-size="13" font-weight="bold" lengthAdjust="spacing" textLength="17" x="30" y="163.8076">ref</text><text fill="#000000" font-family="sans-serif" font-size="12" lengthAdjust="spacing" textLength="217" x="94.5" y="182.7695">Sequence View Immunization Schedule</text><path d="M10,208.7578 L75,208.7578 L75,217.1094 L65,227.1094 L10,227.1094 L10,208.7578 " fill="#EEEEEE" style="stroke:#000000;stroke-width:1.5;"/><rect fill="none" height="64.7969" style="stroke:#000000;stroke-width:1.5;" width="386" x="10" y="208.7578"/><text fill="#000000" font-family="sans-serif" font-size="13" font-weight="bold" lengthAdjust="spacing" textLength="20" x="25" y="223.2529">opt</text><text fill="#000000" font-family="sans-serif" font-size="11" font-weight="bold" lengthAdjust="spacing" textLength="107" x="90" y="222.1768">[View Prescription]</text><rect fill="none" height="41.4453" style="stroke:#000000;stroke-width:1.5;" width="372" x="17" y="227.1094"/><path d="M17,227.1094 L79,227.1094 L79,235.1094 L69,245.1094 L17,245.1094 L17,227.1094 " fill="#EEEEEE" style="stroke:#000000;stroke-width:2.0;"/><text fill="#000000" font-family="sans-serif" font-size="13" font-weight="bold" lengthAdjust="spacing" textLength="17" x="30" y="242.6045">ref</text><text fill="#000000" font-family="sans-serif" font-size="12" lengthAdjust="spacing" textLength="154" x="126" y="261.5664">Sequence View Prescription</text><!--MD5=[fd422cf1932f680fab790aacb756a301]
@startuml ManageInstructionSeq
autonumber
hide footbox

actor Parent
boundary DoctorInstructionView
control InstructionController

Parent -> DoctorInstructionView: Choose function
activate Parent
activate DoctorInstructionView
opt View Immunization Schedule
    ref over Parent, DoctorInstructionView, InstructionController: Sequence View Immunization Schedule 
end

opt View Prescription
    ref over Parent, DoctorInstructionView, InstructionController: Sequence View Prescription
end
@enduml

PlantUML version 1.2022.7(Tue Aug 23 00:01:30 ICT 2022)
(GPL source distribution)
Java Runtime: Java(TM) SE Runtime Environment
JVM: Java HotSpot(TM) 64-Bit Server VM
Default Encoding: Cp1252
Language: en
Country: US
--></g></svg>