<?xml version="1.0" encoding="UTF-8" standalone="no"?><svg xmlns="http://www.w3.org/2000/svg" xmlns:xlink="http://www.w3.org/1999/xlink" contentStyleType="text/css" height="1017px" preserveAspectRatio="none" style="width:922px;height:1017px;background:#FFFFFF;" version="1.1" viewBox="0 0 922 1017" width="922px" zoomAndPan="magnify"><defs/><g><rect fill="#FFFFFF" height="354.5156" style="stroke:#181818;stroke-width:1.0;" width="10" x="39" y="410.7734"/><rect fill="#FFFFFF" height="546.625" style="stroke:#181818;stroke-width:1.0;" width="10" x="232" y="249.0156"/><rect fill="#FFFFFF" height="28" style="stroke:#181818;stroke-width:1.0;" width="10" x="237" y="303.7188"/><rect fill="#FFFFFF" height="28" style="stroke:#181818;stroke-width:1.0;" width="10" x="237" y="676.5859"/><rect fill="#FFFFFF" height="82.7031" style="stroke:#181818;stroke-width:1.0;" width="10" x="430" y="903.0469"/><rect fill="#FFFFFF" height="28" style="stroke:#181818;stroke-width:1.0;" width="10" x="435" y="957.75"/><rect fill="#FFFFFF" height="134.0547" style="stroke:#181818;stroke-width:1.0;" width="10" x="623" y="114.9609"/><rect fill="#FFFFFF" height="180.7578" style="stroke:#181818;stroke-width:1.0;" width="10" x="623" y="457.4766"/><rect fill="#FFFFFF" height="107.4063" style="stroke:#181818;stroke-width:1.0;" width="10" x="623" y="795.6406"/><rect fill="#FFFFFF" height="103.7031" style="stroke:#181818;stroke-width:1.0;" width="10" x="807" y="114.9609"/><rect fill="#FFFFFF" height="28" style="stroke:#181818;stroke-width:1.0;" width="10" x="812" y="153.3125"/><rect fill="#FFFFFF" height="103.7031" style="stroke:#181818;stroke-width:1.0;" width="10" x="807" y="504.1797"/><rect fill="#FFFFFF" height="28" style="stroke:#181818;stroke-width:1.0;" width="10" x="812" y="542.5313"/><rect fill="#FFFFFF" height="30.3516" style="stroke:#181818;stroke-width:1.0;" width="10" x="807" y="842.3438"/><rect fill="none" height="365.8672" style="stroke:#000000;stroke-width:1.5;" width="906" x="10" y="353.7188"/><line style="stroke:#181818;stroke-width:0.5;stroke-dasharray:5.0,5.0;" x1="44" x2="44" y1="82.6094" y2="1010.75"/><line style="stroke:#181818;stroke-width:0.5;stroke-dasharray:5.0,5.0;" x1="236.5" x2="236.5" y1="82.6094" y2="1010.75"/><line style="stroke:#181818;stroke-width:0.5;stroke-dasharray:5.0,5.0;" x1="434.5" x2="434.5" y1="82.6094" y2="1010.75"/><line style="stroke:#181818;stroke-width:0.5;stroke-dasharray:5.0,5.0;" x1="627.5" x2="627.5" y1="82.6094" y2="1010.75"/><line style="stroke:#181818;stroke-width:0.5;stroke-dasharray:5.0,5.0;" x1="811.5" x2="811.5" y1="82.6094" y2="1010.75"/><text fill="#000000" font-family="sans-serif" font-size="14" lengthAdjust="spacing" textLength="42" x="20" y="79.5332">Parent</text><ellipse cx="44" cy="13.5" fill="#E2E2F0" rx="8" ry="8" style="stroke:#181818;stroke-width:0.5;"/><path d="M44,21.5 L44,48.5 M31,29.5 L57,29.5 M44,48.5 L31,63.5 M44,48.5 L57,63.5 " fill="none" style="stroke:#181818;stroke-width:0.5;"/><text fill="#000000" font-family="sans-serif" font-size="14" lengthAdjust="spacing" textLength="75" x="196.5" y="61.9238">Prescription</text><text fill="#000000" font-family="sans-serif" font-size="14" lengthAdjust="spacing" textLength="111" x="178.5" y="79.5332">ManagementView</text><path d="M216.5,19.3906 L216.5,43.3906 M216.5,31.3906 L233.5,31.3906 " fill="none" style="stroke:#181818;stroke-width:0.5;"/><ellipse cx="245.5" cy="31.3906" fill="#E2E2F0" rx="12" ry="12" style="stroke:#181818;stroke-width:0.5;"/><text fill="#000000" font-family="sans-serif" font-size="14" lengthAdjust="spacing" textLength="75" x="394.5" y="61.9238">Prescription</text><text fill="#000000" font-family="sans-serif" font-size="14" lengthAdjust="spacing" textLength="99" x="382.5" y="79.5332">InformationView</text><path d="M414.5,19.3906 L414.5,43.3906 M414.5,31.3906 L431.5,31.3906 " fill="none" style="stroke:#181818;stroke-width:0.5;"/><ellipse cx="443.5" cy="31.3906" fill="#E2E2F0" rx="12" ry="12" style="stroke:#181818;stroke-width:0.5;"/><text fill="#000000" font-family="sans-serif" font-size="14" lengthAdjust="spacing" textLength="75" x="587.5" y="61.9238">Prescription</text><text fill="#000000" font-family="sans-serif" font-size="14" lengthAdjust="spacing" textLength="62" x="594" y="79.5332">Controller</text><ellipse cx="628" cy="31.3906" fill="#E2E2F0" rx="12" ry="12" style="stroke:#181818;stroke-width:0.5;"/><polygon fill="#181818" points="624,19.3906,630,14.3906,628,19.3906,630,24.3906,624,19.3906" style="stroke:#181818;stroke-width:1.0;"/><text fill="#000000" font-family="sans-serif" font-size="14" lengthAdjust="spacing" textLength="101" x="758.5" y="79.5332">PRESCRIPTION</text><ellipse cx="812" cy="49" fill="#E2E2F0" rx="12" ry="12" style="stroke:#181818;stroke-width:0.5;"/><line style="stroke:#181818;stroke-width:0.5;" x1="800" x2="824" y1="63" y2="63"/><rect fill="#FFFFFF" height="354.5156" style="stroke:#181818;stroke-width:1.0;" width="10" x="39" y="410.7734"/><rect fill="#FFFFFF" height="546.625" style="stroke:#181818;stroke-width:1.0;" width="10" x="232" y="249.0156"/><rect fill="#FFFFFF" height="28" style="stroke:#181818;stroke-width:1.0;" width="10" x="237" y="303.7188"/><rect fill="#FFFFFF" height="28" style="stroke:#181818;stroke-width:1.0;" width="10" x="237" y="676.5859"/><rect fill="#FFFFFF" height="82.7031" style="stroke:#181818;stroke-width:1.0;" width="10" x="430" y="903.0469"/><rect fill="#FFFFFF" height="28" style="stroke:#181818;stroke-width:1.0;" width="10" x="435" y="957.75"/><rect fill="#FFFFFF" height="134.0547" style="stroke:#181818;stroke-width:1.0;" width="10" x="623" y="114.9609"/><rect fill="#FFFFFF" height="180.7578" style="stroke:#181818;stroke-width:1.0;" width="10" x="623" y="457.4766"/><rect fill="#FFFFFF" height="107.4063" style="stroke:#181818;stroke-width:1.0;" width="10" x="623" y="795.6406"/><rect fill="#FFFFFF" height="103.7031" style="stroke:#181818;stroke-width:1.0;" width="10" x="807" y="114.9609"/><rect fill="#FFFFFF" height="28" style="stroke:#181818;stroke-width:1.0;" width="10" x="812" y="153.3125"/><rect fill="#FFFFFF" height="103.7031" style="stroke:#181818;stroke-width:1.0;" width="10" x="807" y="504.1797"/><rect fill="#FFFFFF" height="28" style="stroke:#181818;stroke-width:1.0;" width="10" x="812" y="542.5313"/><rect fill="#FFFFFF" height="30.3516" style="stroke:#181818;stroke-width:1.0;" width="10" x="807" y="842.3438"/><polygon fill="#181818" points="795,110.9609,805,114.9609,795,118.9609,799,114.9609" style="stroke:#181818;stroke-width:1.0;"/><line style="stroke:#181818;stroke-width:1.0;" x1="633" x2="801" y1="114.9609" y2="114.9609"/><text fill="#000000" font-family="sans-serif" font-size="13" font-weight="bold" lengthAdjust="spacing" textLength="7" x="640" y="110.1045">1</text><text fill="#000000" font-family="sans-serif" font-size="13" lengthAdjust="spacing" textLength="134" x="651" y="110.1045">Get list of prescriptions</text><line style="stroke:#181818;stroke-width:1.0;" x1="822" x2="864" y1="145.3125" y2="145.3125"/><line style="stroke:#181818;stroke-width:1.0;" x1="864" x2="864" y1="145.3125" y2="158.3125"/><line style="stroke:#181818;stroke-width:1.0;" x1="823" x2="864" y1="158.3125" y2="158.3125"/><polygon fill="#181818" points="833,154.3125,823,158.3125,833,162.3125,829,158.3125" style="stroke:#181818;stroke-width:1.0;"/><text fill="#000000" font-family="sans-serif" font-size="13" font-weight="bold" lengthAdjust="spacing" textLength="7" x="829" y="140.4561">2</text><text fill="#000000" font-family="sans-serif" font-size="13" lengthAdjust="spacing" textLength="64" x="840" y="140.4561">Query data</text><polygon fill="#181818" points="644,214.6641,634,218.6641,644,222.6641,640,218.6641" style="stroke:#181818;stroke-width:1.0;"/><line style="stroke:#181818;stroke-width:1.0;stroke-dasharray:2.0,2.0;" x1="638" x2="811" y1="218.6641" y2="218.6641"/><text fill="#000000" font-family="sans-serif" font-size="13" font-weight="bold" lengthAdjust="spacing" textLength="7" x="650" y="213.8076">3</text><text fill="#000000" font-family="sans-serif" font-size="13" lengthAdjust="spacing" textLength="113" x="661" y="213.8076">List of prescriptions</text><polygon fill="#181818" points="253,245.0156,243,249.0156,253,253.0156,249,249.0156" style="stroke:#181818;stroke-width:1.0;"/><line style="stroke:#181818;stroke-width:1.0;stroke-dasharray:2.0,2.0;" x1="247" x2="627" y1="249.0156" y2="249.0156"/><text fill="#000000" font-family="sans-serif" font-size="13" font-weight="bold" lengthAdjust="spacing" textLength="7" x="259" y="244.1592">4</text><text fill="#000000" font-family="sans-serif" font-size="13" lengthAdjust="spacing" textLength="113" x="270" y="244.1592">List of prescriptions</text><line style="stroke:#181818;stroke-width:1.0;" x1="247" x2="289" y1="295.7188" y2="295.7188"/><line style="stroke:#181818;stroke-width:1.0;" x1="289" x2="289" y1="295.7188" y2="308.7188"/><line style="stroke:#181818;stroke-width:1.0;" x1="248" x2="289" y1="308.7188" y2="308.7188"/><polygon fill="#181818" points="258,304.7188,248,308.7188,258,312.7188,254,308.7188" style="stroke:#181818;stroke-width:1.0;"/><text fill="#000000" font-family="sans-serif" font-size="13" font-weight="bold" lengthAdjust="spacing" textLength="7" x="254" y="282.6865">5</text><text fill="#000000" font-family="sans-serif" font-size="13" lengthAdjust="spacing" textLength="64" x="265" y="274.5107">Display list</text><text fill="#000000" font-family="sans-serif" font-size="13" lengthAdjust="spacing" textLength="88" x="265" y="290.8623">of prescriptions</text><path d="M10,353.7188 L75,353.7188 L75,362.0703 L65,372.0703 L10,372.0703 L10,353.7188 " fill="#EEEEEE" style="stroke:#000000;stroke-width:1.5;"/><rect fill="none" height="365.8672" style="stroke:#000000;stroke-width:1.5;" width="906" x="10" y="353.7188"/><text fill="#000000" font-family="sans-serif" font-size="13" font-weight="bold" lengthAdjust="spacing" textLength="20" x="25" y="368.2139">opt</text><text fill="#000000" font-family="sans-serif" font-size="11" font-weight="bold" lengthAdjust="spacing" textLength="46" x="90" y="367.1377">[Search]</text><polygon fill="#181818" points="220,406.7734,230,410.7734,220,414.7734,224,410.7734" style="stroke:#181818;stroke-width:1.0;"/><line style="stroke:#181818;stroke-width:1.0;" x1="49" x2="226" y1="410.7734" y2="410.7734"/><text fill="#000000" font-family="sans-serif" font-size="13" font-weight="bold" lengthAdjust="spacing" textLength="7" x="56" y="397.7412">6</text><text fill="#000000" font-family="sans-serif" font-size="13" lengthAdjust="spacing" textLength="103" x="67" y="389.5654">Enters the search</text><text fill="#000000" font-family="sans-serif" font-size="13" lengthAdjust="spacing" textLength="121" x="67" y="405.917">criteria in search box</text><polygon fill="#181818" points="611,453.4766,621,457.4766,611,461.4766,615,457.4766" style="stroke:#181818;stroke-width:1.0;"/><line style="stroke:#181818;stroke-width:1.0;" x1="242" x2="617" y1="457.4766" y2="457.4766"/><text fill="#000000" font-family="sans-serif" font-size="13" font-weight="bold" lengthAdjust="spacing" textLength="7" x="249" y="444.4443">7</text><text fill="#000000" font-family="sans-serif" font-size="13" lengthAdjust="spacing" textLength="161" x="260" y="436.2686">Send searching prescription</text><text fill="#000000" font-family="sans-serif" font-size="13" lengthAdjust="spacing" textLength="110" x="260" y="452.6201">information request</text><polygon fill="#181818" points="795,500.1797,805,504.1797,795,508.1797,799,504.1797" style="stroke:#181818;stroke-width:1.0;"/><line style="stroke:#181818;stroke-width:1.0;" x1="633" x2="801" y1="504.1797" y2="504.1797"/><text fill="#000000" font-family="sans-serif" font-size="13" font-weight="bold" lengthAdjust="spacing" textLength="7" x="640" y="491.1475">8</text><text fill="#000000" font-family="sans-serif" font-size="13" lengthAdjust="spacing" textLength="144" x="651" y="482.9717">Search prescription base</text><text fill="#000000" font-family="sans-serif" font-size="13" lengthAdjust="spacing" textLength="106" x="651" y="499.3232">on given keywords</text><line style="stroke:#181818;stroke-width:1.0;" x1="822" x2="864" y1="534.5313" y2="534.5313"/><line style="stroke:#181818;stroke-width:1.0;" x1="864" x2="864" y1="534.5313" y2="547.5313"/><line style="stroke:#181818;stroke-width:1.0;" x1="823" x2="864" y1="547.5313" y2="547.5313"/><polygon fill="#181818" points="833,543.5313,823,547.5313,833,551.5313,829,547.5313" style="stroke:#181818;stroke-width:1.0;"/><text fill="#000000" font-family="sans-serif" font-size="13" font-weight="bold" lengthAdjust="spacing" textLength="7" x="829" y="529.6748">9</text><text fill="#000000" font-family="sans-serif" font-size="13" lengthAdjust="spacing" textLength="64" x="840" y="529.6748">Query data</text><polygon fill="#181818" points="644,603.8828,634,607.8828,644,611.8828,640,607.8828" style="stroke:#181818;stroke-width:1.0;"/><line style="stroke:#181818;stroke-width:1.0;stroke-dasharray:2.0,2.0;" x1="638" x2="811" y1="607.8828" y2="607.8828"/><text fill="#000000" font-family="sans-serif" font-size="13" font-weight="bold" lengthAdjust="spacing" textLength="14" x="650" y="603.0264">10</text><text fill="#000000" font-family="sans-serif" font-size="13" lengthAdjust="spacing" textLength="71" x="668" y="603.0264">Query result</text><polygon fill="#181818" points="253,634.2344,243,638.2344,253,642.2344,249,638.2344" style="stroke:#181818;stroke-width:1.0;"/><line style="stroke:#181818;stroke-width:1.0;stroke-dasharray:2.0,2.0;" x1="247" x2="627" y1="638.2344" y2="638.2344"/><text fill="#000000" font-family="sans-serif" font-size="13" font-weight="bold" lengthAdjust="spacing" textLength="14" x="259" y="633.3779">11</text><text fill="#000000" font-family="sans-serif" font-size="13" lengthAdjust="spacing" textLength="71" x="277" y="633.3779">Query result</text><line style="stroke:#181818;stroke-width:1.0;" x1="247" x2="289" y1="668.5859" y2="668.5859"/><line style="stroke:#181818;stroke-width:1.0;" x1="289" x2="289" y1="668.5859" y2="681.5859"/><line style="stroke:#181818;stroke-width:1.0;" x1="248" x2="289" y1="681.5859" y2="681.5859"/><polygon fill="#181818" points="258,677.5859,248,681.5859,258,685.5859,254,681.5859" style="stroke:#181818;stroke-width:1.0;"/><text fill="#000000" font-family="sans-serif" font-size="13" font-weight="bold" lengthAdjust="spacing" textLength="14" x="254" y="663.7295">12</text><text fill="#000000" font-family="sans-serif" font-size="13" lengthAdjust="spacing" textLength="156" x="272" y="663.7295">Display list of prescriptions</text><polygon fill="#181818" points="220,761.2891,230,765.2891,220,769.2891,224,765.2891" style="stroke:#181818;stroke-width:1.0;"/><line style="stroke:#181818;stroke-width:1.0;" x1="44" x2="226" y1="765.2891" y2="765.2891"/><text fill="#000000" font-family="sans-serif" font-size="13" font-weight="bold" lengthAdjust="spacing" textLength="14" x="51" y="752.2568">13</text><text fill="#000000" font-family="sans-serif" font-size="13" lengthAdjust="spacing" textLength="59" x="69" y="744.0811">Select the</text><text fill="#000000" font-family="sans-serif" font-size="13" lengthAdjust="spacing" textLength="141" x="69" y="760.4326">prescription want to view</text><polygon fill="#181818" points="611,791.6406,621,795.6406,611,799.6406,615,795.6406" style="stroke:#181818;stroke-width:1.0;"/><line style="stroke:#181818;stroke-width:1.0;" x1="237" x2="617" y1="795.6406" y2="795.6406"/><text fill="#000000" font-family="sans-serif" font-size="13" font-weight="bold" lengthAdjust="spacing" textLength="14" x="244" y="790.7842">14</text><text fill="#000000" font-family="sans-serif" font-size="13" lengthAdjust="spacing" textLength="212" x="262" y="790.7842">Get selected prescription information</text><polygon fill="#181818" points="795,838.3438,805,842.3438,795,846.3438,799,842.3438" style="stroke:#181818;stroke-width:1.0;"/><line style="stroke:#181818;stroke-width:1.0;" x1="633" x2="801" y1="842.3438" y2="842.3438"/><text fill="#000000" font-family="sans-serif" font-size="13" font-weight="bold" lengthAdjust="spacing" textLength="14" x="640" y="829.3115">15</text><text fill="#000000" font-family="sans-serif" font-size="13" lengthAdjust="spacing" textLength="74" x="658" y="821.1357">Get selected</text><text fill="#000000" font-family="sans-serif" font-size="13" lengthAdjust="spacing" textLength="134" x="658" y="837.4873">prescription information</text><polygon fill="#181818" points="644,868.6953,634,872.6953,644,876.6953,640,872.6953" style="stroke:#181818;stroke-width:1.0;"/><line style="stroke:#181818;stroke-width:1.0;stroke-dasharray:2.0,2.0;" x1="638" x2="811" y1="872.6953" y2="872.6953"/><text fill="#000000" font-family="sans-serif" font-size="13" font-weight="bold" lengthAdjust="spacing" textLength="14" x="650" y="867.8389">16</text><text fill="#000000" font-family="sans-serif" font-size="13" lengthAdjust="spacing" textLength="71" x="668" y="867.8389">Query result</text><polygon fill="#181818" points="451,899.0469,441,903.0469,451,907.0469,447,903.0469" style="stroke:#181818;stroke-width:1.0;"/><line style="stroke:#181818;stroke-width:1.0;stroke-dasharray:2.0,2.0;" x1="445" x2="627" y1="903.0469" y2="903.0469"/><text fill="#000000" font-family="sans-serif" font-size="13" font-weight="bold" lengthAdjust="spacing" textLength="14" x="457" y="898.1904">17</text><text fill="#000000" font-family="sans-serif" font-size="13" lengthAdjust="spacing" textLength="71" x="475" y="898.1904">Query result</text><line style="stroke:#181818;stroke-width:1.0;" x1="445" x2="487" y1="949.75" y2="949.75"/><line style="stroke:#181818;stroke-width:1.0;" x1="487" x2="487" y1="949.75" y2="962.75"/><line style="stroke:#181818;stroke-width:1.0;" x1="446" x2="487" y1="962.75" y2="962.75"/><polygon fill="#181818" points="456,958.75,446,962.75,456,966.75,452,962.75" style="stroke:#181818;stroke-width:1.0;"/><text fill="#000000" font-family="sans-serif" font-size="13" font-weight="bold" lengthAdjust="spacing" textLength="14" x="452" y="936.7178">18</text><text fill="#000000" font-family="sans-serif" font-size="13" lengthAdjust="spacing" textLength="151" x="470" y="928.542">Display view with selected</text><text fill="#000000" font-family="sans-serif" font-size="13" lengthAdjust="spacing" textLength="134" x="470" y="944.8936">prescription information</text><!--MD5=[bdf4a72debca3f8d46409dcf3ade10d8]
@startuml ViewPrescriptionSeq
autonumber
hide footbox

actor Parent
boundary "Prescription\nManagementView" as PrescriptionManagementView
boundary "Prescription\nInformationView" as PrescriptionInformationView
control "Prescription\nController" as PrescriptionController
entity PRESCRIPTION
PrescriptionController -> PRESCRIPTION: Get list of prescriptions
activate PrescriptionController
activate PRESCRIPTION
PRESCRIPTION -> PRESCRIPTION: Query data
activate PRESCRIPTION
deactivate PRESCRIPTION
PRESCRIPTION - -> PrescriptionController: List of prescriptions
deactivate PRESCRIPTION
PrescriptionController - -> PrescriptionManagementView: List of prescriptions
deactivate PrescriptionController
activate PrescriptionManagementView
PrescriptionManagementView -> PrescriptionManagementView: Display list\nof prescriptions
activate PrescriptionManagementView
deactivate PrescriptionManagementView
opt Search
    Parent -> PrescriptionManagementView: Enters the search\ncriteria in search box
    activate Parent
    PrescriptionManagementView -> PrescriptionController: Send searching prescription\ninformation request
    activate PrescriptionController
    PrescriptionController -> PRESCRIPTION: Search prescription base\non given keywords
    activate PRESCRIPTION
    PRESCRIPTION -> PRESCRIPTION: Query data
    activate PRESCRIPTION
    deactivate PRESCRIPTION
    PRESCRIPTION - -> PrescriptionController: Query result
    deactivate PRESCRIPTION
    PrescriptionController - -> PrescriptionManagementView: Query result
    deactivate PrescriptionController
    PrescriptionManagementView -> PrescriptionManagementView: Display list of prescriptions
    activate PrescriptionManagementView
    deactivate PrescriptionManagementView
end
Parent -> PrescriptionManagementView: Select the\nprescription want to view
deactivate Parent
PrescriptionManagementView -> PrescriptionController: Get selected prescription information
deactivate PrescriptionManagementView
activate PrescriptionController
PrescriptionController -> PRESCRIPTION: Get selected\nprescription information
activate PRESCRIPTION
PRESCRIPTION - -> PrescriptionController: Query result
deactivate PRESCRIPTION
PrescriptionController - -> PrescriptionInformationView: Query result
deactivate PrescriptionController
activate PrescriptionInformationView
PrescriptionInformationView -> PrescriptionInformationView: Display view with selected\nprescription information
activate PrescriptionInformationView
deactivate PrescriptionInformationView
deactivate PrescriptionInformationView
@end

PlantUML version 1.2022.7(Tue Aug 23 00:01:30 ICT 2022)
(GPL source distribution)
Java Runtime: Java(TM) SE Runtime Environment
JVM: Java HotSpot(TM) 64-Bit Server VM
Default Encoding: Cp1252
Language: en
Country: US
--></g></svg>