<?xml version="1.0" encoding="UTF-8" standalone="no"?><svg xmlns="http://www.w3.org/2000/svg" xmlns:xlink="http://www.w3.org/1999/xlink" contentStyleType="text/css" height="1017px" preserveAspectRatio="none" style="width:878px;height:1017px;background:#FFFFFF;" version="1.1" viewBox="0 0 878 1017" width="878px" zoomAndPan="magnify"><defs/><g><rect fill="#FFFFFF" height="354.5156" style="stroke:#181818;stroke-width:1.0;" width="10" x="39" y="410.7734"/><rect fill="#FFFFFF" height="546.625" style="stroke:#181818;stroke-width:1.0;" width="10" x="217" y="249.0156"/><rect fill="#FFFFFF" height="28" style="stroke:#181818;stroke-width:1.0;" width="10" x="222" y="303.7188"/><rect fill="#FFFFFF" height="28" style="stroke:#181818;stroke-width:1.0;" width="10" x="222" y="676.5859"/><rect fill="#FFFFFF" height="82.7031" style="stroke:#181818;stroke-width:1.0;" width="10" x="400" y="903.0469"/><rect fill="#FFFFFF" height="28" style="stroke:#181818;stroke-width:1.0;" width="10" x="405" y="957.75"/><rect fill="#FFFFFF" height="134.0547" style="stroke:#181818;stroke-width:1.0;" width="10" x="593" y="114.9609"/><rect fill="#FFFFFF" height="180.7578" style="stroke:#181818;stroke-width:1.0;" width="10" x="593" y="457.4766"/><rect fill="#FFFFFF" height="107.4063" style="stroke:#181818;stroke-width:1.0;" width="10" x="593" y="795.6406"/><rect fill="#FFFFFF" height="103.7031" style="stroke:#181818;stroke-width:1.0;" width="10" x="763" y="114.9609"/><rect fill="#FFFFFF" height="28" style="stroke:#181818;stroke-width:1.0;" width="10" x="768" y="153.3125"/><rect fill="#FFFFFF" height="103.7031" style="stroke:#181818;stroke-width:1.0;" width="10" x="763" y="504.1797"/><rect fill="#FFFFFF" height="28" style="stroke:#181818;stroke-width:1.0;" width="10" x="768" y="542.5313"/><rect fill="#FFFFFF" height="30.3516" style="stroke:#181818;stroke-width:1.0;" width="10" x="763" y="842.3438"/><rect fill="none" height="365.8672" style="stroke:#000000;stroke-width:1.5;" width="862" x="10" y="353.7188"/><line style="stroke:#181818;stroke-width:0.5;stroke-dasharray:5.0,5.0;" x1="44" x2="44" y1="82.6094" y2="1010.75"/><line style="stroke:#181818;stroke-width:0.5;stroke-dasharray:5.0,5.0;" x1="222" x2="222" y1="82.6094" y2="1010.75"/><line style="stroke:#181818;stroke-width:0.5;stroke-dasharray:5.0,5.0;" x1="405" x2="405" y1="82.6094" y2="1010.75"/><line style="stroke:#181818;stroke-width:0.5;stroke-dasharray:5.0,5.0;" x1="598" x2="598" y1="82.6094" y2="1010.75"/><line style="stroke:#181818;stroke-width:0.5;stroke-dasharray:5.0,5.0;" x1="768" x2="768" y1="82.6094" y2="1010.75"/><text fill="#000000" font-family="sans-serif" font-size="14" lengthAdjust="spacing" textLength="42" x="20" y="79.5332">Parent</text><ellipse cx="44" cy="13.5" fill="#E2E2F0" rx="8" ry="8" style="stroke:#181818;stroke-width:0.5;"/><path d="M44,21.5 L44,48.5 M31,29.5 L57,29.5 M44,48.5 L31,63.5 M44,48.5 L57,63.5 " fill="none" style="stroke:#181818;stroke-width:0.5;"/><text fill="#000000" font-family="sans-serif" font-size="14" lengthAdjust="spacing" textLength="140" x="149" y="61.9238">ImmunizationSchedule</text><text fill="#000000" font-family="sans-serif" font-size="14" lengthAdjust="spacing" textLength="111" x="163.5" y="79.5332">ManagementView</text><path d="M201.5,19.3906 L201.5,43.3906 M201.5,31.3906 L218.5,31.3906 " fill="none" style="stroke:#181818;stroke-width:0.5;"/><ellipse cx="230.5" cy="31.3906" fill="#E2E2F0" rx="12" ry="12" style="stroke:#181818;stroke-width:0.5;"/><text fill="#000000" font-family="sans-serif" font-size="14" lengthAdjust="spacing" textLength="140" x="332" y="61.9238">ImmunizationSchedule</text><text fill="#000000" font-family="sans-serif" font-size="14" lengthAdjust="spacing" textLength="99" x="352.5" y="79.5332">InformationView</text><path d="M384.5,19.3906 L384.5,43.3906 M384.5,31.3906 L401.5,31.3906 " fill="none" style="stroke:#181818;stroke-width:0.5;"/><ellipse cx="413.5" cy="31.3906" fill="#E2E2F0" rx="12" ry="12" style="stroke:#181818;stroke-width:0.5;"/><text fill="#000000" font-family="sans-serif" font-size="14" lengthAdjust="spacing" textLength="140" x="525" y="61.9238">ImmunizationSchedule</text><text fill="#000000" font-family="sans-serif" font-size="14" lengthAdjust="spacing" textLength="62" x="564" y="79.5332">Controller</text><ellipse cx="598" cy="31.3906" fill="#E2E2F0" rx="12" ry="12" style="stroke:#181818;stroke-width:0.5;"/><polygon fill="#181818" points="594,19.3906,600,14.3906,598,19.3906,600,24.3906,594,19.3906" style="stroke:#181818;stroke-width:1.0;"/><text fill="#000000" font-family="sans-serif" font-size="14" lengthAdjust="spacing" textLength="168" x="681" y="79.5332">IMMUNIZATIONSCHEDULE</text><ellipse cx="768" cy="49" fill="#E2E2F0" rx="12" ry="12" style="stroke:#181818;stroke-width:0.5;"/><line style="stroke:#181818;stroke-width:0.5;" x1="756" x2="780" y1="63" y2="63"/><rect fill="#FFFFFF" height="354.5156" style="stroke:#181818;stroke-width:1.0;" width="10" x="39" y="410.7734"/><rect fill="#FFFFFF" height="546.625" style="stroke:#181818;stroke-width:1.0;" width="10" x="217" y="249.0156"/><rect fill="#FFFFFF" height="28" style="stroke:#181818;stroke-width:1.0;" width="10" x="222" y="303.7188"/><rect fill="#FFFFFF" height="28" style="stroke:#181818;stroke-width:1.0;" width="10" x="222" y="676.5859"/><rect fill="#FFFFFF" height="82.7031" style="stroke:#181818;stroke-width:1.0;" width="10" x="400" y="903.0469"/><rect fill="#FFFFFF" height="28" style="stroke:#181818;stroke-width:1.0;" width="10" x="405" y="957.75"/><rect fill="#FFFFFF" height="134.0547" style="stroke:#181818;stroke-width:1.0;" width="10" x="593" y="114.9609"/><rect fill="#FFFFFF" height="180.7578" style="stroke:#181818;stroke-width:1.0;" width="10" x="593" y="457.4766"/><rect fill="#FFFFFF" height="107.4063" style="stroke:#181818;stroke-width:1.0;" width="10" x="593" y="795.6406"/><rect fill="#FFFFFF" height="103.7031" style="stroke:#181818;stroke-width:1.0;" width="10" x="763" y="114.9609"/><rect fill="#FFFFFF" height="28" style="stroke:#181818;stroke-width:1.0;" width="10" x="768" y="153.3125"/><rect fill="#FFFFFF" height="103.7031" style="stroke:#181818;stroke-width:1.0;" width="10" x="763" y="504.1797"/><rect fill="#FFFFFF" height="28" style="stroke:#181818;stroke-width:1.0;" width="10" x="768" y="542.5313"/><rect fill="#FFFFFF" height="30.3516" style="stroke:#181818;stroke-width:1.0;" width="10" x="763" y="842.3438"/><polygon fill="#181818" points="751,110.9609,761,114.9609,751,118.9609,755,114.9609" style="stroke:#181818;stroke-width:1.0;"/><line style="stroke:#181818;stroke-width:1.0;" x1="603" x2="757" y1="114.9609" y2="114.9609"/><text fill="#000000" font-family="sans-serif" font-size="13" font-weight="bold" lengthAdjust="spacing" textLength="7" x="610" y="110.1045">1</text><text fill="#000000" font-family="sans-serif" font-size="13" lengthAdjust="spacing" textLength="119" x="621" y="110.1045">Get list of schedules</text><line style="stroke:#181818;stroke-width:1.0;" x1="778" x2="820" y1="145.3125" y2="145.3125"/><line style="stroke:#181818;stroke-width:1.0;" x1="820" x2="820" y1="145.3125" y2="158.3125"/><line style="stroke:#181818;stroke-width:1.0;" x1="779" x2="820" y1="158.3125" y2="158.3125"/><polygon fill="#181818" points="789,154.3125,779,158.3125,789,162.3125,785,158.3125" style="stroke:#181818;stroke-width:1.0;"/><text fill="#000000" font-family="sans-serif" font-size="13" font-weight="bold" lengthAdjust="spacing" textLength="7" x="785" y="140.4561">2</text><text fill="#000000" font-family="sans-serif" font-size="13" lengthAdjust="spacing" textLength="64" x="796" y="140.4561">Query data</text><polygon fill="#181818" points="614,214.6641,604,218.6641,614,222.6641,610,218.6641" style="stroke:#181818;stroke-width:1.0;"/><line style="stroke:#181818;stroke-width:1.0;stroke-dasharray:2.0,2.0;" x1="608" x2="767" y1="218.6641" y2="218.6641"/><text fill="#000000" font-family="sans-serif" font-size="13" font-weight="bold" lengthAdjust="spacing" textLength="7" x="620" y="213.8076">3</text><text fill="#000000" font-family="sans-serif" font-size="13" lengthAdjust="spacing" textLength="98" x="631" y="213.8076">List of schedules</text><polygon fill="#181818" points="238,245.0156,228,249.0156,238,253.0156,234,249.0156" style="stroke:#181818;stroke-width:1.0;"/><line style="stroke:#181818;stroke-width:1.0;stroke-dasharray:2.0,2.0;" x1="232" x2="597" y1="249.0156" y2="249.0156"/><text fill="#000000" font-family="sans-serif" font-size="13" font-weight="bold" lengthAdjust="spacing" textLength="7" x="244" y="244.1592">4</text><text fill="#000000" font-family="sans-serif" font-size="13" lengthAdjust="spacing" textLength="98" x="255" y="244.1592">List of schedules</text><line style="stroke:#181818;stroke-width:1.0;" x1="232" x2="274" y1="295.7188" y2="295.7188"/><line style="stroke:#181818;stroke-width:1.0;" x1="274" x2="274" y1="295.7188" y2="308.7188"/><line style="stroke:#181818;stroke-width:1.0;" x1="233" x2="274" y1="308.7188" y2="308.7188"/><polygon fill="#181818" points="243,304.7188,233,308.7188,243,312.7188,239,308.7188" style="stroke:#181818;stroke-width:1.0;"/><text fill="#000000" font-family="sans-serif" font-size="13" font-weight="bold" lengthAdjust="spacing" textLength="7" x="239" y="282.6865">5</text><text fill="#000000" font-family="sans-serif" font-size="13" lengthAdjust="spacing" textLength="64" x="250" y="274.5107">Display list</text><text fill="#000000" font-family="sans-serif" font-size="13" lengthAdjust="spacing" textLength="73" x="250" y="290.8623">of schedules</text><path d="M10,353.7188 L75,353.7188 L75,362.0703 L65,372.0703 L10,372.0703 L10,353.7188 " fill="#EEEEEE" style="stroke:#000000;stroke-width:1.5;"/><rect fill="none" height="365.8672" style="stroke:#000000;stroke-width:1.5;" width="862" x="10" y="353.7188"/><text fill="#000000" font-family="sans-serif" font-size="13" font-weight="bold" lengthAdjust="spacing" textLength="20" x="25" y="368.2139">opt</text><text fill="#000000" font-family="sans-serif" font-size="11" font-weight="bold" lengthAdjust="spacing" textLength="46" x="90" y="367.1377">[Search]</text><polygon fill="#181818" points="205,406.7734,215,410.7734,205,414.7734,209,410.7734" style="stroke:#181818;stroke-width:1.0;"/><line style="stroke:#181818;stroke-width:1.0;" x1="49" x2="211" y1="410.7734" y2="410.7734"/><text fill="#000000" font-family="sans-serif" font-size="13" font-weight="bold" lengthAdjust="spacing" textLength="7" x="56" y="397.7412">6</text><text fill="#000000" font-family="sans-serif" font-size="13" lengthAdjust="spacing" textLength="103" x="67" y="389.5654">Enters the search</text><text fill="#000000" font-family="sans-serif" font-size="13" lengthAdjust="spacing" textLength="121" x="67" y="405.917">criteria in search box</text><polygon fill="#181818" points="581,453.4766,591,457.4766,581,461.4766,585,457.4766" style="stroke:#181818;stroke-width:1.0;"/><line style="stroke:#181818;stroke-width:1.0;" x1="227" x2="587" y1="457.4766" y2="457.4766"/><text fill="#000000" font-family="sans-serif" font-size="13" font-weight="bold" lengthAdjust="spacing" textLength="7" x="234" y="444.4443">7</text><text fill="#000000" font-family="sans-serif" font-size="13" lengthAdjust="spacing" textLength="146" x="245" y="436.2686">Send searching schedule</text><text fill="#000000" font-family="sans-serif" font-size="13" lengthAdjust="spacing" textLength="110" x="245" y="452.6201">information request</text><polygon fill="#181818" points="751,500.1797,761,504.1797,751,508.1797,755,504.1797" style="stroke:#181818;stroke-width:1.0;"/><line style="stroke:#181818;stroke-width:1.0;" x1="603" x2="757" y1="504.1797" y2="504.1797"/><text fill="#000000" font-family="sans-serif" font-size="13" font-weight="bold" lengthAdjust="spacing" textLength="7" x="610" y="491.1475">8</text><text fill="#000000" font-family="sans-serif" font-size="13" lengthAdjust="spacing" textLength="129" x="621" y="482.9717">Search schedule base</text><text fill="#000000" font-family="sans-serif" font-size="13" lengthAdjust="spacing" textLength="106" x="621" y="499.3232">on given keywords</text><line style="stroke:#181818;stroke-width:1.0;" x1="778" x2="820" y1="534.5313" y2="534.5313"/><line style="stroke:#181818;stroke-width:1.0;" x1="820" x2="820" y1="534.5313" y2="547.5313"/><line style="stroke:#181818;stroke-width:1.0;" x1="779" x2="820" y1="547.5313" y2="547.5313"/><polygon fill="#181818" points="789,543.5313,779,547.5313,789,551.5313,785,547.5313" style="stroke:#181818;stroke-width:1.0;"/><text fill="#000000" font-family="sans-serif" font-size="13" font-weight="bold" lengthAdjust="spacing" textLength="7" x="785" y="529.6748">9</text><text fill="#000000" font-family="sans-serif" font-size="13" lengthAdjust="spacing" textLength="64" x="796" y="529.6748">Query data</text><polygon fill="#181818" points="614,603.8828,604,607.8828,614,611.8828,610,607.8828" style="stroke:#181818;stroke-width:1.0;"/><line style="stroke:#181818;stroke-width:1.0;stroke-dasharray:2.0,2.0;" x1="608" x2="767" y1="607.8828" y2="607.8828"/><text fill="#000000" font-family="sans-serif" font-size="13" font-weight="bold" lengthAdjust="spacing" textLength="14" x="620" y="603.0264">10</text><text fill="#000000" font-family="sans-serif" font-size="13" lengthAdjust="spacing" textLength="71" x="638" y="603.0264">Query result</text><polygon fill="#181818" points="238,634.2344,228,638.2344,238,642.2344,234,638.2344" style="stroke:#181818;stroke-width:1.0;"/><line style="stroke:#181818;stroke-width:1.0;stroke-dasharray:2.0,2.0;" x1="232" x2="597" y1="638.2344" y2="638.2344"/><text fill="#000000" font-family="sans-serif" font-size="13" font-weight="bold" lengthAdjust="spacing" textLength="14" x="244" y="633.3779">11</text><text fill="#000000" font-family="sans-serif" font-size="13" lengthAdjust="spacing" textLength="71" x="262" y="633.3779">Query result</text><line style="stroke:#181818;stroke-width:1.0;" x1="232" x2="274" y1="668.5859" y2="668.5859"/><line style="stroke:#181818;stroke-width:1.0;" x1="274" x2="274" y1="668.5859" y2="681.5859"/><line style="stroke:#181818;stroke-width:1.0;" x1="233" x2="274" y1="681.5859" y2="681.5859"/><polygon fill="#181818" points="243,677.5859,233,681.5859,243,685.5859,239,681.5859" style="stroke:#181818;stroke-width:1.0;"/><text fill="#000000" font-family="sans-serif" font-size="13" font-weight="bold" lengthAdjust="spacing" textLength="14" x="239" y="663.7295">12</text><text fill="#000000" font-family="sans-serif" font-size="13" lengthAdjust="spacing" textLength="141" x="257" y="663.7295">Display list of schedules</text><polygon fill="#181818" points="205,761.2891,215,765.2891,205,769.2891,209,765.2891" style="stroke:#181818;stroke-width:1.0;"/><line style="stroke:#181818;stroke-width:1.0;" x1="44" x2="211" y1="765.2891" y2="765.2891"/><text fill="#000000" font-family="sans-serif" font-size="13" font-weight="bold" lengthAdjust="spacing" textLength="14" x="51" y="752.2568">13</text><text fill="#000000" font-family="sans-serif" font-size="13" lengthAdjust="spacing" textLength="59" x="69" y="744.0811">Select the</text><text fill="#000000" font-family="sans-serif" font-size="13" lengthAdjust="spacing" textLength="126" x="69" y="760.4326">schedule want to view</text><polygon fill="#181818" points="581,791.6406,591,795.6406,581,799.6406,585,795.6406" style="stroke:#181818;stroke-width:1.0;"/><line style="stroke:#181818;stroke-width:1.0;" x1="222" x2="587" y1="795.6406" y2="795.6406"/><text fill="#000000" font-family="sans-serif" font-size="13" font-weight="bold" lengthAdjust="spacing" textLength="14" x="229" y="790.7842">14</text><text fill="#000000" font-family="sans-serif" font-size="13" lengthAdjust="spacing" textLength="197" x="247" y="790.7842">Get selected schedule information</text><polygon fill="#181818" points="751,838.3438,761,842.3438,751,846.3438,755,842.3438" style="stroke:#181818;stroke-width:1.0;"/><line style="stroke:#181818;stroke-width:1.0;" x1="603" x2="757" y1="842.3438" y2="842.3438"/><text fill="#000000" font-family="sans-serif" font-size="13" font-weight="bold" lengthAdjust="spacing" textLength="14" x="610" y="829.3115">15</text><text fill="#000000" font-family="sans-serif" font-size="13" lengthAdjust="spacing" textLength="74" x="628" y="821.1357">Get selected</text><text fill="#000000" font-family="sans-serif" font-size="13" lengthAdjust="spacing" textLength="119" x="628" y="837.4873">schedule information</text><polygon fill="#181818" points="614,868.6953,604,872.6953,614,876.6953,610,872.6953" style="stroke:#181818;stroke-width:1.0;"/><line style="stroke:#181818;stroke-width:1.0;stroke-dasharray:2.0,2.0;" x1="608" x2="767" y1="872.6953" y2="872.6953"/><text fill="#000000" font-family="sans-serif" font-size="13" font-weight="bold" lengthAdjust="spacing" textLength="14" x="620" y="867.8389">16</text><text fill="#000000" font-family="sans-serif" font-size="13" lengthAdjust="spacing" textLength="71" x="638" y="867.8389">Query result</text><polygon fill="#181818" points="421,899.0469,411,903.0469,421,907.0469,417,903.0469" style="stroke:#181818;stroke-width:1.0;"/><line style="stroke:#181818;stroke-width:1.0;stroke-dasharray:2.0,2.0;" x1="415" x2="597" y1="903.0469" y2="903.0469"/><text fill="#000000" font-family="sans-serif" font-size="13" font-weight="bold" lengthAdjust="spacing" textLength="14" x="427" y="898.1904">17</text><text fill="#000000" font-family="sans-serif" font-size="13" lengthAdjust="spacing" textLength="71" x="445" y="898.1904">Query result</text><line style="stroke:#181818;stroke-width:1.0;" x1="415" x2="457" y1="949.75" y2="949.75"/><line style="stroke:#181818;stroke-width:1.0;" x1="457" x2="457" y1="949.75" y2="962.75"/><line style="stroke:#181818;stroke-width:1.0;" x1="416" x2="457" y1="962.75" y2="962.75"/><polygon fill="#181818" points="426,958.75,416,962.75,426,966.75,422,962.75" style="stroke:#181818;stroke-width:1.0;"/><text fill="#000000" font-family="sans-serif" font-size="13" font-weight="bold" lengthAdjust="spacing" textLength="14" x="422" y="936.7178">18</text><text fill="#000000" font-family="sans-serif" font-size="13" lengthAdjust="spacing" textLength="151" x="440" y="928.542">Display view with selected</text><text fill="#000000" font-family="sans-serif" font-size="13" lengthAdjust="spacing" textLength="119" x="440" y="944.8936">schedule information</text><!--MD5=[05f7e013c9e2b2f03471c617bf7615d3]
@startuml ViewImmunizationScheduleSeq
autonumber
hide footbox

actor Parent
boundary "ImmunizationSchedule\nManagementView" as ImmunizationScheduleManagementView
boundary "ImmunizationSchedule\nInformationView" as ImmunizationScheduleInformationView
control "ImmunizationSchedule\nController" as ImmunizationScheduleController
entity IMMUNIZATIONSCHEDULE
ImmunizationScheduleController -> IMMUNIZATIONSCHEDULE: Get list of schedules
activate ImmunizationScheduleController
activate IMMUNIZATIONSCHEDULE
IMMUNIZATIONSCHEDULE -> IMMUNIZATIONSCHEDULE: Query data
activate IMMUNIZATIONSCHEDULE
deactivate IMMUNIZATIONSCHEDULE
IMMUNIZATIONSCHEDULE - -> ImmunizationScheduleController: List of schedules
deactivate IMMUNIZATIONSCHEDULE
ImmunizationScheduleController - -> ImmunizationScheduleManagementView: List of schedules
deactivate ImmunizationScheduleController
activate ImmunizationScheduleManagementView
ImmunizationScheduleManagementView -> ImmunizationScheduleManagementView: Display list\nof schedules
activate ImmunizationScheduleManagementView
deactivate ImmunizationScheduleManagementView
opt Search
    Parent -> ImmunizationScheduleManagementView: Enters the search\ncriteria in search box
    activate Parent
    ImmunizationScheduleManagementView -> ImmunizationScheduleController: Send searching schedule\ninformation request
    activate ImmunizationScheduleController
    ImmunizationScheduleController -> IMMUNIZATIONSCHEDULE: Search schedule base\non given keywords
    activate IMMUNIZATIONSCHEDULE
    IMMUNIZATIONSCHEDULE -> IMMUNIZATIONSCHEDULE: Query data
    activate IMMUNIZATIONSCHEDULE
    deactivate IMMUNIZATIONSCHEDULE
    IMMUNIZATIONSCHEDULE - -> ImmunizationScheduleController: Query result
    deactivate IMMUNIZATIONSCHEDULE
    ImmunizationScheduleController - -> ImmunizationScheduleManagementView: Query result
    deactivate ImmunizationScheduleController
    ImmunizationScheduleManagementView -> ImmunizationScheduleManagementView: Display list of schedules
    activate ImmunizationScheduleManagementView
    deactivate ImmunizationScheduleManagementView
end
Parent -> ImmunizationScheduleManagementView: Select the\nschedule want to view
deactivate Parent
ImmunizationScheduleManagementView -> ImmunizationScheduleController: Get selected schedule information
deactivate ImmunizationScheduleManagementView
activate ImmunizationScheduleController
ImmunizationScheduleController -> IMMUNIZATIONSCHEDULE: Get selected\nschedule information
activate IMMUNIZATIONSCHEDULE
IMMUNIZATIONSCHEDULE - -> ImmunizationScheduleController: Query result
deactivate IMMUNIZATIONSCHEDULE
ImmunizationScheduleController - -> ImmunizationScheduleInformationView: Query result
deactivate ImmunizationScheduleController
activate ImmunizationScheduleInformationView
ImmunizationScheduleInformationView -> ImmunizationScheduleInformationView: Display view with selected\nschedule information
activate ImmunizationScheduleInformationView
deactivate ImmunizationScheduleInformationView
deactivate ImmunizationScheduleInformationView
@end

PlantUML version 1.2022.7(Tue Aug 23 00:01:30 ICT 2022)
(GPL source distribution)
Java Runtime: Java(TM) SE Runtime Environment
JVM: Java HotSpot(TM) 64-Bit Server VM
Default Encoding: Cp1252
Language: en
Country: US
--></g></svg>