<?xml version="1.0" encoding="UTF-8" standalone="no"?><svg xmlns="http://www.w3.org/2000/svg" xmlns:xlink="http://www.w3.org/1999/xlink" contentStyleType="text/css" height="619px" preserveAspectRatio="none" style="width:633px;height:619px;background:#FFFFFF;" version="1.1" viewBox="0 0 633 619" width="633px" zoomAndPan="magnify"><defs/><g><rect fill="#FFFFFF" height="324.1875" style="stroke:#181818;stroke-width:1.0;" width="10" x="66" y="279.3672"/><rect fill="#FFFFFF" height="427.8906" style="stroke:#181818;stroke-width:1.0;" width="10" x="200.5" y="175.6641"/><rect fill="#FFFFFF" height="28" style="stroke:#181818;stroke-width:1.0;" width="10" x="205.5" y="214.0156"/><rect fill="#FFFFFF" height="60.7031" style="stroke:#181818;stroke-width:1.0;" width="10" x="406.5" y="114.9609"/><rect fill="#FFFFFF" height="30.3516" style="stroke:#181818;stroke-width:1.0;" width="10" x="590.5" y="114.9609"/><rect fill="none" height="64.7969" style="stroke:#000000;stroke-width:1.5;" width="617" x="10" y="294.3672"/><rect fill="none" height="64.7969" style="stroke:#000000;stroke-width:1.5;" width="617" x="10" y="373.1641"/><rect fill="none" height="64.7969" style="stroke:#000000;stroke-width:1.5;" width="617" x="10" y="451.9609"/><rect fill="none" height="64.7969" style="stroke:#000000;stroke-width:1.5;" width="617" x="10" y="530.7578"/><line style="stroke:#181818;stroke-width:0.5;stroke-dasharray:5.0,5.0;" x1="71" x2="71" y1="82.6094" y2="612.5547"/><line style="stroke:#181818;stroke-width:0.5;stroke-dasharray:5.0,5.0;" x1="205" x2="205" y1="82.6094" y2="612.5547"/><line style="stroke:#181818;stroke-width:0.5;stroke-dasharray:5.0,5.0;" x1="411.5" x2="411.5" y1="82.6094" y2="612.5547"/><line style="stroke:#181818;stroke-width:0.5;stroke-dasharray:5.0,5.0;" x1="595" x2="595" y1="82.6094" y2="612.5547"/><text fill="#000000" font-family="sans-serif" font-size="14" lengthAdjust="spacing" textLength="96" x="20" y="79.5332">Parent / Doctor</text><ellipse cx="71" cy="13.5" fill="#E2E2F0" rx="8" ry="8" style="stroke:#181818;stroke-width:0.5;"/><path d="M71,21.5 L71,48.5 M58,29.5 L84,29.5 M71,48.5 L58,63.5 M71,48.5 L84,63.5 " fill="none" style="stroke:#181818;stroke-width:0.5;"/><text fill="#000000" font-family="sans-serif" font-size="14" lengthAdjust="spacing" textLength="141" x="132" y="79.5332">ChatManagementView</text><path d="M185,37 L185,61 M185,49 L202,49 " fill="none" style="stroke:#181818;stroke-width:0.5;"/><ellipse cx="214" cy="49" fill="#E2E2F0" rx="12" ry="12" style="stroke:#181818;stroke-width:0.5;"/><text fill="#000000" font-family="sans-serif" font-size="14" lengthAdjust="spacing" textLength="92" x="362.5" y="79.5332">ChatController</text><ellipse cx="411.5" cy="49" fill="#E2E2F0" rx="12" ry="12" style="stroke:#181818;stroke-width:0.5;"/><polygon fill="#181818" points="407.5,37,413.5,32,411.5,37,413.5,42,407.5,37" style="stroke:#181818;stroke-width:1.0;"/><text fill="#000000" font-family="sans-serif" font-size="14" lengthAdjust="spacing" textLength="37" x="574" y="79.5332">CHAT</text><ellipse cx="595.5" cy="49" fill="#E2E2F0" rx="12" ry="12" style="stroke:#181818;stroke-width:0.5;"/><line style="stroke:#181818;stroke-width:0.5;" x1="583.5" x2="607.5" y1="63" y2="63"/><rect fill="#FFFFFF" height="324.1875" style="stroke:#181818;stroke-width:1.0;" width="10" x="66" y="279.3672"/><rect fill="#FFFFFF" height="427.8906" style="stroke:#181818;stroke-width:1.0;" width="10" x="200.5" y="175.6641"/><rect fill="#FFFFFF" height="28" style="stroke:#181818;stroke-width:1.0;" width="10" x="205.5" y="214.0156"/><rect fill="#FFFFFF" height="60.7031" style="stroke:#181818;stroke-width:1.0;" width="10" x="406.5" y="114.9609"/><rect fill="#FFFFFF" height="30.3516" style="stroke:#181818;stroke-width:1.0;" width="10" x="590.5" y="114.9609"/><polygon fill="#181818" points="578.5,110.9609,588.5,114.9609,578.5,118.9609,582.5,114.9609" style="stroke:#181818;stroke-width:1.0;"/><line style="stroke:#181818;stroke-width:1.0;" x1="416.5" x2="584.5" y1="114.9609" y2="114.9609"/><text fill="#000000" font-family="sans-serif" font-size="13" font-weight="bold" lengthAdjust="spacing" textLength="7" x="423.5" y="110.1045">1</text><text fill="#000000" font-family="sans-serif" font-size="13" lengthAdjust="spacing" textLength="149" x="434.5" y="110.1045">Get list of chat messages</text><polygon fill="#181818" points="427.5,141.3125,417.5,145.3125,427.5,149.3125,423.5,145.3125" style="stroke:#181818;stroke-width:1.0;"/><line style="stroke:#181818;stroke-width:1.0;stroke-dasharray:2.0,2.0;" x1="421.5" x2="594.5" y1="145.3125" y2="145.3125"/><text fill="#000000" font-family="sans-serif" font-size="13" font-weight="bold" lengthAdjust="spacing" textLength="7" x="433.5" y="140.4561">2</text><text fill="#000000" font-family="sans-serif" font-size="13" lengthAdjust="spacing" textLength="128" x="444.5" y="140.4561">List of chat messages</text><polygon fill="#181818" points="221.5,171.6641,211.5,175.6641,221.5,179.6641,217.5,175.6641" style="stroke:#181818;stroke-width:1.0;"/><line style="stroke:#181818;stroke-width:1.0;stroke-dasharray:2.0,2.0;" x1="215.5" x2="410.5" y1="175.6641" y2="175.6641"/><text fill="#000000" font-family="sans-serif" font-size="13" font-weight="bold" lengthAdjust="spacing" textLength="7" x="227.5" y="170.8076">3</text><text fill="#000000" font-family="sans-serif" font-size="13" lengthAdjust="spacing" textLength="128" x="238.5" y="170.8076">List of chat messages</text><line style="stroke:#181818;stroke-width:1.0;" x1="215.5" x2="257.5" y1="206.0156" y2="206.0156"/><line style="stroke:#181818;stroke-width:1.0;" x1="257.5" x2="257.5" y1="206.0156" y2="219.0156"/><line style="stroke:#181818;stroke-width:1.0;" x1="216.5" x2="257.5" y1="219.0156" y2="219.0156"/><polygon fill="#181818" points="226.5,215.0156,216.5,219.0156,226.5,223.0156,222.5,219.0156" style="stroke:#181818;stroke-width:1.0;"/><text fill="#000000" font-family="sans-serif" font-size="13" font-weight="bold" lengthAdjust="spacing" textLength="7" x="222.5" y="201.1592">4</text><text fill="#000000" font-family="sans-serif" font-size="13" lengthAdjust="spacing" textLength="171" x="233.5" y="201.1592">Display list of chat messages</text><polygon fill="#181818" points="188.5,275.3672,198.5,279.3672,188.5,283.3672,192.5,279.3672" style="stroke:#181818;stroke-width:1.0;"/><line style="stroke:#181818;stroke-width:1.0;" x1="76" x2="194.5" y1="279.3672" y2="279.3672"/><text fill="#000000" font-family="sans-serif" font-size="13" font-weight="bold" lengthAdjust="spacing" textLength="7" x="83" y="274.5107">5</text><text fill="#000000" font-family="sans-serif" font-size="13" lengthAdjust="spacing" textLength="93" x="94" y="274.5107">Choose function</text><path d="M10,294.3672 L75,294.3672 L75,302.7188 L65,312.7188 L10,312.7188 L10,294.3672 " fill="#EEEEEE" style="stroke:#000000;stroke-width:1.5;"/><rect fill="none" height="64.7969" style="stroke:#000000;stroke-width:1.5;" width="617" x="10" y="294.3672"/><text fill="#000000" font-family="sans-serif" font-size="13" font-weight="bold" lengthAdjust="spacing" textLength="20" x="25" y="308.8623">opt</text><text fill="#000000" font-family="sans-serif" font-size="11" font-weight="bold" lengthAdjust="spacing" textLength="99" x="90" y="307.7861">[Create Message]</text><rect fill="none" height="41.4453" style="stroke:#000000;stroke-width:1.5;" width="603" x="17" y="312.7188"/><path d="M17,312.7188 L79,312.7188 L79,320.7188 L69,330.7188 L17,330.7188 L17,312.7188 " fill="#EEEEEE" style="stroke:#000000;stroke-width:2.0;"/><text fill="#000000" font-family="sans-serif" font-size="13" font-weight="bold" lengthAdjust="spacing" textLength="17" x="30" y="328.2139">ref</text><text fill="#000000" font-family="sans-serif" font-size="12" lengthAdjust="spacing" textLength="150" x="243.5" y="347.1758">Sequence Create Message</text><path d="M10,373.1641 L75,373.1641 L75,381.5156 L65,391.5156 L10,391.5156 L10,373.1641 " fill="#EEEEEE" style="stroke:#000000;stroke-width:1.5;"/><rect fill="none" height="64.7969" style="stroke:#000000;stroke-width:1.5;" width="617" x="10" y="373.1641"/><text fill="#000000" font-family="sans-serif" font-size="13" font-weight="bold" lengthAdjust="spacing" textLength="20" x="25" y="387.6592">opt</text><text fill="#000000" font-family="sans-serif" font-size="11" font-weight="bold" lengthAdjust="spacing" textLength="105" x="90" y="386.583">[Receive Message]</text><rect fill="none" height="41.4453" style="stroke:#000000;stroke-width:1.5;" width="603" x="17" y="391.5156"/><path d="M17,391.5156 L79,391.5156 L79,399.5156 L69,409.5156 L17,409.5156 L17,391.5156 " fill="#EEEEEE" style="stroke:#000000;stroke-width:2.0;"/><text fill="#000000" font-family="sans-serif" font-size="13" font-weight="bold" lengthAdjust="spacing" textLength="17" x="30" y="407.0107">ref</text><text fill="#000000" font-family="sans-serif" font-size="12" lengthAdjust="spacing" textLength="157" x="240" y="425.9727">Sequence Receive Message</text><path d="M10,451.9609 L75,451.9609 L75,460.3125 L65,470.3125 L10,470.3125 L10,451.9609 " fill="#EEEEEE" style="stroke:#000000;stroke-width:1.5;"/><rect fill="none" height="64.7969" style="stroke:#000000;stroke-width:1.5;" width="617" x="10" y="451.9609"/><text fill="#000000" font-family="sans-serif" font-size="13" font-weight="bold" lengthAdjust="spacing" textLength="20" x="25" y="466.4561">opt</text><text fill="#000000" font-family="sans-serif" font-size="11" font-weight="bold" lengthAdjust="spacing" textLength="97" x="90" y="465.3799">[Delete Message]</text><rect fill="none" height="41.4453" style="stroke:#000000;stroke-width:1.5;" width="603" x="17" y="470.3125"/><path d="M17,470.3125 L79,470.3125 L79,478.3125 L69,488.3125 L17,488.3125 L17,470.3125 " fill="#EEEEEE" style="stroke:#000000;stroke-width:2.0;"/><text fill="#000000" font-family="sans-serif" font-size="13" font-weight="bold" lengthAdjust="spacing" textLength="17" x="30" y="485.8076">ref</text><text fill="#000000" font-family="sans-serif" font-size="12" lengthAdjust="spacing" textLength="149" x="244" y="504.7695">Sequence Delete Message</text><path d="M10,530.7578 L75,530.7578 L75,539.1094 L65,549.1094 L10,549.1094 L10,530.7578 " fill="#EEEEEE" style="stroke:#000000;stroke-width:1.5;"/><rect fill="none" height="64.7969" style="stroke:#000000;stroke-width:1.5;" width="617" x="10" y="530.7578"/><text fill="#000000" font-family="sans-serif" font-size="13" font-weight="bold" lengthAdjust="spacing" textLength="20" x="25" y="545.2529">opt</text><text fill="#000000" font-family="sans-serif" font-size="11" font-weight="bold" lengthAdjust="spacing" textLength="107" x="90" y="544.1768">[Search Messages]</text><rect fill="none" height="41.4453" style="stroke:#000000;stroke-width:1.5;" width="603" x="17" y="549.1094"/><path d="M17,549.1094 L79,549.1094 L79,557.1094 L69,567.1094 L17,567.1094 L17,549.1094 " fill="#EEEEEE" style="stroke:#000000;stroke-width:2.0;"/><text fill="#000000" font-family="sans-serif" font-size="13" font-weight="bold" lengthAdjust="spacing" textLength="17" x="30" y="564.6045">ref</text><text fill="#000000" font-family="sans-serif" font-size="12" lengthAdjust="spacing" textLength="159" x="239" y="583.5664">Sequence Search Messages</text><!--MD5=[e6b2ef5c1308dd1fd09c7b534c775f72]
@startuml ChatSeq
autonumber
hide footbox

actor "Parent / Doctor" as ParentDoctor
boundary ChatManagementView
control ChatController
entity CHAT

ChatController -> CHAT: Get list of chat messages
activate ChatController
activate CHAT
CHAT - - -> ChatController: List of chat messages
deactivate CHAT
ChatController - -> ChatManagementView: List of chat messages
deactivate ChatController
activate ChatManagementView
ChatManagementView -> ChatManagementView: Display list of chat messages
activate ChatManagementView
deactivate ChatManagementView
ParentDoctor -> ChatManagementView: Choose function
activate ParentDoctor

opt Create Message
    ref over ParentDoctor, ChatManagementView, ChatController, CHAT: Sequence Create Message
end

opt Receive Message
    ref over ParentDoctor, ChatManagementView, ChatController, CHAT: Sequence Receive Message
end

opt Delete Message
    ref over ParentDoctor, ChatManagementView, ChatController, CHAT: Sequence Delete Message
end

opt Search Messages
    ref over ParentDoctor, ChatManagementView, ChatController, CHAT: Sequence Search Messages
end

@enduml

PlantUML version 1.2022.7(Tue Aug 23 00:01:30 ICT 2022)
(GPL source distribution)
Java Runtime: Java(TM) SE Runtime Environment
JVM: Java HotSpot(TM) 64-Bit Server VM
Default Encoding: Cp1252
Language: en
Country: US
--></g></svg>