<?xml version="1.0" encoding="UTF-8" standalone="no"?><svg xmlns="http://www.w3.org/2000/svg" xmlns:xlink="http://www.w3.org/1999/xlink" contentStyleType="text/css" height="388px" preserveAspectRatio="none" style="width:696px;height:388px;background:#FFFFFF;" version="1.1" viewBox="0 0 696 388" width="696px" zoomAndPan="magnify"><defs/><g><rect fill="#FFFFFF" height="125.5" style="stroke:#181818;stroke-width:1.0;" width="10" x="66" y="131.3125"/><rect fill="#FFFFFF" height="155.8516" style="stroke:#181818;stroke-width:1.0;" width="10" x="207" y="131.3125"/><rect fill="#FFFFFF" height="30" style="stroke:#181818;stroke-width:1.0;" width="10" x="323" y="333.8672"/><rect fill="#FFFFFF" height="76.7031" style="stroke:#181818;stroke-width:1.0;" width="10" x="482" y="287.1641"/><rect fill="none" height="64.7969" style="stroke:#000000;stroke-width:1.5;" width="680" x="10" y="146.3125"/><line style="stroke:#181818;stroke-width:0.5;stroke-dasharray:5.0,5.0;" x1="71" x2="71" y1="82.6094" y2="381.8672"/><line style="stroke:#181818;stroke-width:0.5;stroke-dasharray:5.0,5.0;" x1="211.5" x2="211.5" y1="82.6094" y2="381.8672"/><line style="stroke:#181818;stroke-width:0.5;stroke-dasharray:5.0,5.0;" x1="327.5" x2="327.5" y1="82.6094" y2="381.8672"/><line style="stroke:#181818;stroke-width:0.5;stroke-dasharray:5.0,5.0;" x1="487" x2="487" y1="82.6094" y2="381.8672"/><line style="stroke:#181818;stroke-width:0.5;stroke-dasharray:5.0,5.0;" x1="613" x2="613" y1="82.6094" y2="381.8672"/><text fill="#000000" font-family="sans-serif" font-size="14" lengthAdjust="spacing" textLength="96" x="20" y="79.5332">Parent / Doctor</text><ellipse cx="71" cy="13.5" fill="#E2E2F0" rx="8" ry="8" style="stroke:#181818;stroke-width:0.5;"/><path d="M71,21.5 L71,48.5 M58,29.5 L84,29.5 M71,48.5 L58,63.5 M71,48.5 L84,63.5 " fill="none" style="stroke:#181818;stroke-width:0.5;"/><text fill="#000000" font-family="sans-serif" font-size="14" lengthAdjust="spacing" textLength="141" x="138.5" y="79.5332">ChatManagementView</text><path d="M191.5,37 L191.5,61 M191.5,49 L208.5,49 " fill="none" style="stroke:#181818;stroke-width:0.5;"/><ellipse cx="220.5" cy="49" fill="#E2E2F0" rx="12" ry="12" style="stroke:#181818;stroke-width:0.5;"/><text fill="#000000" font-family="sans-serif" font-size="14" lengthAdjust="spacing" textLength="59" x="295.5" y="79.5332">ChatView</text><path d="M307.5,37 L307.5,61 M307.5,49 L324.5,49 " fill="none" style="stroke:#181818;stroke-width:0.5;"/><ellipse cx="336.5" cy="49" fill="#E2E2F0" rx="12" ry="12" style="stroke:#181818;stroke-width:0.5;"/><text fill="#000000" font-family="sans-serif" font-size="14" lengthAdjust="spacing" textLength="92" x="438" y="79.5332">ChatController</text><ellipse cx="487" cy="49" fill="#E2E2F0" rx="12" ry="12" style="stroke:#181818;stroke-width:0.5;"/><polygon fill="#181818" points="483,37,489,32,487,37,489,42,483,37" style="stroke:#181818;stroke-width:1.0;"/><text fill="#000000" font-family="sans-serif" font-size="14" lengthAdjust="spacing" textLength="128" x="546" y="79.5332">PARENT / DOCTOR</text><ellipse cx="613" cy="49" fill="#E2E2F0" rx="12" ry="12" style="stroke:#181818;stroke-width:0.5;"/><line style="stroke:#181818;stroke-width:0.5;" x1="601" x2="625" y1="63" y2="63"/><rect fill="#FFFFFF" height="125.5" style="stroke:#181818;stroke-width:1.0;" width="10" x="66" y="131.3125"/><rect fill="#FFFFFF" height="155.8516" style="stroke:#181818;stroke-width:1.0;" width="10" x="207" y="131.3125"/><rect fill="#FFFFFF" height="30" style="stroke:#181818;stroke-width:1.0;" width="10" x="323" y="333.8672"/><rect fill="#FFFFFF" height="76.7031" style="stroke:#181818;stroke-width:1.0;" width="10" x="482" y="287.1641"/><polygon fill="#181818" points="195,127.3125,205,131.3125,195,135.3125,199,131.3125" style="stroke:#181818;stroke-width:1.0;"/><line style="stroke:#181818;stroke-width:1.0;" x1="76" x2="201" y1="131.3125" y2="131.3125"/><text fill="#000000" font-family="sans-serif" font-size="13" font-weight="bold" lengthAdjust="spacing" textLength="7" x="83" y="118.2803">1</text><text fill="#000000" font-family="sans-serif" font-size="13" lengthAdjust="spacing" textLength="87" x="94" y="110.1045">Click on button</text><text fill="#000000" font-family="sans-serif" font-size="13" lengthAdjust="spacing" textLength="106" x="94" y="126.4561">"Create new Chat"</text><path d="M10,146.3125 L75,146.3125 L75,154.6641 L65,164.6641 L10,164.6641 L10,146.3125 " fill="#EEEEEE" style="stroke:#000000;stroke-width:1.5;"/><rect fill="none" height="64.7969" style="stroke:#000000;stroke-width:1.5;" width="680" x="10" y="146.3125"/><text fill="#000000" font-family="sans-serif" font-size="13" font-weight="bold" lengthAdjust="spacing" textLength="20" x="25" y="160.8076">opt</text><text fill="#000000" font-family="sans-serif" font-size="11" font-weight="bold" lengthAdjust="spacing" textLength="46" x="90" y="159.7314">[Search]</text><rect fill="none" height="41.4453" style="stroke:#000000;stroke-width:1.5;" width="666" x="17" y="164.6641"/><path d="M17,164.6641 L79,164.6641 L79,172.6641 L69,182.6641 L17,182.6641 L17,164.6641 " fill="#EEEEEE" style="stroke:#000000;stroke-width:2.0;"/><text fill="#000000" font-family="sans-serif" font-size="13" font-weight="bold" lengthAdjust="spacing" textLength="17" x="30" y="180.1592">ref</text><text fill="#000000" font-family="sans-serif" font-size="12" lengthAdjust="spacing" textLength="182" x="259" y="199.1211">Sequence Search Parent / Doctor</text><polygon fill="#181818" points="195,252.8125,205,256.8125,195,260.8125,199,256.8125" style="stroke:#181818;stroke-width:1.0;"/><line style="stroke:#181818;stroke-width:1.0;" x1="71" x2="201" y1="256.8125" y2="256.8125"/><text fill="#000000" font-family="sans-serif" font-size="13" font-weight="bold" lengthAdjust="spacing" textLength="7" x="78" y="243.7803">2</text><text fill="#000000" font-family="sans-serif" font-size="13" lengthAdjust="spacing" textLength="66" x="89" y="235.6045">Select user</text><text fill="#000000" font-family="sans-serif" font-size="13" lengthAdjust="spacing" textLength="71" x="89" y="251.9561">want to chat</text><polygon fill="#181818" points="470,283.1641,480,287.1641,470,291.1641,474,287.1641" style="stroke:#181818;stroke-width:1.0;"/><line style="stroke:#181818;stroke-width:1.0;" x1="212" x2="476" y1="287.1641" y2="287.1641"/><text fill="#000000" font-family="sans-serif" font-size="13" font-weight="bold" lengthAdjust="spacing" textLength="7" x="219" y="282.3076">3</text><text fill="#000000" font-family="sans-serif" font-size="13" lengthAdjust="spacing" textLength="157" x="230" y="282.3076">Connect with selected user</text><polygon fill="#181818" points="344,329.8672,334,333.8672,344,337.8672,340,333.8672" style="stroke:#181818;stroke-width:1.0;"/><line style="stroke:#181818;stroke-width:1.0;" x1="338" x2="481" y1="333.8672" y2="333.8672"/><text fill="#000000" font-family="sans-serif" font-size="13" font-weight="bold" lengthAdjust="spacing" textLength="7" x="350" y="320.835">4</text><text fill="#000000" font-family="sans-serif" font-size="13" lengthAdjust="spacing" textLength="119" x="361" y="312.6592">Display conversation</text><text fill="#000000" font-family="sans-serif" font-size="13" lengthAdjust="spacing" textLength="105" x="361" y="329.0107">with selected user</text><!--MD5=[6e773a7db568214f7b63274103132fcc]
@startuml CreateChatSeq
autonumber
hide footbox

actor "Parent / Doctor" as ParentDoctor
boundary "ChatManagementView" as ChatManagementView
boundary ChatView
control ChatController
entity "PARENT / DOCTOR" as PARENTDOCTOR

ParentDoctor -> ChatManagementView: Click on button\n"Create new Chat"
activate ParentDoctor
activate ChatManagementView
opt Search 
ref over ParentDoctor, ChatManagementView, ChatView, ChatController, PARENTDOCTOR: Sequence Search Parent / Doctor
end 

ParentDoctor -> ChatManagementView: Select user\nwant to chat
deactivate ParentDoctor
ChatManagementView -> ChatController: Connect with selected user
deactivate ChatManagementView
activate ChatController
ChatController -> ChatView: Display conversation\nwith selected user
activate ChatView
deactivate ChatController
deactivate ChatView

@enduml

PlantUML version 1.2022.7(Tue Aug 23 00:01:30 ICT 2022)
(GPL source distribution)
Java Runtime: Java(TM) SE Runtime Environment
JVM: Java HotSpot(TM) 64-Bit Server VM
Default Encoding: Cp1252
Language: en
Country: US
--></g></svg>