<?xml version="1.0" encoding="UTF-8" standalone="no"?><svg xmlns="http://www.w3.org/2000/svg" xmlns:xlink="http://www.w3.org/1999/xlink" contentStyleType="text/css" height="1049px" preserveAspectRatio="none" style="width:750px;height:1049px;background:#FFFFFF;" version="1.1" viewBox="0 0 750 1049" width="750px" zoomAndPan="magnify"><defs/><g><rect fill="#FFFFFF" height="281.2969" style="stroke:#181818;stroke-width:1.0;" width="10" x="66" y="210.1094"/><rect fill="#FFFFFF" height="793.7031" style="stroke:#181818;stroke-width:1.0;" width="10" x="238" y="210.1094"/><rect fill="#FFFFFF" height="28" style="stroke:#181818;stroke-width:1.0;" width="10" x="243" y="264.8125"/><rect fill="#FFFFFF" height="28" style="stroke:#181818;stroke-width:1.0;" width="10" x="243" y="410.2188"/><rect fill="#FFFFFF" height="28" style="stroke:#181818;stroke-width:1.0;" width="10" x="243" y="766.2188"/><rect fill="#FFFFFF" height="413" style="stroke:#181818;stroke-width:1.0;" width="10" x="442" y="538.1094"/><rect fill="#FFFFFF" height="352.2969" style="stroke:#181818;stroke-width:1.0;" width="10" x="611" y="568.4609"/><rect fill="#FFFFFF" height="28" style="stroke:#181818;stroke-width:1.0;" width="10" x="616" y="606.8125"/><rect fill="#FFFFFF" height="28" style="stroke:#181818;stroke-width:1.0;" width="10" x="616" y="855.4063"/><rect fill="none" height="64.7969" style="stroke:#000000;stroke-width:1.5;" width="637.5" x="10" y="99.6094"/><rect fill="none" height="711" style="stroke:#000000;stroke-width:1.5;" width="733" x="10" y="314.8125"/><rect fill="none" height="362" style="stroke:#000000;stroke-width:1.5;" width="573.5" x="159.5" y="656.8125"/><line style="stroke:#181818;stroke-width:0.5;stroke-dasharray:5.0,5.0;" x1="71" x2="71" y1="82.6094" y2="1042.8125"/><line style="stroke:#181818;stroke-width:0.5;stroke-dasharray:5.0,5.0;" x1="242.5" x2="242.5" y1="82.6094" y2="1042.8125"/><line style="stroke:#181818;stroke-width:0.5;stroke-dasharray:5.0,5.0;" x1="447" x2="447" y1="82.6094" y2="1042.8125"/><line style="stroke:#181818;stroke-width:0.5;stroke-dasharray:5.0,5.0;" x1="615.5" x2="615.5" y1="82.6094" y2="1042.8125"/><text fill="#000000" font-family="sans-serif" font-size="14" lengthAdjust="spacing" textLength="96" x="20" y="79.5332">Parent / Doctor</text><ellipse cx="71" cy="13.5" fill="#E2E2F0" rx="8" ry="8" style="stroke:#181818;stroke-width:0.5;"/><path d="M71,21.5 L71,48.5 M58,29.5 L84,29.5 M71,48.5 L58,63.5 M71,48.5 L84,63.5 " fill="none" style="stroke:#181818;stroke-width:0.5;"/><text fill="#000000" font-family="sans-serif" font-size="14" lengthAdjust="spacing" textLength="141" x="169.5" y="79.5332">ChatManagementView</text><path d="M222.5,37 L222.5,61 M222.5,49 L239.5,49 " fill="none" style="stroke:#181818;stroke-width:0.5;"/><ellipse cx="251.5" cy="49" fill="#E2E2F0" rx="12" ry="12" style="stroke:#181818;stroke-width:0.5;"/><text fill="#000000" font-family="sans-serif" font-size="14" lengthAdjust="spacing" textLength="92" x="398" y="79.5332">ChatController</text><ellipse cx="447" cy="49" fill="#E2E2F0" rx="12" ry="12" style="stroke:#181818;stroke-width:0.5;"/><polygon fill="#181818" points="443,37,449,32,447,37,449,42,443,37" style="stroke:#181818;stroke-width:1.0;"/><text fill="#000000" font-family="sans-serif" font-size="14" lengthAdjust="spacing" textLength="37" x="594.5" y="79.5332">CHAT</text><ellipse cx="616" cy="49" fill="#E2E2F0" rx="12" ry="12" style="stroke:#181818;stroke-width:0.5;"/><line style="stroke:#181818;stroke-width:0.5;" x1="604" x2="628" y1="63" y2="63"/><rect fill="#FFFFFF" height="281.2969" style="stroke:#181818;stroke-width:1.0;" width="10" x="66" y="210.1094"/><rect fill="#FFFFFF" height="793.7031" style="stroke:#181818;stroke-width:1.0;" width="10" x="238" y="210.1094"/><rect fill="#FFFFFF" height="28" style="stroke:#181818;stroke-width:1.0;" width="10" x="243" y="264.8125"/><rect fill="#FFFFFF" height="28" style="stroke:#181818;stroke-width:1.0;" width="10" x="243" y="410.2188"/><rect fill="#FFFFFF" height="28" style="stroke:#181818;stroke-width:1.0;" width="10" x="243" y="766.2188"/><rect fill="#FFFFFF" height="413" style="stroke:#181818;stroke-width:1.0;" width="10" x="442" y="538.1094"/><rect fill="#FFFFFF" height="352.2969" style="stroke:#181818;stroke-width:1.0;" width="10" x="611" y="568.4609"/><rect fill="#FFFFFF" height="28" style="stroke:#181818;stroke-width:1.0;" width="10" x="616" y="606.8125"/><rect fill="#FFFFFF" height="28" style="stroke:#181818;stroke-width:1.0;" width="10" x="616" y="855.4063"/><path d="M10,99.6094 L75,99.6094 L75,107.9609 L65,117.9609 L10,117.9609 L10,99.6094 " fill="#EEEEEE" style="stroke:#000000;stroke-width:1.5;"/><rect fill="none" height="64.7969" style="stroke:#000000;stroke-width:1.5;" width="637.5" x="10" y="99.6094"/><text fill="#000000" font-family="sans-serif" font-size="13" font-weight="bold" lengthAdjust="spacing" textLength="20" x="25" y="114.1045">opt</text><rect fill="none" height="41.4453" style="stroke:#000000;stroke-width:1.5;" width="623.5" x="17" y="117.9609"/><path d="M17,117.9609 L79,117.9609 L79,125.9609 L69,135.9609 L17,135.9609 L17,117.9609 " fill="#EEEEEE" style="stroke:#000000;stroke-width:2.0;"/><text fill="#000000" font-family="sans-serif" font-size="13" font-weight="bold" lengthAdjust="spacing" textLength="17" x="30" y="133.4561">ref</text><text fill="#000000" font-family="sans-serif" font-size="12" lengthAdjust="spacing" textLength="127" x="265.25" y="152.418">Sequence Search Chat</text><polygon fill="#181818" points="226,206.1094,236,210.1094,226,214.1094,230,210.1094" style="stroke:#181818;stroke-width:1.0;"/><line style="stroke:#181818;stroke-width:1.0;" x1="76" x2="232" y1="210.1094" y2="210.1094"/><text fill="#000000" font-family="sans-serif" font-size="13" font-weight="bold" lengthAdjust="spacing" textLength="7" x="83" y="197.0771">1</text><text fill="#000000" font-family="sans-serif" font-size="13" lengthAdjust="spacing" textLength="66" x="94" y="188.9014">Select chat</text><text fill="#000000" font-family="sans-serif" font-size="13" lengthAdjust="spacing" textLength="84" x="98" y="205.2529">needs deleting</text><line style="stroke:#181818;stroke-width:1.0;" x1="253" x2="295" y1="256.8125" y2="256.8125"/><line style="stroke:#181818;stroke-width:1.0;" x1="295" x2="295" y1="256.8125" y2="269.8125"/><line style="stroke:#181818;stroke-width:1.0;" x1="254" x2="295" y1="269.8125" y2="269.8125"/><polygon fill="#181818" points="264,265.8125,254,269.8125,264,273.8125,260,269.8125" style="stroke:#181818;stroke-width:1.0;"/><text fill="#000000" font-family="sans-serif" font-size="13" font-weight="bold" lengthAdjust="spacing" textLength="7" x="260" y="243.7803">2</text><text fill="#000000" font-family="sans-serif" font-size="13" lengthAdjust="spacing" textLength="43" x="271" y="235.6045">Display</text><text fill="#000000" font-family="sans-serif" font-size="13" lengthAdjust="spacing" textLength="148" x="271" y="251.9561">confirmation messagebox</text><path d="M10,314.8125 L71,314.8125 L71,323.1641 L61,333.1641 L10,333.1641 L10,314.8125 " fill="#EEEEEE" style="stroke:#000000;stroke-width:1.5;"/><rect fill="none" height="711" style="stroke:#000000;stroke-width:1.5;" width="733" x="10" y="314.8125"/><text fill="#000000" font-family="sans-serif" font-size="13" font-weight="bold" lengthAdjust="spacing" textLength="16" x="25" y="329.3076">alt</text><text fill="#000000" font-family="sans-serif" font-size="11" font-weight="bold" lengthAdjust="spacing" textLength="45" x="86" y="328.2314">[Cancel]</text><polygon fill="#181818" points="226,351.5156,236,355.5156,226,359.5156,230,355.5156" style="stroke:#181818;stroke-width:1.0;"/><line style="stroke:#181818;stroke-width:1.0;" x1="76" x2="232" y1="355.5156" y2="355.5156"/><text fill="#000000" font-family="sans-serif" font-size="13" font-weight="bold" lengthAdjust="spacing" textLength="7" x="83" y="350.6592">3</text><text fill="#000000" font-family="sans-serif" font-size="13" lengthAdjust="spacing" textLength="123" x="94" y="350.6592">Click "Cancel" button</text><line style="stroke:#181818;stroke-width:1.0;" x1="253" x2="295" y1="402.2188" y2="402.2188"/><line style="stroke:#181818;stroke-width:1.0;" x1="295" x2="295" y1="402.2188" y2="415.2188"/><line style="stroke:#181818;stroke-width:1.0;" x1="254" x2="295" y1="415.2188" y2="415.2188"/><polygon fill="#181818" points="264,411.2188,254,415.2188,264,419.2188,260,415.2188" style="stroke:#181818;stroke-width:1.0;"/><text fill="#000000" font-family="sans-serif" font-size="13" font-weight="bold" lengthAdjust="spacing" textLength="7" x="260" y="389.1865">4</text><text fill="#000000" font-family="sans-serif" font-size="13" lengthAdjust="spacing" textLength="107" x="271" y="381.0107">Close confirmation</text><text fill="#000000" font-family="sans-serif" font-size="13" lengthAdjust="spacing" textLength="78" x="271" y="397.3623">message box</text><line style="stroke:#000000;stroke-width:1.0;stroke-dasharray:2.0,2.0;" x1="10" x2="743" y1="454.2188" y2="454.2188"/><text fill="#000000" font-family="sans-serif" font-size="11" font-weight="bold" lengthAdjust="spacing" textLength="53" x="15" y="465.6377">[Confirm]</text><polygon fill="#181818" points="226,487.4063,236,491.4063,226,495.4063,230,491.4063" style="stroke:#181818;stroke-width:1.0;"/><line style="stroke:#181818;stroke-width:1.0;" x1="71" x2="232" y1="491.4063" y2="491.4063"/><text fill="#000000" font-family="sans-serif" font-size="13" font-weight="bold" lengthAdjust="spacing" textLength="7" x="78" y="486.5498">5</text><text fill="#000000" font-family="sans-serif" font-size="13" lengthAdjust="spacing" textLength="127" x="89" y="486.5498">Click "Confirm" button</text><polygon fill="#181818" points="430,534.1094,440,538.1094,430,542.1094,434,538.1094" style="stroke:#181818;stroke-width:1.0;"/><line style="stroke:#181818;stroke-width:1.0;" x1="248" x2="436" y1="538.1094" y2="538.1094"/><text fill="#000000" font-family="sans-serif" font-size="13" font-weight="bold" lengthAdjust="spacing" textLength="7" x="255" y="525.0771">6</text><text fill="#000000" font-family="sans-serif" font-size="13" lengthAdjust="spacing" textLength="132" x="266" y="516.9014">Send deleting selected</text><text fill="#000000" font-family="sans-serif" font-size="13" lengthAdjust="spacing" textLength="72" x="266" y="533.2529">chat request</text><polygon fill="#181818" points="599,564.4609,609,568.4609,599,572.4609,603,568.4609" style="stroke:#181818;stroke-width:1.0;"/><line style="stroke:#181818;stroke-width:1.0;" x1="452" x2="605" y1="568.4609" y2="568.4609"/><text fill="#000000" font-family="sans-serif" font-size="13" font-weight="bold" lengthAdjust="spacing" textLength="7" x="459" y="563.6045">7</text><text fill="#000000" font-family="sans-serif" font-size="13" lengthAdjust="spacing" textLength="119" x="470" y="563.6045">Delete selected chat</text><line style="stroke:#181818;stroke-width:1.0;" x1="626" x2="668" y1="598.8125" y2="598.8125"/><line style="stroke:#181818;stroke-width:1.0;" x1="668" x2="668" y1="598.8125" y2="611.8125"/><line style="stroke:#181818;stroke-width:1.0;" x1="627" x2="668" y1="611.8125" y2="611.8125"/><polygon fill="#181818" points="637,607.8125,627,611.8125,637,615.8125,633,611.8125" style="stroke:#181818;stroke-width:1.0;"/><text fill="#000000" font-family="sans-serif" font-size="13" font-weight="bold" lengthAdjust="spacing" textLength="7" x="633" y="593.9561">8</text><text fill="#000000" font-family="sans-serif" font-size="13" lengthAdjust="spacing" textLength="76" x="644" y="593.9561">Validate data</text><path d="M159.5,656.8125 L220.5,656.8125 L220.5,665.1641 L210.5,675.1641 L159.5,675.1641 L159.5,656.8125 " fill="#EEEEEE" style="stroke:#000000;stroke-width:1.5;"/><rect fill="none" height="362" style="stroke:#000000;stroke-width:1.5;" width="573.5" x="159.5" y="656.8125"/><text fill="#000000" font-family="sans-serif" font-size="13" font-weight="bold" lengthAdjust="spacing" textLength="16" x="174.5" y="671.3076">alt</text><text fill="#000000" font-family="sans-serif" font-size="11" font-weight="bold" lengthAdjust="spacing" textLength="69" x="235.5" y="670.2314">[Invalid data]</text><polygon fill="#181818" points="463,693.5156,453,697.5156,463,701.5156,459,697.5156" style="stroke:#181818;stroke-width:1.0;"/><line style="stroke:#181818;stroke-width:1.0;stroke-dasharray:2.0,2.0;" x1="457" x2="610" y1="697.5156" y2="697.5156"/><text fill="#000000" font-family="sans-serif" font-size="13" font-weight="bold" lengthAdjust="spacing" textLength="7" x="469" y="692.6592">9</text><text fill="#000000" font-family="sans-serif" font-size="13" lengthAdjust="spacing" textLength="94" x="480" y="692.6592">Error notification</text><polygon fill="#181818" points="259,723.8672,249,727.8672,259,731.8672,255,727.8672" style="stroke:#181818;stroke-width:1.0;"/><line style="stroke:#181818;stroke-width:1.0;stroke-dasharray:2.0,2.0;" x1="253" x2="441" y1="727.8672" y2="727.8672"/><text fill="#000000" font-family="sans-serif" font-size="13" font-weight="bold" lengthAdjust="spacing" textLength="14" x="265" y="723.0107">10</text><text fill="#000000" font-family="sans-serif" font-size="13" lengthAdjust="spacing" textLength="94" x="283" y="723.0107">Error notification</text><line style="stroke:#181818;stroke-width:1.0;" x1="253" x2="295" y1="758.2188" y2="758.2188"/><line style="stroke:#181818;stroke-width:1.0;" x1="295" x2="295" y1="758.2188" y2="771.2188"/><line style="stroke:#181818;stroke-width:1.0;" x1="254" x2="295" y1="771.2188" y2="771.2188"/><polygon fill="#181818" points="264,767.2188,254,771.2188,264,775.2188,260,771.2188" style="stroke:#181818;stroke-width:1.0;"/><text fill="#000000" font-family="sans-serif" font-size="13" font-weight="bold" lengthAdjust="spacing" textLength="14" x="260" y="753.3623">11</text><text fill="#000000" font-family="sans-serif" font-size="13" lengthAdjust="spacing" textLength="139" x="278" y="753.3623">Display error notification</text><line style="stroke:#000000;stroke-width:1.0;stroke-dasharray:2.0,2.0;" x1="159.5" x2="733" y1="810.2188" y2="810.2188"/><text fill="#000000" font-family="sans-serif" font-size="11" font-weight="bold" lengthAdjust="spacing" textLength="61" x="164.5" y="821.6377">[Valid data]</text><line style="stroke:#181818;stroke-width:1.0;" x1="626" x2="668" y1="847.4063" y2="847.4063"/><line style="stroke:#181818;stroke-width:1.0;" x1="668" x2="668" y1="847.4063" y2="860.4063"/><line style="stroke:#181818;stroke-width:1.0;" x1="627" x2="668" y1="860.4063" y2="860.4063"/><polygon fill="#181818" points="637,856.4063,627,860.4063,637,864.4063,633,860.4063" style="stroke:#181818;stroke-width:1.0;"/><text fill="#000000" font-family="sans-serif" font-size="13" font-weight="bold" lengthAdjust="spacing" textLength="14" x="633" y="842.5498">12</text><text fill="#000000" font-family="sans-serif" font-size="13" lengthAdjust="spacing" textLength="70" x="651" y="842.5498">Update data</text><polygon fill="#181818" points="463,916.7578,453,920.7578,463,924.7578,459,920.7578" style="stroke:#181818;stroke-width:1.0;"/><line style="stroke:#181818;stroke-width:1.0;stroke-dasharray:2.0,2.0;" x1="457" x2="615" y1="920.7578" y2="920.7578"/><text fill="#000000" font-family="sans-serif" font-size="13" font-weight="bold" lengthAdjust="spacing" textLength="14" x="469" y="915.9014">13</text><text fill="#000000" font-family="sans-serif" font-size="13" lengthAdjust="spacing" textLength="117" x="487" y="915.9014">Success notification</text><polygon fill="#181818" points="259,947.1094,249,951.1094,259,955.1094,255,951.1094" style="stroke:#181818;stroke-width:1.0;"/><line style="stroke:#181818;stroke-width:1.0;stroke-dasharray:2.0,2.0;" x1="253" x2="446" y1="951.1094" y2="951.1094"/><text fill="#000000" font-family="sans-serif" font-size="13" font-weight="bold" lengthAdjust="spacing" textLength="14" x="265" y="946.2529">14</text><text fill="#000000" font-family="sans-serif" font-size="13" lengthAdjust="spacing" textLength="94" x="283" y="946.2529">Error notification</text><line style="stroke:#181818;stroke-width:1.0;" x1="248" x2="290" y1="1002.8125" y2="1002.8125"/><line style="stroke:#181818;stroke-width:1.0;" x1="290" x2="290" y1="1002.8125" y2="1015.8125"/><line style="stroke:#181818;stroke-width:1.0;" x1="243" x2="290" y1="1015.8125" y2="1015.8125"/><polygon fill="#181818" points="253,1011.8125,243,1015.8125,253,1019.8125,249,1015.8125" style="stroke:#181818;stroke-width:1.0;"/><text fill="#000000" font-family="sans-serif" font-size="13" font-weight="bold" lengthAdjust="spacing" textLength="14" x="255" y="989.7803">15</text><text fill="#000000" font-family="sans-serif" font-size="13" lengthAdjust="spacing" textLength="162" x="273" y="981.6045">Display success notification</text><text fill="#000000" font-family="sans-serif" font-size="13" lengthAdjust="spacing" textLength="92" x="273" y="997.9561">and list of chats</text><!--MD5=[087447a5ec96697319474d97d4570ac1]
@startuml DeleteChatSeq
autonumber
hide footbox

actor "Parent / Doctor" as ParentDoctor
boundary ChatManagementView
control ChatController  
entity CHAT

opt
ref over ParentDoctor, ChatManagementView, ChatController, CHAT: Sequence Search Chat
end

ParentDoctor -> ChatManagementView: Select chat\n needs deleting
activate ParentDoctor
activate ChatManagementView
ChatManagementView -> ChatManagementView: Display\nconfirmation messagebox
activate ChatManagementView
deactivate ChatManagementView
alt Cancel  
    ParentDoctor -> ChatManagementView: Click "Cancel" button
    ChatManagementView -> ChatManagementView: Close confirmation\nmessage box
    activate ChatManagementView
    deactivate ChatManagementView
else Confirm
    ParentDoctor -> ChatManagementView: Click "Confirm" button
    deactivate ParentDoctor
    ChatManagementView -> ChatController: Send deleting selected\nchat request
    activate ChatController
    ChatController -> CHAT: Delete selected chat
    activate CHAT
    CHAT -> CHAT: Validate data
    activate CHAT
    deactivate CHAT
    alt Invalid data
        CHAT - -> ChatController: Error notification
        ChatController - -> ChatManagementView: Error notification
        ChatManagementView -> ChatManagementView: Display error notification
        activate ChatManagementView
        deactivate ChatManagementView
    else Valid data
        CHAT -> CHAT: Update data
        activate CHAT
        deactivate CHAT
        CHAT - -> ChatController: Success notification
        deactivate CHAT
        ChatController - -> ChatManagementView: Error notification
        deactivate ChatController
        ChatManagementView -> ChatManagementView: Display success notification\nand list of chats
        deactivate ChatManagementView
    end
end
@enduml

PlantUML version 1.2022.7(Tue Aug 23 00:01:30 ICT 2022)
(GPL source distribution)
Java Runtime: Java(TM) SE Runtime Environment
JVM: Java HotSpot(TM) 64-Bit Server VM
Default Encoding: Cp1252
Language: en
Country: US
--></g></svg>