<?xml version="1.0" encoding="UTF-8" standalone="no"?><svg xmlns="http://www.w3.org/2000/svg" xmlns:xlink="http://www.w3.org/1999/xlink" contentStyleType="text/css" height="842px" preserveAspectRatio="none" style="width:737px;height:842px;background:#FFFFFF;" version="1.1" viewBox="0 0 737 842" width="737px" zoomAndPan="magnify"><defs/><g><rect fill="#FFFFFF" height="290.5156" style="stroke:#181818;stroke-width:1.0;" width="10" x="66" y="210.1094"/><rect fill="#FFFFFF" height="30.3516" style="stroke:#181818;stroke-width:1.0;" width="10" x="185.5" y="210.1094"/><rect fill="#FFFFFF" height="430.2188" style="stroke:#181818;stroke-width:1.0;" width="10" x="286.5" y="380.5703"/><rect fill="#FFFFFF" height="28" style="stroke:#181818;stroke-width:1.0;" width="10" x="291.5" y="435.2734"/><rect fill="#FFFFFF" height="28" style="stroke:#181818;stroke-width:1.0;" width="10" x="291.5" y="782.7891"/><rect fill="#FFFFFF" height="140.1094" style="stroke:#181818;stroke-width:1.0;" width="10" x="423.5" y="240.4609"/><rect fill="#FFFFFF" height="180.7578" style="stroke:#181818;stroke-width:1.0;" width="10" x="423.5" y="547.3281"/><rect fill="#FFFFFF" height="46.7031" style="stroke:#181818;stroke-width:1.0;" width="10" x="562.5" y="287.1641"/><rect fill="#FFFFFF" height="103.7031" style="stroke:#181818;stroke-width:1.0;" width="10" x="630.5" y="577.6797"/><rect fill="#FFFFFF" height="28" style="stroke:#181818;stroke-width:1.0;" width="10" x="635.5" y="616.0313"/><rect fill="none" height="64.7969" style="stroke:#000000;stroke-width:1.5;" width="672" x="10" y="99.6094"/><line style="stroke:#181818;stroke-width:0.5;stroke-dasharray:5.0,5.0;" x1="71" x2="71" y1="82.6094" y2="835.7891"/><line style="stroke:#181818;stroke-width:0.5;stroke-dasharray:5.0,5.0;" x1="190" x2="190" y1="82.6094" y2="835.7891"/><line style="stroke:#181818;stroke-width:0.5;stroke-dasharray:5.0,5.0;" x1="291" x2="291" y1="82.6094" y2="835.7891"/><line style="stroke:#181818;stroke-width:0.5;stroke-dasharray:5.0,5.0;" x1="428.5" x2="428.5" y1="82.6094" y2="835.7891"/><line style="stroke:#181818;stroke-width:0.5;stroke-dasharray:5.0,5.0;" x1="567" x2="567" y1="82.6094" y2="835.7891"/><line style="stroke:#181818;stroke-width:0.5;stroke-dasharray:5.0,5.0;" x1="635" x2="635" y1="82.6094" y2="835.7891"/><text fill="#000000" font-family="sans-serif" font-size="14" lengthAdjust="spacing" textLength="96" x="20" y="79.5332">Parent / Doctor</text><ellipse cx="71" cy="13.5" fill="#E2E2F0" rx="8" ry="8" style="stroke:#181818;stroke-width:0.5;"/><path d="M71,21.5 L71,48.5 M58,29.5 L84,29.5 M71,48.5 L58,63.5 M71,48.5 L84,63.5 " fill="none" style="stroke:#181818;stroke-width:0.5;"/><text fill="#000000" font-family="sans-serif" font-size="14" lengthAdjust="spacing" textLength="30" x="172.5" y="61.9238">Chat</text><text fill="#000000" font-family="sans-serif" font-size="14" lengthAdjust="spacing" textLength="111" x="132" y="79.5332">ManagementView</text><path d="M170,19.3906 L170,43.3906 M170,31.3906 L187,31.3906 " fill="none" style="stroke:#181818;stroke-width:0.5;"/><ellipse cx="199" cy="31.3906" fill="#E2E2F0" rx="12" ry="12" style="stroke:#181818;stroke-width:0.5;"/><text fill="#000000" font-family="sans-serif" font-size="14" lengthAdjust="spacing" textLength="59" x="259" y="79.5332">ChatView</text><path d="M271,37 L271,61 M271,49 L288,49 " fill="none" style="stroke:#181818;stroke-width:0.5;"/><ellipse cx="300" cy="49" fill="#E2E2F0" rx="12" ry="12" style="stroke:#181818;stroke-width:0.5;"/><text fill="#000000" font-family="sans-serif" font-size="14" lengthAdjust="spacing" textLength="92" x="379.5" y="79.5332">ChatController</text><ellipse cx="428.5" cy="49" fill="#E2E2F0" rx="12" ry="12" style="stroke:#181818;stroke-width:0.5;"/><polygon fill="#181818" points="424.5,37,430.5,32,428.5,37,430.5,42,424.5,37" style="stroke:#181818;stroke-width:1.0;"/><text fill="#000000" font-family="sans-serif" font-size="14" lengthAdjust="spacing" textLength="37" x="546" y="79.5332">CHAT</text><ellipse cx="567.5" cy="49" fill="#E2E2F0" rx="12" ry="12" style="stroke:#181818;stroke-width:0.5;"/><line style="stroke:#181818;stroke-width:0.5;" x1="555.5" x2="579.5" y1="63" y2="63"/><text fill="#000000" font-family="sans-serif" font-size="14" lengthAdjust="spacing" textLength="67" x="599" y="79.5332">MESSAGE</text><ellipse cx="635.5" cy="49" fill="#E2E2F0" rx="12" ry="12" style="stroke:#181818;stroke-width:0.5;"/><line style="stroke:#181818;stroke-width:0.5;" x1="623.5" x2="647.5" y1="63" y2="63"/><rect fill="#FFFFFF" height="290.5156" style="stroke:#181818;stroke-width:1.0;" width="10" x="66" y="210.1094"/><rect fill="#FFFFFF" height="30.3516" style="stroke:#181818;stroke-width:1.0;" width="10" x="185.5" y="210.1094"/><rect fill="#FFFFFF" height="430.2188" style="stroke:#181818;stroke-width:1.0;" width="10" x="286.5" y="380.5703"/><rect fill="#FFFFFF" height="28" style="stroke:#181818;stroke-width:1.0;" width="10" x="291.5" y="435.2734"/><rect fill="#FFFFFF" height="28" style="stroke:#181818;stroke-width:1.0;" width="10" x="291.5" y="782.7891"/><rect fill="#FFFFFF" height="140.1094" style="stroke:#181818;stroke-width:1.0;" width="10" x="423.5" y="240.4609"/><rect fill="#FFFFFF" height="180.7578" style="stroke:#181818;stroke-width:1.0;" width="10" x="423.5" y="547.3281"/><rect fill="#FFFFFF" height="46.7031" style="stroke:#181818;stroke-width:1.0;" width="10" x="562.5" y="287.1641"/><rect fill="#FFFFFF" height="103.7031" style="stroke:#181818;stroke-width:1.0;" width="10" x="630.5" y="577.6797"/><rect fill="#FFFFFF" height="28" style="stroke:#181818;stroke-width:1.0;" width="10" x="635.5" y="616.0313"/><path d="M10,99.6094 L75,99.6094 L75,107.9609 L65,117.9609 L10,117.9609 L10,99.6094 " fill="#EEEEEE" style="stroke:#000000;stroke-width:1.5;"/><rect fill="none" height="64.7969" style="stroke:#000000;stroke-width:1.5;" width="672" x="10" y="99.6094"/><text fill="#000000" font-family="sans-serif" font-size="13" font-weight="bold" lengthAdjust="spacing" textLength="20" x="25" y="114.1045">opt</text><text fill="#000000" font-family="sans-serif" font-size="11" font-weight="bold" lengthAdjust="spacing" textLength="46" x="90" y="113.0283">[Search]</text><rect fill="none" height="41.4453" style="stroke:#000000;stroke-width:1.5;" width="658" x="17" y="117.9609"/><path d="M17,117.9609 L79,117.9609 L79,125.9609 L69,135.9609 L17,135.9609 L17,117.9609 " fill="#EEEEEE" style="stroke:#000000;stroke-width:2.0;"/><text fill="#000000" font-family="sans-serif" font-size="13" font-weight="bold" lengthAdjust="spacing" textLength="17" x="30" y="133.4561">ref</text><text fill="#000000" font-family="sans-serif" font-size="12" lengthAdjust="spacing" textLength="127" x="282.5" y="152.418">Sequence Search Chat</text><polygon fill="#181818" points="173.5,206.1094,183.5,210.1094,173.5,214.1094,177.5,210.1094" style="stroke:#181818;stroke-width:1.0;"/><line style="stroke:#181818;stroke-width:1.0;" x1="76" x2="179.5" y1="210.1094" y2="210.1094"/><text fill="#000000" font-family="sans-serif" font-size="13" font-weight="bold" lengthAdjust="spacing" textLength="7" x="83" y="197.0771">1</text><text fill="#000000" font-family="sans-serif" font-size="13" lengthAdjust="spacing" textLength="66" x="94" y="188.9014">Select chat</text><text fill="#000000" font-family="sans-serif" font-size="13" lengthAdjust="spacing" textLength="74" x="94" y="205.2529">want to reply</text><polygon fill="#181818" points="411.5,236.4609,421.5,240.4609,411.5,244.4609,415.5,240.4609" style="stroke:#181818;stroke-width:1.0;"/><line style="stroke:#181818;stroke-width:1.0;" x1="190.5" x2="417.5" y1="240.4609" y2="240.4609"/><text fill="#000000" font-family="sans-serif" font-size="13" font-weight="bold" lengthAdjust="spacing" textLength="7" x="197.5" y="235.6045">2</text><text fill="#000000" font-family="sans-serif" font-size="13" lengthAdjust="spacing" textLength="170" x="208.5" y="235.6045">Get selected chat information</text><polygon fill="#181818" points="550.5,283.1641,560.5,287.1641,550.5,291.1641,554.5,287.1641" style="stroke:#181818;stroke-width:1.0;"/><line style="stroke:#181818;stroke-width:1.0;" x1="433.5" x2="556.5" y1="287.1641" y2="287.1641"/><text fill="#000000" font-family="sans-serif" font-size="13" font-weight="bold" lengthAdjust="spacing" textLength="7" x="440.5" y="274.1318">3</text><text fill="#000000" font-family="sans-serif" font-size="13" lengthAdjust="spacing" textLength="74" x="451.5" y="265.9561">Get selected</text><text fill="#000000" font-family="sans-serif" font-size="13" lengthAdjust="spacing" textLength="92" x="451.5" y="282.3076">chat information</text><polygon fill="#181818" points="444.5,329.8672,434.5,333.8672,444.5,337.8672,440.5,333.8672" style="stroke:#181818;stroke-width:1.0;"/><line style="stroke:#181818;stroke-width:1.0;stroke-dasharray:2.0,2.0;" x1="438.5" x2="566.5" y1="333.8672" y2="333.8672"/><text fill="#000000" font-family="sans-serif" font-size="13" font-weight="bold" lengthAdjust="spacing" textLength="7" x="450.5" y="320.835">4</text><text fill="#000000" font-family="sans-serif" font-size="13" lengthAdjust="spacing" textLength="94" x="461.5" y="312.6592">Data of selected</text><text fill="#000000" font-family="sans-serif" font-size="13" lengthAdjust="spacing" textLength="25" x="461.5" y="329.0107">chat</text><polygon fill="#181818" points="307.5,376.5703,297.5,380.5703,307.5,384.5703,303.5,380.5703" style="stroke:#181818;stroke-width:1.0;"/><line style="stroke:#181818;stroke-width:1.0;stroke-dasharray:2.0,2.0;" x1="301.5" x2="427.5" y1="380.5703" y2="380.5703"/><text fill="#000000" font-family="sans-serif" font-size="13" font-weight="bold" lengthAdjust="spacing" textLength="7" x="313.5" y="367.5381">5</text><text fill="#000000" font-family="sans-serif" font-size="13" lengthAdjust="spacing" textLength="94" x="324.5" y="359.3623">Data of selected</text><text fill="#000000" font-family="sans-serif" font-size="13" lengthAdjust="spacing" textLength="25" x="324.5" y="375.7139">chat</text><line style="stroke:#181818;stroke-width:1.0;" x1="301.5" x2="343.5" y1="427.2734" y2="427.2734"/><line style="stroke:#181818;stroke-width:1.0;" x1="343.5" x2="343.5" y1="427.2734" y2="440.2734"/><line style="stroke:#181818;stroke-width:1.0;" x1="302.5" x2="343.5" y1="440.2734" y2="440.2734"/><polygon fill="#181818" points="312.5,436.2734,302.5,440.2734,312.5,444.2734,308.5,440.2734" style="stroke:#181818;stroke-width:1.0;"/><text fill="#000000" font-family="sans-serif" font-size="13" font-weight="bold" lengthAdjust="spacing" textLength="7" x="308.5" y="414.2412">6</text><text fill="#000000" font-family="sans-serif" font-size="13" lengthAdjust="spacing" textLength="96" x="319.5" y="406.0654">Display selected</text><text fill="#000000" font-family="sans-serif" font-size="13" lengthAdjust="spacing" textLength="25" x="319.5" y="422.417">chat</text><polygon fill="#181818" points="274.5,496.625,284.5,500.625,274.5,504.625,278.5,500.625" style="stroke:#181818;stroke-width:1.0;"/><line style="stroke:#181818;stroke-width:1.0;" x1="71" x2="280.5" y1="500.625" y2="500.625"/><text fill="#000000" font-family="sans-serif" font-size="13" font-weight="bold" lengthAdjust="spacing" textLength="7" x="78" y="495.7686">7</text><text fill="#000000" font-family="sans-serif" font-size="13" lengthAdjust="spacing" textLength="87" x="89" y="495.7686">Send message</text><polygon fill="#181818" points="411.5,543.3281,421.5,547.3281,411.5,551.3281,415.5,547.3281" style="stroke:#181818;stroke-width:1.0;"/><line style="stroke:#181818;stroke-width:1.0;" x1="296.5" x2="417.5" y1="547.3281" y2="547.3281"/><text fill="#000000" font-family="sans-serif" font-size="13" font-weight="bold" lengthAdjust="spacing" textLength="7" x="303.5" y="534.2959">8</text><text fill="#000000" font-family="sans-serif" font-size="13" lengthAdjust="spacing" textLength="97" x="314.5" y="526.1201">Process sending</text><text fill="#000000" font-family="sans-serif" font-size="13" lengthAdjust="spacing" textLength="53" x="314.5" y="542.4717">message</text><polygon fill="#181818" points="618.5,573.6797,628.5,577.6797,618.5,581.6797,622.5,577.6797" style="stroke:#181818;stroke-width:1.0;"/><line style="stroke:#181818;stroke-width:1.0;" x1="433.5" x2="624.5" y1="577.6797" y2="577.6797"/><text fill="#000000" font-family="sans-serif" font-size="13" font-weight="bold" lengthAdjust="spacing" textLength="7" x="440.5" y="572.8232">9</text><text fill="#000000" font-family="sans-serif" font-size="13" lengthAdjust="spacing" textLength="114" x="451.5" y="572.8232">Send new message</text><line style="stroke:#181818;stroke-width:1.0;" x1="645.5" x2="687.5" y1="608.0313" y2="608.0313"/><line style="stroke:#181818;stroke-width:1.0;" x1="687.5" x2="687.5" y1="608.0313" y2="621.0313"/><line style="stroke:#181818;stroke-width:1.0;" x1="646.5" x2="687.5" y1="621.0313" y2="621.0313"/><polygon fill="#181818" points="656.5,617.0313,646.5,621.0313,656.5,625.0313,652.5,621.0313" style="stroke:#181818;stroke-width:1.0;"/><text fill="#000000" font-family="sans-serif" font-size="13" font-weight="bold" lengthAdjust="spacing" textLength="14" x="652.5" y="603.1748">10</text><text fill="#000000" font-family="sans-serif" font-size="13" lengthAdjust="spacing" textLength="60" x="670.5" y="603.1748">Store data</text><polygon fill="#181818" points="444.5,677.3828,434.5,681.3828,444.5,685.3828,440.5,681.3828" style="stroke:#181818;stroke-width:1.0;"/><line style="stroke:#181818;stroke-width:1.0;stroke-dasharray:2.0,2.0;" x1="438.5" x2="634.5" y1="681.3828" y2="681.3828"/><text fill="#000000" font-family="sans-serif" font-size="13" font-weight="bold" lengthAdjust="spacing" textLength="14" x="450.5" y="676.5264">11</text><text fill="#000000" font-family="sans-serif" font-size="13" lengthAdjust="spacing" textLength="117" x="468.5" y="676.5264">Success notification</text><polygon fill="#181818" points="307.5,724.0859,297.5,728.0859,307.5,732.0859,303.5,728.0859" style="stroke:#181818;stroke-width:1.0;"/><line style="stroke:#181818;stroke-width:1.0;stroke-dasharray:2.0,2.0;" x1="301.5" x2="427.5" y1="728.0859" y2="728.0859"/><text fill="#000000" font-family="sans-serif" font-size="13" font-weight="bold" lengthAdjust="spacing" textLength="14" x="313.5" y="715.0537">12</text><text fill="#000000" font-family="sans-serif" font-size="13" lengthAdjust="spacing" textLength="51" x="331.5" y="706.8779">Success</text><text fill="#000000" font-family="sans-serif" font-size="13" lengthAdjust="spacing" textLength="62" x="331.5" y="723.2295">notification</text><line style="stroke:#181818;stroke-width:1.0;" x1="301.5" x2="343.5" y1="774.7891" y2="774.7891"/><line style="stroke:#181818;stroke-width:1.0;" x1="343.5" x2="343.5" y1="774.7891" y2="787.7891"/><line style="stroke:#181818;stroke-width:1.0;" x1="302.5" x2="343.5" y1="787.7891" y2="787.7891"/><polygon fill="#181818" points="312.5,783.7891,302.5,787.7891,312.5,791.7891,308.5,787.7891" style="stroke:#181818;stroke-width:1.0;"/><text fill="#000000" font-family="sans-serif" font-size="13" font-weight="bold" lengthAdjust="spacing" textLength="14" x="308.5" y="761.7568">13</text><text fill="#000000" font-family="sans-serif" font-size="13" lengthAdjust="spacing" textLength="72" x="326.5" y="753.5811">Display sent</text><text fill="#000000" font-family="sans-serif" font-size="13" lengthAdjust="spacing" textLength="53" x="326.5" y="769.9326">message</text><!--MD5=[292251efdee5a35fcaaca7d9439c5296]
@startuml ReplyMessageSeq
autonumber
hide footbox

actor "Parent / Doctor" as ParentDoctor
boundary "Chat\nManagementView" as ChatManagementView
boundary ChatView
control ChatController
entity CHAT
entity MESSAGE

opt Search
ref over ParentDoctor, ChatManagementView, ChatView, ChatController, CHAT, MESSAGE: Sequence Search Chat
end

ParentDoctor -> ChatManagementView: Select chat\nwant to reply
activate ParentDoctor
activate ChatManagementView
ChatManagementView -> ChatController: Get selected chat information
deactivate ChatManagementView
activate ChatController
ChatController -> CHAT: Get selected\nchat information
activate CHAT
CHAT - -> ChatController: Data of selected\nchat
deactivate CHAT
ChatController - -> ChatView: Data of selected\nchat
deactivate ChatController
activate ChatView
ChatView -> ChatView: Display selected\nchat
activate ChatView
deactivate ChatView

ParentDoctor -> ChatView: Send message
deactivate ParentDoctor
ChatView -> ChatController: Process sending\nmessage
activate ChatController
ChatController -> MESSAGE: Send new message
activate MESSAGE
MESSAGE -> MESSAGE: Store data
activate MESSAGE
deactivate MESSAGE
MESSAGE - -> ChatController: Success notification
deactivate MESSAGE
ChatController - -> ChatView: Success\nnotification
deactivate ChatController
ChatView -> ChatView: Display sent\nmessage
activate ChatView
deactivate ChatView
deactivate ChatView
@enduml

PlantUML version 1.2022.7(Tue Aug 23 00:01:30 ICT 2022)
(GPL source distribution)
Java Runtime: Java(TM) SE Runtime Environment
JVM: Java HotSpot(TM) 64-Bit Server VM
Default Encoding: Cp1252
Language: en
Country: US
--></g></svg>