<?xml version="1.0" encoding="UTF-8" standalone="no"?><svg xmlns="http://www.w3.org/2000/svg" xmlns:xlink="http://www.w3.org/1999/xlink" contentStyleType="text/css" height="457px" preserveAspectRatio="none" style="width:616px;height:457px;background:#FFFFFF;" version="1.1" viewBox="0 0 616 457" width="616px" zoomAndPan="magnify"><defs/><g><rect fill="#FFFFFF" height="30" style="stroke:#181818;stroke-width:1.0;" width="10" x="51" y="131.3125"/><rect fill="#FFFFFF" height="293.8125" style="stroke:#181818;stroke-width:1.0;" width="10" x="207" y="131.3125"/><rect fill="#FFFFFF" height="180.7578" style="stroke:#181818;stroke-width:1.0;" width="10" x="366" y="208.0156"/><rect fill="#FFFFFF" height="103.7031" style="stroke:#181818;stroke-width:1.0;" width="10" x="512" y="254.7188"/><rect fill="#FFFFFF" height="28" style="stroke:#181818;stroke-width:1.0;" width="10" x="517" y="293.0703"/><line style="stroke:#181818;stroke-width:0.5;stroke-dasharray:5.0,5.0;" x1="56" x2="56" y1="82.6094" y2="450.125"/><line style="stroke:#181818;stroke-width:0.5;stroke-dasharray:5.0,5.0;" x1="211.5" x2="211.5" y1="82.6094" y2="450.125"/><line style="stroke:#181818;stroke-width:0.5;stroke-dasharray:5.0,5.0;" x1="371" x2="371" y1="82.6094" y2="450.125"/><line style="stroke:#181818;stroke-width:0.5;stroke-dasharray:5.0,5.0;" x1="516.5" x2="516.5" y1="82.6094" y2="450.125"/><text fill="#000000" font-family="sans-serif" font-size="14" lengthAdjust="spacing" textLength="96" x="5" y="79.5332">Parent / Doctor</text><ellipse cx="56" cy="13.5" fill="#E2E2F0" rx="8" ry="8" style="stroke:#181818;stroke-width:0.5;"/><path d="M56,21.5 L56,48.5 M43,29.5 L69,29.5 M56,48.5 L43,63.5 M56,48.5 L69,63.5 " fill="none" style="stroke:#181818;stroke-width:0.5;"/><text fill="#000000" font-family="sans-serif" font-size="14" lengthAdjust="spacing" textLength="141" x="138.5" y="79.5332">ChatManagementView</text><path d="M191.5,37 L191.5,61 M191.5,49 L208.5,49 " fill="none" style="stroke:#181818;stroke-width:0.5;"/><ellipse cx="220.5" cy="49" fill="#E2E2F0" rx="12" ry="12" style="stroke:#181818;stroke-width:0.5;"/><text fill="#000000" font-family="sans-serif" font-size="14" lengthAdjust="spacing" textLength="92" x="322" y="79.5332">ChatController</text><ellipse cx="371" cy="49" fill="#E2E2F0" rx="12" ry="12" style="stroke:#181818;stroke-width:0.5;"/><polygon fill="#181818" points="367,37,373,32,371,37,373,42,367,37" style="stroke:#181818;stroke-width:1.0;"/><text fill="#000000" font-family="sans-serif" font-size="14" lengthAdjust="spacing" textLength="37" x="495.5" y="79.5332">CHAT</text><ellipse cx="517" cy="49" fill="#E2E2F0" rx="12" ry="12" style="stroke:#181818;stroke-width:0.5;"/><line style="stroke:#181818;stroke-width:0.5;" x1="505" x2="529" y1="63" y2="63"/><rect fill="#FFFFFF" height="30" style="stroke:#181818;stroke-width:1.0;" width="10" x="51" y="131.3125"/><rect fill="#FFFFFF" height="293.8125" style="stroke:#181818;stroke-width:1.0;" width="10" x="207" y="131.3125"/><rect fill="#FFFFFF" height="180.7578" style="stroke:#181818;stroke-width:1.0;" width="10" x="366" y="208.0156"/><rect fill="#FFFFFF" height="103.7031" style="stroke:#181818;stroke-width:1.0;" width="10" x="512" y="254.7188"/><rect fill="#FFFFFF" height="28" style="stroke:#181818;stroke-width:1.0;" width="10" x="517" y="293.0703"/><polygon fill="#181818" points="195,127.3125,205,131.3125,195,135.3125,199,131.3125" style="stroke:#181818;stroke-width:1.0;"/><line style="stroke:#181818;stroke-width:1.0;" x1="61" x2="201" y1="131.3125" y2="131.3125"/><text fill="#000000" font-family="sans-serif" font-size="13" font-weight="bold" lengthAdjust="spacing" textLength="7" x="68" y="118.2803">1</text><text fill="#000000" font-family="sans-serif" font-size="13" lengthAdjust="spacing" textLength="103" x="79" y="110.1045">Enters the search</text><text fill="#000000" font-family="sans-serif" font-size="13" lengthAdjust="spacing" textLength="121" x="79" y="126.4561">criteria in search box</text><polygon fill="#181818" points="354,204.0156,364,208.0156,354,212.0156,358,208.0156" style="stroke:#181818;stroke-width:1.0;"/><line style="stroke:#181818;stroke-width:1.0;" x1="217" x2="360" y1="208.0156" y2="208.0156"/><text fill="#000000" font-family="sans-serif" font-size="13" font-weight="bold" lengthAdjust="spacing" textLength="7" x="224" y="194.9834">2</text><text fill="#000000" font-family="sans-serif" font-size="13" lengthAdjust="spacing" textLength="119" x="235" y="186.8076">Send searching chat</text><text fill="#000000" font-family="sans-serif" font-size="13" lengthAdjust="spacing" textLength="110" x="235" y="203.1592">information request</text><polygon fill="#181818" points="500,250.7188,510,254.7188,500,258.7188,504,254.7188" style="stroke:#181818;stroke-width:1.0;"/><line style="stroke:#181818;stroke-width:1.0;" x1="376" x2="506" y1="254.7188" y2="254.7188"/><text fill="#000000" font-family="sans-serif" font-size="13" font-weight="bold" lengthAdjust="spacing" textLength="7" x="383" y="241.6865">3</text><text fill="#000000" font-family="sans-serif" font-size="13" lengthAdjust="spacing" textLength="102" x="394" y="233.5107">Search chat base</text><text fill="#000000" font-family="sans-serif" font-size="13" lengthAdjust="spacing" textLength="106" x="394" y="249.8623">on given keywords</text><line style="stroke:#181818;stroke-width:1.0;" x1="527" x2="569" y1="285.0703" y2="285.0703"/><line style="stroke:#181818;stroke-width:1.0;" x1="569" x2="569" y1="285.0703" y2="298.0703"/><line style="stroke:#181818;stroke-width:1.0;" x1="528" x2="569" y1="298.0703" y2="298.0703"/><polygon fill="#181818" points="538,294.0703,528,298.0703,538,302.0703,534,298.0703" style="stroke:#181818;stroke-width:1.0;"/><text fill="#000000" font-family="sans-serif" font-size="13" font-weight="bold" lengthAdjust="spacing" textLength="7" x="534" y="280.2139">4</text><text fill="#000000" font-family="sans-serif" font-size="13" lengthAdjust="spacing" textLength="64" x="545" y="280.2139">Query data</text><polygon fill="#181818" points="387,354.4219,377,358.4219,387,362.4219,383,358.4219" style="stroke:#181818;stroke-width:1.0;"/><line style="stroke:#181818;stroke-width:1.0;stroke-dasharray:2.0,2.0;" x1="381" x2="516" y1="358.4219" y2="358.4219"/><text fill="#000000" font-family="sans-serif" font-size="13" font-weight="bold" lengthAdjust="spacing" textLength="7" x="393" y="353.5654">5</text><text fill="#000000" font-family="sans-serif" font-size="13" lengthAdjust="spacing" textLength="71" x="404" y="353.5654">Query result</text><polygon fill="#181818" points="228,384.7734,218,388.7734,228,392.7734,224,388.7734" style="stroke:#181818;stroke-width:1.0;"/><line style="stroke:#181818;stroke-width:1.0;stroke-dasharray:2.0,2.0;" x1="222" x2="370" y1="388.7734" y2="388.7734"/><text fill="#000000" font-family="sans-serif" font-size="13" font-weight="bold" lengthAdjust="spacing" textLength="7" x="234" y="383.917">6</text><text fill="#000000" font-family="sans-serif" font-size="13" lengthAdjust="spacing" textLength="71" x="245" y="383.917">Query result</text><line style="stroke:#181818;stroke-width:1.0;" x1="217" x2="259" y1="424.125" y2="424.125"/><line style="stroke:#181818;stroke-width:1.0;" x1="259" x2="259" y1="424.125" y2="437.125"/><line style="stroke:#181818;stroke-width:1.0;" x1="212" x2="259" y1="437.125" y2="437.125"/><polygon fill="#181818" points="222,433.125,212,437.125,222,441.125,218,437.125" style="stroke:#181818;stroke-width:1.0;"/><text fill="#000000" font-family="sans-serif" font-size="13" font-weight="bold" lengthAdjust="spacing" textLength="7" x="224" y="419.2686">7</text><text fill="#000000" font-family="sans-serif" font-size="13" lengthAdjust="spacing" textLength="114" x="235" y="419.2686">Display list of chats</text><!--MD5=[80d6b6a608bda34aa80ae27ea6a52a26]
@startuml SearchChatSeq
autonumber
hide footbox

actor "Parent / Doctor" as ParentDoctor
boundary ChatManagementView
control ChatController
entity CHAT

ParentDoctor -> ChatManagementView: Enters the search\ncriteria in search box
activate ParentDoctor
activate ChatManagementView
deactivate ParentDoctor
ChatManagementView -> ChatController: Send searching chat\ninformation request
activate ChatController
ChatController -> CHAT: Search chat base\non given keywords
activate CHAT
CHAT -> CHAT: Query data
activate CHAT
deactivate CHAT
CHAT - -> ChatController: Query result
deactivate CHAT
ChatController - -> ChatManagementView: Query result
deactivate ChatController
ChatManagementView -> ChatManagementView: Display list of chats
deactivate ChatManagementView
@enduml

PlantUML version 1.2022.7(Tue Aug 23 00:01:30 ICT 2022)
(GPL source distribution)
Java Runtime: Java(TM) SE Runtime Environment
JVM: Java HotSpot(TM) 64-Bit Server VM
Default Encoding: Cp1252
Language: en
Country: US
--></g></svg>