<?xml version="1.0" encoding="UTF-8" standalone="no"?><svg xmlns="http://www.w3.org/2000/svg" xmlns:xlink="http://www.w3.org/1999/xlink" contentStyleType="text/css" height="1009px" preserveAspectRatio="none" style="width:849px;height:1009px;background:#FFFFFF;" version="1.1" viewBox="0 0 849 1009" width="849px" zoomAndPan="magnify"><defs/><g><rect fill="#FFFFFF" height="248.5938" style="stroke:#181818;stroke-width:1.0;" width="10" x="66" y="174.6641"/><rect fill="#FFFFFF" height="30" style="stroke:#181818;stroke-width:1.0;" width="10" x="201.5" y="940.3125"/><rect fill="#FFFFFF" height="763.6484" style="stroke:#181818;stroke-width:1.0;" width="10" x="354.5" y="139.3125"/><rect fill="#FFFFFF" height="28" style="stroke:#181818;stroke-width:1.0;" width="10" x="359.5" y="213.0156"/><rect fill="#FFFFFF" height="28" style="stroke:#181818;stroke-width:1.0;" width="10" x="359.5" y="342.0703"/><rect fill="#FFFFFF" height="28" style="stroke:#181818;stroke-width:1.0;" width="10" x="359.5" y="681.7188"/><rect fill="#FFFFFF" height="516.7031" style="stroke:#181818;stroke-width:1.0;" width="10" x="552.5" y="453.6094"/><rect fill="#FFFFFF" height="352.2969" style="stroke:#181818;stroke-width:1.0;" width="10" x="721.5" y="483.9609"/><rect fill="#FFFFFF" height="28" style="stroke:#181818;stroke-width:1.0;" width="10" x="726.5" y="522.3125"/><rect fill="#FFFFFF" height="28" style="stroke:#181818;stroke-width:1.0;" width="10" x="726.5" y="770.9063"/><rect fill="none" height="722.2969" style="stroke:#000000;stroke-width:1.5;" width="832.5" x="10" y="263.0156"/><rect fill="none" height="406" style="stroke:#000000;stroke-width:1.5;" width="711.5" x="122" y="572.3125"/><line style="stroke:#181818;stroke-width:0.5;stroke-dasharray:5.0,5.0;" x1="71" x2="71" y1="82.6094" y2="1002.3125"/><line style="stroke:#181818;stroke-width:0.5;stroke-dasharray:5.0,5.0;" x1="206" x2="206" y1="82.6094" y2="1002.3125"/><line style="stroke:#181818;stroke-width:0.5;stroke-dasharray:5.0,5.0;" x1="359" x2="359" y1="82.6094" y2="1002.3125"/><line style="stroke:#181818;stroke-width:0.5;stroke-dasharray:5.0,5.0;" x1="557.5" x2="557.5" y1="82.6094" y2="1002.3125"/><line style="stroke:#181818;stroke-width:0.5;stroke-dasharray:5.0,5.0;" x1="726.5" x2="726.5" y1="82.6094" y2="1002.3125"/><text fill="#000000" font-family="sans-serif" font-size="14" lengthAdjust="spacing" textLength="96" x="20" y="79.5332">Parent / Doctor</text><ellipse cx="71" cy="13.5" fill="#E2E2F0" rx="8" ry="8" style="stroke:#181818;stroke-width:0.5;"/><path d="M71,21.5 L71,48.5 M58,29.5 L84,29.5 M71,48.5 L58,63.5 M71,48.5 L84,63.5 " fill="none" style="stroke:#181818;stroke-width:0.5;"/><text fill="#000000" font-family="sans-serif" font-size="14" lengthAdjust="spacing" textLength="143" x="132" y="79.5332">ChildManagementView</text><path d="M186,37 L186,61 M186,49 L203,49 " fill="none" style="stroke:#181818;stroke-width:0.5;"/><ellipse cx="215" cy="49" fill="#E2E2F0" rx="12" ry="12" style="stroke:#181818;stroke-width:0.5;"/><text fill="#000000" font-family="sans-serif" font-size="14" lengthAdjust="spacing" textLength="131" x="291" y="79.5332">ChildInformationView</text><path d="M339,37 L339,61 M339,49 L356,49 " fill="none" style="stroke:#181818;stroke-width:0.5;"/><ellipse cx="368" cy="49" fill="#E2E2F0" rx="12" ry="12" style="stroke:#181818;stroke-width:0.5;"/><text fill="#000000" font-family="sans-serif" font-size="14" lengthAdjust="spacing" textLength="94" x="507.5" y="79.5332">ChildController</text><ellipse cx="557.5" cy="49" fill="#E2E2F0" rx="12" ry="12" style="stroke:#181818;stroke-width:0.5;"/><polygon fill="#181818" points="553.5,37,559.5,32,557.5,37,559.5,42,553.5,37" style="stroke:#181818;stroke-width:1.0;"/><text fill="#000000" font-family="sans-serif" font-size="14" lengthAdjust="spacing" textLength="40" x="703.5" y="79.5332">CHILD</text><ellipse cx="726.5" cy="49" fill="#E2E2F0" rx="12" ry="12" style="stroke:#181818;stroke-width:0.5;"/><line style="stroke:#181818;stroke-width:0.5;" x1="714.5" x2="738.5" y1="63" y2="63"/><rect fill="#FFFFFF" height="248.5938" style="stroke:#181818;stroke-width:1.0;" width="10" x="66" y="174.6641"/><rect fill="#FFFFFF" height="30" style="stroke:#181818;stroke-width:1.0;" width="10" x="201.5" y="940.3125"/><rect fill="#FFFFFF" height="763.6484" style="stroke:#181818;stroke-width:1.0;" width="10" x="354.5" y="139.3125"/><rect fill="#FFFFFF" height="28" style="stroke:#181818;stroke-width:1.0;" width="10" x="359.5" y="213.0156"/><rect fill="#FFFFFF" height="28" style="stroke:#181818;stroke-width:1.0;" width="10" x="359.5" y="342.0703"/><rect fill="#FFFFFF" height="28" style="stroke:#181818;stroke-width:1.0;" width="10" x="359.5" y="681.7188"/><rect fill="#FFFFFF" height="516.7031" style="stroke:#181818;stroke-width:1.0;" width="10" x="552.5" y="453.6094"/><rect fill="#FFFFFF" height="352.2969" style="stroke:#181818;stroke-width:1.0;" width="10" x="721.5" y="483.9609"/><rect fill="#FFFFFF" height="28" style="stroke:#181818;stroke-width:1.0;" width="10" x="726.5" y="522.3125"/><rect fill="#FFFFFF" height="28" style="stroke:#181818;stroke-width:1.0;" width="10" x="726.5" y="770.9063"/><line style="stroke:#181818;stroke-width:1.0;" x1="359.5" x2="406.5" y1="126.3125" y2="126.3125"/><line style="stroke:#181818;stroke-width:1.0;" x1="406.5" x2="406.5" y1="126.3125" y2="139.3125"/><line style="stroke:#181818;stroke-width:1.0;" x1="365.5" x2="406.5" y1="139.3125" y2="139.3125"/><polygon fill="#181818" points="375.5,135.3125,365.5,139.3125,375.5,143.3125,371.5,139.3125" style="stroke:#181818;stroke-width:1.0;"/><text fill="#000000" font-family="sans-serif" font-size="13" font-weight="bold" lengthAdjust="spacing" textLength="7" x="371.5" y="113.2803">1</text><text fill="#000000" font-family="sans-serif" font-size="13" lengthAdjust="spacing" textLength="70" x="382.5" y="105.1045">Display with</text><text fill="#000000" font-family="sans-serif" font-size="13" lengthAdjust="spacing" textLength="103" x="382.5" y="121.4561">empty information</text><polygon fill="#181818" points="342.5,170.6641,352.5,174.6641,342.5,178.6641,346.5,174.6641" style="stroke:#181818;stroke-width:1.0;"/><line style="stroke:#181818;stroke-width:1.0;" x1="76" x2="348.5" y1="174.6641" y2="174.6641"/><text fill="#000000" font-family="sans-serif" font-size="13" font-weight="bold" lengthAdjust="spacing" textLength="7" x="83" y="169.8076">2</text><text fill="#000000" font-family="sans-serif" font-size="13" lengthAdjust="spacing" textLength="129" x="94" y="169.8076">Enter child information</text><line style="stroke:#181818;stroke-width:1.0;" x1="369.5" x2="411.5" y1="205.0156" y2="205.0156"/><line style="stroke:#181818;stroke-width:1.0;" x1="411.5" x2="411.5" y1="205.0156" y2="218.0156"/><line style="stroke:#181818;stroke-width:1.0;" x1="370.5" x2="411.5" y1="218.0156" y2="218.0156"/><polygon fill="#181818" points="380.5,214.0156,370.5,218.0156,380.5,222.0156,376.5,218.0156" style="stroke:#181818;stroke-width:1.0;"/><text fill="#000000" font-family="sans-serif" font-size="13" font-weight="bold" lengthAdjust="spacing" textLength="7" x="376.5" y="200.1592">3</text><text fill="#000000" font-family="sans-serif" font-size="13" lengthAdjust="spacing" textLength="76" x="387.5" y="200.1592">Validate data</text><path d="M10,263.0156 L71,263.0156 L71,271.3672 L61,281.3672 L10,281.3672 L10,263.0156 " fill="#EEEEEE" style="stroke:#000000;stroke-width:1.5;"/><rect fill="none" height="722.2969" style="stroke:#000000;stroke-width:1.5;" width="832.5" x="10" y="263.0156"/><text fill="#000000" font-family="sans-serif" font-size="13" font-weight="bold" lengthAdjust="spacing" textLength="16" x="25" y="277.5107">alt</text><text fill="#000000" font-family="sans-serif" font-size="11" font-weight="bold" lengthAdjust="spacing" textLength="69" x="86" y="276.4346">[Invalid data]</text><polygon fill="#181818" points="87,299.7188,77,303.7188,87,307.7188,83,303.7188" style="stroke:#181818;stroke-width:1.0;"/><line style="stroke:#181818;stroke-width:1.0;stroke-dasharray:2.0,2.0;" x1="81" x2="353.5" y1="303.7188" y2="303.7188"/><text fill="#000000" font-family="sans-serif" font-size="13" font-weight="bold" lengthAdjust="spacing" textLength="7" x="93" y="298.8623">4</text><text fill="#000000" font-family="sans-serif" font-size="13" lengthAdjust="spacing" textLength="94" x="104" y="298.8623">Error notification</text><line style="stroke:#181818;stroke-width:1.0;" x1="369.5" x2="411.5" y1="334.0703" y2="334.0703"/><line style="stroke:#181818;stroke-width:1.0;" x1="411.5" x2="411.5" y1="334.0703" y2="347.0703"/><line style="stroke:#181818;stroke-width:1.0;" x1="370.5" x2="411.5" y1="347.0703" y2="347.0703"/><polygon fill="#181818" points="380.5,343.0703,370.5,347.0703,380.5,351.0703,376.5,347.0703" style="stroke:#181818;stroke-width:1.0;"/><text fill="#000000" font-family="sans-serif" font-size="13" font-weight="bold" lengthAdjust="spacing" textLength="7" x="376.5" y="329.2139">5</text><text fill="#000000" font-family="sans-serif" font-size="13" lengthAdjust="spacing" textLength="139" x="387.5" y="329.2139">Display error notification</text><line style="stroke:#000000;stroke-width:1.0;stroke-dasharray:2.0,2.0;" x1="10" x2="842.5" y1="386.0703" y2="386.0703"/><text fill="#000000" font-family="sans-serif" font-size="11" font-weight="bold" lengthAdjust="spacing" textLength="61" x="15" y="397.4893">[Valid data]</text><polygon fill="#181818" points="342.5,419.2578,352.5,423.2578,342.5,427.2578,346.5,423.2578" style="stroke:#181818;stroke-width:1.0;"/><line style="stroke:#181818;stroke-width:1.0;" x1="71" x2="348.5" y1="423.2578" y2="423.2578"/><text fill="#000000" font-family="sans-serif" font-size="13" font-weight="bold" lengthAdjust="spacing" textLength="7" x="78" y="418.4014">6</text><text fill="#000000" font-family="sans-serif" font-size="13" lengthAdjust="spacing" textLength="172" x="89" y="418.4014">Click button "Save" to confirm</text><polygon fill="#181818" points="540.5,449.6094,550.5,453.6094,540.5,457.6094,544.5,453.6094" style="stroke:#181818;stroke-width:1.0;"/><line style="stroke:#181818;stroke-width:1.0;" x1="364.5" x2="546.5" y1="453.6094" y2="453.6094"/><text fill="#000000" font-family="sans-serif" font-size="13" font-weight="bold" lengthAdjust="spacing" textLength="7" x="371.5" y="448.7529">7</text><text fill="#000000" font-family="sans-serif" font-size="13" lengthAdjust="spacing" textLength="158" x="382.5" y="448.7529">Send creating child request</text><polygon fill="#181818" points="709.5,479.9609,719.5,483.9609,709.5,487.9609,713.5,483.9609" style="stroke:#181818;stroke-width:1.0;"/><line style="stroke:#181818;stroke-width:1.0;" x1="562.5" x2="715.5" y1="483.9609" y2="483.9609"/><text fill="#000000" font-family="sans-serif" font-size="13" font-weight="bold" lengthAdjust="spacing" textLength="7" x="569.5" y="479.1045">8</text><text fill="#000000" font-family="sans-serif" font-size="13" lengthAdjust="spacing" textLength="97" x="580.5" y="479.1045">Send information</text><line style="stroke:#181818;stroke-width:1.0;" x1="736.5" x2="778.5" y1="514.3125" y2="514.3125"/><line style="stroke:#181818;stroke-width:1.0;" x1="778.5" x2="778.5" y1="514.3125" y2="527.3125"/><line style="stroke:#181818;stroke-width:1.0;" x1="737.5" x2="778.5" y1="527.3125" y2="527.3125"/><polygon fill="#181818" points="747.5,523.3125,737.5,527.3125,747.5,531.3125,743.5,527.3125" style="stroke:#181818;stroke-width:1.0;"/><text fill="#000000" font-family="sans-serif" font-size="13" font-weight="bold" lengthAdjust="spacing" textLength="7" x="743.5" y="509.4561">9</text><text fill="#000000" font-family="sans-serif" font-size="13" lengthAdjust="spacing" textLength="76" x="754.5" y="509.4561">Validate data</text><path d="M122,572.3125 L183,572.3125 L183,580.6641 L173,590.6641 L122,590.6641 L122,572.3125 " fill="#EEEEEE" style="stroke:#000000;stroke-width:1.5;"/><rect fill="none" height="406" style="stroke:#000000;stroke-width:1.5;" width="711.5" x="122" y="572.3125"/><text fill="#000000" font-family="sans-serif" font-size="13" font-weight="bold" lengthAdjust="spacing" textLength="16" x="137" y="586.8076">alt</text><text fill="#000000" font-family="sans-serif" font-size="11" font-weight="bold" lengthAdjust="spacing" textLength="69" x="198" y="585.7314">[Invalid data]</text><polygon fill="#181818" points="573.5,609.0156,563.5,613.0156,573.5,617.0156,569.5,613.0156" style="stroke:#181818;stroke-width:1.0;"/><line style="stroke:#181818;stroke-width:1.0;stroke-dasharray:2.0,2.0;" x1="567.5" x2="720.5" y1="613.0156" y2="613.0156"/><text fill="#000000" font-family="sans-serif" font-size="13" font-weight="bold" lengthAdjust="spacing" textLength="14" x="579.5" y="608.1592">10</text><text fill="#000000" font-family="sans-serif" font-size="13" lengthAdjust="spacing" textLength="94" x="597.5" y="608.1592">Error notification</text><polygon fill="#181818" points="375.5,639.3672,365.5,643.3672,375.5,647.3672,371.5,643.3672" style="stroke:#181818;stroke-width:1.0;"/><line style="stroke:#181818;stroke-width:1.0;stroke-dasharray:2.0,2.0;" x1="369.5" x2="551.5" y1="643.3672" y2="643.3672"/><text fill="#000000" font-family="sans-serif" font-size="13" font-weight="bold" lengthAdjust="spacing" textLength="14" x="381.5" y="638.5107">11</text><text fill="#000000" font-family="sans-serif" font-size="13" lengthAdjust="spacing" textLength="94" x="399.5" y="638.5107">Error notification</text><line style="stroke:#181818;stroke-width:1.0;" x1="369.5" x2="411.5" y1="673.7188" y2="673.7188"/><line style="stroke:#181818;stroke-width:1.0;" x1="411.5" x2="411.5" y1="673.7188" y2="686.7188"/><line style="stroke:#181818;stroke-width:1.0;" x1="370.5" x2="411.5" y1="686.7188" y2="686.7188"/><polygon fill="#181818" points="380.5,682.7188,370.5,686.7188,380.5,690.7188,376.5,686.7188" style="stroke:#181818;stroke-width:1.0;"/><text fill="#000000" font-family="sans-serif" font-size="13" font-weight="bold" lengthAdjust="spacing" textLength="14" x="376.5" y="668.8623">12</text><text fill="#000000" font-family="sans-serif" font-size="13" lengthAdjust="spacing" textLength="139" x="394.5" y="668.8623">Display error notification</text><line style="stroke:#000000;stroke-width:1.0;stroke-dasharray:2.0,2.0;" x1="122" x2="833.5" y1="725.7188" y2="725.7188"/><text fill="#000000" font-family="sans-serif" font-size="11" font-weight="bold" lengthAdjust="spacing" textLength="61" x="127" y="737.1377">[Valid data]</text><line style="stroke:#181818;stroke-width:1.0;" x1="736.5" x2="778.5" y1="762.9063" y2="762.9063"/><line style="stroke:#181818;stroke-width:1.0;" x1="778.5" x2="778.5" y1="762.9063" y2="775.9063"/><line style="stroke:#181818;stroke-width:1.0;" x1="737.5" x2="778.5" y1="775.9063" y2="775.9063"/><polygon fill="#181818" points="747.5,771.9063,737.5,775.9063,747.5,779.9063,743.5,775.9063" style="stroke:#181818;stroke-width:1.0;"/><text fill="#000000" font-family="sans-serif" font-size="13" font-weight="bold" lengthAdjust="spacing" textLength="14" x="743.5" y="758.0498">13</text><text fill="#000000" font-family="sans-serif" font-size="13" lengthAdjust="spacing" textLength="60" x="761.5" y="758.0498">Store data</text><polygon fill="#181818" points="573.5,832.2578,563.5,836.2578,573.5,840.2578,569.5,836.2578" style="stroke:#181818;stroke-width:1.0;"/><line style="stroke:#181818;stroke-width:1.0;stroke-dasharray:2.0,2.0;" x1="567.5" x2="725.5" y1="836.2578" y2="836.2578"/><text fill="#000000" font-family="sans-serif" font-size="13" font-weight="bold" lengthAdjust="spacing" textLength="14" x="579.5" y="831.4014">14</text><text fill="#000000" font-family="sans-serif" font-size="13" lengthAdjust="spacing" textLength="117" x="597.5" y="831.4014">Success notification</text><polygon fill="#181818" points="375.5,862.6094,365.5,866.6094,375.5,870.6094,371.5,866.6094" style="stroke:#181818;stroke-width:1.0;"/><line style="stroke:#181818;stroke-width:1.0;stroke-dasharray:2.0,2.0;" x1="369.5" x2="551.5" y1="866.6094" y2="866.6094"/><text fill="#000000" font-family="sans-serif" font-size="13" font-weight="bold" lengthAdjust="spacing" textLength="14" x="381.5" y="861.7529">15</text><text fill="#000000" font-family="sans-serif" font-size="13" lengthAdjust="spacing" textLength="117" x="399.5" y="861.7529">Success notification</text><line style="stroke:#181818;stroke-width:1.0;" x1="364.5" x2="406.5" y1="901.9609" y2="901.9609"/><line style="stroke:#181818;stroke-width:1.0;" x1="406.5" x2="406.5" y1="901.9609" y2="914.9609"/><line style="stroke:#181818;stroke-width:1.0;" x1="359.5" x2="406.5" y1="914.9609" y2="914.9609"/><polygon fill="#181818" points="369.5,910.9609,359.5,914.9609,369.5,918.9609,365.5,914.9609" style="stroke:#181818;stroke-width:1.0;"/><text fill="#000000" font-family="sans-serif" font-size="13" font-weight="bold" lengthAdjust="spacing" textLength="14" x="371.5" y="897.1045">16</text><text fill="#000000" font-family="sans-serif" font-size="13" lengthAdjust="spacing" textLength="61" x="389.5" y="897.1045">Close view</text><polygon fill="#181818" points="222.5,936.3125,212.5,940.3125,222.5,944.3125,218.5,940.3125" style="stroke:#181818;stroke-width:1.0;"/><line style="stroke:#181818;stroke-width:1.0;" x1="216.5" x2="551.5" y1="940.3125" y2="940.3125"/><text fill="#000000" font-family="sans-serif" font-size="13" font-weight="bold" lengthAdjust="spacing" textLength="14" x="228.5" y="935.4561">17</text><text fill="#000000" font-family="sans-serif" font-size="13" lengthAdjust="spacing" textLength="271" x="246.5" y="935.4561">Display success notification and list of children</text><!--MD5=[e2676463d56abff9eb9e16cdf55190d7]
@startuml CreateChildSeq
autonumber
hide footbox

actor "Parent / Doctor" as ParentDoctor
boundary ChildManagementView
boundary ChildInformationView
control ChildController
entity CHILD

ChildInformationView -> ChildInformationView: Display with \nempty information
activate ChildInformationView
ParentDoctor -> ChildInformationView: Enter child information  
activate ParentDoctor
ChildInformationView -> ChildInformationView: Validate data
activate ChildInformationView
deactivate ChildInformationView
alt Invalid data
    ChildInformationView - -> ParentDoctor: Error notification
    ChildInformationView -> ChildInformationView: Display error notification
    activate ChildInformationView
    deactivate ChildInformationView
else Valid data
    ParentDoctor -> ChildInformationView: Click button "Save" to confirm
    deactivate ParentDoctor
    ChildInformationView -> ChildController: Send creating child request
    activate ChildController
    ChildController -> CHILD: Send information
    activate CHILD
    CHILD -> CHILD: Validate data
    activate CHILD
    deactivate CHILD
    alt Invalid data
        CHILD - -> ChildController: Error notification
        ChildController - -> ChildInformationView: Error notification
        ChildInformationView -> ChildInformationView: Display error notification
        activate ChildInformationView
        deactivate ChildInformationView
    else Valid data
        CHILD -> CHILD: Store data
        activate CHILD
        deactivate CHILD
        CHILD - -> ChildController: Success notification
        deactivate CHILD
        ChildController - -> ChildInformationView: Success notification
        ChildInformationView -> ChildInformationView: Close view
        deactivate ChildInformationView
        ChildController -> ChildManagementView: Display success notification and list of children
        activate ChildManagementView
        deactivate ChildManagementView        
        deactivate ChildController
    end
end
@enduml

PlantUML version 1.2022.7(Tue Aug 23 00:01:30 ICT 2022)
(GPL source distribution)
Java Runtime: Java(TM) SE Runtime Environment
JVM: Java HotSpot(TM) 64-Bit Server VM
Default Encoding: Cp1252
Language: en
Country: US
--></g></svg>