<?xml version="1.0" encoding="UTF-8" standalone="no"?><svg xmlns="http://www.w3.org/2000/svg" xmlns:xlink="http://www.w3.org/1999/xlink" contentStyleType="text/css" height="1017px" preserveAspectRatio="none" style="width:772px;height:1017px;background:#FFFFFF;" version="1.1" viewBox="0 0 772 1017" width="772px" zoomAndPan="magnify"><defs/><g><rect fill="#FFFFFF" height="248.5938" style="stroke:#181818;stroke-width:1.0;" width="10" x="66" y="210.1094"/><rect fill="#FFFFFF" height="761" style="stroke:#181818;stroke-width:1.0;" width="10" x="238" y="210.1094"/><rect fill="#FFFFFF" height="28" style="stroke:#181818;stroke-width:1.0;" width="10" x="243" y="248.4609"/><rect fill="#FFFFFF" height="28" style="stroke:#181818;stroke-width:1.0;" width="10" x="243" y="377.5156"/><rect fill="#FFFFFF" height="28" style="stroke:#181818;stroke-width:1.0;" width="10" x="243" y="733.5156"/><rect fill="#FFFFFF" height="413" style="stroke:#181818;stroke-width:1.0;" width="10" x="468" y="505.4063"/><rect fill="#FFFFFF" height="352.2969" style="stroke:#181818;stroke-width:1.0;" width="10" x="637" y="535.7578"/><rect fill="#FFFFFF" height="28" style="stroke:#181818;stroke-width:1.0;" width="10" x="642" y="574.1094"/><rect fill="#FFFFFF" height="28" style="stroke:#181818;stroke-width:1.0;" width="10" x="642" y="822.7031"/><rect fill="none" height="64.7969" style="stroke:#000000;stroke-width:1.5;" width="665" x="10" y="99.6094"/><rect fill="none" height="694.6484" style="stroke:#000000;stroke-width:1.5;" width="755" x="10" y="298.4609"/><rect fill="none" height="362" style="stroke:#000000;stroke-width:1.5;" width="596.5" x="158.5" y="624.1094"/><line style="stroke:#181818;stroke-width:0.5;stroke-dasharray:5.0,5.0;" x1="71" x2="71" y1="82.6094" y2="1010.1094"/><line style="stroke:#181818;stroke-width:0.5;stroke-dasharray:5.0,5.0;" x1="242.5" x2="242.5" y1="82.6094" y2="1010.1094"/><line style="stroke:#181818;stroke-width:0.5;stroke-dasharray:5.0,5.0;" x1="473" x2="473" y1="82.6094" y2="1010.1094"/><line style="stroke:#181818;stroke-width:0.5;stroke-dasharray:5.0,5.0;" x1="642" x2="642" y1="82.6094" y2="1010.1094"/><text fill="#000000" font-family="sans-serif" font-size="14" lengthAdjust="spacing" textLength="96" x="20" y="79.5332">Parent / Doctor</text><ellipse cx="71" cy="13.5" fill="#E2E2F0" rx="8" ry="8" style="stroke:#181818;stroke-width:0.5;"/><path d="M71,21.5 L71,48.5 M58,29.5 L84,29.5 M71,48.5 L58,63.5 M71,48.5 L84,63.5 " fill="none" style="stroke:#181818;stroke-width:0.5;"/><text fill="#000000" font-family="sans-serif" font-size="14" lengthAdjust="spacing" textLength="143" x="168.5" y="79.5332">ChildManagementView</text><path d="M222.5,37 L222.5,61 M222.5,49 L239.5,49 " fill="none" style="stroke:#181818;stroke-width:0.5;"/><ellipse cx="251.5" cy="49" fill="#E2E2F0" rx="12" ry="12" style="stroke:#181818;stroke-width:0.5;"/><text fill="#000000" font-family="sans-serif" font-size="14" lengthAdjust="spacing" textLength="94" x="423" y="79.5332">ChildController</text><ellipse cx="473" cy="49" fill="#E2E2F0" rx="12" ry="12" style="stroke:#181818;stroke-width:0.5;"/><polygon fill="#181818" points="469,37,475,32,473,37,475,42,469,37" style="stroke:#181818;stroke-width:1.0;"/><text fill="#000000" font-family="sans-serif" font-size="14" lengthAdjust="spacing" textLength="40" x="619" y="79.5332">CHILD</text><ellipse cx="642" cy="49" fill="#E2E2F0" rx="12" ry="12" style="stroke:#181818;stroke-width:0.5;"/><line style="stroke:#181818;stroke-width:0.5;" x1="630" x2="654" y1="63" y2="63"/><rect fill="#FFFFFF" height="248.5938" style="stroke:#181818;stroke-width:1.0;" width="10" x="66" y="210.1094"/><rect fill="#FFFFFF" height="761" style="stroke:#181818;stroke-width:1.0;" width="10" x="238" y="210.1094"/><rect fill="#FFFFFF" height="28" style="stroke:#181818;stroke-width:1.0;" width="10" x="243" y="248.4609"/><rect fill="#FFFFFF" height="28" style="stroke:#181818;stroke-width:1.0;" width="10" x="243" y="377.5156"/><rect fill="#FFFFFF" height="28" style="stroke:#181818;stroke-width:1.0;" width="10" x="243" y="733.5156"/><rect fill="#FFFFFF" height="413" style="stroke:#181818;stroke-width:1.0;" width="10" x="468" y="505.4063"/><rect fill="#FFFFFF" height="352.2969" style="stroke:#181818;stroke-width:1.0;" width="10" x="637" y="535.7578"/><rect fill="#FFFFFF" height="28" style="stroke:#181818;stroke-width:1.0;" width="10" x="642" y="574.1094"/><rect fill="#FFFFFF" height="28" style="stroke:#181818;stroke-width:1.0;" width="10" x="642" y="822.7031"/><path d="M10,99.6094 L75,99.6094 L75,107.9609 L65,117.9609 L10,117.9609 L10,99.6094 " fill="#EEEEEE" style="stroke:#000000;stroke-width:1.5;"/><rect fill="none" height="64.7969" style="stroke:#000000;stroke-width:1.5;" width="665" x="10" y="99.6094"/><text fill="#000000" font-family="sans-serif" font-size="13" font-weight="bold" lengthAdjust="spacing" textLength="20" x="25" y="114.1045">opt</text><text fill="#000000" font-family="sans-serif" font-size="11" font-weight="bold" lengthAdjust="spacing" textLength="46" x="90" y="113.0283">[Search]</text><rect fill="none" height="41.4453" style="stroke:#000000;stroke-width:1.5;" width="651" x="17" y="117.9609"/><path d="M17,117.9609 L79,117.9609 L79,125.9609 L69,135.9609 L17,135.9609 L17,117.9609 " fill="#EEEEEE" style="stroke:#000000;stroke-width:2.0;"/><text fill="#000000" font-family="sans-serif" font-size="13" font-weight="bold" lengthAdjust="spacing" textLength="17" x="30" y="133.4561">ref</text><text fill="#000000" font-family="sans-serif" font-size="12" lengthAdjust="spacing" textLength="130" x="277.5" y="152.418">Sequence Search Child</text><polygon fill="#181818" points="226,206.1094,236,210.1094,226,214.1094,230,210.1094" style="stroke:#181818;stroke-width:1.0;"/><line style="stroke:#181818;stroke-width:1.0;" x1="76" x2="232" y1="210.1094" y2="210.1094"/><text fill="#000000" font-family="sans-serif" font-size="13" font-weight="bold" lengthAdjust="spacing" textLength="7" x="83" y="197.0771">1</text><text fill="#000000" font-family="sans-serif" font-size="13" lengthAdjust="spacing" textLength="68" x="94" y="188.9014">Select child</text><text fill="#000000" font-family="sans-serif" font-size="13" lengthAdjust="spacing" textLength="84" x="94" y="205.2529">needs deleting</text><line style="stroke:#181818;stroke-width:1.0;" x1="253" x2="295" y1="240.4609" y2="240.4609"/><line style="stroke:#181818;stroke-width:1.0;" x1="295" x2="295" y1="240.4609" y2="253.4609"/><line style="stroke:#181818;stroke-width:1.0;" x1="254" x2="295" y1="253.4609" y2="253.4609"/><polygon fill="#181818" points="264,249.4609,254,253.4609,264,257.4609,260,253.4609" style="stroke:#181818;stroke-width:1.0;"/><text fill="#000000" font-family="sans-serif" font-size="13" font-weight="bold" lengthAdjust="spacing" textLength="7" x="260" y="235.6045">2</text><text fill="#000000" font-family="sans-serif" font-size="13" lengthAdjust="spacing" textLength="195" x="271" y="235.6045">Display confirmation messagebox</text><path d="M10,298.4609 L71,298.4609 L71,306.8125 L61,316.8125 L10,316.8125 L10,298.4609 " fill="#EEEEEE" style="stroke:#000000;stroke-width:1.5;"/><rect fill="none" height="694.6484" style="stroke:#000000;stroke-width:1.5;" width="755" x="10" y="298.4609"/><text fill="#000000" font-family="sans-serif" font-size="13" font-weight="bold" lengthAdjust="spacing" textLength="16" x="25" y="312.9561">alt</text><text fill="#000000" font-family="sans-serif" font-size="11" font-weight="bold" lengthAdjust="spacing" textLength="45" x="86" y="311.8799">[Cancel]</text><polygon fill="#181818" points="226,335.1641,236,339.1641,226,343.1641,230,339.1641" style="stroke:#181818;stroke-width:1.0;"/><line style="stroke:#181818;stroke-width:1.0;" x1="76" x2="232" y1="339.1641" y2="339.1641"/><text fill="#000000" font-family="sans-serif" font-size="13" font-weight="bold" lengthAdjust="spacing" textLength="7" x="83" y="334.3076">3</text><text fill="#000000" font-family="sans-serif" font-size="13" lengthAdjust="spacing" textLength="123" x="94" y="334.3076">Click "Cancel" button</text><line style="stroke:#181818;stroke-width:1.0;" x1="253" x2="295" y1="369.5156" y2="369.5156"/><line style="stroke:#181818;stroke-width:1.0;" x1="295" x2="295" y1="369.5156" y2="382.5156"/><line style="stroke:#181818;stroke-width:1.0;" x1="254" x2="295" y1="382.5156" y2="382.5156"/><polygon fill="#181818" points="264,378.5156,254,382.5156,264,386.5156,260,382.5156" style="stroke:#181818;stroke-width:1.0;"/><text fill="#000000" font-family="sans-serif" font-size="13" font-weight="bold" lengthAdjust="spacing" textLength="7" x="260" y="364.6592">4</text><text fill="#000000" font-family="sans-serif" font-size="13" lengthAdjust="spacing" textLength="189" x="271" y="364.6592">Close confirmation message box</text><line style="stroke:#000000;stroke-width:1.0;stroke-dasharray:2.0,2.0;" x1="10" x2="765" y1="421.5156" y2="421.5156"/><text fill="#000000" font-family="sans-serif" font-size="11" font-weight="bold" lengthAdjust="spacing" textLength="53" x="15" y="432.9346">[Confirm]</text><polygon fill="#181818" points="226,454.7031,236,458.7031,226,462.7031,230,458.7031" style="stroke:#181818;stroke-width:1.0;"/><line style="stroke:#181818;stroke-width:1.0;" x1="71" x2="232" y1="458.7031" y2="458.7031"/><text fill="#000000" font-family="sans-serif" font-size="13" font-weight="bold" lengthAdjust="spacing" textLength="7" x="78" y="453.8467">5</text><text fill="#000000" font-family="sans-serif" font-size="13" lengthAdjust="spacing" textLength="127" x="89" y="453.8467">Click "Confirm" button</text><polygon fill="#181818" points="456,501.4063,466,505.4063,456,509.4063,460,505.4063" style="stroke:#181818;stroke-width:1.0;"/><line style="stroke:#181818;stroke-width:1.0;" x1="248" x2="462" y1="505.4063" y2="505.4063"/><text fill="#000000" font-family="sans-serif" font-size="13" font-weight="bold" lengthAdjust="spacing" textLength="7" x="255" y="492.374">6</text><text fill="#000000" font-family="sans-serif" font-size="13" lengthAdjust="spacing" textLength="79" x="266" y="484.1982">Send deleting</text><text fill="#000000" font-family="sans-serif" font-size="13" lengthAdjust="spacing" textLength="127" x="266" y="500.5498">selected child request</text><polygon fill="#181818" points="625,531.7578,635,535.7578,625,539.7578,629,535.7578" style="stroke:#181818;stroke-width:1.0;"/><line style="stroke:#181818;stroke-width:1.0;" x1="478" x2="631" y1="535.7578" y2="535.7578"/><text fill="#000000" font-family="sans-serif" font-size="13" font-weight="bold" lengthAdjust="spacing" textLength="7" x="485" y="530.9014">7</text><text fill="#000000" font-family="sans-serif" font-size="13" lengthAdjust="spacing" textLength="121" x="496" y="530.9014">Delete selected child</text><line style="stroke:#181818;stroke-width:1.0;" x1="652" x2="694" y1="566.1094" y2="566.1094"/><line style="stroke:#181818;stroke-width:1.0;" x1="694" x2="694" y1="566.1094" y2="579.1094"/><line style="stroke:#181818;stroke-width:1.0;" x1="653" x2="694" y1="579.1094" y2="579.1094"/><polygon fill="#181818" points="663,575.1094,653,579.1094,663,583.1094,659,579.1094" style="stroke:#181818;stroke-width:1.0;"/><text fill="#000000" font-family="sans-serif" font-size="13" font-weight="bold" lengthAdjust="spacing" textLength="7" x="659" y="561.2529">8</text><text fill="#000000" font-family="sans-serif" font-size="13" lengthAdjust="spacing" textLength="76" x="670" y="561.2529">Validate data</text><path d="M158.5,624.1094 L219.5,624.1094 L219.5,632.4609 L209.5,642.4609 L158.5,642.4609 L158.5,624.1094 " fill="#EEEEEE" style="stroke:#000000;stroke-width:1.5;"/><rect fill="none" height="362" style="stroke:#000000;stroke-width:1.5;" width="596.5" x="158.5" y="624.1094"/><text fill="#000000" font-family="sans-serif" font-size="13" font-weight="bold" lengthAdjust="spacing" textLength="16" x="173.5" y="638.6045">alt</text><text fill="#000000" font-family="sans-serif" font-size="11" font-weight="bold" lengthAdjust="spacing" textLength="69" x="234.5" y="637.5283">[Invalid data]</text><polygon fill="#181818" points="489,660.8125,479,664.8125,489,668.8125,485,664.8125" style="stroke:#181818;stroke-width:1.0;"/><line style="stroke:#181818;stroke-width:1.0;stroke-dasharray:2.0,2.0;" x1="483" x2="636" y1="664.8125" y2="664.8125"/><text fill="#000000" font-family="sans-serif" font-size="13" font-weight="bold" lengthAdjust="spacing" textLength="7" x="495" y="659.9561">9</text><text fill="#000000" font-family="sans-serif" font-size="13" lengthAdjust="spacing" textLength="94" x="506" y="659.9561">Error notification</text><polygon fill="#181818" points="259,691.1641,249,695.1641,259,699.1641,255,695.1641" style="stroke:#181818;stroke-width:1.0;"/><line style="stroke:#181818;stroke-width:1.0;stroke-dasharray:2.0,2.0;" x1="253" x2="467" y1="695.1641" y2="695.1641"/><text fill="#000000" font-family="sans-serif" font-size="13" font-weight="bold" lengthAdjust="spacing" textLength="14" x="265" y="690.3076">10</text><text fill="#000000" font-family="sans-serif" font-size="13" lengthAdjust="spacing" textLength="94" x="283" y="690.3076">Error notification</text><line style="stroke:#181818;stroke-width:1.0;" x1="253" x2="295" y1="725.5156" y2="725.5156"/><line style="stroke:#181818;stroke-width:1.0;" x1="295" x2="295" y1="725.5156" y2="738.5156"/><line style="stroke:#181818;stroke-width:1.0;" x1="254" x2="295" y1="738.5156" y2="738.5156"/><polygon fill="#181818" points="264,734.5156,254,738.5156,264,742.5156,260,738.5156" style="stroke:#181818;stroke-width:1.0;"/><text fill="#000000" font-family="sans-serif" font-size="13" font-weight="bold" lengthAdjust="spacing" textLength="14" x="260" y="720.6592">11</text><text fill="#000000" font-family="sans-serif" font-size="13" lengthAdjust="spacing" textLength="139" x="278" y="720.6592">Display error notification</text><line style="stroke:#000000;stroke-width:1.0;stroke-dasharray:2.0,2.0;" x1="158.5" x2="755" y1="777.5156" y2="777.5156"/><text fill="#000000" font-family="sans-serif" font-size="11" font-weight="bold" lengthAdjust="spacing" textLength="61" x="163.5" y="788.9346">[Valid data]</text><line style="stroke:#181818;stroke-width:1.0;" x1="652" x2="694" y1="814.7031" y2="814.7031"/><line style="stroke:#181818;stroke-width:1.0;" x1="694" x2="694" y1="814.7031" y2="827.7031"/><line style="stroke:#181818;stroke-width:1.0;" x1="653" x2="694" y1="827.7031" y2="827.7031"/><polygon fill="#181818" points="663,823.7031,653,827.7031,663,831.7031,659,827.7031" style="stroke:#181818;stroke-width:1.0;"/><text fill="#000000" font-family="sans-serif" font-size="13" font-weight="bold" lengthAdjust="spacing" textLength="14" x="659" y="809.8467">12</text><text fill="#000000" font-family="sans-serif" font-size="13" lengthAdjust="spacing" textLength="66" x="677" y="809.8467">Delete data</text><polygon fill="#181818" points="489,884.0547,479,888.0547,489,892.0547,485,888.0547" style="stroke:#181818;stroke-width:1.0;"/><line style="stroke:#181818;stroke-width:1.0;stroke-dasharray:2.0,2.0;" x1="483" x2="641" y1="888.0547" y2="888.0547"/><text fill="#000000" font-family="sans-serif" font-size="13" font-weight="bold" lengthAdjust="spacing" textLength="14" x="495" y="883.1982">13</text><text fill="#000000" font-family="sans-serif" font-size="13" lengthAdjust="spacing" textLength="117" x="513" y="883.1982">Success notification</text><polygon fill="#181818" points="259,914.4063,249,918.4063,259,922.4063,255,918.4063" style="stroke:#181818;stroke-width:1.0;"/><line style="stroke:#181818;stroke-width:1.0;stroke-dasharray:2.0,2.0;" x1="253" x2="472" y1="918.4063" y2="918.4063"/><text fill="#000000" font-family="sans-serif" font-size="13" font-weight="bold" lengthAdjust="spacing" textLength="14" x="265" y="913.5498">14</text><text fill="#000000" font-family="sans-serif" font-size="13" lengthAdjust="spacing" textLength="94" x="283" y="913.5498">Error notification</text><line style="stroke:#181818;stroke-width:1.0;" x1="248" x2="290" y1="970.1094" y2="970.1094"/><line style="stroke:#181818;stroke-width:1.0;" x1="290" x2="290" y1="970.1094" y2="983.1094"/><line style="stroke:#181818;stroke-width:1.0;" x1="243" x2="290" y1="983.1094" y2="983.1094"/><polygon fill="#181818" points="253,979.1094,243,983.1094,253,987.1094,249,983.1094" style="stroke:#181818;stroke-width:1.0;"/><text fill="#000000" font-family="sans-serif" font-size="13" font-weight="bold" lengthAdjust="spacing" textLength="14" x="255" y="957.0771">15</text><text fill="#000000" font-family="sans-serif" font-size="13" lengthAdjust="spacing" textLength="162" x="273" y="948.9014">Display success notification</text><text fill="#000000" font-family="sans-serif" font-size="13" lengthAdjust="spacing" textLength="105" x="273" y="965.2529">and list of children</text><!--MD5=[8067b4cb830a078a16b0fda53b1e7843]
@startuml DeleteChildSeq
autonumber
hide footbox

actor "Parent / Doctor" as ParentDoctor
boundary ChildManagementView
control ChildController
entity CHILD

opt Search
ref over ParentDoctor, ChildManagementView, ChildController, CHILD: Sequence Search Child
end 

ParentDoctor -> ChildManagementView: Select child\nneeds deleting
activate ParentDoctor
activate ChildManagementView
ChildManagementView -> ChildManagementView: Display confirmation messagebox
activate ChildManagementView
deactivate ChildManagementView
alt Cancel  
    ParentDoctor -> ChildManagementView: Click "Cancel" button
    ChildManagementView -> ChildManagementView: Close confirmation message box
    activate ChildManagementView
    deactivate ChildManagementView
else Confirm
    ParentDoctor -> ChildManagementView: Click "Confirm" button
    deactivate ParentDoctor
    ChildManagementView -> ChildController: Send deleting\nselected child request
    activate ChildController
    ChildController -> CHILD: Delete selected child
    activate CHILD
    CHILD -> CHILD: Validate data
    activate CHILD
    deactivate CHILD
    alt Invalid data
        CHILD - -> ChildController: Error notification
        ChildController - -> ChildManagementView: Error notification
        ChildManagementView -> ChildManagementView: Display error notification
        activate ChildManagementView
        deactivate ChildManagementView
    else Valid data
        CHILD -> CHILD: Delete data
        activate CHILD
        deactivate CHILD
        CHILD - -> ChildController: Success notification
        deactivate CHILD
        ChildController - -> ChildManagementView: Error notification
        deactivate ChildController
        ChildManagementView -> ChildManagementView: Display success notification\nand list of children
        deactivate ChildManagementView
    end
end
@enduml

PlantUML version 1.2022.7(Tue Aug 23 00:01:30 ICT 2022)
(GPL source distribution)
Java Runtime: Java(TM) SE Runtime Environment
JVM: Java HotSpot(TM) 64-Bit Server VM
Default Encoding: Cp1252
Language: en
Country: US
--></g></svg>