<?xml version="1.0" encoding="us-ascii" standalone="no"?><svg xmlns="http://www.w3.org/2000/svg" xmlns:xlink="http://www.w3.org/1999/xlink" contentStyleType="text/css" height="673px" preserveAspectRatio="none" style="width:709px;height:673px;background:#FFFFFF;" version="1.1" viewBox="0 0 709 673" width="709px" zoomAndPan="magnify"><defs/><g><rect fill="#FFFFFF" height="486.4375" style="stroke:#181818;stroke-width:1.0;" width="10" x="212" y="170.6953"/><rect fill="#FFFFFF" height="28" style="stroke:#181818;stroke-width:1.0;" width="10" x="217" y="207.8281"/><rect fill="#FFFFFF" height="58.2656" style="stroke:#181818;stroke-width:1.0;" width="10" x="389" y="112.4297"/><rect fill="#FFFFFF" height="29.1328" style="stroke:#181818;stroke-width:1.0;" width="10" x="542" y="112.4297"/><rect fill="#FFFFFF" height="384.1719" style="stroke:#181818;stroke-width:1.0;" width="10" x="632.5" y="271.9609"/><rect fill="none" height="61.2344" style="stroke:#000000;stroke-width:1.5;" width="581.5" x="122" y="286.9609"/><rect fill="none" height="61.2344" style="stroke:#000000;stroke-width:1.5;" width="581.5" x="122" y="362.1953"/><rect fill="none" height="61.2344" style="stroke:#000000;stroke-width:1.5;" width="581.5" x="122" y="437.4297"/><rect fill="none" height="61.2344" style="stroke:#000000;stroke-width:1.5;" width="581.5" x="122" y="512.6641"/><rect fill="none" height="61.2344" style="stroke:#000000;stroke-width:1.5;" width="581.5" x="122" y="587.8984"/><line style="stroke:#181818;stroke-width:0.5;stroke-dasharray:5.0,5.0;" x1="63" x2="63" y1="81.2969" y2="666.1328"/><line style="stroke:#181818;stroke-width:0.5;stroke-dasharray:5.0,5.0;" x1="217" x2="217" y1="81.2969" y2="666.1328"/><line style="stroke:#181818;stroke-width:0.5;stroke-dasharray:5.0,5.0;" x1="393.5" x2="393.5" y1="81.2969" y2="666.1328"/><line style="stroke:#181818;stroke-width:0.5;stroke-dasharray:5.0,5.0;" x1="546.5" x2="546.5" y1="81.2969" y2="666.1328"/><line style="stroke:#181818;stroke-width:0.5;stroke-dasharray:5.0,5.0;" x1="637.5" x2="637.5" y1="81.2969" y2="666.1328"/><text fill="#000000" font-family="sans-serif" font-size="14" lengthAdjust="spacing" textLength="111" x="5" y="77.9951">Parent / Doctor</text><ellipse cx="63.5" cy="13.5" fill="#E2E2F0" rx="8" ry="8" style="stroke:#181818;stroke-width:0.5;"/><path d="M63.5,21.5 L63.5,48.5 M50.5,29.5 L76.5,29.5 M63.5,48.5 L50.5,63.5 M63.5,48.5 L76.5,63.5 " fill="none" style="stroke:#181818;stroke-width:0.5;"/><text fill="#000000" font-family="sans-serif" font-size="14" lengthAdjust="spacing" textLength="164" x="132" y="77.9951">ChildManagementView</text><path d="M196.5,37 L196.5,61 M196.5,49 L213.5,49 " fill="none" style="stroke:#181818;stroke-width:0.5;"/><ellipse cx="225.5" cy="49" fill="#E2E2F0" rx="12" ry="12" style="stroke:#181818;stroke-width:0.5;"/><text fill="#000000" font-family="sans-serif" font-size="14" lengthAdjust="spacing" textLength="109" x="336.5" y="77.9951">ChildController</text><ellipse cx="394" cy="49" fill="#E2E2F0" rx="12" ry="12" style="stroke:#181818;stroke-width:0.5;"/><polygon fill="#181818" points="390,37,396,32,394,37,396,42,390,37" style="stroke:#181818;stroke-width:1.0;"/><text fill="#000000" font-family="sans-serif" font-size="14" lengthAdjust="spacing" textLength="43" x="522.5" y="77.9951">CHILD</text><ellipse cx="547" cy="49" fill="#E2E2F0" rx="12" ry="12" style="stroke:#181818;stroke-width:0.5;"/><line style="stroke:#181818;stroke-width:0.5;" x1="535" x2="559" y1="63" y2="63"/><rect fill="#E2E2F0" height="30.2969" rx="2.5" ry="2.5" style="stroke:#181818;stroke-width:0.5;" width="112" x="581.5" y="50"/><text fill="#000000" font-family="sans-serif" font-size="14" lengthAdjust="spacing" textLength="98" x="588.5" y="69.9951">DoctorParent</text><rect fill="#FFFFFF" height="486.4375" style="stroke:#181818;stroke-width:1.0;" width="10" x="212" y="170.6953"/><rect fill="#FFFFFF" height="28" style="stroke:#181818;stroke-width:1.0;" width="10" x="217" y="207.8281"/><rect fill="#FFFFFF" height="58.2656" style="stroke:#181818;stroke-width:1.0;" width="10" x="389" y="112.4297"/><rect fill="#FFFFFF" height="29.1328" style="stroke:#181818;stroke-width:1.0;" width="10" x="542" y="112.4297"/><rect fill="#FFFFFF" height="384.1719" style="stroke:#181818;stroke-width:1.0;" width="10" x="632.5" y="271.9609"/><polygon fill="#181818" points="530,108.4297,540,112.4297,530,116.4297,534,112.4297" style="stroke:#181818;stroke-width:1.0;"/><line style="stroke:#181818;stroke-width:1.0;" x1="399" x2="536" y1="112.4297" y2="112.4297"/><text fill="#000000" font-family="sans-serif" font-size="13" font-weight="bold" lengthAdjust="spacing" textLength="9" x="406" y="107.3638">1</text><text fill="#000000" font-family="sans-serif" font-size="13" lengthAdjust="spacing" textLength="116" x="419" y="107.3638">Get list of children</text><polygon fill="#181818" points="410,137.5625,400,141.5625,410,145.5625,406,141.5625" style="stroke:#181818;stroke-width:1.0;"/><line style="stroke:#181818;stroke-width:1.0;stroke-dasharray:2.0,2.0;" x1="404" x2="546" y1="141.5625" y2="141.5625"/><text fill="#000000" font-family="sans-serif" font-size="13" font-weight="bold" lengthAdjust="spacing" textLength="9" x="416" y="136.4966">2</text><text fill="#000000" font-family="sans-serif" font-size="13" lengthAdjust="spacing" textLength="93" x="429" y="136.4966">List of children</text><polygon fill="#181818" points="233,166.6953,223,170.6953,233,174.6953,229,170.6953" style="stroke:#181818;stroke-width:1.0;"/><line style="stroke:#181818;stroke-width:1.0;stroke-dasharray:2.0,2.0;" x1="227" x2="393" y1="170.6953" y2="170.6953"/><text fill="#000000" font-family="sans-serif" font-size="13" font-weight="bold" lengthAdjust="spacing" textLength="8" x="239" y="165.6294">3</text><text fill="#000000" font-family="sans-serif" font-size="13" lengthAdjust="spacing" textLength="93" x="251" y="165.6294">List of children</text><line style="stroke:#181818;stroke-width:1.0;" x1="227" x2="269" y1="199.8281" y2="199.8281"/><line style="stroke:#181818;stroke-width:1.0;" x1="269" x2="269" y1="199.8281" y2="212.8281"/><line style="stroke:#181818;stroke-width:1.0;" x1="228" x2="269" y1="212.8281" y2="212.8281"/><polygon fill="#181818" points="238,208.8281,228,212.8281,238,216.8281,234,212.8281" style="stroke:#181818;stroke-width:1.0;"/><text fill="#000000" font-family="sans-serif" font-size="13" font-weight="bold" lengthAdjust="spacing" textLength="9" x="234" y="194.7622">4</text><text fill="#000000" font-family="sans-serif" font-size="13" lengthAdjust="spacing" textLength="140" x="247" y="194.7622">Display list of children</text><polygon fill="#181818" points="233,267.9609,223,271.9609,233,275.9609,229,271.9609" style="stroke:#181818;stroke-width:1.0;"/><line style="stroke:#181818;stroke-width:1.0;" x1="227" x2="631.5" y1="271.9609" y2="271.9609"/><text fill="#000000" font-family="sans-serif" font-size="13" font-weight="bold" lengthAdjust="spacing" textLength="9" x="239" y="266.895">5</text><text fill="#000000" font-family="sans-serif" font-size="13" lengthAdjust="spacing" textLength="104" x="252" y="266.895">Choose function</text><path d="M122,286.9609 L194,286.9609 L194,294.0938 L184,304.0938 L122,304.0938 L122,286.9609 " fill="#EEEEEE" style="stroke:#000000;stroke-width:1.5;"/><rect fill="none" height="61.2344" style="stroke:#000000;stroke-width:1.5;" width="581.5" x="122" y="286.9609"/><text fill="#000000" font-family="sans-serif" font-size="13" font-weight="bold" lengthAdjust="spacing" textLength="27" x="137" y="300.0278">opt</text><text fill="#000000" font-family="sans-serif" font-size="11" font-weight="bold" lengthAdjust="spacing" textLength="56" x="209" y="299.1714">[Create]</text><rect fill="none" height="39.1016" style="stroke:#000000;stroke-width:1.5;" width="567.5" x="129" y="304.0938"/><path d="M129,304.0938 L197,304.0938 L197,311.0938 L187,321.0938 L129,321.0938 L129,304.0938 " fill="#EEEEEE" style="stroke:#000000;stroke-width:2.0;"/><text fill="#000000" font-family="sans-serif" font-size="13" font-weight="bold" lengthAdjust="spacing" textLength="23" x="142" y="318.1606">ref</text><text fill="#000000" font-family="sans-serif" font-size="12" lengthAdjust="spacing" textLength="138" x="343.75" y="336.2324">Sequence Create Child</text><path d="M122,362.1953 L194,362.1953 L194,369.3281 L184,379.3281 L122,379.3281 L122,362.1953 " fill="#EEEEEE" style="stroke:#000000;stroke-width:1.5;"/><rect fill="none" height="61.2344" style="stroke:#000000;stroke-width:1.5;" width="581.5" x="122" y="362.1953"/><text fill="#000000" font-family="sans-serif" font-size="13" font-weight="bold" lengthAdjust="spacing" textLength="27" x="137" y="375.2622">opt</text><text fill="#000000" font-family="sans-serif" font-size="11" font-weight="bold" lengthAdjust="spacing" textLength="58" x="209" y="374.4058">[Update]</text><rect fill="none" height="39.1016" style="stroke:#000000;stroke-width:1.5;" width="567.5" x="129" y="379.3281"/><path d="M129,379.3281 L197,379.3281 L197,386.3281 L187,396.3281 L129,396.3281 L129,379.3281 " fill="#EEEEEE" style="stroke:#000000;stroke-width:2.0;"/><text fill="#000000" font-family="sans-serif" font-size="13" font-weight="bold" lengthAdjust="spacing" textLength="23" x="142" y="393.395">ref</text><text fill="#000000" font-family="sans-serif" font-size="12" lengthAdjust="spacing" textLength="142" x="341.75" y="411.4668">Sequence Update Child</text><path d="M122,437.4297 L194,437.4297 L194,444.5625 L184,454.5625 L122,454.5625 L122,437.4297 " fill="#EEEEEE" style="stroke:#000000;stroke-width:1.5;"/><rect fill="none" height="61.2344" style="stroke:#000000;stroke-width:1.5;" width="581.5" x="122" y="437.4297"/><text fill="#000000" font-family="sans-serif" font-size="13" font-weight="bold" lengthAdjust="spacing" textLength="27" x="137" y="450.4966">opt</text><text fill="#000000" font-family="sans-serif" font-size="11" font-weight="bold" lengthAdjust="spacing" textLength="54" x="209" y="449.6401">[Delete]</text><rect fill="none" height="39.1016" style="stroke:#000000;stroke-width:1.5;" width="567.5" x="129" y="454.5625"/><path d="M129,454.5625 L197,454.5625 L197,461.5625 L187,471.5625 L129,471.5625 L129,454.5625 " fill="#EEEEEE" style="stroke:#000000;stroke-width:2.0;"/><text fill="#000000" font-family="sans-serif" font-size="13" font-weight="bold" lengthAdjust="spacing" textLength="23" x="142" y="468.6294">ref</text><text fill="#000000" font-family="sans-serif" font-size="12" lengthAdjust="spacing" textLength="138" x="343.75" y="486.7012">Sequence Delete Child</text><path d="M122,512.6641 L194,512.6641 L194,519.7969 L184,529.7969 L122,529.7969 L122,512.6641 " fill="#EEEEEE" style="stroke:#000000;stroke-width:1.5;"/><rect fill="none" height="61.2344" style="stroke:#000000;stroke-width:1.5;" width="581.5" x="122" y="512.6641"/><text fill="#000000" font-family="sans-serif" font-size="13" font-weight="bold" lengthAdjust="spacing" textLength="27" x="137" y="525.731">opt</text><text fill="#000000" font-family="sans-serif" font-size="11" font-weight="bold" lengthAdjust="spacing" textLength="55" x="209" y="524.8745">[Search]</text><rect fill="none" height="39.1016" style="stroke:#000000;stroke-width:1.5;" width="567.5" x="129" y="529.7969"/><path d="M129,529.7969 L197,529.7969 L197,536.7969 L187,546.7969 L129,546.7969 L129,529.7969 " fill="#EEEEEE" style="stroke:#000000;stroke-width:2.0;"/><text fill="#000000" font-family="sans-serif" font-size="13" font-weight="bold" lengthAdjust="spacing" textLength="23" x="142" y="543.8638">ref</text><text fill="#000000" font-family="sans-serif" font-size="12" lengthAdjust="spacing" textLength="140" x="342.75" y="561.9355">Sequence Search Child</text><path d="M122,587.8984 L194,587.8984 L194,595.0313 L184,605.0313 L122,605.0313 L122,587.8984 " fill="#EEEEEE" style="stroke:#000000;stroke-width:1.5;"/><rect fill="none" height="61.2344" style="stroke:#000000;stroke-width:1.5;" width="581.5" x="122" y="587.8984"/><text fill="#000000" font-family="sans-serif" font-size="13" font-weight="bold" lengthAdjust="spacing" textLength="27" x="137" y="600.9653">opt</text><text fill="#000000" font-family="sans-serif" font-size="11" font-weight="bold" lengthAdjust="spacing" textLength="194" x="209" y="600.1089">[View Health Update History]</text><rect fill="none" height="39.1016" style="stroke:#000000;stroke-width:1.5;" width="567.5" x="129" y="605.0313"/><path d="M129,605.0313 L197,605.0313 L197,612.0313 L187,622.0313 L129,622.0313 L129,605.0313 " fill="#EEEEEE" style="stroke:#000000;stroke-width:2.0;"/><text fill="#000000" font-family="sans-serif" font-size="13" font-weight="bold" lengthAdjust="spacing" textLength="23" x="142" y="619.0981">ref</text><text fill="#000000" font-family="sans-serif" font-size="12" lengthAdjust="spacing" textLength="231" x="297.25" y="637.1699">Sequence View Health Update History</text><!--SRC=[jP8nRuCm48Lt_ufJPb3t35r0AfLIALBKxWQEOidnKMFIykzxuAA22ysIC23iTtxV-NYoSsIwSuvMrAf4g8XSJbz2oCAHXTrHMZGE7Y2bOMC7ieNMVtj9vDIPKjeUabhfyaKQ-Ovd5juKVeg2ZBEalPRuXMOMwyhnaUpva0eHg10_UcKFJ-X0gzO1LL0CLOmSMbCNwV2Fwwym-evlYEF1RbcvXqDeMc9uEcngibbUyOhLPeShmrhPWoregjf6o_xQS092s5aWp__h9ZcfYLeEIcVOYcR0HIe4DGuIYom8uCTY1NJXCSwheZL250ujci9mmeyEJO4_lhwEerHwscjJteNcVKDQYXhlGVE-8Us4qXRrxMdUDwIDoSjGQbTFjyyuPsJxstVm3sliPnRPEUuR]--></g></svg>