<?xml version="1.0" encoding="UTF-8" standalone="no"?><svg xmlns="http://www.w3.org/2000/svg" xmlns:xlink="http://www.w3.org/1999/xlink" contentStyleType="text/css" height="1239px" preserveAspectRatio="none" style="width:909px;height:1239px;background:#FFFFFF;" version="1.1" viewBox="0 0 909 1239" width="909px" zoomAndPan="magnify"><defs/><g><rect fill="#FFFFFF" height="473.7031" style="stroke:#181818;stroke-width:1.0;" width="10" x="66" y="210.1094"/><rect fill="#FFFFFF" height="990.7578" style="stroke:#181818;stroke-width:1.0;" width="10" x="201.5" y="210.1094"/><rect fill="#FFFFFF" height="832" style="stroke:#181818;stroke-width:1.0;" width="10" x="354.5" y="331.5156"/><rect fill="#FFFFFF" height="28" style="stroke:#181818;stroke-width:1.0;" width="10" x="359.5" y="369.8672"/><rect fill="#FFFFFF" height="28" style="stroke:#181818;stroke-width:1.0;" width="10" x="359.5" y="473.5703"/><rect fill="#FFFFFF" height="28" style="stroke:#181818;stroke-width:1.0;" width="10" x="359.5" y="602.625"/><rect fill="#FFFFFF" height="28" style="stroke:#181818;stroke-width:1.0;" width="10" x="359.5" y="942.2734"/><rect fill="#FFFFFF" height="91.0547" style="stroke:#181818;stroke-width:1.0;" width="10" x="562.5" y="240.4609"/><rect fill="#FFFFFF" height="486.7031" style="stroke:#181818;stroke-width:1.0;" width="10" x="562.5" y="714.1641"/><rect fill="#FFFFFF" height="30.3516" style="stroke:#181818;stroke-width:1.0;" width="10" x="774.5" y="270.8125"/><rect fill="#FFFFFF" height="352.2969" style="stroke:#181818;stroke-width:1.0;" width="10" x="774.5" y="744.5156"/><rect fill="#FFFFFF" height="28" style="stroke:#181818;stroke-width:1.0;" width="10" x="779.5" y="782.8672"/><rect fill="#FFFFFF" height="28" style="stroke:#181818;stroke-width:1.0;" width="10" x="779.5" y="1031.4609"/><rect fill="none" height="64.7969" style="stroke:#000000;stroke-width:1.5;" width="802.5" x="10" y="99.6094"/><rect fill="none" height="692.2969" style="stroke:#000000;stroke-width:1.5;" width="892.5" x="10" y="523.5703"/><rect fill="none" height="376" style="stroke:#000000;stroke-width:1.5;" width="764.5" x="122" y="832.8672"/><line style="stroke:#181818;stroke-width:0.5;stroke-dasharray:5.0,5.0;" x1="71" x2="71" y1="82.6094" y2="1232.8672"/><line style="stroke:#181818;stroke-width:0.5;stroke-dasharray:5.0,5.0;" x1="206" x2="206" y1="82.6094" y2="1232.8672"/><line style="stroke:#181818;stroke-width:0.5;stroke-dasharray:5.0,5.0;" x1="359" x2="359" y1="82.6094" y2="1232.8672"/><line style="stroke:#181818;stroke-width:0.5;stroke-dasharray:5.0,5.0;" x1="567.5" x2="567.5" y1="82.6094" y2="1232.8672"/><line style="stroke:#181818;stroke-width:0.5;stroke-dasharray:5.0,5.0;" x1="779.5" x2="779.5" y1="82.6094" y2="1232.8672"/><text fill="#000000" font-family="sans-serif" font-size="14" lengthAdjust="spacing" textLength="96" x="20" y="79.5332">Parent / Doctor</text><ellipse cx="71" cy="13.5" fill="#E2E2F0" rx="8" ry="8" style="stroke:#181818;stroke-width:0.5;"/><path d="M71,21.5 L71,48.5 M58,29.5 L84,29.5 M71,48.5 L58,63.5 M71,48.5 L84,63.5 " fill="none" style="stroke:#181818;stroke-width:0.5;"/><text fill="#000000" font-family="sans-serif" font-size="14" lengthAdjust="spacing" textLength="143" x="132" y="79.5332">ChildManagementView</text><path d="M186,37 L186,61 M186,49 L203,49 " fill="none" style="stroke:#181818;stroke-width:0.5;"/><ellipse cx="215" cy="49" fill="#E2E2F0" rx="12" ry="12" style="stroke:#181818;stroke-width:0.5;"/><text fill="#000000" font-family="sans-serif" font-size="14" lengthAdjust="spacing" textLength="131" x="291" y="79.5332">ChildInformationView</text><path d="M339,37 L339,61 M339,49 L356,49 " fill="none" style="stroke:#181818;stroke-width:0.5;"/><ellipse cx="368" cy="49" fill="#E2E2F0" rx="12" ry="12" style="stroke:#181818;stroke-width:0.5;"/><text fill="#000000" font-family="sans-serif" font-size="14" lengthAdjust="spacing" textLength="94" x="517.5" y="79.5332">ChildController</text><ellipse cx="567.5" cy="49" fill="#E2E2F0" rx="12" ry="12" style="stroke:#181818;stroke-width:0.5;"/><polygon fill="#181818" points="563.5,37,569.5,32,567.5,37,569.5,42,563.5,37" style="stroke:#181818;stroke-width:1.0;"/><text fill="#000000" font-family="sans-serif" font-size="14" lengthAdjust="spacing" textLength="40" x="756.5" y="79.5332">CHILD</text><ellipse cx="779.5" cy="49" fill="#E2E2F0" rx="12" ry="12" style="stroke:#181818;stroke-width:0.5;"/><line style="stroke:#181818;stroke-width:0.5;" x1="767.5" x2="791.5" y1="63" y2="63"/><rect fill="#FFFFFF" height="473.7031" style="stroke:#181818;stroke-width:1.0;" width="10" x="66" y="210.1094"/><rect fill="#FFFFFF" height="990.7578" style="stroke:#181818;stroke-width:1.0;" width="10" x="201.5" y="210.1094"/><rect fill="#FFFFFF" height="832" style="stroke:#181818;stroke-width:1.0;" width="10" x="354.5" y="331.5156"/><rect fill="#FFFFFF" height="28" style="stroke:#181818;stroke-width:1.0;" width="10" x="359.5" y="369.8672"/><rect fill="#FFFFFF" height="28" style="stroke:#181818;stroke-width:1.0;" width="10" x="359.5" y="473.5703"/><rect fill="#FFFFFF" height="28" style="stroke:#181818;stroke-width:1.0;" width="10" x="359.5" y="602.625"/><rect fill="#FFFFFF" height="28" style="stroke:#181818;stroke-width:1.0;" width="10" x="359.5" y="942.2734"/><rect fill="#FFFFFF" height="91.0547" style="stroke:#181818;stroke-width:1.0;" width="10" x="562.5" y="240.4609"/><rect fill="#FFFFFF" height="486.7031" style="stroke:#181818;stroke-width:1.0;" width="10" x="562.5" y="714.1641"/><rect fill="#FFFFFF" height="30.3516" style="stroke:#181818;stroke-width:1.0;" width="10" x="774.5" y="270.8125"/><rect fill="#FFFFFF" height="352.2969" style="stroke:#181818;stroke-width:1.0;" width="10" x="774.5" y="744.5156"/><rect fill="#FFFFFF" height="28" style="stroke:#181818;stroke-width:1.0;" width="10" x="779.5" y="782.8672"/><rect fill="#FFFFFF" height="28" style="stroke:#181818;stroke-width:1.0;" width="10" x="779.5" y="1031.4609"/><path d="M10,99.6094 L75,99.6094 L75,107.9609 L65,117.9609 L10,117.9609 L10,99.6094 " fill="#EEEEEE" style="stroke:#000000;stroke-width:1.5;"/><rect fill="none" height="64.7969" style="stroke:#000000;stroke-width:1.5;" width="802.5" x="10" y="99.6094"/><text fill="#000000" font-family="sans-serif" font-size="13" font-weight="bold" lengthAdjust="spacing" textLength="20" x="25" y="114.1045">opt</text><text fill="#000000" font-family="sans-serif" font-size="11" font-weight="bold" lengthAdjust="spacing" textLength="46" x="90" y="113.0283">[Search]</text><rect fill="none" height="41.4453" style="stroke:#000000;stroke-width:1.5;" width="788.5" x="17" y="117.9609"/><path d="M17,117.9609 L79,117.9609 L79,125.9609 L69,135.9609 L17,135.9609 L17,117.9609 " fill="#EEEEEE" style="stroke:#000000;stroke-width:2.0;"/><text fill="#000000" font-family="sans-serif" font-size="13" font-weight="bold" lengthAdjust="spacing" textLength="17" x="30" y="133.4561">ref</text><text fill="#000000" font-family="sans-serif" font-size="12" lengthAdjust="spacing" textLength="130" x="346.25" y="152.418">Sequence Search Child</text><polygon fill="#181818" points="189.5,206.1094,199.5,210.1094,189.5,214.1094,193.5,210.1094" style="stroke:#181818;stroke-width:1.0;"/><line style="stroke:#181818;stroke-width:1.0;" x1="76" x2="195.5" y1="210.1094" y2="210.1094"/><text fill="#000000" font-family="sans-serif" font-size="13" font-weight="bold" lengthAdjust="spacing" textLength="7" x="83" y="197.0771">1</text><text fill="#000000" font-family="sans-serif" font-size="13" lengthAdjust="spacing" textLength="68" x="94" y="188.9014">Select child</text><text fill="#000000" font-family="sans-serif" font-size="13" lengthAdjust="spacing" textLength="88" x="98" y="205.2529">needs updating</text><polygon fill="#181818" points="550.5,236.4609,560.5,240.4609,550.5,244.4609,554.5,240.4609" style="stroke:#181818;stroke-width:1.0;"/><line style="stroke:#181818;stroke-width:1.0;" x1="211.5" x2="556.5" y1="240.4609" y2="240.4609"/><text fill="#000000" font-family="sans-serif" font-size="13" font-weight="bold" lengthAdjust="spacing" textLength="7" x="218.5" y="235.6045">2</text><text fill="#000000" font-family="sans-serif" font-size="13" lengthAdjust="spacing" textLength="172" x="229.5" y="235.6045">Get selected child information</text><polygon fill="#181818" points="762.5,266.8125,772.5,270.8125,762.5,274.8125,766.5,270.8125" style="stroke:#181818;stroke-width:1.0;"/><line style="stroke:#181818;stroke-width:1.0;" x1="572.5" x2="768.5" y1="270.8125" y2="270.8125"/><text fill="#000000" font-family="sans-serif" font-size="13" font-weight="bold" lengthAdjust="spacing" textLength="7" x="579.5" y="265.9561">3</text><text fill="#000000" font-family="sans-serif" font-size="13" lengthAdjust="spacing" textLength="172" x="590.5" y="265.9561">Get selected child information</text><polygon fill="#181818" points="583.5,297.1641,573.5,301.1641,583.5,305.1641,579.5,301.1641" style="stroke:#181818;stroke-width:1.0;"/><line style="stroke:#181818;stroke-width:1.0;stroke-dasharray:2.0,2.0;" x1="577.5" x2="778.5" y1="301.1641" y2="301.1641"/><text fill="#000000" font-family="sans-serif" font-size="13" font-weight="bold" lengthAdjust="spacing" textLength="7" x="589.5" y="296.3076">4</text><text fill="#000000" font-family="sans-serif" font-size="13" lengthAdjust="spacing" textLength="149" x="600.5" y="296.3076">Selected child information</text><polygon fill="#181818" points="375.5,327.5156,365.5,331.5156,375.5,335.5156,371.5,331.5156" style="stroke:#181818;stroke-width:1.0;"/><line style="stroke:#181818;stroke-width:1.0;stroke-dasharray:2.0,2.0;" x1="369.5" x2="566.5" y1="331.5156" y2="331.5156"/><text fill="#000000" font-family="sans-serif" font-size="13" font-weight="bold" lengthAdjust="spacing" textLength="7" x="381.5" y="326.6592">5</text><text fill="#000000" font-family="sans-serif" font-size="13" lengthAdjust="spacing" textLength="149" x="392.5" y="326.6592">Selected child information</text><line style="stroke:#181818;stroke-width:1.0;" x1="369.5" x2="411.5" y1="361.8672" y2="361.8672"/><line style="stroke:#181818;stroke-width:1.0;" x1="411.5" x2="411.5" y1="361.8672" y2="374.8672"/><line style="stroke:#181818;stroke-width:1.0;" x1="370.5" x2="411.5" y1="374.8672" y2="374.8672"/><polygon fill="#181818" points="380.5,370.8672,370.5,374.8672,380.5,378.8672,376.5,374.8672" style="stroke:#181818;stroke-width:1.0;"/><text fill="#000000" font-family="sans-serif" font-size="13" font-weight="bold" lengthAdjust="spacing" textLength="7" x="376.5" y="357.0107">6</text><text fill="#000000" font-family="sans-serif" font-size="13" lengthAdjust="spacing" textLength="141" x="387.5" y="357.0107">Display child information</text><polygon fill="#181818" points="342.5,431.2188,352.5,435.2188,342.5,439.2188,346.5,435.2188" style="stroke:#181818;stroke-width:1.0;"/><line style="stroke:#181818;stroke-width:1.0;" x1="76" x2="348.5" y1="435.2188" y2="435.2188"/><text fill="#000000" font-family="sans-serif" font-size="13" font-weight="bold" lengthAdjust="spacing" textLength="7" x="83" y="430.3623">7</text><text fill="#000000" font-family="sans-serif" font-size="13" lengthAdjust="spacing" textLength="129" x="94" y="430.3623">Enter child information</text><line style="stroke:#181818;stroke-width:1.0;" x1="369.5" x2="411.5" y1="465.5703" y2="465.5703"/><line style="stroke:#181818;stroke-width:1.0;" x1="411.5" x2="411.5" y1="465.5703" y2="478.5703"/><line style="stroke:#181818;stroke-width:1.0;" x1="370.5" x2="411.5" y1="478.5703" y2="478.5703"/><polygon fill="#181818" points="380.5,474.5703,370.5,478.5703,380.5,482.5703,376.5,478.5703" style="stroke:#181818;stroke-width:1.0;"/><text fill="#000000" font-family="sans-serif" font-size="13" font-weight="bold" lengthAdjust="spacing" textLength="7" x="376.5" y="460.7139">8</text><text fill="#000000" font-family="sans-serif" font-size="13" lengthAdjust="spacing" textLength="76" x="387.5" y="460.7139">Validate data</text><path d="M10,523.5703 L71,523.5703 L71,531.9219 L61,541.9219 L10,541.9219 L10,523.5703 " fill="#EEEEEE" style="stroke:#000000;stroke-width:1.5;"/><rect fill="none" height="692.2969" style="stroke:#000000;stroke-width:1.5;" width="892.5" x="10" y="523.5703"/><text fill="#000000" font-family="sans-serif" font-size="13" font-weight="bold" lengthAdjust="spacing" textLength="16" x="25" y="538.0654">alt</text><text fill="#000000" font-family="sans-serif" font-size="11" font-weight="bold" lengthAdjust="spacing" textLength="69" x="86" y="536.9893">[Invalid data]</text><polygon fill="#181818" points="87,560.2734,77,564.2734,87,568.2734,83,564.2734" style="stroke:#181818;stroke-width:1.0;"/><line style="stroke:#181818;stroke-width:1.0;stroke-dasharray:2.0,2.0;" x1="81" x2="353.5" y1="564.2734" y2="564.2734"/><text fill="#000000" font-family="sans-serif" font-size="13" font-weight="bold" lengthAdjust="spacing" textLength="7" x="93" y="559.417">9</text><text fill="#000000" font-family="sans-serif" font-size="13" lengthAdjust="spacing" textLength="94" x="104" y="559.417">Error notification</text><line style="stroke:#181818;stroke-width:1.0;" x1="369.5" x2="411.5" y1="594.625" y2="594.625"/><line style="stroke:#181818;stroke-width:1.0;" x1="411.5" x2="411.5" y1="594.625" y2="607.625"/><line style="stroke:#181818;stroke-width:1.0;" x1="370.5" x2="411.5" y1="607.625" y2="607.625"/><polygon fill="#181818" points="380.5,603.625,370.5,607.625,380.5,611.625,376.5,607.625" style="stroke:#181818;stroke-width:1.0;"/><text fill="#000000" font-family="sans-serif" font-size="13" font-weight="bold" lengthAdjust="spacing" textLength="14" x="376.5" y="589.7686">10</text><text fill="#000000" font-family="sans-serif" font-size="13" lengthAdjust="spacing" textLength="139" x="394.5" y="589.7686">Display error notification</text><line style="stroke:#000000;stroke-width:1.0;stroke-dasharray:2.0,2.0;" x1="10" x2="902.5" y1="646.625" y2="646.625"/><text fill="#000000" font-family="sans-serif" font-size="11" font-weight="bold" lengthAdjust="spacing" textLength="61" x="15" y="658.0439">[Valid data]</text><polygon fill="#181818" points="342.5,679.8125,352.5,683.8125,342.5,687.8125,346.5,683.8125" style="stroke:#181818;stroke-width:1.0;"/><line style="stroke:#181818;stroke-width:1.0;" x1="71" x2="348.5" y1="683.8125" y2="683.8125"/><text fill="#000000" font-family="sans-serif" font-size="13" font-weight="bold" lengthAdjust="spacing" textLength="14" x="78" y="678.9561">11</text><text fill="#000000" font-family="sans-serif" font-size="13" lengthAdjust="spacing" textLength="172" x="96" y="678.9561">Click button "Save" to confirm</text><polygon fill="#181818" points="550.5,710.1641,560.5,714.1641,550.5,718.1641,554.5,714.1641" style="stroke:#181818;stroke-width:1.0;"/><line style="stroke:#181818;stroke-width:1.0;" x1="364.5" x2="556.5" y1="714.1641" y2="714.1641"/><text fill="#000000" font-family="sans-serif" font-size="13" font-weight="bold" lengthAdjust="spacing" textLength="14" x="371.5" y="709.3076">12</text><text fill="#000000" font-family="sans-serif" font-size="13" lengthAdjust="spacing" textLength="161" x="389.5" y="709.3076">Send updating child request</text><polygon fill="#181818" points="762.5,740.5156,772.5,744.5156,762.5,748.5156,766.5,744.5156" style="stroke:#181818;stroke-width:1.0;"/><line style="stroke:#181818;stroke-width:1.0;" x1="572.5" x2="768.5" y1="744.5156" y2="744.5156"/><text fill="#000000" font-family="sans-serif" font-size="13" font-weight="bold" lengthAdjust="spacing" textLength="14" x="579.5" y="739.6592">13</text><text fill="#000000" font-family="sans-serif" font-size="13" lengthAdjust="spacing" textLength="97" x="597.5" y="739.6592">Send information</text><line style="stroke:#181818;stroke-width:1.0;" x1="789.5" x2="831.5" y1="774.8672" y2="774.8672"/><line style="stroke:#181818;stroke-width:1.0;" x1="831.5" x2="831.5" y1="774.8672" y2="787.8672"/><line style="stroke:#181818;stroke-width:1.0;" x1="790.5" x2="831.5" y1="787.8672" y2="787.8672"/><polygon fill="#181818" points="800.5,783.8672,790.5,787.8672,800.5,791.8672,796.5,787.8672" style="stroke:#181818;stroke-width:1.0;"/><text fill="#000000" font-family="sans-serif" font-size="13" font-weight="bold" lengthAdjust="spacing" textLength="14" x="796.5" y="770.0107">14</text><text fill="#000000" font-family="sans-serif" font-size="13" lengthAdjust="spacing" textLength="76" x="814.5" y="770.0107">Validate data</text><path d="M122,832.8672 L183,832.8672 L183,841.2188 L173,851.2188 L122,851.2188 L122,832.8672 " fill="#EEEEEE" style="stroke:#000000;stroke-width:1.5;"/><rect fill="none" height="376" style="stroke:#000000;stroke-width:1.5;" width="764.5" x="122" y="832.8672"/><text fill="#000000" font-family="sans-serif" font-size="13" font-weight="bold" lengthAdjust="spacing" textLength="16" x="137" y="847.3623">alt</text><text fill="#000000" font-family="sans-serif" font-size="11" font-weight="bold" lengthAdjust="spacing" textLength="69" x="198" y="846.2861">[Invalid data]</text><polygon fill="#181818" points="583.5,869.5703,573.5,873.5703,583.5,877.5703,579.5,873.5703" style="stroke:#181818;stroke-width:1.0;"/><line style="stroke:#181818;stroke-width:1.0;stroke-dasharray:2.0,2.0;" x1="577.5" x2="773.5" y1="873.5703" y2="873.5703"/><text fill="#000000" font-family="sans-serif" font-size="13" font-weight="bold" lengthAdjust="spacing" textLength="14" x="589.5" y="868.7139">15</text><text fill="#000000" font-family="sans-serif" font-size="13" lengthAdjust="spacing" textLength="94" x="607.5" y="868.7139">Error notification</text><polygon fill="#181818" points="375.5,899.9219,365.5,903.9219,375.5,907.9219,371.5,903.9219" style="stroke:#181818;stroke-width:1.0;"/><line style="stroke:#181818;stroke-width:1.0;stroke-dasharray:2.0,2.0;" x1="369.5" x2="561.5" y1="903.9219" y2="903.9219"/><text fill="#000000" font-family="sans-serif" font-size="13" font-weight="bold" lengthAdjust="spacing" textLength="14" x="381.5" y="899.0654">16</text><text fill="#000000" font-family="sans-serif" font-size="13" lengthAdjust="spacing" textLength="94" x="399.5" y="899.0654">Error notification</text><line style="stroke:#181818;stroke-width:1.0;" x1="369.5" x2="411.5" y1="934.2734" y2="934.2734"/><line style="stroke:#181818;stroke-width:1.0;" x1="411.5" x2="411.5" y1="934.2734" y2="947.2734"/><line style="stroke:#181818;stroke-width:1.0;" x1="370.5" x2="411.5" y1="947.2734" y2="947.2734"/><polygon fill="#181818" points="380.5,943.2734,370.5,947.2734,380.5,951.2734,376.5,947.2734" style="stroke:#181818;stroke-width:1.0;"/><text fill="#000000" font-family="sans-serif" font-size="13" font-weight="bold" lengthAdjust="spacing" textLength="14" x="376.5" y="929.417">17</text><text fill="#000000" font-family="sans-serif" font-size="13" lengthAdjust="spacing" textLength="139" x="394.5" y="929.417">Display error notification</text><line style="stroke:#000000;stroke-width:1.0;stroke-dasharray:2.0,2.0;" x1="122" x2="886.5" y1="986.2734" y2="986.2734"/><text fill="#000000" font-family="sans-serif" font-size="11" font-weight="bold" lengthAdjust="spacing" textLength="61" x="127" y="997.6924">[Valid data]</text><line style="stroke:#181818;stroke-width:1.0;" x1="789.5" x2="831.5" y1="1023.4609" y2="1023.4609"/><line style="stroke:#181818;stroke-width:1.0;" x1="831.5" x2="831.5" y1="1023.4609" y2="1036.4609"/><line style="stroke:#181818;stroke-width:1.0;" x1="790.5" x2="831.5" y1="1036.4609" y2="1036.4609"/><polygon fill="#181818" points="800.5,1032.4609,790.5,1036.4609,800.5,1040.4609,796.5,1036.4609" style="stroke:#181818;stroke-width:1.0;"/><text fill="#000000" font-family="sans-serif" font-size="13" font-weight="bold" lengthAdjust="spacing" textLength="14" x="796.5" y="1018.6045">18</text><text fill="#000000" font-family="sans-serif" font-size="13" lengthAdjust="spacing" textLength="60" x="814.5" y="1018.6045">Store data</text><polygon fill="#181818" points="583.5,1092.8125,573.5,1096.8125,583.5,1100.8125,579.5,1096.8125" style="stroke:#181818;stroke-width:1.0;"/><line style="stroke:#181818;stroke-width:1.0;stroke-dasharray:2.0,2.0;" x1="577.5" x2="778.5" y1="1096.8125" y2="1096.8125"/><text fill="#000000" font-family="sans-serif" font-size="13" font-weight="bold" lengthAdjust="spacing" textLength="14" x="589.5" y="1091.9561">19</text><text fill="#000000" font-family="sans-serif" font-size="13" lengthAdjust="spacing" textLength="117" x="607.5" y="1091.9561">Success notification</text><polygon fill="#181818" points="375.5,1123.1641,365.5,1127.1641,375.5,1131.1641,371.5,1127.1641" style="stroke:#181818;stroke-width:1.0;"/><line style="stroke:#181818;stroke-width:1.0;stroke-dasharray:2.0,2.0;" x1="369.5" x2="561.5" y1="1127.1641" y2="1127.1641"/><text fill="#000000" font-family="sans-serif" font-size="13" font-weight="bold" lengthAdjust="spacing" textLength="14" x="381.5" y="1122.3076">20</text><text fill="#000000" font-family="sans-serif" font-size="13" lengthAdjust="spacing" textLength="117" x="399.5" y="1122.3076">Success notification</text><line style="stroke:#181818;stroke-width:1.0;" x1="364.5" x2="406.5" y1="1162.5156" y2="1162.5156"/><line style="stroke:#181818;stroke-width:1.0;" x1="406.5" x2="406.5" y1="1162.5156" y2="1175.5156"/><line style="stroke:#181818;stroke-width:1.0;" x1="359.5" x2="406.5" y1="1175.5156" y2="1175.5156"/><polygon fill="#181818" points="369.5,1171.5156,359.5,1175.5156,369.5,1179.5156,365.5,1175.5156" style="stroke:#181818;stroke-width:1.0;"/><text fill="#000000" font-family="sans-serif" font-size="13" font-weight="bold" lengthAdjust="spacing" textLength="14" x="371.5" y="1157.6592">21</text><text fill="#000000" font-family="sans-serif" font-size="13" lengthAdjust="spacing" textLength="61" x="389.5" y="1157.6592">Close view</text><polygon fill="#181818" points="217.5,1196.8672,207.5,1200.8672,217.5,1204.8672,213.5,1200.8672" style="stroke:#181818;stroke-width:1.0;"/><line style="stroke:#181818;stroke-width:1.0;" x1="211.5" x2="566.5" y1="1200.8672" y2="1200.8672"/><text fill="#000000" font-family="sans-serif" font-size="13" font-weight="bold" lengthAdjust="spacing" textLength="14" x="223.5" y="1196.0107">22</text><text fill="#000000" font-family="sans-serif" font-size="13" lengthAdjust="spacing" textLength="271" x="241.5" y="1196.0107">Display success notification and list of children</text><!--MD5=[82682661989936e096440c8b80926ad7]
@startuml UpdateChildSeq
autonumber
hide footbox

actor "Parent / Doctor" as ParentDoctor
boundary ChildManagementView
boundary ChildInformationView
control ChildController
entity CHILD

opt Search
ref over ParentDoctor, ChildManagementView, ChildInformationView, ChildController, CHILD: Sequence Search Child
end 

ParentDoctor -> ChildManagementView: Select child\n needs updating
activate ParentDoctor
activate ChildManagementView
ChildManagementView -> ChildController: Get selected child information
activate ChildController
ChildController -> CHILD: Get selected child information
activate CHILD
CHILD - -> ChildController: Selected child information
deactivate CHILD
ChildController - -> ChildInformationView: Selected child information
deactivate ChildController
activate ChildInformationView
ChildInformationView -> ChildInformationView: Display child information
activate ChildInformationView
deactivate ChildInformationView
ParentDoctor -> ChildInformationView: Enter child information  
ChildInformationView -> ChildInformationView: Validate data
activate ChildInformationView
deactivate ChildInformationView
alt Invalid data
    ChildInformationView - -> ParentDoctor: Error notification
    ChildInformationView -> ChildInformationView: Display error notification
    activate ChildInformationView
    deactivate ChildInformationView
else Valid data
    ParentDoctor -> ChildInformationView: Click button "Save" to confirm
    deactivate ParentDoctor
    ChildInformationView -> ChildController: Send updating child request
    activate ChildController
    ChildController -> CHILD: Send information
    activate CHILD
    CHILD -> CHILD: Validate data
    activate CHILD
    deactivate CHILD
    alt Invalid data
        CHILD - -> ChildController: Error notification
        ChildController - -> ChildInformationView: Error notification
        ChildInformationView -> ChildInformationView: Display error notification
        activate ChildInformationView
        deactivate ChildInformationView
    else Valid data
        CHILD -> CHILD: Store data
        activate CHILD
        deactivate CHILD
        CHILD - -> ChildController: Success notification
        deactivate CHILD
        ChildController - -> ChildInformationView: Success notification
        ChildInformationView -> ChildInformationView: Close view
        deactivate ChildInformationView
        ChildController -> ChildManagementView: Display success notification and list of children
        deactivate ChildManagementView
        deactivate ChildController
    end
end
@enduml

PlantUML version 1.2022.7(Tue Aug 23 00:01:30 ICT 2022)
(GPL source distribution)
Java Runtime: Java(TM) SE Runtime Environment
JVM: Java HotSpot(TM) 64-Bit Server VM
Default Encoding: Cp1252
Language: en
Country: US
--></g></svg>