<?xml version="1.0" encoding="UTF-8" standalone="no"?><svg xmlns="http://www.w3.org/2000/svg" xmlns:xlink="http://www.w3.org/1999/xlink" contentStyleType="text/css" height="736px" preserveAspectRatio="none" style="width:970px;height:736px;background:#FFFFFF;" version="1.1" viewBox="0 0 970 736" width="970px" zoomAndPan="magnify"><defs/><g><rect fill="#FFFFFF" height="290.5156" style="stroke:#181818;stroke-width:1.0;" width="10" x="66" y="193.7578"/><rect fill="#FFFFFF" height="199.4609" style="stroke:#181818;stroke-width:1.0;" width="10" x="189" y="315.1641"/><rect fill="#FFFFFF" height="28" style="stroke:#181818;stroke-width:1.0;" width="10" x="194" y="386.2188"/><rect fill="#FFFFFF" height="30.3516" style="stroke:#181818;stroke-width:1.0;" width="10" x="335" y="193.7578"/><rect fill="#FFFFFF" height="82.7031" style="stroke:#181818;stroke-width:1.0;" width="10" x="456" y="622.0313"/><rect fill="#FFFFFF" height="28" style="stroke:#181818;stroke-width:1.0;" width="10" x="461" y="676.7344"/><rect fill="#FFFFFF" height="91.0547" style="stroke:#181818;stroke-width:1.0;" width="10" x="649" y="224.1094"/><rect fill="#FFFFFF" height="107.4063" style="stroke:#181818;stroke-width:1.0;" width="10" x="649" y="514.625"/><rect fill="#FFFFFF" height="30.3516" style="stroke:#181818;stroke-width:1.0;" width="10" x="834" y="561.3281"/><rect fill="#FFFFFF" height="30.3516" style="stroke:#181818;stroke-width:1.0;" width="10" x="926.5" y="254.4609"/><rect fill="none" height="64.7969" style="stroke:#000000;stroke-width:1.5;" width="954.5" x="10" y="99.6094"/><line style="stroke:#181818;stroke-width:0.5;stroke-dasharray:5.0,5.0;" x1="71" x2="71" y1="82.6094" y2="729.7344"/><line style="stroke:#181818;stroke-width:0.5;stroke-dasharray:5.0,5.0;" x1="194" x2="194" y1="82.6094" y2="729.7344"/><line style="stroke:#181818;stroke-width:0.5;stroke-dasharray:5.0,5.0;" x1="339.5" x2="339.5" y1="82.6094" y2="729.7344"/><line style="stroke:#181818;stroke-width:0.5;stroke-dasharray:5.0,5.0;" x1="460.5" x2="460.5" y1="82.6094" y2="729.7344"/><line style="stroke:#181818;stroke-width:0.5;stroke-dasharray:5.0,5.0;" x1="654" x2="654" y1="82.6094" y2="729.7344"/><line style="stroke:#181818;stroke-width:0.5;stroke-dasharray:5.0,5.0;" x1="838.5" x2="838.5" y1="82.6094" y2="729.7344"/><line style="stroke:#181818;stroke-width:0.5;stroke-dasharray:5.0,5.0;" x1="931.5" x2="931.5" y1="82.6094" y2="729.7344"/><text fill="#000000" font-family="sans-serif" font-size="14" lengthAdjust="spacing" textLength="96" x="20" y="79.5332">Parent / Doctor</text><ellipse cx="71" cy="13.5" fill="#E2E2F0" rx="8" ry="8" style="stroke:#181818;stroke-width:0.5;"/><path d="M71,21.5 L71,48.5 M58,29.5 L84,29.5 M71,48.5 L58,63.5 M71,48.5 L84,63.5 " fill="none" style="stroke:#181818;stroke-width:0.5;"/><text fill="#000000" font-family="sans-serif" font-size="14" lengthAdjust="spacing" textLength="32" x="175" y="61.9238">Child</text><text fill="#000000" font-family="sans-serif" font-size="14" lengthAdjust="spacing" textLength="72" x="155" y="79.5332">HistoryView</text><path d="M173.5,19.3906 L173.5,43.3906 M173.5,31.3906 L190.5,31.3906 " fill="none" style="stroke:#181818;stroke-width:0.5;"/><ellipse cx="202.5" cy="31.3906" fill="#E2E2F0" rx="12" ry="12" style="stroke:#181818;stroke-width:0.5;"/><text fill="#000000" font-family="sans-serif" font-size="14" lengthAdjust="spacing" textLength="32" x="321" y="61.9238">Child</text><text fill="#000000" font-family="sans-serif" font-size="14" lengthAdjust="spacing" textLength="111" x="281.5" y="79.5332">ManagementView</text><path d="M319.5,19.3906 L319.5,43.3906 M319.5,31.3906 L336.5,31.3906 " fill="none" style="stroke:#181818;stroke-width:0.5;"/><ellipse cx="348.5" cy="31.3906" fill="#E2E2F0" rx="12" ry="12" style="stroke:#181818;stroke-width:0.5;"/><text fill="#000000" font-family="sans-serif" font-size="14" lengthAdjust="spacing" textLength="32" x="442" y="61.9238">Child</text><text fill="#000000" font-family="sans-serif" font-size="14" lengthAdjust="spacing" textLength="99" x="408.5" y="79.5332">InformationView</text><path d="M440.5,19.3906 L440.5,43.3906 M440.5,31.3906 L457.5,31.3906 " fill="none" style="stroke:#181818;stroke-width:0.5;"/><ellipse cx="469.5" cy="31.3906" fill="#E2E2F0" rx="12" ry="12" style="stroke:#181818;stroke-width:0.5;"/><text fill="#000000" font-family="sans-serif" font-size="14" lengthAdjust="spacing" textLength="94" x="604" y="79.5332">ChildController</text><ellipse cx="654" cy="49" fill="#E2E2F0" rx="12" ry="12" style="stroke:#181818;stroke-width:0.5;"/><polygon fill="#181818" points="650,37,656,32,654,37,656,42,650,37" style="stroke:#181818;stroke-width:1.0;"/><text fill="#000000" font-family="sans-serif" font-size="14" lengthAdjust="spacing" textLength="113" x="779.5" y="79.5332">HEALTHHISTORY</text><ellipse cx="839" cy="49" fill="#E2E2F0" rx="12" ry="12" style="stroke:#181818;stroke-width:0.5;"/><line style="stroke:#181818;stroke-width:0.5;" x1="827" x2="851" y1="63" y2="63"/><text fill="#000000" font-family="sans-serif" font-size="14" lengthAdjust="spacing" textLength="40" x="908.5" y="79.5332">CHILD</text><ellipse cx="931.5" cy="49" fill="#E2E2F0" rx="12" ry="12" style="stroke:#181818;stroke-width:0.5;"/><line style="stroke:#181818;stroke-width:0.5;" x1="919.5" x2="943.5" y1="63" y2="63"/><rect fill="#FFFFFF" height="290.5156" style="stroke:#181818;stroke-width:1.0;" width="10" x="66" y="193.7578"/><rect fill="#FFFFFF" height="199.4609" style="stroke:#181818;stroke-width:1.0;" width="10" x="189" y="315.1641"/><rect fill="#FFFFFF" height="28" style="stroke:#181818;stroke-width:1.0;" width="10" x="194" y="386.2188"/><rect fill="#FFFFFF" height="30.3516" style="stroke:#181818;stroke-width:1.0;" width="10" x="335" y="193.7578"/><rect fill="#FFFFFF" height="82.7031" style="stroke:#181818;stroke-width:1.0;" width="10" x="456" y="622.0313"/><rect fill="#FFFFFF" height="28" style="stroke:#181818;stroke-width:1.0;" width="10" x="461" y="676.7344"/><rect fill="#FFFFFF" height="91.0547" style="stroke:#181818;stroke-width:1.0;" width="10" x="649" y="224.1094"/><rect fill="#FFFFFF" height="107.4063" style="stroke:#181818;stroke-width:1.0;" width="10" x="649" y="514.625"/><rect fill="#FFFFFF" height="30.3516" style="stroke:#181818;stroke-width:1.0;" width="10" x="834" y="561.3281"/><rect fill="#FFFFFF" height="30.3516" style="stroke:#181818;stroke-width:1.0;" width="10" x="926.5" y="254.4609"/><path d="M10,99.6094 L75,99.6094 L75,107.9609 L65,117.9609 L10,117.9609 L10,99.6094 " fill="#EEEEEE" style="stroke:#000000;stroke-width:1.5;"/><rect fill="none" height="64.7969" style="stroke:#000000;stroke-width:1.5;" width="954.5" x="10" y="99.6094"/><text fill="#000000" font-family="sans-serif" font-size="13" font-weight="bold" lengthAdjust="spacing" textLength="20" x="25" y="114.1045">opt</text><text fill="#000000" font-family="sans-serif" font-size="11" font-weight="bold" lengthAdjust="spacing" textLength="46" x="90" y="113.0283">[Search]</text><rect fill="none" height="41.4453" style="stroke:#000000;stroke-width:1.5;" width="940.5" x="17" y="117.9609"/><path d="M17,117.9609 L79,117.9609 L79,125.9609 L69,135.9609 L17,135.9609 L17,117.9609 " fill="#EEEEEE" style="stroke:#000000;stroke-width:2.0;"/><text fill="#000000" font-family="sans-serif" font-size="13" font-weight="bold" lengthAdjust="spacing" textLength="17" x="30" y="133.4561">ref</text><text fill="#000000" font-family="sans-serif" font-size="12" lengthAdjust="spacing" textLength="130" x="422.25" y="152.418">Sequence Search Child</text><polygon fill="#181818" points="323,189.7578,333,193.7578,323,197.7578,327,193.7578" style="stroke:#181818;stroke-width:1.0;"/><line style="stroke:#181818;stroke-width:1.0;" x1="76" x2="329" y1="193.7578" y2="193.7578"/><text fill="#000000" font-family="sans-serif" font-size="13" font-weight="bold" lengthAdjust="spacing" textLength="7" x="83" y="188.9014">1</text><text fill="#000000" font-family="sans-serif" font-size="13" lengthAdjust="spacing" textLength="234" x="94" y="188.9014">Select child needs viewing health history</text><polygon fill="#181818" points="637,220.1094,647,224.1094,637,228.1094,641,224.1094" style="stroke:#181818;stroke-width:1.0;"/><line style="stroke:#181818;stroke-width:1.0;" x1="340" x2="643" y1="224.1094" y2="224.1094"/><text fill="#000000" font-family="sans-serif" font-size="13" font-weight="bold" lengthAdjust="spacing" textLength="7" x="347" y="219.2529">2</text><text fill="#000000" font-family="sans-serif" font-size="13" lengthAdjust="spacing" textLength="172" x="358" y="219.2529">Get selected child information</text><polygon fill="#181818" points="914.5,250.4609,924.5,254.4609,914.5,258.4609,918.5,254.4609" style="stroke:#181818;stroke-width:1.0;"/><line style="stroke:#181818;stroke-width:1.0;" x1="659" x2="920.5" y1="254.4609" y2="254.4609"/><text fill="#000000" font-family="sans-serif" font-size="13" font-weight="bold" lengthAdjust="spacing" textLength="7" x="666" y="249.6045">3</text><text fill="#000000" font-family="sans-serif" font-size="13" lengthAdjust="spacing" textLength="172" x="677" y="249.6045">Get selected child information</text><polygon fill="#181818" points="670,280.8125,660,284.8125,670,288.8125,666,284.8125" style="stroke:#181818;stroke-width:1.0;"/><line style="stroke:#181818;stroke-width:1.0;stroke-dasharray:2.0,2.0;" x1="664" x2="930.5" y1="284.8125" y2="284.8125"/><text fill="#000000" font-family="sans-serif" font-size="13" font-weight="bold" lengthAdjust="spacing" textLength="7" x="676" y="279.9561">4</text><text fill="#000000" font-family="sans-serif" font-size="13" lengthAdjust="spacing" textLength="149" x="687" y="279.9561">Selected child information</text><polygon fill="#181818" points="210,311.1641,200,315.1641,210,319.1641,206,315.1641" style="stroke:#181818;stroke-width:1.0;"/><line style="stroke:#181818;stroke-width:1.0;stroke-dasharray:2.0,2.0;" x1="204" x2="653" y1="315.1641" y2="315.1641"/><text fill="#000000" font-family="sans-serif" font-size="13" font-weight="bold" lengthAdjust="spacing" textLength="7" x="216" y="310.3076">5</text><text fill="#000000" font-family="sans-serif" font-size="13" lengthAdjust="spacing" textLength="149" x="227" y="310.3076">Selected child information</text><line style="stroke:#181818;stroke-width:1.0;" x1="204" x2="246" y1="378.2188" y2="378.2188"/><line style="stroke:#181818;stroke-width:1.0;" x1="246" x2="246" y1="378.2188" y2="391.2188"/><line style="stroke:#181818;stroke-width:1.0;" x1="205" x2="246" y1="391.2188" y2="391.2188"/><polygon fill="#181818" points="215,387.2188,205,391.2188,215,395.2188,211,391.2188" style="stroke:#181818;stroke-width:1.0;"/><text fill="#000000" font-family="sans-serif" font-size="13" font-weight="bold" lengthAdjust="spacing" textLength="7" x="211" y="357.0107">6</text><text fill="#000000" font-family="sans-serif" font-size="13" lengthAdjust="spacing" textLength="78" x="222" y="340.6592">Display list of</text><text fill="#000000" font-family="sans-serif" font-size="13" lengthAdjust="spacing" textLength="78" x="222" y="357.0107">health history</text><text fill="#000000" font-family="sans-serif" font-size="13" lengthAdjust="spacing" textLength="94" x="222" y="373.3623">of selected child</text><polygon fill="#181818" points="177,480.2734,187,484.2734,177,488.2734,181,484.2734" style="stroke:#181818;stroke-width:1.0;"/><line style="stroke:#181818;stroke-width:1.0;" x1="71" x2="183" y1="484.2734" y2="484.2734"/><text fill="#000000" font-family="sans-serif" font-size="13" font-weight="bold" lengthAdjust="spacing" textLength="7" x="78" y="463.0654">7</text><text fill="#000000" font-family="sans-serif" font-size="13" lengthAdjust="spacing" textLength="59" x="89" y="446.7139">Select the</text><text fill="#000000" font-family="sans-serif" font-size="13" lengthAdjust="spacing" textLength="78" x="89" y="463.0654">health history</text><text fill="#000000" font-family="sans-serif" font-size="13" lengthAdjust="spacing" textLength="70" x="89" y="479.417">want to view</text><polygon fill="#181818" points="637,510.625,647,514.625,637,518.625,641,514.625" style="stroke:#181818;stroke-width:1.0;"/><line style="stroke:#181818;stroke-width:1.0;" x1="194" x2="643" y1="514.625" y2="514.625"/><text fill="#000000" font-family="sans-serif" font-size="13" font-weight="bold" lengthAdjust="spacing" textLength="7" x="201" y="509.7686">8</text><text fill="#000000" font-family="sans-serif" font-size="13" lengthAdjust="spacing" textLength="223" x="212" y="509.7686">Get selected health history information</text><polygon fill="#181818" points="822,557.3281,832,561.3281,822,565.3281,826,561.3281" style="stroke:#181818;stroke-width:1.0;"/><line style="stroke:#181818;stroke-width:1.0;" x1="659" x2="828" y1="561.3281" y2="561.3281"/><text fill="#000000" font-family="sans-serif" font-size="13" font-weight="bold" lengthAdjust="spacing" textLength="7" x="666" y="548.2959">9</text><text fill="#000000" font-family="sans-serif" font-size="13" lengthAdjust="spacing" textLength="74" x="677" y="540.1201">Get selected</text><text fill="#000000" font-family="sans-serif" font-size="13" lengthAdjust="spacing" textLength="145" x="677" y="556.4717">health history information</text><polygon fill="#181818" points="670,587.6797,660,591.6797,670,595.6797,666,591.6797" style="stroke:#181818;stroke-width:1.0;"/><line style="stroke:#181818;stroke-width:1.0;stroke-dasharray:2.0,2.0;" x1="664" x2="838" y1="591.6797" y2="591.6797"/><text fill="#000000" font-family="sans-serif" font-size="13" font-weight="bold" lengthAdjust="spacing" textLength="14" x="676" y="586.8232">10</text><text fill="#000000" font-family="sans-serif" font-size="13" lengthAdjust="spacing" textLength="71" x="694" y="586.8232">Query result</text><polygon fill="#181818" points="477,618.0313,467,622.0313,477,626.0313,473,622.0313" style="stroke:#181818;stroke-width:1.0;"/><line style="stroke:#181818;stroke-width:1.0;stroke-dasharray:2.0,2.0;" x1="471" x2="653" y1="622.0313" y2="622.0313"/><text fill="#000000" font-family="sans-serif" font-size="13" font-weight="bold" lengthAdjust="spacing" textLength="14" x="483" y="617.1748">11</text><text fill="#000000" font-family="sans-serif" font-size="13" lengthAdjust="spacing" textLength="71" x="501" y="617.1748">Query result</text><line style="stroke:#181818;stroke-width:1.0;" x1="471" x2="513" y1="668.7344" y2="668.7344"/><line style="stroke:#181818;stroke-width:1.0;" x1="513" x2="513" y1="668.7344" y2="681.7344"/><line style="stroke:#181818;stroke-width:1.0;" x1="472" x2="513" y1="681.7344" y2="681.7344"/><polygon fill="#181818" points="482,677.7344,472,681.7344,482,685.7344,478,681.7344" style="stroke:#181818;stroke-width:1.0;"/><text fill="#000000" font-family="sans-serif" font-size="13" font-weight="bold" lengthAdjust="spacing" textLength="14" x="478" y="655.7021">12</text><text fill="#000000" font-family="sans-serif" font-size="13" lengthAdjust="spacing" textLength="151" x="496" y="647.5264">Display view with selected</text><text fill="#000000" font-family="sans-serif" font-size="13" lengthAdjust="spacing" textLength="145" x="496" y="663.8779">health history information</text><!--MD5=[a261188a6c46f6ac6c167b516ce9f0cc]
@startuml ViewChildHistorySeq
autonumber
hide footbox

actor "Parent / Doctor" as ParentDoctor
boundary "Child\nHistoryView" as ChildHistoryView
boundary "Child\nManagementView" as ChildManagementView
boundary "Child\nInformationView" as ChildInformationView
control ChildController
entity HEALTHHISTORY
entity CHILD

opt Search
ref over ParentDoctor, ChildHistoryView, ChildManagementView, ChildInformationView, ChildController, CHILD: Sequence Search Child
end 

ParentDoctor -> ChildManagementView: Select child needs viewing health history
activate ParentDoctor
activate ChildManagementView
ChildManagementView -> ChildController: Get selected child information
deactivate ChildManagementView
activate ChildController
ChildController -> CHILD: Get selected child information
activate CHILD
CHILD - -> ChildController: Selected child information
deactivate CHILD
ChildController - -> ChildHistoryView: Selected child information
deactivate ChildController
activate ChildHistoryView
ChildHistoryView -> ChildHistoryView: Display list of\nhealth history\nof selected child
activate ChildHistoryView
deactivate ChildHistoryView

ParentDoctor -> ChildHistoryView: Select the\nhealth history\nwant to view
deactivate ParentDoctor
ChildHistoryView -> ChildController: Get selected health history information
deactivate ChildHistoryView
activate ChildController
ChildController -> HEALTHHISTORY: Get selected\nhealth history information
activate HEALTHHISTORY
HEALTHHISTORY - -> ChildController: Query result
deactivate HEALTHHISTORY
ChildController - -> ChildInformationView: Query result
deactivate ChildController
activate ChildInformationView
ChildInformationView -> ChildInformationView: Display view with selected\nhealth history information
activate ChildInformationView
deactivate ChildInformationView
deactivate ChildInformationView
@end

PlantUML version 1.2022.7(Tue Aug 23 00:01:30 ICT 2022)
(GPL source distribution)
Java Runtime: Java(TM) SE Runtime Environment
JVM: Java HotSpot(TM) 64-Bit Server VM
Default Encoding: Cp1252
Language: en
Country: US
--></g></svg>