<?xml version="1.0" encoding="UTF-8" standalone="no"?><svg xmlns="http://www.w3.org/2000/svg" xmlns:xlink="http://www.w3.org/1999/xlink" contentStyleType="text/css" height="619px" preserveAspectRatio="none" style="width:520px;height:619px;background:#FFFFFF;" version="1.1" viewBox="0 0 520 619" width="520px" zoomAndPan="magnify"><defs/><g><rect fill="#FFFFFF" height="324.1875" style="stroke:#181818;stroke-width:1.0;" width="10" x="37.5" y="279.3672"/><rect fill="#FFFFFF" height="427.8906" style="stroke:#181818;stroke-width:1.0;" width="10" x="170.5" y="175.6641"/><rect fill="#FFFFFF" height="28" style="stroke:#181818;stroke-width:1.0;" width="10" x="175.5" y="214.0156"/><rect fill="#FFFFFF" height="60.7031" style="stroke:#181818;stroke-width:1.0;" width="10" x="330.5" y="114.9609"/><rect fill="#FFFFFF" height="30.3516" style="stroke:#181818;stroke-width:1.0;" width="10" x="468.5" y="114.9609"/><rect fill="none" height="64.7969" style="stroke:#000000;stroke-width:1.5;" width="504" x="10" y="294.3672"/><rect fill="none" height="64.7969" style="stroke:#000000;stroke-width:1.5;" width="504" x="10" y="373.1641"/><rect fill="none" height="64.7969" style="stroke:#000000;stroke-width:1.5;" width="504" x="10" y="451.9609"/><rect fill="none" height="64.7969" style="stroke:#000000;stroke-width:1.5;" width="504" x="10" y="530.7578"/><line style="stroke:#181818;stroke-width:0.5;stroke-dasharray:5.0,5.0;" x1="42" x2="42" y1="82.6094" y2="612.5547"/><line style="stroke:#181818;stroke-width:0.5;stroke-dasharray:5.0,5.0;" x1="175" x2="175" y1="82.6094" y2="612.5547"/><line style="stroke:#181818;stroke-width:0.5;stroke-dasharray:5.0,5.0;" x1="335.5" x2="335.5" y1="82.6094" y2="612.5547"/><line style="stroke:#181818;stroke-width:0.5;stroke-dasharray:5.0,5.0;" x1="473" x2="473" y1="82.6094" y2="612.5547"/><text fill="#000000" font-family="sans-serif" font-size="14" lengthAdjust="spacing" textLength="39" x="20" y="79.5332">Admin</text><ellipse cx="42.5" cy="13.5" fill="#E2E2F0" rx="8" ry="8" style="stroke:#181818;stroke-width:0.5;"/><path d="M42.5,21.5 L42.5,48.5 M29.5,29.5 L55.5,29.5 M42.5,48.5 L29.5,63.5 M42.5,48.5 L55.5,63.5 " fill="none" style="stroke:#181818;stroke-width:0.5;"/><text fill="#000000" font-family="sans-serif" font-size="14" lengthAdjust="spacing" textLength="153" x="96" y="79.5332">ParentManagementView</text><path d="M155,37 L155,61 M155,49 L172,49 " fill="none" style="stroke:#181818;stroke-width:0.5;"/><ellipse cx="184" cy="49" fill="#E2E2F0" rx="12" ry="12" style="stroke:#181818;stroke-width:0.5;"/><text fill="#000000" font-family="sans-serif" font-size="14" lengthAdjust="spacing" textLength="104" x="280.5" y="79.5332">ParentController</text><ellipse cx="335.5" cy="49" fill="#E2E2F0" rx="12" ry="12" style="stroke:#181818;stroke-width:0.5;"/><polygon fill="#181818" points="331.5,37,337.5,32,335.5,37,337.5,42,331.5,37" style="stroke:#181818;stroke-width:1.0;"/><text fill="#000000" font-family="sans-serif" font-size="14" lengthAdjust="spacing" textLength="55" x="443" y="79.5332">PARENT</text><ellipse cx="473.5" cy="49" fill="#E2E2F0" rx="12" ry="12" style="stroke:#181818;stroke-width:0.5;"/><line style="stroke:#181818;stroke-width:0.5;" x1="461.5" x2="485.5" y1="63" y2="63"/><rect fill="#FFFFFF" height="324.1875" style="stroke:#181818;stroke-width:1.0;" width="10" x="37.5" y="279.3672"/><rect fill="#FFFFFF" height="427.8906" style="stroke:#181818;stroke-width:1.0;" width="10" x="170.5" y="175.6641"/><rect fill="#FFFFFF" height="28" style="stroke:#181818;stroke-width:1.0;" width="10" x="175.5" y="214.0156"/><rect fill="#FFFFFF" height="60.7031" style="stroke:#181818;stroke-width:1.0;" width="10" x="330.5" y="114.9609"/><rect fill="#FFFFFF" height="30.3516" style="stroke:#181818;stroke-width:1.0;" width="10" x="468.5" y="114.9609"/><polygon fill="#181818" points="456.5,110.9609,466.5,114.9609,456.5,118.9609,460.5,114.9609" style="stroke:#181818;stroke-width:1.0;"/><line style="stroke:#181818;stroke-width:1.0;" x1="340.5" x2="462.5" y1="114.9609" y2="114.9609"/><text fill="#000000" font-family="sans-serif" font-size="13" font-weight="bold" lengthAdjust="spacing" textLength="7" x="347.5" y="110.1045">1</text><text fill="#000000" font-family="sans-serif" font-size="13" lengthAdjust="spacing" textLength="103" x="358.5" y="110.1045">Get list of parents</text><polygon fill="#181818" points="351.5,141.3125,341.5,145.3125,351.5,149.3125,347.5,145.3125" style="stroke:#181818;stroke-width:1.0;"/><line style="stroke:#181818;stroke-width:1.0;stroke-dasharray:2.0,2.0;" x1="345.5" x2="472.5" y1="145.3125" y2="145.3125"/><text fill="#000000" font-family="sans-serif" font-size="13" font-weight="bold" lengthAdjust="spacing" textLength="7" x="357.5" y="140.4561">2</text><text fill="#000000" font-family="sans-serif" font-size="13" lengthAdjust="spacing" textLength="82" x="368.5" y="140.4561">List of parents</text><polygon fill="#181818" points="191.5,171.6641,181.5,175.6641,191.5,179.6641,187.5,175.6641" style="stroke:#181818;stroke-width:1.0;"/><line style="stroke:#181818;stroke-width:1.0;stroke-dasharray:2.0,2.0;" x1="185.5" x2="334.5" y1="175.6641" y2="175.6641"/><text fill="#000000" font-family="sans-serif" font-size="13" font-weight="bold" lengthAdjust="spacing" textLength="7" x="197.5" y="170.8076">3</text><text fill="#000000" font-family="sans-serif" font-size="13" lengthAdjust="spacing" textLength="82" x="208.5" y="170.8076">List of parents</text><line style="stroke:#181818;stroke-width:1.0;" x1="185.5" x2="227.5" y1="206.0156" y2="206.0156"/><line style="stroke:#181818;stroke-width:1.0;" x1="227.5" x2="227.5" y1="206.0156" y2="219.0156"/><line style="stroke:#181818;stroke-width:1.0;" x1="186.5" x2="227.5" y1="219.0156" y2="219.0156"/><polygon fill="#181818" points="196.5,215.0156,186.5,219.0156,196.5,223.0156,192.5,219.0156" style="stroke:#181818;stroke-width:1.0;"/><text fill="#000000" font-family="sans-serif" font-size="13" font-weight="bold" lengthAdjust="spacing" textLength="7" x="192.5" y="201.1592">4</text><text fill="#000000" font-family="sans-serif" font-size="13" lengthAdjust="spacing" textLength="125" x="203.5" y="201.1592">Display list of parents</text><polygon fill="#181818" points="158.5,275.3672,168.5,279.3672,158.5,283.3672,162.5,279.3672" style="stroke:#181818;stroke-width:1.0;"/><line style="stroke:#181818;stroke-width:1.0;" x1="47.5" x2="164.5" y1="279.3672" y2="279.3672"/><text fill="#000000" font-family="sans-serif" font-size="13" font-weight="bold" lengthAdjust="spacing" textLength="7" x="54.5" y="274.5107">5</text><text fill="#000000" font-family="sans-serif" font-size="13" lengthAdjust="spacing" textLength="93" x="65.5" y="274.5107">Choose function</text><path d="M10,294.3672 L75,294.3672 L75,302.7188 L65,312.7188 L10,312.7188 L10,294.3672 " fill="#EEEEEE" style="stroke:#000000;stroke-width:1.5;"/><rect fill="none" height="64.7969" style="stroke:#000000;stroke-width:1.5;" width="504" x="10" y="294.3672"/><text fill="#000000" font-family="sans-serif" font-size="13" font-weight="bold" lengthAdjust="spacing" textLength="20" x="25" y="308.8623">opt</text><text fill="#000000" font-family="sans-serif" font-size="11" font-weight="bold" lengthAdjust="spacing" textLength="45" x="90" y="307.7861">[Create]</text><rect fill="none" height="41.4453" style="stroke:#000000;stroke-width:1.5;" width="490" x="17" y="312.7188"/><path d="M17,312.7188 L79,312.7188 L79,320.7188 L69,330.7188 L17,330.7188 L17,312.7188 " fill="#EEEEEE" style="stroke:#000000;stroke-width:2.0;"/><text fill="#000000" font-family="sans-serif" font-size="13" font-weight="bold" lengthAdjust="spacing" textLength="17" x="30" y="328.2139">ref</text><text fill="#000000" font-family="sans-serif" font-size="12" lengthAdjust="spacing" textLength="135" x="194.5" y="347.1758">Sequence Create Parent</text><path d="M10,373.1641 L75,373.1641 L75,381.5156 L65,391.5156 L10,391.5156 L10,373.1641 " fill="#EEEEEE" style="stroke:#000000;stroke-width:1.5;"/><rect fill="none" height="64.7969" style="stroke:#000000;stroke-width:1.5;" width="504" x="10" y="373.1641"/><text fill="#000000" font-family="sans-serif" font-size="13" font-weight="bold" lengthAdjust="spacing" textLength="20" x="25" y="387.6592">opt</text><text fill="#000000" font-family="sans-serif" font-size="11" font-weight="bold" lengthAdjust="spacing" textLength="46" x="90" y="386.583">[Update]</text><rect fill="none" height="41.4453" style="stroke:#000000;stroke-width:1.5;" width="490" x="17" y="391.5156"/><path d="M17,391.5156 L79,391.5156 L79,399.5156 L69,409.5156 L17,409.5156 L17,391.5156 " fill="#EEEEEE" style="stroke:#000000;stroke-width:2.0;"/><text fill="#000000" font-family="sans-serif" font-size="13" font-weight="bold" lengthAdjust="spacing" textLength="17" x="30" y="407.0107">ref</text><text fill="#000000" font-family="sans-serif" font-size="12" lengthAdjust="spacing" textLength="138" x="193" y="425.9727">Sequence Update Parent</text><path d="M10,451.9609 L75,451.9609 L75,460.3125 L65,470.3125 L10,470.3125 L10,451.9609 " fill="#EEEEEE" style="stroke:#000000;stroke-width:1.5;"/><rect fill="none" height="64.7969" style="stroke:#000000;stroke-width:1.5;" width="504" x="10" y="451.9609"/><text fill="#000000" font-family="sans-serif" font-size="13" font-weight="bold" lengthAdjust="spacing" textLength="20" x="25" y="466.4561">opt</text><text fill="#000000" font-family="sans-serif" font-size="11" font-weight="bold" lengthAdjust="spacing" textLength="43" x="90" y="465.3799">[Delete]</text><rect fill="none" height="41.4453" style="stroke:#000000;stroke-width:1.5;" width="490" x="17" y="470.3125"/><path d="M17,470.3125 L79,470.3125 L79,478.3125 L69,488.3125 L17,488.3125 L17,470.3125 " fill="#EEEEEE" style="stroke:#000000;stroke-width:2.0;"/><text fill="#000000" font-family="sans-serif" font-size="13" font-weight="bold" lengthAdjust="spacing" textLength="17" x="30" y="485.8076">ref</text><text fill="#000000" font-family="sans-serif" font-size="12" lengthAdjust="spacing" textLength="134" x="195" y="504.7695">Sequence Delete Parent</text><path d="M10,530.7578 L75,530.7578 L75,539.1094 L65,549.1094 L10,549.1094 L10,530.7578 " fill="#EEEEEE" style="stroke:#000000;stroke-width:1.5;"/><rect fill="none" height="64.7969" style="stroke:#000000;stroke-width:1.5;" width="504" x="10" y="530.7578"/><text fill="#000000" font-family="sans-serif" font-size="13" font-weight="bold" lengthAdjust="spacing" textLength="20" x="25" y="545.2529">opt</text><text fill="#000000" font-family="sans-serif" font-size="11" font-weight="bold" lengthAdjust="spacing" textLength="46" x="90" y="544.1768">[Search]</text><rect fill="none" height="41.4453" style="stroke:#000000;stroke-width:1.5;" width="490" x="17" y="549.1094"/><path d="M17,549.1094 L79,549.1094 L79,557.1094 L69,567.1094 L17,567.1094 L17,549.1094 " fill="#EEEEEE" style="stroke:#000000;stroke-width:2.0;"/><text fill="#000000" font-family="sans-serif" font-size="13" font-weight="bold" lengthAdjust="spacing" textLength="17" x="30" y="564.6045">ref</text><text fill="#000000" font-family="sans-serif" font-size="12" lengthAdjust="spacing" textLength="137" x="193.5" y="583.5664">Sequence Search Parent</text><!--MD5=[210f671ef3b6362d5eafdb3da20e00b7]
@startuml AdjustParentSeq
autonumber
hide footbox

actor Admin
boundary ParentManagementView
control ParentController
entity PARENT

ParentController -> PARENT: Get list of parents
activate ParentController
activate PARENT
PARENT - - -> ParentController: List of parents
deactivate PARENT
ParentController - -> ParentManagementView: List of parents
deactivate ParentController
activate ParentManagementView
ParentManagementView -> ParentManagementView: Display list of parents
activate ParentManagementView
deactivate ParentManagementView
Admin -> ParentManagementView: Choose function
activate Admin

opt Create
    ref over Admin, ParentManagementView, ParentController, PARENT: Sequence Create Parent
end

opt Update
    ref over Admin, ParentManagementView, ParentController, PARENT: Sequence Update Parent
end

opt Delete
    ref over Admin, ParentManagementView, ParentController, PARENT: Sequence Delete Parent
end

opt Search
    ref over Admin, ParentManagementView, ParentController, PARENT: Sequence Search Parent
end
@enduml

PlantUML version 1.2022.7(Tue Aug 23 00:01:30 ICT 2022)
(GPL source distribution)
Java Runtime: Java(TM) SE Runtime Environment
JVM: Java HotSpot(TM) 64-Bit Server VM
Default Encoding: Cp1252
Language: en
Country: US
--></g></svg>