<?xml version="1.0" encoding="UTF-8" standalone="no"?><svg xmlns="http://www.w3.org/2000/svg" xmlns:xlink="http://www.w3.org/1999/xlink" contentStyleType="text/css" height="1009px" preserveAspectRatio="none" style="width:816px;height:1009px;background:#FFFFFF;" version="1.1" viewBox="0 0 816 1009" width="816px" zoomAndPan="magnify"><defs/><g><rect fill="#FFFFFF" height="248.5938" style="stroke:#181818;stroke-width:1.0;" width="10" x="37.5" y="174.6641"/><rect fill="#FFFFFF" height="30" style="stroke:#181818;stroke-width:1.0;" width="10" x="149.5" y="940.3125"/><rect fill="#FFFFFF" height="763.6484" style="stroke:#181818;stroke-width:1.0;" width="10" x="312.5" y="139.3125"/><rect fill="#FFFFFF" height="28" style="stroke:#181818;stroke-width:1.0;" width="10" x="317.5" y="213.0156"/><rect fill="#FFFFFF" height="28" style="stroke:#181818;stroke-width:1.0;" width="10" x="317.5" y="342.0703"/><rect fill="#FFFFFF" height="28" style="stroke:#181818;stroke-width:1.0;" width="10" x="317.5" y="681.7188"/><rect fill="#FFFFFF" height="516.7031" style="stroke:#181818;stroke-width:1.0;" width="10" x="519.5" y="453.6094"/><rect fill="#FFFFFF" height="352.2969" style="stroke:#181818;stroke-width:1.0;" width="10" x="688.5" y="483.9609"/><rect fill="#FFFFFF" height="28" style="stroke:#181818;stroke-width:1.0;" width="10" x="693.5" y="522.3125"/><rect fill="#FFFFFF" height="28" style="stroke:#181818;stroke-width:1.0;" width="10" x="693.5" y="770.9063"/><rect fill="none" height="722.2969" style="stroke:#000000;stroke-width:1.5;" width="799.5" x="10" y="263.0156"/><rect fill="none" height="406" style="stroke:#000000;stroke-width:1.5;" width="735.5" x="65" y="572.3125"/><line style="stroke:#181818;stroke-width:0.5;stroke-dasharray:5.0,5.0;" x1="42" x2="42" y1="82.6094" y2="1002.3125"/><line style="stroke:#181818;stroke-width:0.5;stroke-dasharray:5.0,5.0;" x1="154" x2="154" y1="82.6094" y2="1002.3125"/><line style="stroke:#181818;stroke-width:0.5;stroke-dasharray:5.0,5.0;" x1="317" x2="317" y1="82.6094" y2="1002.3125"/><line style="stroke:#181818;stroke-width:0.5;stroke-dasharray:5.0,5.0;" x1="524.5" x2="524.5" y1="82.6094" y2="1002.3125"/><line style="stroke:#181818;stroke-width:0.5;stroke-dasharray:5.0,5.0;" x1="693" x2="693" y1="82.6094" y2="1002.3125"/><text fill="#000000" font-family="sans-serif" font-size="14" lengthAdjust="spacing" textLength="39" x="20" y="79.5332">Admin</text><ellipse cx="42.5" cy="13.5" fill="#E2E2F0" rx="8" ry="8" style="stroke:#181818;stroke-width:0.5;"/><path d="M42.5,21.5 L42.5,48.5 M29.5,29.5 L55.5,29.5 M42.5,48.5 L29.5,63.5 M42.5,48.5 L55.5,63.5 " fill="none" style="stroke:#181818;stroke-width:0.5;"/><text fill="#000000" font-family="sans-serif" font-size="14" lengthAdjust="spacing" textLength="153" x="75" y="79.5332">ParentManagementView</text><path d="M134,37 L134,61 M134,49 L151,49 " fill="none" style="stroke:#181818;stroke-width:0.5;"/><ellipse cx="163" cy="49" fill="#E2E2F0" rx="12" ry="12" style="stroke:#181818;stroke-width:0.5;"/><text fill="#000000" font-family="sans-serif" font-size="14" lengthAdjust="spacing" textLength="141" x="244" y="79.5332">ParentInformationView</text><path d="M297,37 L297,61 M297,49 L314,49 " fill="none" style="stroke:#181818;stroke-width:0.5;"/><ellipse cx="326" cy="49" fill="#E2E2F0" rx="12" ry="12" style="stroke:#181818;stroke-width:0.5;"/><text fill="#000000" font-family="sans-serif" font-size="14" lengthAdjust="spacing" textLength="104" x="469.5" y="79.5332">ParentController</text><ellipse cx="524.5" cy="49" fill="#E2E2F0" rx="12" ry="12" style="stroke:#181818;stroke-width:0.5;"/><polygon fill="#181818" points="520.5,37,526.5,32,524.5,37,526.5,42,520.5,37" style="stroke:#181818;stroke-width:1.0;"/><text fill="#000000" font-family="sans-serif" font-size="14" lengthAdjust="spacing" textLength="55" x="663" y="79.5332">PARENT</text><ellipse cx="693.5" cy="49" fill="#E2E2F0" rx="12" ry="12" style="stroke:#181818;stroke-width:0.5;"/><line style="stroke:#181818;stroke-width:0.5;" x1="681.5" x2="705.5" y1="63" y2="63"/><rect fill="#FFFFFF" height="248.5938" style="stroke:#181818;stroke-width:1.0;" width="10" x="37.5" y="174.6641"/><rect fill="#FFFFFF" height="30" style="stroke:#181818;stroke-width:1.0;" width="10" x="149.5" y="940.3125"/><rect fill="#FFFFFF" height="763.6484" style="stroke:#181818;stroke-width:1.0;" width="10" x="312.5" y="139.3125"/><rect fill="#FFFFFF" height="28" style="stroke:#181818;stroke-width:1.0;" width="10" x="317.5" y="213.0156"/><rect fill="#FFFFFF" height="28" style="stroke:#181818;stroke-width:1.0;" width="10" x="317.5" y="342.0703"/><rect fill="#FFFFFF" height="28" style="stroke:#181818;stroke-width:1.0;" width="10" x="317.5" y="681.7188"/><rect fill="#FFFFFF" height="516.7031" style="stroke:#181818;stroke-width:1.0;" width="10" x="519.5" y="453.6094"/><rect fill="#FFFFFF" height="352.2969" style="stroke:#181818;stroke-width:1.0;" width="10" x="688.5" y="483.9609"/><rect fill="#FFFFFF" height="28" style="stroke:#181818;stroke-width:1.0;" width="10" x="693.5" y="522.3125"/><rect fill="#FFFFFF" height="28" style="stroke:#181818;stroke-width:1.0;" width="10" x="693.5" y="770.9063"/><line style="stroke:#181818;stroke-width:1.0;" x1="317.5" x2="364.5" y1="126.3125" y2="126.3125"/><line style="stroke:#181818;stroke-width:1.0;" x1="364.5" x2="364.5" y1="126.3125" y2="139.3125"/><line style="stroke:#181818;stroke-width:1.0;" x1="323.5" x2="364.5" y1="139.3125" y2="139.3125"/><polygon fill="#181818" points="333.5,135.3125,323.5,139.3125,333.5,143.3125,329.5,139.3125" style="stroke:#181818;stroke-width:1.0;"/><text fill="#000000" font-family="sans-serif" font-size="13" font-weight="bold" lengthAdjust="spacing" textLength="7" x="329.5" y="113.2803">1</text><text fill="#000000" font-family="sans-serif" font-size="13" lengthAdjust="spacing" textLength="70" x="340.5" y="105.1045">Display with</text><text fill="#000000" font-family="sans-serif" font-size="13" lengthAdjust="spacing" textLength="103" x="340.5" y="121.4561">empty information</text><polygon fill="#181818" points="300.5,170.6641,310.5,174.6641,300.5,178.6641,304.5,174.6641" style="stroke:#181818;stroke-width:1.0;"/><line style="stroke:#181818;stroke-width:1.0;" x1="47.5" x2="306.5" y1="174.6641" y2="174.6641"/><text fill="#000000" font-family="sans-serif" font-size="13" font-weight="bold" lengthAdjust="spacing" textLength="7" x="54.5" y="169.8076">2</text><text fill="#000000" font-family="sans-serif" font-size="13" lengthAdjust="spacing" textLength="138" x="65.5" y="169.8076">Enter parent information</text><line style="stroke:#181818;stroke-width:1.0;" x1="327.5" x2="369.5" y1="205.0156" y2="205.0156"/><line style="stroke:#181818;stroke-width:1.0;" x1="369.5" x2="369.5" y1="205.0156" y2="218.0156"/><line style="stroke:#181818;stroke-width:1.0;" x1="328.5" x2="369.5" y1="218.0156" y2="218.0156"/><polygon fill="#181818" points="338.5,214.0156,328.5,218.0156,338.5,222.0156,334.5,218.0156" style="stroke:#181818;stroke-width:1.0;"/><text fill="#000000" font-family="sans-serif" font-size="13" font-weight="bold" lengthAdjust="spacing" textLength="7" x="334.5" y="200.1592">3</text><text fill="#000000" font-family="sans-serif" font-size="13" lengthAdjust="spacing" textLength="76" x="345.5" y="200.1592">Validate data</text><path d="M10,263.0156 L71,263.0156 L71,271.3672 L61,281.3672 L10,281.3672 L10,263.0156 " fill="#EEEEEE" style="stroke:#000000;stroke-width:1.5;"/><rect fill="none" height="722.2969" style="stroke:#000000;stroke-width:1.5;" width="799.5" x="10" y="263.0156"/><text fill="#000000" font-family="sans-serif" font-size="13" font-weight="bold" lengthAdjust="spacing" textLength="16" x="25" y="277.5107">alt</text><text fill="#000000" font-family="sans-serif" font-size="11" font-weight="bold" lengthAdjust="spacing" textLength="69" x="86" y="276.4346">[Invalid data]</text><polygon fill="#181818" points="58.5,299.7188,48.5,303.7188,58.5,307.7188,54.5,303.7188" style="stroke:#181818;stroke-width:1.0;"/><line style="stroke:#181818;stroke-width:1.0;stroke-dasharray:2.0,2.0;" x1="52.5" x2="311.5" y1="303.7188" y2="303.7188"/><text fill="#000000" font-family="sans-serif" font-size="13" font-weight="bold" lengthAdjust="spacing" textLength="7" x="64.5" y="298.8623">4</text><text fill="#000000" font-family="sans-serif" font-size="13" lengthAdjust="spacing" textLength="94" x="75.5" y="298.8623">Error notification</text><line style="stroke:#181818;stroke-width:1.0;" x1="327.5" x2="369.5" y1="334.0703" y2="334.0703"/><line style="stroke:#181818;stroke-width:1.0;" x1="369.5" x2="369.5" y1="334.0703" y2="347.0703"/><line style="stroke:#181818;stroke-width:1.0;" x1="328.5" x2="369.5" y1="347.0703" y2="347.0703"/><polygon fill="#181818" points="338.5,343.0703,328.5,347.0703,338.5,351.0703,334.5,347.0703" style="stroke:#181818;stroke-width:1.0;"/><text fill="#000000" font-family="sans-serif" font-size="13" font-weight="bold" lengthAdjust="spacing" textLength="7" x="334.5" y="329.2139">5</text><text fill="#000000" font-family="sans-serif" font-size="13" lengthAdjust="spacing" textLength="139" x="345.5" y="329.2139">Display error notification</text><line style="stroke:#000000;stroke-width:1.0;stroke-dasharray:2.0,2.0;" x1="10" x2="809.5" y1="386.0703" y2="386.0703"/><text fill="#000000" font-family="sans-serif" font-size="11" font-weight="bold" lengthAdjust="spacing" textLength="61" x="15" y="397.4893">[Valid data]</text><polygon fill="#181818" points="300.5,419.2578,310.5,423.2578,300.5,427.2578,304.5,423.2578" style="stroke:#181818;stroke-width:1.0;"/><line style="stroke:#181818;stroke-width:1.0;" x1="42.5" x2="306.5" y1="423.2578" y2="423.2578"/><text fill="#000000" font-family="sans-serif" font-size="13" font-weight="bold" lengthAdjust="spacing" textLength="7" x="49.5" y="418.4014">6</text><text fill="#000000" font-family="sans-serif" font-size="13" lengthAdjust="spacing" textLength="172" x="60.5" y="418.4014">Click button "Save" to confirm</text><polygon fill="#181818" points="507.5,449.6094,517.5,453.6094,507.5,457.6094,511.5,453.6094" style="stroke:#181818;stroke-width:1.0;"/><line style="stroke:#181818;stroke-width:1.0;" x1="322.5" x2="513.5" y1="453.6094" y2="453.6094"/><text fill="#000000" font-family="sans-serif" font-size="13" font-weight="bold" lengthAdjust="spacing" textLength="7" x="329.5" y="448.7529">7</text><text fill="#000000" font-family="sans-serif" font-size="13" lengthAdjust="spacing" textLength="167" x="340.5" y="448.7529">Send creating parent request</text><polygon fill="#181818" points="676.5,479.9609,686.5,483.9609,676.5,487.9609,680.5,483.9609" style="stroke:#181818;stroke-width:1.0;"/><line style="stroke:#181818;stroke-width:1.0;" x1="529.5" x2="682.5" y1="483.9609" y2="483.9609"/><text fill="#000000" font-family="sans-serif" font-size="13" font-weight="bold" lengthAdjust="spacing" textLength="7" x="536.5" y="479.1045">8</text><text fill="#000000" font-family="sans-serif" font-size="13" lengthAdjust="spacing" textLength="97" x="547.5" y="479.1045">Send information</text><line style="stroke:#181818;stroke-width:1.0;" x1="703.5" x2="745.5" y1="514.3125" y2="514.3125"/><line style="stroke:#181818;stroke-width:1.0;" x1="745.5" x2="745.5" y1="514.3125" y2="527.3125"/><line style="stroke:#181818;stroke-width:1.0;" x1="704.5" x2="745.5" y1="527.3125" y2="527.3125"/><polygon fill="#181818" points="714.5,523.3125,704.5,527.3125,714.5,531.3125,710.5,527.3125" style="stroke:#181818;stroke-width:1.0;"/><text fill="#000000" font-family="sans-serif" font-size="13" font-weight="bold" lengthAdjust="spacing" textLength="7" x="710.5" y="509.4561">9</text><text fill="#000000" font-family="sans-serif" font-size="13" lengthAdjust="spacing" textLength="76" x="721.5" y="509.4561">Validate data</text><path d="M65,572.3125 L126,572.3125 L126,580.6641 L116,590.6641 L65,590.6641 L65,572.3125 " fill="#EEEEEE" style="stroke:#000000;stroke-width:1.5;"/><rect fill="none" height="406" style="stroke:#000000;stroke-width:1.5;" width="735.5" x="65" y="572.3125"/><text fill="#000000" font-family="sans-serif" font-size="13" font-weight="bold" lengthAdjust="spacing" textLength="16" x="80" y="586.8076">alt</text><text fill="#000000" font-family="sans-serif" font-size="11" font-weight="bold" lengthAdjust="spacing" textLength="69" x="141" y="585.7314">[Invalid data]</text><polygon fill="#181818" points="540.5,609.0156,530.5,613.0156,540.5,617.0156,536.5,613.0156" style="stroke:#181818;stroke-width:1.0;"/><line style="stroke:#181818;stroke-width:1.0;stroke-dasharray:2.0,2.0;" x1="534.5" x2="687.5" y1="613.0156" y2="613.0156"/><text fill="#000000" font-family="sans-serif" font-size="13" font-weight="bold" lengthAdjust="spacing" textLength="14" x="546.5" y="608.1592">10</text><text fill="#000000" font-family="sans-serif" font-size="13" lengthAdjust="spacing" textLength="94" x="564.5" y="608.1592">Error notification</text><polygon fill="#181818" points="333.5,639.3672,323.5,643.3672,333.5,647.3672,329.5,643.3672" style="stroke:#181818;stroke-width:1.0;"/><line style="stroke:#181818;stroke-width:1.0;stroke-dasharray:2.0,2.0;" x1="327.5" x2="518.5" y1="643.3672" y2="643.3672"/><text fill="#000000" font-family="sans-serif" font-size="13" font-weight="bold" lengthAdjust="spacing" textLength="14" x="339.5" y="638.5107">11</text><text fill="#000000" font-family="sans-serif" font-size="13" lengthAdjust="spacing" textLength="94" x="357.5" y="638.5107">Error notification</text><line style="stroke:#181818;stroke-width:1.0;" x1="327.5" x2="369.5" y1="673.7188" y2="673.7188"/><line style="stroke:#181818;stroke-width:1.0;" x1="369.5" x2="369.5" y1="673.7188" y2="686.7188"/><line style="stroke:#181818;stroke-width:1.0;" x1="328.5" x2="369.5" y1="686.7188" y2="686.7188"/><polygon fill="#181818" points="338.5,682.7188,328.5,686.7188,338.5,690.7188,334.5,686.7188" style="stroke:#181818;stroke-width:1.0;"/><text fill="#000000" font-family="sans-serif" font-size="13" font-weight="bold" lengthAdjust="spacing" textLength="14" x="334.5" y="668.8623">12</text><text fill="#000000" font-family="sans-serif" font-size="13" lengthAdjust="spacing" textLength="139" x="352.5" y="668.8623">Display error notification</text><line style="stroke:#000000;stroke-width:1.0;stroke-dasharray:2.0,2.0;" x1="65" x2="800.5" y1="725.7188" y2="725.7188"/><text fill="#000000" font-family="sans-serif" font-size="11" font-weight="bold" lengthAdjust="spacing" textLength="61" x="70" y="737.1377">[Valid data]</text><line style="stroke:#181818;stroke-width:1.0;" x1="703.5" x2="745.5" y1="762.9063" y2="762.9063"/><line style="stroke:#181818;stroke-width:1.0;" x1="745.5" x2="745.5" y1="762.9063" y2="775.9063"/><line style="stroke:#181818;stroke-width:1.0;" x1="704.5" x2="745.5" y1="775.9063" y2="775.9063"/><polygon fill="#181818" points="714.5,771.9063,704.5,775.9063,714.5,779.9063,710.5,775.9063" style="stroke:#181818;stroke-width:1.0;"/><text fill="#000000" font-family="sans-serif" font-size="13" font-weight="bold" lengthAdjust="spacing" textLength="14" x="710.5" y="758.0498">13</text><text fill="#000000" font-family="sans-serif" font-size="13" lengthAdjust="spacing" textLength="60" x="728.5" y="758.0498">Store data</text><polygon fill="#181818" points="540.5,832.2578,530.5,836.2578,540.5,840.2578,536.5,836.2578" style="stroke:#181818;stroke-width:1.0;"/><line style="stroke:#181818;stroke-width:1.0;stroke-dasharray:2.0,2.0;" x1="534.5" x2="692.5" y1="836.2578" y2="836.2578"/><text fill="#000000" font-family="sans-serif" font-size="13" font-weight="bold" lengthAdjust="spacing" textLength="14" x="546.5" y="831.4014">14</text><text fill="#000000" font-family="sans-serif" font-size="13" lengthAdjust="spacing" textLength="117" x="564.5" y="831.4014">Success notification</text><polygon fill="#181818" points="333.5,862.6094,323.5,866.6094,333.5,870.6094,329.5,866.6094" style="stroke:#181818;stroke-width:1.0;"/><line style="stroke:#181818;stroke-width:1.0;stroke-dasharray:2.0,2.0;" x1="327.5" x2="518.5" y1="866.6094" y2="866.6094"/><text fill="#000000" font-family="sans-serif" font-size="13" font-weight="bold" lengthAdjust="spacing" textLength="14" x="339.5" y="861.7529">15</text><text fill="#000000" font-family="sans-serif" font-size="13" lengthAdjust="spacing" textLength="117" x="357.5" y="861.7529">Success notification</text><line style="stroke:#181818;stroke-width:1.0;" x1="322.5" x2="364.5" y1="901.9609" y2="901.9609"/><line style="stroke:#181818;stroke-width:1.0;" x1="364.5" x2="364.5" y1="901.9609" y2="914.9609"/><line style="stroke:#181818;stroke-width:1.0;" x1="317.5" x2="364.5" y1="914.9609" y2="914.9609"/><polygon fill="#181818" points="327.5,910.9609,317.5,914.9609,327.5,918.9609,323.5,914.9609" style="stroke:#181818;stroke-width:1.0;"/><text fill="#000000" font-family="sans-serif" font-size="13" font-weight="bold" lengthAdjust="spacing" textLength="14" x="329.5" y="897.1045">16</text><text fill="#000000" font-family="sans-serif" font-size="13" lengthAdjust="spacing" textLength="61" x="347.5" y="897.1045">Close view</text><polygon fill="#181818" points="170.5,936.3125,160.5,940.3125,170.5,944.3125,166.5,940.3125" style="stroke:#181818;stroke-width:1.0;"/><line style="stroke:#181818;stroke-width:1.0;" x1="164.5" x2="518.5" y1="940.3125" y2="940.3125"/><text fill="#000000" font-family="sans-serif" font-size="13" font-weight="bold" lengthAdjust="spacing" textLength="14" x="176.5" y="935.4561">17</text><text fill="#000000" font-family="sans-serif" font-size="13" lengthAdjust="spacing" textLength="269" x="194.5" y="935.4561">Display success notification and list of parents</text><!--MD5=[c93cecaa2a0c620aac3b0ceca273e130]
@startuml CreateParentSeq
autonumber
hide footbox

actor Admin
boundary ParentManagementView
boundary ParentInformationView
control ParentController
entity PARENT

ParentInformationView -> ParentInformationView: Display with \nempty information
activate ParentInformationView
Admin -> ParentInformationView: Enter parent information  
activate Admin
ParentInformationView -> ParentInformationView: Validate data
activate ParentInformationView
deactivate ParentInformationView
alt Invalid data
    ParentInformationView - -> Admin: Error notification
    ParentInformationView -> ParentInformationView: Display error notification
    activate ParentInformationView
    deactivate ParentInformationView
else Valid data
    Admin -> ParentInformationView: Click button "Save" to confirm
    deactivate Admin
    ParentInformationView -> ParentController: Send creating parent request
    activate ParentController
    ParentController -> PARENT: Send information
    activate PARENT
    PARENT -> PARENT: Validate data
    activate PARENT
    deactivate PARENT
    alt Invalid data
        PARENT - -> ParentController: Error notification
        ParentController - -> ParentInformationView: Error notification
        ParentInformationView -> ParentInformationView: Display error notification
        activate ParentInformationView
        deactivate ParentInformationView
    else Valid data
        PARENT -> PARENT: Store data
        activate PARENT
        deactivate PARENT
        PARENT - -> ParentController: Success notification
        deactivate PARENT
        ParentController - -> ParentInformationView: Success notification
        ParentInformationView -> ParentInformationView: Close view
        deactivate ParentInformationView
        ParentController -> ParentManagementView: Display success notification and list of parents
        activate ParentManagementView
        deactivate ParentManagementView        
        deactivate ParentController
    end
end
@enduml

PlantUML version 1.2022.7(Tue Aug 23 00:01:30 ICT 2022)
(GPL source distribution)
Java Runtime: Java(TM) SE Runtime Environment
JVM: Java HotSpot(TM) 64-Bit Server VM
Default Encoding: Cp1252
Language: en
Country: US
--></g></svg>