<?xml version="1.0" encoding="UTF-8" standalone="no"?><svg xmlns="http://www.w3.org/2000/svg" xmlns:xlink="http://www.w3.org/1999/xlink" contentStyleType="text/css" height="1017px" preserveAspectRatio="none" style="width:744px;height:1017px;background:#FFFFFF;" version="1.1" viewBox="0 0 744 1017" width="744px" zoomAndPan="magnify"><defs/><g><rect fill="#FFFFFF" height="248.5938" style="stroke:#181818;stroke-width:1.0;" width="10" x="37.5" y="210.1094"/><rect fill="#FFFFFF" height="761" style="stroke:#181818;stroke-width:1.0;" width="10" x="209.5" y="210.1094"/><rect fill="#FFFFFF" height="28" style="stroke:#181818;stroke-width:1.0;" width="10" x="214.5" y="248.4609"/><rect fill="#FFFFFF" height="28" style="stroke:#181818;stroke-width:1.0;" width="10" x="214.5" y="377.5156"/><rect fill="#FFFFFF" height="28" style="stroke:#181818;stroke-width:1.0;" width="10" x="214.5" y="733.5156"/><rect fill="#FFFFFF" height="413" style="stroke:#181818;stroke-width:1.0;" width="10" x="439.5" y="505.4063"/><rect fill="#FFFFFF" height="352.2969" style="stroke:#181818;stroke-width:1.0;" width="10" x="609.5" y="535.7578"/><rect fill="#FFFFFF" height="28" style="stroke:#181818;stroke-width:1.0;" width="10" x="614.5" y="574.1094"/><rect fill="#FFFFFF" height="28" style="stroke:#181818;stroke-width:1.0;" width="10" x="614.5" y="822.7031"/><rect fill="none" height="64.7969" style="stroke:#000000;stroke-width:1.5;" width="645" x="10" y="99.6094"/><rect fill="none" height="694.6484" style="stroke:#000000;stroke-width:1.5;" width="727.5" x="10" y="298.4609"/><rect fill="none" height="362" style="stroke:#000000;stroke-width:1.5;" width="602.5" x="125" y="624.1094"/><line style="stroke:#181818;stroke-width:0.5;stroke-dasharray:5.0,5.0;" x1="42" x2="42" y1="82.6094" y2="1010.1094"/><line style="stroke:#181818;stroke-width:0.5;stroke-dasharray:5.0,5.0;" x1="214" x2="214" y1="82.6094" y2="1010.1094"/><line style="stroke:#181818;stroke-width:0.5;stroke-dasharray:5.0,5.0;" x1="444.5" x2="444.5" y1="82.6094" y2="1010.1094"/><line style="stroke:#181818;stroke-width:0.5;stroke-dasharray:5.0,5.0;" x1="614" x2="614" y1="82.6094" y2="1010.1094"/><text fill="#000000" font-family="sans-serif" font-size="14" lengthAdjust="spacing" textLength="39" x="20" y="79.5332">Admin</text><ellipse cx="42.5" cy="13.5" fill="#E2E2F0" rx="8" ry="8" style="stroke:#181818;stroke-width:0.5;"/><path d="M42.5,21.5 L42.5,48.5 M29.5,29.5 L55.5,29.5 M42.5,48.5 L29.5,63.5 M42.5,48.5 L55.5,63.5 " fill="none" style="stroke:#181818;stroke-width:0.5;"/><text fill="#000000" font-family="sans-serif" font-size="14" lengthAdjust="spacing" textLength="153" x="135" y="79.5332">ParentManagementView</text><path d="M194,37 L194,61 M194,49 L211,49 " fill="none" style="stroke:#181818;stroke-width:0.5;"/><ellipse cx="223" cy="49" fill="#E2E2F0" rx="12" ry="12" style="stroke:#181818;stroke-width:0.5;"/><text fill="#000000" font-family="sans-serif" font-size="14" lengthAdjust="spacing" textLength="104" x="389.5" y="79.5332">ParentController</text><ellipse cx="444.5" cy="49" fill="#E2E2F0" rx="12" ry="12" style="stroke:#181818;stroke-width:0.5;"/><polygon fill="#181818" points="440.5,37,446.5,32,444.5,37,446.5,42,440.5,37" style="stroke:#181818;stroke-width:1.0;"/><text fill="#000000" font-family="sans-serif" font-size="14" lengthAdjust="spacing" textLength="55" x="584" y="79.5332">PARENT</text><ellipse cx="614.5" cy="49" fill="#E2E2F0" rx="12" ry="12" style="stroke:#181818;stroke-width:0.5;"/><line style="stroke:#181818;stroke-width:0.5;" x1="602.5" x2="626.5" y1="63" y2="63"/><rect fill="#FFFFFF" height="248.5938" style="stroke:#181818;stroke-width:1.0;" width="10" x="37.5" y="210.1094"/><rect fill="#FFFFFF" height="761" style="stroke:#181818;stroke-width:1.0;" width="10" x="209.5" y="210.1094"/><rect fill="#FFFFFF" height="28" style="stroke:#181818;stroke-width:1.0;" width="10" x="214.5" y="248.4609"/><rect fill="#FFFFFF" height="28" style="stroke:#181818;stroke-width:1.0;" width="10" x="214.5" y="377.5156"/><rect fill="#FFFFFF" height="28" style="stroke:#181818;stroke-width:1.0;" width="10" x="214.5" y="733.5156"/><rect fill="#FFFFFF" height="413" style="stroke:#181818;stroke-width:1.0;" width="10" x="439.5" y="505.4063"/><rect fill="#FFFFFF" height="352.2969" style="stroke:#181818;stroke-width:1.0;" width="10" x="609.5" y="535.7578"/><rect fill="#FFFFFF" height="28" style="stroke:#181818;stroke-width:1.0;" width="10" x="614.5" y="574.1094"/><rect fill="#FFFFFF" height="28" style="stroke:#181818;stroke-width:1.0;" width="10" x="614.5" y="822.7031"/><path d="M10,99.6094 L75,99.6094 L75,107.9609 L65,117.9609 L10,117.9609 L10,99.6094 " fill="#EEEEEE" style="stroke:#000000;stroke-width:1.5;"/><rect fill="none" height="64.7969" style="stroke:#000000;stroke-width:1.5;" width="645" x="10" y="99.6094"/><text fill="#000000" font-family="sans-serif" font-size="13" font-weight="bold" lengthAdjust="spacing" textLength="20" x="25" y="114.1045">opt</text><text fill="#000000" font-family="sans-serif" font-size="11" font-weight="bold" lengthAdjust="spacing" textLength="46" x="90" y="113.0283">[Search]</text><rect fill="none" height="41.4453" style="stroke:#000000;stroke-width:1.5;" width="631" x="17" y="117.9609"/><path d="M17,117.9609 L79,117.9609 L79,125.9609 L69,135.9609 L17,135.9609 L17,117.9609 " fill="#EEEEEE" style="stroke:#000000;stroke-width:2.0;"/><text fill="#000000" font-family="sans-serif" font-size="13" font-weight="bold" lengthAdjust="spacing" textLength="17" x="30" y="133.4561">ref</text><text fill="#000000" font-family="sans-serif" font-size="12" lengthAdjust="spacing" textLength="137" x="264" y="152.418">Sequence Search Parent</text><polygon fill="#181818" points="197.5,206.1094,207.5,210.1094,197.5,214.1094,201.5,210.1094" style="stroke:#181818;stroke-width:1.0;"/><line style="stroke:#181818;stroke-width:1.0;" x1="47.5" x2="203.5" y1="210.1094" y2="210.1094"/><text fill="#000000" font-family="sans-serif" font-size="13" font-weight="bold" lengthAdjust="spacing" textLength="7" x="54.5" y="197.0771">1</text><text fill="#000000" font-family="sans-serif" font-size="13" lengthAdjust="spacing" textLength="77" x="65.5" y="188.9014">Select parent</text><text fill="#000000" font-family="sans-serif" font-size="13" lengthAdjust="spacing" textLength="84" x="69.5" y="205.2529">needs deleting</text><line style="stroke:#181818;stroke-width:1.0;" x1="224.5" x2="266.5" y1="240.4609" y2="240.4609"/><line style="stroke:#181818;stroke-width:1.0;" x1="266.5" x2="266.5" y1="240.4609" y2="253.4609"/><line style="stroke:#181818;stroke-width:1.0;" x1="225.5" x2="266.5" y1="253.4609" y2="253.4609"/><polygon fill="#181818" points="235.5,249.4609,225.5,253.4609,235.5,257.4609,231.5,253.4609" style="stroke:#181818;stroke-width:1.0;"/><text fill="#000000" font-family="sans-serif" font-size="13" font-weight="bold" lengthAdjust="spacing" textLength="7" x="231.5" y="235.6045">2</text><text fill="#000000" font-family="sans-serif" font-size="13" lengthAdjust="spacing" textLength="195" x="242.5" y="235.6045">Display confirmation messagebox</text><path d="M10,298.4609 L71,298.4609 L71,306.8125 L61,316.8125 L10,316.8125 L10,298.4609 " fill="#EEEEEE" style="stroke:#000000;stroke-width:1.5;"/><rect fill="none" height="694.6484" style="stroke:#000000;stroke-width:1.5;" width="727.5" x="10" y="298.4609"/><text fill="#000000" font-family="sans-serif" font-size="13" font-weight="bold" lengthAdjust="spacing" textLength="16" x="25" y="312.9561">alt</text><text fill="#000000" font-family="sans-serif" font-size="11" font-weight="bold" lengthAdjust="spacing" textLength="45" x="86" y="311.8799">[Cancel]</text><polygon fill="#181818" points="197.5,335.1641,207.5,339.1641,197.5,343.1641,201.5,339.1641" style="stroke:#181818;stroke-width:1.0;"/><line style="stroke:#181818;stroke-width:1.0;" x1="47.5" x2="203.5" y1="339.1641" y2="339.1641"/><text fill="#000000" font-family="sans-serif" font-size="13" font-weight="bold" lengthAdjust="spacing" textLength="7" x="54.5" y="334.3076">3</text><text fill="#000000" font-family="sans-serif" font-size="13" lengthAdjust="spacing" textLength="123" x="65.5" y="334.3076">Click "Cancel" button</text><line style="stroke:#181818;stroke-width:1.0;" x1="224.5" x2="266.5" y1="369.5156" y2="369.5156"/><line style="stroke:#181818;stroke-width:1.0;" x1="266.5" x2="266.5" y1="369.5156" y2="382.5156"/><line style="stroke:#181818;stroke-width:1.0;" x1="225.5" x2="266.5" y1="382.5156" y2="382.5156"/><polygon fill="#181818" points="235.5,378.5156,225.5,382.5156,235.5,386.5156,231.5,382.5156" style="stroke:#181818;stroke-width:1.0;"/><text fill="#000000" font-family="sans-serif" font-size="13" font-weight="bold" lengthAdjust="spacing" textLength="7" x="231.5" y="364.6592">4</text><text fill="#000000" font-family="sans-serif" font-size="13" lengthAdjust="spacing" textLength="189" x="242.5" y="364.6592">Close confirmation message box</text><line style="stroke:#000000;stroke-width:1.0;stroke-dasharray:2.0,2.0;" x1="10" x2="737.5" y1="421.5156" y2="421.5156"/><text fill="#000000" font-family="sans-serif" font-size="11" font-weight="bold" lengthAdjust="spacing" textLength="53" x="15" y="432.9346">[Confirm]</text><polygon fill="#181818" points="197.5,454.7031,207.5,458.7031,197.5,462.7031,201.5,458.7031" style="stroke:#181818;stroke-width:1.0;"/><line style="stroke:#181818;stroke-width:1.0;" x1="42.5" x2="203.5" y1="458.7031" y2="458.7031"/><text fill="#000000" font-family="sans-serif" font-size="13" font-weight="bold" lengthAdjust="spacing" textLength="7" x="49.5" y="453.8467">5</text><text fill="#000000" font-family="sans-serif" font-size="13" lengthAdjust="spacing" textLength="127" x="60.5" y="453.8467">Click "Confirm" button</text><polygon fill="#181818" points="427.5,501.4063,437.5,505.4063,427.5,509.4063,431.5,505.4063" style="stroke:#181818;stroke-width:1.0;"/><line style="stroke:#181818;stroke-width:1.0;" x1="219.5" x2="433.5" y1="505.4063" y2="505.4063"/><text fill="#000000" font-family="sans-serif" font-size="13" font-weight="bold" lengthAdjust="spacing" textLength="7" x="226.5" y="492.374">6</text><text fill="#000000" font-family="sans-serif" font-size="13" lengthAdjust="spacing" textLength="79" x="237.5" y="484.1982">Send deleting</text><text fill="#000000" font-family="sans-serif" font-size="13" lengthAdjust="spacing" textLength="136" x="237.5" y="500.5498">selected doctor request</text><polygon fill="#181818" points="597.5,531.7578,607.5,535.7578,597.5,539.7578,601.5,535.7578" style="stroke:#181818;stroke-width:1.0;"/><line style="stroke:#181818;stroke-width:1.0;" x1="449.5" x2="603.5" y1="535.7578" y2="535.7578"/><text fill="#000000" font-family="sans-serif" font-size="13" font-weight="bold" lengthAdjust="spacing" textLength="7" x="456.5" y="530.9014">7</text><text fill="#000000" font-family="sans-serif" font-size="13" lengthAdjust="spacing" textLength="130" x="467.5" y="530.9014">Delete selected parent</text><line style="stroke:#181818;stroke-width:1.0;" x1="624.5" x2="666.5" y1="566.1094" y2="566.1094"/><line style="stroke:#181818;stroke-width:1.0;" x1="666.5" x2="666.5" y1="566.1094" y2="579.1094"/><line style="stroke:#181818;stroke-width:1.0;" x1="625.5" x2="666.5" y1="579.1094" y2="579.1094"/><polygon fill="#181818" points="635.5,575.1094,625.5,579.1094,635.5,583.1094,631.5,579.1094" style="stroke:#181818;stroke-width:1.0;"/><text fill="#000000" font-family="sans-serif" font-size="13" font-weight="bold" lengthAdjust="spacing" textLength="7" x="631.5" y="561.2529">8</text><text fill="#000000" font-family="sans-serif" font-size="13" lengthAdjust="spacing" textLength="76" x="642.5" y="561.2529">Validate data</text><path d="M125,624.1094 L186,624.1094 L186,632.4609 L176,642.4609 L125,642.4609 L125,624.1094 " fill="#EEEEEE" style="stroke:#000000;stroke-width:1.5;"/><rect fill="none" height="362" style="stroke:#000000;stroke-width:1.5;" width="602.5" x="125" y="624.1094"/><text fill="#000000" font-family="sans-serif" font-size="13" font-weight="bold" lengthAdjust="spacing" textLength="16" x="140" y="638.6045">alt</text><text fill="#000000" font-family="sans-serif" font-size="11" font-weight="bold" lengthAdjust="spacing" textLength="69" x="201" y="637.5283">[Invalid data]</text><polygon fill="#181818" points="460.5,660.8125,450.5,664.8125,460.5,668.8125,456.5,664.8125" style="stroke:#181818;stroke-width:1.0;"/><line style="stroke:#181818;stroke-width:1.0;stroke-dasharray:2.0,2.0;" x1="454.5" x2="608.5" y1="664.8125" y2="664.8125"/><text fill="#000000" font-family="sans-serif" font-size="13" font-weight="bold" lengthAdjust="spacing" textLength="7" x="466.5" y="659.9561">9</text><text fill="#000000" font-family="sans-serif" font-size="13" lengthAdjust="spacing" textLength="94" x="477.5" y="659.9561">Error notification</text><polygon fill="#181818" points="230.5,691.1641,220.5,695.1641,230.5,699.1641,226.5,695.1641" style="stroke:#181818;stroke-width:1.0;"/><line style="stroke:#181818;stroke-width:1.0;stroke-dasharray:2.0,2.0;" x1="224.5" x2="438.5" y1="695.1641" y2="695.1641"/><text fill="#000000" font-family="sans-serif" font-size="13" font-weight="bold" lengthAdjust="spacing" textLength="14" x="236.5" y="690.3076">10</text><text fill="#000000" font-family="sans-serif" font-size="13" lengthAdjust="spacing" textLength="94" x="254.5" y="690.3076">Error notification</text><line style="stroke:#181818;stroke-width:1.0;" x1="224.5" x2="266.5" y1="725.5156" y2="725.5156"/><line style="stroke:#181818;stroke-width:1.0;" x1="266.5" x2="266.5" y1="725.5156" y2="738.5156"/><line style="stroke:#181818;stroke-width:1.0;" x1="225.5" x2="266.5" y1="738.5156" y2="738.5156"/><polygon fill="#181818" points="235.5,734.5156,225.5,738.5156,235.5,742.5156,231.5,738.5156" style="stroke:#181818;stroke-width:1.0;"/><text fill="#000000" font-family="sans-serif" font-size="13" font-weight="bold" lengthAdjust="spacing" textLength="14" x="231.5" y="720.6592">11</text><text fill="#000000" font-family="sans-serif" font-size="13" lengthAdjust="spacing" textLength="139" x="249.5" y="720.6592">Display error notification</text><line style="stroke:#000000;stroke-width:1.0;stroke-dasharray:2.0,2.0;" x1="125" x2="727.5" y1="777.5156" y2="777.5156"/><text fill="#000000" font-family="sans-serif" font-size="11" font-weight="bold" lengthAdjust="spacing" textLength="61" x="130" y="788.9346">[Valid data]</text><line style="stroke:#181818;stroke-width:1.0;" x1="624.5" x2="666.5" y1="814.7031" y2="814.7031"/><line style="stroke:#181818;stroke-width:1.0;" x1="666.5" x2="666.5" y1="814.7031" y2="827.7031"/><line style="stroke:#181818;stroke-width:1.0;" x1="625.5" x2="666.5" y1="827.7031" y2="827.7031"/><polygon fill="#181818" points="635.5,823.7031,625.5,827.7031,635.5,831.7031,631.5,827.7031" style="stroke:#181818;stroke-width:1.0;"/><text fill="#000000" font-family="sans-serif" font-size="13" font-weight="bold" lengthAdjust="spacing" textLength="14" x="631.5" y="809.8467">12</text><text fill="#000000" font-family="sans-serif" font-size="13" lengthAdjust="spacing" textLength="66" x="649.5" y="809.8467">Delete data</text><polygon fill="#181818" points="460.5,884.0547,450.5,888.0547,460.5,892.0547,456.5,888.0547" style="stroke:#181818;stroke-width:1.0;"/><line style="stroke:#181818;stroke-width:1.0;stroke-dasharray:2.0,2.0;" x1="454.5" x2="613.5" y1="888.0547" y2="888.0547"/><text fill="#000000" font-family="sans-serif" font-size="13" font-weight="bold" lengthAdjust="spacing" textLength="14" x="466.5" y="883.1982">13</text><text fill="#000000" font-family="sans-serif" font-size="13" lengthAdjust="spacing" textLength="117" x="484.5" y="883.1982">Success notification</text><polygon fill="#181818" points="230.5,914.4063,220.5,918.4063,230.5,922.4063,226.5,918.4063" style="stroke:#181818;stroke-width:1.0;"/><line style="stroke:#181818;stroke-width:1.0;stroke-dasharray:2.0,2.0;" x1="224.5" x2="443.5" y1="918.4063" y2="918.4063"/><text fill="#000000" font-family="sans-serif" font-size="13" font-weight="bold" lengthAdjust="spacing" textLength="14" x="236.5" y="913.5498">14</text><text fill="#000000" font-family="sans-serif" font-size="13" lengthAdjust="spacing" textLength="94" x="254.5" y="913.5498">Error notification</text><line style="stroke:#181818;stroke-width:1.0;" x1="219.5" x2="261.5" y1="970.1094" y2="970.1094"/><line style="stroke:#181818;stroke-width:1.0;" x1="261.5" x2="261.5" y1="970.1094" y2="983.1094"/><line style="stroke:#181818;stroke-width:1.0;" x1="214.5" x2="261.5" y1="983.1094" y2="983.1094"/><polygon fill="#181818" points="224.5,979.1094,214.5,983.1094,224.5,987.1094,220.5,983.1094" style="stroke:#181818;stroke-width:1.0;"/><text fill="#000000" font-family="sans-serif" font-size="13" font-weight="bold" lengthAdjust="spacing" textLength="14" x="226.5" y="957.0771">15</text><text fill="#000000" font-family="sans-serif" font-size="13" lengthAdjust="spacing" textLength="162" x="244.5" y="948.9014">Display success notification</text><text fill="#000000" font-family="sans-serif" font-size="13" lengthAdjust="spacing" textLength="103" x="244.5" y="965.2529">and list of parents</text><!--MD5=[28a5f6482ae47c45b44d6b0a441342dd]
@startuml DeleteParentSeq
autonumber
hide footbox

actor Admin
boundary ParentManagementView
control ParentController
entity PARENT

opt Search 
ref over Admin, ParentManagementView, ParentController, PARENT: Sequence Search Parent
end

Admin -> ParentManagementView: Select parent\n needs deleting
activate Admin
activate ParentManagementView
ParentManagementView -> ParentManagementView: Display confirmation messagebox
activate ParentManagementView
deactivate ParentManagementView
alt Cancel  
    Admin -> ParentManagementView: Click "Cancel" button
    ParentManagementView -> ParentManagementView: Close confirmation message box
    activate ParentManagementView
    deactivate ParentManagementView
else Confirm
    Admin -> ParentManagementView: Click "Confirm" button
    deactivate Admin
    ParentManagementView -> ParentController: Send deleting\nselected doctor request
    activate ParentController
    ParentController -> PARENT: Delete selected parent
    activate PARENT
    PARENT -> PARENT: Validate data
    activate PARENT
    deactivate PARENT
    alt Invalid data
        PARENT - -> ParentController: Error notification
        ParentController - -> ParentManagementView: Error notification
        ParentManagementView -> ParentManagementView: Display error notification
        activate ParentManagementView
        deactivate ParentManagementView
    else Valid data
        PARENT -> PARENT: Delete data
        activate PARENT
        deactivate PARENT
        PARENT - -> ParentController: Success notification
        deactivate PARENT
        ParentController - -> ParentManagementView: Error notification
        deactivate ParentController
        ParentManagementView -> ParentManagementView: Display success notification\nand list of parents
        deactivate ParentManagementView
    end
end
@enduml

PlantUML version 1.2022.7(Tue Aug 23 00:01:30 ICT 2022)
(GPL source distribution)
Java Runtime: Java(TM) SE Runtime Environment
JVM: Java HotSpot(TM) 64-Bit Server VM
Default Encoding: Cp1252
Language: en
Country: US
--></g></svg>