<?xml version="1.0" encoding="us-ascii" standalone="no"?><svg xmlns="http://www.w3.org/2000/svg" xmlns:xlink="http://www.w3.org/1999/xlink" contentStyleType="text/css" height="443px" preserveAspectRatio="none" style="width:663px;height:443px;background:#FFFFFF;" version="1.1" viewBox="0 0 663 443" width="663px" zoomAndPan="magnify"><defs/><g><rect fill="#FFFFFF" height="30" style="stroke:#181818;stroke-width:1.0;" width="10" x="26" y="127.5625"/><rect fill="#FFFFFF" height="284.0625" style="stroke:#181818;stroke-width:1.0;" width="10" x="197" y="127.5625"/><rect fill="#FFFFFF" height="174.6641" style="stroke:#181818;stroke-width:1.0;" width="10" x="383" y="201.8281"/><rect fill="#FFFFFF" height="101.2656" style="stroke:#181818;stroke-width:1.0;" width="10" x="549" y="246.0938"/><rect fill="#FFFFFF" height="28" style="stroke:#181818;stroke-width:1.0;" width="10" x="554" y="283.2266"/><line style="stroke:#181818;stroke-width:0.5;stroke-dasharray:5.0,5.0;" x1="31" x2="31" y1="81.2969" y2="436.625"/><line style="stroke:#181818;stroke-width:0.5;stroke-dasharray:5.0,5.0;" x1="202" x2="202" y1="81.2969" y2="436.625"/><line style="stroke:#181818;stroke-width:0.5;stroke-dasharray:5.0,5.0;" x1="387.5" x2="387.5" y1="81.2969" y2="436.625"/><line style="stroke:#181818;stroke-width:0.5;stroke-dasharray:5.0,5.0;" x1="553.5" x2="553.5" y1="81.2969" y2="436.625"/><text fill="#000000" font-family="sans-serif" font-size="14" lengthAdjust="spacing" textLength="46" x="5" y="77.9951">Admin</text><ellipse cx="31" cy="13.5" fill="#E2E2F0" rx="8" ry="8" style="stroke:#181818;stroke-width:0.5;"/><path d="M31,21.5 L31,48.5 M18,29.5 L44,29.5 M31,48.5 L18,63.5 M31,48.5 L44,63.5 " fill="none" style="stroke:#181818;stroke-width:0.5;"/><text fill="#000000" font-family="sans-serif" font-size="14" lengthAdjust="spacing" textLength="176" x="111" y="77.9951">ParentManagementView</text><path d="M181.5,37 L181.5,61 M181.5,49 L198.5,49 " fill="none" style="stroke:#181818;stroke-width:0.5;"/><ellipse cx="210.5" cy="49" fill="#E2E2F0" rx="12" ry="12" style="stroke:#181818;stroke-width:0.5;"/><text fill="#000000" font-family="sans-serif" font-size="14" lengthAdjust="spacing" textLength="121" x="324.5" y="77.9951">ParentController</text><ellipse cx="388" cy="49" fill="#E2E2F0" rx="12" ry="12" style="stroke:#181818;stroke-width:0.5;"/><polygon fill="#181818" points="384,37,390,32,388,37,390,42,384,37" style="stroke:#181818;stroke-width:1.0;"/><text fill="#000000" font-family="sans-serif" font-size="14" lengthAdjust="spacing" textLength="57" x="522.5" y="77.9951">PARENT</text><ellipse cx="554" cy="49" fill="#E2E2F0" rx="12" ry="12" style="stroke:#181818;stroke-width:0.5;"/><line style="stroke:#181818;stroke-width:0.5;" x1="542" x2="566" y1="63" y2="63"/><rect fill="#FFFFFF" height="30" style="stroke:#181818;stroke-width:1.0;" width="10" x="26" y="127.5625"/><rect fill="#FFFFFF" height="284.0625" style="stroke:#181818;stroke-width:1.0;" width="10" x="197" y="127.5625"/><rect fill="#FFFFFF" height="174.6641" style="stroke:#181818;stroke-width:1.0;" width="10" x="383" y="201.8281"/><rect fill="#FFFFFF" height="101.2656" style="stroke:#181818;stroke-width:1.0;" width="10" x="549" y="246.0938"/><rect fill="#FFFFFF" height="28" style="stroke:#181818;stroke-width:1.0;" width="10" x="554" y="283.2266"/><polygon fill="#181818" points="185,123.5625,195,127.5625,185,131.5625,189,127.5625" style="stroke:#181818;stroke-width:1.0;"/><line style="stroke:#181818;stroke-width:1.0;" x1="36" x2="191" y1="127.5625" y2="127.5625"/><text fill="#000000" font-family="sans-serif" font-size="13" font-weight="bold" lengthAdjust="spacing" textLength="9" x="43" y="114.9302">1</text><text fill="#000000" font-family="sans-serif" font-size="13" lengthAdjust="spacing" textLength="113" x="56" y="107.3638">Enters the search</text><text fill="#000000" font-family="sans-serif" font-size="13" lengthAdjust="spacing" textLength="134" x="56" y="122.4966">criteria in search box</text><polygon fill="#181818" points="371,197.8281,381,201.8281,371,205.8281,375,201.8281" style="stroke:#181818;stroke-width:1.0;"/><line style="stroke:#181818;stroke-width:1.0;" x1="207" x2="377" y1="201.8281" y2="201.8281"/><text fill="#000000" font-family="sans-serif" font-size="13" font-weight="bold" lengthAdjust="spacing" textLength="9" x="214" y="189.1958">2</text><text fill="#000000" font-family="sans-serif" font-size="13" lengthAdjust="spacing" textLength="144" x="227" y="181.6294">Send searching parent</text><text fill="#000000" font-family="sans-serif" font-size="13" lengthAdjust="spacing" textLength="127" x="227" y="196.7622">information request</text><polygon fill="#181818" points="537,242.0938,547,246.0938,537,250.0938,541,246.0938" style="stroke:#181818;stroke-width:1.0;"/><line style="stroke:#181818;stroke-width:1.0;" x1="393" x2="543" y1="246.0938" y2="246.0938"/><text fill="#000000" font-family="sans-serif" font-size="13" font-weight="bold" lengthAdjust="spacing" textLength="8" x="400" y="233.4614">3</text><text fill="#000000" font-family="sans-serif" font-size="13" lengthAdjust="spacing" textLength="125" x="412" y="225.895">Search parent base</text><text fill="#000000" font-family="sans-serif" font-size="13" lengthAdjust="spacing" textLength="121" x="412" y="241.0278">on given keywords</text><line style="stroke:#181818;stroke-width:1.0;" x1="564" x2="606" y1="275.2266" y2="275.2266"/><line style="stroke:#181818;stroke-width:1.0;" x1="606" x2="606" y1="275.2266" y2="288.2266"/><line style="stroke:#181818;stroke-width:1.0;" x1="565" x2="606" y1="288.2266" y2="288.2266"/><polygon fill="#181818" points="575,284.2266,565,288.2266,575,292.2266,571,288.2266" style="stroke:#181818;stroke-width:1.0;"/><text fill="#000000" font-family="sans-serif" font-size="13" font-weight="bold" lengthAdjust="spacing" textLength="9" x="571" y="270.1606">4</text><text fill="#000000" font-family="sans-serif" font-size="13" lengthAdjust="spacing" textLength="72" x="584" y="270.1606">Query data</text><polygon fill="#181818" points="404,343.3594,394,347.3594,404,351.3594,400,347.3594" style="stroke:#181818;stroke-width:1.0;"/><line style="stroke:#181818;stroke-width:1.0;stroke-dasharray:2.0,2.0;" x1="398" x2="553" y1="347.3594" y2="347.3594"/><text fill="#000000" font-family="sans-serif" font-size="13" font-weight="bold" lengthAdjust="spacing" textLength="9" x="410" y="342.2935">5</text><text fill="#000000" font-family="sans-serif" font-size="13" lengthAdjust="spacing" textLength="79" x="423" y="342.2935">Query result</text><polygon fill="#181818" points="218,372.4922,208,376.4922,218,380.4922,214,376.4922" style="stroke:#181818;stroke-width:1.0;"/><line style="stroke:#181818;stroke-width:1.0;stroke-dasharray:2.0,2.0;" x1="212" x2="387" y1="376.4922" y2="376.4922"/><text fill="#000000" font-family="sans-serif" font-size="13" font-weight="bold" lengthAdjust="spacing" textLength="9" x="224" y="371.4263">6</text><text fill="#000000" font-family="sans-serif" font-size="13" lengthAdjust="spacing" textLength="79" x="237" y="371.4263">Query result</text><line style="stroke:#181818;stroke-width:1.0;" x1="207" x2="249" y1="410.625" y2="410.625"/><line style="stroke:#181818;stroke-width:1.0;" x1="249" x2="249" y1="410.625" y2="423.625"/><line style="stroke:#181818;stroke-width:1.0;" x1="202" x2="249" y1="423.625" y2="423.625"/><polygon fill="#181818" points="212,419.625,202,423.625,212,427.625,208,423.625" style="stroke:#181818;stroke-width:1.0;"/><text fill="#000000" font-family="sans-serif" font-size="13" font-weight="bold" lengthAdjust="spacing" textLength="9" x="214" y="405.5591">7</text><text fill="#000000" font-family="sans-serif" font-size="13" lengthAdjust="spacing" textLength="139" x="227" y="405.5591">Display list of parents</text><!--SRC=[TP5DSeCm38NtFeKkq0jaqPbCcsKx_Pkks0WiG5EGKrjEokth0DDGS5OWMVhqz8HHdSI-96zQjWIrSrgw7sEmKkTXRtiMKxee5lq0B-X9z0a56-hJtoVJsLHErBjkVdoOeYu1KyIQclPlX-SFOqOMtDrdAJiuY98Fe2r18FHLMqZbEUKO8VLDERXeIzBuX4gpkhymgyxIgZnNTLLrbR-3Tn8xpsLfu3WM5C9IEz-ZiXFmz1qfw5h3meHrOXmrEd8PCEuqWQ74G8KaQCCd4lYYuUoy3GlsPEJqMN9U8wNZM5JS52_MNxLdLvv8daBiDDUxMURcEM-IyWRTkiSQ-yZXsE407GS5Ly_UXUs4_us_]--></g></svg>