<?xml version="1.0" encoding="UTF-8" standalone="no"?><svg xmlns="http://www.w3.org/2000/svg" xmlns:xlink="http://www.w3.org/1999/xlink" contentStyleType="text/css" height="727px" preserveAspectRatio="none" style="width:937px;height:727px;background:#FFFFFF;" version="1.1" viewBox="0 0 937 727" width="937px" zoomAndPan="magnify"><defs/><g><rect fill="#FFFFFF" height="282.6484" style="stroke:#181818;stroke-width:1.0;" width="10" x="37.5" y="158.3125"/><rect fill="#FFFFFF" height="572.4609" style="stroke:#181818;stroke-width:1.0;" width="10" x="238.5" y="122.9609"/><rect fill="#FFFFFF" height="414.7031" style="stroke:#181818;stroke-width:1.0;" width="10" x="447.5" y="244.3672"/><rect fill="#FFFFFF" height="120.0547" style="stroke:#181818;stroke-width:1.0;" width="10" x="651.5" y="274.7188"/><rect fill="#FFFFFF" height="28" style="stroke:#181818;stroke-width:1.0;" width="10" x="656.5" y="329.4219"/><rect fill="#FFFFFF" height="120.0547" style="stroke:#181818;stroke-width:1.0;" width="10" x="782.5" y="501.6641"/><rect fill="#FFFFFF" height="28" style="stroke:#181818;stroke-width:1.0;" width="10" x="787.5" y="556.3672"/><rect fill="none" height="456.4063" style="stroke:#000000;stroke-width:1.5;" width="920.5" x="10" y="173.3125"/><line style="stroke:#181818;stroke-width:0.5;stroke-dasharray:5.0,5.0;" x1="42" x2="42" y1="82.6094" y2="720.4219"/><line style="stroke:#181818;stroke-width:0.5;stroke-dasharray:5.0,5.0;" x1="243" x2="243" y1="82.6094" y2="720.4219"/><line style="stroke:#181818;stroke-width:0.5;stroke-dasharray:5.0,5.0;" x1="452" x2="452" y1="82.6094" y2="720.4219"/><line style="stroke:#181818;stroke-width:0.5;stroke-dasharray:5.0,5.0;" x1="656" x2="656" y1="82.6094" y2="720.4219"/><line style="stroke:#181818;stroke-width:0.5;stroke-dasharray:5.0,5.0;" x1="787.5" x2="787.5" y1="82.6094" y2="720.4219"/><text fill="#000000" font-family="sans-serif" font-size="14" lengthAdjust="spacing" textLength="39" x="20" y="79.5332">Admin</text><ellipse cx="42.5" cy="13.5" fill="#E2E2F0" rx="8" ry="8" style="stroke:#181818;stroke-width:0.5;"/><path d="M42.5,21.5 L42.5,48.5 M29.5,29.5 L55.5,29.5 M42.5,48.5 L29.5,63.5 M42.5,48.5 L55.5,63.5 " fill="none" style="stroke:#181818;stroke-width:0.5;"/><text fill="#000000" font-family="sans-serif" font-size="14" lengthAdjust="spacing" textLength="101" x="190" y="79.5332">UserReportView</text><path d="M223,37 L223,61 M223,49 L240,49 " fill="none" style="stroke:#181818;stroke-width:0.5;"/><ellipse cx="252" cy="49" fill="#E2E2F0" rx="12" ry="12" style="stroke:#181818;stroke-width:0.5;"/><text fill="#000000" font-family="sans-serif" font-size="14" lengthAdjust="spacing" textLength="105" x="397" y="79.5332">ReportController</text><ellipse cx="452.5" cy="49" fill="#E2E2F0" rx="12" ry="12" style="stroke:#181818;stroke-width:0.5;"/><polygon fill="#181818" points="448.5,37,454.5,32,452.5,37,454.5,42,448.5,37" style="stroke:#181818;stroke-width:1.0;"/><text fill="#000000" font-family="sans-serif" font-size="14" lengthAdjust="spacing" textLength="61" x="623" y="79.5332">DOCTOR</text><ellipse cx="656.5" cy="49" fill="#E2E2F0" rx="12" ry="12" style="stroke:#181818;stroke-width:0.5;"/><line style="stroke:#181818;stroke-width:0.5;" x1="644.5" x2="668.5" y1="63" y2="63"/><text fill="#000000" font-family="sans-serif" font-size="14" lengthAdjust="spacing" textLength="40" x="764.5" y="79.5332">CHILD</text><ellipse cx="787.5" cy="49" fill="#E2E2F0" rx="12" ry="12" style="stroke:#181818;stroke-width:0.5;"/><line style="stroke:#181818;stroke-width:0.5;" x1="775.5" x2="799.5" y1="63" y2="63"/><rect fill="#FFFFFF" height="282.6484" style="stroke:#181818;stroke-width:1.0;" width="10" x="37.5" y="158.3125"/><rect fill="#FFFFFF" height="572.4609" style="stroke:#181818;stroke-width:1.0;" width="10" x="238.5" y="122.9609"/><rect fill="#FFFFFF" height="414.7031" style="stroke:#181818;stroke-width:1.0;" width="10" x="447.5" y="244.3672"/><rect fill="#FFFFFF" height="120.0547" style="stroke:#181818;stroke-width:1.0;" width="10" x="651.5" y="274.7188"/><rect fill="#FFFFFF" height="28" style="stroke:#181818;stroke-width:1.0;" width="10" x="656.5" y="329.4219"/><rect fill="#FFFFFF" height="120.0547" style="stroke:#181818;stroke-width:1.0;" width="10" x="782.5" y="501.6641"/><rect fill="#FFFFFF" height="28" style="stroke:#181818;stroke-width:1.0;" width="10" x="787.5" y="556.3672"/><line style="stroke:#181818;stroke-width:1.0;" x1="243.5" x2="290.5" y1="109.9609" y2="109.9609"/><line style="stroke:#181818;stroke-width:1.0;" x1="290.5" x2="290.5" y1="109.9609" y2="122.9609"/><line style="stroke:#181818;stroke-width:1.0;" x1="249.5" x2="290.5" y1="122.9609" y2="122.9609"/><polygon fill="#181818" points="259.5,118.9609,249.5,122.9609,259.5,126.9609,255.5,122.9609" style="stroke:#181818;stroke-width:1.0;"/><text fill="#000000" font-family="sans-serif" font-size="13" font-weight="bold" lengthAdjust="spacing" textLength="7" x="255.5" y="105.1045">1</text><text fill="#000000" font-family="sans-serif" font-size="13" lengthAdjust="spacing" textLength="177" x="266.5" y="105.1045">Display with empty information</text><polygon fill="#181818" points="226.5,154.3125,236.5,158.3125,226.5,162.3125,230.5,158.3125" style="stroke:#181818;stroke-width:1.0;"/><line style="stroke:#181818;stroke-width:1.0;" x1="47.5" x2="232.5" y1="158.3125" y2="158.3125"/><text fill="#000000" font-family="sans-serif" font-size="13" font-weight="bold" lengthAdjust="spacing" textLength="7" x="54.5" y="153.4561">2</text><text fill="#000000" font-family="sans-serif" font-size="13" lengthAdjust="spacing" textLength="161" x="65.5" y="153.4561">Choose which type of report</text><path d="M10,173.3125 L71,173.3125 L71,181.6641 L61,191.6641 L10,191.6641 L10,173.3125 " fill="#EEEEEE" style="stroke:#000000;stroke-width:1.5;"/><rect fill="none" height="456.4063" style="stroke:#000000;stroke-width:1.5;" width="920.5" x="10" y="173.3125"/><text fill="#000000" font-family="sans-serif" font-size="13" font-weight="bold" lengthAdjust="spacing" textLength="16" x="25" y="187.8076">alt</text><text fill="#000000" font-family="sans-serif" font-size="11" font-weight="bold" lengthAdjust="spacing" textLength="84" x="86" y="186.7314">[Doctor Report]</text><polygon fill="#181818" points="226.5,210.0156,236.5,214.0156,226.5,218.0156,230.5,214.0156" style="stroke:#181818;stroke-width:1.0;"/><line style="stroke:#181818;stroke-width:1.0;" x1="47.5" x2="232.5" y1="214.0156" y2="214.0156"/><text fill="#000000" font-family="sans-serif" font-size="13" font-weight="bold" lengthAdjust="spacing" textLength="7" x="54.5" y="209.1592">3</text><text fill="#000000" font-family="sans-serif" font-size="13" lengthAdjust="spacing" textLength="109" x="65.5" y="209.1592">Choose timestamp</text><polygon fill="#181818" points="435.5,240.3672,445.5,244.3672,435.5,248.3672,439.5,244.3672" style="stroke:#181818;stroke-width:1.0;"/><line style="stroke:#181818;stroke-width:1.0;" x1="248.5" x2="441.5" y1="244.3672" y2="244.3672"/><text fill="#000000" font-family="sans-serif" font-size="13" font-weight="bold" lengthAdjust="spacing" textLength="7" x="255.5" y="239.5107">4</text><text fill="#000000" font-family="sans-serif" font-size="13" lengthAdjust="spacing" textLength="164" x="266.5" y="239.5107">Send data and time of report</text><polygon fill="#181818" points="639.5,270.7188,649.5,274.7188,639.5,278.7188,643.5,274.7188" style="stroke:#181818;stroke-width:1.0;"/><line style="stroke:#181818;stroke-width:1.0;" x1="457.5" x2="645.5" y1="274.7188" y2="274.7188"/><text fill="#000000" font-family="sans-serif" font-size="13" font-weight="bold" lengthAdjust="spacing" textLength="7" x="464.5" y="269.8623">5</text><text fill="#000000" font-family="sans-serif" font-size="13" lengthAdjust="spacing" textLength="164" x="475.5" y="269.8623">Send data and time of report</text><line style="stroke:#181818;stroke-width:1.0;" x1="666.5" x2="708.5" y1="321.4219" y2="321.4219"/><line style="stroke:#181818;stroke-width:1.0;" x1="708.5" x2="708.5" y1="321.4219" y2="334.4219"/><line style="stroke:#181818;stroke-width:1.0;" x1="667.5" x2="708.5" y1="334.4219" y2="334.4219"/><polygon fill="#181818" points="677.5,330.4219,667.5,334.4219,677.5,338.4219,673.5,334.4219" style="stroke:#181818;stroke-width:1.0;"/><text fill="#000000" font-family="sans-serif" font-size="13" font-weight="bold" lengthAdjust="spacing" textLength="7" x="673.5" y="308.3896">6</text><text fill="#000000" font-family="sans-serif" font-size="13" lengthAdjust="spacing" textLength="96" x="684.5" y="300.2139">Query data base</text><text fill="#000000" font-family="sans-serif" font-size="13" lengthAdjust="spacing" textLength="86" x="684.5" y="316.5654">on given option</text><polygon fill="#181818" points="468.5,390.7734,458.5,394.7734,468.5,398.7734,464.5,394.7734" style="stroke:#181818;stroke-width:1.0;"/><line style="stroke:#181818;stroke-width:1.0;stroke-dasharray:2.0,2.0;" x1="462.5" x2="655.5" y1="394.7734" y2="394.7734"/><text fill="#000000" font-family="sans-serif" font-size="13" font-weight="bold" lengthAdjust="spacing" textLength="7" x="474.5" y="389.917">7</text><text fill="#000000" font-family="sans-serif" font-size="13" lengthAdjust="spacing" textLength="71" x="485.5" y="389.917">Query result</text><line style="stroke:#000000;stroke-width:1.0;stroke-dasharray:2.0,2.0;" x1="10" x2="930.5" y1="403.7734" y2="403.7734"/><text fill="#000000" font-family="sans-serif" font-size="11" font-weight="bold" lengthAdjust="spacing" textLength="76" x="15" y="415.1924">[Child Report]</text><polygon fill="#181818" points="226.5,436.9609,236.5,440.9609,226.5,444.9609,230.5,440.9609" style="stroke:#181818;stroke-width:1.0;"/><line style="stroke:#181818;stroke-width:1.0;" x1="42.5" x2="232.5" y1="440.9609" y2="440.9609"/><text fill="#000000" font-family="sans-serif" font-size="13" font-weight="bold" lengthAdjust="spacing" textLength="7" x="49.5" y="436.1045">8</text><text fill="#000000" font-family="sans-serif" font-size="13" lengthAdjust="spacing" textLength="109" x="60.5" y="436.1045">Choose timestamp</text><polygon fill="#181818" points="435.5,467.3125,445.5,471.3125,435.5,475.3125,439.5,471.3125" style="stroke:#181818;stroke-width:1.0;"/><line style="stroke:#181818;stroke-width:1.0;" x1="248.5" x2="441.5" y1="471.3125" y2="471.3125"/><text fill="#000000" font-family="sans-serif" font-size="13" font-weight="bold" lengthAdjust="spacing" textLength="7" x="255.5" y="466.4561">9</text><text fill="#000000" font-family="sans-serif" font-size="13" lengthAdjust="spacing" textLength="164" x="266.5" y="466.4561">Send data and time of report</text><polygon fill="#181818" points="770.5,497.6641,780.5,501.6641,770.5,505.6641,774.5,501.6641" style="stroke:#181818;stroke-width:1.0;"/><line style="stroke:#181818;stroke-width:1.0;" x1="457.5" x2="776.5" y1="501.6641" y2="501.6641"/><text fill="#000000" font-family="sans-serif" font-size="13" font-weight="bold" lengthAdjust="spacing" textLength="14" x="464.5" y="496.8076">10</text><text fill="#000000" font-family="sans-serif" font-size="13" lengthAdjust="spacing" textLength="164" x="482.5" y="496.8076">Send data and time of report</text><line style="stroke:#181818;stroke-width:1.0;" x1="797.5" x2="839.5" y1="548.3672" y2="548.3672"/><line style="stroke:#181818;stroke-width:1.0;" x1="839.5" x2="839.5" y1="548.3672" y2="561.3672"/><line style="stroke:#181818;stroke-width:1.0;" x1="798.5" x2="839.5" y1="561.3672" y2="561.3672"/><polygon fill="#181818" points="808.5,557.3672,798.5,561.3672,808.5,565.3672,804.5,561.3672" style="stroke:#181818;stroke-width:1.0;"/><text fill="#000000" font-family="sans-serif" font-size="13" font-weight="bold" lengthAdjust="spacing" textLength="14" x="804.5" y="535.335">11</text><text fill="#000000" font-family="sans-serif" font-size="13" lengthAdjust="spacing" textLength="96" x="822.5" y="527.1592">Query data base</text><text fill="#000000" font-family="sans-serif" font-size="13" lengthAdjust="spacing" textLength="86" x="822.5" y="543.5107">on given option</text><polygon fill="#181818" points="468.5,617.7188,458.5,621.7188,468.5,625.7188,464.5,621.7188" style="stroke:#181818;stroke-width:1.0;"/><line style="stroke:#181818;stroke-width:1.0;stroke-dasharray:2.0,2.0;" x1="462.5" x2="786.5" y1="621.7188" y2="621.7188"/><text fill="#000000" font-family="sans-serif" font-size="13" font-weight="bold" lengthAdjust="spacing" textLength="14" x="474.5" y="616.8623">12</text><text fill="#000000" font-family="sans-serif" font-size="13" lengthAdjust="spacing" textLength="71" x="492.5" y="616.8623">Query result</text><polygon fill="#181818" points="259.5,655.0703,249.5,659.0703,259.5,663.0703,255.5,659.0703" style="stroke:#181818;stroke-width:1.0;"/><line style="stroke:#181818;stroke-width:1.0;stroke-dasharray:2.0,2.0;" x1="253.5" x2="451.5" y1="659.0703" y2="659.0703"/><text fill="#000000" font-family="sans-serif" font-size="13" font-weight="bold" lengthAdjust="spacing" textLength="14" x="265.5" y="654.2139">13</text><text fill="#000000" font-family="sans-serif" font-size="13" lengthAdjust="spacing" textLength="67" x="283.5" y="654.2139">Report data</text><line style="stroke:#181818;stroke-width:1.0;" x1="248.5" x2="290.5" y1="694.4219" y2="694.4219"/><line style="stroke:#181818;stroke-width:1.0;" x1="290.5" x2="290.5" y1="694.4219" y2="707.4219"/><line style="stroke:#181818;stroke-width:1.0;" x1="243.5" x2="290.5" y1="707.4219" y2="707.4219"/><polygon fill="#181818" points="253.5,703.4219,243.5,707.4219,253.5,711.4219,249.5,707.4219" style="stroke:#181818;stroke-width:1.0;"/><text fill="#000000" font-family="sans-serif" font-size="13" font-weight="bold" lengthAdjust="spacing" textLength="14" x="255.5" y="689.5654">14</text><text fill="#000000" font-family="sans-serif" font-size="13" lengthAdjust="spacing" textLength="109" x="273.5" y="689.5654">Display report data</text><!--MD5=[8b89754d318c57c391860a444ab1ec00]
@startuml ViewUserReportDocument
autonumber
hide footbox

actor Admin
boundary UserReportView
control ReportController
entity DOCTOR
entity CHILD

UserReportView -> UserReportView: Display with empty information
activate UserReportView
Admin -> UserReportView: Choose which type of report
activate Admin
alt Doctor Report
    Admin -> UserReportView: Choose timestamp 
    UserReportView -> ReportController: Send data and time of report 
    activate ReportController
    ReportController -> DOCTOR: Send data and time of report 
    activate DOCTOR
    DOCTOR -> DOCTOR: Query data base\non given option 
    activate DOCTOR
    deactivate DOCTOR
    DOCTOR - -> ReportController: Query result
    deactivate DOCTOR 
else Child Report  
    Admin -> UserReportView: Choose timestamp 
    deactivate Admin
    UserReportView -> ReportController: Send data and time of report 
    ReportController -> CHILD: Send data and time of report 
    activate CHILD
    CHILD -> CHILD: Query data base\non given option 
    activate CHILD
    deactivate CHILD
    CHILD - -> ReportController: Query result
    deactivate CHILD
end
    ReportController - -> UserReportView: Report data
    deactivate ReportController
    UserReportView -> UserReportView: Display report data
    deactivate UserReportView
@enduml

PlantUML version 1.2022.7(Tue Aug 23 00:01:30 ICT 2022)
(GPL source distribution)
Java Runtime: Java(TM) SE Runtime Environment
JVM: Java HotSpot(TM) 64-Bit Server VM
Default Encoding: Cp1252
Language: en
Country: US
--></g></svg>