<?xml version="1.0" encoding="UTF-8" standalone="no"?><svg xmlns="http://www.w3.org/2000/svg" xmlns:xlink="http://www.w3.org/1999/xlink" contentStyleType="text/css" height="1099px" preserveAspectRatio="none" style="width:870px;height:1099px;background:#FFFFFF;" version="1.1" viewBox="0 0 870 1099" width="870px" zoomAndPan="magnify"><defs/><g><rect fill="#FFFFFF" height="159.4063" style="stroke:#181818;stroke-width:1.0;" width="10" x="39" y="174.6641"/><rect fill="#FFFFFF" height="853.3516" style="stroke:#181818;stroke-width:1.0;" width="10" x="224" y="139.3125"/><rect fill="#FFFFFF" height="28" style="stroke:#181818;stroke-width:1.0;" width="10" x="229" y="243.3672"/><rect fill="#FFFFFF" height="28" style="stroke:#181818;stroke-width:1.0;" width="10" x="229" y="372.4219"/><rect fill="#FFFFFF" height="28" style="stroke:#181818;stroke-width:1.0;" width="10" x="229" y="681.7188"/><rect fill="#FFFFFF" height="28" style="stroke:#181818;stroke-width:1.0;" width="10" x="229" y="921.3125"/><rect fill="#FFFFFF" height="30" style="stroke:#181818;stroke-width:1.0;" width="10" x="405" y="1030.0156"/><rect fill="#FFFFFF" height="606.4063" style="stroke:#181818;stroke-width:1.0;" width="10" x="561" y="453.6094"/><rect fill="#FFFFFF" height="368.6484" style="stroke:#181818;stroke-width:1.0;" width="10" x="730" y="483.9609"/><rect fill="#FFFFFF" height="28" style="stroke:#181818;stroke-width:1.0;" width="10" x="735" y="522.3125"/><rect fill="#FFFFFF" height="28" style="stroke:#181818;stroke-width:1.0;" width="10" x="735" y="787.2578"/><rect fill="none" height="781.6484" style="stroke:#000000;stroke-width:1.5;" width="853" x="10" y="293.3672"/><rect fill="none" height="495.7031" style="stroke:#000000;stroke-width:1.5;" width="674" x="179" y="572.3125"/><line style="stroke:#181818;stroke-width:0.5;stroke-dasharray:5.0,5.0;" x1="44" x2="44" y1="82.6094" y2="1092.0156"/><line style="stroke:#181818;stroke-width:0.5;stroke-dasharray:5.0,5.0;" x1="229" x2="229" y1="82.6094" y2="1092.0156"/><line style="stroke:#181818;stroke-width:0.5;stroke-dasharray:5.0,5.0;" x1="409.5" x2="409.5" y1="82.6094" y2="1092.0156"/><line style="stroke:#181818;stroke-width:0.5;stroke-dasharray:5.0,5.0;" x1="565.5" x2="565.5" y1="82.6094" y2="1092.0156"/><line style="stroke:#181818;stroke-width:0.5;stroke-dasharray:5.0,5.0;" x1="734.5" x2="734.5" y1="82.6094" y2="1092.0156"/><text fill="#000000" font-family="sans-serif" font-size="14" lengthAdjust="spacing" textLength="42" x="20" y="79.5332">Parent</text><ellipse cx="44" cy="13.5" fill="#E2E2F0" rx="8" ry="8" style="stroke:#181818;stroke-width:0.5;"/><path d="M44,21.5 L44,48.5 M31,29.5 L57,29.5 M44,48.5 L31,63.5 M44,48.5 L57,63.5 " fill="none" style="stroke:#181818;stroke-width:0.5;"/><text fill="#000000" font-family="sans-serif" font-size="14" lengthAdjust="spacing" textLength="74" x="189" y="79.5332">SignUpView</text><path d="M208.5,37 L208.5,61 M208.5,49 L225.5,49 " fill="none" style="stroke:#181818;stroke-width:0.5;"/><ellipse cx="237.5" cy="49" fill="#E2E2F0" rx="12" ry="12" style="stroke:#181818;stroke-width:0.5;"/><text fill="#000000" font-family="sans-serif" font-size="14" lengthAdjust="spacing" textLength="65" x="374.5" y="79.5332">HomeView</text><path d="M389.5,37 L389.5,61 M389.5,49 L406.5,49 " fill="none" style="stroke:#181818;stroke-width:0.5;"/><ellipse cx="418.5" cy="49" fill="#E2E2F0" rx="12" ry="12" style="stroke:#181818;stroke-width:0.5;"/><text fill="#000000" font-family="sans-serif" font-size="14" lengthAdjust="spacing" textLength="113" x="506.5" y="79.5332">AccountController</text><ellipse cx="566" cy="49" fill="#E2E2F0" rx="12" ry="12" style="stroke:#181818;stroke-width:0.5;"/><polygon fill="#181818" points="562,37,568,32,566,37,568,42,562,37" style="stroke:#181818;stroke-width:1.0;"/><text fill="#000000" font-family="sans-serif" font-size="14" lengthAdjust="spacing" textLength="55" x="704.5" y="79.5332">PARENT</text><ellipse cx="735" cy="49" fill="#E2E2F0" rx="12" ry="12" style="stroke:#181818;stroke-width:0.5;"/><line style="stroke:#181818;stroke-width:0.5;" x1="723" x2="747" y1="63" y2="63"/><rect fill="#FFFFFF" height="159.4063" style="stroke:#181818;stroke-width:1.0;" width="10" x="39" y="174.6641"/><rect fill="#FFFFFF" height="853.3516" style="stroke:#181818;stroke-width:1.0;" width="10" x="224" y="139.3125"/><rect fill="#FFFFFF" height="28" style="stroke:#181818;stroke-width:1.0;" width="10" x="229" y="243.3672"/><rect fill="#FFFFFF" height="28" style="stroke:#181818;stroke-width:1.0;" width="10" x="229" y="372.4219"/><rect fill="#FFFFFF" height="28" style="stroke:#181818;stroke-width:1.0;" width="10" x="229" y="681.7188"/><rect fill="#FFFFFF" height="28" style="stroke:#181818;stroke-width:1.0;" width="10" x="229" y="921.3125"/><rect fill="#FFFFFF" height="30" style="stroke:#181818;stroke-width:1.0;" width="10" x="405" y="1030.0156"/><rect fill="#FFFFFF" height="606.4063" style="stroke:#181818;stroke-width:1.0;" width="10" x="561" y="453.6094"/><rect fill="#FFFFFF" height="368.6484" style="stroke:#181818;stroke-width:1.0;" width="10" x="730" y="483.9609"/><rect fill="#FFFFFF" height="28" style="stroke:#181818;stroke-width:1.0;" width="10" x="735" y="522.3125"/><rect fill="#FFFFFF" height="28" style="stroke:#181818;stroke-width:1.0;" width="10" x="735" y="787.2578"/><line style="stroke:#181818;stroke-width:1.0;" x1="229" x2="276" y1="126.3125" y2="126.3125"/><line style="stroke:#181818;stroke-width:1.0;" x1="276" x2="276" y1="126.3125" y2="139.3125"/><line style="stroke:#181818;stroke-width:1.0;" x1="235" x2="276" y1="139.3125" y2="139.3125"/><polygon fill="#181818" points="245,135.3125,235,139.3125,245,143.3125,241,139.3125" style="stroke:#181818;stroke-width:1.0;"/><text fill="#000000" font-family="sans-serif" font-size="13" font-weight="bold" lengthAdjust="spacing" textLength="7" x="241" y="113.2803">1</text><text fill="#000000" font-family="sans-serif" font-size="13" lengthAdjust="spacing" textLength="43" x="252" y="105.1045">Display</text><text fill="#000000" font-family="sans-serif" font-size="13" lengthAdjust="spacing" textLength="70" x="252" y="121.4561">sign up view</text><polygon fill="#181818" points="212,170.6641,222,174.6641,212,178.6641,216,174.6641" style="stroke:#181818;stroke-width:1.0;"/><line style="stroke:#181818;stroke-width:1.0;" x1="49" x2="218" y1="174.6641" y2="174.6641"/><text fill="#000000" font-family="sans-serif" font-size="13" font-weight="bold" lengthAdjust="spacing" textLength="7" x="56" y="169.8076">2</text><text fill="#000000" font-family="sans-serif" font-size="13" lengthAdjust="spacing" textLength="145" x="67" y="169.8076">Enter register information</text><polygon fill="#181818" points="212,201.0156,222,205.0156,212,209.0156,216,205.0156" style="stroke:#181818;stroke-width:1.0;"/><line style="stroke:#181818;stroke-width:1.0;" x1="49" x2="218" y1="205.0156" y2="205.0156"/><text fill="#000000" font-family="sans-serif" font-size="13" font-weight="bold" lengthAdjust="spacing" textLength="7" x="56" y="200.1592">3</text><text fill="#000000" font-family="sans-serif" font-size="13" lengthAdjust="spacing" textLength="129" x="67" y="200.1592">Click button "Sign Up"</text><line style="stroke:#181818;stroke-width:1.0;" x1="239" x2="281" y1="235.3672" y2="235.3672"/><line style="stroke:#181818;stroke-width:1.0;" x1="281" x2="281" y1="235.3672" y2="248.3672"/><line style="stroke:#181818;stroke-width:1.0;" x1="240" x2="281" y1="248.3672" y2="248.3672"/><polygon fill="#181818" points="250,244.3672,240,248.3672,250,252.3672,246,248.3672" style="stroke:#181818;stroke-width:1.0;"/><text fill="#000000" font-family="sans-serif" font-size="13" font-weight="bold" lengthAdjust="spacing" textLength="7" x="246" y="230.5107">4</text><text fill="#000000" font-family="sans-serif" font-size="13" lengthAdjust="spacing" textLength="116" x="257" y="230.5107">Validate data format</text><path d="M10,293.3672 L71,293.3672 L71,301.7188 L61,311.7188 L10,311.7188 L10,293.3672 " fill="#EEEEEE" style="stroke:#000000;stroke-width:1.5;"/><rect fill="none" height="781.6484" style="stroke:#000000;stroke-width:1.5;" width="853" x="10" y="293.3672"/><text fill="#000000" font-family="sans-serif" font-size="13" font-weight="bold" lengthAdjust="spacing" textLength="16" x="25" y="307.8623">alt</text><text fill="#000000" font-family="sans-serif" font-size="11" font-weight="bold" lengthAdjust="spacing" textLength="69" x="86" y="306.7861">[Invalid data]</text><polygon fill="#181818" points="55,330.0703,45,334.0703,55,338.0703,51,334.0703" style="stroke:#181818;stroke-width:1.0;"/><line style="stroke:#181818;stroke-width:1.0;stroke-dasharray:2.0,2.0;" x1="49" x2="223" y1="334.0703" y2="334.0703"/><text fill="#000000" font-family="sans-serif" font-size="13" font-weight="bold" lengthAdjust="spacing" textLength="7" x="61" y="329.2139">5</text><text fill="#000000" font-family="sans-serif" font-size="13" lengthAdjust="spacing" textLength="94" x="72" y="329.2139">Error notification</text><line style="stroke:#181818;stroke-width:1.0;" x1="239" x2="281" y1="364.4219" y2="364.4219"/><line style="stroke:#181818;stroke-width:1.0;" x1="281" x2="281" y1="364.4219" y2="377.4219"/><line style="stroke:#181818;stroke-width:1.0;" x1="240" x2="281" y1="377.4219" y2="377.4219"/><polygon fill="#181818" points="250,373.4219,240,377.4219,250,381.4219,246,377.4219" style="stroke:#181818;stroke-width:1.0;"/><text fill="#000000" font-family="sans-serif" font-size="13" font-weight="bold" lengthAdjust="spacing" textLength="7" x="246" y="359.5654">6</text><text fill="#000000" font-family="sans-serif" font-size="13" lengthAdjust="spacing" textLength="139" x="257" y="359.5654">Display error notification</text><line style="stroke:#000000;stroke-width:1.0;stroke-dasharray:2.0,2.0;" x1="10" x2="863" y1="416.4219" y2="416.4219"/><text fill="#000000" font-family="sans-serif" font-size="11" font-weight="bold" lengthAdjust="spacing" textLength="61" x="15" y="427.8408">[Valid data]</text><polygon fill="#181818" points="549,449.6094,559,453.6094,549,457.6094,553,453.6094" style="stroke:#181818;stroke-width:1.0;"/><line style="stroke:#181818;stroke-width:1.0;" x1="234" x2="555" y1="453.6094" y2="453.6094"/><text fill="#000000" font-family="sans-serif" font-size="13" font-weight="bold" lengthAdjust="spacing" textLength="7" x="241" y="448.7529">7</text><text fill="#000000" font-family="sans-serif" font-size="13" lengthAdjust="spacing" textLength="126" x="252" y="448.7529">Send user information</text><polygon fill="#181818" points="718,479.9609,728,483.9609,718,487.9609,722,483.9609" style="stroke:#181818;stroke-width:1.0;"/><line style="stroke:#181818;stroke-width:1.0;" x1="571" x2="724" y1="483.9609" y2="483.9609"/><text fill="#000000" font-family="sans-serif" font-size="13" font-weight="bold" lengthAdjust="spacing" textLength="7" x="578" y="479.1045">8</text><text fill="#000000" font-family="sans-serif" font-size="13" lengthAdjust="spacing" textLength="126" x="589" y="479.1045">Send user information</text><line style="stroke:#181818;stroke-width:1.0;" x1="745" x2="787" y1="514.3125" y2="514.3125"/><line style="stroke:#181818;stroke-width:1.0;" x1="787" x2="787" y1="514.3125" y2="527.3125"/><line style="stroke:#181818;stroke-width:1.0;" x1="746" x2="787" y1="527.3125" y2="527.3125"/><polygon fill="#181818" points="756,523.3125,746,527.3125,756,531.3125,752,527.3125" style="stroke:#181818;stroke-width:1.0;"/><text fill="#000000" font-family="sans-serif" font-size="13" font-weight="bold" lengthAdjust="spacing" textLength="7" x="752" y="509.4561">9</text><text fill="#000000" font-family="sans-serif" font-size="13" lengthAdjust="spacing" textLength="76" x="763" y="509.4561">Validate data</text><path d="M179,572.3125 L240,572.3125 L240,580.6641 L230,590.6641 L179,590.6641 L179,572.3125 " fill="#EEEEEE" style="stroke:#000000;stroke-width:1.5;"/><rect fill="none" height="495.7031" style="stroke:#000000;stroke-width:1.5;" width="674" x="179" y="572.3125"/><text fill="#000000" font-family="sans-serif" font-size="13" font-weight="bold" lengthAdjust="spacing" textLength="16" x="194" y="586.8076">alt</text><text fill="#000000" font-family="sans-serif" font-size="11" font-weight="bold" lengthAdjust="spacing" textLength="69" x="255" y="585.7314">[Invalid data]</text><polygon fill="#181818" points="582,609.0156,572,613.0156,582,617.0156,578,613.0156" style="stroke:#181818;stroke-width:1.0;"/><line style="stroke:#181818;stroke-width:1.0;stroke-dasharray:2.0,2.0;" x1="576" x2="729" y1="613.0156" y2="613.0156"/><text fill="#000000" font-family="sans-serif" font-size="13" font-weight="bold" lengthAdjust="spacing" textLength="14" x="588" y="608.1592">10</text><text fill="#000000" font-family="sans-serif" font-size="13" lengthAdjust="spacing" textLength="94" x="606" y="608.1592">Error notification</text><polygon fill="#181818" points="245,639.3672,235,643.3672,245,647.3672,241,643.3672" style="stroke:#181818;stroke-width:1.0;"/><line style="stroke:#181818;stroke-width:1.0;stroke-dasharray:2.0,2.0;" x1="239" x2="560" y1="643.3672" y2="643.3672"/><text fill="#000000" font-family="sans-serif" font-size="13" font-weight="bold" lengthAdjust="spacing" textLength="14" x="251" y="638.5107">11</text><text fill="#000000" font-family="sans-serif" font-size="13" lengthAdjust="spacing" textLength="94" x="269" y="638.5107">Error notification</text><line style="stroke:#181818;stroke-width:1.0;" x1="239" x2="281" y1="673.7188" y2="673.7188"/><line style="stroke:#181818;stroke-width:1.0;" x1="281" x2="281" y1="673.7188" y2="686.7188"/><line style="stroke:#181818;stroke-width:1.0;" x1="240" x2="281" y1="686.7188" y2="686.7188"/><polygon fill="#181818" points="250,682.7188,240,686.7188,250,690.7188,246,686.7188" style="stroke:#181818;stroke-width:1.0;"/><text fill="#000000" font-family="sans-serif" font-size="13" font-weight="bold" lengthAdjust="spacing" textLength="14" x="246" y="668.8623">12</text><text fill="#000000" font-family="sans-serif" font-size="13" lengthAdjust="spacing" textLength="139" x="264" y="668.8623">Display error notification</text><line style="stroke:#000000;stroke-width:1.0;stroke-dasharray:2.0,2.0;" x1="179" x2="853" y1="725.7188" y2="725.7188"/><text fill="#000000" font-family="sans-serif" font-size="11" font-weight="bold" lengthAdjust="spacing" textLength="61" x="184" y="737.1377">[Valid data]</text><line style="stroke:#181818;stroke-width:1.0;" x1="745" x2="787" y1="779.2578" y2="779.2578"/><line style="stroke:#181818;stroke-width:1.0;" x1="787" x2="787" y1="779.2578" y2="792.2578"/><line style="stroke:#181818;stroke-width:1.0;" x1="746" x2="787" y1="792.2578" y2="792.2578"/><polygon fill="#181818" points="756,788.2578,746,792.2578,756,796.2578,752,792.2578" style="stroke:#181818;stroke-width:1.0;"/><text fill="#000000" font-family="sans-serif" font-size="13" font-weight="bold" lengthAdjust="spacing" textLength="14" x="752" y="766.2256">13</text><text fill="#000000" font-family="sans-serif" font-size="13" lengthAdjust="spacing" textLength="71" x="770" y="758.0498">Store parent</text><text fill="#000000" font-family="sans-serif" font-size="13" lengthAdjust="spacing" textLength="63" x="770" y="774.4014">information</text><polygon fill="#181818" points="582,848.6094,572,852.6094,582,856.6094,578,852.6094" style="stroke:#181818;stroke-width:1.0;"/><line style="stroke:#181818;stroke-width:1.0;stroke-dasharray:2.0,2.0;" x1="576" x2="734" y1="852.6094" y2="852.6094"/><text fill="#000000" font-family="sans-serif" font-size="13" font-weight="bold" lengthAdjust="spacing" textLength="14" x="588" y="847.7529">14</text><text fill="#000000" font-family="sans-serif" font-size="13" lengthAdjust="spacing" textLength="117" x="606" y="847.7529">Success notification</text><polygon fill="#181818" points="245,878.9609,235,882.9609,245,886.9609,241,882.9609" style="stroke:#181818;stroke-width:1.0;"/><line style="stroke:#181818;stroke-width:1.0;stroke-dasharray:2.0,2.0;" x1="239" x2="560" y1="882.9609" y2="882.9609"/><text fill="#000000" font-family="sans-serif" font-size="13" font-weight="bold" lengthAdjust="spacing" textLength="14" x="251" y="878.1045">15</text><text fill="#000000" font-family="sans-serif" font-size="13" lengthAdjust="spacing" textLength="117" x="269" y="878.1045">Success notification</text><line style="stroke:#181818;stroke-width:1.0;" x1="239" x2="281" y1="913.3125" y2="913.3125"/><line style="stroke:#181818;stroke-width:1.0;" x1="281" x2="281" y1="913.3125" y2="926.3125"/><line style="stroke:#181818;stroke-width:1.0;" x1="240" x2="281" y1="926.3125" y2="926.3125"/><polygon fill="#181818" points="250,922.3125,240,926.3125,250,930.3125,246,926.3125" style="stroke:#181818;stroke-width:1.0;"/><text fill="#000000" font-family="sans-serif" font-size="13" font-weight="bold" lengthAdjust="spacing" textLength="14" x="246" y="908.4561">16</text><text fill="#000000" font-family="sans-serif" font-size="13" lengthAdjust="spacing" textLength="121" x="264" y="908.4561">Automatically sign in</text><line style="stroke:#181818;stroke-width:1.0;" x1="234" x2="276" y1="991.6641" y2="991.6641"/><line style="stroke:#181818;stroke-width:1.0;" x1="276" x2="276" y1="991.6641" y2="1004.6641"/><line style="stroke:#181818;stroke-width:1.0;" x1="229" x2="276" y1="1004.6641" y2="1004.6641"/><polygon fill="#181818" points="239,1000.6641,229,1004.6641,239,1008.6641,235,1004.6641" style="stroke:#181818;stroke-width:1.0;"/><text fill="#000000" font-family="sans-serif" font-size="13" font-weight="bold" lengthAdjust="spacing" textLength="14" x="241" y="986.8076">17</text><text fill="#000000" font-family="sans-serif" font-size="13" lengthAdjust="spacing" textLength="107" x="259" y="986.8076">Close SignUpView</text><polygon fill="#181818" points="426,1026.0156,416,1030.0156,426,1034.0156,422,1030.0156" style="stroke:#181818;stroke-width:1.0;"/><line style="stroke:#181818;stroke-width:1.0;" x1="420" x2="560" y1="1030.0156" y2="1030.0156"/><text fill="#000000" font-family="sans-serif" font-size="13" font-weight="bold" lengthAdjust="spacing" textLength="14" x="432" y="1025.1592">18</text><text fill="#000000" font-family="sans-serif" font-size="13" lengthAdjust="spacing" textLength="109" x="450" y="1025.1592">Display HomeView</text><!--MD5=[1891bc2f6d120c71eb5de65e7c32688c]
@startuml SignUp
autonumber
hide footbox

actor Parent
boundary SignUpView
boundary HomeView   
control AccountController
entity PARENT

SignUpView -> SignUpView: Display\nsign up view
activate SignUpView
Parent -> SignUpView : Enter register information
activate Parent
Parent -> SignUpView : Click button "Sign Up"
SignUpView -> SignUpView: Validate data format
    activate SignUpView
    deactivate SignUpView  
alt Invalid data
    SignUpView - -> Parent: Error notification
    deactivate Parent
    SignUpView -> SignUpView: Display error notification
    activate SignUpView
    deactivate SignUpView   
else Valid data
    SignUpView -> AccountController: Send user information
    activate AccountController
    AccountController -> PARENT: Send user information
    activate PARENT
    PARENT -> PARENT: Validate data
    activate PARENT
    deactivate PARENT
    alt Invalid data
        PARENT - -> AccountController: Error notification    
        AccountController - -> SignUpView: Error notification
        SignUpView -> SignUpView: Display error notification
        activate SignUpView
        deactivate SignUpView  
    else Valid data
        PARENT -> PARENT: Store parent\ninformation
        activate PARENT
        deactivate PARENT
        PARENT - -> AccountController: Success notification    
        deactivate PARENT
        AccountController - -> SignUpView: Success notification
        SignUpView -> SignUpView: Automatically sign in 
        activate SignUpView
        deactivate SignUpView  
        SignUpView -> SignUpView: Close SignUpView
        deactivate SignUpView
        AccountController -> HomeView: Display HomeView
        activate HomeView
        deactivate HomeView
        deactivate AccountController
    end
end
@enduml

PlantUML version 1.2022.7(Tue Aug 23 00:01:30 ICT 2022)
(GPL source distribution)
Java Runtime: Java(TM) SE Runtime Environment
JVM: Java HotSpot(TM) 64-Bit Server VM
Default Encoding: Cp1252
Language: en
Country: US
--></g></svg>