<?xml version="1.0" encoding="UTF-8" standalone="no"?><svg xmlns="http://www.w3.org/2000/svg" xmlns:xlink="http://www.w3.org/1999/xlink" contentStyleType="text/css" height="619px" preserveAspectRatio="none" style="width:573px;height:619px;background:#FFFFFF;" version="1.1" viewBox="0 0 573 619" width="573px" zoomAndPan="magnify"><defs/><g><rect fill="#FFFFFF" height="324.1875" style="stroke:#181818;stroke-width:1.0;" width="10" x="37.5" y="279.3672"/><rect fill="#FFFFFF" height="427.8906" style="stroke:#181818;stroke-width:1.0;" width="10" x="170.5" y="175.6641"/><rect fill="#FFFFFF" height="28" style="stroke:#181818;stroke-width:1.0;" width="10" x="175.5" y="214.0156"/><rect fill="#FFFFFF" height="60.7031" style="stroke:#181818;stroke-width:1.0;" width="10" x="351.5" y="114.9609"/><rect fill="#FFFFFF" height="30.3516" style="stroke:#181818;stroke-width:1.0;" width="10" x="510.5" y="114.9609"/><rect fill="none" height="64.7969" style="stroke:#000000;stroke-width:1.5;" width="557.5" x="10" y="294.3672"/><rect fill="none" height="64.7969" style="stroke:#000000;stroke-width:1.5;" width="557.5" x="10" y="373.1641"/><rect fill="none" height="64.7969" style="stroke:#000000;stroke-width:1.5;" width="557.5" x="10" y="451.9609"/><rect fill="none" height="64.7969" style="stroke:#000000;stroke-width:1.5;" width="557.5" x="10" y="530.7578"/><line style="stroke:#181818;stroke-width:0.5;stroke-dasharray:5.0,5.0;" x1="42" x2="42" y1="82.6094" y2="612.5547"/><line style="stroke:#181818;stroke-width:0.5;stroke-dasharray:5.0,5.0;" x1="175" x2="175" y1="82.6094" y2="612.5547"/><line style="stroke:#181818;stroke-width:0.5;stroke-dasharray:5.0,5.0;" x1="356.5" x2="356.5" y1="82.6094" y2="612.5547"/><line style="stroke:#181818;stroke-width:0.5;stroke-dasharray:5.0,5.0;" x1="515.5" x2="515.5" y1="82.6094" y2="612.5547"/><text fill="#000000" font-family="sans-serif" font-size="14" lengthAdjust="spacing" textLength="39" x="20" y="79.5332">Admin</text><ellipse cx="42.5" cy="13.5" fill="#E2E2F0" rx="8" ry="8" style="stroke:#181818;stroke-width:0.5;"/><path d="M42.5,21.5 L42.5,48.5 M29.5,29.5 L55.5,29.5 M42.5,48.5 L29.5,63.5 M42.5,48.5 L55.5,63.5 " fill="none" style="stroke:#181818;stroke-width:0.5;"/><text fill="#000000" font-family="sans-serif" font-size="14" lengthAdjust="spacing" textLength="175" x="85" y="79.5332">DocumentManagementView</text><path d="M155,37 L155,61 M155,49 L172,49 " fill="none" style="stroke:#181818;stroke-width:0.5;"/><ellipse cx="184" cy="49" fill="#E2E2F0" rx="12" ry="12" style="stroke:#181818;stroke-width:0.5;"/><text fill="#000000" font-family="sans-serif" font-size="14" lengthAdjust="spacing" textLength="126" x="290.5" y="79.5332">DocumentController</text><ellipse cx="356.5" cy="49" fill="#E2E2F0" rx="12" ry="12" style="stroke:#181818;stroke-width:0.5;"/><polygon fill="#181818" points="352.5,37,358.5,32,356.5,37,358.5,42,352.5,37" style="stroke:#181818;stroke-width:1.0;"/><text fill="#000000" font-family="sans-serif" font-size="14" lengthAdjust="spacing" textLength="78" x="473.5" y="79.5332">DOCUMENT</text><ellipse cx="515.5" cy="49" fill="#E2E2F0" rx="12" ry="12" style="stroke:#181818;stroke-width:0.5;"/><line style="stroke:#181818;stroke-width:0.5;" x1="503.5" x2="527.5" y1="63" y2="63"/><rect fill="#FFFFFF" height="324.1875" style="stroke:#181818;stroke-width:1.0;" width="10" x="37.5" y="279.3672"/><rect fill="#FFFFFF" height="427.8906" style="stroke:#181818;stroke-width:1.0;" width="10" x="170.5" y="175.6641"/><rect fill="#FFFFFF" height="28" style="stroke:#181818;stroke-width:1.0;" width="10" x="175.5" y="214.0156"/><rect fill="#FFFFFF" height="60.7031" style="stroke:#181818;stroke-width:1.0;" width="10" x="351.5" y="114.9609"/><rect fill="#FFFFFF" height="30.3516" style="stroke:#181818;stroke-width:1.0;" width="10" x="510.5" y="114.9609"/><polygon fill="#181818" points="498.5,110.9609,508.5,114.9609,498.5,118.9609,502.5,114.9609" style="stroke:#181818;stroke-width:1.0;"/><line style="stroke:#181818;stroke-width:1.0;" x1="361.5" x2="504.5" y1="114.9609" y2="114.9609"/><text fill="#000000" font-family="sans-serif" font-size="13" font-weight="bold" lengthAdjust="spacing" textLength="7" x="368.5" y="110.1045">1</text><text fill="#000000" font-family="sans-serif" font-size="13" lengthAdjust="spacing" textLength="124" x="379.5" y="110.1045">Get list of documents</text><polygon fill="#181818" points="372.5,141.3125,362.5,145.3125,372.5,149.3125,368.5,145.3125" style="stroke:#181818;stroke-width:1.0;"/><line style="stroke:#181818;stroke-width:1.0;stroke-dasharray:2.0,2.0;" x1="366.5" x2="514.5" y1="145.3125" y2="145.3125"/><text fill="#000000" font-family="sans-serif" font-size="13" font-weight="bold" lengthAdjust="spacing" textLength="7" x="378.5" y="140.4561">2</text><text fill="#000000" font-family="sans-serif" font-size="13" lengthAdjust="spacing" textLength="103" x="389.5" y="140.4561">List of documents</text><polygon fill="#181818" points="191.5,171.6641,181.5,175.6641,191.5,179.6641,187.5,175.6641" style="stroke:#181818;stroke-width:1.0;"/><line style="stroke:#181818;stroke-width:1.0;stroke-dasharray:2.0,2.0;" x1="185.5" x2="355.5" y1="175.6641" y2="175.6641"/><text fill="#000000" font-family="sans-serif" font-size="13" font-weight="bold" lengthAdjust="spacing" textLength="7" x="197.5" y="170.8076">3</text><text fill="#000000" font-family="sans-serif" font-size="13" lengthAdjust="spacing" textLength="103" x="208.5" y="170.8076">List of documents</text><line style="stroke:#181818;stroke-width:1.0;" x1="185.5" x2="227.5" y1="206.0156" y2="206.0156"/><line style="stroke:#181818;stroke-width:1.0;" x1="227.5" x2="227.5" y1="206.0156" y2="219.0156"/><line style="stroke:#181818;stroke-width:1.0;" x1="186.5" x2="227.5" y1="219.0156" y2="219.0156"/><polygon fill="#181818" points="196.5,215.0156,186.5,219.0156,196.5,223.0156,192.5,219.0156" style="stroke:#181818;stroke-width:1.0;"/><text fill="#000000" font-family="sans-serif" font-size="13" font-weight="bold" lengthAdjust="spacing" textLength="7" x="192.5" y="201.1592">4</text><text fill="#000000" font-family="sans-serif" font-size="13" lengthAdjust="spacing" textLength="146" x="203.5" y="201.1592">Display list of documents</text><polygon fill="#181818" points="158.5,275.3672,168.5,279.3672,158.5,283.3672,162.5,279.3672" style="stroke:#181818;stroke-width:1.0;"/><line style="stroke:#181818;stroke-width:1.0;" x1="47.5" x2="164.5" y1="279.3672" y2="279.3672"/><text fill="#000000" font-family="sans-serif" font-size="13" font-weight="bold" lengthAdjust="spacing" textLength="7" x="54.5" y="274.5107">5</text><text fill="#000000" font-family="sans-serif" font-size="13" lengthAdjust="spacing" textLength="93" x="65.5" y="274.5107">Choose function</text><path d="M10,294.3672 L75,294.3672 L75,302.7188 L65,312.7188 L10,312.7188 L10,294.3672 " fill="#EEEEEE" style="stroke:#000000;stroke-width:1.5;"/><rect fill="none" height="64.7969" style="stroke:#000000;stroke-width:1.5;" width="557.5" x="10" y="294.3672"/><text fill="#000000" font-family="sans-serif" font-size="13" font-weight="bold" lengthAdjust="spacing" textLength="20" x="25" y="308.8623">opt</text><text fill="#000000" font-family="sans-serif" font-size="11" font-weight="bold" lengthAdjust="spacing" textLength="45" x="90" y="307.7861">[Create]</text><rect fill="none" height="41.4453" style="stroke:#000000;stroke-width:1.5;" width="543.5" x="17" y="312.7188"/><path d="M17,312.7188 L79,312.7188 L79,320.7188 L69,330.7188 L17,330.7188 L17,312.7188 " fill="#EEEEEE" style="stroke:#000000;stroke-width:2.0;"/><text fill="#000000" font-family="sans-serif" font-size="13" font-weight="bold" lengthAdjust="spacing" textLength="17" x="30" y="328.2139">ref</text><text fill="#000000" font-family="sans-serif" font-size="12" lengthAdjust="spacing" textLength="156" x="210.75" y="347.1758">Sequence Create Document</text><path d="M10,373.1641 L75,373.1641 L75,381.5156 L65,391.5156 L10,391.5156 L10,373.1641 " fill="#EEEEEE" style="stroke:#000000;stroke-width:1.5;"/><rect fill="none" height="64.7969" style="stroke:#000000;stroke-width:1.5;" width="557.5" x="10" y="373.1641"/><text fill="#000000" font-family="sans-serif" font-size="13" font-weight="bold" lengthAdjust="spacing" textLength="20" x="25" y="387.6592">opt</text><text fill="#000000" font-family="sans-serif" font-size="11" font-weight="bold" lengthAdjust="spacing" textLength="46" x="90" y="386.583">[Update]</text><rect fill="none" height="41.4453" style="stroke:#000000;stroke-width:1.5;" width="543.5" x="17" y="391.5156"/><path d="M17,391.5156 L79,391.5156 L79,399.5156 L69,409.5156 L17,409.5156 L17,391.5156 " fill="#EEEEEE" style="stroke:#000000;stroke-width:2.0;"/><text fill="#000000" font-family="sans-serif" font-size="13" font-weight="bold" lengthAdjust="spacing" textLength="17" x="30" y="407.0107">ref</text><text fill="#000000" font-family="sans-serif" font-size="12" lengthAdjust="spacing" textLength="159" x="209.25" y="425.9727">Sequence Update Document</text><path d="M10,451.9609 L75,451.9609 L75,460.3125 L65,470.3125 L10,470.3125 L10,451.9609 " fill="#EEEEEE" style="stroke:#000000;stroke-width:1.5;"/><rect fill="none" height="64.7969" style="stroke:#000000;stroke-width:1.5;" width="557.5" x="10" y="451.9609"/><text fill="#000000" font-family="sans-serif" font-size="13" font-weight="bold" lengthAdjust="spacing" textLength="20" x="25" y="466.4561">opt</text><text fill="#000000" font-family="sans-serif" font-size="11" font-weight="bold" lengthAdjust="spacing" textLength="43" x="90" y="465.3799">[Delete]</text><rect fill="none" height="41.4453" style="stroke:#000000;stroke-width:1.5;" width="543.5" x="17" y="470.3125"/><path d="M17,470.3125 L79,470.3125 L79,478.3125 L69,488.3125 L17,488.3125 L17,470.3125 " fill="#EEEEEE" style="stroke:#000000;stroke-width:2.0;"/><text fill="#000000" font-family="sans-serif" font-size="13" font-weight="bold" lengthAdjust="spacing" textLength="17" x="30" y="485.8076">ref</text><text fill="#000000" font-family="sans-serif" font-size="12" lengthAdjust="spacing" textLength="155" x="211.25" y="504.7695">Sequence Delete Document</text><path d="M10,530.7578 L75,530.7578 L75,539.1094 L65,549.1094 L10,549.1094 L10,530.7578 " fill="#EEEEEE" style="stroke:#000000;stroke-width:1.5;"/><rect fill="none" height="64.7969" style="stroke:#000000;stroke-width:1.5;" width="557.5" x="10" y="530.7578"/><text fill="#000000" font-family="sans-serif" font-size="13" font-weight="bold" lengthAdjust="spacing" textLength="20" x="25" y="545.2529">opt</text><text fill="#000000" font-family="sans-serif" font-size="11" font-weight="bold" lengthAdjust="spacing" textLength="46" x="90" y="544.1768">[Search]</text><rect fill="none" height="41.4453" style="stroke:#000000;stroke-width:1.5;" width="543.5" x="17" y="549.1094"/><path d="M17,549.1094 L79,549.1094 L79,557.1094 L69,567.1094 L17,567.1094 L17,549.1094 " fill="#EEEEEE" style="stroke:#000000;stroke-width:2.0;"/><text fill="#000000" font-family="sans-serif" font-size="13" font-weight="bold" lengthAdjust="spacing" textLength="17" x="30" y="564.6045">ref</text><text fill="#000000" font-family="sans-serif" font-size="12" lengthAdjust="spacing" textLength="158" x="209.75" y="583.5664">Sequence Search Document</text><!--MD5=[df072da25c7938885c590b1c71c0bace]
@startuml AdjustDocumentSeq
autonumber
hide footbox

actor Admin
boundary DocumentManagementView
control DocumentController
entity DOCUMENT

DocumentController -> DOCUMENT: Get list of documents
activate DocumentController
activate DOCUMENT
DOCUMENT - - -> DocumentController: List of documents
deactivate DOCUMENT
DocumentController - -> DocumentManagementView: List of documents
deactivate DocumentController
activate DocumentManagementView
DocumentManagementView -> DocumentManagementView: Display list of documents
activate DocumentManagementView
deactivate DocumentManagementView
Admin -> DocumentManagementView: Choose function
activate Admin

opt Create
    ref over Admin, DocumentManagementView, DocumentController, DOCUMENT: Sequence Create Document
end

opt Update
    ref over Admin, DocumentManagementView, DocumentController, DOCUMENT: Sequence Update Document
end

opt Delete
    ref over Admin, DocumentManagementView, DocumentController, DOCUMENT: Sequence Delete Document
end

opt Search
    ref over Admin, DocumentManagementView, DocumentController, DOCUMENT: Sequence Search Document
end
@enduml

PlantUML version 1.2022.7(Tue Aug 23 00:01:30 ICT 2022)
(GPL source distribution)
Java Runtime: Java(TM) SE Runtime Environment
JVM: Java HotSpot(TM) 64-Bit Server VM
Default Encoding: Cp1252
Language: en
Country: US
--></g></svg>