<?xml version="1.0" encoding="UTF-8" standalone="no"?><svg xmlns="http://www.w3.org/2000/svg" xmlns:xlink="http://www.w3.org/1999/xlink" contentStyleType="text/css" height="1009px" preserveAspectRatio="none" style="width:870px;height:1009px;background:#FFFFFF;" version="1.1" viewBox="0 0 870 1009" width="870px" zoomAndPan="magnify"><defs/><g><rect fill="#FFFFFF" height="248.5938" style="stroke:#181818;stroke-width:1.0;" width="10" x="37.5" y="174.6641"/><rect fill="#FFFFFF" height="30" style="stroke:#181818;stroke-width:1.0;" width="10" x="160.5" y="940.3125"/><rect fill="#FFFFFF" height="763.6484" style="stroke:#181818;stroke-width:1.0;" width="10" x="345.5" y="139.3125"/><rect fill="#FFFFFF" height="28" style="stroke:#181818;stroke-width:1.0;" width="10" x="350.5" y="213.0156"/><rect fill="#FFFFFF" height="28" style="stroke:#181818;stroke-width:1.0;" width="10" x="350.5" y="342.0703"/><rect fill="#FFFFFF" height="28" style="stroke:#181818;stroke-width:1.0;" width="10" x="350.5" y="681.7188"/><rect fill="#FFFFFF" height="516.7031" style="stroke:#181818;stroke-width:1.0;" width="10" x="573.5" y="453.6094"/><rect fill="#FFFFFF" height="352.2969" style="stroke:#181818;stroke-width:1.0;" width="10" x="742.5" y="483.9609"/><rect fill="#FFFFFF" height="28" style="stroke:#181818;stroke-width:1.0;" width="10" x="747.5" y="522.3125"/><rect fill="#FFFFFF" height="28" style="stroke:#181818;stroke-width:1.0;" width="10" x="747.5" y="770.9063"/><rect fill="none" height="722.2969" style="stroke:#000000;stroke-width:1.5;" width="853.5" x="10" y="263.0156"/><rect fill="none" height="406" style="stroke:#000000;stroke-width:1.5;" width="789.5" x="65" y="572.3125"/><line style="stroke:#181818;stroke-width:0.5;stroke-dasharray:5.0,5.0;" x1="42" x2="42" y1="82.6094" y2="1002.3125"/><line style="stroke:#181818;stroke-width:0.5;stroke-dasharray:5.0,5.0;" x1="165" x2="165" y1="82.6094" y2="1002.3125"/><line style="stroke:#181818;stroke-width:0.5;stroke-dasharray:5.0,5.0;" x1="350" x2="350" y1="82.6094" y2="1002.3125"/><line style="stroke:#181818;stroke-width:0.5;stroke-dasharray:5.0,5.0;" x1="578.5" x2="578.5" y1="82.6094" y2="1002.3125"/><line style="stroke:#181818;stroke-width:0.5;stroke-dasharray:5.0,5.0;" x1="747.5" x2="747.5" y1="82.6094" y2="1002.3125"/><text fill="#000000" font-family="sans-serif" font-size="14" lengthAdjust="spacing" textLength="39" x="20" y="79.5332">Admin</text><ellipse cx="42.5" cy="13.5" fill="#E2E2F0" rx="8" ry="8" style="stroke:#181818;stroke-width:0.5;"/><path d="M42.5,21.5 L42.5,48.5 M29.5,29.5 L55.5,29.5 M42.5,48.5 L29.5,63.5 M42.5,48.5 L55.5,63.5 " fill="none" style="stroke:#181818;stroke-width:0.5;"/><text fill="#000000" font-family="sans-serif" font-size="14" lengthAdjust="spacing" textLength="175" x="75" y="79.5332">DocumentManagementView</text><path d="M145,37 L145,61 M145,49 L162,49 " fill="none" style="stroke:#181818;stroke-width:0.5;"/><ellipse cx="174" cy="49" fill="#E2E2F0" rx="12" ry="12" style="stroke:#181818;stroke-width:0.5;"/><text fill="#000000" font-family="sans-serif" font-size="14" lengthAdjust="spacing" textLength="163" x="266" y="79.5332">DocumentInformationView</text><path d="M330,37 L330,61 M330,49 L347,49 " fill="none" style="stroke:#181818;stroke-width:0.5;"/><ellipse cx="359" cy="49" fill="#E2E2F0" rx="12" ry="12" style="stroke:#181818;stroke-width:0.5;"/><text fill="#000000" font-family="sans-serif" font-size="14" lengthAdjust="spacing" textLength="126" x="512.5" y="79.5332">DocumentController</text><ellipse cx="578.5" cy="49" fill="#E2E2F0" rx="12" ry="12" style="stroke:#181818;stroke-width:0.5;"/><polygon fill="#181818" points="574.5,37,580.5,32,578.5,37,580.5,42,574.5,37" style="stroke:#181818;stroke-width:1.0;"/><text fill="#000000" font-family="sans-serif" font-size="14" lengthAdjust="spacing" textLength="78" x="705.5" y="79.5332">DOCUMENT</text><ellipse cx="747.5" cy="49" fill="#E2E2F0" rx="12" ry="12" style="stroke:#181818;stroke-width:0.5;"/><line style="stroke:#181818;stroke-width:0.5;" x1="735.5" x2="759.5" y1="63" y2="63"/><rect fill="#FFFFFF" height="248.5938" style="stroke:#181818;stroke-width:1.0;" width="10" x="37.5" y="174.6641"/><rect fill="#FFFFFF" height="30" style="stroke:#181818;stroke-width:1.0;" width="10" x="160.5" y="940.3125"/><rect fill="#FFFFFF" height="763.6484" style="stroke:#181818;stroke-width:1.0;" width="10" x="345.5" y="139.3125"/><rect fill="#FFFFFF" height="28" style="stroke:#181818;stroke-width:1.0;" width="10" x="350.5" y="213.0156"/><rect fill="#FFFFFF" height="28" style="stroke:#181818;stroke-width:1.0;" width="10" x="350.5" y="342.0703"/><rect fill="#FFFFFF" height="28" style="stroke:#181818;stroke-width:1.0;" width="10" x="350.5" y="681.7188"/><rect fill="#FFFFFF" height="516.7031" style="stroke:#181818;stroke-width:1.0;" width="10" x="573.5" y="453.6094"/><rect fill="#FFFFFF" height="352.2969" style="stroke:#181818;stroke-width:1.0;" width="10" x="742.5" y="483.9609"/><rect fill="#FFFFFF" height="28" style="stroke:#181818;stroke-width:1.0;" width="10" x="747.5" y="522.3125"/><rect fill="#FFFFFF" height="28" style="stroke:#181818;stroke-width:1.0;" width="10" x="747.5" y="770.9063"/><line style="stroke:#181818;stroke-width:1.0;" x1="350.5" x2="397.5" y1="126.3125" y2="126.3125"/><line style="stroke:#181818;stroke-width:1.0;" x1="397.5" x2="397.5" y1="126.3125" y2="139.3125"/><line style="stroke:#181818;stroke-width:1.0;" x1="356.5" x2="397.5" y1="139.3125" y2="139.3125"/><polygon fill="#181818" points="366.5,135.3125,356.5,139.3125,366.5,143.3125,362.5,139.3125" style="stroke:#181818;stroke-width:1.0;"/><text fill="#000000" font-family="sans-serif" font-size="13" font-weight="bold" lengthAdjust="spacing" textLength="7" x="362.5" y="113.2803">1</text><text fill="#000000" font-family="sans-serif" font-size="13" lengthAdjust="spacing" textLength="70" x="373.5" y="105.1045">Display with</text><text fill="#000000" font-family="sans-serif" font-size="13" lengthAdjust="spacing" textLength="103" x="373.5" y="121.4561">empty information</text><polygon fill="#181818" points="333.5,170.6641,343.5,174.6641,333.5,178.6641,337.5,174.6641" style="stroke:#181818;stroke-width:1.0;"/><line style="stroke:#181818;stroke-width:1.0;" x1="47.5" x2="339.5" y1="174.6641" y2="174.6641"/><text fill="#000000" font-family="sans-serif" font-size="13" font-weight="bold" lengthAdjust="spacing" textLength="7" x="54.5" y="169.8076">2</text><text fill="#000000" font-family="sans-serif" font-size="13" lengthAdjust="spacing" textLength="159" x="65.5" y="169.8076">Enter document information</text><line style="stroke:#181818;stroke-width:1.0;" x1="360.5" x2="402.5" y1="205.0156" y2="205.0156"/><line style="stroke:#181818;stroke-width:1.0;" x1="402.5" x2="402.5" y1="205.0156" y2="218.0156"/><line style="stroke:#181818;stroke-width:1.0;" x1="361.5" x2="402.5" y1="218.0156" y2="218.0156"/><polygon fill="#181818" points="371.5,214.0156,361.5,218.0156,371.5,222.0156,367.5,218.0156" style="stroke:#181818;stroke-width:1.0;"/><text fill="#000000" font-family="sans-serif" font-size="13" font-weight="bold" lengthAdjust="spacing" textLength="7" x="367.5" y="200.1592">3</text><text fill="#000000" font-family="sans-serif" font-size="13" lengthAdjust="spacing" textLength="76" x="378.5" y="200.1592">Validate data</text><path d="M10,263.0156 L71,263.0156 L71,271.3672 L61,281.3672 L10,281.3672 L10,263.0156 " fill="#EEEEEE" style="stroke:#000000;stroke-width:1.5;"/><rect fill="none" height="722.2969" style="stroke:#000000;stroke-width:1.5;" width="853.5" x="10" y="263.0156"/><text fill="#000000" font-family="sans-serif" font-size="13" font-weight="bold" lengthAdjust="spacing" textLength="16" x="25" y="277.5107">alt</text><text fill="#000000" font-family="sans-serif" font-size="11" font-weight="bold" lengthAdjust="spacing" textLength="69" x="86" y="276.4346">[Invalid data]</text><polygon fill="#181818" points="58.5,299.7188,48.5,303.7188,58.5,307.7188,54.5,303.7188" style="stroke:#181818;stroke-width:1.0;"/><line style="stroke:#181818;stroke-width:1.0;stroke-dasharray:2.0,2.0;" x1="52.5" x2="344.5" y1="303.7188" y2="303.7188"/><text fill="#000000" font-family="sans-serif" font-size="13" font-weight="bold" lengthAdjust="spacing" textLength="7" x="64.5" y="298.8623">4</text><text fill="#000000" font-family="sans-serif" font-size="13" lengthAdjust="spacing" textLength="94" x="75.5" y="298.8623">Error notification</text><line style="stroke:#181818;stroke-width:1.0;" x1="360.5" x2="402.5" y1="334.0703" y2="334.0703"/><line style="stroke:#181818;stroke-width:1.0;" x1="402.5" x2="402.5" y1="334.0703" y2="347.0703"/><line style="stroke:#181818;stroke-width:1.0;" x1="361.5" x2="402.5" y1="347.0703" y2="347.0703"/><polygon fill="#181818" points="371.5,343.0703,361.5,347.0703,371.5,351.0703,367.5,347.0703" style="stroke:#181818;stroke-width:1.0;"/><text fill="#000000" font-family="sans-serif" font-size="13" font-weight="bold" lengthAdjust="spacing" textLength="7" x="367.5" y="329.2139">5</text><text fill="#000000" font-family="sans-serif" font-size="13" lengthAdjust="spacing" textLength="139" x="378.5" y="329.2139">Display error notification</text><line style="stroke:#000000;stroke-width:1.0;stroke-dasharray:2.0,2.0;" x1="10" x2="863.5" y1="386.0703" y2="386.0703"/><text fill="#000000" font-family="sans-serif" font-size="11" font-weight="bold" lengthAdjust="spacing" textLength="61" x="15" y="397.4893">[Valid data]</text><polygon fill="#181818" points="333.5,419.2578,343.5,423.2578,333.5,427.2578,337.5,423.2578" style="stroke:#181818;stroke-width:1.0;"/><line style="stroke:#181818;stroke-width:1.0;" x1="42.5" x2="339.5" y1="423.2578" y2="423.2578"/><text fill="#000000" font-family="sans-serif" font-size="13" font-weight="bold" lengthAdjust="spacing" textLength="7" x="49.5" y="418.4014">6</text><text fill="#000000" font-family="sans-serif" font-size="13" lengthAdjust="spacing" textLength="172" x="60.5" y="418.4014">Click button "Save" to confirm</text><polygon fill="#181818" points="561.5,449.6094,571.5,453.6094,561.5,457.6094,565.5,453.6094" style="stroke:#181818;stroke-width:1.0;"/><line style="stroke:#181818;stroke-width:1.0;" x1="355.5" x2="567.5" y1="453.6094" y2="453.6094"/><text fill="#000000" font-family="sans-serif" font-size="13" font-weight="bold" lengthAdjust="spacing" textLength="7" x="362.5" y="448.7529">7</text><text fill="#000000" font-family="sans-serif" font-size="13" lengthAdjust="spacing" textLength="188" x="373.5" y="448.7529">Send creating document request</text><polygon fill="#181818" points="730.5,479.9609,740.5,483.9609,730.5,487.9609,734.5,483.9609" style="stroke:#181818;stroke-width:1.0;"/><line style="stroke:#181818;stroke-width:1.0;" x1="583.5" x2="736.5" y1="483.9609" y2="483.9609"/><text fill="#000000" font-family="sans-serif" font-size="13" font-weight="bold" lengthAdjust="spacing" textLength="7" x="590.5" y="479.1045">8</text><text fill="#000000" font-family="sans-serif" font-size="13" lengthAdjust="spacing" textLength="97" x="601.5" y="479.1045">Send information</text><line style="stroke:#181818;stroke-width:1.0;" x1="757.5" x2="799.5" y1="514.3125" y2="514.3125"/><line style="stroke:#181818;stroke-width:1.0;" x1="799.5" x2="799.5" y1="514.3125" y2="527.3125"/><line style="stroke:#181818;stroke-width:1.0;" x1="758.5" x2="799.5" y1="527.3125" y2="527.3125"/><polygon fill="#181818" points="768.5,523.3125,758.5,527.3125,768.5,531.3125,764.5,527.3125" style="stroke:#181818;stroke-width:1.0;"/><text fill="#000000" font-family="sans-serif" font-size="13" font-weight="bold" lengthAdjust="spacing" textLength="7" x="764.5" y="509.4561">9</text><text fill="#000000" font-family="sans-serif" font-size="13" lengthAdjust="spacing" textLength="76" x="775.5" y="509.4561">Validate data</text><path d="M65,572.3125 L126,572.3125 L126,580.6641 L116,590.6641 L65,590.6641 L65,572.3125 " fill="#EEEEEE" style="stroke:#000000;stroke-width:1.5;"/><rect fill="none" height="406" style="stroke:#000000;stroke-width:1.5;" width="789.5" x="65" y="572.3125"/><text fill="#000000" font-family="sans-serif" font-size="13" font-weight="bold" lengthAdjust="spacing" textLength="16" x="80" y="586.8076">alt</text><text fill="#000000" font-family="sans-serif" font-size="11" font-weight="bold" lengthAdjust="spacing" textLength="69" x="141" y="585.7314">[Invalid data]</text><polygon fill="#181818" points="594.5,609.0156,584.5,613.0156,594.5,617.0156,590.5,613.0156" style="stroke:#181818;stroke-width:1.0;"/><line style="stroke:#181818;stroke-width:1.0;stroke-dasharray:2.0,2.0;" x1="588.5" x2="741.5" y1="613.0156" y2="613.0156"/><text fill="#000000" font-family="sans-serif" font-size="13" font-weight="bold" lengthAdjust="spacing" textLength="14" x="600.5" y="608.1592">10</text><text fill="#000000" font-family="sans-serif" font-size="13" lengthAdjust="spacing" textLength="94" x="618.5" y="608.1592">Error notification</text><polygon fill="#181818" points="366.5,639.3672,356.5,643.3672,366.5,647.3672,362.5,643.3672" style="stroke:#181818;stroke-width:1.0;"/><line style="stroke:#181818;stroke-width:1.0;stroke-dasharray:2.0,2.0;" x1="360.5" x2="572.5" y1="643.3672" y2="643.3672"/><text fill="#000000" font-family="sans-serif" font-size="13" font-weight="bold" lengthAdjust="spacing" textLength="14" x="372.5" y="638.5107">11</text><text fill="#000000" font-family="sans-serif" font-size="13" lengthAdjust="spacing" textLength="94" x="390.5" y="638.5107">Error notification</text><line style="stroke:#181818;stroke-width:1.0;" x1="360.5" x2="402.5" y1="673.7188" y2="673.7188"/><line style="stroke:#181818;stroke-width:1.0;" x1="402.5" x2="402.5" y1="673.7188" y2="686.7188"/><line style="stroke:#181818;stroke-width:1.0;" x1="361.5" x2="402.5" y1="686.7188" y2="686.7188"/><polygon fill="#181818" points="371.5,682.7188,361.5,686.7188,371.5,690.7188,367.5,686.7188" style="stroke:#181818;stroke-width:1.0;"/><text fill="#000000" font-family="sans-serif" font-size="13" font-weight="bold" lengthAdjust="spacing" textLength="14" x="367.5" y="668.8623">12</text><text fill="#000000" font-family="sans-serif" font-size="13" lengthAdjust="spacing" textLength="139" x="385.5" y="668.8623">Display error notification</text><line style="stroke:#000000;stroke-width:1.0;stroke-dasharray:2.0,2.0;" x1="65" x2="854.5" y1="725.7188" y2="725.7188"/><text fill="#000000" font-family="sans-serif" font-size="11" font-weight="bold" lengthAdjust="spacing" textLength="61" x="70" y="737.1377">[Valid data]</text><line style="stroke:#181818;stroke-width:1.0;" x1="757.5" x2="799.5" y1="762.9063" y2="762.9063"/><line style="stroke:#181818;stroke-width:1.0;" x1="799.5" x2="799.5" y1="762.9063" y2="775.9063"/><line style="stroke:#181818;stroke-width:1.0;" x1="758.5" x2="799.5" y1="775.9063" y2="775.9063"/><polygon fill="#181818" points="768.5,771.9063,758.5,775.9063,768.5,779.9063,764.5,775.9063" style="stroke:#181818;stroke-width:1.0;"/><text fill="#000000" font-family="sans-serif" font-size="13" font-weight="bold" lengthAdjust="spacing" textLength="14" x="764.5" y="758.0498">13</text><text fill="#000000" font-family="sans-serif" font-size="13" lengthAdjust="spacing" textLength="60" x="782.5" y="758.0498">Store data</text><polygon fill="#181818" points="594.5,832.2578,584.5,836.2578,594.5,840.2578,590.5,836.2578" style="stroke:#181818;stroke-width:1.0;"/><line style="stroke:#181818;stroke-width:1.0;stroke-dasharray:2.0,2.0;" x1="588.5" x2="746.5" y1="836.2578" y2="836.2578"/><text fill="#000000" font-family="sans-serif" font-size="13" font-weight="bold" lengthAdjust="spacing" textLength="14" x="600.5" y="831.4014">14</text><text fill="#000000" font-family="sans-serif" font-size="13" lengthAdjust="spacing" textLength="117" x="618.5" y="831.4014">Success notification</text><polygon fill="#181818" points="366.5,862.6094,356.5,866.6094,366.5,870.6094,362.5,866.6094" style="stroke:#181818;stroke-width:1.0;"/><line style="stroke:#181818;stroke-width:1.0;stroke-dasharray:2.0,2.0;" x1="360.5" x2="572.5" y1="866.6094" y2="866.6094"/><text fill="#000000" font-family="sans-serif" font-size="13" font-weight="bold" lengthAdjust="spacing" textLength="14" x="372.5" y="861.7529">15</text><text fill="#000000" font-family="sans-serif" font-size="13" lengthAdjust="spacing" textLength="117" x="390.5" y="861.7529">Success notification</text><line style="stroke:#181818;stroke-width:1.0;" x1="355.5" x2="397.5" y1="901.9609" y2="901.9609"/><line style="stroke:#181818;stroke-width:1.0;" x1="397.5" x2="397.5" y1="901.9609" y2="914.9609"/><line style="stroke:#181818;stroke-width:1.0;" x1="350.5" x2="397.5" y1="914.9609" y2="914.9609"/><polygon fill="#181818" points="360.5,910.9609,350.5,914.9609,360.5,918.9609,356.5,914.9609" style="stroke:#181818;stroke-width:1.0;"/><text fill="#000000" font-family="sans-serif" font-size="13" font-weight="bold" lengthAdjust="spacing" textLength="14" x="362.5" y="897.1045">16</text><text fill="#000000" font-family="sans-serif" font-size="13" lengthAdjust="spacing" textLength="61" x="380.5" y="897.1045">Close view</text><polygon fill="#181818" points="181.5,936.3125,171.5,940.3125,181.5,944.3125,177.5,940.3125" style="stroke:#181818;stroke-width:1.0;"/><line style="stroke:#181818;stroke-width:1.0;" x1="175.5" x2="572.5" y1="940.3125" y2="940.3125"/><text fill="#000000" font-family="sans-serif" font-size="13" font-weight="bold" lengthAdjust="spacing" textLength="14" x="187.5" y="935.4561">17</text><text fill="#000000" font-family="sans-serif" font-size="13" lengthAdjust="spacing" textLength="290" x="205.5" y="935.4561">Display success notification and list of documents</text><!--MD5=[a6f820531ddb9836770f16c6e9f7a7de]
@startuml CreateDocumentSeq
autonumber
hide footbox

actor Admin
boundary DocumentManagementView
boundary DocumentInformationView
control DocumentController
entity DOCUMENT

DocumentInformationView -> DocumentInformationView: Display with \nempty information
activate DocumentInformationView
Admin -> DocumentInformationView: Enter document information  
activate Admin
DocumentInformationView -> DocumentInformationView: Validate data
activate DocumentInformationView
deactivate DocumentInformationView
alt Invalid data
    DocumentInformationView - -> Admin: Error notification
    DocumentInformationView -> DocumentInformationView: Display error notification
    activate DocumentInformationView
    deactivate DocumentInformationView
else Valid data
    Admin -> DocumentInformationView: Click button "Save" to confirm
    deactivate Admin
    DocumentInformationView -> DocumentController: Send creating document request
    activate DocumentController
    DocumentController -> DOCUMENT: Send information
    activate DOCUMENT
    DOCUMENT -> DOCUMENT: Validate data
    activate DOCUMENT
    deactivate DOCUMENT
    alt Invalid data
        DOCUMENT - -> DocumentController: Error notification
        DocumentController - -> DocumentInformationView: Error notification
        DocumentInformationView -> DocumentInformationView: Display error notification
        activate DocumentInformationView
        deactivate DocumentInformationView
    else Valid data
        DOCUMENT -> DOCUMENT: Store data
        activate DOCUMENT
        deactivate DOCUMENT
        DOCUMENT - -> DocumentController: Success notification
        deactivate DOCUMENT
        DocumentController - -> DocumentInformationView: Success notification
        DocumentInformationView -> DocumentInformationView: Close view
        deactivate DocumentInformationView
        DocumentController -> DocumentManagementView: Display success notification and list of documents
        activate DocumentManagementView
        deactivate DocumentManagementView        
        deactivate DocumentController
    end
end
@enduml

PlantUML version 1.2022.7(Tue Aug 23 00:01:30 ICT 2022)
(GPL source distribution)
Java Runtime: Java(TM) SE Runtime Environment
JVM: Java HotSpot(TM) 64-Bit Server VM
Default Encoding: Cp1252
Language: en
Country: US
--></g></svg>