<?xml version="1.0" encoding="UTF-8" standalone="no"?><svg xmlns="http://www.w3.org/2000/svg" xmlns:xlink="http://www.w3.org/1999/xlink" contentStyleType="text/css" height="1239px" preserveAspectRatio="none" style="width:970px;height:1239px;background:#FFFFFF;" version="1.1" viewBox="0 0 970 1239" width="970px" zoomAndPan="magnify"><defs/><g><rect fill="#FFFFFF" height="473.7031" style="stroke:#181818;stroke-width:1.0;" width="10" x="37.5" y="210.1094"/><rect fill="#FFFFFF" height="990.7578" style="stroke:#181818;stroke-width:1.0;" width="10" x="170.5" y="210.1094"/><rect fill="#FFFFFF" height="832" style="stroke:#181818;stroke-width:1.0;" width="10" x="355.5" y="331.5156"/><rect fill="#FFFFFF" height="28" style="stroke:#181818;stroke-width:1.0;" width="10" x="360.5" y="369.8672"/><rect fill="#FFFFFF" height="28" style="stroke:#181818;stroke-width:1.0;" width="10" x="360.5" y="473.5703"/><rect fill="#FFFFFF" height="28" style="stroke:#181818;stroke-width:1.0;" width="10" x="360.5" y="602.625"/><rect fill="#FFFFFF" height="28" style="stroke:#181818;stroke-width:1.0;" width="10" x="360.5" y="942.2734"/><rect fill="#FFFFFF" height="91.0547" style="stroke:#181818;stroke-width:1.0;" width="10" x="593.5" y="240.4609"/><rect fill="#FFFFFF" height="486.7031" style="stroke:#181818;stroke-width:1.0;" width="10" x="593.5" y="714.1641"/><rect fill="#FFFFFF" height="30.3516" style="stroke:#181818;stroke-width:1.0;" width="10" x="835.5" y="270.8125"/><rect fill="#FFFFFF" height="352.2969" style="stroke:#181818;stroke-width:1.0;" width="10" x="835.5" y="744.5156"/><rect fill="#FFFFFF" height="28" style="stroke:#181818;stroke-width:1.0;" width="10" x="840.5" y="782.8672"/><rect fill="#FFFFFF" height="28" style="stroke:#181818;stroke-width:1.0;" width="10" x="840.5" y="1031.4609"/><rect fill="none" height="64.7969" style="stroke:#000000;stroke-width:1.5;" width="882.5" x="10" y="99.6094"/><rect fill="none" height="692.2969" style="stroke:#000000;stroke-width:1.5;" width="953.5" x="10" y="523.5703"/><rect fill="none" height="376" style="stroke:#000000;stroke-width:1.5;" width="872.5" x="75" y="832.8672"/><line style="stroke:#181818;stroke-width:0.5;stroke-dasharray:5.0,5.0;" x1="42" x2="42" y1="82.6094" y2="1232.8672"/><line style="stroke:#181818;stroke-width:0.5;stroke-dasharray:5.0,5.0;" x1="175" x2="175" y1="82.6094" y2="1232.8672"/><line style="stroke:#181818;stroke-width:0.5;stroke-dasharray:5.0,5.0;" x1="360" x2="360" y1="82.6094" y2="1232.8672"/><line style="stroke:#181818;stroke-width:0.5;stroke-dasharray:5.0,5.0;" x1="598.5" x2="598.5" y1="82.6094" y2="1232.8672"/><line style="stroke:#181818;stroke-width:0.5;stroke-dasharray:5.0,5.0;" x1="840.5" x2="840.5" y1="82.6094" y2="1232.8672"/><text fill="#000000" font-family="sans-serif" font-size="14" lengthAdjust="spacing" textLength="39" x="20" y="79.5332">Admin</text><ellipse cx="42.5" cy="13.5" fill="#E2E2F0" rx="8" ry="8" style="stroke:#181818;stroke-width:0.5;"/><path d="M42.5,21.5 L42.5,48.5 M29.5,29.5 L55.5,29.5 M42.5,48.5 L29.5,63.5 M42.5,48.5 L55.5,63.5 " fill="none" style="stroke:#181818;stroke-width:0.5;"/><text fill="#000000" font-family="sans-serif" font-size="14" lengthAdjust="spacing" textLength="175" x="85" y="79.5332">DocumentManagementView</text><path d="M155,37 L155,61 M155,49 L172,49 " fill="none" style="stroke:#181818;stroke-width:0.5;"/><ellipse cx="184" cy="49" fill="#E2E2F0" rx="12" ry="12" style="stroke:#181818;stroke-width:0.5;"/><text fill="#000000" font-family="sans-serif" font-size="14" lengthAdjust="spacing" textLength="163" x="276" y="79.5332">DocumentInformationView</text><path d="M340,37 L340,61 M340,49 L357,49 " fill="none" style="stroke:#181818;stroke-width:0.5;"/><ellipse cx="369" cy="49" fill="#E2E2F0" rx="12" ry="12" style="stroke:#181818;stroke-width:0.5;"/><text fill="#000000" font-family="sans-serif" font-size="14" lengthAdjust="spacing" textLength="126" x="532.5" y="79.5332">DocumentController</text><ellipse cx="598.5" cy="49" fill="#E2E2F0" rx="12" ry="12" style="stroke:#181818;stroke-width:0.5;"/><polygon fill="#181818" points="594.5,37,600.5,32,598.5,37,600.5,42,594.5,37" style="stroke:#181818;stroke-width:1.0;"/><text fill="#000000" font-family="sans-serif" font-size="14" lengthAdjust="spacing" textLength="78" x="798.5" y="79.5332">DOCUMENT</text><ellipse cx="840.5" cy="49" fill="#E2E2F0" rx="12" ry="12" style="stroke:#181818;stroke-width:0.5;"/><line style="stroke:#181818;stroke-width:0.5;" x1="828.5" x2="852.5" y1="63" y2="63"/><rect fill="#FFFFFF" height="473.7031" style="stroke:#181818;stroke-width:1.0;" width="10" x="37.5" y="210.1094"/><rect fill="#FFFFFF" height="990.7578" style="stroke:#181818;stroke-width:1.0;" width="10" x="170.5" y="210.1094"/><rect fill="#FFFFFF" height="832" style="stroke:#181818;stroke-width:1.0;" width="10" x="355.5" y="331.5156"/><rect fill="#FFFFFF" height="28" style="stroke:#181818;stroke-width:1.0;" width="10" x="360.5" y="369.8672"/><rect fill="#FFFFFF" height="28" style="stroke:#181818;stroke-width:1.0;" width="10" x="360.5" y="473.5703"/><rect fill="#FFFFFF" height="28" style="stroke:#181818;stroke-width:1.0;" width="10" x="360.5" y="602.625"/><rect fill="#FFFFFF" height="28" style="stroke:#181818;stroke-width:1.0;" width="10" x="360.5" y="942.2734"/><rect fill="#FFFFFF" height="91.0547" style="stroke:#181818;stroke-width:1.0;" width="10" x="593.5" y="240.4609"/><rect fill="#FFFFFF" height="486.7031" style="stroke:#181818;stroke-width:1.0;" width="10" x="593.5" y="714.1641"/><rect fill="#FFFFFF" height="30.3516" style="stroke:#181818;stroke-width:1.0;" width="10" x="835.5" y="270.8125"/><rect fill="#FFFFFF" height="352.2969" style="stroke:#181818;stroke-width:1.0;" width="10" x="835.5" y="744.5156"/><rect fill="#FFFFFF" height="28" style="stroke:#181818;stroke-width:1.0;" width="10" x="840.5" y="782.8672"/><rect fill="#FFFFFF" height="28" style="stroke:#181818;stroke-width:1.0;" width="10" x="840.5" y="1031.4609"/><path d="M10,99.6094 L75,99.6094 L75,107.9609 L65,117.9609 L10,117.9609 L10,99.6094 " fill="#EEEEEE" style="stroke:#000000;stroke-width:1.5;"/><rect fill="none" height="64.7969" style="stroke:#000000;stroke-width:1.5;" width="882.5" x="10" y="99.6094"/><text fill="#000000" font-family="sans-serif" font-size="13" font-weight="bold" lengthAdjust="spacing" textLength="20" x="25" y="114.1045">opt</text><text fill="#000000" font-family="sans-serif" font-size="11" font-weight="bold" lengthAdjust="spacing" textLength="46" x="90" y="113.0283">[Search]</text><rect fill="none" height="41.4453" style="stroke:#000000;stroke-width:1.5;" width="868.5" x="17" y="117.9609"/><path d="M17,117.9609 L79,117.9609 L79,125.9609 L69,135.9609 L17,135.9609 L17,117.9609 " fill="#EEEEEE" style="stroke:#000000;stroke-width:2.0;"/><text fill="#000000" font-family="sans-serif" font-size="13" font-weight="bold" lengthAdjust="spacing" textLength="17" x="30" y="133.4561">ref</text><text fill="#000000" font-family="sans-serif" font-size="12" lengthAdjust="spacing" textLength="158" x="372.25" y="152.418">Sequence Search Document</text><polygon fill="#181818" points="158.5,206.1094,168.5,210.1094,158.5,214.1094,162.5,210.1094" style="stroke:#181818;stroke-width:1.0;"/><line style="stroke:#181818;stroke-width:1.0;" x1="47.5" x2="164.5" y1="210.1094" y2="210.1094"/><text fill="#000000" font-family="sans-serif" font-size="13" font-weight="bold" lengthAdjust="spacing" textLength="7" x="54.5" y="197.0771">1</text><text fill="#000000" font-family="sans-serif" font-size="13" lengthAdjust="spacing" textLength="98" x="65.5" y="188.9014">Select document</text><text fill="#000000" font-family="sans-serif" font-size="13" lengthAdjust="spacing" textLength="88" x="69.5" y="205.2529">needs updating</text><polygon fill="#181818" points="581.5,236.4609,591.5,240.4609,581.5,244.4609,585.5,240.4609" style="stroke:#181818;stroke-width:1.0;"/><line style="stroke:#181818;stroke-width:1.0;" x1="180.5" x2="587.5" y1="240.4609" y2="240.4609"/><text fill="#000000" font-family="sans-serif" font-size="13" font-weight="bold" lengthAdjust="spacing" textLength="7" x="187.5" y="235.6045">2</text><text fill="#000000" font-family="sans-serif" font-size="13" lengthAdjust="spacing" textLength="202" x="198.5" y="235.6045">Get selected document information</text><polygon fill="#181818" points="823.5,266.8125,833.5,270.8125,823.5,274.8125,827.5,270.8125" style="stroke:#181818;stroke-width:1.0;"/><line style="stroke:#181818;stroke-width:1.0;" x1="603.5" x2="829.5" y1="270.8125" y2="270.8125"/><text fill="#000000" font-family="sans-serif" font-size="13" font-weight="bold" lengthAdjust="spacing" textLength="7" x="610.5" y="265.9561">3</text><text fill="#000000" font-family="sans-serif" font-size="13" lengthAdjust="spacing" textLength="202" x="621.5" y="265.9561">Get selected document information</text><polygon fill="#181818" points="614.5,297.1641,604.5,301.1641,614.5,305.1641,610.5,301.1641" style="stroke:#181818;stroke-width:1.0;"/><line style="stroke:#181818;stroke-width:1.0;stroke-dasharray:2.0,2.0;" x1="608.5" x2="839.5" y1="301.1641" y2="301.1641"/><text fill="#000000" font-family="sans-serif" font-size="13" font-weight="bold" lengthAdjust="spacing" textLength="7" x="620.5" y="296.3076">4</text><text fill="#000000" font-family="sans-serif" font-size="13" lengthAdjust="spacing" textLength="179" x="631.5" y="296.3076">Selected document information</text><polygon fill="#181818" points="376.5,327.5156,366.5,331.5156,376.5,335.5156,372.5,331.5156" style="stroke:#181818;stroke-width:1.0;"/><line style="stroke:#181818;stroke-width:1.0;stroke-dasharray:2.0,2.0;" x1="370.5" x2="597.5" y1="331.5156" y2="331.5156"/><text fill="#000000" font-family="sans-serif" font-size="13" font-weight="bold" lengthAdjust="spacing" textLength="7" x="382.5" y="326.6592">5</text><text fill="#000000" font-family="sans-serif" font-size="13" lengthAdjust="spacing" textLength="179" x="393.5" y="326.6592">Selected document information</text><line style="stroke:#181818;stroke-width:1.0;" x1="370.5" x2="412.5" y1="361.8672" y2="361.8672"/><line style="stroke:#181818;stroke-width:1.0;" x1="412.5" x2="412.5" y1="361.8672" y2="374.8672"/><line style="stroke:#181818;stroke-width:1.0;" x1="371.5" x2="412.5" y1="374.8672" y2="374.8672"/><polygon fill="#181818" points="381.5,370.8672,371.5,374.8672,381.5,378.8672,377.5,374.8672" style="stroke:#181818;stroke-width:1.0;"/><text fill="#000000" font-family="sans-serif" font-size="13" font-weight="bold" lengthAdjust="spacing" textLength="7" x="377.5" y="357.0107">6</text><text fill="#000000" font-family="sans-serif" font-size="13" lengthAdjust="spacing" textLength="171" x="388.5" y="357.0107">Display document information</text><polygon fill="#181818" points="343.5,431.2188,353.5,435.2188,343.5,439.2188,347.5,435.2188" style="stroke:#181818;stroke-width:1.0;"/><line style="stroke:#181818;stroke-width:1.0;" x1="47.5" x2="349.5" y1="435.2188" y2="435.2188"/><text fill="#000000" font-family="sans-serif" font-size="13" font-weight="bold" lengthAdjust="spacing" textLength="7" x="54.5" y="430.3623">7</text><text fill="#000000" font-family="sans-serif" font-size="13" lengthAdjust="spacing" textLength="159" x="65.5" y="430.3623">Enter document information</text><line style="stroke:#181818;stroke-width:1.0;" x1="370.5" x2="412.5" y1="465.5703" y2="465.5703"/><line style="stroke:#181818;stroke-width:1.0;" x1="412.5" x2="412.5" y1="465.5703" y2="478.5703"/><line style="stroke:#181818;stroke-width:1.0;" x1="371.5" x2="412.5" y1="478.5703" y2="478.5703"/><polygon fill="#181818" points="381.5,474.5703,371.5,478.5703,381.5,482.5703,377.5,478.5703" style="stroke:#181818;stroke-width:1.0;"/><text fill="#000000" font-family="sans-serif" font-size="13" font-weight="bold" lengthAdjust="spacing" textLength="7" x="377.5" y="460.7139">8</text><text fill="#000000" font-family="sans-serif" font-size="13" lengthAdjust="spacing" textLength="76" x="388.5" y="460.7139">Validate data</text><path d="M10,523.5703 L71,523.5703 L71,531.9219 L61,541.9219 L10,541.9219 L10,523.5703 " fill="#EEEEEE" style="stroke:#000000;stroke-width:1.5;"/><rect fill="none" height="692.2969" style="stroke:#000000;stroke-width:1.5;" width="953.5" x="10" y="523.5703"/><text fill="#000000" font-family="sans-serif" font-size="13" font-weight="bold" lengthAdjust="spacing" textLength="16" x="25" y="538.0654">alt</text><text fill="#000000" font-family="sans-serif" font-size="11" font-weight="bold" lengthAdjust="spacing" textLength="69" x="86" y="536.9893">[Invalid data]</text><polygon fill="#181818" points="58.5,560.2734,48.5,564.2734,58.5,568.2734,54.5,564.2734" style="stroke:#181818;stroke-width:1.0;"/><line style="stroke:#181818;stroke-width:1.0;stroke-dasharray:2.0,2.0;" x1="52.5" x2="354.5" y1="564.2734" y2="564.2734"/><text fill="#000000" font-family="sans-serif" font-size="13" font-weight="bold" lengthAdjust="spacing" textLength="7" x="64.5" y="559.417">9</text><text fill="#000000" font-family="sans-serif" font-size="13" lengthAdjust="spacing" textLength="94" x="75.5" y="559.417">Error notification</text><line style="stroke:#181818;stroke-width:1.0;" x1="370.5" x2="412.5" y1="594.625" y2="594.625"/><line style="stroke:#181818;stroke-width:1.0;" x1="412.5" x2="412.5" y1="594.625" y2="607.625"/><line style="stroke:#181818;stroke-width:1.0;" x1="371.5" x2="412.5" y1="607.625" y2="607.625"/><polygon fill="#181818" points="381.5,603.625,371.5,607.625,381.5,611.625,377.5,607.625" style="stroke:#181818;stroke-width:1.0;"/><text fill="#000000" font-family="sans-serif" font-size="13" font-weight="bold" lengthAdjust="spacing" textLength="14" x="377.5" y="589.7686">10</text><text fill="#000000" font-family="sans-serif" font-size="13" lengthAdjust="spacing" textLength="139" x="395.5" y="589.7686">Display error notification</text><line style="stroke:#000000;stroke-width:1.0;stroke-dasharray:2.0,2.0;" x1="10" x2="963.5" y1="646.625" y2="646.625"/><text fill="#000000" font-family="sans-serif" font-size="11" font-weight="bold" lengthAdjust="spacing" textLength="61" x="15" y="658.0439">[Valid data]</text><polygon fill="#181818" points="343.5,679.8125,353.5,683.8125,343.5,687.8125,347.5,683.8125" style="stroke:#181818;stroke-width:1.0;"/><line style="stroke:#181818;stroke-width:1.0;" x1="42.5" x2="349.5" y1="683.8125" y2="683.8125"/><text fill="#000000" font-family="sans-serif" font-size="13" font-weight="bold" lengthAdjust="spacing" textLength="14" x="49.5" y="678.9561">11</text><text fill="#000000" font-family="sans-serif" font-size="13" lengthAdjust="spacing" textLength="172" x="67.5" y="678.9561">Click button "Save" to confirm</text><polygon fill="#181818" points="581.5,710.1641,591.5,714.1641,581.5,718.1641,585.5,714.1641" style="stroke:#181818;stroke-width:1.0;"/><line style="stroke:#181818;stroke-width:1.0;" x1="365.5" x2="587.5" y1="714.1641" y2="714.1641"/><text fill="#000000" font-family="sans-serif" font-size="13" font-weight="bold" lengthAdjust="spacing" textLength="14" x="372.5" y="709.3076">12</text><text fill="#000000" font-family="sans-serif" font-size="13" lengthAdjust="spacing" textLength="191" x="390.5" y="709.3076">Send updating document request</text><polygon fill="#181818" points="823.5,740.5156,833.5,744.5156,823.5,748.5156,827.5,744.5156" style="stroke:#181818;stroke-width:1.0;"/><line style="stroke:#181818;stroke-width:1.0;" x1="603.5" x2="829.5" y1="744.5156" y2="744.5156"/><text fill="#000000" font-family="sans-serif" font-size="13" font-weight="bold" lengthAdjust="spacing" textLength="14" x="610.5" y="739.6592">13</text><text fill="#000000" font-family="sans-serif" font-size="13" lengthAdjust="spacing" textLength="97" x="628.5" y="739.6592">Send information</text><line style="stroke:#181818;stroke-width:1.0;" x1="850.5" x2="892.5" y1="774.8672" y2="774.8672"/><line style="stroke:#181818;stroke-width:1.0;" x1="892.5" x2="892.5" y1="774.8672" y2="787.8672"/><line style="stroke:#181818;stroke-width:1.0;" x1="851.5" x2="892.5" y1="787.8672" y2="787.8672"/><polygon fill="#181818" points="861.5,783.8672,851.5,787.8672,861.5,791.8672,857.5,787.8672" style="stroke:#181818;stroke-width:1.0;"/><text fill="#000000" font-family="sans-serif" font-size="13" font-weight="bold" lengthAdjust="spacing" textLength="14" x="857.5" y="770.0107">14</text><text fill="#000000" font-family="sans-serif" font-size="13" lengthAdjust="spacing" textLength="76" x="875.5" y="770.0107">Validate data</text><path d="M75,832.8672 L136,832.8672 L136,841.2188 L126,851.2188 L75,851.2188 L75,832.8672 " fill="#EEEEEE" style="stroke:#000000;stroke-width:1.5;"/><rect fill="none" height="376" style="stroke:#000000;stroke-width:1.5;" width="872.5" x="75" y="832.8672"/><text fill="#000000" font-family="sans-serif" font-size="13" font-weight="bold" lengthAdjust="spacing" textLength="16" x="90" y="847.3623">alt</text><text fill="#000000" font-family="sans-serif" font-size="11" font-weight="bold" lengthAdjust="spacing" textLength="69" x="151" y="846.2861">[Invalid data]</text><polygon fill="#181818" points="614.5,869.5703,604.5,873.5703,614.5,877.5703,610.5,873.5703" style="stroke:#181818;stroke-width:1.0;"/><line style="stroke:#181818;stroke-width:1.0;stroke-dasharray:2.0,2.0;" x1="608.5" x2="834.5" y1="873.5703" y2="873.5703"/><text fill="#000000" font-family="sans-serif" font-size="13" font-weight="bold" lengthAdjust="spacing" textLength="14" x="620.5" y="868.7139">15</text><text fill="#000000" font-family="sans-serif" font-size="13" lengthAdjust="spacing" textLength="94" x="638.5" y="868.7139">Error notification</text><polygon fill="#181818" points="376.5,899.9219,366.5,903.9219,376.5,907.9219,372.5,903.9219" style="stroke:#181818;stroke-width:1.0;"/><line style="stroke:#181818;stroke-width:1.0;stroke-dasharray:2.0,2.0;" x1="370.5" x2="592.5" y1="903.9219" y2="903.9219"/><text fill="#000000" font-family="sans-serif" font-size="13" font-weight="bold" lengthAdjust="spacing" textLength="14" x="382.5" y="899.0654">16</text><text fill="#000000" font-family="sans-serif" font-size="13" lengthAdjust="spacing" textLength="94" x="400.5" y="899.0654">Error notification</text><line style="stroke:#181818;stroke-width:1.0;" x1="370.5" x2="412.5" y1="934.2734" y2="934.2734"/><line style="stroke:#181818;stroke-width:1.0;" x1="412.5" x2="412.5" y1="934.2734" y2="947.2734"/><line style="stroke:#181818;stroke-width:1.0;" x1="371.5" x2="412.5" y1="947.2734" y2="947.2734"/><polygon fill="#181818" points="381.5,943.2734,371.5,947.2734,381.5,951.2734,377.5,947.2734" style="stroke:#181818;stroke-width:1.0;"/><text fill="#000000" font-family="sans-serif" font-size="13" font-weight="bold" lengthAdjust="spacing" textLength="14" x="377.5" y="929.417">17</text><text fill="#000000" font-family="sans-serif" font-size="13" lengthAdjust="spacing" textLength="139" x="395.5" y="929.417">Display error notification</text><line style="stroke:#000000;stroke-width:1.0;stroke-dasharray:2.0,2.0;" x1="75" x2="947.5" y1="986.2734" y2="986.2734"/><text fill="#000000" font-family="sans-serif" font-size="11" font-weight="bold" lengthAdjust="spacing" textLength="61" x="80" y="997.6924">[Valid data]</text><line style="stroke:#181818;stroke-width:1.0;" x1="850.5" x2="892.5" y1="1023.4609" y2="1023.4609"/><line style="stroke:#181818;stroke-width:1.0;" x1="892.5" x2="892.5" y1="1023.4609" y2="1036.4609"/><line style="stroke:#181818;stroke-width:1.0;" x1="851.5" x2="892.5" y1="1036.4609" y2="1036.4609"/><polygon fill="#181818" points="861.5,1032.4609,851.5,1036.4609,861.5,1040.4609,857.5,1036.4609" style="stroke:#181818;stroke-width:1.0;"/><text fill="#000000" font-family="sans-serif" font-size="13" font-weight="bold" lengthAdjust="spacing" textLength="14" x="857.5" y="1018.6045">18</text><text fill="#000000" font-family="sans-serif" font-size="13" lengthAdjust="spacing" textLength="60" x="875.5" y="1018.6045">Store data</text><polygon fill="#181818" points="614.5,1092.8125,604.5,1096.8125,614.5,1100.8125,610.5,1096.8125" style="stroke:#181818;stroke-width:1.0;"/><line style="stroke:#181818;stroke-width:1.0;stroke-dasharray:2.0,2.0;" x1="608.5" x2="839.5" y1="1096.8125" y2="1096.8125"/><text fill="#000000" font-family="sans-serif" font-size="13" font-weight="bold" lengthAdjust="spacing" textLength="14" x="620.5" y="1091.9561">19</text><text fill="#000000" font-family="sans-serif" font-size="13" lengthAdjust="spacing" textLength="117" x="638.5" y="1091.9561">Success notification</text><polygon fill="#181818" points="376.5,1123.1641,366.5,1127.1641,376.5,1131.1641,372.5,1127.1641" style="stroke:#181818;stroke-width:1.0;"/><line style="stroke:#181818;stroke-width:1.0;stroke-dasharray:2.0,2.0;" x1="370.5" x2="592.5" y1="1127.1641" y2="1127.1641"/><text fill="#000000" font-family="sans-serif" font-size="13" font-weight="bold" lengthAdjust="spacing" textLength="14" x="382.5" y="1122.3076">20</text><text fill="#000000" font-family="sans-serif" font-size="13" lengthAdjust="spacing" textLength="117" x="400.5" y="1122.3076">Success notification</text><line style="stroke:#181818;stroke-width:1.0;" x1="365.5" x2="407.5" y1="1162.5156" y2="1162.5156"/><line style="stroke:#181818;stroke-width:1.0;" x1="407.5" x2="407.5" y1="1162.5156" y2="1175.5156"/><line style="stroke:#181818;stroke-width:1.0;" x1="360.5" x2="407.5" y1="1175.5156" y2="1175.5156"/><polygon fill="#181818" points="370.5,1171.5156,360.5,1175.5156,370.5,1179.5156,366.5,1175.5156" style="stroke:#181818;stroke-width:1.0;"/><text fill="#000000" font-family="sans-serif" font-size="13" font-weight="bold" lengthAdjust="spacing" textLength="14" x="372.5" y="1157.6592">21</text><text fill="#000000" font-family="sans-serif" font-size="13" lengthAdjust="spacing" textLength="61" x="390.5" y="1157.6592">Close view</text><polygon fill="#181818" points="186.5,1196.8672,176.5,1200.8672,186.5,1204.8672,182.5,1200.8672" style="stroke:#181818;stroke-width:1.0;"/><line style="stroke:#181818;stroke-width:1.0;" x1="180.5" x2="597.5" y1="1200.8672" y2="1200.8672"/><text fill="#000000" font-family="sans-serif" font-size="13" font-weight="bold" lengthAdjust="spacing" textLength="14" x="192.5" y="1196.0107">22</text><text fill="#000000" font-family="sans-serif" font-size="13" lengthAdjust="spacing" textLength="290" x="210.5" y="1196.0107">Display success notification and list of documents</text><!--MD5=[feeb434378378b0f8e70c14b672e324f]
@startuml UpdateDocumentSeq
autonumber
hide footbox

actor Admin
boundary DocumentManagementView
boundary DocumentInformationView
control DocumentController
entity DOCUMENT

opt Search 
ref over Admin, DocumentManagementView, DocumentInformationView, DocumentController, DOCUMENT: Sequence Search Document
end 

Admin -> DocumentManagementView: Select document\n needs updating
activate Admin
activate DocumentManagementView
DocumentManagementView -> DocumentController: Get selected document information
activate DocumentController
DocumentController -> DOCUMENT: Get selected document information
activate DOCUMENT
DOCUMENT - -> DocumentController: Selected document information
deactivate DOCUMENT
DocumentController - -> DocumentInformationView: Selected document information
deactivate DocumentController
activate DocumentInformationView
DocumentInformationView -> DocumentInformationView: Display document information
activate DocumentInformationView
deactivate DocumentInformationView
Admin -> DocumentInformationView: Enter document information  
DocumentInformationView -> DocumentInformationView: Validate data
activate DocumentInformationView
deactivate DocumentInformationView
alt Invalid data
    DocumentInformationView - -> Admin: Error notification
    DocumentInformationView -> DocumentInformationView: Display error notification
    activate DocumentInformationView
    deactivate DocumentInformationView
else Valid data
    Admin -> DocumentInformationView: Click button "Save" to confirm
    deactivate Admin
    DocumentInformationView -> DocumentController: Send updating document request
    activate DocumentController
    DocumentController -> DOCUMENT: Send information
    activate DOCUMENT
    DOCUMENT -> DOCUMENT: Validate data
    activate DOCUMENT
    deactivate DOCUMENT
    alt Invalid data
        DOCUMENT - -> DocumentController: Error notification
        DocumentController - -> DocumentInformationView: Error notification
        DocumentInformationView -> DocumentInformationView: Display error notification
        activate DocumentInformationView
        deactivate DocumentInformationView
    else Valid data
        DOCUMENT -> DOCUMENT: Store data
        activate DOCUMENT
        deactivate DOCUMENT
        DOCUMENT - -> DocumentController: Success notification
        deactivate DOCUMENT
        DocumentController - -> DocumentInformationView: Success notification
        DocumentInformationView -> DocumentInformationView: Close view
        deactivate DocumentInformationView
        DocumentController -> DocumentManagementView: Display success notification and list of documents
        deactivate DocumentManagementView
        deactivate DocumentController
    end
end
@enduml

PlantUML version 1.2022.7(Tue Aug 23 00:01:30 ICT 2022)
(GPL source distribution)
Java Runtime: Java(TM) SE Runtime Environment
JVM: Java HotSpot(TM) 64-Bit Server VM
Default Encoding: Cp1252
Language: en
Country: US
--></g></svg>