<?xml version="1.0" encoding="UTF-8" standalone="no"?><svg xmlns="http://www.w3.org/2000/svg" xmlns:xlink="http://www.w3.org/1999/xlink" contentStyleType="text/css" height="824px" preserveAspectRatio="none" style="width:731px;height:824px;background:#FFFFFF;" version="1.1" viewBox="0 0 731 824" width="731px" zoomAndPan="magnify"><defs/><g><rect fill="#F1F1F1" height="50.1875" rx="12.5" ry="12.5" style="stroke:#181818;stroke-width:0.5;" width="121" x="21" y="194.2832"/><text fill="#000000" font-family="sans-serif" font-size="12" lengthAdjust="spacing" textLength="101" x="31" y="216.7402">(2) Enter schedule</text><text fill="#000000" font-family="sans-serif" font-size="12" lengthAdjust="spacing" textLength="62" x="31" y="231.834">information</text><polygon fill="#F1F1F1" points="81.5,150.2832,93.5,162.2832,81.5,174.2832,69.5,162.2832,81.5,150.2832" style="stroke:#181818;stroke-width:0.5;"/><rect fill="#F1F1F1" height="50.1875" rx="12.5" ry="12.5" style="stroke:#181818;stroke-width:0.5;" width="112" x="25.5" y="391.4834"/><text fill="#000000" font-family="sans-serif" font-size="12" lengthAdjust="spacing" textLength="92" x="35.5" y="413.9404">(3.2) Click button</text><text fill="#000000" font-family="sans-serif" font-size="12" lengthAdjust="spacing" textLength="92" x="35.5" y="429.0342">"Save" to confirm</text><line style="stroke:#000000;stroke-width:1.5;" x1="15" x2="15" y1="12.4551" y2="812.1396"/><ellipse cx="290.75" cy="50.0957" fill="#222222" rx="10" ry="10" style="stroke:#222222;stroke-width:1.0;"/><rect fill="#F1F1F1" height="50.1875" rx="12.5" ry="12.5" style="stroke:#181818;stroke-width:0.5;" width="133" x="224.25" y="80.0957"/><text fill="#000000" font-family="sans-serif" font-size="12" lengthAdjust="spacing" textLength="113" x="234.25" y="102.5527">(1) Display schedule</text><text fill="#000000" font-family="sans-serif" font-size="12" lengthAdjust="spacing" textLength="89" x="234.25" y="117.6465">information view</text><rect fill="#F1F1F1" height="35.0938" rx="12.5" ry="12.5" style="stroke:#181818;stroke-width:0.5;" width="147" x="217.25" y="279.4707"/><text fill="#000000" font-family="sans-serif" font-size="12" lengthAdjust="spacing" textLength="127" x="227.25" y="301.9277">(3) Validate data format</text><polygon fill="#F1F1F1" points="290.75,334.5645,290.75,334.5645,302.75,346.5645,290.75,358.5645,290.75,358.5645,278.75,346.5645,290.75,334.5645" style="stroke:#181818;stroke-width:0.5;"/><text fill="#000000" font-family="sans-serif" font-size="11" lengthAdjust="spacing" textLength="48" x="294.75" y="369.9834">Valid data</text><text fill="#000000" font-family="sans-serif" font-size="11" lengthAdjust="spacing" textLength="54" x="302.75" y="344.1475">Invalid data</text><rect fill="#F1F1F1" height="50.1875" rx="12.5" ry="12.5" style="stroke:#181818;stroke-width:0.5;" width="108" x="388.25" y="229.3301"/><text fill="#000000" font-family="sans-serif" font-size="12" lengthAdjust="spacing" textLength="69" x="398.25" y="251.7871">(3.1) Display</text><text fill="#000000" font-family="sans-serif" font-size="12" lengthAdjust="spacing" textLength="88" x="398.25" y="266.8809">error notification</text><rect fill="#F1F1F1" height="35.0938" rx="12.5" ry="12.5" style="stroke:#181818;stroke-width:0.5;" width="176" x="202.75" y="461.6709"/><text fill="#000000" font-family="sans-serif" font-size="12" lengthAdjust="spacing" textLength="156" x="212.75" y="484.1279">(4) Process creating request</text><rect fill="#F1F1F1" height="50.1875" rx="12.5" ry="12.5" style="stroke:#181818;stroke-width:0.5;" width="108" x="152" y="615.8584"/><text fill="#000000" font-family="sans-serif" font-size="12" lengthAdjust="spacing" textLength="69" x="162" y="638.3154">(5.1) Display</text><text fill="#000000" font-family="sans-serif" font-size="12" lengthAdjust="spacing" textLength="88" x="162" y="653.4092">error notification</text><rect fill="#F1F1F1" height="50.1875" rx="12.5" ry="12.5" style="stroke:#181818;stroke-width:0.5;" width="191" x="280" y="685.9521"/><text fill="#000000" font-family="sans-serif" font-size="12" lengthAdjust="spacing" textLength="171" x="290" y="708.4092">(6) Display success notification</text><text fill="#000000" font-family="sans-serif" font-size="12" lengthAdjust="spacing" textLength="114" x="290" y="723.5029">and list of schedules</text><line style="stroke:#000000;stroke-width:1.5;" x1="146" x2="146" y1="12.4551" y2="812.1396"/><rect fill="#F1F1F1" height="35.0938" rx="12.5" ry="12.5" style="stroke:#181818;stroke-width:0.5;" width="109" x="516.75" y="516.7646"/><text fill="#000000" font-family="sans-serif" font-size="12" lengthAdjust="spacing" textLength="89" x="526.75" y="539.2217">(5) Validate data</text><polygon fill="#F1F1F1" points="571.25,571.8584,571.25,571.8584,583.25,583.8584,571.25,595.8584,571.25,595.8584,559.25,583.8584,571.25,571.8584" style="stroke:#181818;stroke-width:0.5;"/><text fill="#000000" font-family="sans-serif" font-size="11" lengthAdjust="spacing" textLength="54" x="505.25" y="581.4414">Invalid data</text><text fill="#000000" font-family="sans-serif" font-size="11" lengthAdjust="spacing" textLength="48" x="583.25" y="581.4414">Valid data</text><rect fill="#F1F1F1" height="35.0938" rx="12.5" ry="12.5" style="stroke:#181818;stroke-width:0.5;" width="104" x="604" y="615.8584"/><text fill="#000000" font-family="sans-serif" font-size="12" lengthAdjust="spacing" textLength="84" x="614" y="638.3154">(5.2) Store data</text><polygon fill="#F1F1F1" points="571.25,746.1396,583.25,758.1396,571.25,770.1396,559.25,758.1396,571.25,746.1396" style="stroke:#181818;stroke-width:0.5;"/><ellipse cx="571.25" cy="801.1396" fill="none" rx="11" ry="11" style="stroke:#222222;stroke-width:1.0;"/><ellipse cx="571.25" cy="801.1396" fill="#222222" rx="6" ry="6" style="stroke:#111111;stroke-width:1.0;"/><line style="stroke:#000000;stroke-width:1.5;" x1="500.25" x2="500.25" y1="12.4551" y2="812.1396"/><line style="stroke:#000000;stroke-width:1.5;" x1="712" x2="712" y1="12.4551" y2="812.1396"/><line style="stroke:#181818;stroke-width:1.0;" x1="81.5" x2="81.5" y1="174.2832" y2="194.2832"/><polygon fill="#181818" points="77.5,184.2832,81.5,194.2832,85.5,184.2832,81.5,188.2832" style="stroke:#181818;stroke-width:1.0;"/><line style="stroke:#181818;stroke-width:1.0;" x1="290.75" x2="290.75" y1="60.0957" y2="80.0957"/><polygon fill="#181818" points="286.75,70.0957,290.75,80.0957,294.75,70.0957,290.75,74.0957" style="stroke:#181818;stroke-width:1.0;"/><line style="stroke:#181818;stroke-width:1.0;" x1="302.75" x2="442.25" y1="346.5645" y2="346.5645"/><line style="stroke:#181818;stroke-width:1.0;" x1="442.25" x2="442.25" y1="279.5176" y2="346.5645"/><polygon fill="#181818" points="438.25,289.5176,442.25,279.5176,446.25,289.5176,442.25,285.5176" style="stroke:#181818;stroke-width:1.0;"/><line style="stroke:#181818;stroke-width:1.0;" x1="290.75" x2="290.75" y1="314.5645" y2="334.5645"/><polygon fill="#181818" points="286.75,324.5645,290.75,334.5645,294.75,324.5645,290.75,328.5645" style="stroke:#181818;stroke-width:1.0;"/><line style="stroke:#181818;stroke-width:1.0;" x1="583.25" x2="656" y1="583.8584" y2="583.8584"/><line style="stroke:#181818;stroke-width:1.0;" x1="656" x2="656" y1="583.8584" y2="615.8584"/><polygon fill="#181818" points="652,605.8584,656,615.8584,660,605.8584,656,609.8584" style="stroke:#181818;stroke-width:1.0;"/><line style="stroke:#181818;stroke-width:1.0;" x1="571.25" x2="571.25" y1="551.8584" y2="571.8584"/><polygon fill="#181818" points="567.25,561.8584,571.25,571.8584,575.25,561.8584,571.25,565.8584" style="stroke:#181818;stroke-width:1.0;"/><line style="stroke:#181818;stroke-width:1.0;" x1="571.25" x2="571.25" y1="770.1396" y2="790.1396"/><polygon fill="#181818" points="567.25,780.1396,571.25,790.1396,575.25,780.1396,571.25,784.1396" style="stroke:#181818;stroke-width:1.0;"/><line style="stroke:#181818;stroke-width:1.0;" x1="81.5" x2="81.5" y1="244.4707" y2="261.9707"/><line style="stroke:#181818;stroke-width:1.0;" x1="81.5" x2="290.75" y1="261.9707" y2="261.9707"/><line style="stroke:#181818;stroke-width:1.0;" x1="290.75" x2="290.75" y1="261.9707" y2="279.4707"/><polygon fill="#181818" points="286.75,269.4707,290.75,279.4707,294.75,269.4707,290.75,273.4707" style="stroke:#181818;stroke-width:1.0;"/><line style="stroke:#181818;stroke-width:1.0;" x1="442.25" x2="442.25" y1="162.2832" y2="229.3301"/><line style="stroke:#181818;stroke-width:1.0;" x1="442.25" x2="93.5" y1="162.2832" y2="162.2832"/><polygon fill="#181818" points="103.5,158.2832,93.5,162.2832,103.5,166.2832,99.5,162.2832" style="stroke:#181818;stroke-width:1.0;"/><line style="stroke:#181818;stroke-width:1.0;" x1="290.75" x2="290.75" y1="130.2832" y2="135.2832"/><line style="stroke:#181818;stroke-width:1.0;" x1="290.75" x2="81.5" y1="135.2832" y2="135.2832"/><line style="stroke:#181818;stroke-width:1.0;" x1="81.5" x2="81.5" y1="135.2832" y2="150.2832"/><polygon fill="#181818" points="77.5,140.2832,81.5,150.2832,85.5,140.2832,81.5,144.2832" style="stroke:#181818;stroke-width:1.0;"/><line style="stroke:#181818;stroke-width:1.0;" x1="290.75" x2="290.75" y1="358.5645" y2="376.0645"/><line style="stroke:#181818;stroke-width:1.0;" x1="290.75" x2="81.5" y1="376.0645" y2="376.0645"/><line style="stroke:#181818;stroke-width:1.0;" x1="81.5" x2="81.5" y1="376.0645" y2="391.4834"/><polygon fill="#181818" points="77.5,381.4834,81.5,391.4834,85.5,381.4834,81.5,385.4834" style="stroke:#181818;stroke-width:1.0;"/><line style="stroke:#181818;stroke-width:1.0;" x1="81.5" x2="81.5" y1="441.6709" y2="446.6709"/><line style="stroke:#181818;stroke-width:1.0;" x1="81.5" x2="290.75" y1="446.6709" y2="446.6709"/><line style="stroke:#181818;stroke-width:1.0;" x1="290.75" x2="290.75" y1="446.6709" y2="461.6709"/><polygon fill="#181818" points="286.75,451.6709,290.75,461.6709,294.75,451.6709,290.75,455.6709" style="stroke:#181818;stroke-width:1.0;"/><line style="stroke:#181818;stroke-width:1.0;" x1="290.75" x2="290.75" y1="496.7646" y2="501.7646"/><line style="stroke:#181818;stroke-width:1.0;" x1="290.75" x2="571.25" y1="501.7646" y2="501.7646"/><line style="stroke:#181818;stroke-width:1.0;" x1="571.25" x2="571.25" y1="501.7646" y2="516.7646"/><polygon fill="#181818" points="567.25,506.7646,571.25,516.7646,575.25,506.7646,571.25,510.7646" style="stroke:#181818;stroke-width:1.0;"/><line style="stroke:#181818;stroke-width:1.0;" x1="656" x2="656" y1="650.9521" y2="668.4521"/><line style="stroke:#181818;stroke-width:1.0;" x1="656" x2="375.5" y1="668.4521" y2="668.4521"/><line style="stroke:#181818;stroke-width:1.0;" x1="375.5" x2="375.5" y1="668.4521" y2="685.9521"/><polygon fill="#181818" points="371.5,675.9521,375.5,685.9521,379.5,675.9521,375.5,679.9521" style="stroke:#181818;stroke-width:1.0;"/><line style="stroke:#181818;stroke-width:1.0;" x1="559.25" x2="206" y1="583.8584" y2="583.8584"/><line style="stroke:#181818;stroke-width:1.0;" x1="206" x2="206" y1="583.8584" y2="615.8584"/><polygon fill="#181818" points="202,605.8584,206,615.8584,210,605.8584,206,609.8584" style="stroke:#181818;stroke-width:1.0;"/><line style="stroke:#181818;stroke-width:1.0;" x1="206" x2="206" y1="666.0459" y2="758.1396"/><line style="stroke:#181818;stroke-width:1.0;" x1="206" x2="559.25" y1="758.1396" y2="758.1396"/><polygon fill="#181818" points="549.25,754.1396,559.25,758.1396,549.25,762.1396,553.25,758.1396" style="stroke:#181818;stroke-width:1.0;"/><line style="stroke:#181818;stroke-width:1.0;" x1="375.5" x2="375.5" y1="736.1396" y2="740.1396"/><line style="stroke:#181818;stroke-width:1.0;" x1="375.5" x2="601.25" y1="740.1396" y2="740.1396"/><line style="stroke:#181818;stroke-width:1.0;" x1="601.25" x2="601.25" y1="740.1396" y2="758.1396"/><line style="stroke:#181818;stroke-width:1.0;" x1="601.25" x2="583.25" y1="758.1396" y2="758.1396"/><polygon fill="#181818" points="593.25,754.1396,583.25,758.1396,593.25,762.1396,589.25,758.1396" style="stroke:#181818;stroke-width:1.0;"/><text fill="#000000" font-family="sans-serif" font-size="18" lengthAdjust="spacing" textLength="53" x="54" y="31.1406">Doctor</text><text fill="#000000" font-family="sans-serif" font-size="18" lengthAdjust="spacing" textLength="59" x="293.625" y="31.1406">System</text><text fill="#000000" font-family="sans-serif" font-size="18" lengthAdjust="spacing" textLength="77" x="567.625" y="31.1406">Database</text><!--MD5=[fa923d96f1fa9a1988f28d15b03b1ec2]
@startuml CreateImmunizationScheduleActi
|Doctor|
|System|

start
:(1) Display schedule\ninformation view;

repeat
    |Doctor|
    :(2) Enter schedule\ninformation;
    |System|
    :(3) Validate data format;
    backward :(3.1) Display\nerror notification;
repeat while () is (Invalid data) not (Valid data)
    |Doctor|
    :(3.2) Click button\n"Save" to confirm;
    |System|
    :(4) Process creating request;
    |Database|
    :(5) Validate data;
    if () then (Invalid data)
        |System|
        :(5.1) Display\nerror notification;
    else (Valid data)
        |Database|  
        :(5.2) Store data;
        |System|
        :(6) Display success notification\nand list of schedules;
        endif
    |Database|
stop
@enduml

PlantUML version 1.2022.7(Tue Aug 23 00:01:30 ICT 2022)
(GPL source distribution)
Java Runtime: Java(TM) SE Runtime Environment
JVM: Java HotSpot(TM) 64-Bit Server VM
Default Encoding: Cp1252
Language: en
Country: US
--></g></svg>