<?xml version="1.0" encoding="UTF-8" standalone="no"?><svg xmlns="http://www.w3.org/2000/svg" xmlns:xlink="http://www.w3.org/1999/xlink" contentStyleType="text/css" height="728px" preserveAspectRatio="none" style="width:884px;height:728px;background:#FFFFFF;" version="1.1" viewBox="0 0 884 728" width="884px" zoomAndPan="magnify"><defs/><g><ellipse cx="176.25" cy="50.0957" fill="#222222" rx="10" ry="10" style="stroke:#222222;stroke-width:1.0;"/><rect fill="#F1F1F1" height="50.1875" rx="12.5" ry="12.5" style="stroke:#181818;stroke-width:0.5;" width="126" x="113.25" y="80.0957"/><text fill="#000000" font-family="sans-serif" font-size="12" lengthAdjust="spacing" textLength="106" x="123.25" y="102.5527">(1) Select schedule</text><text fill="#000000" font-family="sans-serif" font-size="12" lengthAdjust="spacing" textLength="82" x="123.25" y="117.6465">needs deleting</text><rect fill="#F1F1F1" height="50.1875" rx="12.5" ry="12.5" style="stroke:#181818;stroke-width:0.5;" width="104" x="21" y="264.4707"/><text fill="#000000" font-family="sans-serif" font-size="12" lengthAdjust="spacing" textLength="55" x="31" y="286.9277">(2.1) Click</text><text fill="#000000" font-family="sans-serif" font-size="12" lengthAdjust="spacing" textLength="84" x="31" y="302.0215">"Cancel" button</text><ellipse cx="73" cy="344.6582" fill="none" rx="10" ry="10" style="stroke:#222222;stroke-width:1.5;"/><line style="stroke:#222222;stroke-width:2.5;" x1="66.8128" x2="79.1872" y1="338.471" y2="350.8454"/><line style="stroke:#222222;stroke-width:2.5;" x1="79.1872" x2="66.8128" y1="338.471" y2="350.8454"/><rect fill="#F1F1F1" height="50.1875" rx="12.5" ry="12.5" style="stroke:#181818;stroke-width:0.5;" width="109" x="225" y="264.4707"/><text fill="#000000" font-family="sans-serif" font-size="12" lengthAdjust="spacing" textLength="55" x="235" y="286.9277">(2.2) Click</text><text fill="#000000" font-family="sans-serif" font-size="12" lengthAdjust="spacing" textLength="89" x="235" y="302.0215">"Confirm" button</text><line style="stroke:#000000;stroke-width:1.5;" x1="15" x2="15" y1="12.4551" y2="716.2207"/><rect fill="#F1F1F1" height="50.1875" rx="12.5" ry="12.5" style="stroke:#181818;stroke-width:0.5;" width="150" x="344" y="150.2832"/><text fill="#000000" font-family="sans-serif" font-size="12" lengthAdjust="spacing" textLength="130" x="354" y="172.7402">(2) Display confirmation</text><text fill="#000000" font-family="sans-serif" font-size="12" lengthAdjust="spacing" textLength="72" x="354" y="187.834">messagebox</text><polygon fill="#F1F1F1" points="419,220.4707,419,220.4707,431,232.4707,419,244.4707,419,244.4707,407,232.4707,419,220.4707" style="stroke:#181818;stroke-width:0.5;"/><text fill="#000000" font-family="sans-serif" font-size="11" lengthAdjust="spacing" textLength="33" x="374" y="230.0537">Cancel</text><text fill="#000000" font-family="sans-serif" font-size="11" lengthAdjust="spacing" textLength="37" x="431" y="230.0537">Confirm</text><rect fill="#F1F1F1" height="35.0938" rx="12.5" ry="12.5" style="stroke:#181818;stroke-width:0.5;" width="176" x="434.25" y="334.6582"/><text fill="#000000" font-family="sans-serif" font-size="12" lengthAdjust="spacing" textLength="156" x="444.25" y="357.1152">(3) Process deleting request</text><rect fill="#F1F1F1" height="50.1875" rx="12.5" ry="12.5" style="stroke:#181818;stroke-width:0.5;" width="108" x="397.75" y="488.8457"/><text fill="#000000" font-family="sans-serif" font-size="12" lengthAdjust="spacing" textLength="69" x="407.75" y="511.3027">(4.1) Display</text><text fill="#000000" font-family="sans-serif" font-size="12" lengthAdjust="spacing" textLength="88" x="407.75" y="526.3965">error notification</text><rect fill="#F1F1F1" height="65.2813" rx="12.5" ry="12.5" style="stroke:#181818;stroke-width:0.5;" width="134" x="525.75" y="558.9395"/><text fill="#000000" font-family="sans-serif" font-size="12" lengthAdjust="spacing" textLength="109" x="535.75" y="581.3965">(5) Display success</text><text fill="#000000" font-family="sans-serif" font-size="12" lengthAdjust="spacing" textLength="59" x="535.75" y="596.4902">notification</text><text fill="#000000" font-family="sans-serif" font-size="12" lengthAdjust="spacing" textLength="114" x="535.75" y="611.584">and list of schedules</text><line style="stroke:#000000;stroke-width:1.5;" x1="338" x2="338" y1="12.4551" y2="716.2207"/><rect fill="#F1F1F1" height="35.0938" rx="12.5" ry="12.5" style="stroke:#181818;stroke-width:0.5;" width="109" x="680.25" y="389.752"/><text fill="#000000" font-family="sans-serif" font-size="12" lengthAdjust="spacing" textLength="89" x="690.25" y="412.209">(4) Validate data</text><polygon fill="#F1F1F1" points="734.75,444.8457,734.75,444.8457,746.75,456.8457,734.75,468.8457,734.75,468.8457,722.75,456.8457,734.75,444.8457" style="stroke:#181818;stroke-width:0.5;"/><text fill="#000000" font-family="sans-serif" font-size="11" lengthAdjust="spacing" textLength="54" x="668.75" y="454.4287">Invalid data</text><text fill="#000000" font-family="sans-serif" font-size="11" lengthAdjust="spacing" textLength="48" x="746.75" y="454.4287">Valid data</text><rect fill="#F1F1F1" height="35.0938" rx="12.5" ry="12.5" style="stroke:#181818;stroke-width:0.5;" width="111" x="749.75" y="488.8457"/><text fill="#000000" font-family="sans-serif" font-size="12" lengthAdjust="spacing" textLength="91" x="759.75" y="511.3027">(4.2) Delete data</text><polygon fill="#F1F1F1" points="734.75,634.2207,746.75,646.2207,734.75,658.2207,722.75,646.2207,734.75,634.2207" style="stroke:#181818;stroke-width:0.5;"/><ellipse cx="734.75" cy="689.2207" fill="none" rx="11" ry="11" style="stroke:#222222;stroke-width:1.0;"/><ellipse cx="734.75" cy="689.2207" fill="#222222" rx="6" ry="6" style="stroke:#111111;stroke-width:1.0;"/><line style="stroke:#000000;stroke-width:1.5;" x1="663.75" x2="663.75" y1="12.4551" y2="716.2207"/><line style="stroke:#000000;stroke-width:1.5;" x1="864.75" x2="864.75" y1="12.4551" y2="716.2207"/><line style="stroke:#181818;stroke-width:1.0;" x1="176.25" x2="176.25" y1="60.0957" y2="80.0957"/><polygon fill="#181818" points="172.25,70.0957,176.25,80.0957,180.25,70.0957,176.25,74.0957" style="stroke:#181818;stroke-width:1.0;"/><line style="stroke:#181818;stroke-width:1.0;" x1="73" x2="73" y1="314.6582" y2="334.6582"/><polygon fill="#181818" points="69,324.6582,73,334.6582,77,324.6582,73,328.6582" style="stroke:#181818;stroke-width:1.0;"/><line style="stroke:#181818;stroke-width:1.0;" x1="419" x2="419" y1="200.4707" y2="220.4707"/><polygon fill="#181818" points="415,210.4707,419,220.4707,423,210.4707,419,214.4707" style="stroke:#181818;stroke-width:1.0;"/><line style="stroke:#181818;stroke-width:1.0;" x1="746.75" x2="805.25" y1="456.8457" y2="456.8457"/><line style="stroke:#181818;stroke-width:1.0;" x1="805.25" x2="805.25" y1="456.8457" y2="488.8457"/><polygon fill="#181818" points="801.25,478.8457,805.25,488.8457,809.25,478.8457,805.25,482.8457" style="stroke:#181818;stroke-width:1.0;"/><line style="stroke:#181818;stroke-width:1.0;" x1="734.75" x2="734.75" y1="424.8457" y2="444.8457"/><polygon fill="#181818" points="730.75,434.8457,734.75,444.8457,738.75,434.8457,734.75,438.8457" style="stroke:#181818;stroke-width:1.0;"/><line style="stroke:#181818;stroke-width:1.0;" x1="734.75" x2="734.75" y1="658.2207" y2="678.2207"/><polygon fill="#181818" points="730.75,668.2207,734.75,678.2207,738.75,668.2207,734.75,672.2207" style="stroke:#181818;stroke-width:1.0;"/><line style="stroke:#181818;stroke-width:1.0;" x1="176.25" x2="176.25" y1="130.2832" y2="135.2832"/><line style="stroke:#181818;stroke-width:1.0;" x1="176.25" x2="419" y1="135.2832" y2="135.2832"/><line style="stroke:#181818;stroke-width:1.0;" x1="419" x2="419" y1="135.2832" y2="150.2832"/><polygon fill="#181818" points="415,140.2832,419,150.2832,423,140.2832,419,144.2832" style="stroke:#181818;stroke-width:1.0;"/><line style="stroke:#181818;stroke-width:1.0;" x1="279.5" x2="279.5" y1="314.6582" y2="319.6582"/><line style="stroke:#181818;stroke-width:1.0;" x1="279.5" x2="522.25" y1="319.6582" y2="319.6582"/><line style="stroke:#181818;stroke-width:1.0;" x1="522.25" x2="522.25" y1="319.6582" y2="334.6582"/><polygon fill="#181818" points="518.25,324.6582,522.25,334.6582,526.25,324.6582,522.25,328.6582" style="stroke:#181818;stroke-width:1.0;"/><line style="stroke:#181818;stroke-width:1.0;" x1="522.25" x2="522.25" y1="369.752" y2="374.752"/><line style="stroke:#181818;stroke-width:1.0;" x1="522.25" x2="734.75" y1="374.752" y2="374.752"/><line style="stroke:#181818;stroke-width:1.0;" x1="734.75" x2="734.75" y1="374.752" y2="389.752"/><polygon fill="#181818" points="730.75,379.752,734.75,389.752,738.75,379.752,734.75,383.752" style="stroke:#181818;stroke-width:1.0;"/><line style="stroke:#181818;stroke-width:1.0;" x1="805.25" x2="805.25" y1="523.9395" y2="541.4395"/><line style="stroke:#181818;stroke-width:1.0;" x1="805.25" x2="592.75" y1="541.4395" y2="541.4395"/><line style="stroke:#181818;stroke-width:1.0;" x1="592.75" x2="592.75" y1="541.4395" y2="558.9395"/><polygon fill="#181818" points="588.75,548.9395,592.75,558.9395,596.75,548.9395,592.75,552.9395" style="stroke:#181818;stroke-width:1.0;"/><line style="stroke:#181818;stroke-width:1.0;" x1="722.75" x2="451.75" y1="456.8457" y2="456.8457"/><line style="stroke:#181818;stroke-width:1.0;" x1="451.75" x2="451.75" y1="456.8457" y2="488.8457"/><polygon fill="#181818" points="447.75,478.8457,451.75,488.8457,455.75,478.8457,451.75,482.8457" style="stroke:#181818;stroke-width:1.0;"/><line style="stroke:#181818;stroke-width:1.0;" x1="451.75" x2="451.75" y1="539.0332" y2="646.2207"/><line style="stroke:#181818;stroke-width:1.0;" x1="451.75" x2="722.75" y1="646.2207" y2="646.2207"/><polygon fill="#181818" points="712.75,642.2207,722.75,646.2207,712.75,650.2207,716.75,646.2207" style="stroke:#181818;stroke-width:1.0;"/><line style="stroke:#181818;stroke-width:1.0;" x1="592.75" x2="592.75" y1="624.2207" y2="628.2207"/><line style="stroke:#181818;stroke-width:1.0;" x1="592.75" x2="764.75" y1="628.2207" y2="628.2207"/><line style="stroke:#181818;stroke-width:1.0;" x1="764.75" x2="764.75" y1="628.2207" y2="646.2207"/><line style="stroke:#181818;stroke-width:1.0;" x1="764.75" x2="746.75" y1="646.2207" y2="646.2207"/><polygon fill="#181818" points="756.75,642.2207,746.75,646.2207,756.75,650.2207,752.75,646.2207" style="stroke:#181818;stroke-width:1.0;"/><line style="stroke:#181818;stroke-width:1.0;" x1="407" x2="73" y1="232.4707" y2="232.4707"/><line style="stroke:#181818;stroke-width:1.0;" x1="73" x2="73" y1="232.4707" y2="264.4707"/><polygon fill="#181818" points="69,254.4707,73,264.4707,77,254.4707,73,258.4707" style="stroke:#181818;stroke-width:1.0;"/><line style="stroke:#181818;stroke-width:1.0;" x1="431" x2="443" y1="232.4707" y2="232.4707"/><line style="stroke:#181818;stroke-width:1.0;" x1="443" x2="443" y1="232.4707" y2="250.4707"/><line style="stroke:#181818;stroke-width:1.0;" x1="443" x2="279.5" y1="250.4707" y2="250.4707"/><line style="stroke:#181818;stroke-width:1.0;" x1="279.5" x2="279.5" y1="250.4707" y2="264.4707"/><polygon fill="#181818" points="275.5,254.4707,279.5,264.4707,283.5,254.4707,279.5,258.4707" style="stroke:#181818;stroke-width:1.0;"/><text fill="#000000" font-family="sans-serif" font-size="18" lengthAdjust="spacing" textLength="53" x="150" y="31.1406">Doctor</text><text fill="#000000" font-family="sans-serif" font-size="18" lengthAdjust="spacing" textLength="59" x="471.375" y="31.1406">System</text><text fill="#000000" font-family="sans-serif" font-size="18" lengthAdjust="spacing" textLength="77" x="725.75" y="31.1406">Database</text><!--MD5=[ebfa0ec6ff83dfdb8a5488d47e11a797]
@startuml DeleteImmunizationScheduleActi
|Doctor|
start
:(1) Select schedule\nneeds deleting;
|System|
:(2) Display confirmation\nmessagebox;      
if () then (Cancel)
    |Doctor|
    :(2.1) Click\n"Cancel" button;
    end
else (Confirm)
    |Doctor|
    :(2.2) Click\n"Confirm" button;
    |System|
    :(3) Process deleting request;
    |Database|
    :(4) Validate data;
    if () then (Invalid data)
        |System|
        :(4.1) Display\nerror notification;
    else (Valid data)
        |Database|  
        :(4.2) Delete data;
        |System|
        :(5) Display success\nnotification\nand list of schedules;
        endif
    |Database|
stop
@enduml

PlantUML version 1.2022.7(Tue Aug 23 00:01:30 ICT 2022)
(GPL source distribution)
Java Runtime: Java(TM) SE Runtime Environment
JVM: Java HotSpot(TM) 64-Bit Server VM
Default Encoding: Cp1252
Language: en
Country: US
--></g></svg>