<?xml version="1.0" encoding="UTF-8" standalone="no"?><svg xmlns="http://www.w3.org/2000/svg" xmlns:xlink="http://www.w3.org/1999/xlink" contentStyleType="text/css" height="364px" preserveAspectRatio="none" style="width:514px;height:364px;background:#FFFFFF;" version="1.1" viewBox="0 0 514 364" width="514px" zoomAndPan="magnify"><defs/><g><ellipse cx="88.5" cy="50.0957" fill="#222222" rx="10" ry="10" style="stroke:#222222;stroke-width:1.0;"/><rect fill="#F1F1F1" height="50.1875" rx="12.5" ry="12.5" style="stroke:#181818;stroke-width:0.5;" width="135" x="21" y="80.0957"/><text fill="#000000" font-family="sans-serif" font-size="12" lengthAdjust="spacing" textLength="115" x="31" y="102.5527">(1) Enters the search</text><text fill="#000000" font-family="sans-serif" font-size="12" lengthAdjust="spacing" textLength="113" x="31" y="117.6465">criteria in search box</text><line style="stroke:#000000;stroke-width:1.5;" x1="15" x2="15" y1="12.4551" y2="352.6582"/><rect fill="#F1F1F1" height="35.0938" rx="12.5" ry="12.5" style="stroke:#181818;stroke-width:0.5;" width="187" x="166" y="150.2832"/><text fill="#000000" font-family="sans-serif" font-size="12" lengthAdjust="spacing" textLength="167" x="176" y="172.7402">(2) Process searching request</text><rect fill="#F1F1F1" height="35.0938" rx="12.5" ry="12.5" style="stroke:#181818;stroke-width:0.5;" width="154" x="182.5" y="275.5645"/><text fill="#000000" font-family="sans-serif" font-size="12" lengthAdjust="spacing" textLength="134" x="192.5" y="298.0215">(4) Display search result</text><ellipse cx="259.5" cy="341.6582" fill="none" rx="11" ry="11" style="stroke:#222222;stroke-width:1.0;"/><ellipse cx="259.5" cy="341.6582" fill="#222222" rx="6" ry="6" style="stroke:#111111;stroke-width:1.0;"/><line style="stroke:#000000;stroke-width:1.5;" x1="160" x2="160" y1="12.4551" y2="352.6582"/><rect fill="#F1F1F1" height="50.1875" rx="12.5" ry="12.5" style="stroke:#181818;stroke-width:0.5;" width="128" x="363" y="205.377"/><text fill="#000000" font-family="sans-serif" font-size="12" lengthAdjust="spacing" textLength="108" x="373" y="227.834">(3) Query data base</text><text fill="#000000" font-family="sans-serif" font-size="12" lengthAdjust="spacing" textLength="69" x="373" y="242.9277">on keywords</text><line style="stroke:#000000;stroke-width:1.5;" x1="357" x2="357" y1="12.4551" y2="352.6582"/><line style="stroke:#000000;stroke-width:1.5;" x1="495" x2="495" y1="12.4551" y2="352.6582"/><line style="stroke:#181818;stroke-width:1.0;" x1="88.5" x2="88.5" y1="60.0957" y2="80.0957"/><polygon fill="#181818" points="84.5,70.0957,88.5,80.0957,92.5,70.0957,88.5,74.0957" style="stroke:#181818;stroke-width:1.0;"/><line style="stroke:#181818;stroke-width:1.0;" x1="259.5" x2="259.5" y1="310.6582" y2="330.6582"/><polygon fill="#181818" points="255.5,320.6582,259.5,330.6582,263.5,320.6582,259.5,324.6582" style="stroke:#181818;stroke-width:1.0;"/><line style="stroke:#181818;stroke-width:1.0;" x1="88.5" x2="88.5" y1="130.2832" y2="135.2832"/><line style="stroke:#181818;stroke-width:1.0;" x1="88.5" x2="259.5" y1="135.2832" y2="135.2832"/><line style="stroke:#181818;stroke-width:1.0;" x1="259.5" x2="259.5" y1="135.2832" y2="150.2832"/><polygon fill="#181818" points="255.5,140.2832,259.5,150.2832,263.5,140.2832,259.5,144.2832" style="stroke:#181818;stroke-width:1.0;"/><line style="stroke:#181818;stroke-width:1.0;" x1="259.5" x2="259.5" y1="185.377" y2="190.377"/><line style="stroke:#181818;stroke-width:1.0;" x1="259.5" x2="427" y1="190.377" y2="190.377"/><line style="stroke:#181818;stroke-width:1.0;" x1="427" x2="427" y1="190.377" y2="205.377"/><polygon fill="#181818" points="423,195.377,427,205.377,431,195.377,427,199.377" style="stroke:#181818;stroke-width:1.0;"/><line style="stroke:#181818;stroke-width:1.0;" x1="427" x2="427" y1="255.5645" y2="260.5645"/><line style="stroke:#181818;stroke-width:1.0;" x1="427" x2="259.5" y1="260.5645" y2="260.5645"/><line style="stroke:#181818;stroke-width:1.0;" x1="259.5" x2="259.5" y1="260.5645" y2="275.5645"/><polygon fill="#181818" points="255.5,265.5645,259.5,275.5645,263.5,265.5645,259.5,269.5645" style="stroke:#181818;stroke-width:1.0;"/><text fill="#000000" font-family="sans-serif" font-size="18" lengthAdjust="spacing" textLength="53" x="61" y="31.1406">Doctor</text><text fill="#000000" font-family="sans-serif" font-size="18" lengthAdjust="spacing" textLength="59" x="229" y="31.1406">System</text><text fill="#000000" font-family="sans-serif" font-size="18" lengthAdjust="spacing" textLength="77" x="387.5" y="31.1406">Database</text><!--MD5=[5df07b57f0320d71ff50b5a26ee3744b]
@startuml SearchImmunizationScheduleActi
|Doctor|
start
:(1) Enters the search\ncriteria in search box;
|System|
:(2) Process searching request;
|Database|
:(3) Query data base\non keywords;
|System|
:(4) Display search result;
stop
@enduml

PlantUML version 1.2022.7(Tue Aug 23 00:01:30 ICT 2022)
(GPL source distribution)
Java Runtime: Java(TM) SE Runtime Environment
JVM: Java HotSpot(TM) 64-Bit Server VM
Default Encoding: Cp1252
Language: en
Country: US
--></g></svg>