<?xml version="1.0" encoding="UTF-8" standalone="no"?><svg xmlns="http://www.w3.org/2000/svg" xmlns:xlink="http://www.w3.org/1999/xlink" contentStyleType="text/css" height="432px" preserveAspectRatio="none" style="width:690px;height:432px;background:#FFFFFF;" version="1.1" viewBox="0 0 690 432" width="690px" zoomAndPan="magnify"><defs/><g><rect fill="#F1F1F1" height="35.0938" rx="12.5" ry="12.5" style="stroke:#181818;stroke-width:0.5;" width="128" x="165" y="150.2832"/><text fill="#000000" font-family="sans-serif" font-size="12" lengthAdjust="spacing" textLength="108" x="175" y="172.7402">(2) Choose function</text><polygon fill="#F1F1F1" points="68,205.377,68,205.377,80,217.377,68,229.377,68,229.377,56,217.377,68,205.377" style="stroke:#181818;stroke-width:0.5;"/><text fill="#000000" font-family="sans-serif" font-size="11" lengthAdjust="spacing" textLength="32" x="72" y="240.7959">Create</text><rect fill="#F1F1F1" height="95.4688" rx="12.5" ry="12.5" style="stroke:#181818;stroke-width:0.5;" width="94" x="21" y="263.2129"/><text fill="#000000" font-family="sans-serif" font-size="12" lengthAdjust="spacing" textLength="25" x="31" y="285.6699">(2.1)</text><text fill="#000000" font-family="sans-serif" font-size="12" lengthAdjust="spacing" textLength="35" x="31" y="300.7637">Activity</text><text fill="#000000" font-family="sans-serif" font-size="12" lengthAdjust="spacing" textLength="37" x="31" y="315.8574">Create</text><text fill="#000000" font-family="sans-serif" font-size="12" lengthAdjust="spacing" textLength="74" x="31" y="330.9512">Immunization</text><text fill="#000000" font-family="sans-serif" font-size="12" lengthAdjust="spacing" textLength="52" x="31" y="346.0449">Schedule</text><polygon fill="#F1F1F1" points="172,205.377,172,205.377,184,217.377,172,229.377,172,229.377,160,217.377,172,205.377" style="stroke:#181818;stroke-width:0.5;"/><text fill="#000000" font-family="sans-serif" font-size="11" lengthAdjust="spacing" textLength="34" x="176" y="240.7959">Update</text><rect fill="#F1F1F1" height="95.4688" rx="12.5" ry="12.5" style="stroke:#181818;stroke-width:0.5;" width="94" x="125" y="263.2129"/><text fill="#000000" font-family="sans-serif" font-size="12" lengthAdjust="spacing" textLength="25" x="135" y="285.6699">(2.2)</text><text fill="#000000" font-family="sans-serif" font-size="12" lengthAdjust="spacing" textLength="35" x="135" y="300.7637">Activity</text><text fill="#000000" font-family="sans-serif" font-size="12" lengthAdjust="spacing" textLength="40" x="135" y="315.8574">Update</text><text fill="#000000" font-family="sans-serif" font-size="12" lengthAdjust="spacing" textLength="74" x="135" y="330.9512">Immunization</text><text fill="#000000" font-family="sans-serif" font-size="12" lengthAdjust="spacing" textLength="52" x="135" y="346.0449">Schedule</text><polygon fill="#F1F1F1" points="286,205.377,286,205.377,298,217.377,286,229.377,286,229.377,274,217.377,286,205.377" style="stroke:#181818;stroke-width:0.5;"/><text fill="#000000" font-family="sans-serif" font-size="11" lengthAdjust="spacing" textLength="30" x="290" y="240.7959">Delete</text><text fill="#000000" font-family="sans-serif" font-size="11" lengthAdjust="spacing" textLength="35" x="298" y="214.96">Search</text><rect fill="#F1F1F1" height="95.4688" rx="12.5" ry="12.5" style="stroke:#181818;stroke-width:0.5;" width="94" x="239" y="263.2129"/><text fill="#000000" font-family="sans-serif" font-size="12" lengthAdjust="spacing" textLength="25" x="249" y="285.6699">(2.3)</text><text fill="#000000" font-family="sans-serif" font-size="12" lengthAdjust="spacing" textLength="35" x="249" y="300.7637">Activity</text><text fill="#000000" font-family="sans-serif" font-size="12" lengthAdjust="spacing" textLength="36" x="249" y="315.8574">Delete</text><text fill="#000000" font-family="sans-serif" font-size="12" lengthAdjust="spacing" textLength="74" x="249" y="330.9512">Immunization</text><text fill="#000000" font-family="sans-serif" font-size="12" lengthAdjust="spacing" textLength="52" x="249" y="346.0449">Schedule</text><rect fill="#F1F1F1" height="95.4688" rx="12.5" ry="12.5" style="stroke:#181818;stroke-width:0.5;" width="94" x="343" y="259.2949"/><text fill="#000000" font-family="sans-serif" font-size="12" lengthAdjust="spacing" textLength="25" x="353" y="281.752">(2.4)</text><text fill="#000000" font-family="sans-serif" font-size="12" lengthAdjust="spacing" textLength="35" x="353" y="296.8457">Activity</text><text fill="#000000" font-family="sans-serif" font-size="12" lengthAdjust="spacing" textLength="39" x="353" y="311.9395">Search</text><text fill="#000000" font-family="sans-serif" font-size="12" lengthAdjust="spacing" textLength="74" x="353" y="327.0332">Immunization</text><text fill="#000000" font-family="sans-serif" font-size="12" lengthAdjust="spacing" textLength="52" x="353" y="342.127">Schedule</text><line style="stroke:#000000;stroke-width:1.5;" x1="15" x2="15" y1="12.4551" y2="420.6816"/><ellipse cx="513.5" cy="50.0957" fill="#222222" rx="10" ry="10" style="stroke:#222222;stroke-width:1.0;"/><rect fill="#F1F1F1" height="50.1875" rx="12.5" ry="12.5" style="stroke:#181818;stroke-width:0.5;" width="133" x="447" y="80.0957"/><text fill="#000000" font-family="sans-serif" font-size="12" lengthAdjust="spacing" textLength="113" x="457" y="102.5527">(1) Display schedule</text><text fill="#000000" font-family="sans-serif" font-size="12" lengthAdjust="spacing" textLength="101" x="457" y="117.6465">management view</text><ellipse cx="513.5" cy="409.6816" fill="none" rx="11" ry="11" style="stroke:#222222;stroke-width:1.0;"/><ellipse cx="513.5" cy="409.6816" fill="#222222" rx="6" ry="6" style="stroke:#111111;stroke-width:1.0;"/><line style="stroke:#000000;stroke-width:1.5;" x1="441" x2="441" y1="12.4551" y2="420.6816"/><line style="stroke:#000000;stroke-width:1.5;" x1="584" x2="584" y1="12.4551" y2="420.6816"/><line style="stroke:#000000;stroke-width:1.5;" x1="671" x2="671" y1="12.4551" y2="420.6816"/><line style="stroke:#181818;stroke-width:1.0;" x1="68" x2="68" y1="229.377" y2="263.2129"/><polygon fill="#181818" points="64,253.2129,68,263.2129,72,253.2129,68,257.2129" style="stroke:#181818;stroke-width:1.0;"/><line style="stroke:#181818;stroke-width:1.0;" x1="68" x2="68" y1="358.6816" y2="378.6816"/><polygon fill="#181818" points="64,368.6816,68,378.6816,72,368.6816,68,372.6816" style="stroke:#181818;stroke-width:1.0;"/><line style="stroke:#181818;stroke-width:1.0;" x1="172" x2="172" y1="229.377" y2="263.2129"/><polygon fill="#181818" points="168,253.2129,172,263.2129,176,253.2129,172,257.2129" style="stroke:#181818;stroke-width:1.0;"/><line style="stroke:#181818;stroke-width:1.0;" x1="172" x2="172" y1="358.6816" y2="378.6816"/><polygon fill="#181818" points="168,368.6816,172,378.6816,176,368.6816,172,372.6816" style="stroke:#181818;stroke-width:1.0;"/><line style="stroke:#181818;stroke-width:1.0;" x1="286" x2="286" y1="229.377" y2="263.2129"/><polygon fill="#181818" points="282,253.2129,286,263.2129,290,253.2129,286,257.2129" style="stroke:#181818;stroke-width:1.0;"/><line style="stroke:#181818;stroke-width:1.0;" x1="286" x2="286" y1="358.6816" y2="378.6816"/><polygon fill="#181818" points="282,368.6816,286,378.6816,290,368.6816,286,372.6816" style="stroke:#181818;stroke-width:1.0;"/><line style="stroke:#181818;stroke-width:1.0;" x1="80" x2="160" y1="217.377" y2="217.377"/><polygon fill="#181818" points="150,213.377,160,217.377,150,221.377,154,217.377" style="stroke:#181818;stroke-width:1.0;"/><line style="stroke:#181818;stroke-width:1.0;" x1="184" x2="274" y1="217.377" y2="217.377"/><polygon fill="#181818" points="264,213.377,274,217.377,264,221.377,268,217.377" style="stroke:#181818;stroke-width:1.0;"/><line style="stroke:#181818;stroke-width:1.0;" x1="229" x2="229" y1="185.377" y2="190.377"/><line style="stroke:#181818;stroke-width:1.0;" x1="229" x2="68" y1="190.377" y2="190.377"/><line style="stroke:#181818;stroke-width:1.0;" x1="68" x2="68" y1="190.377" y2="205.377"/><polygon fill="#181818" points="64,195.377,68,205.377,72,195.377,68,199.377" style="stroke:#181818;stroke-width:1.0;"/><line style="stroke:#181818;stroke-width:1.0;" x1="298" x2="390" y1="217.377" y2="217.377"/><line style="stroke:#181818;stroke-width:1.0;" x1="390" x2="390" y1="217.377" y2="259.2949"/><polygon fill="#181818" points="386,249.2949,390,259.2949,394,249.2949,390,253.2949" style="stroke:#181818;stroke-width:1.0;"/><line style="stroke:#181818;stroke-width:1.0;" x1="390" x2="390" y1="354.7637" y2="378.6816"/><polygon fill="#181818" points="386,368.6816,390,378.6816,394,368.6816,390,372.6816" style="stroke:#181818;stroke-width:1.0;"/><line style="stroke:#181818;stroke-width:1.0;" x1="68" x2="390" y1="378.6816" y2="378.6816"/><line style="stroke:#181818;stroke-width:1.0;" x1="513.5" x2="513.5" y1="60.0957" y2="80.0957"/><polygon fill="#181818" points="509.5,70.0957,513.5,80.0957,517.5,70.0957,513.5,74.0957" style="stroke:#181818;stroke-width:1.0;"/><line style="stroke:#181818;stroke-width:1.0;" x1="513.5" x2="513.5" y1="130.2832" y2="135.2832"/><line style="stroke:#181818;stroke-width:1.0;" x1="513.5" x2="229" y1="135.2832" y2="135.2832"/><line style="stroke:#181818;stroke-width:1.0;" x1="229" x2="229" y1="135.2832" y2="150.2832"/><polygon fill="#181818" points="225,140.2832,229,150.2832,233,140.2832,229,144.2832" style="stroke:#181818;stroke-width:1.0;"/><line style="stroke:#181818;stroke-width:1.0;" x1="229" x2="229" y1="378.6816" y2="383.6816"/><line style="stroke:#181818;stroke-width:1.0;" x1="229" x2="513.5" y1="383.6816" y2="383.6816"/><line style="stroke:#181818;stroke-width:1.0;" x1="513.5" x2="513.5" y1="383.6816" y2="398.6816"/><polygon fill="#181818" points="509.5,388.6816,513.5,398.6816,517.5,388.6816,513.5,392.6816" style="stroke:#181818;stroke-width:1.0;"/><text fill="#000000" font-family="sans-serif" font-size="18" lengthAdjust="spacing" textLength="53" x="201.5" y="31.1406">Doctor</text><text fill="#000000" font-family="sans-serif" font-size="18" lengthAdjust="spacing" textLength="59" x="483" y="31.1406">System</text><text fill="#000000" font-family="sans-serif" font-size="18" lengthAdjust="spacing" textLength="77" x="589" y="31.1406">Database</text><!--MD5=[cf51a3f415d09df3b74d3aecb9a1f8bb]
@startuml SuperviseImmunizationScheduleActi
|Doctor|
|System|
|Database|
|System|
start
:(1) Display schedule\nmanagement view;
|Doctor|
:(2) Choose function;
if () then (Create)
  :(2.1)\nActivity\nCreate\nImmunization\nSchedule; 
elseif () then (Update) 
  :(2.2)\nActivity\nUpdate\nImmunization\nSchedule; 
elseif () then (Delete)
  :(2.3)\nActivity\nDelete\nImmunization\nSchedule; 
else (Search)
  :(2.4)\nActivity\nSearch\nImmunization\nSchedule; 
endif
|System|
stop
@enduml

PlantUML version 1.2022.7(Tue Aug 23 00:01:30 ICT 2022)
(GPL source distribution)
Java Runtime: Java(TM) SE Runtime Environment
JVM: Java HotSpot(TM) 64-Bit Server VM
Default Encoding: Cp1252
Language: en
Country: US
--></g></svg>