<?xml version="1.0" encoding="UTF-8" standalone="no"?><svg xmlns="http://www.w3.org/2000/svg" xmlns:xlink="http://www.w3.org/1999/xlink" contentStyleType="text/css" height="1019px" preserveAspectRatio="none" style="width:736px;height:1019px;background:#FFFFFF;" version="1.1" viewBox="0 0 736 1019" width="736px" zoomAndPan="magnify"><defs/><g><ellipse cx="84" cy="50.0957" fill="#222222" rx="10" ry="10" style="stroke:#222222;stroke-width:1.0;"/><rect fill="#F1F1F1" height="50.1875" rx="12.5" ry="12.5" style="stroke:#181818;stroke-width:0.5;" width="126" x="21" y="80.0957"/><text fill="#000000" font-family="sans-serif" font-size="12" lengthAdjust="spacing" textLength="106" x="31" y="102.5527">(1) Select schedule</text><text fill="#000000" font-family="sans-serif" font-size="12" lengthAdjust="spacing" textLength="86" x="31" y="117.6465">needs updating</text><rect fill="#F1F1F1" height="50.1875" rx="12.5" ry="12.5" style="stroke:#181818;stroke-width:0.5;" width="121" x="23.5" y="389.752"/><text fill="#000000" font-family="sans-serif" font-size="12" lengthAdjust="spacing" textLength="101" x="33.5" y="412.209">(5) Enter schedule</text><text fill="#000000" font-family="sans-serif" font-size="12" lengthAdjust="spacing" textLength="62" x="33.5" y="427.3027">information</text><polygon fill="#F1F1F1" points="84,345.752,96,357.752,84,369.752,72,357.752,84,345.752" style="stroke:#181818;stroke-width:0.5;"/><rect fill="#F1F1F1" height="50.1875" rx="12.5" ry="12.5" style="stroke:#181818;stroke-width:0.5;" width="112" x="28" y="586.9521"/><text fill="#000000" font-family="sans-serif" font-size="12" lengthAdjust="spacing" textLength="92" x="38" y="609.4092">(6.2) Click button</text><text fill="#000000" font-family="sans-serif" font-size="12" lengthAdjust="spacing" textLength="92" x="38" y="624.5029">"Save" to confirm</text><line style="stroke:#000000;stroke-width:1.5;" x1="15" x2="15" y1="12.4551" y2="1007.6084"/><rect fill="#F1F1F1" height="50.1875" rx="12.5" ry="12.5" style="stroke:#181818;stroke-width:0.5;" width="136" x="227.75" y="150.2832"/><text fill="#000000" font-family="sans-serif" font-size="12" lengthAdjust="spacing" textLength="87" x="237.75" y="172.7402">(2) Get selected</text><text fill="#000000" font-family="sans-serif" font-size="12" lengthAdjust="spacing" textLength="116" x="237.75" y="187.834">schedule information</text><rect fill="#F1F1F1" height="50.1875" rx="12.5" ry="12.5" style="stroke:#181818;stroke-width:0.5;" width="133" x="229.25" y="275.5645"/><text fill="#000000" font-family="sans-serif" font-size="12" lengthAdjust="spacing" textLength="113" x="239.25" y="298.0215">(4) Display schedule</text><text fill="#000000" font-family="sans-serif" font-size="12" lengthAdjust="spacing" textLength="89" x="239.25" y="313.1152">information view</text><rect fill="#F1F1F1" height="35.0938" rx="12.5" ry="12.5" style="stroke:#181818;stroke-width:0.5;" width="147" x="222.25" y="474.9395"/><text fill="#000000" font-family="sans-serif" font-size="12" lengthAdjust="spacing" textLength="127" x="232.25" y="497.3965">(6) Validate data format</text><polygon fill="#F1F1F1" points="295.75,530.0332,295.75,530.0332,307.75,542.0332,295.75,554.0332,295.75,554.0332,283.75,542.0332,295.75,530.0332" style="stroke:#181818;stroke-width:0.5;"/><text fill="#000000" font-family="sans-serif" font-size="11" lengthAdjust="spacing" textLength="48" x="299.75" y="565.4521">Valid data</text><text fill="#000000" font-family="sans-serif" font-size="11" lengthAdjust="spacing" textLength="54" x="307.75" y="539.6162">Invalid data</text><rect fill="#F1F1F1" height="50.1875" rx="12.5" ry="12.5" style="stroke:#181818;stroke-width:0.5;" width="108" x="393.25" y="424.7988"/><text fill="#000000" font-family="sans-serif" font-size="12" lengthAdjust="spacing" textLength="69" x="403.25" y="447.2559">(6.1) Display</text><text fill="#000000" font-family="sans-serif" font-size="12" lengthAdjust="spacing" textLength="88" x="403.25" y="462.3496">error notification</text><rect fill="#F1F1F1" height="35.0938" rx="12.5" ry="12.5" style="stroke:#181818;stroke-width:0.5;" width="180" x="205.75" y="657.1396"/><text fill="#000000" font-family="sans-serif" font-size="12" lengthAdjust="spacing" textLength="160" x="215.75" y="679.5967">(7) Process updating request</text><rect fill="#F1F1F1" height="50.1875" rx="12.5" ry="12.5" style="stroke:#181818;stroke-width:0.5;" width="108" x="157" y="811.3271"/><text fill="#000000" font-family="sans-serif" font-size="12" lengthAdjust="spacing" textLength="69" x="167" y="833.7842">(8.1) Display</text><text fill="#000000" font-family="sans-serif" font-size="12" lengthAdjust="spacing" textLength="88" x="167" y="848.8779">error notification</text><rect fill="#F1F1F1" height="50.1875" rx="12.5" ry="12.5" style="stroke:#181818;stroke-width:0.5;" width="191" x="285" y="881.4209"/><text fill="#000000" font-family="sans-serif" font-size="12" lengthAdjust="spacing" textLength="171" x="295" y="903.8779">(9) Display success notification</text><text fill="#000000" font-family="sans-serif" font-size="12" lengthAdjust="spacing" textLength="114" x="295" y="918.9717">and list of schedules</text><line style="stroke:#000000;stroke-width:1.5;" x1="151" x2="151" y1="12.4551" y2="1007.6084"/><rect fill="#F1F1F1" height="35.0938" rx="12.5" ry="12.5" style="stroke:#181818;stroke-width:0.5;" width="97" x="527.75" y="220.4707"/><text fill="#000000" font-family="sans-serif" font-size="12" lengthAdjust="spacing" textLength="77" x="537.75" y="242.9277">(3) Query data</text><rect fill="#F1F1F1" height="35.0938" rx="12.5" ry="12.5" style="stroke:#181818;stroke-width:0.5;" width="109" x="521.75" y="712.2334"/><text fill="#000000" font-family="sans-serif" font-size="12" lengthAdjust="spacing" textLength="89" x="531.75" y="734.6904">(8) Validate data</text><polygon fill="#F1F1F1" points="576.25,767.3271,576.25,767.3271,588.25,779.3271,576.25,791.3271,576.25,791.3271,564.25,779.3271,576.25,767.3271" style="stroke:#181818;stroke-width:0.5;"/><text fill="#000000" font-family="sans-serif" font-size="11" lengthAdjust="spacing" textLength="54" x="510.25" y="776.9102">Invalid data</text><text fill="#000000" font-family="sans-serif" font-size="11" lengthAdjust="spacing" textLength="48" x="588.25" y="776.9102">Valid data</text><rect fill="#F1F1F1" height="35.0938" rx="12.5" ry="12.5" style="stroke:#181818;stroke-width:0.5;" width="104" x="609" y="811.3271"/><text fill="#000000" font-family="sans-serif" font-size="12" lengthAdjust="spacing" textLength="84" x="619" y="833.7842">(8.2) Store data</text><polygon fill="#F1F1F1" points="576.25,941.6084,588.25,953.6084,576.25,965.6084,564.25,953.6084,576.25,941.6084" style="stroke:#181818;stroke-width:0.5;"/><ellipse cx="576.25" cy="996.6084" fill="none" rx="11" ry="11" style="stroke:#222222;stroke-width:1.0;"/><ellipse cx="576.25" cy="996.6084" fill="#222222" rx="6" ry="6" style="stroke:#111111;stroke-width:1.0;"/><line style="stroke:#000000;stroke-width:1.5;" x1="505.25" x2="505.25" y1="12.4551" y2="1007.6084"/><line style="stroke:#000000;stroke-width:1.5;" x1="717" x2="717" y1="12.4551" y2="1007.6084"/><line style="stroke:#181818;stroke-width:1.0;" x1="84" x2="84" y1="60.0957" y2="80.0957"/><polygon fill="#181818" points="80,70.0957,84,80.0957,88,70.0957,84,74.0957" style="stroke:#181818;stroke-width:1.0;"/><line style="stroke:#181818;stroke-width:1.0;" x1="84" x2="84" y1="369.752" y2="389.752"/><polygon fill="#181818" points="80,379.752,84,389.752,88,379.752,84,383.752" style="stroke:#181818;stroke-width:1.0;"/><line style="stroke:#181818;stroke-width:1.0;" x1="307.75" x2="447.25" y1="542.0332" y2="542.0332"/><line style="stroke:#181818;stroke-width:1.0;" x1="447.25" x2="447.25" y1="474.9863" y2="542.0332"/><polygon fill="#181818" points="443.25,484.9863,447.25,474.9863,451.25,484.9863,447.25,480.9863" style="stroke:#181818;stroke-width:1.0;"/><line style="stroke:#181818;stroke-width:1.0;" x1="295.75" x2="295.75" y1="510.0332" y2="530.0332"/><polygon fill="#181818" points="291.75,520.0332,295.75,530.0332,299.75,520.0332,295.75,524.0332" style="stroke:#181818;stroke-width:1.0;"/><line style="stroke:#181818;stroke-width:1.0;" x1="588.25" x2="661" y1="779.3271" y2="779.3271"/><line style="stroke:#181818;stroke-width:1.0;" x1="661" x2="661" y1="779.3271" y2="811.3271"/><polygon fill="#181818" points="657,801.3271,661,811.3271,665,801.3271,661,805.3271" style="stroke:#181818;stroke-width:1.0;"/><line style="stroke:#181818;stroke-width:1.0;" x1="576.25" x2="576.25" y1="747.3271" y2="767.3271"/><polygon fill="#181818" points="572.25,757.3271,576.25,767.3271,580.25,757.3271,576.25,761.3271" style="stroke:#181818;stroke-width:1.0;"/><line style="stroke:#181818;stroke-width:1.0;" x1="576.25" x2="576.25" y1="965.6084" y2="985.6084"/><polygon fill="#181818" points="572.25,975.6084,576.25,985.6084,580.25,975.6084,576.25,979.6084" style="stroke:#181818;stroke-width:1.0;"/><line style="stroke:#181818;stroke-width:1.0;" x1="84" x2="84" y1="130.2832" y2="135.2832"/><line style="stroke:#181818;stroke-width:1.0;" x1="84" x2="295.75" y1="135.2832" y2="135.2832"/><line style="stroke:#181818;stroke-width:1.0;" x1="295.75" x2="295.75" y1="135.2832" y2="150.2832"/><polygon fill="#181818" points="291.75,140.2832,295.75,150.2832,299.75,140.2832,295.75,144.2832" style="stroke:#181818;stroke-width:1.0;"/><line style="stroke:#181818;stroke-width:1.0;" x1="295.75" x2="295.75" y1="200.4707" y2="205.4707"/><line style="stroke:#181818;stroke-width:1.0;" x1="295.75" x2="576.25" y1="205.4707" y2="205.4707"/><line style="stroke:#181818;stroke-width:1.0;" x1="576.25" x2="576.25" y1="205.4707" y2="220.4707"/><polygon fill="#181818" points="572.25,210.4707,576.25,220.4707,580.25,210.4707,576.25,214.4707" style="stroke:#181818;stroke-width:1.0;"/><line style="stroke:#181818;stroke-width:1.0;" x1="576.25" x2="576.25" y1="255.5645" y2="260.5645"/><line style="stroke:#181818;stroke-width:1.0;" x1="576.25" x2="295.75" y1="260.5645" y2="260.5645"/><line style="stroke:#181818;stroke-width:1.0;" x1="295.75" x2="295.75" y1="260.5645" y2="275.5645"/><polygon fill="#181818" points="291.75,265.5645,295.75,275.5645,299.75,265.5645,295.75,269.5645" style="stroke:#181818;stroke-width:1.0;"/><line style="stroke:#181818;stroke-width:1.0;" x1="84" x2="84" y1="439.9395" y2="457.4395"/><line style="stroke:#181818;stroke-width:1.0;" x1="84" x2="295.75" y1="457.4395" y2="457.4395"/><line style="stroke:#181818;stroke-width:1.0;" x1="295.75" x2="295.75" y1="457.4395" y2="474.9395"/><polygon fill="#181818" points="291.75,464.9395,295.75,474.9395,299.75,464.9395,295.75,468.9395" style="stroke:#181818;stroke-width:1.0;"/><line style="stroke:#181818;stroke-width:1.0;" x1="447.25" x2="447.25" y1="357.752" y2="424.7988"/><line style="stroke:#181818;stroke-width:1.0;" x1="447.25" x2="96" y1="357.752" y2="357.752"/><polygon fill="#181818" points="106,353.752,96,357.752,106,361.752,102,357.752" style="stroke:#181818;stroke-width:1.0;"/><line style="stroke:#181818;stroke-width:1.0;" x1="295.75" x2="295.75" y1="325.752" y2="330.752"/><line style="stroke:#181818;stroke-width:1.0;" x1="295.75" x2="84" y1="330.752" y2="330.752"/><line style="stroke:#181818;stroke-width:1.0;" x1="84" x2="84" y1="330.752" y2="345.752"/><polygon fill="#181818" points="80,335.752,84,345.752,88,335.752,84,339.752" style="stroke:#181818;stroke-width:1.0;"/><line style="stroke:#181818;stroke-width:1.0;" x1="295.75" x2="295.75" y1="554.0332" y2="571.5332"/><line style="stroke:#181818;stroke-width:1.0;" x1="295.75" x2="84" y1="571.5332" y2="571.5332"/><line style="stroke:#181818;stroke-width:1.0;" x1="84" x2="84" y1="571.5332" y2="586.9521"/><polygon fill="#181818" points="80,576.9521,84,586.9521,88,576.9521,84,580.9521" style="stroke:#181818;stroke-width:1.0;"/><line style="stroke:#181818;stroke-width:1.0;" x1="84" x2="84" y1="637.1396" y2="642.1396"/><line style="stroke:#181818;stroke-width:1.0;" x1="84" x2="295.75" y1="642.1396" y2="642.1396"/><line style="stroke:#181818;stroke-width:1.0;" x1="295.75" x2="295.75" y1="642.1396" y2="657.1396"/><polygon fill="#181818" points="291.75,647.1396,295.75,657.1396,299.75,647.1396,295.75,651.1396" style="stroke:#181818;stroke-width:1.0;"/><line style="stroke:#181818;stroke-width:1.0;" x1="295.75" x2="295.75" y1="692.2334" y2="697.2334"/><line style="stroke:#181818;stroke-width:1.0;" x1="295.75" x2="576.25" y1="697.2334" y2="697.2334"/><line style="stroke:#181818;stroke-width:1.0;" x1="576.25" x2="576.25" y1="697.2334" y2="712.2334"/><polygon fill="#181818" points="572.25,702.2334,576.25,712.2334,580.25,702.2334,576.25,706.2334" style="stroke:#181818;stroke-width:1.0;"/><line style="stroke:#181818;stroke-width:1.0;" x1="661" x2="661" y1="846.4209" y2="863.9209"/><line style="stroke:#181818;stroke-width:1.0;" x1="661" x2="380.5" y1="863.9209" y2="863.9209"/><line style="stroke:#181818;stroke-width:1.0;" x1="380.5" x2="380.5" y1="863.9209" y2="881.4209"/><polygon fill="#181818" points="376.5,871.4209,380.5,881.4209,384.5,871.4209,380.5,875.4209" style="stroke:#181818;stroke-width:1.0;"/><line style="stroke:#181818;stroke-width:1.0;" x1="564.25" x2="211" y1="779.3271" y2="779.3271"/><line style="stroke:#181818;stroke-width:1.0;" x1="211" x2="211" y1="779.3271" y2="811.3271"/><polygon fill="#181818" points="207,801.3271,211,811.3271,215,801.3271,211,805.3271" style="stroke:#181818;stroke-width:1.0;"/><line style="stroke:#181818;stroke-width:1.0;" x1="211" x2="211" y1="861.5146" y2="953.6084"/><line style="stroke:#181818;stroke-width:1.0;" x1="211" x2="564.25" y1="953.6084" y2="953.6084"/><polygon fill="#181818" points="554.25,949.6084,564.25,953.6084,554.25,957.6084,558.25,953.6084" style="stroke:#181818;stroke-width:1.0;"/><line style="stroke:#181818;stroke-width:1.0;" x1="380.5" x2="380.5" y1="931.6084" y2="935.6084"/><line style="stroke:#181818;stroke-width:1.0;" x1="380.5" x2="606.25" y1="935.6084" y2="935.6084"/><line style="stroke:#181818;stroke-width:1.0;" x1="606.25" x2="606.25" y1="935.6084" y2="953.6084"/><line style="stroke:#181818;stroke-width:1.0;" x1="606.25" x2="588.25" y1="953.6084" y2="953.6084"/><polygon fill="#181818" points="598.25,949.6084,588.25,953.6084,598.25,957.6084,594.25,953.6084" style="stroke:#181818;stroke-width:1.0;"/><text fill="#000000" font-family="sans-serif" font-size="18" lengthAdjust="spacing" textLength="53" x="56.5" y="31.1406">Doctor</text><text fill="#000000" font-family="sans-serif" font-size="18" lengthAdjust="spacing" textLength="59" x="298.625" y="31.1406">System</text><text fill="#000000" font-family="sans-serif" font-size="18" lengthAdjust="spacing" textLength="77" x="572.625" y="31.1406">Database</text><!--MD5=[c10ee7578b74f1b2e3755fd56d6e48fb]
@startuml UpdateImmunizationScheduleActi
|Doctor|
start
:(1) Select schedule\nneeds updating;
|System|
:(2) Get selected\nschedule information;
|Database| 
:(3) Query data;
|System|
:(4) Display schedule\ninformation view;
repeat
    |Doctor|
    :(5) Enter schedule\ninformation;
    |System|
    :(6) Validate data format;
    backward :(6.1) Display\nerror notification;
repeat while () is (Invalid data) not (Valid data)
    |Doctor|
    :(6.2) Click button\n"Save" to confirm;
    |System|
    :(7) Process updating request;
    |Database|
    :(8) Validate data;
    if () then (Invalid data)
        |System|
        :(8.1) Display\nerror notification;
    else (Valid data)
        |Database|  
        :(8.2) Store data;
        |System|
        :(9) Display success notification\nand list of schedules;
        endif
    |Database|
stop
@enduml

PlantUML version 1.2022.7(Tue Aug 23 00:01:30 ICT 2022)
(GPL source distribution)
Java Runtime: Java(TM) SE Runtime Environment
JVM: Java HotSpot(TM) 64-Bit Server VM
Default Encoding: Cp1252
Language: en
Country: US
--></g></svg>