<?xml version="1.0" encoding="UTF-8" standalone="no"?><svg xmlns="http://www.w3.org/2000/svg" xmlns:xlink="http://www.w3.org/1999/xlink" contentStyleType="text/css" height="1203px" preserveAspectRatio="none" style="width:926px;height:1203px;background:#FFFFFF;" version="1.1" viewBox="0 0 926 1203" width="926px" zoomAndPan="magnify"><defs/><g><rect fill="#FFFFFF" height="248.5938" style="stroke:#181818;stroke-width:1.0;" width="10" x="39" y="369.0703"/><rect fill="#FFFFFF" height="30" style="stroke:#181818;stroke-width:1.0;" width="10" x="146" y="1134.7188"/><rect fill="#FFFFFF" height="848.3516" style="stroke:#181818;stroke-width:1.0;" width="10" x="302" y="249.0156"/><rect fill="#FFFFFF" height="28" style="stroke:#181818;stroke-width:1.0;" width="10" x="307" y="303.7188"/><rect fill="#FFFFFF" height="28" style="stroke:#181818;stroke-width:1.0;" width="10" x="307" y="407.4219"/><rect fill="#FFFFFF" height="28" style="stroke:#181818;stroke-width:1.0;" width="10" x="307" y="536.4766"/><rect fill="#FFFFFF" height="28" style="stroke:#181818;stroke-width:1.0;" width="10" x="307" y="876.125"/><rect fill="#FFFFFF" height="134.0547" style="stroke:#181818;stroke-width:1.0;" width="10" x="532" y="114.9609"/><rect fill="#FFFFFF" height="516.7031" style="stroke:#181818;stroke-width:1.0;" width="10" x="532" y="648.0156"/><rect fill="#FFFFFF" height="352.2969" style="stroke:#181818;stroke-width:1.0;" width="10" x="702" y="678.3672"/><rect fill="#FFFFFF" height="28" style="stroke:#181818;stroke-width:1.0;" width="10" x="707" y="716.7188"/><rect fill="#FFFFFF" height="28" style="stroke:#181818;stroke-width:1.0;" width="10" x="707" y="965.3125"/><rect fill="#FFFFFF" height="103.7031" style="stroke:#181818;stroke-width:1.0;" width="10" x="822" y="114.9609"/><rect fill="#FFFFFF" height="28" style="stroke:#181818;stroke-width:1.0;" width="10" x="827" y="153.3125"/><rect fill="none" height="722.2969" style="stroke:#000000;stroke-width:1.5;" width="820" x="10" y="457.4219"/><rect fill="none" height="406" style="stroke:#000000;stroke-width:1.5;" width="746" x="68" y="766.7188"/><line style="stroke:#181818;stroke-width:0.5;stroke-dasharray:5.0,5.0;" x1="44" x2="44" y1="82.6094" y2="1196.7188"/><line style="stroke:#181818;stroke-width:0.5;stroke-dasharray:5.0,5.0;" x1="151" x2="151" y1="82.6094" y2="1196.7188"/><line style="stroke:#181818;stroke-width:0.5;stroke-dasharray:5.0,5.0;" x1="307" x2="307" y1="82.6094" y2="1196.7188"/><line style="stroke:#181818;stroke-width:0.5;stroke-dasharray:5.0,5.0;" x1="537" x2="537" y1="82.6094" y2="1196.7188"/><line style="stroke:#181818;stroke-width:0.5;stroke-dasharray:5.0,5.0;" x1="707" x2="707" y1="82.6094" y2="1196.7188"/><line style="stroke:#181818;stroke-width:0.5;stroke-dasharray:5.0,5.0;" x1="827" x2="827" y1="82.6094" y2="1196.7188"/><text fill="#000000" font-family="sans-serif" font-size="14" lengthAdjust="spacing" textLength="42" x="20" y="79.5332">Doctor</text><ellipse cx="44" cy="13.5" fill="#E2E2F0" rx="8" ry="8" style="stroke:#181818;stroke-width:0.5;"/><path d="M44,21.5 L44,48.5 M31,29.5 L57,29.5 M44,48.5 L31,63.5 M44,48.5 L57,63.5 " fill="none" style="stroke:#181818;stroke-width:0.5;"/><text fill="#000000" font-family="sans-serif" font-size="14" lengthAdjust="spacing" textLength="140" x="78" y="61.9238">ImmunizationSchedule</text><text fill="#000000" font-family="sans-serif" font-size="14" lengthAdjust="spacing" textLength="111" x="92.5" y="79.5332">ManagementView</text><path d="M130.5,19.3906 L130.5,43.3906 M130.5,31.3906 L147.5,31.3906 " fill="none" style="stroke:#181818;stroke-width:0.5;"/><ellipse cx="159.5" cy="31.3906" fill="#E2E2F0" rx="12" ry="12" style="stroke:#181818;stroke-width:0.5;"/><text fill="#000000" font-family="sans-serif" font-size="14" lengthAdjust="spacing" textLength="140" x="234" y="61.9238">ImmunizationSchedule</text><text fill="#000000" font-family="sans-serif" font-size="14" lengthAdjust="spacing" textLength="99" x="254.5" y="79.5332">InformationView</text><path d="M286.5,19.3906 L286.5,43.3906 M286.5,31.3906 L303.5,31.3906 " fill="none" style="stroke:#181818;stroke-width:0.5;"/><ellipse cx="315.5" cy="31.3906" fill="#E2E2F0" rx="12" ry="12" style="stroke:#181818;stroke-width:0.5;"/><text fill="#000000" font-family="sans-serif" font-size="14" lengthAdjust="spacing" textLength="140" x="464" y="61.9238">ImmunizationSchedule</text><text fill="#000000" font-family="sans-serif" font-size="14" lengthAdjust="spacing" textLength="62" x="503" y="79.5332">Controller</text><ellipse cx="537" cy="31.3906" fill="#E2E2F0" rx="12" ry="12" style="stroke:#181818;stroke-width:0.5;"/><polygon fill="#181818" points="533,19.3906,539,14.3906,537,19.3906,539,24.3906,533,19.3906" style="stroke:#181818;stroke-width:1.0;"/><text fill="#000000" font-family="sans-serif" font-size="14" lengthAdjust="spacing" textLength="168" x="620" y="79.5332">IMMUNIZATIONSCHEDULE</text><ellipse cx="707" cy="49" fill="#E2E2F0" rx="12" ry="12" style="stroke:#181818;stroke-width:0.5;"/><line style="stroke:#181818;stroke-width:0.5;" x1="695" x2="719" y1="63" y2="63"/><text fill="#000000" font-family="sans-serif" font-size="14" lengthAdjust="spacing" textLength="40" x="804" y="79.5332">CHILD</text><ellipse cx="827" cy="49" fill="#E2E2F0" rx="12" ry="12" style="stroke:#181818;stroke-width:0.5;"/><line style="stroke:#181818;stroke-width:0.5;" x1="815" x2="839" y1="63" y2="63"/><rect fill="#FFFFFF" height="248.5938" style="stroke:#181818;stroke-width:1.0;" width="10" x="39" y="369.0703"/><rect fill="#FFFFFF" height="30" style="stroke:#181818;stroke-width:1.0;" width="10" x="146" y="1134.7188"/><rect fill="#FFFFFF" height="848.3516" style="stroke:#181818;stroke-width:1.0;" width="10" x="302" y="249.0156"/><rect fill="#FFFFFF" height="28" style="stroke:#181818;stroke-width:1.0;" width="10" x="307" y="303.7188"/><rect fill="#FFFFFF" height="28" style="stroke:#181818;stroke-width:1.0;" width="10" x="307" y="407.4219"/><rect fill="#FFFFFF" height="28" style="stroke:#181818;stroke-width:1.0;" width="10" x="307" y="536.4766"/><rect fill="#FFFFFF" height="28" style="stroke:#181818;stroke-width:1.0;" width="10" x="307" y="876.125"/><rect fill="#FFFFFF" height="134.0547" style="stroke:#181818;stroke-width:1.0;" width="10" x="532" y="114.9609"/><rect fill="#FFFFFF" height="516.7031" style="stroke:#181818;stroke-width:1.0;" width="10" x="532" y="648.0156"/><rect fill="#FFFFFF" height="352.2969" style="stroke:#181818;stroke-width:1.0;" width="10" x="702" y="678.3672"/><rect fill="#FFFFFF" height="28" style="stroke:#181818;stroke-width:1.0;" width="10" x="707" y="716.7188"/><rect fill="#FFFFFF" height="28" style="stroke:#181818;stroke-width:1.0;" width="10" x="707" y="965.3125"/><rect fill="#FFFFFF" height="103.7031" style="stroke:#181818;stroke-width:1.0;" width="10" x="822" y="114.9609"/><rect fill="#FFFFFF" height="28" style="stroke:#181818;stroke-width:1.0;" width="10" x="827" y="153.3125"/><polygon fill="#181818" points="810,110.9609,820,114.9609,810,118.9609,814,114.9609" style="stroke:#181818;stroke-width:1.0;"/><line style="stroke:#181818;stroke-width:1.0;" x1="542" x2="816" y1="114.9609" y2="114.9609"/><text fill="#000000" font-family="sans-serif" font-size="13" font-weight="bold" lengthAdjust="spacing" textLength="7" x="549" y="110.1045">1</text><text fill="#000000" font-family="sans-serif" font-size="13" lengthAdjust="spacing" textLength="105" x="560" y="110.1045">Get list of children</text><line style="stroke:#181818;stroke-width:1.0;" x1="837" x2="879" y1="145.3125" y2="145.3125"/><line style="stroke:#181818;stroke-width:1.0;" x1="879" x2="879" y1="145.3125" y2="158.3125"/><line style="stroke:#181818;stroke-width:1.0;" x1="838" x2="879" y1="158.3125" y2="158.3125"/><polygon fill="#181818" points="848,154.3125,838,158.3125,848,162.3125,844,158.3125" style="stroke:#181818;stroke-width:1.0;"/><text fill="#000000" font-family="sans-serif" font-size="13" font-weight="bold" lengthAdjust="spacing" textLength="7" x="844" y="140.4561">2</text><text fill="#000000" font-family="sans-serif" font-size="13" lengthAdjust="spacing" textLength="64" x="855" y="140.4561">Query data</text><polygon fill="#181818" points="553,214.6641,543,218.6641,553,222.6641,549,218.6641" style="stroke:#181818;stroke-width:1.0;"/><line style="stroke:#181818;stroke-width:1.0;stroke-dasharray:2.0,2.0;" x1="547" x2="826" y1="218.6641" y2="218.6641"/><text fill="#000000" font-family="sans-serif" font-size="13" font-weight="bold" lengthAdjust="spacing" textLength="7" x="559" y="213.8076">3</text><text fill="#000000" font-family="sans-serif" font-size="13" lengthAdjust="spacing" textLength="71" x="570" y="213.8076">Query result</text><polygon fill="#181818" points="323,245.0156,313,249.0156,323,253.0156,319,249.0156" style="stroke:#181818;stroke-width:1.0;"/><line style="stroke:#181818;stroke-width:1.0;stroke-dasharray:2.0,2.0;" x1="317" x2="536" y1="249.0156" y2="249.0156"/><text fill="#000000" font-family="sans-serif" font-size="13" font-weight="bold" lengthAdjust="spacing" textLength="7" x="329" y="244.1592">4</text><text fill="#000000" font-family="sans-serif" font-size="13" lengthAdjust="spacing" textLength="71" x="340" y="244.1592">Query result</text><line style="stroke:#181818;stroke-width:1.0;" x1="317" x2="359" y1="295.7188" y2="295.7188"/><line style="stroke:#181818;stroke-width:1.0;" x1="359" x2="359" y1="295.7188" y2="308.7188"/><line style="stroke:#181818;stroke-width:1.0;" x1="318" x2="359" y1="308.7188" y2="308.7188"/><polygon fill="#181818" points="328,304.7188,318,308.7188,328,312.7188,324,308.7188" style="stroke:#181818;stroke-width:1.0;"/><text fill="#000000" font-family="sans-serif" font-size="13" font-weight="bold" lengthAdjust="spacing" textLength="7" x="324" y="282.6865">5</text><text fill="#000000" font-family="sans-serif" font-size="13" lengthAdjust="spacing" textLength="70" x="335" y="274.5107">Display with</text><text fill="#000000" font-family="sans-serif" font-size="13" lengthAdjust="spacing" textLength="103" x="335" y="290.8623">empty information</text><polygon fill="#181818" points="290,365.0703,300,369.0703,290,373.0703,294,369.0703" style="stroke:#181818;stroke-width:1.0;"/><line style="stroke:#181818;stroke-width:1.0;" x1="49" x2="296" y1="369.0703" y2="369.0703"/><text fill="#000000" font-family="sans-serif" font-size="13" font-weight="bold" lengthAdjust="spacing" textLength="7" x="56" y="364.2139">6</text><text fill="#000000" font-family="sans-serif" font-size="13" lengthAdjust="spacing" textLength="154" x="67" y="364.2139">Enter schedule information</text><line style="stroke:#181818;stroke-width:1.0;" x1="317" x2="359" y1="399.4219" y2="399.4219"/><line style="stroke:#181818;stroke-width:1.0;" x1="359" x2="359" y1="399.4219" y2="412.4219"/><line style="stroke:#181818;stroke-width:1.0;" x1="318" x2="359" y1="412.4219" y2="412.4219"/><polygon fill="#181818" points="328,408.4219,318,412.4219,328,416.4219,324,412.4219" style="stroke:#181818;stroke-width:1.0;"/><text fill="#000000" font-family="sans-serif" font-size="13" font-weight="bold" lengthAdjust="spacing" textLength="7" x="324" y="394.5654">7</text><text fill="#000000" font-family="sans-serif" font-size="13" lengthAdjust="spacing" textLength="76" x="335" y="394.5654">Validate data</text><path d="M10,457.4219 L71,457.4219 L71,465.7734 L61,475.7734 L10,475.7734 L10,457.4219 " fill="#EEEEEE" style="stroke:#000000;stroke-width:1.5;"/><rect fill="none" height="722.2969" style="stroke:#000000;stroke-width:1.5;" width="820" x="10" y="457.4219"/><text fill="#000000" font-family="sans-serif" font-size="13" font-weight="bold" lengthAdjust="spacing" textLength="16" x="25" y="471.917">alt</text><text fill="#000000" font-family="sans-serif" font-size="11" font-weight="bold" lengthAdjust="spacing" textLength="69" x="86" y="470.8408">[Invalid data]</text><polygon fill="#181818" points="60,494.125,50,498.125,60,502.125,56,498.125" style="stroke:#181818;stroke-width:1.0;"/><line style="stroke:#181818;stroke-width:1.0;stroke-dasharray:2.0,2.0;" x1="54" x2="301" y1="498.125" y2="498.125"/><text fill="#000000" font-family="sans-serif" font-size="13" font-weight="bold" lengthAdjust="spacing" textLength="7" x="66" y="493.2686">8</text><text fill="#000000" font-family="sans-serif" font-size="13" lengthAdjust="spacing" textLength="94" x="77" y="493.2686">Error notification</text><line style="stroke:#181818;stroke-width:1.0;" x1="317" x2="359" y1="528.4766" y2="528.4766"/><line style="stroke:#181818;stroke-width:1.0;" x1="359" x2="359" y1="528.4766" y2="541.4766"/><line style="stroke:#181818;stroke-width:1.0;" x1="318" x2="359" y1="541.4766" y2="541.4766"/><polygon fill="#181818" points="328,537.4766,318,541.4766,328,545.4766,324,541.4766" style="stroke:#181818;stroke-width:1.0;"/><text fill="#000000" font-family="sans-serif" font-size="13" font-weight="bold" lengthAdjust="spacing" textLength="7" x="324" y="523.6201">9</text><text fill="#000000" font-family="sans-serif" font-size="13" lengthAdjust="spacing" textLength="139" x="335" y="523.6201">Display error notification</text><line style="stroke:#000000;stroke-width:1.0;stroke-dasharray:2.0,2.0;" x1="10" x2="830" y1="580.4766" y2="580.4766"/><text fill="#000000" font-family="sans-serif" font-size="11" font-weight="bold" lengthAdjust="spacing" textLength="61" x="15" y="591.8955">[Valid data]</text><polygon fill="#181818" points="290,613.6641,300,617.6641,290,621.6641,294,617.6641" style="stroke:#181818;stroke-width:1.0;"/><line style="stroke:#181818;stroke-width:1.0;" x1="44" x2="296" y1="617.6641" y2="617.6641"/><text fill="#000000" font-family="sans-serif" font-size="13" font-weight="bold" lengthAdjust="spacing" textLength="14" x="51" y="612.8076">10</text><text fill="#000000" font-family="sans-serif" font-size="13" lengthAdjust="spacing" textLength="172" x="69" y="612.8076">Click button "Save" to confirm</text><polygon fill="#181818" points="520,644.0156,530,648.0156,520,652.0156,524,648.0156" style="stroke:#181818;stroke-width:1.0;"/><line style="stroke:#181818;stroke-width:1.0;" x1="312" x2="526" y1="648.0156" y2="648.0156"/><text fill="#000000" font-family="sans-serif" font-size="13" font-weight="bold" lengthAdjust="spacing" textLength="14" x="319" y="643.1592">11</text><text fill="#000000" font-family="sans-serif" font-size="13" lengthAdjust="spacing" textLength="183" x="337" y="643.1592">Send creating schedule request</text><polygon fill="#181818" points="690,674.3672,700,678.3672,690,682.3672,694,678.3672" style="stroke:#181818;stroke-width:1.0;"/><line style="stroke:#181818;stroke-width:1.0;" x1="542" x2="696" y1="678.3672" y2="678.3672"/><text fill="#000000" font-family="sans-serif" font-size="13" font-weight="bold" lengthAdjust="spacing" textLength="14" x="549" y="673.5107">12</text><text fill="#000000" font-family="sans-serif" font-size="13" lengthAdjust="spacing" textLength="97" x="567" y="673.5107">Send information</text><line style="stroke:#181818;stroke-width:1.0;" x1="717" x2="759" y1="708.7188" y2="708.7188"/><line style="stroke:#181818;stroke-width:1.0;" x1="759" x2="759" y1="708.7188" y2="721.7188"/><line style="stroke:#181818;stroke-width:1.0;" x1="718" x2="759" y1="721.7188" y2="721.7188"/><polygon fill="#181818" points="728,717.7188,718,721.7188,728,725.7188,724,721.7188" style="stroke:#181818;stroke-width:1.0;"/><text fill="#000000" font-family="sans-serif" font-size="13" font-weight="bold" lengthAdjust="spacing" textLength="14" x="724" y="703.8623">13</text><text fill="#000000" font-family="sans-serif" font-size="13" lengthAdjust="spacing" textLength="76" x="742" y="703.8623">Validate data</text><path d="M68,766.7188 L129,766.7188 L129,775.0703 L119,785.0703 L68,785.0703 L68,766.7188 " fill="#EEEEEE" style="stroke:#000000;stroke-width:1.5;"/><rect fill="none" height="406" style="stroke:#000000;stroke-width:1.5;" width="746" x="68" y="766.7188"/><text fill="#000000" font-family="sans-serif" font-size="13" font-weight="bold" lengthAdjust="spacing" textLength="16" x="83" y="781.2139">alt</text><text fill="#000000" font-family="sans-serif" font-size="11" font-weight="bold" lengthAdjust="spacing" textLength="69" x="144" y="780.1377">[Invalid data]</text><polygon fill="#181818" points="553,803.4219,543,807.4219,553,811.4219,549,807.4219" style="stroke:#181818;stroke-width:1.0;"/><line style="stroke:#181818;stroke-width:1.0;stroke-dasharray:2.0,2.0;" x1="547" x2="701" y1="807.4219" y2="807.4219"/><text fill="#000000" font-family="sans-serif" font-size="13" font-weight="bold" lengthAdjust="spacing" textLength="14" x="559" y="802.5654">14</text><text fill="#000000" font-family="sans-serif" font-size="13" lengthAdjust="spacing" textLength="94" x="577" y="802.5654">Error notification</text><polygon fill="#181818" points="323,833.7734,313,837.7734,323,841.7734,319,837.7734" style="stroke:#181818;stroke-width:1.0;"/><line style="stroke:#181818;stroke-width:1.0;stroke-dasharray:2.0,2.0;" x1="317" x2="531" y1="837.7734" y2="837.7734"/><text fill="#000000" font-family="sans-serif" font-size="13" font-weight="bold" lengthAdjust="spacing" textLength="14" x="329" y="832.917">15</text><text fill="#000000" font-family="sans-serif" font-size="13" lengthAdjust="spacing" textLength="94" x="347" y="832.917">Error notification</text><line style="stroke:#181818;stroke-width:1.0;" x1="317" x2="359" y1="868.125" y2="868.125"/><line style="stroke:#181818;stroke-width:1.0;" x1="359" x2="359" y1="868.125" y2="881.125"/><line style="stroke:#181818;stroke-width:1.0;" x1="318" x2="359" y1="881.125" y2="881.125"/><polygon fill="#181818" points="328,877.125,318,881.125,328,885.125,324,881.125" style="stroke:#181818;stroke-width:1.0;"/><text fill="#000000" font-family="sans-serif" font-size="13" font-weight="bold" lengthAdjust="spacing" textLength="14" x="324" y="863.2686">16</text><text fill="#000000" font-family="sans-serif" font-size="13" lengthAdjust="spacing" textLength="139" x="342" y="863.2686">Display error notification</text><line style="stroke:#000000;stroke-width:1.0;stroke-dasharray:2.0,2.0;" x1="68" x2="814" y1="920.125" y2="920.125"/><text fill="#000000" font-family="sans-serif" font-size="11" font-weight="bold" lengthAdjust="spacing" textLength="61" x="73" y="931.5439">[Valid data]</text><line style="stroke:#181818;stroke-width:1.0;" x1="717" x2="759" y1="957.3125" y2="957.3125"/><line style="stroke:#181818;stroke-width:1.0;" x1="759" x2="759" y1="957.3125" y2="970.3125"/><line style="stroke:#181818;stroke-width:1.0;" x1="718" x2="759" y1="970.3125" y2="970.3125"/><polygon fill="#181818" points="728,966.3125,718,970.3125,728,974.3125,724,970.3125" style="stroke:#181818;stroke-width:1.0;"/><text fill="#000000" font-family="sans-serif" font-size="13" font-weight="bold" lengthAdjust="spacing" textLength="14" x="724" y="952.4561">17</text><text fill="#000000" font-family="sans-serif" font-size="13" lengthAdjust="spacing" textLength="60" x="742" y="952.4561">Store data</text><polygon fill="#181818" points="553,1026.6641,543,1030.6641,553,1034.6641,549,1030.6641" style="stroke:#181818;stroke-width:1.0;"/><line style="stroke:#181818;stroke-width:1.0;stroke-dasharray:2.0,2.0;" x1="547" x2="706" y1="1030.6641" y2="1030.6641"/><text fill="#000000" font-family="sans-serif" font-size="13" font-weight="bold" lengthAdjust="spacing" textLength="14" x="559" y="1025.8076">18</text><text fill="#000000" font-family="sans-serif" font-size="13" lengthAdjust="spacing" textLength="117" x="577" y="1025.8076">Success notification</text><polygon fill="#181818" points="323,1057.0156,313,1061.0156,323,1065.0156,319,1061.0156" style="stroke:#181818;stroke-width:1.0;"/><line style="stroke:#181818;stroke-width:1.0;stroke-dasharray:2.0,2.0;" x1="317" x2="531" y1="1061.0156" y2="1061.0156"/><text fill="#000000" font-family="sans-serif" font-size="13" font-weight="bold" lengthAdjust="spacing" textLength="14" x="329" y="1056.1592">19</text><text fill="#000000" font-family="sans-serif" font-size="13" lengthAdjust="spacing" textLength="117" x="347" y="1056.1592">Success notification</text><line style="stroke:#181818;stroke-width:1.0;" x1="312" x2="354" y1="1096.3672" y2="1096.3672"/><line style="stroke:#181818;stroke-width:1.0;" x1="354" x2="354" y1="1096.3672" y2="1109.3672"/><line style="stroke:#181818;stroke-width:1.0;" x1="307" x2="354" y1="1109.3672" y2="1109.3672"/><polygon fill="#181818" points="317,1105.3672,307,1109.3672,317,1113.3672,313,1109.3672" style="stroke:#181818;stroke-width:1.0;"/><text fill="#000000" font-family="sans-serif" font-size="13" font-weight="bold" lengthAdjust="spacing" textLength="14" x="319" y="1091.5107">20</text><text fill="#000000" font-family="sans-serif" font-size="13" lengthAdjust="spacing" textLength="61" x="337" y="1091.5107">Close view</text><polygon fill="#181818" points="167,1130.7188,157,1134.7188,167,1138.7188,163,1134.7188" style="stroke:#181818;stroke-width:1.0;"/><line style="stroke:#181818;stroke-width:1.0;" x1="161" x2="531" y1="1134.7188" y2="1134.7188"/><text fill="#000000" font-family="sans-serif" font-size="13" font-weight="bold" lengthAdjust="spacing" textLength="14" x="173" y="1129.8623">21</text><text fill="#000000" font-family="sans-serif" font-size="13" lengthAdjust="spacing" textLength="285" x="191" y="1129.8623">Display success notification and list of schedules</text><!--MD5=[f7e7fff2108768554db700f68fd83944]
@startuml CreateImmunizationScheduleSeq
autonumber
hide footbox

actor Doctor
boundary "ImmunizationSchedule\nManagementView" as ImmunizationScheduleManagementView
boundary "ImmunizationSchedule\nInformationView" as ImmunizationScheduleInformationView
control "ImmunizationSchedule\nController" as ImmunizationScheduleController
entity IMMUNIZATIONSCHEDULE
entity CHILD

ImmunizationScheduleController -> CHILD: Get list of children 
activate ImmunizationScheduleController
activate CHILD
CHILD -> CHILD: Query data
activate CHILD
deactivate CHILD
CHILD - -> ImmunizationScheduleController: Query result
deactivate CHILD
ImmunizationScheduleController - -> ImmunizationScheduleInformationView: Query result
deactivate ImmunizationScheduleController
activate ImmunizationScheduleInformationView
ImmunizationScheduleInformationView -> ImmunizationScheduleInformationView: Display with \nempty information
activate ImmunizationScheduleInformationView
deactivate ImmunizationScheduleInformationView
Doctor -> ImmunizationScheduleInformationView: Enter schedule information  
activate Doctor
ImmunizationScheduleInformationView -> ImmunizationScheduleInformationView: Validate data
activate ImmunizationScheduleInformationView
deactivate ImmunizationScheduleInformationView
alt Invalid data
    ImmunizationScheduleInformationView - -> Doctor: Error notification
    ImmunizationScheduleInformationView -> ImmunizationScheduleInformationView: Display error notification
    activate ImmunizationScheduleInformationView
    deactivate ImmunizationScheduleInformationView
else Valid data
    Doctor -> ImmunizationScheduleInformationView: Click button "Save" to confirm
    deactivate Doctor
    ImmunizationScheduleInformationView -> ImmunizationScheduleController: Send creating schedule request
    activate ImmunizationScheduleController
    ImmunizationScheduleController -> IMMUNIZATIONSCHEDULE: Send information
    activate IMMUNIZATIONSCHEDULE
    IMMUNIZATIONSCHEDULE -> IMMUNIZATIONSCHEDULE: Validate data
    activate IMMUNIZATIONSCHEDULE
    deactivate IMMUNIZATIONSCHEDULE
    alt Invalid data
        IMMUNIZATIONSCHEDULE - -> ImmunizationScheduleController: Error notification
        ImmunizationScheduleController - -> ImmunizationScheduleInformationView: Error notification
        ImmunizationScheduleInformationView -> ImmunizationScheduleInformationView: Display error notification
        activate ImmunizationScheduleInformationView
        deactivate ImmunizationScheduleInformationView
    else Valid data
        IMMUNIZATIONSCHEDULE -> IMMUNIZATIONSCHEDULE: Store data
        activate IMMUNIZATIONSCHEDULE
        deactivate IMMUNIZATIONSCHEDULE
        IMMUNIZATIONSCHEDULE - -> ImmunizationScheduleController: Success notification
        deactivate IMMUNIZATIONSCHEDULE
        ImmunizationScheduleController - -> ImmunizationScheduleInformationView: Success notification
        ImmunizationScheduleInformationView -> ImmunizationScheduleInformationView: Close view
        deactivate ImmunizationScheduleInformationView
        ImmunizationScheduleController -> ImmunizationScheduleManagementView: Display success notification and list of schedules
        activate ImmunizationScheduleManagementView
        deactivate ImmunizationScheduleController
        deactivate ImmunizationScheduleManagementView
    end
end
@enduml

PlantUML version 1.2022.7(Tue Aug 23 00:01:30 ICT 2022)
(GPL source distribution)
Java Runtime: Java(TM) SE Runtime Environment
JVM: Java HotSpot(TM) 64-Bit Server VM
Default Encoding: Cp1252
Language: en
Country: US
--></g></svg>