<?xml version="1.0" encoding="UTF-8" standalone="no"?><svg xmlns="http://www.w3.org/2000/svg" xmlns:xlink="http://www.w3.org/1999/xlink" contentStyleType="text/css" height="1017px" preserveAspectRatio="none" style="width:762px;height:1017px;background:#FFFFFF;" version="1.1" viewBox="0 0 762 1017" width="762px" zoomAndPan="magnify"><defs/><g><rect fill="#FFFFFF" height="248.5938" style="stroke:#181818;stroke-width:1.0;" width="10" x="39" y="210.1094"/><rect fill="#FFFFFF" height="761" style="stroke:#181818;stroke-width:1.0;" width="10" x="211" y="210.1094"/><rect fill="#FFFFFF" height="28" style="stroke:#181818;stroke-width:1.0;" width="10" x="216" y="248.4609"/><rect fill="#FFFFFF" height="28" style="stroke:#181818;stroke-width:1.0;" width="10" x="216" y="377.5156"/><rect fill="#FFFFFF" height="28" style="stroke:#181818;stroke-width:1.0;" width="10" x="216" y="733.5156"/><rect fill="#FFFFFF" height="413" style="stroke:#181818;stroke-width:1.0;" width="10" x="441" y="505.4063"/><rect fill="#FFFFFF" height="352.2969" style="stroke:#181818;stroke-width:1.0;" width="10" x="627" y="535.7578"/><rect fill="#FFFFFF" height="28" style="stroke:#181818;stroke-width:1.0;" width="10" x="632" y="574.1094"/><rect fill="#FFFFFF" height="28" style="stroke:#181818;stroke-width:1.0;" width="10" x="632" y="822.7031"/><rect fill="none" height="64.7969" style="stroke:#000000;stroke-width:1.5;" width="719" x="10" y="99.6094"/><rect fill="none" height="694.6484" style="stroke:#000000;stroke-width:1.5;" width="745" x="10" y="298.4609"/><rect fill="none" height="362" style="stroke:#000000;stroke-width:1.5;" width="612" x="133" y="624.1094"/><line style="stroke:#181818;stroke-width:0.5;stroke-dasharray:5.0,5.0;" x1="44" x2="44" y1="82.6094" y2="1010.1094"/><line style="stroke:#181818;stroke-width:0.5;stroke-dasharray:5.0,5.0;" x1="216" x2="216" y1="82.6094" y2="1010.1094"/><line style="stroke:#181818;stroke-width:0.5;stroke-dasharray:5.0,5.0;" x1="446" x2="446" y1="82.6094" y2="1010.1094"/><line style="stroke:#181818;stroke-width:0.5;stroke-dasharray:5.0,5.0;" x1="632" x2="632" y1="82.6094" y2="1010.1094"/><text fill="#000000" font-family="sans-serif" font-size="14" lengthAdjust="spacing" textLength="42" x="20" y="79.5332">Doctor</text><ellipse cx="44" cy="13.5" fill="#E2E2F0" rx="8" ry="8" style="stroke:#181818;stroke-width:0.5;"/><path d="M44,21.5 L44,48.5 M31,29.5 L57,29.5 M44,48.5 L31,63.5 M44,48.5 L57,63.5 " fill="none" style="stroke:#181818;stroke-width:0.5;"/><text fill="#000000" font-family="sans-serif" font-size="14" lengthAdjust="spacing" textLength="140" x="143" y="61.9238">ImmunizationSchedule</text><text fill="#000000" font-family="sans-serif" font-size="14" lengthAdjust="spacing" textLength="111" x="157.5" y="79.5332">ManagementView</text><path d="M195.5,19.3906 L195.5,43.3906 M195.5,31.3906 L212.5,31.3906 " fill="none" style="stroke:#181818;stroke-width:0.5;"/><ellipse cx="224.5" cy="31.3906" fill="#E2E2F0" rx="12" ry="12" style="stroke:#181818;stroke-width:0.5;"/><text fill="#000000" font-family="sans-serif" font-size="14" lengthAdjust="spacing" textLength="140" x="373" y="61.9238">ImmunizationSchedule</text><text fill="#000000" font-family="sans-serif" font-size="14" lengthAdjust="spacing" textLength="62" x="412" y="79.5332">Controller</text><ellipse cx="446" cy="31.3906" fill="#E2E2F0" rx="12" ry="12" style="stroke:#181818;stroke-width:0.5;"/><polygon fill="#181818" points="442,19.3906,448,14.3906,446,19.3906,448,24.3906,442,19.3906" style="stroke:#181818;stroke-width:1.0;"/><text fill="#000000" font-family="sans-serif" font-size="14" lengthAdjust="spacing" textLength="168" x="545" y="79.5332">IMMUNIZATIONSCHEDULE</text><ellipse cx="632" cy="49" fill="#E2E2F0" rx="12" ry="12" style="stroke:#181818;stroke-width:0.5;"/><line style="stroke:#181818;stroke-width:0.5;" x1="620" x2="644" y1="63" y2="63"/><rect fill="#FFFFFF" height="248.5938" style="stroke:#181818;stroke-width:1.0;" width="10" x="39" y="210.1094"/><rect fill="#FFFFFF" height="761" style="stroke:#181818;stroke-width:1.0;" width="10" x="211" y="210.1094"/><rect fill="#FFFFFF" height="28" style="stroke:#181818;stroke-width:1.0;" width="10" x="216" y="248.4609"/><rect fill="#FFFFFF" height="28" style="stroke:#181818;stroke-width:1.0;" width="10" x="216" y="377.5156"/><rect fill="#FFFFFF" height="28" style="stroke:#181818;stroke-width:1.0;" width="10" x="216" y="733.5156"/><rect fill="#FFFFFF" height="413" style="stroke:#181818;stroke-width:1.0;" width="10" x="441" y="505.4063"/><rect fill="#FFFFFF" height="352.2969" style="stroke:#181818;stroke-width:1.0;" width="10" x="627" y="535.7578"/><rect fill="#FFFFFF" height="28" style="stroke:#181818;stroke-width:1.0;" width="10" x="632" y="574.1094"/><rect fill="#FFFFFF" height="28" style="stroke:#181818;stroke-width:1.0;" width="10" x="632" y="822.7031"/><path d="M10,99.6094 L75,99.6094 L75,107.9609 L65,117.9609 L10,117.9609 L10,99.6094 " fill="#EEEEEE" style="stroke:#000000;stroke-width:1.5;"/><rect fill="none" height="64.7969" style="stroke:#000000;stroke-width:1.5;" width="719" x="10" y="99.6094"/><text fill="#000000" font-family="sans-serif" font-size="13" font-weight="bold" lengthAdjust="spacing" textLength="20" x="25" y="114.1045">opt</text><text fill="#000000" font-family="sans-serif" font-size="11" font-weight="bold" lengthAdjust="spacing" textLength="46" x="90" y="113.0283">[Search]</text><rect fill="none" height="41.4453" style="stroke:#000000;stroke-width:1.5;" width="705" x="17" y="117.9609"/><path d="M17,117.9609 L79,117.9609 L79,125.9609 L69,135.9609 L17,135.9609 L17,117.9609 " fill="#EEEEEE" style="stroke:#000000;stroke-width:2.0;"/><text fill="#000000" font-family="sans-serif" font-size="13" font-weight="bold" lengthAdjust="spacing" textLength="17" x="30" y="133.4561">ref</text><text fill="#000000" font-family="sans-serif" font-size="12" lengthAdjust="spacing" textLength="227" x="256" y="152.418">Sequence Search ImmunizationSchedule</text><polygon fill="#181818" points="199,206.1094,209,210.1094,199,214.1094,203,210.1094" style="stroke:#181818;stroke-width:1.0;"/><line style="stroke:#181818;stroke-width:1.0;" x1="49" x2="205" y1="210.1094" y2="210.1094"/><text fill="#000000" font-family="sans-serif" font-size="13" font-weight="bold" lengthAdjust="spacing" textLength="7" x="56" y="197.0771">1</text><text fill="#000000" font-family="sans-serif" font-size="13" lengthAdjust="spacing" textLength="93" x="67" y="188.9014">Select schedule</text><text fill="#000000" font-family="sans-serif" font-size="13" lengthAdjust="spacing" textLength="84" x="71" y="205.2529">needs deleting</text><line style="stroke:#181818;stroke-width:1.0;" x1="226" x2="268" y1="240.4609" y2="240.4609"/><line style="stroke:#181818;stroke-width:1.0;" x1="268" x2="268" y1="240.4609" y2="253.4609"/><line style="stroke:#181818;stroke-width:1.0;" x1="227" x2="268" y1="253.4609" y2="253.4609"/><polygon fill="#181818" points="237,249.4609,227,253.4609,237,257.4609,233,253.4609" style="stroke:#181818;stroke-width:1.0;"/><text fill="#000000" font-family="sans-serif" font-size="13" font-weight="bold" lengthAdjust="spacing" textLength="7" x="233" y="235.6045">2</text><text fill="#000000" font-family="sans-serif" font-size="13" lengthAdjust="spacing" textLength="195" x="244" y="235.6045">Display confirmation messagebox</text><path d="M10,298.4609 L71,298.4609 L71,306.8125 L61,316.8125 L10,316.8125 L10,298.4609 " fill="#EEEEEE" style="stroke:#000000;stroke-width:1.5;"/><rect fill="none" height="694.6484" style="stroke:#000000;stroke-width:1.5;" width="745" x="10" y="298.4609"/><text fill="#000000" font-family="sans-serif" font-size="13" font-weight="bold" lengthAdjust="spacing" textLength="16" x="25" y="312.9561">alt</text><text fill="#000000" font-family="sans-serif" font-size="11" font-weight="bold" lengthAdjust="spacing" textLength="45" x="86" y="311.8799">[Cancel]</text><polygon fill="#181818" points="199,335.1641,209,339.1641,199,343.1641,203,339.1641" style="stroke:#181818;stroke-width:1.0;"/><line style="stroke:#181818;stroke-width:1.0;" x1="49" x2="205" y1="339.1641" y2="339.1641"/><text fill="#000000" font-family="sans-serif" font-size="13" font-weight="bold" lengthAdjust="spacing" textLength="7" x="56" y="334.3076">3</text><text fill="#000000" font-family="sans-serif" font-size="13" lengthAdjust="spacing" textLength="123" x="67" y="334.3076">Click "Cancel" button</text><line style="stroke:#181818;stroke-width:1.0;" x1="226" x2="268" y1="369.5156" y2="369.5156"/><line style="stroke:#181818;stroke-width:1.0;" x1="268" x2="268" y1="369.5156" y2="382.5156"/><line style="stroke:#181818;stroke-width:1.0;" x1="227" x2="268" y1="382.5156" y2="382.5156"/><polygon fill="#181818" points="237,378.5156,227,382.5156,237,386.5156,233,382.5156" style="stroke:#181818;stroke-width:1.0;"/><text fill="#000000" font-family="sans-serif" font-size="13" font-weight="bold" lengthAdjust="spacing" textLength="7" x="233" y="364.6592">4</text><text fill="#000000" font-family="sans-serif" font-size="13" lengthAdjust="spacing" textLength="189" x="244" y="364.6592">Close confirmation message box</text><line style="stroke:#000000;stroke-width:1.0;stroke-dasharray:2.0,2.0;" x1="10" x2="755" y1="421.5156" y2="421.5156"/><text fill="#000000" font-family="sans-serif" font-size="11" font-weight="bold" lengthAdjust="spacing" textLength="53" x="15" y="432.9346">[Confirm]</text><polygon fill="#181818" points="199,454.7031,209,458.7031,199,462.7031,203,458.7031" style="stroke:#181818;stroke-width:1.0;"/><line style="stroke:#181818;stroke-width:1.0;" x1="44" x2="205" y1="458.7031" y2="458.7031"/><text fill="#000000" font-family="sans-serif" font-size="13" font-weight="bold" lengthAdjust="spacing" textLength="7" x="51" y="453.8467">5</text><text fill="#000000" font-family="sans-serif" font-size="13" lengthAdjust="spacing" textLength="127" x="62" y="453.8467">Click "Confirm" button</text><polygon fill="#181818" points="429,501.4063,439,505.4063,429,509.4063,433,505.4063" style="stroke:#181818;stroke-width:1.0;"/><line style="stroke:#181818;stroke-width:1.0;" x1="221" x2="435" y1="505.4063" y2="505.4063"/><text fill="#000000" font-family="sans-serif" font-size="13" font-weight="bold" lengthAdjust="spacing" textLength="7" x="228" y="492.374">6</text><text fill="#000000" font-family="sans-serif" font-size="13" lengthAdjust="spacing" textLength="79" x="239" y="484.1982">Send deleting</text><text fill="#000000" font-family="sans-serif" font-size="13" lengthAdjust="spacing" textLength="152" x="239" y="500.5498">selected schedule request</text><polygon fill="#181818" points="615,531.7578,625,535.7578,615,539.7578,619,535.7578" style="stroke:#181818;stroke-width:1.0;"/><line style="stroke:#181818;stroke-width:1.0;" x1="451" x2="621" y1="535.7578" y2="535.7578"/><text fill="#000000" font-family="sans-serif" font-size="13" font-weight="bold" lengthAdjust="spacing" textLength="7" x="458" y="530.9014">7</text><text fill="#000000" font-family="sans-serif" font-size="13" lengthAdjust="spacing" textLength="146" x="469" y="530.9014">Delete selected schedule</text><line style="stroke:#181818;stroke-width:1.0;" x1="642" x2="684" y1="566.1094" y2="566.1094"/><line style="stroke:#181818;stroke-width:1.0;" x1="684" x2="684" y1="566.1094" y2="579.1094"/><line style="stroke:#181818;stroke-width:1.0;" x1="643" x2="684" y1="579.1094" y2="579.1094"/><polygon fill="#181818" points="653,575.1094,643,579.1094,653,583.1094,649,579.1094" style="stroke:#181818;stroke-width:1.0;"/><text fill="#000000" font-family="sans-serif" font-size="13" font-weight="bold" lengthAdjust="spacing" textLength="7" x="649" y="561.2529">8</text><text fill="#000000" font-family="sans-serif" font-size="13" lengthAdjust="spacing" textLength="76" x="660" y="561.2529">Validate data</text><path d="M133,624.1094 L194,624.1094 L194,632.4609 L184,642.4609 L133,642.4609 L133,624.1094 " fill="#EEEEEE" style="stroke:#000000;stroke-width:1.5;"/><rect fill="none" height="362" style="stroke:#000000;stroke-width:1.5;" width="612" x="133" y="624.1094"/><text fill="#000000" font-family="sans-serif" font-size="13" font-weight="bold" lengthAdjust="spacing" textLength="16" x="148" y="638.6045">alt</text><text fill="#000000" font-family="sans-serif" font-size="11" font-weight="bold" lengthAdjust="spacing" textLength="69" x="209" y="637.5283">[Invalid data]</text><polygon fill="#181818" points="462,660.8125,452,664.8125,462,668.8125,458,664.8125" style="stroke:#181818;stroke-width:1.0;"/><line style="stroke:#181818;stroke-width:1.0;stroke-dasharray:2.0,2.0;" x1="456" x2="626" y1="664.8125" y2="664.8125"/><text fill="#000000" font-family="sans-serif" font-size="13" font-weight="bold" lengthAdjust="spacing" textLength="7" x="468" y="659.9561">9</text><text fill="#000000" font-family="sans-serif" font-size="13" lengthAdjust="spacing" textLength="94" x="479" y="659.9561">Error notification</text><polygon fill="#181818" points="232,691.1641,222,695.1641,232,699.1641,228,695.1641" style="stroke:#181818;stroke-width:1.0;"/><line style="stroke:#181818;stroke-width:1.0;stroke-dasharray:2.0,2.0;" x1="226" x2="440" y1="695.1641" y2="695.1641"/><text fill="#000000" font-family="sans-serif" font-size="13" font-weight="bold" lengthAdjust="spacing" textLength="14" x="238" y="690.3076">10</text><text fill="#000000" font-family="sans-serif" font-size="13" lengthAdjust="spacing" textLength="94" x="256" y="690.3076">Error notification</text><line style="stroke:#181818;stroke-width:1.0;" x1="226" x2="268" y1="725.5156" y2="725.5156"/><line style="stroke:#181818;stroke-width:1.0;" x1="268" x2="268" y1="725.5156" y2="738.5156"/><line style="stroke:#181818;stroke-width:1.0;" x1="227" x2="268" y1="738.5156" y2="738.5156"/><polygon fill="#181818" points="237,734.5156,227,738.5156,237,742.5156,233,738.5156" style="stroke:#181818;stroke-width:1.0;"/><text fill="#000000" font-family="sans-serif" font-size="13" font-weight="bold" lengthAdjust="spacing" textLength="14" x="233" y="720.6592">11</text><text fill="#000000" font-family="sans-serif" font-size="13" lengthAdjust="spacing" textLength="139" x="251" y="720.6592">Display error notification</text><line style="stroke:#000000;stroke-width:1.0;stroke-dasharray:2.0,2.0;" x1="133" x2="745" y1="777.5156" y2="777.5156"/><text fill="#000000" font-family="sans-serif" font-size="11" font-weight="bold" lengthAdjust="spacing" textLength="61" x="138" y="788.9346">[Valid data]</text><line style="stroke:#181818;stroke-width:1.0;" x1="642" x2="684" y1="814.7031" y2="814.7031"/><line style="stroke:#181818;stroke-width:1.0;" x1="684" x2="684" y1="814.7031" y2="827.7031"/><line style="stroke:#181818;stroke-width:1.0;" x1="643" x2="684" y1="827.7031" y2="827.7031"/><polygon fill="#181818" points="653,823.7031,643,827.7031,653,831.7031,649,827.7031" style="stroke:#181818;stroke-width:1.0;"/><text fill="#000000" font-family="sans-serif" font-size="13" font-weight="bold" lengthAdjust="spacing" textLength="14" x="649" y="809.8467">12</text><text fill="#000000" font-family="sans-serif" font-size="13" lengthAdjust="spacing" textLength="66" x="667" y="809.8467">Delete data</text><polygon fill="#181818" points="462,884.0547,452,888.0547,462,892.0547,458,888.0547" style="stroke:#181818;stroke-width:1.0;"/><line style="stroke:#181818;stroke-width:1.0;stroke-dasharray:2.0,2.0;" x1="456" x2="631" y1="888.0547" y2="888.0547"/><text fill="#000000" font-family="sans-serif" font-size="13" font-weight="bold" lengthAdjust="spacing" textLength="14" x="468" y="883.1982">13</text><text fill="#000000" font-family="sans-serif" font-size="13" lengthAdjust="spacing" textLength="117" x="486" y="883.1982">Success notification</text><polygon fill="#181818" points="232,914.4063,222,918.4063,232,922.4063,228,918.4063" style="stroke:#181818;stroke-width:1.0;"/><line style="stroke:#181818;stroke-width:1.0;stroke-dasharray:2.0,2.0;" x1="226" x2="445" y1="918.4063" y2="918.4063"/><text fill="#000000" font-family="sans-serif" font-size="13" font-weight="bold" lengthAdjust="spacing" textLength="14" x="238" y="913.5498">14</text><text fill="#000000" font-family="sans-serif" font-size="13" lengthAdjust="spacing" textLength="94" x="256" y="913.5498">Error notification</text><line style="stroke:#181818;stroke-width:1.0;" x1="221" x2="263" y1="970.1094" y2="970.1094"/><line style="stroke:#181818;stroke-width:1.0;" x1="263" x2="263" y1="970.1094" y2="983.1094"/><line style="stroke:#181818;stroke-width:1.0;" x1="216" x2="263" y1="983.1094" y2="983.1094"/><polygon fill="#181818" points="226,979.1094,216,983.1094,226,987.1094,222,983.1094" style="stroke:#181818;stroke-width:1.0;"/><text fill="#000000" font-family="sans-serif" font-size="13" font-weight="bold" lengthAdjust="spacing" textLength="14" x="228" y="957.0771">15</text><text fill="#000000" font-family="sans-serif" font-size="13" lengthAdjust="spacing" textLength="162" x="246" y="948.9014">Display success notification</text><text fill="#000000" font-family="sans-serif" font-size="13" lengthAdjust="spacing" textLength="119" x="246" y="965.2529">and list of schedules</text><!--MD5=[01fa94d509ea8c338d6bfe705e148a6d]
@startuml DeleteImmunizationScheduleSeq
autonumber
hide footbox

actor Doctor
boundary "ImmunizationSchedule\nManagementView" as ImmunizationScheduleManagementView
control "ImmunizationSchedule\nController" as ImmunizationScheduleController
entity IMMUNIZATIONSCHEDULE

opt Search
ref over Doctor, ImmunizationScheduleManagementView, ImmunizationScheduleController, IMMUNIZATIONSCHEDULE: Sequence Search ImmunizationSchedule
end

Doctor -> ImmunizationScheduleManagementView: Select schedule\n needs deleting
activate Doctor
activate ImmunizationScheduleManagementView
ImmunizationScheduleManagementView -> ImmunizationScheduleManagementView: Display confirmation messagebox
activate ImmunizationScheduleManagementView
deactivate ImmunizationScheduleManagementView
alt Cancel  
    Doctor -> ImmunizationScheduleManagementView: Click "Cancel" button
    ImmunizationScheduleManagementView -> ImmunizationScheduleManagementView: Close confirmation message box
    activate ImmunizationScheduleManagementView
    deactivate ImmunizationScheduleManagementView
else Confirm
    Doctor -> ImmunizationScheduleManagementView: Click "Confirm" button
    deactivate Doctor
    ImmunizationScheduleManagementView -> ImmunizationScheduleController: Send deleting\nselected schedule request
    activate ImmunizationScheduleController
    ImmunizationScheduleController -> IMMUNIZATIONSCHEDULE: Delete selected schedule
    activate IMMUNIZATIONSCHEDULE
    IMMUNIZATIONSCHEDULE -> IMMUNIZATIONSCHEDULE: Validate data
    activate IMMUNIZATIONSCHEDULE
    deactivate IMMUNIZATIONSCHEDULE
    alt Invalid data
        IMMUNIZATIONSCHEDULE - -> ImmunizationScheduleController: Error notification
        ImmunizationScheduleController - -> ImmunizationScheduleManagementView: Error notification
        ImmunizationScheduleManagementView -> ImmunizationScheduleManagementView: Display error notification
        activate ImmunizationScheduleManagementView
        deactivate ImmunizationScheduleManagementView
    else Valid data
        IMMUNIZATIONSCHEDULE -> IMMUNIZATIONSCHEDULE: Delete data
        activate IMMUNIZATIONSCHEDULE
        deactivate IMMUNIZATIONSCHEDULE
        IMMUNIZATIONSCHEDULE - -> ImmunizationScheduleController: Success notification
        deactivate IMMUNIZATIONSCHEDULE
        ImmunizationScheduleController - -> ImmunizationScheduleManagementView: Error notification
        deactivate ImmunizationScheduleController
        ImmunizationScheduleManagementView -> ImmunizationScheduleManagementView: Display success notification\nand list of schedules
        deactivate ImmunizationScheduleManagementView
    end
end
@enduml

PlantUML version 1.2022.7(Tue Aug 23 00:01:30 ICT 2022)
(GPL source distribution)
Java Runtime: Java(TM) SE Runtime Environment
JVM: Java HotSpot(TM) 64-Bit Server VM
Default Encoding: Cp1252
Language: en
Country: US
--></g></svg>