<?xml version="1.0" encoding="UTF-8" standalone="no"?><svg xmlns="http://www.w3.org/2000/svg" xmlns:xlink="http://www.w3.org/1999/xlink" contentStyleType="text/css" height="457px" preserveAspectRatio="none" style="width:640px;height:457px;background:#FFFFFF;" version="1.1" viewBox="0 0 640 457" width="640px" zoomAndPan="magnify"><defs/><g><rect fill="#FFFFFF" height="30" style="stroke:#181818;stroke-width:1.0;" width="10" x="24" y="131.3125"/><rect fill="#FFFFFF" height="293.8125" style="stroke:#181818;stroke-width:1.0;" width="10" x="180" y="131.3125"/><rect fill="#FFFFFF" height="180.7578" style="stroke:#181818;stroke-width:1.0;" width="10" x="366" y="208.0156"/><rect fill="#FFFFFF" height="103.7031" style="stroke:#181818;stroke-width:1.0;" width="10" x="536" y="254.7188"/><rect fill="#FFFFFF" height="28" style="stroke:#181818;stroke-width:1.0;" width="10" x="541" y="293.0703"/><line style="stroke:#181818;stroke-width:0.5;stroke-dasharray:5.0,5.0;" x1="29" x2="29" y1="82.6094" y2="450.125"/><line style="stroke:#181818;stroke-width:0.5;stroke-dasharray:5.0,5.0;" x1="185" x2="185" y1="82.6094" y2="450.125"/><line style="stroke:#181818;stroke-width:0.5;stroke-dasharray:5.0,5.0;" x1="371" x2="371" y1="82.6094" y2="450.125"/><line style="stroke:#181818;stroke-width:0.5;stroke-dasharray:5.0,5.0;" x1="541" x2="541" y1="82.6094" y2="450.125"/><text fill="#000000" font-family="sans-serif" font-size="14" lengthAdjust="spacing" textLength="42" x="5" y="79.5332">Doctor</text><ellipse cx="29" cy="13.5" fill="#E2E2F0" rx="8" ry="8" style="stroke:#181818;stroke-width:0.5;"/><path d="M29,21.5 L29,48.5 M16,29.5 L42,29.5 M29,48.5 L16,63.5 M29,48.5 L42,63.5 " fill="none" style="stroke:#181818;stroke-width:0.5;"/><text fill="#000000" font-family="sans-serif" font-size="14" lengthAdjust="spacing" textLength="140" x="112" y="61.9238">ImmunizationSchedule</text><text fill="#000000" font-family="sans-serif" font-size="14" lengthAdjust="spacing" textLength="111" x="126.5" y="79.5332">ManagementView</text><path d="M164.5,19.3906 L164.5,43.3906 M164.5,31.3906 L181.5,31.3906 " fill="none" style="stroke:#181818;stroke-width:0.5;"/><ellipse cx="193.5" cy="31.3906" fill="#E2E2F0" rx="12" ry="12" style="stroke:#181818;stroke-width:0.5;"/><text fill="#000000" font-family="sans-serif" font-size="14" lengthAdjust="spacing" textLength="140" x="298" y="61.9238">ImmunizationSchedule</text><text fill="#000000" font-family="sans-serif" font-size="14" lengthAdjust="spacing" textLength="62" x="337" y="79.5332">Controller</text><ellipse cx="371" cy="31.3906" fill="#E2E2F0" rx="12" ry="12" style="stroke:#181818;stroke-width:0.5;"/><polygon fill="#181818" points="367,19.3906,373,14.3906,371,19.3906,373,24.3906,367,19.3906" style="stroke:#181818;stroke-width:1.0;"/><text fill="#000000" font-family="sans-serif" font-size="14" lengthAdjust="spacing" textLength="168" x="454" y="79.5332">IMMUNIZATIONSCHEDULE</text><ellipse cx="541" cy="49" fill="#E2E2F0" rx="12" ry="12" style="stroke:#181818;stroke-width:0.5;"/><line style="stroke:#181818;stroke-width:0.5;" x1="529" x2="553" y1="63" y2="63"/><rect fill="#FFFFFF" height="30" style="stroke:#181818;stroke-width:1.0;" width="10" x="24" y="131.3125"/><rect fill="#FFFFFF" height="293.8125" style="stroke:#181818;stroke-width:1.0;" width="10" x="180" y="131.3125"/><rect fill="#FFFFFF" height="180.7578" style="stroke:#181818;stroke-width:1.0;" width="10" x="366" y="208.0156"/><rect fill="#FFFFFF" height="103.7031" style="stroke:#181818;stroke-width:1.0;" width="10" x="536" y="254.7188"/><rect fill="#FFFFFF" height="28" style="stroke:#181818;stroke-width:1.0;" width="10" x="541" y="293.0703"/><polygon fill="#181818" points="168,127.3125,178,131.3125,168,135.3125,172,131.3125" style="stroke:#181818;stroke-width:1.0;"/><line style="stroke:#181818;stroke-width:1.0;" x1="34" x2="174" y1="131.3125" y2="131.3125"/><text fill="#000000" font-family="sans-serif" font-size="13" font-weight="bold" lengthAdjust="spacing" textLength="7" x="41" y="118.2803">1</text><text fill="#000000" font-family="sans-serif" font-size="13" lengthAdjust="spacing" textLength="103" x="52" y="110.1045">Enters the search</text><text fill="#000000" font-family="sans-serif" font-size="13" lengthAdjust="spacing" textLength="121" x="52" y="126.4561">criteria in search box</text><polygon fill="#181818" points="354,204.0156,364,208.0156,354,212.0156,358,208.0156" style="stroke:#181818;stroke-width:1.0;"/><line style="stroke:#181818;stroke-width:1.0;" x1="190" x2="360" y1="208.0156" y2="208.0156"/><text fill="#000000" font-family="sans-serif" font-size="13" font-weight="bold" lengthAdjust="spacing" textLength="7" x="197" y="194.9834">2</text><text fill="#000000" font-family="sans-serif" font-size="13" lengthAdjust="spacing" textLength="146" x="208" y="186.8076">Send searching schedule</text><text fill="#000000" font-family="sans-serif" font-size="13" lengthAdjust="spacing" textLength="110" x="208" y="203.1592">information request</text><polygon fill="#181818" points="524,250.7188,534,254.7188,524,258.7188,528,254.7188" style="stroke:#181818;stroke-width:1.0;"/><line style="stroke:#181818;stroke-width:1.0;" x1="376" x2="530" y1="254.7188" y2="254.7188"/><text fill="#000000" font-family="sans-serif" font-size="13" font-weight="bold" lengthAdjust="spacing" textLength="7" x="383" y="241.6865">3</text><text fill="#000000" font-family="sans-serif" font-size="13" lengthAdjust="spacing" textLength="129" x="394" y="233.5107">Search schedule base</text><text fill="#000000" font-family="sans-serif" font-size="13" lengthAdjust="spacing" textLength="106" x="394" y="249.8623">on given keywords</text><line style="stroke:#181818;stroke-width:1.0;" x1="551" x2="593" y1="285.0703" y2="285.0703"/><line style="stroke:#181818;stroke-width:1.0;" x1="593" x2="593" y1="285.0703" y2="298.0703"/><line style="stroke:#181818;stroke-width:1.0;" x1="552" x2="593" y1="298.0703" y2="298.0703"/><polygon fill="#181818" points="562,294.0703,552,298.0703,562,302.0703,558,298.0703" style="stroke:#181818;stroke-width:1.0;"/><text fill="#000000" font-family="sans-serif" font-size="13" font-weight="bold" lengthAdjust="spacing" textLength="7" x="558" y="280.2139">4</text><text fill="#000000" font-family="sans-serif" font-size="13" lengthAdjust="spacing" textLength="64" x="569" y="280.2139">Query data</text><polygon fill="#181818" points="387,354.4219,377,358.4219,387,362.4219,383,358.4219" style="stroke:#181818;stroke-width:1.0;"/><line style="stroke:#181818;stroke-width:1.0;stroke-dasharray:2.0,2.0;" x1="381" x2="540" y1="358.4219" y2="358.4219"/><text fill="#000000" font-family="sans-serif" font-size="13" font-weight="bold" lengthAdjust="spacing" textLength="7" x="393" y="353.5654">5</text><text fill="#000000" font-family="sans-serif" font-size="13" lengthAdjust="spacing" textLength="71" x="404" y="353.5654">Query result</text><polygon fill="#181818" points="201,384.7734,191,388.7734,201,392.7734,197,388.7734" style="stroke:#181818;stroke-width:1.0;"/><line style="stroke:#181818;stroke-width:1.0;stroke-dasharray:2.0,2.0;" x1="195" x2="370" y1="388.7734" y2="388.7734"/><text fill="#000000" font-family="sans-serif" font-size="13" font-weight="bold" lengthAdjust="spacing" textLength="7" x="207" y="383.917">6</text><text fill="#000000" font-family="sans-serif" font-size="13" lengthAdjust="spacing" textLength="71" x="218" y="383.917">Query result</text><line style="stroke:#181818;stroke-width:1.0;" x1="190" x2="232" y1="424.125" y2="424.125"/><line style="stroke:#181818;stroke-width:1.0;" x1="232" x2="232" y1="424.125" y2="437.125"/><line style="stroke:#181818;stroke-width:1.0;" x1="185" x2="232" y1="437.125" y2="437.125"/><polygon fill="#181818" points="195,433.125,185,437.125,195,441.125,191,437.125" style="stroke:#181818;stroke-width:1.0;"/><text fill="#000000" font-family="sans-serif" font-size="13" font-weight="bold" lengthAdjust="spacing" textLength="7" x="197" y="419.2686">7</text><text fill="#000000" font-family="sans-serif" font-size="13" lengthAdjust="spacing" textLength="141" x="208" y="419.2686">Display list of schedules</text><!--MD5=[2d32c818d6f5bac6d9cb716c638e1983]
@startuml SearchScheduleSeq
autonumber
hide footbox

actor Doctor
boundary "ImmunizationSchedule\nManagementView" as ImmunizationScheduleManagementView
control "ImmunizationSchedule\nController" as ImmunizationScheduleController
entity IMMUNIZATIONSCHEDULE

Doctor -> ImmunizationScheduleManagementView: Enters the search\ncriteria in search box
activate Doctor
activate ImmunizationScheduleManagementView
deactivate Doctor
ImmunizationScheduleManagementView -> ImmunizationScheduleController: Send searching schedule\ninformation request
activate ImmunizationScheduleController
ImmunizationScheduleController -> IMMUNIZATIONSCHEDULE: Search schedule base\non given keywords
activate IMMUNIZATIONSCHEDULE
IMMUNIZATIONSCHEDULE -> IMMUNIZATIONSCHEDULE: Query data
activate IMMUNIZATIONSCHEDULE
deactivate IMMUNIZATIONSCHEDULE
IMMUNIZATIONSCHEDULE - -> ImmunizationScheduleController: Query result
deactivate IMMUNIZATIONSCHEDULE
ImmunizationScheduleController - -> ImmunizationScheduleManagementView: Query result
deactivate ImmunizationScheduleController
ImmunizationScheduleManagementView -> ImmunizationScheduleManagementView: Display list of schedules
deactivate ImmunizationScheduleManagementView
@enduml

PlantUML version 1.2022.7(Tue Aug 23 00:01:30 ICT 2022)
(GPL source distribution)
Java Runtime: Java(TM) SE Runtime Environment
JVM: Java HotSpot(TM) 64-Bit Server VM
Default Encoding: Cp1252
Language: en
Country: US
--></g></svg>