<?xml version="1.0" encoding="UTF-8" standalone="no"?><svg xmlns="http://www.w3.org/2000/svg" xmlns:xlink="http://www.w3.org/1999/xlink" contentStyleType="text/css" height="1404px" preserveAspectRatio="none" style="width:1017px;height:1404px;background:#FFFFFF;" version="1.1" viewBox="0 0 1017 1404" width="1017px" zoomAndPan="magnify"><defs/><g><rect fill="#FFFFFF" height="638.1094" style="stroke:#181818;stroke-width:1.0;" width="10" x="39" y="210.1094"/><rect fill="#FFFFFF" height="1155.1641" style="stroke:#181818;stroke-width:1.0;" width="10" x="167" y="210.1094"/><rect fill="#FFFFFF" height="996.4063" style="stroke:#181818;stroke-width:1.0;" width="10" x="323" y="331.5156"/><rect fill="#FFFFFF" height="28" style="stroke:#181818;stroke-width:1.0;" width="10" x="328" y="534.2734"/><rect fill="#FFFFFF" height="28" style="stroke:#181818;stroke-width:1.0;" width="10" x="328" y="637.9766"/><rect fill="#FFFFFF" height="28" style="stroke:#181818;stroke-width:1.0;" width="10" x="328" y="767.0313"/><rect fill="#FFFFFF" height="28" style="stroke:#181818;stroke-width:1.0;" width="10" x="328" y="1106.6797"/><rect fill="#FFFFFF" height="91.0547" style="stroke:#181818;stroke-width:1.0;" width="10" x="556" y="240.4609"/><rect fill="#FFFFFF" height="134.0547" style="stroke:#181818;stroke-width:1.0;" width="10" x="556" y="361.8672"/><rect fill="#FFFFFF" height="486.7031" style="stroke:#181818;stroke-width:1.0;" width="10" x="556" y="878.5703"/><rect fill="#FFFFFF" height="30.3516" style="stroke:#181818;stroke-width:1.0;" width="10" x="793" y="270.8125"/><rect fill="#FFFFFF" height="352.2969" style="stroke:#181818;stroke-width:1.0;" width="10" x="793" y="908.9219"/><rect fill="#FFFFFF" height="28" style="stroke:#181818;stroke-width:1.0;" width="10" x="798" y="947.2734"/><rect fill="#FFFFFF" height="28" style="stroke:#181818;stroke-width:1.0;" width="10" x="798" y="1195.8672"/><rect fill="#FFFFFF" height="103.7031" style="stroke:#181818;stroke-width:1.0;" width="10" x="913" y="361.8672"/><rect fill="#FFFFFF" height="28" style="stroke:#181818;stroke-width:1.0;" width="10" x="918" y="400.2188"/><rect fill="none" height="64.7969" style="stroke:#000000;stroke-width:1.5;" width="941" x="10" y="99.6094"/><rect fill="none" height="692.2969" style="stroke:#000000;stroke-width:1.5;" width="911" x="10" y="687.9766"/><rect fill="none" height="376" style="stroke:#000000;stroke-width:1.5;" width="816" x="89" y="997.2734"/><line style="stroke:#181818;stroke-width:0.5;stroke-dasharray:5.0,5.0;" x1="44" x2="44" y1="82.6094" y2="1397.2734"/><line style="stroke:#181818;stroke-width:0.5;stroke-dasharray:5.0,5.0;" x1="172" x2="172" y1="82.6094" y2="1397.2734"/><line style="stroke:#181818;stroke-width:0.5;stroke-dasharray:5.0,5.0;" x1="328" x2="328" y1="82.6094" y2="1397.2734"/><line style="stroke:#181818;stroke-width:0.5;stroke-dasharray:5.0,5.0;" x1="561" x2="561" y1="82.6094" y2="1397.2734"/><line style="stroke:#181818;stroke-width:0.5;stroke-dasharray:5.0,5.0;" x1="798" x2="798" y1="82.6094" y2="1397.2734"/><line style="stroke:#181818;stroke-width:0.5;stroke-dasharray:5.0,5.0;" x1="918" x2="918" y1="82.6094" y2="1397.2734"/><text fill="#000000" font-family="sans-serif" font-size="14" lengthAdjust="spacing" textLength="42" x="20" y="79.5332">Doctor</text><ellipse cx="44" cy="13.5" fill="#E2E2F0" rx="8" ry="8" style="stroke:#181818;stroke-width:0.5;"/><path d="M44,21.5 L44,48.5 M31,29.5 L57,29.5 M44,48.5 L31,63.5 M44,48.5 L57,63.5 " fill="none" style="stroke:#181818;stroke-width:0.5;"/><text fill="#000000" font-family="sans-serif" font-size="14" lengthAdjust="spacing" textLength="140" x="99" y="61.9238">ImmunizationSchedule</text><text fill="#000000" font-family="sans-serif" font-size="14" lengthAdjust="spacing" textLength="111" x="113.5" y="79.5332">ManagementView</text><path d="M151.5,19.3906 L151.5,43.3906 M151.5,31.3906 L168.5,31.3906 " fill="none" style="stroke:#181818;stroke-width:0.5;"/><ellipse cx="180.5" cy="31.3906" fill="#E2E2F0" rx="12" ry="12" style="stroke:#181818;stroke-width:0.5;"/><text fill="#000000" font-family="sans-serif" font-size="14" lengthAdjust="spacing" textLength="140" x="255" y="61.9238">ImmunizationSchedule</text><text fill="#000000" font-family="sans-serif" font-size="14" lengthAdjust="spacing" textLength="99" x="275.5" y="79.5332">InformationView</text><path d="M307.5,19.3906 L307.5,43.3906 M307.5,31.3906 L324.5,31.3906 " fill="none" style="stroke:#181818;stroke-width:0.5;"/><ellipse cx="336.5" cy="31.3906" fill="#E2E2F0" rx="12" ry="12" style="stroke:#181818;stroke-width:0.5;"/><text fill="#000000" font-family="sans-serif" font-size="14" lengthAdjust="spacing" textLength="140" x="488" y="61.9238">ImmunizationSchedule</text><text fill="#000000" font-family="sans-serif" font-size="14" lengthAdjust="spacing" textLength="62" x="527" y="79.5332">Controller</text><ellipse cx="561" cy="31.3906" fill="#E2E2F0" rx="12" ry="12" style="stroke:#181818;stroke-width:0.5;"/><polygon fill="#181818" points="557,19.3906,563,14.3906,561,19.3906,563,24.3906,557,19.3906" style="stroke:#181818;stroke-width:1.0;"/><text fill="#000000" font-family="sans-serif" font-size="14" lengthAdjust="spacing" textLength="168" x="711" y="79.5332">IMMUNIZATIONSCHEDULE</text><ellipse cx="798" cy="49" fill="#E2E2F0" rx="12" ry="12" style="stroke:#181818;stroke-width:0.5;"/><line style="stroke:#181818;stroke-width:0.5;" x1="786" x2="810" y1="63" y2="63"/><text fill="#000000" font-family="sans-serif" font-size="14" lengthAdjust="spacing" textLength="40" x="895" y="79.5332">CHILD</text><ellipse cx="918" cy="49" fill="#E2E2F0" rx="12" ry="12" style="stroke:#181818;stroke-width:0.5;"/><line style="stroke:#181818;stroke-width:0.5;" x1="906" x2="930" y1="63" y2="63"/><rect fill="#FFFFFF" height="638.1094" style="stroke:#181818;stroke-width:1.0;" width="10" x="39" y="210.1094"/><rect fill="#FFFFFF" height="1155.1641" style="stroke:#181818;stroke-width:1.0;" width="10" x="167" y="210.1094"/><rect fill="#FFFFFF" height="996.4063" style="stroke:#181818;stroke-width:1.0;" width="10" x="323" y="331.5156"/><rect fill="#FFFFFF" height="28" style="stroke:#181818;stroke-width:1.0;" width="10" x="328" y="534.2734"/><rect fill="#FFFFFF" height="28" style="stroke:#181818;stroke-width:1.0;" width="10" x="328" y="637.9766"/><rect fill="#FFFFFF" height="28" style="stroke:#181818;stroke-width:1.0;" width="10" x="328" y="767.0313"/><rect fill="#FFFFFF" height="28" style="stroke:#181818;stroke-width:1.0;" width="10" x="328" y="1106.6797"/><rect fill="#FFFFFF" height="91.0547" style="stroke:#181818;stroke-width:1.0;" width="10" x="556" y="240.4609"/><rect fill="#FFFFFF" height="134.0547" style="stroke:#181818;stroke-width:1.0;" width="10" x="556" y="361.8672"/><rect fill="#FFFFFF" height="486.7031" style="stroke:#181818;stroke-width:1.0;" width="10" x="556" y="878.5703"/><rect fill="#FFFFFF" height="30.3516" style="stroke:#181818;stroke-width:1.0;" width="10" x="793" y="270.8125"/><rect fill="#FFFFFF" height="352.2969" style="stroke:#181818;stroke-width:1.0;" width="10" x="793" y="908.9219"/><rect fill="#FFFFFF" height="28" style="stroke:#181818;stroke-width:1.0;" width="10" x="798" y="947.2734"/><rect fill="#FFFFFF" height="28" style="stroke:#181818;stroke-width:1.0;" width="10" x="798" y="1195.8672"/><rect fill="#FFFFFF" height="103.7031" style="stroke:#181818;stroke-width:1.0;" width="10" x="913" y="361.8672"/><rect fill="#FFFFFF" height="28" style="stroke:#181818;stroke-width:1.0;" width="10" x="918" y="400.2188"/><path d="M10,99.6094 L75,99.6094 L75,107.9609 L65,117.9609 L10,117.9609 L10,99.6094 " fill="#EEEEEE" style="stroke:#000000;stroke-width:1.5;"/><rect fill="none" height="64.7969" style="stroke:#000000;stroke-width:1.5;" width="941" x="10" y="99.6094"/><text fill="#000000" font-family="sans-serif" font-size="13" font-weight="bold" lengthAdjust="spacing" textLength="20" x="25" y="114.1045">opt</text><text fill="#000000" font-family="sans-serif" font-size="11" font-weight="bold" lengthAdjust="spacing" textLength="46" x="90" y="113.0283">[Search]</text><rect fill="none" height="41.4453" style="stroke:#000000;stroke-width:1.5;" width="927" x="17" y="117.9609"/><path d="M17,117.9609 L79,117.9609 L79,125.9609 L69,135.9609 L17,135.9609 L17,117.9609 " fill="#EEEEEE" style="stroke:#000000;stroke-width:2.0;"/><text fill="#000000" font-family="sans-serif" font-size="13" font-weight="bold" lengthAdjust="spacing" textLength="17" x="30" y="133.4561">ref</text><text fill="#000000" font-family="sans-serif" font-size="12" lengthAdjust="spacing" textLength="227" x="367" y="152.418">Sequence Search ImmunizationSchedule</text><polygon fill="#181818" points="155,206.1094,165,210.1094,155,214.1094,159,210.1094" style="stroke:#181818;stroke-width:1.0;"/><line style="stroke:#181818;stroke-width:1.0;" x1="49" x2="161" y1="210.1094" y2="210.1094"/><text fill="#000000" font-family="sans-serif" font-size="13" font-weight="bold" lengthAdjust="spacing" textLength="7" x="56" y="197.0771">1</text><text fill="#000000" font-family="sans-serif" font-size="13" lengthAdjust="spacing" textLength="93" x="67" y="188.9014">Select schedule</text><text fill="#000000" font-family="sans-serif" font-size="13" lengthAdjust="spacing" textLength="88" x="71" y="205.2529">needs updating</text><polygon fill="#181818" points="544,236.4609,554,240.4609,544,244.4609,548,240.4609" style="stroke:#181818;stroke-width:1.0;"/><line style="stroke:#181818;stroke-width:1.0;" x1="177" x2="550" y1="240.4609" y2="240.4609"/><text fill="#000000" font-family="sans-serif" font-size="13" font-weight="bold" lengthAdjust="spacing" textLength="7" x="184" y="235.6045">2</text><text fill="#000000" font-family="sans-serif" font-size="13" lengthAdjust="spacing" textLength="197" x="195" y="235.6045">Get selected schedule information</text><polygon fill="#181818" points="781,266.8125,791,270.8125,781,274.8125,785,270.8125" style="stroke:#181818;stroke-width:1.0;"/><line style="stroke:#181818;stroke-width:1.0;" x1="566" x2="787" y1="270.8125" y2="270.8125"/><text fill="#000000" font-family="sans-serif" font-size="13" font-weight="bold" lengthAdjust="spacing" textLength="7" x="573" y="265.9561">3</text><text fill="#000000" font-family="sans-serif" font-size="13" lengthAdjust="spacing" textLength="197" x="584" y="265.9561">Get selected schedule information</text><polygon fill="#181818" points="577,297.1641,567,301.1641,577,305.1641,573,301.1641" style="stroke:#181818;stroke-width:1.0;"/><line style="stroke:#181818;stroke-width:1.0;stroke-dasharray:2.0,2.0;" x1="571" x2="797" y1="301.1641" y2="301.1641"/><text fill="#000000" font-family="sans-serif" font-size="13" font-weight="bold" lengthAdjust="spacing" textLength="7" x="583" y="296.3076">4</text><text fill="#000000" font-family="sans-serif" font-size="13" lengthAdjust="spacing" textLength="174" x="594" y="296.3076">Selected schedule information</text><polygon fill="#181818" points="344,327.5156,334,331.5156,344,335.5156,340,331.5156" style="stroke:#181818;stroke-width:1.0;"/><line style="stroke:#181818;stroke-width:1.0;stroke-dasharray:2.0,2.0;" x1="338" x2="560" y1="331.5156" y2="331.5156"/><text fill="#000000" font-family="sans-serif" font-size="13" font-weight="bold" lengthAdjust="spacing" textLength="7" x="350" y="326.6592">5</text><text fill="#000000" font-family="sans-serif" font-size="13" lengthAdjust="spacing" textLength="174" x="361" y="326.6592">Selected schedule information</text><polygon fill="#181818" points="901,357.8672,911,361.8672,901,365.8672,905,361.8672" style="stroke:#181818;stroke-width:1.0;"/><line style="stroke:#181818;stroke-width:1.0;" x1="566" x2="907" y1="361.8672" y2="361.8672"/><text fill="#000000" font-family="sans-serif" font-size="13" font-weight="bold" lengthAdjust="spacing" textLength="7" x="573" y="357.0107">6</text><text fill="#000000" font-family="sans-serif" font-size="13" lengthAdjust="spacing" textLength="105" x="584" y="357.0107">Get list of children</text><line style="stroke:#181818;stroke-width:1.0;" x1="928" x2="970" y1="392.2188" y2="392.2188"/><line style="stroke:#181818;stroke-width:1.0;" x1="970" x2="970" y1="392.2188" y2="405.2188"/><line style="stroke:#181818;stroke-width:1.0;" x1="929" x2="970" y1="405.2188" y2="405.2188"/><polygon fill="#181818" points="939,401.2188,929,405.2188,939,409.2188,935,405.2188" style="stroke:#181818;stroke-width:1.0;"/><text fill="#000000" font-family="sans-serif" font-size="13" font-weight="bold" lengthAdjust="spacing" textLength="7" x="935" y="387.3623">7</text><text fill="#000000" font-family="sans-serif" font-size="13" lengthAdjust="spacing" textLength="64" x="946" y="387.3623">Query data</text><polygon fill="#181818" points="577,461.5703,567,465.5703,577,469.5703,573,465.5703" style="stroke:#181818;stroke-width:1.0;"/><line style="stroke:#181818;stroke-width:1.0;stroke-dasharray:2.0,2.0;" x1="571" x2="917" y1="465.5703" y2="465.5703"/><text fill="#000000" font-family="sans-serif" font-size="13" font-weight="bold" lengthAdjust="spacing" textLength="7" x="583" y="460.7139">8</text><text fill="#000000" font-family="sans-serif" font-size="13" lengthAdjust="spacing" textLength="71" x="594" y="460.7139">Query result</text><polygon fill="#181818" points="344,491.9219,334,495.9219,344,499.9219,340,495.9219" style="stroke:#181818;stroke-width:1.0;"/><line style="stroke:#181818;stroke-width:1.0;stroke-dasharray:2.0,2.0;" x1="338" x2="560" y1="495.9219" y2="495.9219"/><text fill="#000000" font-family="sans-serif" font-size="13" font-weight="bold" lengthAdjust="spacing" textLength="7" x="350" y="491.0654">9</text><text fill="#000000" font-family="sans-serif" font-size="13" lengthAdjust="spacing" textLength="71" x="361" y="491.0654">Query result</text><line style="stroke:#181818;stroke-width:1.0;" x1="338" x2="380" y1="526.2734" y2="526.2734"/><line style="stroke:#181818;stroke-width:1.0;" x1="380" x2="380" y1="526.2734" y2="539.2734"/><line style="stroke:#181818;stroke-width:1.0;" x1="339" x2="380" y1="539.2734" y2="539.2734"/><polygon fill="#181818" points="349,535.2734,339,539.2734,349,543.2734,345,539.2734" style="stroke:#181818;stroke-width:1.0;"/><text fill="#000000" font-family="sans-serif" font-size="13" font-weight="bold" lengthAdjust="spacing" textLength="14" x="345" y="521.417">10</text><text fill="#000000" font-family="sans-serif" font-size="13" lengthAdjust="spacing" textLength="166" x="363" y="521.417">Display schedule information</text><polygon fill="#181818" points="311,595.625,321,599.625,311,603.625,315,599.625" style="stroke:#181818;stroke-width:1.0;"/><line style="stroke:#181818;stroke-width:1.0;" x1="49" x2="317" y1="599.625" y2="599.625"/><text fill="#000000" font-family="sans-serif" font-size="13" font-weight="bold" lengthAdjust="spacing" textLength="14" x="56" y="594.7686">11</text><text fill="#000000" font-family="sans-serif" font-size="13" lengthAdjust="spacing" textLength="154" x="74" y="594.7686">Enter schedule information</text><line style="stroke:#181818;stroke-width:1.0;" x1="338" x2="380" y1="629.9766" y2="629.9766"/><line style="stroke:#181818;stroke-width:1.0;" x1="380" x2="380" y1="629.9766" y2="642.9766"/><line style="stroke:#181818;stroke-width:1.0;" x1="339" x2="380" y1="642.9766" y2="642.9766"/><polygon fill="#181818" points="349,638.9766,339,642.9766,349,646.9766,345,642.9766" style="stroke:#181818;stroke-width:1.0;"/><text fill="#000000" font-family="sans-serif" font-size="13" font-weight="bold" lengthAdjust="spacing" textLength="14" x="345" y="625.1201">12</text><text fill="#000000" font-family="sans-serif" font-size="13" lengthAdjust="spacing" textLength="76" x="363" y="625.1201">Validate data</text><path d="M10,687.9766 L71,687.9766 L71,696.3281 L61,706.3281 L10,706.3281 L10,687.9766 " fill="#EEEEEE" style="stroke:#000000;stroke-width:1.5;"/><rect fill="none" height="692.2969" style="stroke:#000000;stroke-width:1.5;" width="911" x="10" y="687.9766"/><text fill="#000000" font-family="sans-serif" font-size="13" font-weight="bold" lengthAdjust="spacing" textLength="16" x="25" y="702.4717">alt</text><text fill="#000000" font-family="sans-serif" font-size="11" font-weight="bold" lengthAdjust="spacing" textLength="69" x="86" y="701.3955">[Invalid data]</text><polygon fill="#181818" points="60,724.6797,50,728.6797,60,732.6797,56,728.6797" style="stroke:#181818;stroke-width:1.0;"/><line style="stroke:#181818;stroke-width:1.0;stroke-dasharray:2.0,2.0;" x1="54" x2="322" y1="728.6797" y2="728.6797"/><text fill="#000000" font-family="sans-serif" font-size="13" font-weight="bold" lengthAdjust="spacing" textLength="14" x="66" y="723.8232">13</text><text fill="#000000" font-family="sans-serif" font-size="13" lengthAdjust="spacing" textLength="94" x="84" y="723.8232">Error notification</text><line style="stroke:#181818;stroke-width:1.0;" x1="338" x2="380" y1="759.0313" y2="759.0313"/><line style="stroke:#181818;stroke-width:1.0;" x1="380" x2="380" y1="759.0313" y2="772.0313"/><line style="stroke:#181818;stroke-width:1.0;" x1="339" x2="380" y1="772.0313" y2="772.0313"/><polygon fill="#181818" points="349,768.0313,339,772.0313,349,776.0313,345,772.0313" style="stroke:#181818;stroke-width:1.0;"/><text fill="#000000" font-family="sans-serif" font-size="13" font-weight="bold" lengthAdjust="spacing" textLength="14" x="345" y="754.1748">14</text><text fill="#000000" font-family="sans-serif" font-size="13" lengthAdjust="spacing" textLength="139" x="363" y="754.1748">Display error notification</text><line style="stroke:#000000;stroke-width:1.0;stroke-dasharray:2.0,2.0;" x1="10" x2="921" y1="811.0313" y2="811.0313"/><text fill="#000000" font-family="sans-serif" font-size="11" font-weight="bold" lengthAdjust="spacing" textLength="61" x="15" y="822.4502">[Valid data]</text><polygon fill="#181818" points="311,844.2188,321,848.2188,311,852.2188,315,848.2188" style="stroke:#181818;stroke-width:1.0;"/><line style="stroke:#181818;stroke-width:1.0;" x1="44" x2="317" y1="848.2188" y2="848.2188"/><text fill="#000000" font-family="sans-serif" font-size="13" font-weight="bold" lengthAdjust="spacing" textLength="14" x="51" y="843.3623">15</text><text fill="#000000" font-family="sans-serif" font-size="13" lengthAdjust="spacing" textLength="172" x="69" y="843.3623">Click button "Save" to confirm</text><polygon fill="#181818" points="544,874.5703,554,878.5703,544,882.5703,548,878.5703" style="stroke:#181818;stroke-width:1.0;"/><line style="stroke:#181818;stroke-width:1.0;" x1="333" x2="550" y1="878.5703" y2="878.5703"/><text fill="#000000" font-family="sans-serif" font-size="13" font-weight="bold" lengthAdjust="spacing" textLength="14" x="340" y="873.7139">16</text><text fill="#000000" font-family="sans-serif" font-size="13" lengthAdjust="spacing" textLength="186" x="358" y="873.7139">Send updating schedule request</text><polygon fill="#181818" points="781,904.9219,791,908.9219,781,912.9219,785,908.9219" style="stroke:#181818;stroke-width:1.0;"/><line style="stroke:#181818;stroke-width:1.0;" x1="566" x2="787" y1="908.9219" y2="908.9219"/><text fill="#000000" font-family="sans-serif" font-size="13" font-weight="bold" lengthAdjust="spacing" textLength="14" x="573" y="904.0654">17</text><text fill="#000000" font-family="sans-serif" font-size="13" lengthAdjust="spacing" textLength="97" x="591" y="904.0654">Send information</text><line style="stroke:#181818;stroke-width:1.0;" x1="808" x2="850" y1="939.2734" y2="939.2734"/><line style="stroke:#181818;stroke-width:1.0;" x1="850" x2="850" y1="939.2734" y2="952.2734"/><line style="stroke:#181818;stroke-width:1.0;" x1="809" x2="850" y1="952.2734" y2="952.2734"/><polygon fill="#181818" points="819,948.2734,809,952.2734,819,956.2734,815,952.2734" style="stroke:#181818;stroke-width:1.0;"/><text fill="#000000" font-family="sans-serif" font-size="13" font-weight="bold" lengthAdjust="spacing" textLength="14" x="815" y="934.417">18</text><text fill="#000000" font-family="sans-serif" font-size="13" lengthAdjust="spacing" textLength="76" x="833" y="934.417">Validate data</text><path d="M89,997.2734 L150,997.2734 L150,1005.625 L140,1015.625 L89,1015.625 L89,997.2734 " fill="#EEEEEE" style="stroke:#000000;stroke-width:1.5;"/><rect fill="none" height="376" style="stroke:#000000;stroke-width:1.5;" width="816" x="89" y="997.2734"/><text fill="#000000" font-family="sans-serif" font-size="13" font-weight="bold" lengthAdjust="spacing" textLength="16" x="104" y="1011.7686">alt</text><text fill="#000000" font-family="sans-serif" font-size="11" font-weight="bold" lengthAdjust="spacing" textLength="69" x="165" y="1010.6924">[Invalid data]</text><polygon fill="#181818" points="577,1033.9766,567,1037.9766,577,1041.9766,573,1037.9766" style="stroke:#181818;stroke-width:1.0;"/><line style="stroke:#181818;stroke-width:1.0;stroke-dasharray:2.0,2.0;" x1="571" x2="792" y1="1037.9766" y2="1037.9766"/><text fill="#000000" font-family="sans-serif" font-size="13" font-weight="bold" lengthAdjust="spacing" textLength="14" x="583" y="1033.1201">19</text><text fill="#000000" font-family="sans-serif" font-size="13" lengthAdjust="spacing" textLength="94" x="601" y="1033.1201">Error notification</text><polygon fill="#181818" points="344,1064.3281,334,1068.3281,344,1072.3281,340,1068.3281" style="stroke:#181818;stroke-width:1.0;"/><line style="stroke:#181818;stroke-width:1.0;stroke-dasharray:2.0,2.0;" x1="338" x2="555" y1="1068.3281" y2="1068.3281"/><text fill="#000000" font-family="sans-serif" font-size="13" font-weight="bold" lengthAdjust="spacing" textLength="14" x="350" y="1063.4717">20</text><text fill="#000000" font-family="sans-serif" font-size="13" lengthAdjust="spacing" textLength="94" x="368" y="1063.4717">Error notification</text><line style="stroke:#181818;stroke-width:1.0;" x1="338" x2="380" y1="1098.6797" y2="1098.6797"/><line style="stroke:#181818;stroke-width:1.0;" x1="380" x2="380" y1="1098.6797" y2="1111.6797"/><line style="stroke:#181818;stroke-width:1.0;" x1="339" x2="380" y1="1111.6797" y2="1111.6797"/><polygon fill="#181818" points="349,1107.6797,339,1111.6797,349,1115.6797,345,1111.6797" style="stroke:#181818;stroke-width:1.0;"/><text fill="#000000" font-family="sans-serif" font-size="13" font-weight="bold" lengthAdjust="spacing" textLength="14" x="345" y="1093.8232">21</text><text fill="#000000" font-family="sans-serif" font-size="13" lengthAdjust="spacing" textLength="139" x="363" y="1093.8232">Display error notification</text><line style="stroke:#000000;stroke-width:1.0;stroke-dasharray:2.0,2.0;" x1="89" x2="905" y1="1150.6797" y2="1150.6797"/><text fill="#000000" font-family="sans-serif" font-size="11" font-weight="bold" lengthAdjust="spacing" textLength="61" x="94" y="1162.0986">[Valid data]</text><line style="stroke:#181818;stroke-width:1.0;" x1="808" x2="850" y1="1187.8672" y2="1187.8672"/><line style="stroke:#181818;stroke-width:1.0;" x1="850" x2="850" y1="1187.8672" y2="1200.8672"/><line style="stroke:#181818;stroke-width:1.0;" x1="809" x2="850" y1="1200.8672" y2="1200.8672"/><polygon fill="#181818" points="819,1196.8672,809,1200.8672,819,1204.8672,815,1200.8672" style="stroke:#181818;stroke-width:1.0;"/><text fill="#000000" font-family="sans-serif" font-size="13" font-weight="bold" lengthAdjust="spacing" textLength="14" x="815" y="1183.0107">22</text><text fill="#000000" font-family="sans-serif" font-size="13" lengthAdjust="spacing" textLength="60" x="833" y="1183.0107">Store data</text><polygon fill="#181818" points="577,1257.2188,567,1261.2188,577,1265.2188,573,1261.2188" style="stroke:#181818;stroke-width:1.0;"/><line style="stroke:#181818;stroke-width:1.0;stroke-dasharray:2.0,2.0;" x1="571" x2="797" y1="1261.2188" y2="1261.2188"/><text fill="#000000" font-family="sans-serif" font-size="13" font-weight="bold" lengthAdjust="spacing" textLength="14" x="583" y="1256.3623">23</text><text fill="#000000" font-family="sans-serif" font-size="13" lengthAdjust="spacing" textLength="117" x="601" y="1256.3623">Success notification</text><polygon fill="#181818" points="344,1287.5703,334,1291.5703,344,1295.5703,340,1291.5703" style="stroke:#181818;stroke-width:1.0;"/><line style="stroke:#181818;stroke-width:1.0;stroke-dasharray:2.0,2.0;" x1="338" x2="555" y1="1291.5703" y2="1291.5703"/><text fill="#000000" font-family="sans-serif" font-size="13" font-weight="bold" lengthAdjust="spacing" textLength="14" x="350" y="1286.7139">24</text><text fill="#000000" font-family="sans-serif" font-size="13" lengthAdjust="spacing" textLength="117" x="368" y="1286.7139">Success notification</text><line style="stroke:#181818;stroke-width:1.0;" x1="333" x2="375" y1="1326.9219" y2="1326.9219"/><line style="stroke:#181818;stroke-width:1.0;" x1="375" x2="375" y1="1326.9219" y2="1339.9219"/><line style="stroke:#181818;stroke-width:1.0;" x1="328" x2="375" y1="1339.9219" y2="1339.9219"/><polygon fill="#181818" points="338,1335.9219,328,1339.9219,338,1343.9219,334,1339.9219" style="stroke:#181818;stroke-width:1.0;"/><text fill="#000000" font-family="sans-serif" font-size="13" font-weight="bold" lengthAdjust="spacing" textLength="14" x="340" y="1322.0654">25</text><text fill="#000000" font-family="sans-serif" font-size="13" lengthAdjust="spacing" textLength="61" x="358" y="1322.0654">Close view</text><polygon fill="#181818" points="183,1361.2734,173,1365.2734,183,1369.2734,179,1365.2734" style="stroke:#181818;stroke-width:1.0;"/><line style="stroke:#181818;stroke-width:1.0;" x1="177" x2="560" y1="1365.2734" y2="1365.2734"/><text fill="#000000" font-family="sans-serif" font-size="13" font-weight="bold" lengthAdjust="spacing" textLength="14" x="189" y="1360.417">26</text><text fill="#000000" font-family="sans-serif" font-size="13" lengthAdjust="spacing" textLength="285" x="207" y="1360.417">Display success notification and list of schedules</text><!--MD5=[dc9d596632e02852409ea41359b533cf]
@startuml UpdateImmunizationScheduleSeq
autonumber
hide footbox

actor Doctor
boundary "ImmunizationSchedule\nManagementView" as ImmunizationScheduleManagementView
boundary "ImmunizationSchedule\nInformationView" as ImmunizationScheduleInformationView
control "ImmunizationSchedule\nController" as ImmunizationScheduleController
entity IMMUNIZATIONSCHEDULE
entity CHILD

opt Search
ref over Doctor, ImmunizationScheduleManagementView, ImmunizationScheduleInformationView, ImmunizationScheduleController, IMMUNIZATIONSCHEDULE, CHILD: Sequence Search ImmunizationSchedule
end 

Doctor -> ImmunizationScheduleManagementView: Select schedule\n needs updating
activate Doctor
activate ImmunizationScheduleManagementView
ImmunizationScheduleManagementView -> ImmunizationScheduleController: Get selected schedule information
activate ImmunizationScheduleController
ImmunizationScheduleController -> IMMUNIZATIONSCHEDULE: Get selected schedule information
activate IMMUNIZATIONSCHEDULE
IMMUNIZATIONSCHEDULE - -> ImmunizationScheduleController: Selected schedule information
deactivate IMMUNIZATIONSCHEDULE
ImmunizationScheduleController - -> ImmunizationScheduleInformationView: Selected schedule information
deactivate ImmunizationScheduleController
activate ImmunizationScheduleInformationView
ImmunizationScheduleController -> CHILD: Get list of children 
activate ImmunizationScheduleController
activate CHILD
CHILD -> CHILD: Query data
activate CHILD
deactivate CHILD
CHILD - -> ImmunizationScheduleController: Query result
deactivate CHILD
ImmunizationScheduleController - -> ImmunizationScheduleInformationView: Query result
deactivate ImmunizationScheduleController
ImmunizationScheduleInformationView -> ImmunizationScheduleInformationView: Display schedule information
activate ImmunizationScheduleInformationView
deactivate ImmunizationScheduleInformationView
Doctor -> ImmunizationScheduleInformationView: Enter schedule information  
ImmunizationScheduleInformationView -> ImmunizationScheduleInformationView: Validate data
activate ImmunizationScheduleInformationView
deactivate ImmunizationScheduleInformationView
alt Invalid data
    ImmunizationScheduleInformationView - -> Doctor: Error notification
    ImmunizationScheduleInformationView -> ImmunizationScheduleInformationView: Display error notification
    activate ImmunizationScheduleInformationView
    deactivate ImmunizationScheduleInformationView
else Valid data
    Doctor -> ImmunizationScheduleInformationView: Click button "Save" to confirm
    deactivate Doctor
    ImmunizationScheduleInformationView -> ImmunizationScheduleController: Send updating schedule request
    activate ImmunizationScheduleController
    ImmunizationScheduleController -> IMMUNIZATIONSCHEDULE: Send information
    activate IMMUNIZATIONSCHEDULE
    IMMUNIZATIONSCHEDULE -> IMMUNIZATIONSCHEDULE: Validate data
    activate IMMUNIZATIONSCHEDULE
    deactivate IMMUNIZATIONSCHEDULE
    alt Invalid data
        IMMUNIZATIONSCHEDULE - -> ImmunizationScheduleController: Error notification
        ImmunizationScheduleController - -> ImmunizationScheduleInformationView: Error notification
        ImmunizationScheduleInformationView -> ImmunizationScheduleInformationView: Display error notification
        activate ImmunizationScheduleInformationView
        deactivate ImmunizationScheduleInformationView
    else Valid data
        IMMUNIZATIONSCHEDULE -> IMMUNIZATIONSCHEDULE: Store data
        activate IMMUNIZATIONSCHEDULE
        deactivate IMMUNIZATIONSCHEDULE
        IMMUNIZATIONSCHEDULE - -> ImmunizationScheduleController: Success notification
        deactivate IMMUNIZATIONSCHEDULE
        ImmunizationScheduleController - -> ImmunizationScheduleInformationView: Success notification
        ImmunizationScheduleInformationView -> ImmunizationScheduleInformationView: Close view
        deactivate ImmunizationScheduleInformationView
        ImmunizationScheduleController -> ImmunizationScheduleManagementView: Display success notification and list of schedules
        deactivate ImmunizationScheduleManagementView
        deactivate ImmunizationScheduleController
    end
end
@enduml

PlantUML version 1.2022.7(Tue Aug 23 00:01:30 ICT 2022)
(GPL source distribution)
Java Runtime: Java(TM) SE Runtime Environment
JVM: Java HotSpot(TM) 64-Bit Server VM
Default Encoding: Cp1252
Language: en
Country: US
--></g></svg>