<?xml version="1.0" encoding="UTF-8" standalone="no"?><svg xmlns="http://www.w3.org/2000/svg" xmlns:xlink="http://www.w3.org/1999/xlink" contentStyleType="text/css" height="727px" preserveAspectRatio="none" style="width:880px;height:727px;background:#FFFFFF;" version="1.1" viewBox="0 0 880 727" width="880px" zoomAndPan="magnify"><defs/><g><ellipse cx="175.625" cy="50.0957" fill="#222222" rx="10" ry="10" style="stroke:#222222;stroke-width:1.0;"/><rect fill="#F1F1F1" height="50.1875" rx="12.5" ry="12.5" style="stroke:#181818;stroke-width:0.5;" width="102" x="124.625" y="80.0957"/><text fill="#000000" font-family="sans-serif" font-size="12" lengthAdjust="spacing" textLength="81" x="134.625" y="102.5527">(1) Select child</text><text fill="#000000" font-family="sans-serif" font-size="12" lengthAdjust="spacing" textLength="82" x="134.625" y="117.6465">needs deleting</text><rect fill="#F1F1F1" height="50.1875" rx="12.5" ry="12.5" style="stroke:#181818;stroke-width:0.5;" width="104" x="21" y="279.5645"/><text fill="#000000" font-family="sans-serif" font-size="12" lengthAdjust="spacing" textLength="55" x="31" y="302.0215">(2.1) Click</text><text fill="#000000" font-family="sans-serif" font-size="12" lengthAdjust="spacing" textLength="84" x="31" y="317.1152">"Cancel" button</text><ellipse cx="73" cy="359.752" fill="none" rx="10" ry="10" style="stroke:#222222;stroke-width:1.5;"/><line style="stroke:#222222;stroke-width:2.5;" x1="66.8128" x2="79.1872" y1="353.5648" y2="365.9391"/><line style="stroke:#222222;stroke-width:2.5;" x1="79.1872" x2="66.8128" y1="353.5648" y2="365.9391"/><rect fill="#F1F1F1" height="50.1875" rx="12.5" ry="12.5" style="stroke:#181818;stroke-width:0.5;" width="109" x="223.75" y="279.5645"/><text fill="#000000" font-family="sans-serif" font-size="12" lengthAdjust="spacing" textLength="55" x="233.75" y="302.0215">(2.2) Click</text><text fill="#000000" font-family="sans-serif" font-size="12" lengthAdjust="spacing" textLength="89" x="233.75" y="317.1152">"Confirm" button</text><line style="stroke:#000000;stroke-width:1.5;" x1="15" x2="15" y1="12.4551" y2="715.3145"/><rect fill="#F1F1F1" height="65.2813" rx="12.5" ry="12.5" style="stroke:#181818;stroke-width:0.5;" width="92" x="342.75" y="150.2832"/><text fill="#000000" font-family="sans-serif" font-size="12" lengthAdjust="spacing" textLength="59" x="352.75" y="172.7402">(2) Display</text><text fill="#000000" font-family="sans-serif" font-size="12" lengthAdjust="spacing" textLength="68" x="352.75" y="187.834">confirmation</text><text fill="#000000" font-family="sans-serif" font-size="12" lengthAdjust="spacing" textLength="72" x="352.75" y="202.9277">messagebox</text><polygon fill="#F1F1F1" points="388.75,235.5645,388.75,235.5645,400.75,247.5645,388.75,259.5645,388.75,259.5645,376.75,247.5645,388.75,235.5645" style="stroke:#181818;stroke-width:0.5;"/><text fill="#000000" font-family="sans-serif" font-size="11" lengthAdjust="spacing" textLength="33" x="343.75" y="245.1475">Cancel</text><text fill="#000000" font-family="sans-serif" font-size="11" lengthAdjust="spacing" textLength="37" x="400.75" y="245.1475">Confirm</text><rect fill="#F1F1F1" height="35.0938" rx="12.5" ry="12.5" style="stroke:#181818;stroke-width:0.5;" width="176" x="403.375" y="349.752"/><text fill="#000000" font-family="sans-serif" font-size="12" lengthAdjust="spacing" textLength="156" x="413.375" y="372.209">(3) Process deleting request</text><rect fill="#F1F1F1" height="50.1875" rx="12.5" ry="12.5" style="stroke:#181818;stroke-width:0.5;" width="108" x="368.125" y="503.9395"/><text fill="#000000" font-family="sans-serif" font-size="12" lengthAdjust="spacing" textLength="69" x="378.125" y="526.3965">(4.1) Display</text><text fill="#000000" font-family="sans-serif" font-size="12" lengthAdjust="spacing" textLength="88" x="378.125" y="541.4902">error notification</text><rect fill="#F1F1F1" height="65.2813" rx="12.5" ry="12.5" style="stroke:#181818;stroke-width:0.5;" width="129" x="496.125" y="574.0332"/><text fill="#000000" font-family="sans-serif" font-size="12" lengthAdjust="spacing" textLength="109" x="506.125" y="596.4902">(5) Display success</text><text fill="#000000" font-family="sans-serif" font-size="12" lengthAdjust="spacing" textLength="59" x="506.125" y="611.584">notification</text><text fill="#000000" font-family="sans-serif" font-size="12" lengthAdjust="spacing" textLength="100" x="506.125" y="626.6777">and list of children</text><line style="stroke:#000000;stroke-width:1.5;" x1="336.75" x2="336.75" y1="12.4551" y2="715.3145"/><rect fill="#F1F1F1" height="35.0938" rx="12.5" ry="12.5" style="stroke:#181818;stroke-width:0.5;" width="109" x="677.625" y="404.8457"/><text fill="#000000" font-family="sans-serif" font-size="12" lengthAdjust="spacing" textLength="89" x="687.625" y="427.3027">(4) Validate data</text><polygon fill="#F1F1F1" points="732.125,459.9395,732.125,459.9395,744.125,471.9395,732.125,483.9395,732.125,483.9395,720.125,471.9395,732.125,459.9395" style="stroke:#181818;stroke-width:0.5;"/><text fill="#000000" font-family="sans-serif" font-size="11" lengthAdjust="spacing" textLength="54" x="666.125" y="469.5225">Invalid data</text><text fill="#000000" font-family="sans-serif" font-size="11" lengthAdjust="spacing" textLength="48" x="744.125" y="469.5225">Valid data</text><rect fill="#F1F1F1" height="35.0938" rx="12.5" ry="12.5" style="stroke:#181818;stroke-width:0.5;" width="111" x="745.875" y="503.9395"/><text fill="#000000" font-family="sans-serif" font-size="12" lengthAdjust="spacing" textLength="91" x="755.875" y="526.3965">(4.2) Delete data</text><polygon fill="#F1F1F1" points="732.125,649.3145,744.125,661.3145,732.125,673.3145,720.125,661.3145,732.125,649.3145" style="stroke:#181818;stroke-width:0.5;"/><ellipse cx="645.125" cy="704.3145" fill="none" rx="11" ry="11" style="stroke:#222222;stroke-width:1.0;"/><ellipse cx="645.125" cy="704.3145" fill="#222222" rx="6" ry="6" style="stroke:#111111;stroke-width:1.0;"/><line style="stroke:#000000;stroke-width:1.5;" x1="629.125" x2="629.125" y1="12.4551" y2="715.3145"/><line style="stroke:#000000;stroke-width:1.5;" x1="860.875" x2="860.875" y1="12.4551" y2="715.3145"/><line style="stroke:#181818;stroke-width:1.0;" x1="175.625" x2="175.625" y1="60.0957" y2="80.0957"/><polygon fill="#181818" points="171.625,70.0957,175.625,80.0957,179.625,70.0957,175.625,74.0957" style="stroke:#181818;stroke-width:1.0;"/><line style="stroke:#181818;stroke-width:1.0;" x1="73" x2="73" y1="329.752" y2="349.752"/><polygon fill="#181818" points="69,339.752,73,349.752,77,339.752,73,343.752" style="stroke:#181818;stroke-width:1.0;"/><line style="stroke:#181818;stroke-width:1.0;" x1="388.75" x2="388.75" y1="215.5645" y2="235.5645"/><polygon fill="#181818" points="384.75,225.5645,388.75,235.5645,392.75,225.5645,388.75,229.5645" style="stroke:#181818;stroke-width:1.0;"/><line style="stroke:#181818;stroke-width:1.0;" x1="744.125" x2="801.375" y1="471.9395" y2="471.9395"/><line style="stroke:#181818;stroke-width:1.0;" x1="801.375" x2="801.375" y1="471.9395" y2="503.9395"/><polygon fill="#181818" points="797.375,493.9395,801.375,503.9395,805.375,493.9395,801.375,497.9395" style="stroke:#181818;stroke-width:1.0;"/><line style="stroke:#181818;stroke-width:1.0;" x1="732.125" x2="732.125" y1="439.9395" y2="459.9395"/><polygon fill="#181818" points="728.125,449.9395,732.125,459.9395,736.125,449.9395,732.125,453.9395" style="stroke:#181818;stroke-width:1.0;"/><line style="stroke:#181818;stroke-width:1.0;" x1="175.625" x2="175.625" y1="130.2832" y2="135.2832"/><line style="stroke:#181818;stroke-width:1.0;" x1="175.625" x2="388.75" y1="135.2832" y2="135.2832"/><line style="stroke:#181818;stroke-width:1.0;" x1="388.75" x2="388.75" y1="135.2832" y2="150.2832"/><polygon fill="#181818" points="384.75,140.2832,388.75,150.2832,392.75,140.2832,388.75,144.2832" style="stroke:#181818;stroke-width:1.0;"/><line style="stroke:#181818;stroke-width:1.0;" x1="278.25" x2="278.25" y1="329.752" y2="334.752"/><line style="stroke:#181818;stroke-width:1.0;" x1="278.25" x2="491.375" y1="334.752" y2="334.752"/><line style="stroke:#181818;stroke-width:1.0;" x1="491.375" x2="491.375" y1="334.752" y2="349.752"/><polygon fill="#181818" points="487.375,339.752,491.375,349.752,495.375,339.752,491.375,343.752" style="stroke:#181818;stroke-width:1.0;"/><line style="stroke:#181818;stroke-width:1.0;" x1="491.375" x2="491.375" y1="384.8457" y2="389.8457"/><line style="stroke:#181818;stroke-width:1.0;" x1="491.375" x2="732.125" y1="389.8457" y2="389.8457"/><line style="stroke:#181818;stroke-width:1.0;" x1="732.125" x2="732.125" y1="389.8457" y2="404.8457"/><polygon fill="#181818" points="728.125,394.8457,732.125,404.8457,736.125,394.8457,732.125,398.8457" style="stroke:#181818;stroke-width:1.0;"/><line style="stroke:#181818;stroke-width:1.0;" x1="801.375" x2="801.375" y1="539.0332" y2="556.5332"/><line style="stroke:#181818;stroke-width:1.0;" x1="801.375" x2="560.625" y1="556.5332" y2="556.5332"/><line style="stroke:#181818;stroke-width:1.0;" x1="560.625" x2="560.625" y1="556.5332" y2="574.0332"/><polygon fill="#181818" points="556.625,564.0332,560.625,574.0332,564.625,564.0332,560.625,568.0332" style="stroke:#181818;stroke-width:1.0;"/><line style="stroke:#181818;stroke-width:1.0;" x1="720.125" x2="422.125" y1="471.9395" y2="471.9395"/><line style="stroke:#181818;stroke-width:1.0;" x1="422.125" x2="422.125" y1="471.9395" y2="503.9395"/><polygon fill="#181818" points="418.125,493.9395,422.125,503.9395,426.125,493.9395,422.125,497.9395" style="stroke:#181818;stroke-width:1.0;"/><line style="stroke:#181818;stroke-width:1.0;" x1="422.125" x2="422.125" y1="554.127" y2="661.3145"/><line style="stroke:#181818;stroke-width:1.0;" x1="422.125" x2="720.125" y1="661.3145" y2="661.3145"/><polygon fill="#181818" points="710.125,657.3145,720.125,661.3145,710.125,665.3145,714.125,661.3145" style="stroke:#181818;stroke-width:1.0;"/><line style="stroke:#181818;stroke-width:1.0;" x1="560.625" x2="560.625" y1="639.3145" y2="643.3145"/><line style="stroke:#181818;stroke-width:1.0;" x1="560.625" x2="762.125" y1="643.3145" y2="643.3145"/><line style="stroke:#181818;stroke-width:1.0;" x1="762.125" x2="762.125" y1="643.3145" y2="661.3145"/><line style="stroke:#181818;stroke-width:1.0;" x1="762.125" x2="744.125" y1="661.3145" y2="661.3145"/><polygon fill="#181818" points="754.125,657.3145,744.125,661.3145,754.125,665.3145,750.125,661.3145" style="stroke:#181818;stroke-width:1.0;"/><line style="stroke:#181818;stroke-width:1.0;" x1="376.75" x2="73" y1="247.5645" y2="247.5645"/><line style="stroke:#181818;stroke-width:1.0;" x1="73" x2="73" y1="247.5645" y2="279.5645"/><polygon fill="#181818" points="69,269.5645,73,279.5645,77,269.5645,73,273.5645" style="stroke:#181818;stroke-width:1.0;"/><line style="stroke:#181818;stroke-width:1.0;" x1="400.75" x2="412.75" y1="247.5645" y2="247.5645"/><line style="stroke:#181818;stroke-width:1.0;" x1="412.75" x2="412.75" y1="247.5645" y2="265.5645"/><line style="stroke:#181818;stroke-width:1.0;" x1="412.75" x2="278.25" y1="265.5645" y2="265.5645"/><line style="stroke:#181818;stroke-width:1.0;" x1="278.25" x2="278.25" y1="265.5645" y2="279.5645"/><polygon fill="#181818" points="274.25,269.5645,278.25,279.5645,282.25,269.5645,278.25,273.5645" style="stroke:#181818;stroke-width:1.0;"/><line style="stroke:#181818;stroke-width:1.0;" x1="732.125" x2="732.125" y1="673.3145" y2="678.3145"/><line style="stroke:#181818;stroke-width:1.0;" x1="732.125" x2="645.125" y1="678.3145" y2="678.3145"/><line style="stroke:#181818;stroke-width:1.0;" x1="645.125" x2="645.125" y1="678.3145" y2="693.3145"/><polygon fill="#181818" points="641.125,683.3145,645.125,693.3145,649.125,683.3145,645.125,687.3145" style="stroke:#181818;stroke-width:1.0;"/><text fill="#000000" font-family="sans-serif" font-size="18" lengthAdjust="spacing" textLength="121" x="115.375" y="31.1406">Parent / Doctor</text><text fill="#000000" font-family="sans-serif" font-size="18" lengthAdjust="spacing" textLength="59" x="453.4375" y="31.1406">System</text><text fill="#000000" font-family="sans-serif" font-size="18" lengthAdjust="spacing" textLength="77" x="706.5" y="31.1406">Database</text><!--MD5=[77769957859588f42be25d3d47ce5a99]
@startuml DeleteChildActi
|Parent / Doctor|
start
:(1) Select child\nneeds deleting;
|System|
:(2) Display\nconfirmation\nmessagebox;      
if () then (Cancel)
    |Parent / Doctor|
    :(2.1) Click\n"Cancel" button;
    end
else (Confirm)
    |Parent / Doctor|
    :(2.2) Click\n"Confirm" button;
    |System|
    :(3) Process deleting request;
    |Database|
    :(4) Validate data;
    if () then (Invalid data)
        |System|
        :(4.1) Display\nerror notification;
    else (Valid data)
        |Database|  
        :(4.2) Delete data;
        |System|
        :(5) Display success\nnotification\nand list of children;
        endif
    |Database|
endif
stop
@enduml

PlantUML version 1.2022.7(Tue Aug 23 00:01:30 ICT 2022)
(GPL source distribution)
Java Runtime: Java(TM) SE Runtime Environment
JVM: Java HotSpot(TM) 64-Bit Server VM
Default Encoding: Cp1252
Language: en
Country: US
--></g></svg>