<?xml version="1.0" encoding="UTF-8" standalone="no"?><svg xmlns="http://www.w3.org/2000/svg" xmlns:xlink="http://www.w3.org/1999/xlink" contentStyleType="text/css" height="435px" preserveAspectRatio="none" style="width:643px;height:435px;background:#FFFFFF;" version="1.1" viewBox="0 0 643 435" width="643px" zoomAndPan="magnify"><defs/><g><rect fill="#F1F1F1" height="35.0938" rx="12.5" ry="12.5" style="stroke:#181818;stroke-width:0.5;" width="128" x="144.5" y="150.2832"/><text fill="#000000" font-family="sans-serif" font-size="12" lengthAdjust="spacing" textLength="108" x="154.5" y="172.7402">(2) Choose function</text><polygon fill="#F1F1F1" points="49.5,211.9658,49.5,211.9658,61.5,223.9658,49.5,235.9658,49.5,235.9658,37.5,223.9658,49.5,211.9658" style="stroke:#181818;stroke-width:0.5;"/><text fill="#000000" font-family="sans-serif" font-size="11" lengthAdjust="spacing" textLength="32" x="53.5" y="247.3848">Create</text><rect fill="#F1F1F1" height="80.375" rx="12.5" ry="12.5" style="stroke:#181818;stroke-width:0.5;" width="57" x="21" y="269.8018"/><text fill="#000000" font-family="sans-serif" font-size="12" lengthAdjust="spacing" textLength="25" x="31" y="292.2588">(2.1)</text><text fill="#000000" font-family="sans-serif" font-size="12" lengthAdjust="spacing" textLength="35" x="31" y="307.3525">Activity</text><text fill="#000000" font-family="sans-serif" font-size="12" lengthAdjust="spacing" textLength="37" x="31" y="322.4463">Create</text><text fill="#000000" font-family="sans-serif" font-size="12" lengthAdjust="spacing" textLength="29" x="31" y="337.54">Child</text><polygon fill="#F1F1F1" points="125.5,211.9658,125.5,211.9658,137.5,223.9658,125.5,235.9658,125.5,235.9658,113.5,223.9658,125.5,211.9658" style="stroke:#181818;stroke-width:0.5;"/><text fill="#000000" font-family="sans-serif" font-size="11" lengthAdjust="spacing" textLength="34" x="129.5" y="247.3848">Update</text><rect fill="#F1F1F1" height="80.375" rx="12.5" ry="12.5" style="stroke:#181818;stroke-width:0.5;" width="60" x="95.5" y="269.8018"/><text fill="#000000" font-family="sans-serif" font-size="12" lengthAdjust="spacing" textLength="25" x="105.5" y="292.2588">(2.2)</text><text fill="#000000" font-family="sans-serif" font-size="12" lengthAdjust="spacing" textLength="35" x="105.5" y="307.3525">Activity</text><text fill="#000000" font-family="sans-serif" font-size="12" lengthAdjust="spacing" textLength="40" x="105.5" y="322.4463">Update</text><text fill="#000000" font-family="sans-serif" font-size="12" lengthAdjust="spacing" textLength="29" x="105.5" y="337.54">Child</text><polygon fill="#F1F1F1" points="207.5,211.9658,207.5,211.9658,219.5,223.9658,207.5,235.9658,207.5,235.9658,195.5,223.9658,207.5,211.9658" style="stroke:#181818;stroke-width:0.5;"/><text fill="#000000" font-family="sans-serif" font-size="11" lengthAdjust="spacing" textLength="30" x="211.5" y="247.3848">Delete</text><rect fill="#F1F1F1" height="80.375" rx="12.5" ry="12.5" style="stroke:#181818;stroke-width:0.5;" width="56" x="179.5" y="269.8018"/><text fill="#000000" font-family="sans-serif" font-size="12" lengthAdjust="spacing" textLength="25" x="189.5" y="292.2588">(2.3)</text><text fill="#000000" font-family="sans-serif" font-size="12" lengthAdjust="spacing" textLength="35" x="189.5" y="307.3525">Activity</text><text fill="#000000" font-family="sans-serif" font-size="12" lengthAdjust="spacing" textLength="36" x="189.5" y="322.4463">Delete</text><text fill="#000000" font-family="sans-serif" font-size="12" lengthAdjust="spacing" textLength="29" x="189.5" y="337.54">Child</text><polygon fill="#F1F1F1" points="287,211.9658,287,211.9658,299,223.9658,287,235.9658,287,235.9658,275,223.9658,287,211.9658" style="stroke:#181818;stroke-width:0.5;"/><text fill="#000000" font-family="sans-serif" font-size="11" lengthAdjust="spacing" textLength="35" x="291" y="247.3848">Search</text><text fill="#000000" font-family="sans-serif" font-size="11" lengthAdjust="spacing" textLength="59" x="299" y="207.7129">View Health</text><text fill="#000000" font-family="sans-serif" font-size="11" lengthAdjust="spacing" textLength="71" x="299" y="221.5488">Update History</text><rect fill="#F1F1F1" height="80.375" rx="12.5" ry="12.5" style="stroke:#181818;stroke-width:0.5;" width="59" x="257.5" y="269.8018"/><text fill="#000000" font-family="sans-serif" font-size="12" lengthAdjust="spacing" textLength="25" x="267.5" y="292.2588">(2.4)</text><text fill="#000000" font-family="sans-serif" font-size="12" lengthAdjust="spacing" textLength="35" x="267.5" y="307.3525">Activity</text><text fill="#000000" font-family="sans-serif" font-size="12" lengthAdjust="spacing" textLength="39" x="267.5" y="322.4463">Search</text><text fill="#000000" font-family="sans-serif" font-size="12" lengthAdjust="spacing" textLength="29" x="267.5" y="337.54">Child</text><rect fill="#F1F1F1" height="110.5625" rx="12.5" ry="12.5" style="stroke:#181818;stroke-width:0.5;" width="60" x="342" y="251.4248"/><text fill="#000000" font-family="sans-serif" font-size="12" lengthAdjust="spacing" textLength="25" x="352" y="273.8818">(2.5)</text><text fill="#000000" font-family="sans-serif" font-size="12" lengthAdjust="spacing" textLength="35" x="352" y="288.9756">Activity</text><text fill="#000000" font-family="sans-serif" font-size="12" lengthAdjust="spacing" textLength="26" x="352" y="304.0693">View</text><text fill="#000000" font-family="sans-serif" font-size="12" lengthAdjust="spacing" textLength="36" x="352" y="319.1631">Health</text><text fill="#000000" font-family="sans-serif" font-size="12" lengthAdjust="spacing" textLength="40" x="352" y="334.2568">Update</text><text fill="#000000" font-family="sans-serif" font-size="12" lengthAdjust="spacing" textLength="38" x="352" y="349.3506">History</text><line style="stroke:#000000;stroke-width:1.5;" x1="15" x2="15" y1="12.4551" y2="423.9873"/><ellipse cx="472.5" cy="50.0957" fill="#222222" rx="10" ry="10" style="stroke:#222222;stroke-width:1.0;"/><rect fill="#F1F1F1" height="50.1875" rx="12.5" ry="12.5" style="stroke:#181818;stroke-width:0.5;" width="121" x="412" y="80.0957"/><text fill="#000000" font-family="sans-serif" font-size="12" lengthAdjust="spacing" textLength="88" x="422" y="102.5527">(1) Display child</text><text fill="#000000" font-family="sans-serif" font-size="12" lengthAdjust="spacing" textLength="101" x="422" y="117.6465">management view</text><ellipse cx="472.5" cy="412.9873" fill="none" rx="11" ry="11" style="stroke:#222222;stroke-width:1.0;"/><ellipse cx="472.5" cy="412.9873" fill="#222222" rx="6" ry="6" style="stroke:#111111;stroke-width:1.0;"/><line style="stroke:#000000;stroke-width:1.5;" x1="406" x2="406" y1="12.4551" y2="423.9873"/><line style="stroke:#000000;stroke-width:1.5;" x1="537" x2="537" y1="12.4551" y2="423.9873"/><line style="stroke:#000000;stroke-width:1.5;" x1="624" x2="624" y1="12.4551" y2="423.9873"/><line style="stroke:#181818;stroke-width:1.0;" x1="49.5" x2="49.5" y1="235.9658" y2="269.8018"/><polygon fill="#181818" points="45.5,259.8018,49.5,269.8018,53.5,259.8018,49.5,263.8018" style="stroke:#181818;stroke-width:1.0;"/><line style="stroke:#181818;stroke-width:1.0;" x1="49.5" x2="49.5" y1="350.1768" y2="381.9873"/><polygon fill="#181818" points="45.5,371.9873,49.5,381.9873,53.5,371.9873,49.5,375.9873" style="stroke:#181818;stroke-width:1.0;"/><line style="stroke:#181818;stroke-width:1.0;" x1="125.5" x2="125.5" y1="235.9658" y2="269.8018"/><polygon fill="#181818" points="121.5,259.8018,125.5,269.8018,129.5,259.8018,125.5,263.8018" style="stroke:#181818;stroke-width:1.0;"/><line style="stroke:#181818;stroke-width:1.0;" x1="125.5" x2="125.5" y1="350.1768" y2="381.9873"/><polygon fill="#181818" points="121.5,371.9873,125.5,381.9873,129.5,371.9873,125.5,375.9873" style="stroke:#181818;stroke-width:1.0;"/><line style="stroke:#181818;stroke-width:1.0;" x1="207.5" x2="207.5" y1="235.9658" y2="269.8018"/><polygon fill="#181818" points="203.5,259.8018,207.5,269.8018,211.5,259.8018,207.5,263.8018" style="stroke:#181818;stroke-width:1.0;"/><line style="stroke:#181818;stroke-width:1.0;" x1="207.5" x2="207.5" y1="350.1768" y2="381.9873"/><polygon fill="#181818" points="203.5,371.9873,207.5,381.9873,211.5,371.9873,207.5,375.9873" style="stroke:#181818;stroke-width:1.0;"/><line style="stroke:#181818;stroke-width:1.0;" x1="287" x2="287" y1="235.9658" y2="269.8018"/><polygon fill="#181818" points="283,259.8018,287,269.8018,291,259.8018,287,263.8018" style="stroke:#181818;stroke-width:1.0;"/><line style="stroke:#181818;stroke-width:1.0;" x1="287" x2="287" y1="350.1768" y2="381.9873"/><polygon fill="#181818" points="283,371.9873,287,381.9873,291,371.9873,287,375.9873" style="stroke:#181818;stroke-width:1.0;"/><line style="stroke:#181818;stroke-width:1.0;" x1="61.5" x2="113.5" y1="223.9658" y2="223.9658"/><polygon fill="#181818" points="103.5,219.9658,113.5,223.9658,103.5,227.9658,107.5,223.9658" style="stroke:#181818;stroke-width:1.0;"/><line style="stroke:#181818;stroke-width:1.0;" x1="137.5" x2="195.5" y1="223.9658" y2="223.9658"/><polygon fill="#181818" points="185.5,219.9658,195.5,223.9658,185.5,227.9658,189.5,223.9658" style="stroke:#181818;stroke-width:1.0;"/><line style="stroke:#181818;stroke-width:1.0;" x1="219.5" x2="275" y1="223.9658" y2="223.9658"/><polygon fill="#181818" points="265,219.9658,275,223.9658,265,227.9658,269,223.9658" style="stroke:#181818;stroke-width:1.0;"/><line style="stroke:#181818;stroke-width:1.0;" x1="208.5" x2="208.5" y1="185.377" y2="190.377"/><line style="stroke:#181818;stroke-width:1.0;" x1="208.5" x2="49.5" y1="190.377" y2="190.377"/><line style="stroke:#181818;stroke-width:1.0;" x1="49.5" x2="49.5" y1="190.377" y2="211.9658"/><polygon fill="#181818" points="45.5,201.9658,49.5,211.9658,53.5,201.9658,49.5,205.9658" style="stroke:#181818;stroke-width:1.0;"/><line style="stroke:#181818;stroke-width:1.0;" x1="299" x2="372" y1="223.9658" y2="223.9658"/><line style="stroke:#181818;stroke-width:1.0;" x1="372" x2="372" y1="223.9658" y2="251.4248"/><polygon fill="#181818" points="368,241.4248,372,251.4248,376,241.4248,372,245.4248" style="stroke:#181818;stroke-width:1.0;"/><line style="stroke:#181818;stroke-width:1.0;" x1="372" x2="372" y1="361.9873" y2="381.9873"/><polygon fill="#181818" points="368,371.9873,372,381.9873,376,371.9873,372,375.9873" style="stroke:#181818;stroke-width:1.0;"/><line style="stroke:#181818;stroke-width:1.0;" x1="49.5" x2="372" y1="381.9873" y2="381.9873"/><line style="stroke:#181818;stroke-width:1.0;" x1="472.5" x2="472.5" y1="60.0957" y2="80.0957"/><polygon fill="#181818" points="468.5,70.0957,472.5,80.0957,476.5,70.0957,472.5,74.0957" style="stroke:#181818;stroke-width:1.0;"/><line style="stroke:#181818;stroke-width:1.0;" x1="472.5" x2="472.5" y1="130.2832" y2="135.2832"/><line style="stroke:#181818;stroke-width:1.0;" x1="472.5" x2="208.5" y1="135.2832" y2="135.2832"/><line style="stroke:#181818;stroke-width:1.0;" x1="208.5" x2="208.5" y1="135.2832" y2="150.2832"/><polygon fill="#181818" points="204.5,140.2832,208.5,150.2832,212.5,140.2832,208.5,144.2832" style="stroke:#181818;stroke-width:1.0;"/><line style="stroke:#181818;stroke-width:1.0;" x1="208.5" x2="208.5" y1="381.9873" y2="386.9873"/><line style="stroke:#181818;stroke-width:1.0;" x1="208.5" x2="472.5" y1="386.9873" y2="386.9873"/><line style="stroke:#181818;stroke-width:1.0;" x1="472.5" x2="472.5" y1="386.9873" y2="401.9873"/><polygon fill="#181818" points="468.5,391.9873,472.5,401.9873,476.5,391.9873,472.5,395.9873" style="stroke:#181818;stroke-width:1.0;"/><text fill="#000000" font-family="sans-serif" font-size="18" lengthAdjust="spacing" textLength="121" x="150" y="31.1406">Doctor / Parent</text><text fill="#000000" font-family="sans-serif" font-size="18" lengthAdjust="spacing" textLength="59" x="442" y="31.1406">System</text><text fill="#000000" font-family="sans-serif" font-size="18" lengthAdjust="spacing" textLength="77" x="542" y="31.1406">Database</text><!--MD5=[f0fb5c5f0999a9f76e8d6e8e3c0bdb4f]
@startuml ManageChildActi
|Doctor / Parent|
|System|
|Database|
|System|
start
:(1) Display child\nmanagement view;
|Doctor / Parent|
:(2) Choose function;
if () then (Create)
  :(2.1)\nActivity\nCreate\nChild; 
elseif () then (Update) 
  :(2.2)\nActivity\nUpdate\nChild; 
elseif () then (Delete)
  :(2.3)\nActivity\nDelete\nChild; 
elseif () then (Search)
  :(2.4)\nActivity\nSearch\nChild; 
else (View Health\nUpdate History)
  :(2.5)\nActivity\nView\nHealth\nUpdate\nHistory;
endif
|System|
stop
@enduml

PlantUML version 1.2022.7(Tue Aug 23 00:01:30 ICT 2022)
(GPL source distribution)
Java Runtime: Java(TM) SE Runtime Environment
JVM: Java HotSpot(TM) 64-Bit Server VM
Default Encoding: Cp1252
Language: en
Country: US
--></g></svg>