<?xml version="1.0" encoding="UTF-8" standalone="no"?><svg xmlns="http://www.w3.org/2000/svg" xmlns:xlink="http://www.w3.org/1999/xlink" contentStyleType="text/css" height="1004px" preserveAspectRatio="none" style="width:760px;height:1004px;background:#FFFFFF;" version="1.1" viewBox="0 0 760 1004" width="760px" zoomAndPan="magnify"><defs/><g><ellipse cx="96" cy="50.0957" fill="#222222" rx="10" ry="10" style="stroke:#222222;stroke-width:1.0;"/><rect fill="#F1F1F1" height="50.1875" rx="12.5" ry="12.5" style="stroke:#181818;stroke-width:0.5;" width="106" x="43" y="80.0957"/><text fill="#000000" font-family="sans-serif" font-size="12" lengthAdjust="spacing" textLength="81" x="53" y="102.5527">(1) Select child</text><text fill="#000000" font-family="sans-serif" font-size="12" lengthAdjust="spacing" textLength="86" x="53" y="117.6465">needs updating</text><rect fill="#F1F1F1" height="50.1875" rx="12.5" ry="12.5" style="stroke:#181818;stroke-width:0.5;" width="96" x="48" y="374.6582"/><text fill="#000000" font-family="sans-serif" font-size="12" lengthAdjust="spacing" textLength="76" x="58" y="397.1152">(5) Enter child</text><text fill="#000000" font-family="sans-serif" font-size="12" lengthAdjust="spacing" textLength="62" x="58" y="412.209">information</text><polygon fill="#F1F1F1" points="96,330.6582,108,342.6582,96,354.6582,84,342.6582,96,330.6582" style="stroke:#181818;stroke-width:0.5;"/><rect fill="#F1F1F1" height="50.1875" rx="12.5" ry="12.5" style="stroke:#181818;stroke-width:0.5;" width="150" x="21" y="571.8584"/><text fill="#000000" font-family="sans-serif" font-size="12" lengthAdjust="spacing" textLength="130" x="31" y="594.3154">(6.2) Click button "Save"</text><text fill="#000000" font-family="sans-serif" font-size="12" lengthAdjust="spacing" textLength="54" x="31" y="609.4092">to confirm</text><line style="stroke:#000000;stroke-width:1.5;" x1="15" x2="15" y1="12.4551" y2="992.5146"/><rect fill="#F1F1F1" height="35.0938" rx="12.5" ry="12.5" style="stroke:#181818;stroke-width:0.5;" width="201" x="219.25" y="150.2832"/><text fill="#000000" font-family="sans-serif" font-size="12" lengthAdjust="spacing" textLength="181" x="229.25" y="172.7402">(2) Get selected child information</text><rect fill="#F1F1F1" height="50.1875" rx="12.5" ry="12.5" style="stroke:#181818;stroke-width:0.5;" width="109" x="265.25" y="260.4707"/><text fill="#000000" font-family="sans-serif" font-size="12" lengthAdjust="spacing" textLength="88" x="275.25" y="282.9277">(4) Display child</text><text fill="#000000" font-family="sans-serif" font-size="12" lengthAdjust="spacing" textLength="89" x="275.25" y="298.0215">information view</text><rect fill="#F1F1F1" height="35.0938" rx="12.5" ry="12.5" style="stroke:#181818;stroke-width:0.5;" width="147" x="246.25" y="459.8457"/><text fill="#000000" font-family="sans-serif" font-size="12" lengthAdjust="spacing" textLength="127" x="256.25" y="482.3027">(6) Validate data format</text><polygon fill="#F1F1F1" points="319.75,514.9395,319.75,514.9395,331.75,526.9395,319.75,538.9395,319.75,538.9395,307.75,526.9395,319.75,514.9395" style="stroke:#181818;stroke-width:0.5;"/><text fill="#000000" font-family="sans-serif" font-size="11" lengthAdjust="spacing" textLength="48" x="323.75" y="550.3584">Valid data</text><text fill="#000000" font-family="sans-serif" font-size="11" lengthAdjust="spacing" textLength="54" x="331.75" y="524.5225">Invalid data</text><rect fill="#F1F1F1" height="50.1875" rx="12.5" ry="12.5" style="stroke:#181818;stroke-width:0.5;" width="108" x="417.25" y="409.7051"/><text fill="#000000" font-family="sans-serif" font-size="12" lengthAdjust="spacing" textLength="69" x="427.25" y="432.1621">(6.1) Display</text><text fill="#000000" font-family="sans-serif" font-size="12" lengthAdjust="spacing" textLength="88" x="427.25" y="447.2559">error notification</text><rect fill="#F1F1F1" height="35.0938" rx="12.5" ry="12.5" style="stroke:#181818;stroke-width:0.5;" width="180" x="229.75" y="642.0459"/><text fill="#000000" font-family="sans-serif" font-size="12" lengthAdjust="spacing" textLength="160" x="239.75" y="664.5029">(7) Process updating request</text><rect fill="#F1F1F1" height="50.1875" rx="12.5" ry="12.5" style="stroke:#181818;stroke-width:0.5;" width="108" x="181" y="796.2334"/><text fill="#000000" font-family="sans-serif" font-size="12" lengthAdjust="spacing" textLength="69" x="191" y="818.6904">(8.1) Display</text><text fill="#000000" font-family="sans-serif" font-size="12" lengthAdjust="spacing" textLength="88" x="191" y="833.7842">error notification</text><rect fill="#F1F1F1" height="50.1875" rx="12.5" ry="12.5" style="stroke:#181818;stroke-width:0.5;" width="191" x="309" y="866.3271"/><text fill="#000000" font-family="sans-serif" font-size="12" lengthAdjust="spacing" textLength="171" x="319" y="888.7842">(9) Display success notification</text><text fill="#000000" font-family="sans-serif" font-size="12" lengthAdjust="spacing" textLength="100" x="319" y="903.8779">and list of children</text><line style="stroke:#000000;stroke-width:1.5;" x1="175" x2="175" y1="12.4551" y2="992.5146"/><rect fill="#F1F1F1" height="35.0938" rx="12.5" ry="12.5" style="stroke:#181818;stroke-width:0.5;" width="97" x="551.75" y="205.377"/><text fill="#000000" font-family="sans-serif" font-size="12" lengthAdjust="spacing" textLength="77" x="561.75" y="227.834">(3) Query data</text><rect fill="#F1F1F1" height="35.0938" rx="12.5" ry="12.5" style="stroke:#181818;stroke-width:0.5;" width="109" x="545.75" y="697.1396"/><text fill="#000000" font-family="sans-serif" font-size="12" lengthAdjust="spacing" textLength="89" x="555.75" y="719.5967">(8) Validate data</text><polygon fill="#F1F1F1" points="600.25,752.2334,600.25,752.2334,612.25,764.2334,600.25,776.2334,600.25,776.2334,588.25,764.2334,600.25,752.2334" style="stroke:#181818;stroke-width:0.5;"/><text fill="#000000" font-family="sans-serif" font-size="11" lengthAdjust="spacing" textLength="54" x="534.25" y="761.8164">Invalid data</text><text fill="#000000" font-family="sans-serif" font-size="11" lengthAdjust="spacing" textLength="48" x="612.25" y="761.8164">Valid data</text><rect fill="#F1F1F1" height="35.0938" rx="12.5" ry="12.5" style="stroke:#181818;stroke-width:0.5;" width="104" x="633" y="796.2334"/><text fill="#000000" font-family="sans-serif" font-size="12" lengthAdjust="spacing" textLength="84" x="643" y="818.6904">(8.2) Store data</text><polygon fill="#F1F1F1" points="600.25,926.5146,612.25,938.5146,600.25,950.5146,588.25,938.5146,600.25,926.5146" style="stroke:#181818;stroke-width:0.5;"/><ellipse cx="600.25" cy="981.5146" fill="none" rx="11" ry="11" style="stroke:#222222;stroke-width:1.0;"/><ellipse cx="600.25" cy="981.5146" fill="#222222" rx="6" ry="6" style="stroke:#111111;stroke-width:1.0;"/><line style="stroke:#000000;stroke-width:1.5;" x1="529.25" x2="529.25" y1="12.4551" y2="992.5146"/><line style="stroke:#000000;stroke-width:1.5;" x1="741" x2="741" y1="12.4551" y2="992.5146"/><line style="stroke:#181818;stroke-width:1.0;" x1="96" x2="96" y1="60.0957" y2="80.0957"/><polygon fill="#181818" points="92,70.0957,96,80.0957,100,70.0957,96,74.0957" style="stroke:#181818;stroke-width:1.0;"/><line style="stroke:#181818;stroke-width:1.0;" x1="96" x2="96" y1="354.6582" y2="374.6582"/><polygon fill="#181818" points="92,364.6582,96,374.6582,100,364.6582,96,368.6582" style="stroke:#181818;stroke-width:1.0;"/><line style="stroke:#181818;stroke-width:1.0;" x1="331.75" x2="471.25" y1="526.9395" y2="526.9395"/><line style="stroke:#181818;stroke-width:1.0;" x1="471.25" x2="471.25" y1="459.8926" y2="526.9395"/><polygon fill="#181818" points="467.25,469.8926,471.25,459.8926,475.25,469.8926,471.25,465.8926" style="stroke:#181818;stroke-width:1.0;"/><line style="stroke:#181818;stroke-width:1.0;" x1="319.75" x2="319.75" y1="494.9395" y2="514.9395"/><polygon fill="#181818" points="315.75,504.9395,319.75,514.9395,323.75,504.9395,319.75,508.9395" style="stroke:#181818;stroke-width:1.0;"/><line style="stroke:#181818;stroke-width:1.0;" x1="612.25" x2="685" y1="764.2334" y2="764.2334"/><line style="stroke:#181818;stroke-width:1.0;" x1="685" x2="685" y1="764.2334" y2="796.2334"/><polygon fill="#181818" points="681,786.2334,685,796.2334,689,786.2334,685,790.2334" style="stroke:#181818;stroke-width:1.0;"/><line style="stroke:#181818;stroke-width:1.0;" x1="600.25" x2="600.25" y1="732.2334" y2="752.2334"/><polygon fill="#181818" points="596.25,742.2334,600.25,752.2334,604.25,742.2334,600.25,746.2334" style="stroke:#181818;stroke-width:1.0;"/><line style="stroke:#181818;stroke-width:1.0;" x1="600.25" x2="600.25" y1="950.5146" y2="970.5146"/><polygon fill="#181818" points="596.25,960.5146,600.25,970.5146,604.25,960.5146,600.25,964.5146" style="stroke:#181818;stroke-width:1.0;"/><line style="stroke:#181818;stroke-width:1.0;" x1="96" x2="96" y1="130.2832" y2="135.2832"/><line style="stroke:#181818;stroke-width:1.0;" x1="96" x2="319.75" y1="135.2832" y2="135.2832"/><line style="stroke:#181818;stroke-width:1.0;" x1="319.75" x2="319.75" y1="135.2832" y2="150.2832"/><polygon fill="#181818" points="315.75,140.2832,319.75,150.2832,323.75,140.2832,319.75,144.2832" style="stroke:#181818;stroke-width:1.0;"/><line style="stroke:#181818;stroke-width:1.0;" x1="319.75" x2="319.75" y1="185.377" y2="190.377"/><line style="stroke:#181818;stroke-width:1.0;" x1="319.75" x2="600.25" y1="190.377" y2="190.377"/><line style="stroke:#181818;stroke-width:1.0;" x1="600.25" x2="600.25" y1="190.377" y2="205.377"/><polygon fill="#181818" points="596.25,195.377,600.25,205.377,604.25,195.377,600.25,199.377" style="stroke:#181818;stroke-width:1.0;"/><line style="stroke:#181818;stroke-width:1.0;" x1="600.25" x2="600.25" y1="240.4707" y2="245.4707"/><line style="stroke:#181818;stroke-width:1.0;" x1="600.25" x2="319.75" y1="245.4707" y2="245.4707"/><line style="stroke:#181818;stroke-width:1.0;" x1="319.75" x2="319.75" y1="245.4707" y2="260.4707"/><polygon fill="#181818" points="315.75,250.4707,319.75,260.4707,323.75,250.4707,319.75,254.4707" style="stroke:#181818;stroke-width:1.0;"/><line style="stroke:#181818;stroke-width:1.0;" x1="96" x2="96" y1="424.8457" y2="442.3457"/><line style="stroke:#181818;stroke-width:1.0;" x1="96" x2="319.75" y1="442.3457" y2="442.3457"/><line style="stroke:#181818;stroke-width:1.0;" x1="319.75" x2="319.75" y1="442.3457" y2="459.8457"/><polygon fill="#181818" points="315.75,449.8457,319.75,459.8457,323.75,449.8457,319.75,453.8457" style="stroke:#181818;stroke-width:1.0;"/><line style="stroke:#181818;stroke-width:1.0;" x1="471.25" x2="471.25" y1="342.6582" y2="409.7051"/><line style="stroke:#181818;stroke-width:1.0;" x1="471.25" x2="108" y1="342.6582" y2="342.6582"/><polygon fill="#181818" points="118,338.6582,108,342.6582,118,346.6582,114,342.6582" style="stroke:#181818;stroke-width:1.0;"/><line style="stroke:#181818;stroke-width:1.0;" x1="319.75" x2="319.75" y1="310.6582" y2="315.6582"/><line style="stroke:#181818;stroke-width:1.0;" x1="319.75" x2="96" y1="315.6582" y2="315.6582"/><line style="stroke:#181818;stroke-width:1.0;" x1="96" x2="96" y1="315.6582" y2="330.6582"/><polygon fill="#181818" points="92,320.6582,96,330.6582,100,320.6582,96,324.6582" style="stroke:#181818;stroke-width:1.0;"/><line style="stroke:#181818;stroke-width:1.0;" x1="319.75" x2="319.75" y1="538.9395" y2="556.4395"/><line style="stroke:#181818;stroke-width:1.0;" x1="319.75" x2="96" y1="556.4395" y2="556.4395"/><line style="stroke:#181818;stroke-width:1.0;" x1="96" x2="96" y1="556.4395" y2="571.8584"/><polygon fill="#181818" points="92,561.8584,96,571.8584,100,561.8584,96,565.8584" style="stroke:#181818;stroke-width:1.0;"/><line style="stroke:#181818;stroke-width:1.0;" x1="96" x2="96" y1="622.0459" y2="627.0459"/><line style="stroke:#181818;stroke-width:1.0;" x1="96" x2="319.75" y1="627.0459" y2="627.0459"/><line style="stroke:#181818;stroke-width:1.0;" x1="319.75" x2="319.75" y1="627.0459" y2="642.0459"/><polygon fill="#181818" points="315.75,632.0459,319.75,642.0459,323.75,632.0459,319.75,636.0459" style="stroke:#181818;stroke-width:1.0;"/><line style="stroke:#181818;stroke-width:1.0;" x1="319.75" x2="319.75" y1="677.1396" y2="682.1396"/><line style="stroke:#181818;stroke-width:1.0;" x1="319.75" x2="600.25" y1="682.1396" y2="682.1396"/><line style="stroke:#181818;stroke-width:1.0;" x1="600.25" x2="600.25" y1="682.1396" y2="697.1396"/><polygon fill="#181818" points="596.25,687.1396,600.25,697.1396,604.25,687.1396,600.25,691.1396" style="stroke:#181818;stroke-width:1.0;"/><line style="stroke:#181818;stroke-width:1.0;" x1="685" x2="685" y1="831.3271" y2="848.8271"/><line style="stroke:#181818;stroke-width:1.0;" x1="685" x2="404.5" y1="848.8271" y2="848.8271"/><line style="stroke:#181818;stroke-width:1.0;" x1="404.5" x2="404.5" y1="848.8271" y2="866.3271"/><polygon fill="#181818" points="400.5,856.3271,404.5,866.3271,408.5,856.3271,404.5,860.3271" style="stroke:#181818;stroke-width:1.0;"/><line style="stroke:#181818;stroke-width:1.0;" x1="588.25" x2="235" y1="764.2334" y2="764.2334"/><line style="stroke:#181818;stroke-width:1.0;" x1="235" x2="235" y1="764.2334" y2="796.2334"/><polygon fill="#181818" points="231,786.2334,235,796.2334,239,786.2334,235,790.2334" style="stroke:#181818;stroke-width:1.0;"/><line style="stroke:#181818;stroke-width:1.0;" x1="235" x2="235" y1="846.4209" y2="938.5146"/><line style="stroke:#181818;stroke-width:1.0;" x1="235" x2="588.25" y1="938.5146" y2="938.5146"/><polygon fill="#181818" points="578.25,934.5146,588.25,938.5146,578.25,942.5146,582.25,938.5146" style="stroke:#181818;stroke-width:1.0;"/><line style="stroke:#181818;stroke-width:1.0;" x1="404.5" x2="404.5" y1="916.5146" y2="920.5146"/><line style="stroke:#181818;stroke-width:1.0;" x1="404.5" x2="630.25" y1="920.5146" y2="920.5146"/><line style="stroke:#181818;stroke-width:1.0;" x1="630.25" x2="630.25" y1="920.5146" y2="938.5146"/><line style="stroke:#181818;stroke-width:1.0;" x1="630.25" x2="612.25" y1="938.5146" y2="938.5146"/><polygon fill="#181818" points="622.25,934.5146,612.25,938.5146,622.25,942.5146,618.25,938.5146" style="stroke:#181818;stroke-width:1.0;"/><text fill="#000000" font-family="sans-serif" font-size="18" lengthAdjust="spacing" textLength="121" x="34.5" y="31.1406">Parent / Doctor</text><text fill="#000000" font-family="sans-serif" font-size="18" lengthAdjust="spacing" textLength="59" x="322.625" y="31.1406">System</text><text fill="#000000" font-family="sans-serif" font-size="18" lengthAdjust="spacing" textLength="77" x="596.625" y="31.1406">Database</text><!--MD5=[9fdbf05672c3ccf34ef0d0619025d2f3]
@startuml UpdateChildActi
|Parent / Doctor|
start
:(1) Select child\nneeds updating;
|System|
:(2) Get selected child information;
|Database| 
:(3) Query data;
|System|
:(4) Display child\ninformation view;
repeat
    |Parent / Doctor|
    :(5) Enter child\ninformation;
    |System|
    :(6) Validate data format;
    backward :(6.1) Display\nerror notification;
repeat while () is (Invalid data) not (Valid data)
    |Parent / Doctor|
    :(6.2) Click button "Save"\nto confirm;
    |System|
    :(7) Process updating request;
    |Database|
    :(8) Validate data;
    if () then (Invalid data)
        |System|
        :(8.1) Display\nerror notification;
    else (Valid data)
        |Database|  
        :(8.2) Store data;
        |System|
        :(9) Display success notification\nand list of children;
        endif
    |Database|
stop
@enduml

PlantUML version 1.2022.7(Tue Aug 23 00:01:30 ICT 2022)
(GPL source distribution)
Java Runtime: Java(TM) SE Runtime Environment
JVM: Java HotSpot(TM) 64-Bit Server VM
Default Encoding: Cp1252
Language: en
Country: US
--></g></svg>