<?xml version="1.0" encoding="UTF-8" standalone="no"?><svg xmlns="http://www.w3.org/2000/svg" xmlns:xlink="http://www.w3.org/1999/xlink" contentStyleType="text/css" height="660px" preserveAspectRatio="none" style="width:493px;height:660px;background:#FFFFFF;" version="1.1" viewBox="0 0 493 660" width="493px" zoomAndPan="magnify"><defs/><g><ellipse cx="81.5" cy="50.0957" fill="#222222" rx="10" ry="10" style="stroke:#222222;stroke-width:1.0;"/><rect fill="#F1F1F1" height="65.2813" rx="12.5" ry="12.5" style="stroke:#181818;stroke-width:0.5;" width="101" x="31" y="80.0957"/><text fill="#000000" font-family="sans-serif" font-size="12" lengthAdjust="spacing" textLength="81" x="41" y="102.5527">(1) Select child</text><text fill="#000000" font-family="sans-serif" font-size="12" lengthAdjust="spacing" textLength="79" x="41" y="117.6465">needs viewing</text><text fill="#000000" font-family="sans-serif" font-size="12" lengthAdjust="spacing" textLength="73" x="41" y="132.7402">health history</text><rect fill="#F1F1F1" height="65.2813" rx="12.5" ry="12.5" style="stroke:#181818;stroke-width:0.5;" width="93" x="35" y="360.8457"/><text fill="#000000" font-family="sans-serif" font-size="12" lengthAdjust="spacing" textLength="72" x="45" y="383.3027">(5) Select the</text><text fill="#000000" font-family="sans-serif" font-size="12" lengthAdjust="spacing" textLength="73" x="45" y="398.3965">health history</text><text fill="#000000" font-family="sans-serif" font-size="12" lengthAdjust="spacing" textLength="66" x="45" y="413.4902">want to view</text><line style="stroke:#000000;stroke-width:1.5;" x1="15" x2="15" y1="12.4551" y2="648.502"/><rect fill="#F1F1F1" height="35.0938" rx="12.5" ry="12.5" style="stroke:#181818;stroke-width:0.5;" width="201" x="157" y="165.377"/><text fill="#000000" font-family="sans-serif" font-size="12" lengthAdjust="spacing" textLength="181" x="167" y="187.834">(2) Get selected child information</text><rect fill="#F1F1F1" height="65.2813" rx="12.5" ry="12.5" style="stroke:#181818;stroke-width:0.5;" width="111" x="202" y="275.5645"/><text fill="#000000" font-family="sans-serif" font-size="12" lengthAdjust="spacing" textLength="91" x="212" y="298.0215">(4) Display list of</text><text fill="#000000" font-family="sans-serif" font-size="12" lengthAdjust="spacing" textLength="73" x="212" y="313.1152">health history</text><text fill="#000000" font-family="sans-serif" font-size="12" lengthAdjust="spacing" textLength="89" x="212" y="328.209">of selected child</text><rect fill="#F1F1F1" height="35.0938" rx="12.5" ry="12.5" style="stroke:#181818;stroke-width:0.5;" width="211" x="152" y="446.127"/><text fill="#000000" font-family="sans-serif" font-size="12" lengthAdjust="spacing" textLength="191" x="162" y="468.584">(6) Get selected history information</text><rect fill="#F1F1F1" height="50.1875" rx="12.5" ry="12.5" style="stroke:#181818;stroke-width:0.5;" width="166" x="174.5" y="556.3145"/><text fill="#000000" font-family="sans-serif" font-size="12" lengthAdjust="spacing" textLength="146" x="184.5" y="578.7715">(8) Display selected health</text><text fill="#000000" font-family="sans-serif" font-size="12" lengthAdjust="spacing" textLength="101" x="184.5" y="593.8652">history information</text><ellipse cx="257.5" cy="637.502" fill="none" rx="11" ry="11" style="stroke:#222222;stroke-width:1.0;"/><ellipse cx="257.5" cy="637.502" fill="#222222" rx="6" ry="6" style="stroke:#111111;stroke-width:1.0;"/><line style="stroke:#000000;stroke-width:1.5;" x1="146" x2="146" y1="12.4551" y2="648.502"/><rect fill="#F1F1F1" height="35.0938" rx="12.5" ry="12.5" style="stroke:#181818;stroke-width:0.5;" width="97" x="373" y="220.4707"/><text fill="#000000" font-family="sans-serif" font-size="12" lengthAdjust="spacing" textLength="77" x="383" y="242.9277">(3) Query data</text><rect fill="#F1F1F1" height="35.0938" rx="12.5" ry="12.5" style="stroke:#181818;stroke-width:0.5;" width="97" x="373" y="501.2207"/><text fill="#000000" font-family="sans-serif" font-size="12" lengthAdjust="spacing" textLength="77" x="383" y="523.6777">(7) Query data</text><line style="stroke:#000000;stroke-width:1.5;" x1="367" x2="367" y1="12.4551" y2="648.502"/><line style="stroke:#000000;stroke-width:1.5;" x1="474" x2="474" y1="12.4551" y2="648.502"/><line style="stroke:#181818;stroke-width:1.0;" x1="81.5" x2="81.5" y1="60.0957" y2="80.0957"/><polygon fill="#181818" points="77.5,70.0957,81.5,80.0957,85.5,70.0957,81.5,74.0957" style="stroke:#181818;stroke-width:1.0;"/><line style="stroke:#181818;stroke-width:1.0;" x1="257.5" x2="257.5" y1="606.502" y2="626.502"/><polygon fill="#181818" points="253.5,616.502,257.5,626.502,261.5,616.502,257.5,620.502" style="stroke:#181818;stroke-width:1.0;"/><line style="stroke:#181818;stroke-width:1.0;" x1="81.5" x2="81.5" y1="145.377" y2="150.377"/><line style="stroke:#181818;stroke-width:1.0;" x1="81.5" x2="257.5" y1="150.377" y2="150.377"/><line style="stroke:#181818;stroke-width:1.0;" x1="257.5" x2="257.5" y1="150.377" y2="165.377"/><polygon fill="#181818" points="253.5,155.377,257.5,165.377,261.5,155.377,257.5,159.377" style="stroke:#181818;stroke-width:1.0;"/><line style="stroke:#181818;stroke-width:1.0;" x1="257.5" x2="257.5" y1="200.4707" y2="205.4707"/><line style="stroke:#181818;stroke-width:1.0;" x1="257.5" x2="421.5" y1="205.4707" y2="205.4707"/><line style="stroke:#181818;stroke-width:1.0;" x1="421.5" x2="421.5" y1="205.4707" y2="220.4707"/><polygon fill="#181818" points="417.5,210.4707,421.5,220.4707,425.5,210.4707,421.5,214.4707" style="stroke:#181818;stroke-width:1.0;"/><line style="stroke:#181818;stroke-width:1.0;" x1="421.5" x2="421.5" y1="255.5645" y2="260.5645"/><line style="stroke:#181818;stroke-width:1.0;" x1="421.5" x2="257.5" y1="260.5645" y2="260.5645"/><line style="stroke:#181818;stroke-width:1.0;" x1="257.5" x2="257.5" y1="260.5645" y2="275.5645"/><polygon fill="#181818" points="253.5,265.5645,257.5,275.5645,261.5,265.5645,257.5,269.5645" style="stroke:#181818;stroke-width:1.0;"/><line style="stroke:#181818;stroke-width:1.0;" x1="257.5" x2="257.5" y1="340.8457" y2="345.8457"/><line style="stroke:#181818;stroke-width:1.0;" x1="257.5" x2="81.5" y1="345.8457" y2="345.8457"/><line style="stroke:#181818;stroke-width:1.0;" x1="81.5" x2="81.5" y1="345.8457" y2="360.8457"/><polygon fill="#181818" points="77.5,350.8457,81.5,360.8457,85.5,350.8457,81.5,354.8457" style="stroke:#181818;stroke-width:1.0;"/><line style="stroke:#181818;stroke-width:1.0;" x1="81.5" x2="81.5" y1="426.127" y2="431.127"/><line style="stroke:#181818;stroke-width:1.0;" x1="81.5" x2="257.5" y1="431.127" y2="431.127"/><line style="stroke:#181818;stroke-width:1.0;" x1="257.5" x2="257.5" y1="431.127" y2="446.127"/><polygon fill="#181818" points="253.5,436.127,257.5,446.127,261.5,436.127,257.5,440.127" style="stroke:#181818;stroke-width:1.0;"/><line style="stroke:#181818;stroke-width:1.0;" x1="257.5" x2="257.5" y1="481.2207" y2="486.2207"/><line style="stroke:#181818;stroke-width:1.0;" x1="257.5" x2="421.5" y1="486.2207" y2="486.2207"/><line style="stroke:#181818;stroke-width:1.0;" x1="421.5" x2="421.5" y1="486.2207" y2="501.2207"/><polygon fill="#181818" points="417.5,491.2207,421.5,501.2207,425.5,491.2207,421.5,495.2207" style="stroke:#181818;stroke-width:1.0;"/><line style="stroke:#181818;stroke-width:1.0;" x1="421.5" x2="421.5" y1="536.3145" y2="541.3145"/><line style="stroke:#181818;stroke-width:1.0;" x1="421.5" x2="257.5" y1="541.3145" y2="541.3145"/><line style="stroke:#181818;stroke-width:1.0;" x1="257.5" x2="257.5" y1="541.3145" y2="556.3145"/><polygon fill="#181818" points="253.5,546.3145,257.5,556.3145,261.5,546.3145,257.5,550.3145" style="stroke:#181818;stroke-width:1.0;"/><text fill="#000000" font-family="sans-serif" font-size="18" lengthAdjust="spacing" textLength="121" x="20" y="31.1406">Parent / Doctor</text><text fill="#000000" font-family="sans-serif" font-size="18" lengthAdjust="spacing" textLength="59" x="227" y="31.1406">System</text><text fill="#000000" font-family="sans-serif" font-size="18" lengthAdjust="spacing" textLength="77" x="382" y="31.1406">Database</text><!--MD5=[e4a2e326e4361c846736347e1fae9238]
@startuml UpdateChildHealthHistoryActi
|Parent / Doctor|
start
:(1) Select child\nneeds viewing\nhealth history;
|System|
:(2) Get selected child information;
|Database| 
:(3) Query data;
|System|
:(4) Display list of\nhealth history\nof selected child;
|Parent / Doctor|
    :(5) Select the\nhealth history\nwant to view;
    |System|
    :(6) Get selected history information;
    |Database| 
    :(7) Query data;
    |System|
    :(8) Display selected health\nhistory information;
stop
@enduml

PlantUML version 1.2022.7(Tue Aug 23 00:01:30 ICT 2022)
(GPL source distribution)
Java Runtime: Java(TM) SE Runtime Environment
JVM: Java HotSpot(TM) 64-Bit Server VM
Default Encoding: Cp1252
Language: en
Country: US
--></g></svg>