<?xml version="1.0" encoding="UTF-8" standalone="no"?><svg xmlns="http://www.w3.org/2000/svg" xmlns:xlink="http://www.w3.org/1999/xlink" contentStyleType="text/css" height="839px" preserveAspectRatio="none" style="width:715px;height:839px;background:#FFFFFF;" version="1.1" viewBox="0 0 715 839" width="715px" zoomAndPan="magnify"><defs/><g><rect fill="#F1F1F1" height="50.1875" rx="12.5" ry="12.5" style="stroke:#181818;stroke-width:0.5;" width="105" x="21" y="194.2832"/><text fill="#000000" font-family="sans-serif" font-size="12" lengthAdjust="spacing" textLength="85" x="31" y="216.7402">(2) Enter parent</text><text fill="#000000" font-family="sans-serif" font-size="12" lengthAdjust="spacing" textLength="62" x="31" y="231.834">information</text><polygon fill="#F1F1F1" points="73.5,150.2832,85.5,162.2832,73.5,174.2832,61.5,162.2832,73.5,150.2832" style="stroke:#181818;stroke-width:0.5;"/><rect fill="#F1F1F1" height="65.2813" rx="12.5" ry="12.5" style="stroke:#181818;stroke-width:0.5;" width="92" x="27.5" y="391.4834"/><text fill="#000000" font-family="sans-serif" font-size="12" lengthAdjust="spacing" textLength="55" x="37.5" y="413.9404">(3.2) Click</text><text fill="#000000" font-family="sans-serif" font-size="12" lengthAdjust="spacing" textLength="72" x="37.5" y="429.0342">button "Save"</text><text fill="#000000" font-family="sans-serif" font-size="12" lengthAdjust="spacing" textLength="54" x="37.5" y="444.1279">to confirm</text><line style="stroke:#000000;stroke-width:1.5;" x1="15" x2="15" y1="12.4551" y2="827.2334"/><ellipse cx="274.75" cy="50.0957" fill="#222222" rx="10" ry="10" style="stroke:#222222;stroke-width:1.0;"/><rect fill="#F1F1F1" height="50.1875" rx="12.5" ry="12.5" style="stroke:#181818;stroke-width:0.5;" width="117" x="216.25" y="80.0957"/><text fill="#000000" font-family="sans-serif" font-size="12" lengthAdjust="spacing" textLength="97" x="226.25" y="102.5527">(1) Display parent</text><text fill="#000000" font-family="sans-serif" font-size="12" lengthAdjust="spacing" textLength="89" x="226.25" y="117.6465">information view</text><rect fill="#F1F1F1" height="35.0938" rx="12.5" ry="12.5" style="stroke:#181818;stroke-width:0.5;" width="147" x="201.25" y="279.4707"/><text fill="#000000" font-family="sans-serif" font-size="12" lengthAdjust="spacing" textLength="127" x="211.25" y="301.9277">(3) Validate data format</text><polygon fill="#F1F1F1" points="274.75,334.5645,274.75,334.5645,286.75,346.5645,274.75,358.5645,274.75,358.5645,262.75,346.5645,274.75,334.5645" style="stroke:#181818;stroke-width:0.5;"/><text fill="#000000" font-family="sans-serif" font-size="11" lengthAdjust="spacing" textLength="48" x="278.75" y="369.9834">Valid data</text><text fill="#000000" font-family="sans-serif" font-size="11" lengthAdjust="spacing" textLength="54" x="286.75" y="344.1475">Invalid data</text><rect fill="#F1F1F1" height="50.1875" rx="12.5" ry="12.5" style="stroke:#181818;stroke-width:0.5;" width="108" x="372.25" y="229.3301"/><text fill="#000000" font-family="sans-serif" font-size="12" lengthAdjust="spacing" textLength="69" x="382.25" y="251.7871">(3.1) Display</text><text fill="#000000" font-family="sans-serif" font-size="12" lengthAdjust="spacing" textLength="88" x="382.25" y="266.8809">error notification</text><rect fill="#F1F1F1" height="35.0938" rx="12.5" ry="12.5" style="stroke:#181818;stroke-width:0.5;" width="176" x="186.75" y="476.7646"/><text fill="#000000" font-family="sans-serif" font-size="12" lengthAdjust="spacing" textLength="156" x="196.75" y="499.2217">(4) Process creating request</text><rect fill="#F1F1F1" height="50.1875" rx="12.5" ry="12.5" style="stroke:#181818;stroke-width:0.5;" width="108" x="136" y="630.9521"/><text fill="#000000" font-family="sans-serif" font-size="12" lengthAdjust="spacing" textLength="69" x="146" y="653.4092">(5.1) Display</text><text fill="#000000" font-family="sans-serif" font-size="12" lengthAdjust="spacing" textLength="88" x="146" y="668.5029">error notification</text><rect fill="#F1F1F1" height="50.1875" rx="12.5" ry="12.5" style="stroke:#181818;stroke-width:0.5;" width="191" x="264" y="701.0459"/><text fill="#000000" font-family="sans-serif" font-size="12" lengthAdjust="spacing" textLength="171" x="274" y="723.5029">(6) Display success notification</text><text fill="#000000" font-family="sans-serif" font-size="12" lengthAdjust="spacing" textLength="98" x="274" y="738.5967">and list of parents</text><line style="stroke:#000000;stroke-width:1.5;" x1="130" x2="130" y1="12.4551" y2="827.2334"/><rect fill="#F1F1F1" height="35.0938" rx="12.5" ry="12.5" style="stroke:#181818;stroke-width:0.5;" width="109" x="500.75" y="531.8584"/><text fill="#000000" font-family="sans-serif" font-size="12" lengthAdjust="spacing" textLength="89" x="510.75" y="554.3154">(5) Validate data</text><polygon fill="#F1F1F1" points="555.25,586.9521,555.25,586.9521,567.25,598.9521,555.25,610.9521,555.25,610.9521,543.25,598.9521,555.25,586.9521" style="stroke:#181818;stroke-width:0.5;"/><text fill="#000000" font-family="sans-serif" font-size="11" lengthAdjust="spacing" textLength="54" x="489.25" y="596.5352">Invalid data</text><text fill="#000000" font-family="sans-serif" font-size="11" lengthAdjust="spacing" textLength="48" x="567.25" y="596.5352">Valid data</text><rect fill="#F1F1F1" height="35.0938" rx="12.5" ry="12.5" style="stroke:#181818;stroke-width:0.5;" width="104" x="588" y="630.9521"/><text fill="#000000" font-family="sans-serif" font-size="12" lengthAdjust="spacing" textLength="84" x="598" y="653.4092">(5.2) Store data</text><polygon fill="#F1F1F1" points="555.25,761.2334,567.25,773.2334,555.25,785.2334,543.25,773.2334,555.25,761.2334" style="stroke:#181818;stroke-width:0.5;"/><ellipse cx="555.25" cy="816.2334" fill="none" rx="11" ry="11" style="stroke:#222222;stroke-width:1.0;"/><ellipse cx="555.25" cy="816.2334" fill="#222222" rx="6" ry="6" style="stroke:#111111;stroke-width:1.0;"/><line style="stroke:#000000;stroke-width:1.5;" x1="484.25" x2="484.25" y1="12.4551" y2="827.2334"/><line style="stroke:#000000;stroke-width:1.5;" x1="696" x2="696" y1="12.4551" y2="827.2334"/><line style="stroke:#181818;stroke-width:1.0;" x1="73.5" x2="73.5" y1="174.2832" y2="194.2832"/><polygon fill="#181818" points="69.5,184.2832,73.5,194.2832,77.5,184.2832,73.5,188.2832" style="stroke:#181818;stroke-width:1.0;"/><line style="stroke:#181818;stroke-width:1.0;" x1="274.75" x2="274.75" y1="60.0957" y2="80.0957"/><polygon fill="#181818" points="270.75,70.0957,274.75,80.0957,278.75,70.0957,274.75,74.0957" style="stroke:#181818;stroke-width:1.0;"/><line style="stroke:#181818;stroke-width:1.0;" x1="286.75" x2="426.25" y1="346.5645" y2="346.5645"/><line style="stroke:#181818;stroke-width:1.0;" x1="426.25" x2="426.25" y1="279.5176" y2="346.5645"/><polygon fill="#181818" points="422.25,289.5176,426.25,279.5176,430.25,289.5176,426.25,285.5176" style="stroke:#181818;stroke-width:1.0;"/><line style="stroke:#181818;stroke-width:1.0;" x1="274.75" x2="274.75" y1="314.5645" y2="334.5645"/><polygon fill="#181818" points="270.75,324.5645,274.75,334.5645,278.75,324.5645,274.75,328.5645" style="stroke:#181818;stroke-width:1.0;"/><line style="stroke:#181818;stroke-width:1.0;" x1="567.25" x2="640" y1="598.9521" y2="598.9521"/><line style="stroke:#181818;stroke-width:1.0;" x1="640" x2="640" y1="598.9521" y2="630.9521"/><polygon fill="#181818" points="636,620.9521,640,630.9521,644,620.9521,640,624.9521" style="stroke:#181818;stroke-width:1.0;"/><line style="stroke:#181818;stroke-width:1.0;" x1="555.25" x2="555.25" y1="566.9521" y2="586.9521"/><polygon fill="#181818" points="551.25,576.9521,555.25,586.9521,559.25,576.9521,555.25,580.9521" style="stroke:#181818;stroke-width:1.0;"/><line style="stroke:#181818;stroke-width:1.0;" x1="555.25" x2="555.25" y1="785.2334" y2="805.2334"/><polygon fill="#181818" points="551.25,795.2334,555.25,805.2334,559.25,795.2334,555.25,799.2334" style="stroke:#181818;stroke-width:1.0;"/><line style="stroke:#181818;stroke-width:1.0;" x1="73.5" x2="73.5" y1="244.4707" y2="261.9707"/><line style="stroke:#181818;stroke-width:1.0;" x1="73.5" x2="274.75" y1="261.9707" y2="261.9707"/><line style="stroke:#181818;stroke-width:1.0;" x1="274.75" x2="274.75" y1="261.9707" y2="279.4707"/><polygon fill="#181818" points="270.75,269.4707,274.75,279.4707,278.75,269.4707,274.75,273.4707" style="stroke:#181818;stroke-width:1.0;"/><line style="stroke:#181818;stroke-width:1.0;" x1="426.25" x2="426.25" y1="162.2832" y2="229.3301"/><line style="stroke:#181818;stroke-width:1.0;" x1="426.25" x2="85.5" y1="162.2832" y2="162.2832"/><polygon fill="#181818" points="95.5,158.2832,85.5,162.2832,95.5,166.2832,91.5,162.2832" style="stroke:#181818;stroke-width:1.0;"/><line style="stroke:#181818;stroke-width:1.0;" x1="274.75" x2="274.75" y1="130.2832" y2="135.2832"/><line style="stroke:#181818;stroke-width:1.0;" x1="274.75" x2="73.5" y1="135.2832" y2="135.2832"/><line style="stroke:#181818;stroke-width:1.0;" x1="73.5" x2="73.5" y1="135.2832" y2="150.2832"/><polygon fill="#181818" points="69.5,140.2832,73.5,150.2832,77.5,140.2832,73.5,144.2832" style="stroke:#181818;stroke-width:1.0;"/><line style="stroke:#181818;stroke-width:1.0;" x1="274.75" x2="274.75" y1="358.5645" y2="376.0645"/><line style="stroke:#181818;stroke-width:1.0;" x1="274.75" x2="73.5" y1="376.0645" y2="376.0645"/><line style="stroke:#181818;stroke-width:1.0;" x1="73.5" x2="73.5" y1="376.0645" y2="391.4834"/><polygon fill="#181818" points="69.5,381.4834,73.5,391.4834,77.5,381.4834,73.5,385.4834" style="stroke:#181818;stroke-width:1.0;"/><line style="stroke:#181818;stroke-width:1.0;" x1="73.5" x2="73.5" y1="456.7646" y2="461.7646"/><line style="stroke:#181818;stroke-width:1.0;" x1="73.5" x2="274.75" y1="461.7646" y2="461.7646"/><line style="stroke:#181818;stroke-width:1.0;" x1="274.75" x2="274.75" y1="461.7646" y2="476.7646"/><polygon fill="#181818" points="270.75,466.7646,274.75,476.7646,278.75,466.7646,274.75,470.7646" style="stroke:#181818;stroke-width:1.0;"/><line style="stroke:#181818;stroke-width:1.0;" x1="274.75" x2="274.75" y1="511.8584" y2="516.8584"/><line style="stroke:#181818;stroke-width:1.0;" x1="274.75" x2="555.25" y1="516.8584" y2="516.8584"/><line style="stroke:#181818;stroke-width:1.0;" x1="555.25" x2="555.25" y1="516.8584" y2="531.8584"/><polygon fill="#181818" points="551.25,521.8584,555.25,531.8584,559.25,521.8584,555.25,525.8584" style="stroke:#181818;stroke-width:1.0;"/><line style="stroke:#181818;stroke-width:1.0;" x1="640" x2="640" y1="666.0459" y2="683.5459"/><line style="stroke:#181818;stroke-width:1.0;" x1="640" x2="359.5" y1="683.5459" y2="683.5459"/><line style="stroke:#181818;stroke-width:1.0;" x1="359.5" x2="359.5" y1="683.5459" y2="701.0459"/><polygon fill="#181818" points="355.5,691.0459,359.5,701.0459,363.5,691.0459,359.5,695.0459" style="stroke:#181818;stroke-width:1.0;"/><line style="stroke:#181818;stroke-width:1.0;" x1="543.25" x2="190" y1="598.9521" y2="598.9521"/><line style="stroke:#181818;stroke-width:1.0;" x1="190" x2="190" y1="598.9521" y2="630.9521"/><polygon fill="#181818" points="186,620.9521,190,630.9521,194,620.9521,190,624.9521" style="stroke:#181818;stroke-width:1.0;"/><line style="stroke:#181818;stroke-width:1.0;" x1="190" x2="190" y1="681.1396" y2="773.2334"/><line style="stroke:#181818;stroke-width:1.0;" x1="190" x2="543.25" y1="773.2334" y2="773.2334"/><polygon fill="#181818" points="533.25,769.2334,543.25,773.2334,533.25,777.2334,537.25,773.2334" style="stroke:#181818;stroke-width:1.0;"/><line style="stroke:#181818;stroke-width:1.0;" x1="359.5" x2="359.5" y1="751.2334" y2="755.2334"/><line style="stroke:#181818;stroke-width:1.0;" x1="359.5" x2="585.25" y1="755.2334" y2="755.2334"/><line style="stroke:#181818;stroke-width:1.0;" x1="585.25" x2="585.25" y1="755.2334" y2="773.2334"/><line style="stroke:#181818;stroke-width:1.0;" x1="585.25" x2="567.25" y1="773.2334" y2="773.2334"/><polygon fill="#181818" points="577.25,769.2334,567.25,773.2334,577.25,777.2334,573.25,773.2334" style="stroke:#181818;stroke-width:1.0;"/><text fill="#000000" font-family="sans-serif" font-size="18" lengthAdjust="spacing" textLength="49" x="48" y="31.1406">Admin</text><text fill="#000000" font-family="sans-serif" font-size="18" lengthAdjust="spacing" textLength="59" x="277.625" y="31.1406">System</text><text fill="#000000" font-family="sans-serif" font-size="18" lengthAdjust="spacing" textLength="77" x="551.625" y="31.1406">Database</text><!--MD5=[49af08679434225a946f40b98f6ff959]
@startuml CreateParentActi
|Admin|
|System|

start
:(1) Display parent\ninformation view;
repeat
    |Admin|
    :(2) Enter parent\ninformation;
    |System|
    :(3) Validate data format;
    backward :(3.1) Display\nerror notification;
repeat while () is (Invalid data) not (Valid data)
    |Admin|
    :(3.2) Click\nbutton "Save"\nto confirm;
    |System|
    :(4) Process creating request;
    |Database|
    :(5) Validate data;
    if () then (Invalid data)
        |System|
        :(5.1) Display\nerror notification;
    else (Valid data)
        |Database|  
        :(5.2) Store data;
        |System|
        :(6) Display success notification\nand list of parents;
        endif
    |Database|
stop
@enduml

PlantUML version 1.2022.7(Tue Aug 23 00:01:30 ICT 2022)
(GPL source distribution)
Java Runtime: Java(TM) SE Runtime Environment
JVM: Java HotSpot(TM) 64-Bit Server VM
Default Encoding: Cp1252
Language: en
Country: US
--></g></svg>