<?xml version="1.0" encoding="UTF-8" standalone="no"?><svg xmlns="http://www.w3.org/2000/svg" xmlns:xlink="http://www.w3.org/1999/xlink" contentStyleType="text/css" height="728px" preserveAspectRatio="none" style="width:877px;height:728px;background:#FFFFFF;" version="1.1" viewBox="0 0 877 728" width="877px" zoomAndPan="magnify"><defs/><g><ellipse cx="175.625" cy="50.0957" fill="#222222" rx="10" ry="10" style="stroke:#222222;stroke-width:1.0;"/><rect fill="#F1F1F1" height="50.1875" rx="12.5" ry="12.5" style="stroke:#181818;stroke-width:0.5;" width="110" x="120.625" y="80.0957"/><text fill="#000000" font-family="sans-serif" font-size="12" lengthAdjust="spacing" textLength="90" x="130.625" y="102.5527">(1) Select parent</text><text fill="#000000" font-family="sans-serif" font-size="12" lengthAdjust="spacing" textLength="82" x="130.625" y="117.6465">needs deleting</text><rect fill="#F1F1F1" height="50.1875" rx="12.5" ry="12.5" style="stroke:#181818;stroke-width:0.5;" width="104" x="21" y="264.4707"/><text fill="#000000" font-family="sans-serif" font-size="12" lengthAdjust="spacing" textLength="55" x="31" y="286.9277">(2.1) Click</text><text fill="#000000" font-family="sans-serif" font-size="12" lengthAdjust="spacing" textLength="84" x="31" y="302.0215">"Cancel" button</text><ellipse cx="73" cy="344.6582" fill="none" rx="10" ry="10" style="stroke:#222222;stroke-width:1.5;"/><line style="stroke:#222222;stroke-width:2.5;" x1="66.8128" x2="79.1872" y1="338.471" y2="350.8454"/><line style="stroke:#222222;stroke-width:2.5;" x1="79.1872" x2="66.8128" y1="338.471" y2="350.8454"/><rect fill="#F1F1F1" height="50.1875" rx="12.5" ry="12.5" style="stroke:#181818;stroke-width:0.5;" width="109" x="223.75" y="264.4707"/><text fill="#000000" font-family="sans-serif" font-size="12" lengthAdjust="spacing" textLength="55" x="233.75" y="286.9277">(2.2) Click</text><text fill="#000000" font-family="sans-serif" font-size="12" lengthAdjust="spacing" textLength="89" x="233.75" y="302.0215">"Confirm" button</text><line style="stroke:#000000;stroke-width:1.5;" x1="15" x2="15" y1="12.4551" y2="716.2207"/><rect fill="#F1F1F1" height="50.1875" rx="12.5" ry="12.5" style="stroke:#181818;stroke-width:0.5;" width="150" x="342.75" y="150.2832"/><text fill="#000000" font-family="sans-serif" font-size="12" lengthAdjust="spacing" textLength="130" x="352.75" y="172.7402">(2) Display confirmation</text><text fill="#000000" font-family="sans-serif" font-size="12" lengthAdjust="spacing" textLength="72" x="352.75" y="187.834">messagebox</text><polygon fill="#F1F1F1" points="417.75,220.4707,417.75,220.4707,429.75,232.4707,417.75,244.4707,417.75,244.4707,405.75,232.4707,417.75,220.4707" style="stroke:#181818;stroke-width:0.5;"/><text fill="#000000" font-family="sans-serif" font-size="11" lengthAdjust="spacing" textLength="33" x="372.75" y="230.0537">Cancel</text><text fill="#000000" font-family="sans-serif" font-size="11" lengthAdjust="spacing" textLength="37" x="429.75" y="230.0537">Confirm</text><rect fill="#F1F1F1" height="35.0938" rx="12.5" ry="12.5" style="stroke:#181818;stroke-width:0.5;" width="176" x="432.375" y="334.6582"/><text fill="#000000" font-family="sans-serif" font-size="12" lengthAdjust="spacing" textLength="156" x="442.375" y="357.1152">(3) Process deleting request</text><rect fill="#F1F1F1" height="50.1875" rx="12.5" ry="12.5" style="stroke:#181818;stroke-width:0.5;" width="108" x="397.125" y="488.8457"/><text fill="#000000" font-family="sans-serif" font-size="12" lengthAdjust="spacing" textLength="69" x="407.125" y="511.3027">(4.1) Display</text><text fill="#000000" font-family="sans-serif" font-size="12" lengthAdjust="spacing" textLength="88" x="407.125" y="526.3965">error notification</text><rect fill="#F1F1F1" height="65.2813" rx="12.5" ry="12.5" style="stroke:#181818;stroke-width:0.5;" width="129" x="525.125" y="558.9395"/><text fill="#000000" font-family="sans-serif" font-size="12" lengthAdjust="spacing" textLength="109" x="535.125" y="581.3965">(5) Display success</text><text fill="#000000" font-family="sans-serif" font-size="12" lengthAdjust="spacing" textLength="59" x="535.125" y="596.4902">notification</text><text fill="#000000" font-family="sans-serif" font-size="12" lengthAdjust="spacing" textLength="98" x="535.125" y="611.584">and list of parents</text><line style="stroke:#000000;stroke-width:1.5;" x1="336.75" x2="336.75" y1="12.4551" y2="716.2207"/><rect fill="#F1F1F1" height="35.0938" rx="12.5" ry="12.5" style="stroke:#181818;stroke-width:0.5;" width="109" x="674.625" y="389.752"/><text fill="#000000" font-family="sans-serif" font-size="12" lengthAdjust="spacing" textLength="89" x="684.625" y="412.209">(4) Validate data</text><polygon fill="#F1F1F1" points="729.125,444.8457,729.125,444.8457,741.125,456.8457,729.125,468.8457,729.125,468.8457,717.125,456.8457,729.125,444.8457" style="stroke:#181818;stroke-width:0.5;"/><text fill="#000000" font-family="sans-serif" font-size="11" lengthAdjust="spacing" textLength="54" x="663.125" y="454.4287">Invalid data</text><text fill="#000000" font-family="sans-serif" font-size="11" lengthAdjust="spacing" textLength="48" x="741.125" y="454.4287">Valid data</text><rect fill="#F1F1F1" height="35.0938" rx="12.5" ry="12.5" style="stroke:#181818;stroke-width:0.5;" width="111" x="742.875" y="488.8457"/><text fill="#000000" font-family="sans-serif" font-size="12" lengthAdjust="spacing" textLength="91" x="752.875" y="511.3027">(4.2) Delete data</text><polygon fill="#F1F1F1" points="729.125,634.2207,741.125,646.2207,729.125,658.2207,717.125,646.2207,729.125,634.2207" style="stroke:#181818;stroke-width:0.5;"/><ellipse cx="729.125" cy="689.2207" fill="none" rx="11" ry="11" style="stroke:#222222;stroke-width:1.0;"/><ellipse cx="729.125" cy="689.2207" fill="#222222" rx="6" ry="6" style="stroke:#111111;stroke-width:1.0;"/><line style="stroke:#000000;stroke-width:1.5;" x1="658.125" x2="658.125" y1="12.4551" y2="716.2207"/><line style="stroke:#000000;stroke-width:1.5;" x1="857.875" x2="857.875" y1="12.4551" y2="716.2207"/><line style="stroke:#181818;stroke-width:1.0;" x1="175.625" x2="175.625" y1="60.0957" y2="80.0957"/><polygon fill="#181818" points="171.625,70.0957,175.625,80.0957,179.625,70.0957,175.625,74.0957" style="stroke:#181818;stroke-width:1.0;"/><line style="stroke:#181818;stroke-width:1.0;" x1="73" x2="73" y1="314.6582" y2="334.6582"/><polygon fill="#181818" points="69,324.6582,73,334.6582,77,324.6582,73,328.6582" style="stroke:#181818;stroke-width:1.0;"/><line style="stroke:#181818;stroke-width:1.0;" x1="417.75" x2="417.75" y1="200.4707" y2="220.4707"/><polygon fill="#181818" points="413.75,210.4707,417.75,220.4707,421.75,210.4707,417.75,214.4707" style="stroke:#181818;stroke-width:1.0;"/><line style="stroke:#181818;stroke-width:1.0;" x1="741.125" x2="798.375" y1="456.8457" y2="456.8457"/><line style="stroke:#181818;stroke-width:1.0;" x1="798.375" x2="798.375" y1="456.8457" y2="488.8457"/><polygon fill="#181818" points="794.375,478.8457,798.375,488.8457,802.375,478.8457,798.375,482.8457" style="stroke:#181818;stroke-width:1.0;"/><line style="stroke:#181818;stroke-width:1.0;" x1="729.125" x2="729.125" y1="424.8457" y2="444.8457"/><polygon fill="#181818" points="725.125,434.8457,729.125,444.8457,733.125,434.8457,729.125,438.8457" style="stroke:#181818;stroke-width:1.0;"/><line style="stroke:#181818;stroke-width:1.0;" x1="729.125" x2="729.125" y1="658.2207" y2="678.2207"/><polygon fill="#181818" points="725.125,668.2207,729.125,678.2207,733.125,668.2207,729.125,672.2207" style="stroke:#181818;stroke-width:1.0;"/><line style="stroke:#181818;stroke-width:1.0;" x1="175.625" x2="175.625" y1="130.2832" y2="135.2832"/><line style="stroke:#181818;stroke-width:1.0;" x1="175.625" x2="417.75" y1="135.2832" y2="135.2832"/><line style="stroke:#181818;stroke-width:1.0;" x1="417.75" x2="417.75" y1="135.2832" y2="150.2832"/><polygon fill="#181818" points="413.75,140.2832,417.75,150.2832,421.75,140.2832,417.75,144.2832" style="stroke:#181818;stroke-width:1.0;"/><line style="stroke:#181818;stroke-width:1.0;" x1="278.25" x2="278.25" y1="314.6582" y2="319.6582"/><line style="stroke:#181818;stroke-width:1.0;" x1="278.25" x2="520.375" y1="319.6582" y2="319.6582"/><line style="stroke:#181818;stroke-width:1.0;" x1="520.375" x2="520.375" y1="319.6582" y2="334.6582"/><polygon fill="#181818" points="516.375,324.6582,520.375,334.6582,524.375,324.6582,520.375,328.6582" style="stroke:#181818;stroke-width:1.0;"/><line style="stroke:#181818;stroke-width:1.0;" x1="520.375" x2="520.375" y1="369.752" y2="374.752"/><line style="stroke:#181818;stroke-width:1.0;" x1="520.375" x2="729.125" y1="374.752" y2="374.752"/><line style="stroke:#181818;stroke-width:1.0;" x1="729.125" x2="729.125" y1="374.752" y2="389.752"/><polygon fill="#181818" points="725.125,379.752,729.125,389.752,733.125,379.752,729.125,383.752" style="stroke:#181818;stroke-width:1.0;"/><line style="stroke:#181818;stroke-width:1.0;" x1="798.375" x2="798.375" y1="523.9395" y2="541.4395"/><line style="stroke:#181818;stroke-width:1.0;" x1="798.375" x2="589.625" y1="541.4395" y2="541.4395"/><line style="stroke:#181818;stroke-width:1.0;" x1="589.625" x2="589.625" y1="541.4395" y2="558.9395"/><polygon fill="#181818" points="585.625,548.9395,589.625,558.9395,593.625,548.9395,589.625,552.9395" style="stroke:#181818;stroke-width:1.0;"/><line style="stroke:#181818;stroke-width:1.0;" x1="717.125" x2="451.125" y1="456.8457" y2="456.8457"/><line style="stroke:#181818;stroke-width:1.0;" x1="451.125" x2="451.125" y1="456.8457" y2="488.8457"/><polygon fill="#181818" points="447.125,478.8457,451.125,488.8457,455.125,478.8457,451.125,482.8457" style="stroke:#181818;stroke-width:1.0;"/><line style="stroke:#181818;stroke-width:1.0;" x1="451.125" x2="451.125" y1="539.0332" y2="646.2207"/><line style="stroke:#181818;stroke-width:1.0;" x1="451.125" x2="717.125" y1="646.2207" y2="646.2207"/><polygon fill="#181818" points="707.125,642.2207,717.125,646.2207,707.125,650.2207,711.125,646.2207" style="stroke:#181818;stroke-width:1.0;"/><line style="stroke:#181818;stroke-width:1.0;" x1="589.625" x2="589.625" y1="624.2207" y2="628.2207"/><line style="stroke:#181818;stroke-width:1.0;" x1="589.625" x2="759.125" y1="628.2207" y2="628.2207"/><line style="stroke:#181818;stroke-width:1.0;" x1="759.125" x2="759.125" y1="628.2207" y2="646.2207"/><line style="stroke:#181818;stroke-width:1.0;" x1="759.125" x2="741.125" y1="646.2207" y2="646.2207"/><polygon fill="#181818" points="751.125,642.2207,741.125,646.2207,751.125,650.2207,747.125,646.2207" style="stroke:#181818;stroke-width:1.0;"/><line style="stroke:#181818;stroke-width:1.0;" x1="405.75" x2="73" y1="232.4707" y2="232.4707"/><line style="stroke:#181818;stroke-width:1.0;" x1="73" x2="73" y1="232.4707" y2="264.4707"/><polygon fill="#181818" points="69,254.4707,73,264.4707,77,254.4707,73,258.4707" style="stroke:#181818;stroke-width:1.0;"/><line style="stroke:#181818;stroke-width:1.0;" x1="429.75" x2="441.75" y1="232.4707" y2="232.4707"/><line style="stroke:#181818;stroke-width:1.0;" x1="441.75" x2="441.75" y1="232.4707" y2="250.4707"/><line style="stroke:#181818;stroke-width:1.0;" x1="441.75" x2="278.25" y1="250.4707" y2="250.4707"/><line style="stroke:#181818;stroke-width:1.0;" x1="278.25" x2="278.25" y1="250.4707" y2="264.4707"/><polygon fill="#181818" points="274.25,254.4707,278.25,264.4707,282.25,254.4707,278.25,258.4707" style="stroke:#181818;stroke-width:1.0;"/><text fill="#000000" font-family="sans-serif" font-size="18" lengthAdjust="spacing" textLength="49" x="151.375" y="31.1406">Admin</text><text fill="#000000" font-family="sans-serif" font-size="18" lengthAdjust="spacing" textLength="59" x="467.9375" y="31.1406">System</text><text fill="#000000" font-family="sans-serif" font-size="18" lengthAdjust="spacing" textLength="77" x="719.5" y="31.1406">Database</text><!--MD5=[860d93889933cdc5b0c6f117cb870ce9]
@startuml DeleteParentActi
|Admin|
start
:(1) Select parent\nneeds deleting;
|System|
:(2) Display confirmation\nmessagebox;      
if () then (Cancel)
    |Admin|
    :(2.1) Click\n"Cancel" button;
    end
else (Confirm)
    |Admin|
    :(2.2) Click\n"Confirm" button;
    |System|
    :(3) Process deleting request;
    |Database|
    :(4) Validate data;
    if () then (Invalid data)
        |System|
        :(4.1) Display\nerror notification;
    else (Valid data)
        |Database|  
        :(4.2) Delete data;
        |System|
        :(5) Display success\nnotification\nand list of parents;
        endif
    |Database|
stop
@enduml

PlantUML version 1.2022.7(Tue Aug 23 00:01:30 ICT 2022)
(GPL source distribution)
Java Runtime: Java(TM) SE Runtime Environment
JVM: Java HotSpot(TM) 64-Bit Server VM
Default Encoding: Cp1252
Language: en
Country: US
--></g></svg>