<?xml version="1.0" encoding="UTF-8" standalone="no"?><svg xmlns="http://www.w3.org/2000/svg" xmlns:xlink="http://www.w3.org/1999/xlink" contentStyleType="text/css" height="839px" preserveAspectRatio="none" style="width:709px;height:839px;background:#FFFFFF;" version="1.1" viewBox="0 0 709 839" width="709px" zoomAndPan="magnify"><defs/><g><rect fill="#F1F1F1" height="50.1875" rx="12.5" ry="12.5" style="stroke:#181818;stroke-width:0.5;" width="99" x="21" y="194.2832"/><text fill="#000000" font-family="sans-serif" font-size="12" lengthAdjust="spacing" textLength="79" x="31" y="216.7402">(2) Enter event</text><text fill="#000000" font-family="sans-serif" font-size="12" lengthAdjust="spacing" textLength="62" x="31" y="231.834">information</text><polygon fill="#F1F1F1" points="70.5,150.2832,82.5,162.2832,70.5,174.2832,58.5,162.2832,70.5,150.2832" style="stroke:#181818;stroke-width:0.5;"/><rect fill="#F1F1F1" height="65.2813" rx="12.5" ry="12.5" style="stroke:#181818;stroke-width:0.5;" width="92" x="24.5" y="391.4834"/><text fill="#000000" font-family="sans-serif" font-size="12" lengthAdjust="spacing" textLength="55" x="34.5" y="413.9404">(3.2) Click</text><text fill="#000000" font-family="sans-serif" font-size="12" lengthAdjust="spacing" textLength="72" x="34.5" y="429.0342">button "Save"</text><text fill="#000000" font-family="sans-serif" font-size="12" lengthAdjust="spacing" textLength="54" x="34.5" y="444.1279">to confirm</text><line style="stroke:#000000;stroke-width:1.5;" x1="15" x2="15" y1="12.4551" y2="827.2334"/><ellipse cx="268.75" cy="50.0957" fill="#222222" rx="10" ry="10" style="stroke:#222222;stroke-width:1.0;"/><rect fill="#F1F1F1" height="50.1875" rx="12.5" ry="12.5" style="stroke:#181818;stroke-width:0.5;" width="111" x="213.25" y="80.0957"/><text fill="#000000" font-family="sans-serif" font-size="12" lengthAdjust="spacing" textLength="91" x="223.25" y="102.5527">(1) Display event</text><text fill="#000000" font-family="sans-serif" font-size="12" lengthAdjust="spacing" textLength="89" x="223.25" y="117.6465">information view</text><rect fill="#F1F1F1" height="35.0938" rx="12.5" ry="12.5" style="stroke:#181818;stroke-width:0.5;" width="147" x="195.25" y="279.4707"/><text fill="#000000" font-family="sans-serif" font-size="12" lengthAdjust="spacing" textLength="127" x="205.25" y="301.9277">(3) Validate data format</text><polygon fill="#F1F1F1" points="268.75,334.5645,268.75,334.5645,280.75,346.5645,268.75,358.5645,268.75,358.5645,256.75,346.5645,268.75,334.5645" style="stroke:#181818;stroke-width:0.5;"/><text fill="#000000" font-family="sans-serif" font-size="11" lengthAdjust="spacing" textLength="48" x="272.75" y="369.9834">Valid data</text><text fill="#000000" font-family="sans-serif" font-size="11" lengthAdjust="spacing" textLength="54" x="280.75" y="344.1475">Invalid data</text><rect fill="#F1F1F1" height="50.1875" rx="12.5" ry="12.5" style="stroke:#181818;stroke-width:0.5;" width="108" x="366.25" y="229.3301"/><text fill="#000000" font-family="sans-serif" font-size="12" lengthAdjust="spacing" textLength="69" x="376.25" y="251.7871">(3.1) Display</text><text fill="#000000" font-family="sans-serif" font-size="12" lengthAdjust="spacing" textLength="88" x="376.25" y="266.8809">error notification</text><rect fill="#F1F1F1" height="35.0938" rx="12.5" ry="12.5" style="stroke:#181818;stroke-width:0.5;" width="176" x="180.75" y="476.7646"/><text fill="#000000" font-family="sans-serif" font-size="12" lengthAdjust="spacing" textLength="156" x="190.75" y="499.2217">(4) Process creating request</text><rect fill="#F1F1F1" height="50.1875" rx="12.5" ry="12.5" style="stroke:#181818;stroke-width:0.5;" width="108" x="130" y="630.9521"/><text fill="#000000" font-family="sans-serif" font-size="12" lengthAdjust="spacing" textLength="69" x="140" y="653.4092">(5.1) Display</text><text fill="#000000" font-family="sans-serif" font-size="12" lengthAdjust="spacing" textLength="88" x="140" y="668.5029">error notification</text><rect fill="#F1F1F1" height="50.1875" rx="12.5" ry="12.5" style="stroke:#181818;stroke-width:0.5;" width="191" x="258" y="701.0459"/><text fill="#000000" font-family="sans-serif" font-size="12" lengthAdjust="spacing" textLength="171" x="268" y="723.5029">(6) Display success notification</text><text fill="#000000" font-family="sans-serif" font-size="12" lengthAdjust="spacing" textLength="92" x="268" y="738.5967">and list of events</text><line style="stroke:#000000;stroke-width:1.5;" x1="124" x2="124" y1="12.4551" y2="827.2334"/><rect fill="#F1F1F1" height="35.0938" rx="12.5" ry="12.5" style="stroke:#181818;stroke-width:0.5;" width="109" x="494.75" y="531.8584"/><text fill="#000000" font-family="sans-serif" font-size="12" lengthAdjust="spacing" textLength="89" x="504.75" y="554.3154">(5) Validate data</text><polygon fill="#F1F1F1" points="549.25,586.9521,549.25,586.9521,561.25,598.9521,549.25,610.9521,549.25,610.9521,537.25,598.9521,549.25,586.9521" style="stroke:#181818;stroke-width:0.5;"/><text fill="#000000" font-family="sans-serif" font-size="11" lengthAdjust="spacing" textLength="54" x="483.25" y="596.5352">Invalid data</text><text fill="#000000" font-family="sans-serif" font-size="11" lengthAdjust="spacing" textLength="48" x="561.25" y="596.5352">Valid data</text><rect fill="#F1F1F1" height="35.0938" rx="12.5" ry="12.5" style="stroke:#181818;stroke-width:0.5;" width="104" x="582" y="630.9521"/><text fill="#000000" font-family="sans-serif" font-size="12" lengthAdjust="spacing" textLength="84" x="592" y="653.4092">(5.2) Store data</text><polygon fill="#F1F1F1" points="549.25,761.2334,561.25,773.2334,549.25,785.2334,537.25,773.2334,549.25,761.2334" style="stroke:#181818;stroke-width:0.5;"/><ellipse cx="549.25" cy="816.2334" fill="none" rx="11" ry="11" style="stroke:#222222;stroke-width:1.0;"/><ellipse cx="549.25" cy="816.2334" fill="#222222" rx="6" ry="6" style="stroke:#111111;stroke-width:1.0;"/><line style="stroke:#000000;stroke-width:1.5;" x1="478.25" x2="478.25" y1="12.4551" y2="827.2334"/><line style="stroke:#000000;stroke-width:1.5;" x1="690" x2="690" y1="12.4551" y2="827.2334"/><line style="stroke:#181818;stroke-width:1.0;" x1="70.5" x2="70.5" y1="174.2832" y2="194.2832"/><polygon fill="#181818" points="66.5,184.2832,70.5,194.2832,74.5,184.2832,70.5,188.2832" style="stroke:#181818;stroke-width:1.0;"/><line style="stroke:#181818;stroke-width:1.0;" x1="268.75" x2="268.75" y1="60.0957" y2="80.0957"/><polygon fill="#181818" points="264.75,70.0957,268.75,80.0957,272.75,70.0957,268.75,74.0957" style="stroke:#181818;stroke-width:1.0;"/><line style="stroke:#181818;stroke-width:1.0;" x1="280.75" x2="420.25" y1="346.5645" y2="346.5645"/><line style="stroke:#181818;stroke-width:1.0;" x1="420.25" x2="420.25" y1="279.5176" y2="346.5645"/><polygon fill="#181818" points="416.25,289.5176,420.25,279.5176,424.25,289.5176,420.25,285.5176" style="stroke:#181818;stroke-width:1.0;"/><line style="stroke:#181818;stroke-width:1.0;" x1="268.75" x2="268.75" y1="314.5645" y2="334.5645"/><polygon fill="#181818" points="264.75,324.5645,268.75,334.5645,272.75,324.5645,268.75,328.5645" style="stroke:#181818;stroke-width:1.0;"/><line style="stroke:#181818;stroke-width:1.0;" x1="561.25" x2="634" y1="598.9521" y2="598.9521"/><line style="stroke:#181818;stroke-width:1.0;" x1="634" x2="634" y1="598.9521" y2="630.9521"/><polygon fill="#181818" points="630,620.9521,634,630.9521,638,620.9521,634,624.9521" style="stroke:#181818;stroke-width:1.0;"/><line style="stroke:#181818;stroke-width:1.0;" x1="549.25" x2="549.25" y1="566.9521" y2="586.9521"/><polygon fill="#181818" points="545.25,576.9521,549.25,586.9521,553.25,576.9521,549.25,580.9521" style="stroke:#181818;stroke-width:1.0;"/><line style="stroke:#181818;stroke-width:1.0;" x1="549.25" x2="549.25" y1="785.2334" y2="805.2334"/><polygon fill="#181818" points="545.25,795.2334,549.25,805.2334,553.25,795.2334,549.25,799.2334" style="stroke:#181818;stroke-width:1.0;"/><line style="stroke:#181818;stroke-width:1.0;" x1="70.5" x2="70.5" y1="244.4707" y2="261.9707"/><line style="stroke:#181818;stroke-width:1.0;" x1="70.5" x2="268.75" y1="261.9707" y2="261.9707"/><line style="stroke:#181818;stroke-width:1.0;" x1="268.75" x2="268.75" y1="261.9707" y2="279.4707"/><polygon fill="#181818" points="264.75,269.4707,268.75,279.4707,272.75,269.4707,268.75,273.4707" style="stroke:#181818;stroke-width:1.0;"/><line style="stroke:#181818;stroke-width:1.0;" x1="420.25" x2="420.25" y1="162.2832" y2="229.3301"/><line style="stroke:#181818;stroke-width:1.0;" x1="420.25" x2="82.5" y1="162.2832" y2="162.2832"/><polygon fill="#181818" points="92.5,158.2832,82.5,162.2832,92.5,166.2832,88.5,162.2832" style="stroke:#181818;stroke-width:1.0;"/><line style="stroke:#181818;stroke-width:1.0;" x1="268.75" x2="268.75" y1="130.2832" y2="135.2832"/><line style="stroke:#181818;stroke-width:1.0;" x1="268.75" x2="70.5" y1="135.2832" y2="135.2832"/><line style="stroke:#181818;stroke-width:1.0;" x1="70.5" x2="70.5" y1="135.2832" y2="150.2832"/><polygon fill="#181818" points="66.5,140.2832,70.5,150.2832,74.5,140.2832,70.5,144.2832" style="stroke:#181818;stroke-width:1.0;"/><line style="stroke:#181818;stroke-width:1.0;" x1="268.75" x2="268.75" y1="358.5645" y2="376.0645"/><line style="stroke:#181818;stroke-width:1.0;" x1="268.75" x2="70.5" y1="376.0645" y2="376.0645"/><line style="stroke:#181818;stroke-width:1.0;" x1="70.5" x2="70.5" y1="376.0645" y2="391.4834"/><polygon fill="#181818" points="66.5,381.4834,70.5,391.4834,74.5,381.4834,70.5,385.4834" style="stroke:#181818;stroke-width:1.0;"/><line style="stroke:#181818;stroke-width:1.0;" x1="70.5" x2="70.5" y1="456.7646" y2="461.7646"/><line style="stroke:#181818;stroke-width:1.0;" x1="70.5" x2="268.75" y1="461.7646" y2="461.7646"/><line style="stroke:#181818;stroke-width:1.0;" x1="268.75" x2="268.75" y1="461.7646" y2="476.7646"/><polygon fill="#181818" points="264.75,466.7646,268.75,476.7646,272.75,466.7646,268.75,470.7646" style="stroke:#181818;stroke-width:1.0;"/><line style="stroke:#181818;stroke-width:1.0;" x1="268.75" x2="268.75" y1="511.8584" y2="516.8584"/><line style="stroke:#181818;stroke-width:1.0;" x1="268.75" x2="549.25" y1="516.8584" y2="516.8584"/><line style="stroke:#181818;stroke-width:1.0;" x1="549.25" x2="549.25" y1="516.8584" y2="531.8584"/><polygon fill="#181818" points="545.25,521.8584,549.25,531.8584,553.25,521.8584,549.25,525.8584" style="stroke:#181818;stroke-width:1.0;"/><line style="stroke:#181818;stroke-width:1.0;" x1="634" x2="634" y1="666.0459" y2="683.5459"/><line style="stroke:#181818;stroke-width:1.0;" x1="634" x2="353.5" y1="683.5459" y2="683.5459"/><line style="stroke:#181818;stroke-width:1.0;" x1="353.5" x2="353.5" y1="683.5459" y2="701.0459"/><polygon fill="#181818" points="349.5,691.0459,353.5,701.0459,357.5,691.0459,353.5,695.0459" style="stroke:#181818;stroke-width:1.0;"/><line style="stroke:#181818;stroke-width:1.0;" x1="537.25" x2="184" y1="598.9521" y2="598.9521"/><line style="stroke:#181818;stroke-width:1.0;" x1="184" x2="184" y1="598.9521" y2="630.9521"/><polygon fill="#181818" points="180,620.9521,184,630.9521,188,620.9521,184,624.9521" style="stroke:#181818;stroke-width:1.0;"/><line style="stroke:#181818;stroke-width:1.0;" x1="184" x2="184" y1="681.1396" y2="773.2334"/><line style="stroke:#181818;stroke-width:1.0;" x1="184" x2="537.25" y1="773.2334" y2="773.2334"/><polygon fill="#181818" points="527.25,769.2334,537.25,773.2334,527.25,777.2334,531.25,773.2334" style="stroke:#181818;stroke-width:1.0;"/><line style="stroke:#181818;stroke-width:1.0;" x1="353.5" x2="353.5" y1="751.2334" y2="755.2334"/><line style="stroke:#181818;stroke-width:1.0;" x1="353.5" x2="579.25" y1="755.2334" y2="755.2334"/><line style="stroke:#181818;stroke-width:1.0;" x1="579.25" x2="579.25" y1="755.2334" y2="773.2334"/><line style="stroke:#181818;stroke-width:1.0;" x1="579.25" x2="561.25" y1="773.2334" y2="773.2334"/><polygon fill="#181818" points="571.25,769.2334,561.25,773.2334,571.25,777.2334,567.25,773.2334" style="stroke:#181818;stroke-width:1.0;"/><text fill="#000000" font-family="sans-serif" font-size="18" lengthAdjust="spacing" textLength="53" x="43" y="31.1406">Parent</text><text fill="#000000" font-family="sans-serif" font-size="18" lengthAdjust="spacing" textLength="59" x="271.625" y="31.1406">System</text><text fill="#000000" font-family="sans-serif" font-size="18" lengthAdjust="spacing" textLength="77" x="545.625" y="31.1406">Database</text><!--MD5=[c1a31e98a71fbf3b807418bbdbc37196]
@startuml CreateChildEventActi
|Parent|
|System|

start
:(1) Display event\ninformation view;

repeat
    |Parent|    
    :(2) Enter event\ninformation;
    |System|
    :(3) Validate data format;
    backward :(3.1) Display\nerror notification;
repeat while () is (Invalid data) not (Valid data)
    |Parent|
    :(3.2) Click\nbutton "Save"\nto confirm;
    |System|
    :(4) Process creating request;
    |Database|
    :(5) Validate data;
    if () then (Invalid data)
        |System|
        :(5.1) Display\nerror notification;
    else (Valid data)
        |Database|  
        :(5.2) Store data;
        |System|
        :(6) Display success notification\nand list of events;
        endif
    |Database|
stop
@enduml

PlantUML version 1.2022.7(Tue Aug 23 00:01:30 ICT 2022)
(GPL source distribution)
Java Runtime: Java(TM) SE Runtime Environment
JVM: Java HotSpot(TM) 64-Bit Server VM
Default Encoding: Cp1252
Language: en
Country: US
--></g></svg>