<?xml version="1.0" encoding="UTF-8" standalone="no"?><svg xmlns="http://www.w3.org/2000/svg" xmlns:xlink="http://www.w3.org/1999/xlink" contentStyleType="text/css" height="432px" preserveAspectRatio="none" style="width:558px;height:432px;background:#FFFFFF;" version="1.1" viewBox="0 0 558 432" width="558px" zoomAndPan="magnify"><defs/><g><rect fill="#F1F1F1" height="35.0938" rx="12.5" ry="12.5" style="stroke:#181818;stroke-width:0.5;" width="128" x="101.75" y="150.2832"/><text fill="#000000" font-family="sans-serif" font-size="12" lengthAdjust="spacing" textLength="108" x="111.75" y="172.7402">(2) Choose function</text><polygon fill="#F1F1F1" points="49.5,205.377,49.5,205.377,61.5,217.377,49.5,229.377,49.5,229.377,37.5,217.377,49.5,205.377" style="stroke:#181818;stroke-width:0.5;"/><text fill="#000000" font-family="sans-serif" font-size="11" lengthAdjust="spacing" textLength="32" x="53.5" y="240.7959">Create</text><rect fill="#F1F1F1" height="95.4688" rx="12.5" ry="12.5" style="stroke:#181818;stroke-width:0.5;" width="57" x="21" y="263.2129"/><text fill="#000000" font-family="sans-serif" font-size="12" lengthAdjust="spacing" textLength="25" x="31" y="285.6699">(2.1)</text><text fill="#000000" font-family="sans-serif" font-size="12" lengthAdjust="spacing" textLength="35" x="31" y="300.7637">Activity</text><text fill="#000000" font-family="sans-serif" font-size="12" lengthAdjust="spacing" textLength="37" x="31" y="315.8574">Create</text><text fill="#000000" font-family="sans-serif" font-size="12" lengthAdjust="spacing" textLength="29" x="31" y="330.9512">Child</text><text fill="#000000" font-family="sans-serif" font-size="12" lengthAdjust="spacing" textLength="30" x="31" y="346.0449">Event</text><polygon fill="#F1F1F1" points="125.5,205.377,125.5,205.377,137.5,217.377,125.5,229.377,125.5,229.377,113.5,217.377,125.5,205.377" style="stroke:#181818;stroke-width:0.5;"/><text fill="#000000" font-family="sans-serif" font-size="11" lengthAdjust="spacing" textLength="34" x="129.5" y="240.7959">Update</text><rect fill="#F1F1F1" height="95.4688" rx="12.5" ry="12.5" style="stroke:#181818;stroke-width:0.5;" width="60" x="95.5" y="263.2129"/><text fill="#000000" font-family="sans-serif" font-size="12" lengthAdjust="spacing" textLength="25" x="105.5" y="285.6699">(2.2)</text><text fill="#000000" font-family="sans-serif" font-size="12" lengthAdjust="spacing" textLength="35" x="105.5" y="300.7637">Activity</text><text fill="#000000" font-family="sans-serif" font-size="12" lengthAdjust="spacing" textLength="40" x="105.5" y="315.8574">Update</text><text fill="#000000" font-family="sans-serif" font-size="12" lengthAdjust="spacing" textLength="29" x="105.5" y="330.9512">Child</text><text fill="#000000" font-family="sans-serif" font-size="12" lengthAdjust="spacing" textLength="30" x="105.5" y="346.0449">Event</text><polygon fill="#F1F1F1" points="207.5,205.377,207.5,205.377,219.5,217.377,207.5,229.377,207.5,229.377,195.5,217.377,207.5,205.377" style="stroke:#181818;stroke-width:0.5;"/><text fill="#000000" font-family="sans-serif" font-size="11" lengthAdjust="spacing" textLength="30" x="211.5" y="240.7959">Delete</text><text fill="#000000" font-family="sans-serif" font-size="11" lengthAdjust="spacing" textLength="35" x="219.5" y="214.96">Search</text><rect fill="#F1F1F1" height="95.4688" rx="12.5" ry="12.5" style="stroke:#181818;stroke-width:0.5;" width="56" x="179.5" y="263.2129"/><text fill="#000000" font-family="sans-serif" font-size="12" lengthAdjust="spacing" textLength="25" x="189.5" y="285.6699">(2.3)</text><text fill="#000000" font-family="sans-serif" font-size="12" lengthAdjust="spacing" textLength="35" x="189.5" y="300.7637">Activity</text><text fill="#000000" font-family="sans-serif" font-size="12" lengthAdjust="spacing" textLength="36" x="189.5" y="315.8574">Delete</text><text fill="#000000" font-family="sans-serif" font-size="12" lengthAdjust="spacing" textLength="29" x="189.5" y="330.9512">Child</text><text fill="#000000" font-family="sans-serif" font-size="12" lengthAdjust="spacing" textLength="30" x="189.5" y="346.0449">Event</text><rect fill="#F1F1F1" height="95.4688" rx="12.5" ry="12.5" style="stroke:#181818;stroke-width:0.5;" width="59" x="257.5" y="259.2949"/><text fill="#000000" font-family="sans-serif" font-size="12" lengthAdjust="spacing" textLength="25" x="267.5" y="281.752">(2.4)</text><text fill="#000000" font-family="sans-serif" font-size="12" lengthAdjust="spacing" textLength="35" x="267.5" y="296.8457">Activity</text><text fill="#000000" font-family="sans-serif" font-size="12" lengthAdjust="spacing" textLength="39" x="267.5" y="311.9395">Search</text><text fill="#000000" font-family="sans-serif" font-size="12" lengthAdjust="spacing" textLength="29" x="267.5" y="327.0332">Child</text><text fill="#000000" font-family="sans-serif" font-size="12" lengthAdjust="spacing" textLength="30" x="267.5" y="342.127">Event</text><line style="stroke:#000000;stroke-width:1.5;" x1="15" x2="15" y1="12.4551" y2="420.6816"/><ellipse cx="387" cy="50.0957" fill="#222222" rx="10" ry="10" style="stroke:#222222;stroke-width:1.0;"/><rect fill="#F1F1F1" height="50.1875" rx="12.5" ry="12.5" style="stroke:#181818;stroke-width:0.5;" width="121" x="326.5" y="80.0957"/><text fill="#000000" font-family="sans-serif" font-size="12" lengthAdjust="spacing" textLength="91" x="336.5" y="102.5527">(1) Display event</text><text fill="#000000" font-family="sans-serif" font-size="12" lengthAdjust="spacing" textLength="101" x="336.5" y="117.6465">management view</text><ellipse cx="387" cy="409.6816" fill="none" rx="11" ry="11" style="stroke:#222222;stroke-width:1.0;"/><ellipse cx="387" cy="409.6816" fill="#222222" rx="6" ry="6" style="stroke:#111111;stroke-width:1.0;"/><line style="stroke:#000000;stroke-width:1.5;" x1="320.5" x2="320.5" y1="12.4551" y2="420.6816"/><line style="stroke:#000000;stroke-width:1.5;" x1="451.5" x2="451.5" y1="12.4551" y2="420.6816"/><line style="stroke:#000000;stroke-width:1.5;" x1="538.5" x2="538.5" y1="12.4551" y2="420.6816"/><line style="stroke:#181818;stroke-width:1.0;" x1="49.5" x2="49.5" y1="229.377" y2="263.2129"/><polygon fill="#181818" points="45.5,253.2129,49.5,263.2129,53.5,253.2129,49.5,257.2129" style="stroke:#181818;stroke-width:1.0;"/><line style="stroke:#181818;stroke-width:1.0;" x1="49.5" x2="49.5" y1="358.6816" y2="378.6816"/><polygon fill="#181818" points="45.5,368.6816,49.5,378.6816,53.5,368.6816,49.5,372.6816" style="stroke:#181818;stroke-width:1.0;"/><line style="stroke:#181818;stroke-width:1.0;" x1="125.5" x2="125.5" y1="229.377" y2="263.2129"/><polygon fill="#181818" points="121.5,253.2129,125.5,263.2129,129.5,253.2129,125.5,257.2129" style="stroke:#181818;stroke-width:1.0;"/><line style="stroke:#181818;stroke-width:1.0;" x1="125.5" x2="125.5" y1="358.6816" y2="378.6816"/><polygon fill="#181818" points="121.5,368.6816,125.5,378.6816,129.5,368.6816,125.5,372.6816" style="stroke:#181818;stroke-width:1.0;"/><line style="stroke:#181818;stroke-width:1.0;" x1="207.5" x2="207.5" y1="229.377" y2="263.2129"/><polygon fill="#181818" points="203.5,253.2129,207.5,263.2129,211.5,253.2129,207.5,257.2129" style="stroke:#181818;stroke-width:1.0;"/><line style="stroke:#181818;stroke-width:1.0;" x1="207.5" x2="207.5" y1="358.6816" y2="378.6816"/><polygon fill="#181818" points="203.5,368.6816,207.5,378.6816,211.5,368.6816,207.5,372.6816" style="stroke:#181818;stroke-width:1.0;"/><line style="stroke:#181818;stroke-width:1.0;" x1="61.5" x2="113.5" y1="217.377" y2="217.377"/><polygon fill="#181818" points="103.5,213.377,113.5,217.377,103.5,221.377,107.5,217.377" style="stroke:#181818;stroke-width:1.0;"/><line style="stroke:#181818;stroke-width:1.0;" x1="137.5" x2="195.5" y1="217.377" y2="217.377"/><polygon fill="#181818" points="185.5,213.377,195.5,217.377,185.5,221.377,189.5,217.377" style="stroke:#181818;stroke-width:1.0;"/><line style="stroke:#181818;stroke-width:1.0;" x1="165.75" x2="165.75" y1="185.377" y2="190.377"/><line style="stroke:#181818;stroke-width:1.0;" x1="165.75" x2="49.5" y1="190.377" y2="190.377"/><line style="stroke:#181818;stroke-width:1.0;" x1="49.5" x2="49.5" y1="190.377" y2="205.377"/><polygon fill="#181818" points="45.5,195.377,49.5,205.377,53.5,195.377,49.5,199.377" style="stroke:#181818;stroke-width:1.0;"/><line style="stroke:#181818;stroke-width:1.0;" x1="219.5" x2="287" y1="217.377" y2="217.377"/><line style="stroke:#181818;stroke-width:1.0;" x1="287" x2="287" y1="217.377" y2="259.2949"/><polygon fill="#181818" points="283,249.2949,287,259.2949,291,249.2949,287,253.2949" style="stroke:#181818;stroke-width:1.0;"/><line style="stroke:#181818;stroke-width:1.0;" x1="287" x2="287" y1="354.7637" y2="378.6816"/><polygon fill="#181818" points="283,368.6816,287,378.6816,291,368.6816,287,372.6816" style="stroke:#181818;stroke-width:1.0;"/><line style="stroke:#181818;stroke-width:1.0;" x1="49.5" x2="287" y1="378.6816" y2="378.6816"/><line style="stroke:#181818;stroke-width:1.0;" x1="387" x2="387" y1="60.0957" y2="80.0957"/><polygon fill="#181818" points="383,70.0957,387,80.0957,391,70.0957,387,74.0957" style="stroke:#181818;stroke-width:1.0;"/><line style="stroke:#181818;stroke-width:1.0;" x1="387" x2="387" y1="130.2832" y2="135.2832"/><line style="stroke:#181818;stroke-width:1.0;" x1="387" x2="165.75" y1="135.2832" y2="135.2832"/><line style="stroke:#181818;stroke-width:1.0;" x1="165.75" x2="165.75" y1="135.2832" y2="150.2832"/><polygon fill="#181818" points="161.75,140.2832,165.75,150.2832,169.75,140.2832,165.75,144.2832" style="stroke:#181818;stroke-width:1.0;"/><line style="stroke:#181818;stroke-width:1.0;" x1="165.75" x2="165.75" y1="378.6816" y2="383.6816"/><line style="stroke:#181818;stroke-width:1.0;" x1="165.75" x2="387" y1="383.6816" y2="383.6816"/><line style="stroke:#181818;stroke-width:1.0;" x1="387" x2="387" y1="383.6816" y2="398.6816"/><polygon fill="#181818" points="383,388.6816,387,398.6816,391,388.6816,387,392.6816" style="stroke:#181818;stroke-width:1.0;"/><text fill="#000000" font-family="sans-serif" font-size="18" lengthAdjust="spacing" textLength="53" x="141.25" y="31.1406">Parent</text><text fill="#000000" font-family="sans-serif" font-size="18" lengthAdjust="spacing" textLength="59" x="356.5" y="31.1406">System</text><text fill="#000000" font-family="sans-serif" font-size="18" lengthAdjust="spacing" textLength="77" x="456.5" y="31.1406">Database</text><!--MD5=[d965e4eea73b1db978210fd924ed1adc]
@startuml ManageChildEventActi
|Parent|
|System|
|Database|
|System|
start
:(1) Display event\nmanagement view;
|Parent|
:(2) Choose function;
if () then (Create)
  :(2.1)\nActivity\nCreate\nChild\nEvent; 
elseif () then (Update) 
  :(2.2)\nActivity\nUpdate\nChild\nEvent; 
elseif () then (Delete)
  :(2.3)\nActivity\nDelete\nChild\nEvent; 
else (Search)
  :(2.4)\nActivity\nSearch\nChild\nEvent; 
endif
|System|
stop
@enduml

PlantUML version 1.2022.7(Tue Aug 23 00:01:30 ICT 2022)
(GPL source distribution)
Java Runtime: Java(TM) SE Runtime Environment
JVM: Java HotSpot(TM) 64-Bit Server VM
Default Encoding: Cp1252
Language: en
Country: US
--></g></svg>