<?xml version="1.0" encoding="UTF-8" standalone="no"?><svg xmlns="http://www.w3.org/2000/svg" xmlns:xlink="http://www.w3.org/1999/xlink" contentStyleType="text/css" height="1034px" preserveAspectRatio="none" style="width:687px;height:1034px;background:#FFFFFF;" version="1.1" viewBox="0 0 687 1034" width="687px" zoomAndPan="magnify"><defs/><g><ellipse cx="74" cy="50.0957" fill="#222222" rx="10" ry="10" style="stroke:#222222;stroke-width:1.0;"/><rect fill="#F1F1F1" height="50.1875" rx="12.5" ry="12.5" style="stroke:#181818;stroke-width:0.5;" width="106" x="21" y="80.0957"/><text fill="#000000" font-family="sans-serif" font-size="12" lengthAdjust="spacing" textLength="84" x="31" y="102.5527">(1) Select event</text><text fill="#000000" font-family="sans-serif" font-size="12" lengthAdjust="spacing" textLength="86" x="31" y="117.6465">needs updating</text><rect fill="#F1F1F1" height="50.1875" rx="12.5" ry="12.5" style="stroke:#181818;stroke-width:0.5;" width="99" x="24.5" y="374.6582"/><text fill="#000000" font-family="sans-serif" font-size="12" lengthAdjust="spacing" textLength="79" x="34.5" y="397.1152">(5) Enter event</text><text fill="#000000" font-family="sans-serif" font-size="12" lengthAdjust="spacing" textLength="62" x="34.5" y="412.209">information</text><polygon fill="#F1F1F1" points="74,330.6582,86,342.6582,74,354.6582,62,342.6582,74,330.6582" style="stroke:#181818;stroke-width:0.5;"/><rect fill="#F1F1F1" height="65.2813" rx="12.5" ry="12.5" style="stroke:#181818;stroke-width:0.5;" width="92" x="28" y="571.8584"/><text fill="#000000" font-family="sans-serif" font-size="12" lengthAdjust="spacing" textLength="55" x="38" y="594.3154">(6.2) Click</text><text fill="#000000" font-family="sans-serif" font-size="12" lengthAdjust="spacing" textLength="72" x="38" y="609.4092">button "Save"</text><text fill="#000000" font-family="sans-serif" font-size="12" lengthAdjust="spacing" textLength="54" x="38" y="624.5029">to confirm</text><line style="stroke:#000000;stroke-width:1.5;" x1="15" x2="15" y1="12.4551" y2="1022.7021"/><rect fill="#F1F1F1" height="35.0938" rx="12.5" ry="12.5" style="stroke:#181818;stroke-width:0.5;" width="204" x="159" y="150.2832"/><text fill="#000000" font-family="sans-serif" font-size="12" lengthAdjust="spacing" textLength="184" x="169" y="172.7402">(2) Get selected event information</text><rect fill="#F1F1F1" height="50.1875" rx="12.5" ry="12.5" style="stroke:#181818;stroke-width:0.5;" width="111" x="205.5" y="260.4707"/><text fill="#000000" font-family="sans-serif" font-size="12" lengthAdjust="spacing" textLength="91" x="215.5" y="282.9277">(4) Display event</text><text fill="#000000" font-family="sans-serif" font-size="12" lengthAdjust="spacing" textLength="89" x="215.5" y="298.0215">information view</text><rect fill="#F1F1F1" height="35.0938" rx="12.5" ry="12.5" style="stroke:#181818;stroke-width:0.5;" width="147" x="187.5" y="459.8457"/><text fill="#000000" font-family="sans-serif" font-size="12" lengthAdjust="spacing" textLength="127" x="197.5" y="482.3027">(6) Validate data format</text><polygon fill="#F1F1F1" points="261,514.9395,261,514.9395,273,526.9395,261,538.9395,261,538.9395,249,526.9395,261,514.9395" style="stroke:#181818;stroke-width:0.5;"/><text fill="#000000" font-family="sans-serif" font-size="11" lengthAdjust="spacing" textLength="48" x="265" y="550.3584">Valid data</text><text fill="#000000" font-family="sans-serif" font-size="11" lengthAdjust="spacing" textLength="54" x="273" y="524.5225">Invalid data</text><rect fill="#F1F1F1" height="50.1875" rx="12.5" ry="12.5" style="stroke:#181818;stroke-width:0.5;" width="108" x="358.5" y="409.7051"/><text fill="#000000" font-family="sans-serif" font-size="12" lengthAdjust="spacing" textLength="69" x="368.5" y="432.1621">(6.1) Display</text><text fill="#000000" font-family="sans-serif" font-size="12" lengthAdjust="spacing" textLength="88" x="368.5" y="447.2559">error notification</text><rect fill="#F1F1F1" height="35.0938" rx="12.5" ry="12.5" style="stroke:#181818;stroke-width:0.5;" width="180" x="171" y="657.1396"/><text fill="#000000" font-family="sans-serif" font-size="12" lengthAdjust="spacing" textLength="160" x="181" y="679.5967">(7) Process updating request</text><rect fill="#F1F1F1" height="50.1875" rx="12.5" ry="12.5" style="stroke:#181818;stroke-width:0.5;" width="108" x="137" y="811.3271"/><text fill="#000000" font-family="sans-serif" font-size="12" lengthAdjust="spacing" textLength="69" x="147" y="833.7842">(8.1) Display</text><text fill="#000000" font-family="sans-serif" font-size="12" lengthAdjust="spacing" textLength="88" x="147" y="848.8779">error notification</text><rect fill="#F1F1F1" height="65.2813" rx="12.5" ry="12.5" style="stroke:#181818;stroke-width:0.5;" width="132" x="265" y="881.4209"/><text fill="#000000" font-family="sans-serif" font-size="12" lengthAdjust="spacing" textLength="109" x="275" y="903.8779">(9) Display success</text><text fill="#000000" font-family="sans-serif" font-size="12" lengthAdjust="spacing" textLength="83" x="275" y="918.9717">notification and</text><text fill="#000000" font-family="sans-serif" font-size="12" lengthAdjust="spacing" textLength="68" x="275" y="934.0654">list of events</text><line style="stroke:#000000;stroke-width:1.5;" x1="131" x2="131" y1="12.4551" y2="1022.7021"/><rect fill="#F1F1F1" height="35.0938" rx="12.5" ry="12.5" style="stroke:#181818;stroke-width:0.5;" width="97" x="493" y="205.377"/><text fill="#000000" font-family="sans-serif" font-size="12" lengthAdjust="spacing" textLength="77" x="503" y="227.834">(3) Query data</text><rect fill="#F1F1F1" height="35.0938" rx="12.5" ry="12.5" style="stroke:#181818;stroke-width:0.5;" width="109" x="487" y="712.2334"/><text fill="#000000" font-family="sans-serif" font-size="12" lengthAdjust="spacing" textLength="89" x="497" y="734.6904">(8) Validate data</text><polygon fill="#F1F1F1" points="541.5,767.3271,541.5,767.3271,553.5,779.3271,541.5,791.3271,541.5,791.3271,529.5,779.3271,541.5,767.3271" style="stroke:#181818;stroke-width:0.5;"/><text fill="#000000" font-family="sans-serif" font-size="11" lengthAdjust="spacing" textLength="54" x="475.5" y="776.9102">Invalid data</text><text fill="#000000" font-family="sans-serif" font-size="11" lengthAdjust="spacing" textLength="48" x="553.5" y="776.9102">Valid data</text><rect fill="#F1F1F1" height="35.0938" rx="12.5" ry="12.5" style="stroke:#181818;stroke-width:0.5;" width="104" x="559.5" y="811.3271"/><text fill="#000000" font-family="sans-serif" font-size="12" lengthAdjust="spacing" textLength="84" x="569.5" y="833.7842">(8.2) Store data</text><polygon fill="#F1F1F1" points="541.5,956.7021,553.5,968.7021,541.5,980.7021,529.5,968.7021,541.5,956.7021" style="stroke:#181818;stroke-width:0.5;"/><ellipse cx="541.5" cy="1011.7021" fill="none" rx="11" ry="11" style="stroke:#222222;stroke-width:1.0;"/><ellipse cx="541.5" cy="1011.7021" fill="#222222" rx="6" ry="6" style="stroke:#111111;stroke-width:1.0;"/><line style="stroke:#000000;stroke-width:1.5;" x1="470.5" x2="470.5" y1="12.4551" y2="1022.7021"/><line style="stroke:#000000;stroke-width:1.5;" x1="667.5" x2="667.5" y1="12.4551" y2="1022.7021"/><line style="stroke:#181818;stroke-width:1.0;" x1="74" x2="74" y1="60.0957" y2="80.0957"/><polygon fill="#181818" points="70,70.0957,74,80.0957,78,70.0957,74,74.0957" style="stroke:#181818;stroke-width:1.0;"/><line style="stroke:#181818;stroke-width:1.0;" x1="74" x2="74" y1="354.6582" y2="374.6582"/><polygon fill="#181818" points="70,364.6582,74,374.6582,78,364.6582,74,368.6582" style="stroke:#181818;stroke-width:1.0;"/><line style="stroke:#181818;stroke-width:1.0;" x1="273" x2="412.5" y1="526.9395" y2="526.9395"/><line style="stroke:#181818;stroke-width:1.0;" x1="412.5" x2="412.5" y1="459.8926" y2="526.9395"/><polygon fill="#181818" points="408.5,469.8926,412.5,459.8926,416.5,469.8926,412.5,465.8926" style="stroke:#181818;stroke-width:1.0;"/><line style="stroke:#181818;stroke-width:1.0;" x1="261" x2="261" y1="494.9395" y2="514.9395"/><polygon fill="#181818" points="257,504.9395,261,514.9395,265,504.9395,261,508.9395" style="stroke:#181818;stroke-width:1.0;"/><line style="stroke:#181818;stroke-width:1.0;" x1="553.5" x2="611.5" y1="779.3271" y2="779.3271"/><line style="stroke:#181818;stroke-width:1.0;" x1="611.5" x2="611.5" y1="779.3271" y2="811.3271"/><polygon fill="#181818" points="607.5,801.3271,611.5,811.3271,615.5,801.3271,611.5,805.3271" style="stroke:#181818;stroke-width:1.0;"/><line style="stroke:#181818;stroke-width:1.0;" x1="541.5" x2="541.5" y1="747.3271" y2="767.3271"/><polygon fill="#181818" points="537.5,757.3271,541.5,767.3271,545.5,757.3271,541.5,761.3271" style="stroke:#181818;stroke-width:1.0;"/><line style="stroke:#181818;stroke-width:1.0;" x1="541.5" x2="541.5" y1="980.7021" y2="1000.7021"/><polygon fill="#181818" points="537.5,990.7021,541.5,1000.7021,545.5,990.7021,541.5,994.7021" style="stroke:#181818;stroke-width:1.0;"/><line style="stroke:#181818;stroke-width:1.0;" x1="74" x2="74" y1="130.2832" y2="135.2832"/><line style="stroke:#181818;stroke-width:1.0;" x1="74" x2="261" y1="135.2832" y2="135.2832"/><line style="stroke:#181818;stroke-width:1.0;" x1="261" x2="261" y1="135.2832" y2="150.2832"/><polygon fill="#181818" points="257,140.2832,261,150.2832,265,140.2832,261,144.2832" style="stroke:#181818;stroke-width:1.0;"/><line style="stroke:#181818;stroke-width:1.0;" x1="261" x2="261" y1="185.377" y2="190.377"/><line style="stroke:#181818;stroke-width:1.0;" x1="261" x2="541.5" y1="190.377" y2="190.377"/><line style="stroke:#181818;stroke-width:1.0;" x1="541.5" x2="541.5" y1="190.377" y2="205.377"/><polygon fill="#181818" points="537.5,195.377,541.5,205.377,545.5,195.377,541.5,199.377" style="stroke:#181818;stroke-width:1.0;"/><line style="stroke:#181818;stroke-width:1.0;" x1="541.5" x2="541.5" y1="240.4707" y2="245.4707"/><line style="stroke:#181818;stroke-width:1.0;" x1="541.5" x2="261" y1="245.4707" y2="245.4707"/><line style="stroke:#181818;stroke-width:1.0;" x1="261" x2="261" y1="245.4707" y2="260.4707"/><polygon fill="#181818" points="257,250.4707,261,260.4707,265,250.4707,261,254.4707" style="stroke:#181818;stroke-width:1.0;"/><line style="stroke:#181818;stroke-width:1.0;" x1="74" x2="74" y1="424.8457" y2="442.3457"/><line style="stroke:#181818;stroke-width:1.0;" x1="74" x2="261" y1="442.3457" y2="442.3457"/><line style="stroke:#181818;stroke-width:1.0;" x1="261" x2="261" y1="442.3457" y2="459.8457"/><polygon fill="#181818" points="257,449.8457,261,459.8457,265,449.8457,261,453.8457" style="stroke:#181818;stroke-width:1.0;"/><line style="stroke:#181818;stroke-width:1.0;" x1="412.5" x2="412.5" y1="342.6582" y2="409.7051"/><line style="stroke:#181818;stroke-width:1.0;" x1="412.5" x2="86" y1="342.6582" y2="342.6582"/><polygon fill="#181818" points="96,338.6582,86,342.6582,96,346.6582,92,342.6582" style="stroke:#181818;stroke-width:1.0;"/><line style="stroke:#181818;stroke-width:1.0;" x1="261" x2="261" y1="310.6582" y2="315.6582"/><line style="stroke:#181818;stroke-width:1.0;" x1="261" x2="74" y1="315.6582" y2="315.6582"/><line style="stroke:#181818;stroke-width:1.0;" x1="74" x2="74" y1="315.6582" y2="330.6582"/><polygon fill="#181818" points="70,320.6582,74,330.6582,78,320.6582,74,324.6582" style="stroke:#181818;stroke-width:1.0;"/><line style="stroke:#181818;stroke-width:1.0;" x1="261" x2="261" y1="538.9395" y2="556.4395"/><line style="stroke:#181818;stroke-width:1.0;" x1="261" x2="74" y1="556.4395" y2="556.4395"/><line style="stroke:#181818;stroke-width:1.0;" x1="74" x2="74" y1="556.4395" y2="571.8584"/><polygon fill="#181818" points="70,561.8584,74,571.8584,78,561.8584,74,565.8584" style="stroke:#181818;stroke-width:1.0;"/><line style="stroke:#181818;stroke-width:1.0;" x1="74" x2="74" y1="637.1396" y2="642.1396"/><line style="stroke:#181818;stroke-width:1.0;" x1="74" x2="261" y1="642.1396" y2="642.1396"/><line style="stroke:#181818;stroke-width:1.0;" x1="261" x2="261" y1="642.1396" y2="657.1396"/><polygon fill="#181818" points="257,647.1396,261,657.1396,265,647.1396,261,651.1396" style="stroke:#181818;stroke-width:1.0;"/><line style="stroke:#181818;stroke-width:1.0;" x1="261" x2="261" y1="692.2334" y2="697.2334"/><line style="stroke:#181818;stroke-width:1.0;" x1="261" x2="541.5" y1="697.2334" y2="697.2334"/><line style="stroke:#181818;stroke-width:1.0;" x1="541.5" x2="541.5" y1="697.2334" y2="712.2334"/><polygon fill="#181818" points="537.5,702.2334,541.5,712.2334,545.5,702.2334,541.5,706.2334" style="stroke:#181818;stroke-width:1.0;"/><line style="stroke:#181818;stroke-width:1.0;" x1="611.5" x2="611.5" y1="846.4209" y2="863.9209"/><line style="stroke:#181818;stroke-width:1.0;" x1="611.5" x2="331" y1="863.9209" y2="863.9209"/><line style="stroke:#181818;stroke-width:1.0;" x1="331" x2="331" y1="863.9209" y2="881.4209"/><polygon fill="#181818" points="327,871.4209,331,881.4209,335,871.4209,331,875.4209" style="stroke:#181818;stroke-width:1.0;"/><line style="stroke:#181818;stroke-width:1.0;" x1="529.5" x2="191" y1="779.3271" y2="779.3271"/><line style="stroke:#181818;stroke-width:1.0;" x1="191" x2="191" y1="779.3271" y2="811.3271"/><polygon fill="#181818" points="187,801.3271,191,811.3271,195,801.3271,191,805.3271" style="stroke:#181818;stroke-width:1.0;"/><line style="stroke:#181818;stroke-width:1.0;" x1="191" x2="191" y1="861.5146" y2="968.7021"/><line style="stroke:#181818;stroke-width:1.0;" x1="191" x2="529.5" y1="968.7021" y2="968.7021"/><polygon fill="#181818" points="519.5,964.7021,529.5,968.7021,519.5,972.7021,523.5,968.7021" style="stroke:#181818;stroke-width:1.0;"/><line style="stroke:#181818;stroke-width:1.0;" x1="331" x2="331" y1="946.7021" y2="950.7021"/><line style="stroke:#181818;stroke-width:1.0;" x1="331" x2="571.5" y1="950.7021" y2="950.7021"/><line style="stroke:#181818;stroke-width:1.0;" x1="571.5" x2="571.5" y1="950.7021" y2="968.7021"/><line style="stroke:#181818;stroke-width:1.0;" x1="571.5" x2="553.5" y1="968.7021" y2="968.7021"/><polygon fill="#181818" points="563.5,964.7021,553.5,968.7021,563.5,972.7021,559.5,968.7021" style="stroke:#181818;stroke-width:1.0;"/><text fill="#000000" font-family="sans-serif" font-size="18" lengthAdjust="spacing" textLength="53" x="46.5" y="31.1406">Parent</text><text fill="#000000" font-family="sans-serif" font-size="18" lengthAdjust="spacing" textLength="59" x="271.25" y="31.1406">System</text><text fill="#000000" font-family="sans-serif" font-size="18" lengthAdjust="spacing" textLength="77" x="530.5" y="31.1406">Database</text><!--MD5=[1873494a026a2f6681d7cb737709f632]
@startuml UpdateChildEventActi
|Parent|
start
:(1) Select event\nneeds updating;
|System|
:(2) Get selected event information;
|Database| 
:(3) Query data;
|System|
:(4) Display event\ninformation view;
repeat
    |Parent|
    :(5) Enter event\ninformation;
    |System|
    :(6) Validate data format;
    backward :(6.1) Display\nerror notification;
repeat while () is (Invalid data) not (Valid data)
    |Parent|
    :(6.2) Click\nbutton "Save"\nto confirm;
    |System|
    :(7) Process updating request;
    |Database|
    :(8) Validate data;
    if () then (Invalid data)
        |System|
        :(8.1) Display\nerror notification;
    else (Valid data)
        |Database|  
        :(8.2) Store data;
        |System|
        :(9) Display success \nnotification and\nlist of events;
        endif
    |Database|
stop
@enduml

PlantUML version 1.2022.7(Tue Aug 23 00:01:30 ICT 2022)
(GPL source distribution)
Java Runtime: Java(TM) SE Runtime Environment
JVM: Java HotSpot(TM) 64-Bit Server VM
Default Encoding: Cp1252
Language: en
Country: US
--></g></svg>