<?xml version="1.0" encoding="UTF-8" standalone="no"?><svg xmlns="http://www.w3.org/2000/svg" xmlns:xlink="http://www.w3.org/1999/xlink" contentStyleType="text/css" height="725px" preserveAspectRatio="none" style="width:708px;height:725px;background:#FFFFFF;" version="1.1" viewBox="0 0 708 725" width="708px" zoomAndPan="magnify"><defs/><g><rect fill="#F1F1F1" height="50.1875" rx="12.5" ry="12.5" style="stroke:#181818;stroke-width:0.5;" width="102" x="33.5" y="205.377"/><text fill="#000000" font-family="sans-serif" font-size="12" lengthAdjust="spacing" textLength="82" x="43.5" y="227.834">(3) Click button</text><text fill="#000000" font-family="sans-serif" font-size="12" lengthAdjust="spacing" textLength="46" x="43.5" y="242.9277">"Sign In"</text><rect fill="#F1F1F1" height="50.1875" rx="12.5" ry="12.5" style="stroke:#181818;stroke-width:0.5;" width="127" x="21" y="135.1895"/><text fill="#000000" font-family="sans-serif" font-size="12" lengthAdjust="spacing" textLength="107" x="31" y="157.6465">(2) Enter username</text><text fill="#000000" font-family="sans-serif" font-size="12" lengthAdjust="spacing" textLength="66" x="31" y="172.7402">&amp; password</text><line style="stroke:#000000;stroke-width:1.5;" x1="15" x2="15" y1="12.4551" y2="713.1396"/><ellipse cx="343.25" cy="50.0957" fill="#222222" rx="10" ry="10" style="stroke:#222222;stroke-width:1.0;"/><rect fill="#F1F1F1" height="35.0938" rx="12.5" ry="12.5" style="stroke:#181818;stroke-width:0.5;" width="146" x="270.25" y="80.0957"/><text fill="#000000" font-family="sans-serif" font-size="12" lengthAdjust="spacing" textLength="126" x="280.25" y="102.5527">(1) Display sign in view</text><rect fill="#F1F1F1" height="35.0938" rx="12.5" ry="12.5" style="stroke:#181818;stroke-width:0.5;" width="147" x="269.75" y="290.5645"/><text fill="#000000" font-family="sans-serif" font-size="12" lengthAdjust="spacing" textLength="127" x="279.75" y="313.0215">(4) Validate data format</text><polygon fill="#F1F1F1" points="343.25,345.6582,343.25,345.6582,355.25,357.6582,343.25,369.6582,343.25,369.6582,331.25,357.6582,343.25,345.6582" style="stroke:#181818;stroke-width:0.5;"/><text fill="#000000" font-family="sans-serif" font-size="11" lengthAdjust="spacing" textLength="48" x="347.25" y="381.0771">Valid data</text><text fill="#000000" font-family="sans-serif" font-size="11" lengthAdjust="spacing" textLength="54" x="355.25" y="355.2412">Invalid data</text><rect fill="#F1F1F1" height="50.1875" rx="12.5" ry="12.5" style="stroke:#181818;stroke-width:0.5;" width="108" x="440.75" y="227.3301"/><text fill="#000000" font-family="sans-serif" font-size="12" lengthAdjust="spacing" textLength="69" x="450.75" y="249.7871">(4.1) Display</text><text fill="#000000" font-family="sans-serif" font-size="12" lengthAdjust="spacing" textLength="88" x="450.75" y="264.8809">error notification</text><rect fill="#F1F1F1" height="50.1875" rx="12.5" ry="12.5" style="stroke:#181818;stroke-width:0.5;" width="104" x="291.25" y="402.5771"/><text fill="#000000" font-family="sans-serif" font-size="12" lengthAdjust="spacing" textLength="84" x="301.25" y="425.0342">(4.2) Send data</text><text fill="#000000" font-family="sans-serif" font-size="12" lengthAdjust="spacing" textLength="65" x="301.25" y="440.1279">to database</text><rect fill="#F1F1F1" height="35.0938" rx="12.5" ry="12.5" style="stroke:#181818;stroke-width:0.5;" width="180" x="158" y="571.8584"/><text fill="#000000" font-family="sans-serif" font-size="12" lengthAdjust="spacing" textLength="160" x="168" y="594.3154">(5.1) Display error notification</text><rect fill="#F1F1F1" height="65.2813" rx="12.5" ry="12.5" style="stroke:#181818;stroke-width:0.5;" width="161" x="358" y="571.8584"/><text fill="#000000" font-family="sans-serif" font-size="12" lengthAdjust="spacing" textLength="109" x="368" y="594.3154">(5.2) Display sign in</text><text fill="#000000" font-family="sans-serif" font-size="12" lengthAdjust="spacing" textLength="122" x="368" y="609.4092">successful notification</text><text fill="#000000" font-family="sans-serif" font-size="12" lengthAdjust="spacing" textLength="141" x="368" y="624.5029">and redirect to HomeView</text><line style="stroke:#000000;stroke-width:1.5;" x1="152" x2="152" y1="12.4551" y2="713.1396"/><rect fill="#F1F1F1" height="35.0938" rx="12.5" ry="12.5" style="stroke:#181818;stroke-width:0.5;" width="109" x="569.25" y="472.7646"/><text fill="#000000" font-family="sans-serif" font-size="12" lengthAdjust="spacing" textLength="89" x="579.25" y="495.2217">(5) Validate data</text><polygon fill="#F1F1F1" points="623.75,527.8584,623.75,527.8584,635.75,539.8584,623.75,551.8584,623.75,551.8584,611.75,539.8584,623.75,527.8584" style="stroke:#181818;stroke-width:0.5;"/><text fill="#000000" font-family="sans-serif" font-size="11" lengthAdjust="spacing" textLength="54" x="557.75" y="537.4414">Invalid data</text><text fill="#000000" font-family="sans-serif" font-size="11" lengthAdjust="spacing" textLength="48" x="635.75" y="537.4414">Valid data</text><polygon fill="#F1F1F1" points="623.75,647.1396,635.75,659.1396,623.75,671.1396,611.75,659.1396,623.75,647.1396" style="stroke:#181818;stroke-width:0.5;"/><ellipse cx="623.75" cy="702.1396" fill="none" rx="11" ry="11" style="stroke:#222222;stroke-width:1.0;"/><ellipse cx="623.75" cy="702.1396" fill="#222222" rx="6" ry="6" style="stroke:#111111;stroke-width:1.0;"/><line style="stroke:#000000;stroke-width:1.5;" x1="552.75" x2="552.75" y1="12.4551" y2="713.1396"/><line style="stroke:#000000;stroke-width:1.5;" x1="688.75" x2="688.75" y1="12.4551" y2="713.1396"/><line style="stroke:#181818;stroke-width:1.0;" x1="84.5" x2="84.5" y1="185.377" y2="205.377"/><polygon fill="#181818" points="80.5,195.377,84.5,205.377,88.5,195.377,84.5,199.377" style="stroke:#181818;stroke-width:1.0;"/><line style="stroke:#181818;stroke-width:1.0;" x1="343.25" x2="343.25" y1="60.0957" y2="80.0957"/><polygon fill="#181818" points="339.25,70.0957,343.25,80.0957,347.25,70.0957,343.25,74.0957" style="stroke:#181818;stroke-width:1.0;"/><line style="stroke:#181818;stroke-width:1.0;" x1="355.25" x2="494.75" y1="357.6582" y2="357.6582"/><line style="stroke:#181818;stroke-width:1.0;" x1="494.75" x2="494.75" y1="277.5176" y2="357.6582"/><polygon fill="#181818" points="490.75,287.5176,494.75,277.5176,498.75,287.5176,494.75,283.5176" style="stroke:#181818;stroke-width:1.0;"/><line style="stroke:#181818;stroke-width:1.0;" x1="343.25" x2="343.25" y1="325.6582" y2="345.6582"/><polygon fill="#181818" points="339.25,335.6582,343.25,345.6582,347.25,335.6582,343.25,339.6582" style="stroke:#181818;stroke-width:1.0;"/><line style="stroke:#181818;stroke-width:1.0;" x1="343.25" x2="343.25" y1="369.6582" y2="402.5771"/><polygon fill="#181818" points="339.25,392.5771,343.25,402.5771,347.25,392.5771,343.25,396.5771" style="stroke:#181818;stroke-width:1.0;"/><line style="stroke:#181818;stroke-width:1.0;" x1="623.75" x2="623.75" y1="507.8584" y2="527.8584"/><polygon fill="#181818" points="619.75,517.8584,623.75,527.8584,627.75,517.8584,623.75,521.8584" style="stroke:#181818;stroke-width:1.0;"/><line style="stroke:#181818;stroke-width:1.0;" x1="623.75" x2="623.75" y1="671.1396" y2="691.1396"/><polygon fill="#181818" points="619.75,681.1396,623.75,691.1396,627.75,681.1396,623.75,685.1396" style="stroke:#181818;stroke-width:1.0;"/><line style="stroke:#181818;stroke-width:1.0;" x1="84.5" x2="84.5" y1="255.5645" y2="273.0645"/><line style="stroke:#181818;stroke-width:1.0;" x1="84.5" x2="343.25" y1="273.0645" y2="273.0645"/><line style="stroke:#181818;stroke-width:1.0;" x1="343.25" x2="343.25" y1="273.0645" y2="290.5645"/><polygon fill="#181818" points="339.25,280.5645,343.25,290.5645,347.25,280.5645,343.25,284.5645" style="stroke:#181818;stroke-width:1.0;"/><line style="stroke:#181818;stroke-width:1.0;" x1="494.75" x2="494.75" y1="160.2832" y2="227.3301"/><line style="stroke:#181818;stroke-width:1.0;" x1="494.75" x2="148" y1="160.2832" y2="160.2832"/><polygon fill="#181818" points="158,156.2832,148,160.2832,158,164.2832,154,160.2832" style="stroke:#181818;stroke-width:1.0;"/><line style="stroke:#181818;stroke-width:1.0;" x1="343.25" x2="343.25" y1="115.1895" y2="120.1895"/><line style="stroke:#181818;stroke-width:1.0;" x1="343.25" x2="84.5" y1="120.1895" y2="120.1895"/><line style="stroke:#181818;stroke-width:1.0;" x1="84.5" x2="84.5" y1="120.1895" y2="135.1895"/><polygon fill="#181818" points="80.5,125.1895,84.5,135.1895,88.5,125.1895,84.5,129.1895" style="stroke:#181818;stroke-width:1.0;"/><line style="stroke:#181818;stroke-width:1.0;" x1="343.25" x2="343.25" y1="452.7646" y2="457.7646"/><line style="stroke:#181818;stroke-width:1.0;" x1="343.25" x2="623.75" y1="457.7646" y2="457.7646"/><line style="stroke:#181818;stroke-width:1.0;" x1="623.75" x2="623.75" y1="457.7646" y2="472.7646"/><polygon fill="#181818" points="619.75,462.7646,623.75,472.7646,627.75,462.7646,623.75,466.7646" style="stroke:#181818;stroke-width:1.0;"/><line style="stroke:#181818;stroke-width:1.0;" x1="611.75" x2="248" y1="539.8584" y2="539.8584"/><line style="stroke:#181818;stroke-width:1.0;" x1="248" x2="248" y1="539.8584" y2="571.8584"/><polygon fill="#181818" points="244,561.8584,248,571.8584,252,561.8584,248,565.8584" style="stroke:#181818;stroke-width:1.0;"/><line style="stroke:#181818;stroke-width:1.0;" x1="635.75" x2="647.75" y1="539.8584" y2="539.8584"/><line style="stroke:#181818;stroke-width:1.0;" x1="647.75" x2="647.75" y1="539.8584" y2="557.8584"/><line style="stroke:#181818;stroke-width:1.0;" x1="647.75" x2="438.5" y1="557.8584" y2="557.8584"/><line style="stroke:#181818;stroke-width:1.0;" x1="438.5" x2="438.5" y1="557.8584" y2="571.8584"/><polygon fill="#181818" points="434.5,561.8584,438.5,571.8584,442.5,561.8584,438.5,565.8584" style="stroke:#181818;stroke-width:1.0;"/><line style="stroke:#181818;stroke-width:1.0;" x1="248" x2="248" y1="606.9521" y2="659.1396"/><line style="stroke:#181818;stroke-width:1.0;" x1="248" x2="611.75" y1="659.1396" y2="659.1396"/><polygon fill="#181818" points="601.75,655.1396,611.75,659.1396,601.75,663.1396,605.75,659.1396" style="stroke:#181818;stroke-width:1.0;"/><line style="stroke:#181818;stroke-width:1.0;" x1="438.5" x2="438.5" y1="637.1396" y2="641.1396"/><line style="stroke:#181818;stroke-width:1.0;" x1="438.5" x2="653.75" y1="641.1396" y2="641.1396"/><line style="stroke:#181818;stroke-width:1.0;" x1="653.75" x2="653.75" y1="641.1396" y2="659.1396"/><line style="stroke:#181818;stroke-width:1.0;" x1="653.75" x2="635.75" y1="659.1396" y2="659.1396"/><polygon fill="#181818" points="645.75,655.1396,635.75,659.1396,645.75,663.1396,641.75,659.1396" style="stroke:#181818;stroke-width:1.0;"/><text fill="#000000" font-family="sans-serif" font-size="18" lengthAdjust="spacing" textLength="38" x="64.5" y="31.1406">User</text><text fill="#000000" font-family="sans-serif" font-size="18" lengthAdjust="spacing" textLength="59" x="322.875" y="31.1406">System</text><text fill="#000000" font-family="sans-serif" font-size="18" lengthAdjust="spacing" textLength="77" x="582.25" y="31.1406">Database</text><!--MD5=[b349272269b956f80c73c49377fc1178]
@startuml SignInActi   
skinparam SequenceMessageAlignment center
|User|
|System|
start
:(1) Display sign in view;
    |User|  
repeat :(2) Enter username\n& password;
    :(3) Click button\n"Sign In";
    |System|
    :(4) Validate data format;
    backward :(4.1) Display\nerror notification;
repeat while () is (Invalid data) not (Valid data)       
    |System|
    :(4.2) Send data\nto database;
    |Database|
    :(5) Validate data;
if () then (Invalid data)
    |System|
    :(5.1) Display error notification;
else (Valid data)
    |System|
    :(5.2) Display sign in\nsuccessful notification\nand redirect to HomeView;
    endif
|Database|
stop
@enduml

PlantUML version 1.2022.7(Tue Aug 23 00:01:30 ICT 2022)
(GPL source distribution)
Java Runtime: Java(TM) SE Runtime Environment
JVM: Java HotSpot(TM) 64-Bit Server VM
Default Encoding: Cp1252
Language: en
Country: US
--></g></svg>