<?xml version="1.0" encoding="UTF-8" standalone="no"?><svg xmlns="http://www.w3.org/2000/svg" xmlns:xlink="http://www.w3.org/1999/xlink" contentStyleType="text/css" height="425px" preserveAspectRatio="none" style="width:466px;height:425px;background:#FFFFFF;" version="1.1" viewBox="0 0 466 425" width="466px" zoomAndPan="magnify"><defs/><g><rect fill="#F1F1F1" height="35.0938" rx="12.5" ry="12.5" style="stroke:#181818;stroke-width:0.5;" width="128" x="55" y="150.2832"/><text fill="#000000" font-family="sans-serif" font-size="12" lengthAdjust="spacing" textLength="108" x="65" y="172.7402">(2) Choose function</text><polygon fill="#F1F1F1" points="119,211.9658,119,211.9658,131,223.9658,119,235.9658,119,235.9658,107,223.9658,119,211.9658" style="stroke:#181818;stroke-width:0.5;"/><text fill="#000000" font-family="sans-serif" font-size="11" lengthAdjust="spacing" textLength="57" x="50" y="221.5488">Prescription</text><text fill="#000000" font-family="sans-serif" font-size="11" lengthAdjust="spacing" textLength="61" x="131" y="207.7129">Immunization</text><text fill="#000000" font-family="sans-serif" font-size="11" lengthAdjust="spacing" textLength="45" x="131" y="221.5488">Schedule</text><rect fill="#F1F1F1" height="80.375" rx="12.5" ry="12.5" style="stroke:#181818;stroke-width:0.5;" width="86" x="21" y="245.9658"/><text fill="#000000" font-family="sans-serif" font-size="12" lengthAdjust="spacing" textLength="25" x="31" y="268.4229">(2.1)</text><text fill="#000000" font-family="sans-serif" font-size="12" lengthAdjust="spacing" textLength="35" x="31" y="283.5166">Activity</text><text fill="#000000" font-family="sans-serif" font-size="12" lengthAdjust="spacing" textLength="26" x="31" y="298.6104">View</text><text fill="#000000" font-family="sans-serif" font-size="12" lengthAdjust="spacing" textLength="66" x="31" y="313.7041">Prescription</text><rect fill="#F1F1F1" height="95.4688" rx="12.5" ry="12.5" style="stroke:#181818;stroke-width:0.5;" width="94" x="127" y="245.9658"/><text fill="#000000" font-family="sans-serif" font-size="12" lengthAdjust="spacing" textLength="25" x="137" y="268.4229">(2.2)</text><text fill="#000000" font-family="sans-serif" font-size="12" lengthAdjust="spacing" textLength="35" x="137" y="283.5166">Activity</text><text fill="#000000" font-family="sans-serif" font-size="12" lengthAdjust="spacing" textLength="26" x="137" y="298.6104">View</text><text fill="#000000" font-family="sans-serif" font-size="12" lengthAdjust="spacing" textLength="74" x="137" y="313.7041">Immunization</text><text fill="#000000" font-family="sans-serif" font-size="12" lengthAdjust="spacing" textLength="52" x="137" y="328.7979">Schedule</text><polygon fill="#F1F1F1" points="119,347.4346,131,359.4346,119,371.4346,107,359.4346,119,347.4346" style="stroke:#181818;stroke-width:0.5;"/><line style="stroke:#000000;stroke-width:1.5;" x1="15" x2="15" y1="12.4551" y2="413.4346"/><ellipse cx="293.5" cy="50.0957" fill="#222222" rx="10" ry="10" style="stroke:#222222;stroke-width:1.0;"/><rect fill="#F1F1F1" height="50.1875" rx="12.5" ry="12.5" style="stroke:#181818;stroke-width:0.5;" width="125" x="231" y="80.0957"/><text fill="#000000" font-family="sans-serif" font-size="12" lengthAdjust="spacing" textLength="105" x="241" y="102.5527">(1) Display doctor's</text><text fill="#000000" font-family="sans-serif" font-size="12" lengthAdjust="spacing" textLength="84" x="241" y="117.6465">instruction view</text><ellipse cx="293.5" cy="402.4346" fill="none" rx="11" ry="11" style="stroke:#222222;stroke-width:1.0;"/><ellipse cx="293.5" cy="402.4346" fill="#222222" rx="6" ry="6" style="stroke:#111111;stroke-width:1.0;"/><line style="stroke:#000000;stroke-width:1.5;" x1="225" x2="225" y1="12.4551" y2="413.4346"/><line style="stroke:#000000;stroke-width:1.5;" x1="360" x2="360" y1="12.4551" y2="413.4346"/><line style="stroke:#000000;stroke-width:1.5;" x1="447" x2="447" y1="12.4551" y2="413.4346"/><line style="stroke:#181818;stroke-width:1.0;" x1="107" x2="64" y1="223.9658" y2="223.9658"/><line style="stroke:#181818;stroke-width:1.0;" x1="64" x2="64" y1="223.9658" y2="245.9658"/><polygon fill="#181818" points="60,235.9658,64,245.9658,68,235.9658,64,239.9658" style="stroke:#181818;stroke-width:1.0;"/><line style="stroke:#181818;stroke-width:1.0;" x1="131" x2="174" y1="223.9658" y2="223.9658"/><line style="stroke:#181818;stroke-width:1.0;" x1="174" x2="174" y1="223.9658" y2="245.9658"/><polygon fill="#181818" points="170,235.9658,174,245.9658,178,235.9658,174,239.9658" style="stroke:#181818;stroke-width:1.0;"/><line style="stroke:#181818;stroke-width:1.0;" x1="64" x2="64" y1="326.3408" y2="359.4346"/><line style="stroke:#181818;stroke-width:1.0;" x1="64" x2="107" y1="359.4346" y2="359.4346"/><polygon fill="#181818" points="97,355.4346,107,359.4346,97,363.4346,101,359.4346" style="stroke:#181818;stroke-width:1.0;"/><line style="stroke:#181818;stroke-width:1.0;" x1="174" x2="174" y1="341.4346" y2="359.4346"/><line style="stroke:#181818;stroke-width:1.0;" x1="174" x2="131" y1="359.4346" y2="359.4346"/><polygon fill="#181818" points="141,355.4346,131,359.4346,141,363.4346,137,359.4346" style="stroke:#181818;stroke-width:1.0;"/><line style="stroke:#181818;stroke-width:1.0;" x1="119" x2="119" y1="185.377" y2="211.9658"/><polygon fill="#181818" points="115,201.9658,119,211.9658,123,201.9658,119,205.9658" style="stroke:#181818;stroke-width:1.0;"/><line style="stroke:#181818;stroke-width:1.0;" x1="293.5" x2="293.5" y1="60.0957" y2="80.0957"/><polygon fill="#181818" points="289.5,70.0957,293.5,80.0957,297.5,70.0957,293.5,74.0957" style="stroke:#181818;stroke-width:1.0;"/><line style="stroke:#181818;stroke-width:1.0;" x1="293.5" x2="293.5" y1="130.2832" y2="135.2832"/><line style="stroke:#181818;stroke-width:1.0;" x1="293.5" x2="119" y1="135.2832" y2="135.2832"/><line style="stroke:#181818;stroke-width:1.0;" x1="119" x2="119" y1="135.2832" y2="150.2832"/><polygon fill="#181818" points="115,140.2832,119,150.2832,123,140.2832,119,144.2832" style="stroke:#181818;stroke-width:1.0;"/><line style="stroke:#181818;stroke-width:1.0;" x1="119" x2="119" y1="371.4346" y2="376.4346"/><line style="stroke:#181818;stroke-width:1.0;" x1="119" x2="293.5" y1="376.4346" y2="376.4346"/><line style="stroke:#181818;stroke-width:1.0;" x1="293.5" x2="293.5" y1="376.4346" y2="391.4346"/><polygon fill="#181818" points="289.5,381.4346,293.5,391.4346,297.5,381.4346,293.5,385.4346" style="stroke:#181818;stroke-width:1.0;"/><text fill="#000000" font-family="sans-serif" font-size="18" lengthAdjust="spacing" textLength="53" x="93.5" y="31.1406">Parent</text><text fill="#000000" font-family="sans-serif" font-size="18" lengthAdjust="spacing" textLength="59" x="263" y="31.1406">System</text><text fill="#000000" font-family="sans-serif" font-size="18" lengthAdjust="spacing" textLength="77" x="365" y="31.1406">Database</text><!--MD5=[36e6bba497ad8601446b1d6729184350]
@startuml ViewDoctorInstructionActi
|Parent|
|System|
|Database|

|System|
start
:(1) Display doctor's\ninstruction view;
|Parent|
:(2) Choose function;
if () then (Prescription)
  :(2.1)\nActivity\nView\nPrescription; 
else (Immunization\nSchedule) 
  :(2.2)\nActivity\nView\nImmunization\nSchedule; 
endif
|System|
stop
@enduml

PlantUML version 1.2022.7(Tue Aug 23 00:01:30 ICT 2022)
(GPL source distribution)
Java Runtime: Java(TM) SE Runtime Environment
JVM: Java HotSpot(TM) 64-Bit Server VM
Default Encoding: Cp1252
Language: en
Country: US
--></g></svg>