<?xml version="1.0" encoding="UTF-8" standalone="no"?><svg xmlns="http://www.w3.org/2000/svg" xmlns:xlink="http://www.w3.org/1999/xlink" contentStyleType="text/css" height="818px" preserveAspectRatio="none" style="width:471px;height:818px;background:#FFFFFF;" version="1.1" viewBox="0 0 471 818" width="471px" zoomAndPan="magnify"><defs/><g><rect fill="#F1F1F1" height="65.2813" rx="12.5" ry="12.5" style="stroke:#181818;stroke-width:0.5;" width="98" x="21" y="184.1074"/><text fill="#000000" font-family="sans-serif" font-size="12" lengthAdjust="spacing" textLength="74" x="31" y="206.5645">(2) Enters the</text><text fill="#000000" font-family="sans-serif" font-size="12" lengthAdjust="spacing" textLength="78" x="31" y="221.6582">search criteria</text><text fill="#000000" font-family="sans-serif" font-size="12" lengthAdjust="spacing" textLength="73" x="31" y="236.752">in search box</text><rect fill="#F1F1F1" height="65.2813" rx="12.5" ry="12.5" style="stroke:#181818;stroke-width:0.5;" width="92" x="24" y="503.7168"/><text fill="#000000" font-family="sans-serif" font-size="12" lengthAdjust="spacing" textLength="72" x="34" y="526.1738">(6) Select the</text><text fill="#000000" font-family="sans-serif" font-size="12" lengthAdjust="spacing" textLength="51" x="34" y="541.2676">schedule</text><text fill="#000000" font-family="sans-serif" font-size="12" lengthAdjust="spacing" textLength="66" x="34" y="556.3613">want to view</text><line style="stroke:#000000;stroke-width:1.5;" x1="15" x2="15" y1="12.4551" y2="806.4668"/><ellipse cx="222.5" cy="50.0957" fill="#222222" rx="10" ry="10" style="stroke:#222222;stroke-width:1.0;"/><rect fill="#F1F1F1" height="35.0938" rx="12.5" ry="12.5" style="stroke:#181818;stroke-width:0.5;" width="172" x="136.5" y="80.0957"/><text fill="#000000" font-family="sans-serif" font-size="12" lengthAdjust="spacing" textLength="152" x="146.5" y="102.5527">(1) Display list of schedules</text><rect fill="#F1F1F1" height="35.0938" rx="12.5" ry="12.5" style="stroke:#181818;stroke-width:0.5;" width="187" x="129" y="269.3887"/><text fill="#000000" font-family="sans-serif" font-size="12" lengthAdjust="spacing" textLength="167" x="139" y="291.8457">(3) Process searching request</text><rect fill="#F1F1F1" height="50.1875" rx="12.5" ry="12.5" style="stroke:#181818;stroke-width:0.5;" width="111" x="167" y="389.5293"/><text fill="#000000" font-family="sans-serif" font-size="12" lengthAdjust="spacing" textLength="91" x="177" y="411.9863">(5) Display list of</text><text fill="#000000" font-family="sans-serif" font-size="12" lengthAdjust="spacing" textLength="58" x="177" y="427.0801">schedules</text><polygon fill="#F1F1F1" points="222.5,135.1895,222.5,135.1895,234.5,147.1895,222.5,159.1895,222.5,159.1895,210.5,147.1895,222.5,135.1895" style="stroke:#181818;stroke-width:0.5;"/><text fill="#000000" font-family="sans-serif" font-size="11" lengthAdjust="spacing" textLength="35" x="226.5" y="170.6084">Search</text><text fill="#000000" font-family="sans-serif" font-size="11" lengthAdjust="spacing" textLength="50" x="234.5" y="144.7725">No search</text><polygon fill="#F1F1F1" points="222.5,459.7168,234.5,471.7168,222.5,483.7168,210.5,471.7168,222.5,459.7168" style="stroke:#181818;stroke-width:0.5;"/><rect fill="#F1F1F1" height="50.1875" rx="12.5" ry="12.5" style="stroke:#181818;stroke-width:0.5;" width="136" x="154.5" y="588.998"/><text fill="#000000" font-family="sans-serif" font-size="12" lengthAdjust="spacing" textLength="87" x="164.5" y="611.4551">(7) Get selected</text><text fill="#000000" font-family="sans-serif" font-size="12" lengthAdjust="spacing" textLength="116" x="164.5" y="626.5488">schedule information</text><rect fill="#F1F1F1" height="50.1875" rx="12.5" ry="12.5" style="stroke:#181818;stroke-width:0.5;" width="136" x="154.5" y="714.2793"/><text fill="#000000" font-family="sans-serif" font-size="12" lengthAdjust="spacing" textLength="109" x="164.5" y="736.7363">(9) Display selected</text><text fill="#000000" font-family="sans-serif" font-size="12" lengthAdjust="spacing" textLength="116" x="164.5" y="751.8301">schedule information</text><ellipse cx="222.5" cy="795.4668" fill="none" rx="11" ry="11" style="stroke:#222222;stroke-width:1.0;"/><ellipse cx="222.5" cy="795.4668" fill="#222222" rx="6" ry="6" style="stroke:#111111;stroke-width:1.0;"/><line style="stroke:#000000;stroke-width:1.5;" x1="123" x2="123" y1="12.4551" y2="806.4668"/><rect fill="#F1F1F1" height="35.0938" rx="12.5" ry="12.5" style="stroke:#181818;stroke-width:0.5;" width="97" x="351" y="334.4355"/><text fill="#000000" font-family="sans-serif" font-size="12" lengthAdjust="spacing" textLength="77" x="361" y="356.8926">(4) Query data</text><rect fill="#F1F1F1" height="35.0938" rx="12.5" ry="12.5" style="stroke:#181818;stroke-width:0.5;" width="97" x="351" y="659.1855"/><text fill="#000000" font-family="sans-serif" font-size="12" lengthAdjust="spacing" textLength="77" x="361" y="681.6426">(8) Query data</text><line style="stroke:#000000;stroke-width:1.5;" x1="345" x2="345" y1="12.4551" y2="806.4668"/><line style="stroke:#000000;stroke-width:1.5;" x1="452" x2="452" y1="12.4551" y2="806.4668"/><line style="stroke:#181818;stroke-width:1.0;" x1="222.5" x2="222.5" y1="60.0957" y2="80.0957"/><polygon fill="#181818" points="218.5,70.0957,222.5,80.0957,226.5,70.0957,222.5,74.0957" style="stroke:#181818;stroke-width:1.0;"/><line style="stroke:#181818;stroke-width:1.0;" x1="234.5" x2="326" y1="147.1895" y2="147.1895"/><polygon fill="#181818" points="322,304.4355,326,314.4355,330,304.4355,326,308.4355" style="stroke:#181818;stroke-width:1.0;"/><line style="stroke:#181818;stroke-width:1.0;" x1="326" x2="326" y1="147.1895" y2="471.7168"/><line style="stroke:#181818;stroke-width:1.0;" x1="326" x2="234.5" y1="471.7168" y2="471.7168"/><polygon fill="#181818" points="244.5,467.7168,234.5,471.7168,244.5,475.7168,240.5,471.7168" style="stroke:#181818;stroke-width:1.0;"/><line style="stroke:#181818;stroke-width:1.0;" x1="222.5" x2="222.5" y1="439.7168" y2="459.7168"/><polygon fill="#181818" points="218.5,449.7168,222.5,459.7168,226.5,449.7168,222.5,453.7168" style="stroke:#181818;stroke-width:1.0;"/><line style="stroke:#181818;stroke-width:1.0;" x1="222.5" x2="222.5" y1="115.1895" y2="135.1895"/><polygon fill="#181818" points="218.5,125.1895,222.5,135.1895,226.5,125.1895,222.5,129.1895" style="stroke:#181818;stroke-width:1.0;"/><line style="stroke:#181818;stroke-width:1.0;" x1="222.5" x2="222.5" y1="764.4668" y2="784.4668"/><polygon fill="#181818" points="218.5,774.4668,222.5,784.4668,226.5,774.4668,222.5,778.4668" style="stroke:#181818;stroke-width:1.0;"/><line style="stroke:#181818;stroke-width:1.0;" x1="70" x2="70" y1="249.3887" y2="254.3887"/><line style="stroke:#181818;stroke-width:1.0;" x1="70" x2="222.5" y1="254.3887" y2="254.3887"/><line style="stroke:#181818;stroke-width:1.0;" x1="222.5" x2="222.5" y1="254.3887" y2="269.3887"/><polygon fill="#181818" points="218.5,259.3887,222.5,269.3887,226.5,259.3887,222.5,263.3887" style="stroke:#181818;stroke-width:1.0;"/><line style="stroke:#181818;stroke-width:1.0;" x1="222.5" x2="222.5" y1="304.4824" y2="319.4355"/><line style="stroke:#181818;stroke-width:1.0;" x1="222.5" x2="399.5" y1="319.4355" y2="319.4355"/><line style="stroke:#181818;stroke-width:1.0;" x1="399.5" x2="399.5" y1="319.4355" y2="334.4355"/><polygon fill="#181818" points="395.5,324.4355,399.5,334.4355,403.5,324.4355,399.5,328.4355" style="stroke:#181818;stroke-width:1.0;"/><line style="stroke:#181818;stroke-width:1.0;" x1="399.5" x2="399.5" y1="369.5293" y2="374.5293"/><line style="stroke:#181818;stroke-width:1.0;" x1="399.5" x2="222.5" y1="374.5293" y2="374.5293"/><line style="stroke:#181818;stroke-width:1.0;" x1="222.5" x2="222.5" y1="374.5293" y2="389.5293"/><polygon fill="#181818" points="218.5,379.5293,222.5,389.5293,226.5,379.5293,222.5,383.5293" style="stroke:#181818;stroke-width:1.0;"/><line style="stroke:#181818;stroke-width:1.0;" x1="222.5" x2="222.5" y1="159.1895" y2="171.6484"/><line style="stroke:#181818;stroke-width:1.0;" x1="222.5" x2="70" y1="171.6484" y2="171.6484"/><line style="stroke:#181818;stroke-width:1.0;" x1="70" x2="70" y1="171.6484" y2="184.1074"/><polygon fill="#181818" points="66,174.1074,70,184.1074,74,174.1074,70,178.1074" style="stroke:#181818;stroke-width:1.0;"/><line style="stroke:#181818;stroke-width:1.0;" x1="222.5" x2="222.5" y1="483.7168" y2="488.7168"/><line style="stroke:#181818;stroke-width:1.0;" x1="222.5" x2="70" y1="488.7168" y2="488.7168"/><line style="stroke:#181818;stroke-width:1.0;" x1="70" x2="70" y1="488.7168" y2="503.7168"/><polygon fill="#181818" points="66,493.7168,70,503.7168,74,493.7168,70,497.7168" style="stroke:#181818;stroke-width:1.0;"/><line style="stroke:#181818;stroke-width:1.0;" x1="70" x2="70" y1="568.998" y2="573.998"/><line style="stroke:#181818;stroke-width:1.0;" x1="70" x2="222.5" y1="573.998" y2="573.998"/><line style="stroke:#181818;stroke-width:1.0;" x1="222.5" x2="222.5" y1="573.998" y2="588.998"/><polygon fill="#181818" points="218.5,578.998,222.5,588.998,226.5,578.998,222.5,582.998" style="stroke:#181818;stroke-width:1.0;"/><line style="stroke:#181818;stroke-width:1.0;" x1="222.5" x2="222.5" y1="639.1855" y2="644.1855"/><line style="stroke:#181818;stroke-width:1.0;" x1="222.5" x2="399.5" y1="644.1855" y2="644.1855"/><line style="stroke:#181818;stroke-width:1.0;" x1="399.5" x2="399.5" y1="644.1855" y2="659.1855"/><polygon fill="#181818" points="395.5,649.1855,399.5,659.1855,403.5,649.1855,399.5,653.1855" style="stroke:#181818;stroke-width:1.0;"/><line style="stroke:#181818;stroke-width:1.0;" x1="399.5" x2="399.5" y1="694.2793" y2="699.2793"/><line style="stroke:#181818;stroke-width:1.0;" x1="399.5" x2="222.5" y1="699.2793" y2="699.2793"/><line style="stroke:#181818;stroke-width:1.0;" x1="222.5" x2="222.5" y1="699.2793" y2="714.2793"/><polygon fill="#181818" points="218.5,704.2793,222.5,714.2793,226.5,704.2793,222.5,708.2793" style="stroke:#181818;stroke-width:1.0;"/><text fill="#000000" font-family="sans-serif" font-size="18" lengthAdjust="spacing" textLength="53" x="42.5" y="31.1406">Parent</text><text fill="#000000" font-family="sans-serif" font-size="18" lengthAdjust="spacing" textLength="59" x="204.5" y="31.1406">System</text><text fill="#000000" font-family="sans-serif" font-size="18" lengthAdjust="spacing" textLength="77" x="360" y="31.1406">Database</text><!--MD5=[17ed108f394b9b4581ecaf00f45c01c5]
@startuml ViewScheduleActi
|Parent|
|System|
start
:(1) Display list of schedules;
if () then (Search)
    |Parent|
    :(2) Enters the\nsearch criteria\nin search box;
    |System|
    :(3) Process searching request;
    |Database|
    :(4) Query data;
    |System|
    :(5) Display list of\nschedules;
else (No search)
endif
|Parent|
    :(6) Select the\nschedule\nwant to view;
    |System|
    :(7) Get selected\nschedule information;
    |Database| 
    :(8) Query data;
    |System|
    :(9) Display selected\nschedule information;
stop
@enduml

PlantUML version 1.2022.7(Tue Aug 23 00:01:30 ICT 2022)
(GPL source distribution)
Java Runtime: Java(TM) SE Runtime Environment
JVM: Java HotSpot(TM) 64-Bit Server VM
Default Encoding: Cp1252
Language: en
Country: US
--></g></svg>