<?xml version="1.0" encoding="UTF-8" standalone="no"?><svg xmlns="http://www.w3.org/2000/svg" xmlns:xlink="http://www.w3.org/1999/xlink" contentStyleType="text/css" height="1009px" preserveAspectRatio="none" style="width:781px;height:1009px;background:#FFFFFF;" version="1.1" viewBox="0 0 781 1009" width="781px" zoomAndPan="magnify"><defs/><g><rect fill="#FFFFFF" height="248.5938" style="stroke:#181818;stroke-width:1.0;" width="10" x="39" y="174.6641"/><rect fill="#FFFFFF" height="30" style="stroke:#181818;stroke-width:1.0;" width="10" x="131.5" y="940.3125"/><rect fill="#FFFFFF" height="763.6484" style="stroke:#181818;stroke-width:1.0;" width="10" x="256" y="139.3125"/><rect fill="#FFFFFF" height="28" style="stroke:#181818;stroke-width:1.0;" width="10" x="261" y="213.0156"/><rect fill="#FFFFFF" height="28" style="stroke:#181818;stroke-width:1.0;" width="10" x="261" y="342.0703"/><rect fill="#FFFFFF" height="28" style="stroke:#181818;stroke-width:1.0;" width="10" x="261" y="681.7188"/><rect fill="#FFFFFF" height="516.7031" style="stroke:#181818;stroke-width:1.0;" width="10" x="484" y="453.6094"/><rect fill="#FFFFFF" height="352.2969" style="stroke:#181818;stroke-width:1.0;" width="10" x="653" y="483.9609"/><rect fill="#FFFFFF" height="28" style="stroke:#181818;stroke-width:1.0;" width="10" x="658" y="522.3125"/><rect fill="#FFFFFF" height="28" style="stroke:#181818;stroke-width:1.0;" width="10" x="658" y="770.9063"/><rect fill="none" height="722.2969" style="stroke:#000000;stroke-width:1.5;" width="764" x="10" y="263.0156"/><rect fill="none" height="406" style="stroke:#000000;stroke-width:1.5;" width="697" x="68" y="572.3125"/><line style="stroke:#181818;stroke-width:0.5;stroke-dasharray:5.0,5.0;" x1="44" x2="44" y1="82.6094" y2="1002.3125"/><line style="stroke:#181818;stroke-width:0.5;stroke-dasharray:5.0,5.0;" x1="136" x2="136" y1="82.6094" y2="1002.3125"/><line style="stroke:#181818;stroke-width:0.5;stroke-dasharray:5.0,5.0;" x1="260.5" x2="260.5" y1="82.6094" y2="1002.3125"/><line style="stroke:#181818;stroke-width:0.5;stroke-dasharray:5.0,5.0;" x1="488.5" x2="488.5" y1="82.6094" y2="1002.3125"/><line style="stroke:#181818;stroke-width:0.5;stroke-dasharray:5.0,5.0;" x1="657.5" x2="657.5" y1="82.6094" y2="1002.3125"/><text fill="#000000" font-family="sans-serif" font-size="14" lengthAdjust="spacing" textLength="42" x="20" y="79.5332">Parent</text><ellipse cx="44" cy="13.5" fill="#E2E2F0" rx="8" ry="8" style="stroke:#181818;stroke-width:0.5;"/><path d="M44,21.5 L44,48.5 M31,29.5 L57,29.5 M44,48.5 L31,63.5 M44,48.5 L57,63.5 " fill="none" style="stroke:#181818;stroke-width:0.5;"/><text fill="#000000" font-family="sans-serif" font-size="14" lengthAdjust="spacing" textLength="61" x="103" y="61.9238">MealTime</text><text fill="#000000" font-family="sans-serif" font-size="14" lengthAdjust="spacing" textLength="111" x="78" y="79.5332">ManagementView</text><path d="M116,19.3906 L116,43.3906 M116,31.3906 L133,31.3906 " fill="none" style="stroke:#181818;stroke-width:0.5;"/><ellipse cx="145" cy="31.3906" fill="#E2E2F0" rx="12" ry="12" style="stroke:#181818;stroke-width:0.5;"/><text fill="#000000" font-family="sans-serif" font-size="14" lengthAdjust="spacing" textLength="61" x="227.5" y="61.9238">MealTime</text><text fill="#000000" font-family="sans-serif" font-size="14" lengthAdjust="spacing" textLength="99" x="208.5" y="79.5332">InformationView</text><path d="M240.5,19.3906 L240.5,43.3906 M240.5,31.3906 L257.5,31.3906 " fill="none" style="stroke:#181818;stroke-width:0.5;"/><ellipse cx="269.5" cy="31.3906" fill="#E2E2F0" rx="12" ry="12" style="stroke:#181818;stroke-width:0.5;"/><text fill="#000000" font-family="sans-serif" font-size="14" lengthAdjust="spacing" textLength="123" x="424.5" y="79.5332">MealTimeController</text><ellipse cx="489" cy="49" fill="#E2E2F0" rx="12" ry="12" style="stroke:#181818;stroke-width:0.5;"/><polygon fill="#181818" points="485,37,491,32,489,37,491,42,485,37" style="stroke:#181818;stroke-width:1.0;"/><text fill="#000000" font-family="sans-serif" font-size="14" lengthAdjust="spacing" textLength="69" x="620.5" y="79.5332">MEALTIME</text><ellipse cx="658" cy="49" fill="#E2E2F0" rx="12" ry="12" style="stroke:#181818;stroke-width:0.5;"/><line style="stroke:#181818;stroke-width:0.5;" x1="646" x2="670" y1="63" y2="63"/><rect fill="#FFFFFF" height="248.5938" style="stroke:#181818;stroke-width:1.0;" width="10" x="39" y="174.6641"/><rect fill="#FFFFFF" height="30" style="stroke:#181818;stroke-width:1.0;" width="10" x="131.5" y="940.3125"/><rect fill="#FFFFFF" height="763.6484" style="stroke:#181818;stroke-width:1.0;" width="10" x="256" y="139.3125"/><rect fill="#FFFFFF" height="28" style="stroke:#181818;stroke-width:1.0;" width="10" x="261" y="213.0156"/><rect fill="#FFFFFF" height="28" style="stroke:#181818;stroke-width:1.0;" width="10" x="261" y="342.0703"/><rect fill="#FFFFFF" height="28" style="stroke:#181818;stroke-width:1.0;" width="10" x="261" y="681.7188"/><rect fill="#FFFFFF" height="516.7031" style="stroke:#181818;stroke-width:1.0;" width="10" x="484" y="453.6094"/><rect fill="#FFFFFF" height="352.2969" style="stroke:#181818;stroke-width:1.0;" width="10" x="653" y="483.9609"/><rect fill="#FFFFFF" height="28" style="stroke:#181818;stroke-width:1.0;" width="10" x="658" y="522.3125"/><rect fill="#FFFFFF" height="28" style="stroke:#181818;stroke-width:1.0;" width="10" x="658" y="770.9063"/><line style="stroke:#181818;stroke-width:1.0;" x1="261" x2="308" y1="126.3125" y2="126.3125"/><line style="stroke:#181818;stroke-width:1.0;" x1="308" x2="308" y1="126.3125" y2="139.3125"/><line style="stroke:#181818;stroke-width:1.0;" x1="267" x2="308" y1="139.3125" y2="139.3125"/><polygon fill="#181818" points="277,135.3125,267,139.3125,277,143.3125,273,139.3125" style="stroke:#181818;stroke-width:1.0;"/><text fill="#000000" font-family="sans-serif" font-size="13" font-weight="bold" lengthAdjust="spacing" textLength="7" x="273" y="113.2803">1</text><text fill="#000000" font-family="sans-serif" font-size="13" lengthAdjust="spacing" textLength="70" x="284" y="105.1045">Display with</text><text fill="#000000" font-family="sans-serif" font-size="13" lengthAdjust="spacing" textLength="103" x="284" y="121.4561">empty information</text><polygon fill="#181818" points="244,170.6641,254,174.6641,244,178.6641,248,174.6641" style="stroke:#181818;stroke-width:1.0;"/><line style="stroke:#181818;stroke-width:1.0;" x1="49" x2="250" y1="174.6641" y2="174.6641"/><text fill="#000000" font-family="sans-serif" font-size="13" font-weight="bold" lengthAdjust="spacing" textLength="7" x="56" y="169.8076">2</text><text fill="#000000" font-family="sans-serif" font-size="13" lengthAdjust="spacing" textLength="159" x="67" y="169.8076">Enter meal time information</text><line style="stroke:#181818;stroke-width:1.0;" x1="271" x2="313" y1="205.0156" y2="205.0156"/><line style="stroke:#181818;stroke-width:1.0;" x1="313" x2="313" y1="205.0156" y2="218.0156"/><line style="stroke:#181818;stroke-width:1.0;" x1="272" x2="313" y1="218.0156" y2="218.0156"/><polygon fill="#181818" points="282,214.0156,272,218.0156,282,222.0156,278,218.0156" style="stroke:#181818;stroke-width:1.0;"/><text fill="#000000" font-family="sans-serif" font-size="13" font-weight="bold" lengthAdjust="spacing" textLength="7" x="278" y="200.1592">3</text><text fill="#000000" font-family="sans-serif" font-size="13" lengthAdjust="spacing" textLength="76" x="289" y="200.1592">Validate data</text><path d="M10,263.0156 L71,263.0156 L71,271.3672 L61,281.3672 L10,281.3672 L10,263.0156 " fill="#EEEEEE" style="stroke:#000000;stroke-width:1.5;"/><rect fill="none" height="722.2969" style="stroke:#000000;stroke-width:1.5;" width="764" x="10" y="263.0156"/><text fill="#000000" font-family="sans-serif" font-size="13" font-weight="bold" lengthAdjust="spacing" textLength="16" x="25" y="277.5107">alt</text><text fill="#000000" font-family="sans-serif" font-size="11" font-weight="bold" lengthAdjust="spacing" textLength="69" x="86" y="276.4346">[Invalid data]</text><polygon fill="#181818" points="60,299.7188,50,303.7188,60,307.7188,56,303.7188" style="stroke:#181818;stroke-width:1.0;"/><line style="stroke:#181818;stroke-width:1.0;stroke-dasharray:2.0,2.0;" x1="54" x2="255" y1="303.7188" y2="303.7188"/><text fill="#000000" font-family="sans-serif" font-size="13" font-weight="bold" lengthAdjust="spacing" textLength="7" x="66" y="298.8623">4</text><text fill="#000000" font-family="sans-serif" font-size="13" lengthAdjust="spacing" textLength="94" x="77" y="298.8623">Error notification</text><line style="stroke:#181818;stroke-width:1.0;" x1="271" x2="313" y1="334.0703" y2="334.0703"/><line style="stroke:#181818;stroke-width:1.0;" x1="313" x2="313" y1="334.0703" y2="347.0703"/><line style="stroke:#181818;stroke-width:1.0;" x1="272" x2="313" y1="347.0703" y2="347.0703"/><polygon fill="#181818" points="282,343.0703,272,347.0703,282,351.0703,278,347.0703" style="stroke:#181818;stroke-width:1.0;"/><text fill="#000000" font-family="sans-serif" font-size="13" font-weight="bold" lengthAdjust="spacing" textLength="7" x="278" y="329.2139">5</text><text fill="#000000" font-family="sans-serif" font-size="13" lengthAdjust="spacing" textLength="139" x="289" y="329.2139">Display error notification</text><line style="stroke:#000000;stroke-width:1.0;stroke-dasharray:2.0,2.0;" x1="10" x2="774" y1="386.0703" y2="386.0703"/><text fill="#000000" font-family="sans-serif" font-size="11" font-weight="bold" lengthAdjust="spacing" textLength="61" x="15" y="397.4893">[Valid data]</text><polygon fill="#181818" points="244,419.2578,254,423.2578,244,427.2578,248,423.2578" style="stroke:#181818;stroke-width:1.0;"/><line style="stroke:#181818;stroke-width:1.0;" x1="44" x2="250" y1="423.2578" y2="423.2578"/><text fill="#000000" font-family="sans-serif" font-size="13" font-weight="bold" lengthAdjust="spacing" textLength="7" x="51" y="418.4014">6</text><text fill="#000000" font-family="sans-serif" font-size="13" lengthAdjust="spacing" textLength="172" x="62" y="418.4014">Click button "Save" to confirm</text><polygon fill="#181818" points="472,449.6094,482,453.6094,472,457.6094,476,453.6094" style="stroke:#181818;stroke-width:1.0;"/><line style="stroke:#181818;stroke-width:1.0;" x1="266" x2="478" y1="453.6094" y2="453.6094"/><text fill="#000000" font-family="sans-serif" font-size="13" font-weight="bold" lengthAdjust="spacing" textLength="7" x="273" y="448.7529">7</text><text fill="#000000" font-family="sans-serif" font-size="13" lengthAdjust="spacing" textLength="188" x="284" y="448.7529">Send creating meal time request</text><polygon fill="#181818" points="641,479.9609,651,483.9609,641,487.9609,645,483.9609" style="stroke:#181818;stroke-width:1.0;"/><line style="stroke:#181818;stroke-width:1.0;" x1="494" x2="647" y1="483.9609" y2="483.9609"/><text fill="#000000" font-family="sans-serif" font-size="13" font-weight="bold" lengthAdjust="spacing" textLength="7" x="501" y="479.1045">8</text><text fill="#000000" font-family="sans-serif" font-size="13" lengthAdjust="spacing" textLength="97" x="512" y="479.1045">Send information</text><line style="stroke:#181818;stroke-width:1.0;" x1="668" x2="710" y1="514.3125" y2="514.3125"/><line style="stroke:#181818;stroke-width:1.0;" x1="710" x2="710" y1="514.3125" y2="527.3125"/><line style="stroke:#181818;stroke-width:1.0;" x1="669" x2="710" y1="527.3125" y2="527.3125"/><polygon fill="#181818" points="679,523.3125,669,527.3125,679,531.3125,675,527.3125" style="stroke:#181818;stroke-width:1.0;"/><text fill="#000000" font-family="sans-serif" font-size="13" font-weight="bold" lengthAdjust="spacing" textLength="7" x="675" y="509.4561">9</text><text fill="#000000" font-family="sans-serif" font-size="13" lengthAdjust="spacing" textLength="76" x="686" y="509.4561">Validate data</text><path d="M68,572.3125 L129,572.3125 L129,580.6641 L119,590.6641 L68,590.6641 L68,572.3125 " fill="#EEEEEE" style="stroke:#000000;stroke-width:1.5;"/><rect fill="none" height="406" style="stroke:#000000;stroke-width:1.5;" width="697" x="68" y="572.3125"/><text fill="#000000" font-family="sans-serif" font-size="13" font-weight="bold" lengthAdjust="spacing" textLength="16" x="83" y="586.8076">alt</text><text fill="#000000" font-family="sans-serif" font-size="11" font-weight="bold" lengthAdjust="spacing" textLength="69" x="144" y="585.7314">[Invalid data]</text><polygon fill="#181818" points="505,609.0156,495,613.0156,505,617.0156,501,613.0156" style="stroke:#181818;stroke-width:1.0;"/><line style="stroke:#181818;stroke-width:1.0;stroke-dasharray:2.0,2.0;" x1="499" x2="652" y1="613.0156" y2="613.0156"/><text fill="#000000" font-family="sans-serif" font-size="13" font-weight="bold" lengthAdjust="spacing" textLength="14" x="511" y="608.1592">10</text><text fill="#000000" font-family="sans-serif" font-size="13" lengthAdjust="spacing" textLength="94" x="529" y="608.1592">Error notification</text><polygon fill="#181818" points="277,639.3672,267,643.3672,277,647.3672,273,643.3672" style="stroke:#181818;stroke-width:1.0;"/><line style="stroke:#181818;stroke-width:1.0;stroke-dasharray:2.0,2.0;" x1="271" x2="483" y1="643.3672" y2="643.3672"/><text fill="#000000" font-family="sans-serif" font-size="13" font-weight="bold" lengthAdjust="spacing" textLength="14" x="283" y="638.5107">11</text><text fill="#000000" font-family="sans-serif" font-size="13" lengthAdjust="spacing" textLength="94" x="301" y="638.5107">Error notification</text><line style="stroke:#181818;stroke-width:1.0;" x1="271" x2="313" y1="673.7188" y2="673.7188"/><line style="stroke:#181818;stroke-width:1.0;" x1="313" x2="313" y1="673.7188" y2="686.7188"/><line style="stroke:#181818;stroke-width:1.0;" x1="272" x2="313" y1="686.7188" y2="686.7188"/><polygon fill="#181818" points="282,682.7188,272,686.7188,282,690.7188,278,686.7188" style="stroke:#181818;stroke-width:1.0;"/><text fill="#000000" font-family="sans-serif" font-size="13" font-weight="bold" lengthAdjust="spacing" textLength="14" x="278" y="668.8623">12</text><text fill="#000000" font-family="sans-serif" font-size="13" lengthAdjust="spacing" textLength="139" x="296" y="668.8623">Display error notification</text><line style="stroke:#000000;stroke-width:1.0;stroke-dasharray:2.0,2.0;" x1="68" x2="765" y1="725.7188" y2="725.7188"/><text fill="#000000" font-family="sans-serif" font-size="11" font-weight="bold" lengthAdjust="spacing" textLength="61" x="73" y="737.1377">[Valid data]</text><line style="stroke:#181818;stroke-width:1.0;" x1="668" x2="710" y1="762.9063" y2="762.9063"/><line style="stroke:#181818;stroke-width:1.0;" x1="710" x2="710" y1="762.9063" y2="775.9063"/><line style="stroke:#181818;stroke-width:1.0;" x1="669" x2="710" y1="775.9063" y2="775.9063"/><polygon fill="#181818" points="679,771.9063,669,775.9063,679,779.9063,675,775.9063" style="stroke:#181818;stroke-width:1.0;"/><text fill="#000000" font-family="sans-serif" font-size="13" font-weight="bold" lengthAdjust="spacing" textLength="14" x="675" y="758.0498">13</text><text fill="#000000" font-family="sans-serif" font-size="13" lengthAdjust="spacing" textLength="60" x="693" y="758.0498">Store data</text><polygon fill="#181818" points="505,832.2578,495,836.2578,505,840.2578,501,836.2578" style="stroke:#181818;stroke-width:1.0;"/><line style="stroke:#181818;stroke-width:1.0;stroke-dasharray:2.0,2.0;" x1="499" x2="657" y1="836.2578" y2="836.2578"/><text fill="#000000" font-family="sans-serif" font-size="13" font-weight="bold" lengthAdjust="spacing" textLength="14" x="511" y="831.4014">14</text><text fill="#000000" font-family="sans-serif" font-size="13" lengthAdjust="spacing" textLength="117" x="529" y="831.4014">Success notification</text><polygon fill="#181818" points="277,862.6094,267,866.6094,277,870.6094,273,866.6094" style="stroke:#181818;stroke-width:1.0;"/><line style="stroke:#181818;stroke-width:1.0;stroke-dasharray:2.0,2.0;" x1="271" x2="483" y1="866.6094" y2="866.6094"/><text fill="#000000" font-family="sans-serif" font-size="13" font-weight="bold" lengthAdjust="spacing" textLength="14" x="283" y="861.7529">15</text><text fill="#000000" font-family="sans-serif" font-size="13" lengthAdjust="spacing" textLength="117" x="301" y="861.7529">Success notification</text><line style="stroke:#181818;stroke-width:1.0;" x1="266" x2="308" y1="901.9609" y2="901.9609"/><line style="stroke:#181818;stroke-width:1.0;" x1="308" x2="308" y1="901.9609" y2="914.9609"/><line style="stroke:#181818;stroke-width:1.0;" x1="261" x2="308" y1="914.9609" y2="914.9609"/><polygon fill="#181818" points="271,910.9609,261,914.9609,271,918.9609,267,914.9609" style="stroke:#181818;stroke-width:1.0;"/><text fill="#000000" font-family="sans-serif" font-size="13" font-weight="bold" lengthAdjust="spacing" textLength="14" x="273" y="897.1045">16</text><text fill="#000000" font-family="sans-serif" font-size="13" lengthAdjust="spacing" textLength="61" x="291" y="897.1045">Close view</text><polygon fill="#181818" points="152.5,936.3125,142.5,940.3125,152.5,944.3125,148.5,940.3125" style="stroke:#181818;stroke-width:1.0;"/><line style="stroke:#181818;stroke-width:1.0;" x1="146.5" x2="483" y1="940.3125" y2="940.3125"/><text fill="#000000" font-family="sans-serif" font-size="13" font-weight="bold" lengthAdjust="spacing" textLength="14" x="158.5" y="935.4561">17</text><text fill="#000000" font-family="sans-serif" font-size="13" lengthAdjust="spacing" textLength="290" x="176.5" y="935.4561">Display success notification and list of meal times</text><!--MD5=[92eb9ac8921a3eee34b13a66d19ff9df]
@startuml CreateMealTimeSeq
autonumber
hide footbox

actor Parent
boundary "MealTime\nManagementView" as MealTimeManagementView
boundary "MealTime\nInformationView" as MealTimeInformationView
control MealTimeController
entity MEALTIME

MealTimeInformationView -> MealTimeInformationView: Display with \nempty information
activate MealTimeInformationView
Parent -> MealTimeInformationView: Enter meal time information  
activate Parent
MealTimeInformationView -> MealTimeInformationView: Validate data
activate MealTimeInformationView
deactivate MealTimeInformationView
alt Invalid data
    MealTimeInformationView - -> Parent: Error notification
    MealTimeInformationView -> MealTimeInformationView: Display error notification
    activate MealTimeInformationView
    deactivate MealTimeInformationView
else Valid data
    Parent -> MealTimeInformationView: Click button "Save" to confirm
    deactivate Parent
    MealTimeInformationView -> MealTimeController: Send creating meal time request
    activate MealTimeController
    MealTimeController -> MEALTIME: Send information
    activate MEALTIME
    MEALTIME -> MEALTIME: Validate data
    activate MEALTIME
    deactivate MEALTIME
    alt Invalid data
        MEALTIME - -> MealTimeController: Error notification
        MealTimeController - -> MealTimeInformationView: Error notification
        MealTimeInformationView -> MealTimeInformationView: Display error notification
        activate MealTimeInformationView
        deactivate MealTimeInformationView
    else Valid data
        MEALTIME -> MEALTIME: Store data
        activate MEALTIME
        deactivate MEALTIME
        MEALTIME - -> MealTimeController: Success notification
        deactivate MEALTIME
        MealTimeController - -> MealTimeInformationView: Success notification
        MealTimeInformationView -> MealTimeInformationView: Close view
        deactivate MealTimeInformationView
        MealTimeController -> MealTimeManagementView: Display success notification and list of meal times
        activate MealTimeManagementView
        deactivate MealTimeManagementView        
        deactivate MealTimeController
    end
end
@enduml

PlantUML version 1.2022.7(Tue Aug 23 00:01:30 ICT 2022)
(GPL source distribution)
Java Runtime: Java(TM) SE Runtime Environment
JVM: Java HotSpot(TM) 64-Bit Server VM
Default Encoding: Cp1252
Language: en
Country: US
--></g></svg>