<?xml version="1.0" encoding="UTF-8" standalone="no"?><svg xmlns="http://www.w3.org/2000/svg" xmlns:xlink="http://www.w3.org/1999/xlink" contentStyleType="text/css" height="1017px" preserveAspectRatio="none" style="width:745px;height:1017px;background:#FFFFFF;" version="1.1" viewBox="0 0 745 1017" width="745px" zoomAndPan="magnify"><defs/><g><rect fill="#FFFFFF" height="248.5938" style="stroke:#181818;stroke-width:1.0;" width="10" x="39" y="210.1094"/><rect fill="#FFFFFF" height="761" style="stroke:#181818;stroke-width:1.0;" width="10" x="211" y="210.1094"/><rect fill="#FFFFFF" height="28" style="stroke:#181818;stroke-width:1.0;" width="10" x="216" y="248.4609"/><rect fill="#FFFFFF" height="28" style="stroke:#181818;stroke-width:1.0;" width="10" x="216" y="377.5156"/><rect fill="#FFFFFF" height="28" style="stroke:#181818;stroke-width:1.0;" width="10" x="216" y="733.5156"/><rect fill="#FFFFFF" height="413" style="stroke:#181818;stroke-width:1.0;" width="10" x="441" y="505.4063"/><rect fill="#FFFFFF" height="352.2969" style="stroke:#181818;stroke-width:1.0;" width="10" x="610" y="535.7578"/><rect fill="#FFFFFF" height="28" style="stroke:#181818;stroke-width:1.0;" width="10" x="615" y="574.1094"/><rect fill="#FFFFFF" height="28" style="stroke:#181818;stroke-width:1.0;" width="10" x="615" y="822.7031"/><rect fill="none" height="64.7969" style="stroke:#000000;stroke-width:1.5;" width="652.5" x="10" y="99.6094"/><rect fill="none" height="694.6484" style="stroke:#000000;stroke-width:1.5;" width="728" x="10" y="298.4609"/><rect fill="none" height="362" style="stroke:#000000;stroke-width:1.5;" width="611" x="117" y="624.1094"/><line style="stroke:#181818;stroke-width:0.5;stroke-dasharray:5.0,5.0;" x1="44" x2="44" y1="82.6094" y2="1010.1094"/><line style="stroke:#181818;stroke-width:0.5;stroke-dasharray:5.0,5.0;" x1="216" x2="216" y1="82.6094" y2="1010.1094"/><line style="stroke:#181818;stroke-width:0.5;stroke-dasharray:5.0,5.0;" x1="445.5" x2="445.5" y1="82.6094" y2="1010.1094"/><line style="stroke:#181818;stroke-width:0.5;stroke-dasharray:5.0,5.0;" x1="614.5" x2="614.5" y1="82.6094" y2="1010.1094"/><text fill="#000000" font-family="sans-serif" font-size="14" lengthAdjust="spacing" textLength="42" x="20" y="79.5332">Parent</text><ellipse cx="44" cy="13.5" fill="#E2E2F0" rx="8" ry="8" style="stroke:#181818;stroke-width:0.5;"/><path d="M44,21.5 L44,48.5 M31,29.5 L57,29.5 M44,48.5 L31,63.5 M44,48.5 L57,63.5 " fill="none" style="stroke:#181818;stroke-width:0.5;"/><text fill="#000000" font-family="sans-serif" font-size="14" lengthAdjust="spacing" textLength="172" x="127" y="79.5332">MealTimeManagementView</text><path d="M195.5,37 L195.5,61 M195.5,49 L212.5,49 " fill="none" style="stroke:#181818;stroke-width:0.5;"/><ellipse cx="224.5" cy="49" fill="#E2E2F0" rx="12" ry="12" style="stroke:#181818;stroke-width:0.5;"/><text fill="#000000" font-family="sans-serif" font-size="14" lengthAdjust="spacing" textLength="123" x="381.5" y="79.5332">MealTimeController</text><ellipse cx="446" cy="49" fill="#E2E2F0" rx="12" ry="12" style="stroke:#181818;stroke-width:0.5;"/><polygon fill="#181818" points="442,37,448,32,446,37,448,42,442,37" style="stroke:#181818;stroke-width:1.0;"/><text fill="#000000" font-family="sans-serif" font-size="14" lengthAdjust="spacing" textLength="69" x="577.5" y="79.5332">MEALTIME</text><ellipse cx="615" cy="49" fill="#E2E2F0" rx="12" ry="12" style="stroke:#181818;stroke-width:0.5;"/><line style="stroke:#181818;stroke-width:0.5;" x1="603" x2="627" y1="63" y2="63"/><rect fill="#FFFFFF" height="248.5938" style="stroke:#181818;stroke-width:1.0;" width="10" x="39" y="210.1094"/><rect fill="#FFFFFF" height="761" style="stroke:#181818;stroke-width:1.0;" width="10" x="211" y="210.1094"/><rect fill="#FFFFFF" height="28" style="stroke:#181818;stroke-width:1.0;" width="10" x="216" y="248.4609"/><rect fill="#FFFFFF" height="28" style="stroke:#181818;stroke-width:1.0;" width="10" x="216" y="377.5156"/><rect fill="#FFFFFF" height="28" style="stroke:#181818;stroke-width:1.0;" width="10" x="216" y="733.5156"/><rect fill="#FFFFFF" height="413" style="stroke:#181818;stroke-width:1.0;" width="10" x="441" y="505.4063"/><rect fill="#FFFFFF" height="352.2969" style="stroke:#181818;stroke-width:1.0;" width="10" x="610" y="535.7578"/><rect fill="#FFFFFF" height="28" style="stroke:#181818;stroke-width:1.0;" width="10" x="615" y="574.1094"/><rect fill="#FFFFFF" height="28" style="stroke:#181818;stroke-width:1.0;" width="10" x="615" y="822.7031"/><path d="M10,99.6094 L75,99.6094 L75,107.9609 L65,117.9609 L10,117.9609 L10,99.6094 " fill="#EEEEEE" style="stroke:#000000;stroke-width:1.5;"/><rect fill="none" height="64.7969" style="stroke:#000000;stroke-width:1.5;" width="652.5" x="10" y="99.6094"/><text fill="#000000" font-family="sans-serif" font-size="13" font-weight="bold" lengthAdjust="spacing" textLength="20" x="25" y="114.1045">opt</text><text fill="#000000" font-family="sans-serif" font-size="11" font-weight="bold" lengthAdjust="spacing" textLength="46" x="90" y="113.0283">[Search]</text><rect fill="none" height="41.4453" style="stroke:#000000;stroke-width:1.5;" width="638.5" x="17" y="117.9609"/><path d="M17,117.9609 L79,117.9609 L79,125.9609 L69,135.9609 L17,135.9609 L17,117.9609 " fill="#EEEEEE" style="stroke:#000000;stroke-width:2.0;"/><text fill="#000000" font-family="sans-serif" font-size="13" font-weight="bold" lengthAdjust="spacing" textLength="17" x="30" y="133.4561">ref</text><text fill="#000000" font-family="sans-serif" font-size="12" lengthAdjust="spacing" textLength="155" x="258.75" y="152.418">Sequence Search MealTime</text><polygon fill="#181818" points="199,206.1094,209,210.1094,199,214.1094,203,210.1094" style="stroke:#181818;stroke-width:1.0;"/><line style="stroke:#181818;stroke-width:1.0;" x1="49" x2="205" y1="210.1094" y2="210.1094"/><text fill="#000000" font-family="sans-serif" font-size="13" font-weight="bold" lengthAdjust="spacing" textLength="7" x="56" y="197.0771">1</text><text fill="#000000" font-family="sans-serif" font-size="13" lengthAdjust="spacing" textLength="69" x="67" y="188.9014">Select meal</text><text fill="#000000" font-family="sans-serif" font-size="13" lengthAdjust="spacing" textLength="84" x="71" y="205.2529">needs deleting</text><line style="stroke:#181818;stroke-width:1.0;" x1="226" x2="268" y1="240.4609" y2="240.4609"/><line style="stroke:#181818;stroke-width:1.0;" x1="268" x2="268" y1="240.4609" y2="253.4609"/><line style="stroke:#181818;stroke-width:1.0;" x1="227" x2="268" y1="253.4609" y2="253.4609"/><polygon fill="#181818" points="237,249.4609,227,253.4609,237,257.4609,233,253.4609" style="stroke:#181818;stroke-width:1.0;"/><text fill="#000000" font-family="sans-serif" font-size="13" font-weight="bold" lengthAdjust="spacing" textLength="7" x="233" y="235.6045">2</text><text fill="#000000" font-family="sans-serif" font-size="13" lengthAdjust="spacing" textLength="195" x="244" y="235.6045">Display confirmation messagebox</text><path d="M10,298.4609 L71,298.4609 L71,306.8125 L61,316.8125 L10,316.8125 L10,298.4609 " fill="#EEEEEE" style="stroke:#000000;stroke-width:1.5;"/><rect fill="none" height="694.6484" style="stroke:#000000;stroke-width:1.5;" width="728" x="10" y="298.4609"/><text fill="#000000" font-family="sans-serif" font-size="13" font-weight="bold" lengthAdjust="spacing" textLength="16" x="25" y="312.9561">alt</text><text fill="#000000" font-family="sans-serif" font-size="11" font-weight="bold" lengthAdjust="spacing" textLength="45" x="86" y="311.8799">[Cancel]</text><polygon fill="#181818" points="199,335.1641,209,339.1641,199,343.1641,203,339.1641" style="stroke:#181818;stroke-width:1.0;"/><line style="stroke:#181818;stroke-width:1.0;" x1="49" x2="205" y1="339.1641" y2="339.1641"/><text fill="#000000" font-family="sans-serif" font-size="13" font-weight="bold" lengthAdjust="spacing" textLength="7" x="56" y="334.3076">3</text><text fill="#000000" font-family="sans-serif" font-size="13" lengthAdjust="spacing" textLength="123" x="67" y="334.3076">Click "Cancel" button</text><line style="stroke:#181818;stroke-width:1.0;" x1="226" x2="268" y1="369.5156" y2="369.5156"/><line style="stroke:#181818;stroke-width:1.0;" x1="268" x2="268" y1="369.5156" y2="382.5156"/><line style="stroke:#181818;stroke-width:1.0;" x1="227" x2="268" y1="382.5156" y2="382.5156"/><polygon fill="#181818" points="237,378.5156,227,382.5156,237,386.5156,233,382.5156" style="stroke:#181818;stroke-width:1.0;"/><text fill="#000000" font-family="sans-serif" font-size="13" font-weight="bold" lengthAdjust="spacing" textLength="7" x="233" y="364.6592">4</text><text fill="#000000" font-family="sans-serif" font-size="13" lengthAdjust="spacing" textLength="189" x="244" y="364.6592">Close confirmation message box</text><line style="stroke:#000000;stroke-width:1.0;stroke-dasharray:2.0,2.0;" x1="10" x2="738" y1="421.5156" y2="421.5156"/><text fill="#000000" font-family="sans-serif" font-size="11" font-weight="bold" lengthAdjust="spacing" textLength="53" x="15" y="432.9346">[Confirm]</text><polygon fill="#181818" points="199,454.7031,209,458.7031,199,462.7031,203,458.7031" style="stroke:#181818;stroke-width:1.0;"/><line style="stroke:#181818;stroke-width:1.0;" x1="44" x2="205" y1="458.7031" y2="458.7031"/><text fill="#000000" font-family="sans-serif" font-size="13" font-weight="bold" lengthAdjust="spacing" textLength="7" x="51" y="453.8467">5</text><text fill="#000000" font-family="sans-serif" font-size="13" lengthAdjust="spacing" textLength="127" x="62" y="453.8467">Click "Confirm" button</text><polygon fill="#181818" points="429,501.4063,439,505.4063,429,509.4063,433,505.4063" style="stroke:#181818;stroke-width:1.0;"/><line style="stroke:#181818;stroke-width:1.0;" x1="221" x2="435" y1="505.4063" y2="505.4063"/><text fill="#000000" font-family="sans-serif" font-size="13" font-weight="bold" lengthAdjust="spacing" textLength="7" x="228" y="492.374">6</text><text fill="#000000" font-family="sans-serif" font-size="13" lengthAdjust="spacing" textLength="79" x="239" y="484.1982">Send deleting</text><text fill="#000000" font-family="sans-serif" font-size="13" lengthAdjust="spacing" textLength="128" x="239" y="500.5498">selected meal request</text><polygon fill="#181818" points="598,531.7578,608,535.7578,598,539.7578,602,535.7578" style="stroke:#181818;stroke-width:1.0;"/><line style="stroke:#181818;stroke-width:1.0;" x1="451" x2="604" y1="535.7578" y2="535.7578"/><text fill="#000000" font-family="sans-serif" font-size="13" font-weight="bold" lengthAdjust="spacing" textLength="7" x="458" y="530.9014">7</text><text fill="#000000" font-family="sans-serif" font-size="13" lengthAdjust="spacing" textLength="122" x="469" y="530.9014">Delete selected meal</text><line style="stroke:#181818;stroke-width:1.0;" x1="625" x2="667" y1="566.1094" y2="566.1094"/><line style="stroke:#181818;stroke-width:1.0;" x1="667" x2="667" y1="566.1094" y2="579.1094"/><line style="stroke:#181818;stroke-width:1.0;" x1="626" x2="667" y1="579.1094" y2="579.1094"/><polygon fill="#181818" points="636,575.1094,626,579.1094,636,583.1094,632,579.1094" style="stroke:#181818;stroke-width:1.0;"/><text fill="#000000" font-family="sans-serif" font-size="13" font-weight="bold" lengthAdjust="spacing" textLength="7" x="632" y="561.2529">8</text><text fill="#000000" font-family="sans-serif" font-size="13" lengthAdjust="spacing" textLength="76" x="643" y="561.2529">Validate data</text><path d="M117,624.1094 L178,624.1094 L178,632.4609 L168,642.4609 L117,642.4609 L117,624.1094 " fill="#EEEEEE" style="stroke:#000000;stroke-width:1.5;"/><rect fill="none" height="362" style="stroke:#000000;stroke-width:1.5;" width="611" x="117" y="624.1094"/><text fill="#000000" font-family="sans-serif" font-size="13" font-weight="bold" lengthAdjust="spacing" textLength="16" x="132" y="638.6045">alt</text><text fill="#000000" font-family="sans-serif" font-size="11" font-weight="bold" lengthAdjust="spacing" textLength="69" x="193" y="637.5283">[Invalid data]</text><polygon fill="#181818" points="462,660.8125,452,664.8125,462,668.8125,458,664.8125" style="stroke:#181818;stroke-width:1.0;"/><line style="stroke:#181818;stroke-width:1.0;stroke-dasharray:2.0,2.0;" x1="456" x2="609" y1="664.8125" y2="664.8125"/><text fill="#000000" font-family="sans-serif" font-size="13" font-weight="bold" lengthAdjust="spacing" textLength="7" x="468" y="659.9561">9</text><text fill="#000000" font-family="sans-serif" font-size="13" lengthAdjust="spacing" textLength="94" x="479" y="659.9561">Error notification</text><polygon fill="#181818" points="232,691.1641,222,695.1641,232,699.1641,228,695.1641" style="stroke:#181818;stroke-width:1.0;"/><line style="stroke:#181818;stroke-width:1.0;stroke-dasharray:2.0,2.0;" x1="226" x2="440" y1="695.1641" y2="695.1641"/><text fill="#000000" font-family="sans-serif" font-size="13" font-weight="bold" lengthAdjust="spacing" textLength="14" x="238" y="690.3076">10</text><text fill="#000000" font-family="sans-serif" font-size="13" lengthAdjust="spacing" textLength="94" x="256" y="690.3076">Error notification</text><line style="stroke:#181818;stroke-width:1.0;" x1="226" x2="268" y1="725.5156" y2="725.5156"/><line style="stroke:#181818;stroke-width:1.0;" x1="268" x2="268" y1="725.5156" y2="738.5156"/><line style="stroke:#181818;stroke-width:1.0;" x1="227" x2="268" y1="738.5156" y2="738.5156"/><polygon fill="#181818" points="237,734.5156,227,738.5156,237,742.5156,233,738.5156" style="stroke:#181818;stroke-width:1.0;"/><text fill="#000000" font-family="sans-serif" font-size="13" font-weight="bold" lengthAdjust="spacing" textLength="14" x="233" y="720.6592">11</text><text fill="#000000" font-family="sans-serif" font-size="13" lengthAdjust="spacing" textLength="139" x="251" y="720.6592">Display error notification</text><line style="stroke:#000000;stroke-width:1.0;stroke-dasharray:2.0,2.0;" x1="117" x2="728" y1="777.5156" y2="777.5156"/><text fill="#000000" font-family="sans-serif" font-size="11" font-weight="bold" lengthAdjust="spacing" textLength="61" x="122" y="788.9346">[Valid data]</text><line style="stroke:#181818;stroke-width:1.0;" x1="625" x2="667" y1="814.7031" y2="814.7031"/><line style="stroke:#181818;stroke-width:1.0;" x1="667" x2="667" y1="814.7031" y2="827.7031"/><line style="stroke:#181818;stroke-width:1.0;" x1="626" x2="667" y1="827.7031" y2="827.7031"/><polygon fill="#181818" points="636,823.7031,626,827.7031,636,831.7031,632,827.7031" style="stroke:#181818;stroke-width:1.0;"/><text fill="#000000" font-family="sans-serif" font-size="13" font-weight="bold" lengthAdjust="spacing" textLength="14" x="632" y="809.8467">12</text><text fill="#000000" font-family="sans-serif" font-size="13" lengthAdjust="spacing" textLength="66" x="650" y="809.8467">Delete data</text><polygon fill="#181818" points="462,884.0547,452,888.0547,462,892.0547,458,888.0547" style="stroke:#181818;stroke-width:1.0;"/><line style="stroke:#181818;stroke-width:1.0;stroke-dasharray:2.0,2.0;" x1="456" x2="614" y1="888.0547" y2="888.0547"/><text fill="#000000" font-family="sans-serif" font-size="13" font-weight="bold" lengthAdjust="spacing" textLength="14" x="468" y="883.1982">13</text><text fill="#000000" font-family="sans-serif" font-size="13" lengthAdjust="spacing" textLength="117" x="486" y="883.1982">Success notification</text><polygon fill="#181818" points="232,914.4063,222,918.4063,232,922.4063,228,918.4063" style="stroke:#181818;stroke-width:1.0;"/><line style="stroke:#181818;stroke-width:1.0;stroke-dasharray:2.0,2.0;" x1="226" x2="445" y1="918.4063" y2="918.4063"/><text fill="#000000" font-family="sans-serif" font-size="13" font-weight="bold" lengthAdjust="spacing" textLength="14" x="238" y="913.5498">14</text><text fill="#000000" font-family="sans-serif" font-size="13" lengthAdjust="spacing" textLength="94" x="256" y="913.5498">Error notification</text><line style="stroke:#181818;stroke-width:1.0;" x1="221" x2="263" y1="970.1094" y2="970.1094"/><line style="stroke:#181818;stroke-width:1.0;" x1="263" x2="263" y1="970.1094" y2="983.1094"/><line style="stroke:#181818;stroke-width:1.0;" x1="216" x2="263" y1="983.1094" y2="983.1094"/><polygon fill="#181818" points="226,979.1094,216,983.1094,226,987.1094,222,983.1094" style="stroke:#181818;stroke-width:1.0;"/><text fill="#000000" font-family="sans-serif" font-size="13" font-weight="bold" lengthAdjust="spacing" textLength="14" x="228" y="957.0771">15</text><text fill="#000000" font-family="sans-serif" font-size="13" lengthAdjust="spacing" textLength="162" x="246" y="948.9014">Display success notification</text><text fill="#000000" font-family="sans-serif" font-size="13" lengthAdjust="spacing" textLength="95" x="246" y="965.2529">and list of meals</text><!--MD5=[b6f6aa2f5896f01da0412a2e061454a8]
@startuml DeleteMealTimeSeq
autonumber
hide footbox

actor Parent
boundary MealTimeManagementView
control MealTimeController
entity MEALTIME

opt Search
ref over Parent, MealTimeManagementView, MealTimeController, MEALTIME: Sequence Search MealTime
end 

Parent -> MealTimeManagementView: Select meal\n needs deleting
activate Parent
activate MealTimeManagementView
MealTimeManagementView -> MealTimeManagementView: Display confirmation messagebox
activate MealTimeManagementView
deactivate MealTimeManagementView
alt Cancel  
    Parent -> MealTimeManagementView: Click "Cancel" button
    MealTimeManagementView -> MealTimeManagementView: Close confirmation message box
    activate MealTimeManagementView
    deactivate MealTimeManagementView
else Confirm
    Parent -> MealTimeManagementView: Click "Confirm" button
    deactivate Parent
    MealTimeManagementView -> MealTimeController: Send deleting\nselected meal request
    activate MealTimeController
    MealTimeController -> MEALTIME: Delete selected meal
    activate MEALTIME
    MEALTIME -> MEALTIME: Validate data
    activate MEALTIME
    deactivate MEALTIME
    alt Invalid data
        MEALTIME - -> MealTimeController: Error notification
        MealTimeController - -> MealTimeManagementView: Error notification
        MealTimeManagementView -> MealTimeManagementView: Display error notification
        activate MealTimeManagementView
        deactivate MealTimeManagementView
    else Valid data
        MEALTIME -> MEALTIME: Delete data
        activate MEALTIME
        deactivate MEALTIME
        MEALTIME - -> MealTimeController: Success notification
        deactivate MEALTIME
        MealTimeController - -> MealTimeManagementView: Error notification
        deactivate MealTimeController
        MealTimeManagementView -> MealTimeManagementView: Display success notification\nand list of meals
        deactivate MealTimeManagementView
    end
end
@enduml

PlantUML version 1.2022.7(Tue Aug 23 00:01:30 ICT 2022)
(GPL source distribution)
Java Runtime: Java(TM) SE Runtime Environment
JVM: Java HotSpot(TM) 64-Bit Server VM
Default Encoding: Cp1252
Language: en
Country: US
--></g></svg>