<?xml version="1.0" encoding="UTF-8" standalone="no"?><svg xmlns="http://www.w3.org/2000/svg" xmlns:xlink="http://www.w3.org/1999/xlink" contentStyleType="text/css" height="457px" preserveAspectRatio="none" style="width:593px;height:457px;background:#FFFFFF;" version="1.1" viewBox="0 0 593 457" width="593px" zoomAndPan="magnify"><defs/><g><rect fill="#FFFFFF" height="30" style="stroke:#181818;stroke-width:1.0;" width="10" x="24" y="131.3125"/><rect fill="#FFFFFF" height="293.8125" style="stroke:#181818;stroke-width:1.0;" width="10" x="180" y="131.3125"/><rect fill="#FFFFFF" height="180.7578" style="stroke:#181818;stroke-width:1.0;" width="10" x="343.5" y="208.0156"/><rect fill="#FFFFFF" height="103.7031" style="stroke:#181818;stroke-width:1.0;" width="10" x="489.5" y="254.7188"/><rect fill="#FFFFFF" height="28" style="stroke:#181818;stroke-width:1.0;" width="10" x="494.5" y="293.0703"/><line style="stroke:#181818;stroke-width:0.5;stroke-dasharray:5.0,5.0;" x1="29" x2="29" y1="82.6094" y2="450.125"/><line style="stroke:#181818;stroke-width:0.5;stroke-dasharray:5.0,5.0;" x1="185" x2="185" y1="82.6094" y2="450.125"/><line style="stroke:#181818;stroke-width:0.5;stroke-dasharray:5.0,5.0;" x1="348" x2="348" y1="82.6094" y2="450.125"/><line style="stroke:#181818;stroke-width:0.5;stroke-dasharray:5.0,5.0;" x1="494" x2="494" y1="82.6094" y2="450.125"/><text fill="#000000" font-family="sans-serif" font-size="14" lengthAdjust="spacing" textLength="42" x="5" y="79.5332">Parent</text><ellipse cx="29" cy="13.5" fill="#E2E2F0" rx="8" ry="8" style="stroke:#181818;stroke-width:0.5;"/><path d="M29,21.5 L29,48.5 M16,29.5 L42,29.5 M29,48.5 L16,63.5 M29,48.5 L42,63.5 " fill="none" style="stroke:#181818;stroke-width:0.5;"/><text fill="#000000" font-family="sans-serif" font-size="14" lengthAdjust="spacing" textLength="172" x="96" y="79.5332">MealTimeManagementView</text><path d="M164.5,37 L164.5,61 M164.5,49 L181.5,49 " fill="none" style="stroke:#181818;stroke-width:0.5;"/><ellipse cx="193.5" cy="49" fill="#E2E2F0" rx="12" ry="12" style="stroke:#181818;stroke-width:0.5;"/><text fill="#000000" font-family="sans-serif" font-size="14" lengthAdjust="spacing" textLength="123" x="284" y="79.5332">MealTimeController</text><ellipse cx="348.5" cy="49" fill="#E2E2F0" rx="12" ry="12" style="stroke:#181818;stroke-width:0.5;"/><polygon fill="#181818" points="344.5,37,350.5,32,348.5,37,350.5,42,344.5,37" style="stroke:#181818;stroke-width:1.0;"/><text fill="#000000" font-family="sans-serif" font-size="14" lengthAdjust="spacing" textLength="69" x="457" y="79.5332">MEALTIME</text><ellipse cx="494.5" cy="49" fill="#E2E2F0" rx="12" ry="12" style="stroke:#181818;stroke-width:0.5;"/><line style="stroke:#181818;stroke-width:0.5;" x1="482.5" x2="506.5" y1="63" y2="63"/><rect fill="#FFFFFF" height="30" style="stroke:#181818;stroke-width:1.0;" width="10" x="24" y="131.3125"/><rect fill="#FFFFFF" height="293.8125" style="stroke:#181818;stroke-width:1.0;" width="10" x="180" y="131.3125"/><rect fill="#FFFFFF" height="180.7578" style="stroke:#181818;stroke-width:1.0;" width="10" x="343.5" y="208.0156"/><rect fill="#FFFFFF" height="103.7031" style="stroke:#181818;stroke-width:1.0;" width="10" x="489.5" y="254.7188"/><rect fill="#FFFFFF" height="28" style="stroke:#181818;stroke-width:1.0;" width="10" x="494.5" y="293.0703"/><polygon fill="#181818" points="168,127.3125,178,131.3125,168,135.3125,172,131.3125" style="stroke:#181818;stroke-width:1.0;"/><line style="stroke:#181818;stroke-width:1.0;" x1="34" x2="174" y1="131.3125" y2="131.3125"/><text fill="#000000" font-family="sans-serif" font-size="13" font-weight="bold" lengthAdjust="spacing" textLength="7" x="41" y="118.2803">1</text><text fill="#000000" font-family="sans-serif" font-size="13" lengthAdjust="spacing" textLength="103" x="52" y="110.1045">Enters the search</text><text fill="#000000" font-family="sans-serif" font-size="13" lengthAdjust="spacing" textLength="121" x="52" y="126.4561">criteria in search box</text><polygon fill="#181818" points="331.5,204.0156,341.5,208.0156,331.5,212.0156,335.5,208.0156" style="stroke:#181818;stroke-width:1.0;"/><line style="stroke:#181818;stroke-width:1.0;" x1="190" x2="337.5" y1="208.0156" y2="208.0156"/><text fill="#000000" font-family="sans-serif" font-size="13" font-weight="bold" lengthAdjust="spacing" textLength="7" x="197" y="194.9834">2</text><text fill="#000000" font-family="sans-serif" font-size="13" lengthAdjust="spacing" textLength="122" x="208" y="186.8076">Send searching meal</text><text fill="#000000" font-family="sans-serif" font-size="13" lengthAdjust="spacing" textLength="110" x="208" y="203.1592">information request</text><polygon fill="#181818" points="477.5,250.7188,487.5,254.7188,477.5,258.7188,481.5,254.7188" style="stroke:#181818;stroke-width:1.0;"/><line style="stroke:#181818;stroke-width:1.0;" x1="353.5" x2="483.5" y1="254.7188" y2="254.7188"/><text fill="#000000" font-family="sans-serif" font-size="13" font-weight="bold" lengthAdjust="spacing" textLength="7" x="360.5" y="241.6865">3</text><text fill="#000000" font-family="sans-serif" font-size="13" lengthAdjust="spacing" textLength="105" x="371.5" y="233.5107">Search meal base</text><text fill="#000000" font-family="sans-serif" font-size="13" lengthAdjust="spacing" textLength="106" x="371.5" y="249.8623">on given keywords</text><line style="stroke:#181818;stroke-width:1.0;" x1="504.5" x2="546.5" y1="285.0703" y2="285.0703"/><line style="stroke:#181818;stroke-width:1.0;" x1="546.5" x2="546.5" y1="285.0703" y2="298.0703"/><line style="stroke:#181818;stroke-width:1.0;" x1="505.5" x2="546.5" y1="298.0703" y2="298.0703"/><polygon fill="#181818" points="515.5,294.0703,505.5,298.0703,515.5,302.0703,511.5,298.0703" style="stroke:#181818;stroke-width:1.0;"/><text fill="#000000" font-family="sans-serif" font-size="13" font-weight="bold" lengthAdjust="spacing" textLength="7" x="511.5" y="280.2139">4</text><text fill="#000000" font-family="sans-serif" font-size="13" lengthAdjust="spacing" textLength="64" x="522.5" y="280.2139">Query data</text><polygon fill="#181818" points="364.5,354.4219,354.5,358.4219,364.5,362.4219,360.5,358.4219" style="stroke:#181818;stroke-width:1.0;"/><line style="stroke:#181818;stroke-width:1.0;stroke-dasharray:2.0,2.0;" x1="358.5" x2="493.5" y1="358.4219" y2="358.4219"/><text fill="#000000" font-family="sans-serif" font-size="13" font-weight="bold" lengthAdjust="spacing" textLength="7" x="370.5" y="353.5654">5</text><text fill="#000000" font-family="sans-serif" font-size="13" lengthAdjust="spacing" textLength="71" x="381.5" y="353.5654">Query result</text><polygon fill="#181818" points="201,384.7734,191,388.7734,201,392.7734,197,388.7734" style="stroke:#181818;stroke-width:1.0;"/><line style="stroke:#181818;stroke-width:1.0;stroke-dasharray:2.0,2.0;" x1="195" x2="347.5" y1="388.7734" y2="388.7734"/><text fill="#000000" font-family="sans-serif" font-size="13" font-weight="bold" lengthAdjust="spacing" textLength="7" x="207" y="383.917">6</text><text fill="#000000" font-family="sans-serif" font-size="13" lengthAdjust="spacing" textLength="71" x="218" y="383.917">Query result</text><line style="stroke:#181818;stroke-width:1.0;" x1="190" x2="232" y1="424.125" y2="424.125"/><line style="stroke:#181818;stroke-width:1.0;" x1="232" x2="232" y1="424.125" y2="437.125"/><line style="stroke:#181818;stroke-width:1.0;" x1="185" x2="232" y1="437.125" y2="437.125"/><polygon fill="#181818" points="195,433.125,185,437.125,195,441.125,191,437.125" style="stroke:#181818;stroke-width:1.0;"/><text fill="#000000" font-family="sans-serif" font-size="13" font-weight="bold" lengthAdjust="spacing" textLength="7" x="197" y="419.2686">7</text><text fill="#000000" font-family="sans-serif" font-size="13" lengthAdjust="spacing" textLength="117" x="208" y="419.2686">Display list of meals</text><!--MD5=[fd0398ad15abd2c5341f6bfc2fa1e968]
@startuml SearchMealTimeSeq
autonumber
hide footbox

actor Parent
boundary "MealTimeManagementView" as MealTimeManagementView
control MealTimeController
entity MEALTIME

Parent -> MealTimeManagementView: Enters the search\ncriteria in search box
activate Parent
activate MealTimeManagementView
deactivate Parent
MealTimeManagementView -> MealTimeController: Send searching meal\ninformation request
activate MealTimeController
MealTimeController -> MEALTIME: Search meal base\non given keywords
activate MEALTIME
MEALTIME -> MEALTIME: Query data
activate MEALTIME
deactivate MEALTIME
MEALTIME - -> MealTimeController: Query result
deactivate MEALTIME
MealTimeController - -> MealTimeManagementView: Query result
deactivate MealTimeController
MealTimeManagementView -> MealTimeManagementView: Display list of meals
deactivate MealTimeManagementView
@enduml

PlantUML version 1.2022.7(Tue Aug 23 00:01:30 ICT 2022)
(GPL source distribution)
Java Runtime: Java(TM) SE Runtime Environment
JVM: Java HotSpot(TM) 64-Bit Server VM
Default Encoding: Cp1252
Language: en
Country: US
--></g></svg>