<?xml version="1.0" encoding="UTF-8" standalone="no"?><svg xmlns="http://www.w3.org/2000/svg" xmlns:xlink="http://www.w3.org/1999/xlink" contentStyleType="text/css" height="619px" preserveAspectRatio="none" style="width:512px;height:619px;background:#FFFFFF;" version="1.1" viewBox="0 0 512 619" width="512px" zoomAndPan="magnify"><defs/><g><rect fill="#FFFFFF" height="324.1875" style="stroke:#181818;stroke-width:1.0;" width="10" x="39" y="279.3672"/><rect fill="#FFFFFF" height="427.8906" style="stroke:#181818;stroke-width:1.0;" width="10" x="172" y="175.6641"/><rect fill="#FFFFFF" height="28" style="stroke:#181818;stroke-width:1.0;" width="10" x="177" y="214.0156"/><rect fill="#FFFFFF" height="60.7031" style="stroke:#181818;stroke-width:1.0;" width="10" x="324" y="114.9609"/><rect fill="#FFFFFF" height="30.3516" style="stroke:#181818;stroke-width:1.0;" width="10" x="454" y="114.9609"/><rect fill="none" height="64.7969" style="stroke:#000000;stroke-width:1.5;" width="496.5" x="10" y="294.3672"/><rect fill="none" height="64.7969" style="stroke:#000000;stroke-width:1.5;" width="496.5" x="10" y="373.1641"/><rect fill="none" height="64.7969" style="stroke:#000000;stroke-width:1.5;" width="496.5" x="10" y="451.9609"/><rect fill="none" height="64.7969" style="stroke:#000000;stroke-width:1.5;" width="496.5" x="10" y="530.7578"/><line style="stroke:#181818;stroke-width:0.5;stroke-dasharray:5.0,5.0;" x1="44" x2="44" y1="82.6094" y2="612.5547"/><line style="stroke:#181818;stroke-width:0.5;stroke-dasharray:5.0,5.0;" x1="176.5" x2="176.5" y1="82.6094" y2="612.5547"/><line style="stroke:#181818;stroke-width:0.5;stroke-dasharray:5.0,5.0;" x1="328.5" x2="328.5" y1="82.6094" y2="612.5547"/><line style="stroke:#181818;stroke-width:0.5;stroke-dasharray:5.0,5.0;" x1="458.5" x2="458.5" y1="82.6094" y2="612.5547"/><text fill="#000000" font-family="sans-serif" font-size="14" lengthAdjust="spacing" textLength="42" x="20" y="79.5332">Parent</text><ellipse cx="44" cy="13.5" fill="#E2E2F0" rx="8" ry="8" style="stroke:#181818;stroke-width:0.5;"/><path d="M44,21.5 L44,48.5 M31,29.5 L57,29.5 M44,48.5 L31,63.5 M44,48.5 L57,63.5 " fill="none" style="stroke:#181818;stroke-width:0.5;"/><text fill="#000000" font-family="sans-serif" font-size="14" lengthAdjust="spacing" textLength="61" x="143.5" y="61.9238">MealTime</text><text fill="#000000" font-family="sans-serif" font-size="14" lengthAdjust="spacing" textLength="111" x="118.5" y="79.5332">ManagementView</text><path d="M156.5,19.3906 L156.5,43.3906 M156.5,31.3906 L173.5,31.3906 " fill="none" style="stroke:#181818;stroke-width:0.5;"/><ellipse cx="185.5" cy="31.3906" fill="#E2E2F0" rx="12" ry="12" style="stroke:#181818;stroke-width:0.5;"/><text fill="#000000" font-family="sans-serif" font-size="14" lengthAdjust="spacing" textLength="123" x="264.5" y="79.5332">MealTimeController</text><ellipse cx="329" cy="49" fill="#E2E2F0" rx="12" ry="12" style="stroke:#181818;stroke-width:0.5;"/><polygon fill="#181818" points="325,37,331,32,329,37,331,42,325,37" style="stroke:#181818;stroke-width:1.0;"/><text fill="#000000" font-family="sans-serif" font-size="14" lengthAdjust="spacing" textLength="69" x="421.5" y="79.5332">MEALTIME</text><ellipse cx="459" cy="49" fill="#E2E2F0" rx="12" ry="12" style="stroke:#181818;stroke-width:0.5;"/><line style="stroke:#181818;stroke-width:0.5;" x1="447" x2="471" y1="63" y2="63"/><rect fill="#FFFFFF" height="324.1875" style="stroke:#181818;stroke-width:1.0;" width="10" x="39" y="279.3672"/><rect fill="#FFFFFF" height="427.8906" style="stroke:#181818;stroke-width:1.0;" width="10" x="172" y="175.6641"/><rect fill="#FFFFFF" height="28" style="stroke:#181818;stroke-width:1.0;" width="10" x="177" y="214.0156"/><rect fill="#FFFFFF" height="60.7031" style="stroke:#181818;stroke-width:1.0;" width="10" x="324" y="114.9609"/><rect fill="#FFFFFF" height="30.3516" style="stroke:#181818;stroke-width:1.0;" width="10" x="454" y="114.9609"/><polygon fill="#181818" points="442,110.9609,452,114.9609,442,118.9609,446,114.9609" style="stroke:#181818;stroke-width:1.0;"/><line style="stroke:#181818;stroke-width:1.0;" x1="334" x2="448" y1="114.9609" y2="114.9609"/><text fill="#000000" font-family="sans-serif" font-size="13" font-weight="bold" lengthAdjust="spacing" textLength="7" x="341" y="110.1045">1</text><text fill="#000000" font-family="sans-serif" font-size="13" lengthAdjust="spacing" textLength="95" x="352" y="110.1045">Get list of meals</text><polygon fill="#181818" points="345,141.3125,335,145.3125,345,149.3125,341,145.3125" style="stroke:#181818;stroke-width:1.0;"/><line style="stroke:#181818;stroke-width:1.0;stroke-dasharray:2.0,2.0;" x1="339" x2="458" y1="145.3125" y2="145.3125"/><text fill="#000000" font-family="sans-serif" font-size="13" font-weight="bold" lengthAdjust="spacing" textLength="7" x="351" y="140.4561">2</text><text fill="#000000" font-family="sans-serif" font-size="13" lengthAdjust="spacing" textLength="74" x="362" y="140.4561">List of meals</text><polygon fill="#181818" points="193,171.6641,183,175.6641,193,179.6641,189,175.6641" style="stroke:#181818;stroke-width:1.0;"/><line style="stroke:#181818;stroke-width:1.0;stroke-dasharray:2.0,2.0;" x1="187" x2="328" y1="175.6641" y2="175.6641"/><text fill="#000000" font-family="sans-serif" font-size="13" font-weight="bold" lengthAdjust="spacing" textLength="7" x="199" y="170.8076">3</text><text fill="#000000" font-family="sans-serif" font-size="13" lengthAdjust="spacing" textLength="74" x="210" y="170.8076">List of meals</text><line style="stroke:#181818;stroke-width:1.0;" x1="187" x2="229" y1="206.0156" y2="206.0156"/><line style="stroke:#181818;stroke-width:1.0;" x1="229" x2="229" y1="206.0156" y2="219.0156"/><line style="stroke:#181818;stroke-width:1.0;" x1="188" x2="229" y1="219.0156" y2="219.0156"/><polygon fill="#181818" points="198,215.0156,188,219.0156,198,223.0156,194,219.0156" style="stroke:#181818;stroke-width:1.0;"/><text fill="#000000" font-family="sans-serif" font-size="13" font-weight="bold" lengthAdjust="spacing" textLength="7" x="194" y="201.1592">4</text><text fill="#000000" font-family="sans-serif" font-size="13" lengthAdjust="spacing" textLength="117" x="205" y="201.1592">Display list of meals</text><polygon fill="#181818" points="160,275.3672,170,279.3672,160,283.3672,164,279.3672" style="stroke:#181818;stroke-width:1.0;"/><line style="stroke:#181818;stroke-width:1.0;" x1="49" x2="166" y1="279.3672" y2="279.3672"/><text fill="#000000" font-family="sans-serif" font-size="13" font-weight="bold" lengthAdjust="spacing" textLength="7" x="56" y="274.5107">5</text><text fill="#000000" font-family="sans-serif" font-size="13" lengthAdjust="spacing" textLength="93" x="67" y="274.5107">Choose function</text><path d="M10,294.3672 L75,294.3672 L75,302.7188 L65,312.7188 L10,312.7188 L10,294.3672 " fill="#EEEEEE" style="stroke:#000000;stroke-width:1.5;"/><rect fill="none" height="64.7969" style="stroke:#000000;stroke-width:1.5;" width="496.5" x="10" y="294.3672"/><text fill="#000000" font-family="sans-serif" font-size="13" font-weight="bold" lengthAdjust="spacing" textLength="20" x="25" y="308.8623">opt</text><text fill="#000000" font-family="sans-serif" font-size="11" font-weight="bold" lengthAdjust="spacing" textLength="45" x="90" y="307.7861">[Create]</text><rect fill="none" height="41.4453" style="stroke:#000000;stroke-width:1.5;" width="482.5" x="17" y="312.7188"/><path d="M17,312.7188 L79,312.7188 L79,320.7188 L69,330.7188 L17,330.7188 L17,312.7188 " fill="#EEEEEE" style="stroke:#000000;stroke-width:2.0;"/><text fill="#000000" font-family="sans-serif" font-size="13" font-weight="bold" lengthAdjust="spacing" textLength="17" x="30" y="328.2139">ref</text><text fill="#000000" font-family="sans-serif" font-size="12" lengthAdjust="spacing" textLength="156" x="180.25" y="347.1758">Sequence Create Meal Time</text><path d="M10,373.1641 L75,373.1641 L75,381.5156 L65,391.5156 L10,391.5156 L10,373.1641 " fill="#EEEEEE" style="stroke:#000000;stroke-width:1.5;"/><rect fill="none" height="64.7969" style="stroke:#000000;stroke-width:1.5;" width="496.5" x="10" y="373.1641"/><text fill="#000000" font-family="sans-serif" font-size="13" font-weight="bold" lengthAdjust="spacing" textLength="20" x="25" y="387.6592">opt</text><text fill="#000000" font-family="sans-serif" font-size="11" font-weight="bold" lengthAdjust="spacing" textLength="46" x="90" y="386.583">[Update]</text><rect fill="none" height="41.4453" style="stroke:#000000;stroke-width:1.5;" width="482.5" x="17" y="391.5156"/><path d="M17,391.5156 L79,391.5156 L79,399.5156 L69,409.5156 L17,409.5156 L17,391.5156 " fill="#EEEEEE" style="stroke:#000000;stroke-width:2.0;"/><text fill="#000000" font-family="sans-serif" font-size="13" font-weight="bold" lengthAdjust="spacing" textLength="17" x="30" y="407.0107">ref</text><text fill="#000000" font-family="sans-serif" font-size="12" lengthAdjust="spacing" textLength="159" x="178.75" y="425.9727">Sequence Update Meal Time</text><path d="M10,451.9609 L75,451.9609 L75,460.3125 L65,470.3125 L10,470.3125 L10,451.9609 " fill="#EEEEEE" style="stroke:#000000;stroke-width:1.5;"/><rect fill="none" height="64.7969" style="stroke:#000000;stroke-width:1.5;" width="496.5" x="10" y="451.9609"/><text fill="#000000" font-family="sans-serif" font-size="13" font-weight="bold" lengthAdjust="spacing" textLength="20" x="25" y="466.4561">opt</text><text fill="#000000" font-family="sans-serif" font-size="11" font-weight="bold" lengthAdjust="spacing" textLength="43" x="90" y="465.3799">[Delete]</text><rect fill="none" height="41.4453" style="stroke:#000000;stroke-width:1.5;" width="482.5" x="17" y="470.3125"/><path d="M17,470.3125 L79,470.3125 L79,478.3125 L69,488.3125 L17,488.3125 L17,470.3125 " fill="#EEEEEE" style="stroke:#000000;stroke-width:2.0;"/><text fill="#000000" font-family="sans-serif" font-size="13" font-weight="bold" lengthAdjust="spacing" textLength="17" x="30" y="485.8076">ref</text><text fill="#000000" font-family="sans-serif" font-size="12" lengthAdjust="spacing" textLength="155" x="180.75" y="504.7695">Sequence Delete Meal Time</text><path d="M10,530.7578 L75,530.7578 L75,539.1094 L65,549.1094 L10,549.1094 L10,530.7578 " fill="#EEEEEE" style="stroke:#000000;stroke-width:1.5;"/><rect fill="none" height="64.7969" style="stroke:#000000;stroke-width:1.5;" width="496.5" x="10" y="530.7578"/><text fill="#000000" font-family="sans-serif" font-size="13" font-weight="bold" lengthAdjust="spacing" textLength="20" x="25" y="545.2529">opt</text><text fill="#000000" font-family="sans-serif" font-size="11" font-weight="bold" lengthAdjust="spacing" textLength="46" x="90" y="544.1768">[Search]</text><rect fill="none" height="41.4453" style="stroke:#000000;stroke-width:1.5;" width="482.5" x="17" y="549.1094"/><path d="M17,549.1094 L79,549.1094 L79,557.1094 L69,567.1094 L17,567.1094 L17,549.1094 " fill="#EEEEEE" style="stroke:#000000;stroke-width:2.0;"/><text fill="#000000" font-family="sans-serif" font-size="13" font-weight="bold" lengthAdjust="spacing" textLength="17" x="30" y="564.6045">ref</text><text fill="#000000" font-family="sans-serif" font-size="12" lengthAdjust="spacing" textLength="158" x="179.25" y="583.5664">Sequence Search Meal Time</text><!--MD5=[912352e8178e8326eeeb0fb5cb8ddad4]
@startuml TrackMealTimeSeq
autonumber
hide footbox

actor Parent
boundary "MealTime\nManagementView" as MealTimeManagementView
control MealTimeController
entity MEALTIME

MealTimeController -> MEALTIME: Get list of meals
activate MealTimeController
activate MEALTIME
MEALTIME - - -> MealTimeController: List of meals
deactivate MEALTIME
MealTimeController - -> MealTimeManagementView: List of meals
deactivate MealTimeController
activate MealTimeManagementView
MealTimeManagementView -> MealTimeManagementView: Display list of meals
activate MealTimeManagementView
deactivate MealTimeManagementView
Parent -> MealTimeManagementView: Choose function
activate Parent

opt Create
    ref over Parent, MealTimeManagementView, MealTimeController, MEALTIME: Sequence Create Meal Time
end

opt Update
    ref over Parent, MealTimeManagementView, MealTimeController, MEALTIME: Sequence Update Meal Time
end

opt Delete
    ref over Parent, MealTimeManagementView, MealTimeController, MEALTIME: Sequence Delete Meal Time
end

opt Search
    ref over Parent, MealTimeManagementView, MealTimeController, MEALTIME: Sequence Search Meal Time
end
@enduml

PlantUML version 1.2022.7(Tue Aug 23 00:01:30 ICT 2022)
(GPL source distribution)
Java Runtime: Java(TM) SE Runtime Environment
JVM: Java HotSpot(TM) 64-Bit Server VM
Default Encoding: Cp1252
Language: en
Country: US
--></g></svg>