<?xml version="1.0" encoding="UTF-8" standalone="no"?><svg xmlns="http://www.w3.org/2000/svg" xmlns:xlink="http://www.w3.org/1999/xlink" contentStyleType="text/css" height="1239px" preserveAspectRatio="none" style="width:844px;height:1239px;background:#FFFFFF;" version="1.1" viewBox="0 0 844 1239" width="844px" zoomAndPan="magnify"><defs/><g><rect fill="#FFFFFF" height="473.7031" style="stroke:#181818;stroke-width:1.0;" width="10" x="39" y="210.1094"/><rect fill="#FFFFFF" height="990.7578" style="stroke:#181818;stroke-width:1.0;" width="10" x="166" y="210.1094"/><rect fill="#FFFFFF" height="832" style="stroke:#181818;stroke-width:1.0;" width="10" x="287" y="331.5156"/><rect fill="#FFFFFF" height="28" style="stroke:#181818;stroke-width:1.0;" width="10" x="292" y="369.8672"/><rect fill="#FFFFFF" height="28" style="stroke:#181818;stroke-width:1.0;" width="10" x="292" y="473.5703"/><rect fill="#FFFFFF" height="28" style="stroke:#181818;stroke-width:1.0;" width="10" x="292" y="602.625"/><rect fill="#FFFFFF" height="28" style="stroke:#181818;stroke-width:1.0;" width="10" x="292" y="942.2734"/><rect fill="#FFFFFF" height="91.0547" style="stroke:#181818;stroke-width:1.0;" width="10" x="496" y="240.4609"/><rect fill="#FFFFFF" height="486.7031" style="stroke:#181818;stroke-width:1.0;" width="10" x="496" y="714.1641"/><rect fill="#FFFFFF" height="30.3516" style="stroke:#181818;stroke-width:1.0;" width="10" x="709" y="270.8125"/><rect fill="#FFFFFF" height="352.2969" style="stroke:#181818;stroke-width:1.0;" width="10" x="709" y="744.5156"/><rect fill="#FFFFFF" height="28" style="stroke:#181818;stroke-width:1.0;" width="10" x="714" y="782.8672"/><rect fill="#FFFFFF" height="28" style="stroke:#181818;stroke-width:1.0;" width="10" x="714" y="1031.4609"/><rect fill="none" height="64.7969" style="stroke:#000000;stroke-width:1.5;" width="751.5" x="10" y="99.6094"/><rect fill="none" height="692.2969" style="stroke:#000000;stroke-width:1.5;" width="827" x="10" y="523.5703"/><rect fill="none" height="376" style="stroke:#000000;stroke-width:1.5;" width="718.5" x="102.5" y="832.8672"/><line style="stroke:#181818;stroke-width:0.5;stroke-dasharray:5.0,5.0;" x1="44" x2="44" y1="82.6094" y2="1232.8672"/><line style="stroke:#181818;stroke-width:0.5;stroke-dasharray:5.0,5.0;" x1="170.5" x2="170.5" y1="82.6094" y2="1232.8672"/><line style="stroke:#181818;stroke-width:0.5;stroke-dasharray:5.0,5.0;" x1="291.5" x2="291.5" y1="82.6094" y2="1232.8672"/><line style="stroke:#181818;stroke-width:0.5;stroke-dasharray:5.0,5.0;" x1="500.5" x2="500.5" y1="82.6094" y2="1232.8672"/><line style="stroke:#181818;stroke-width:0.5;stroke-dasharray:5.0,5.0;" x1="713.5" x2="713.5" y1="82.6094" y2="1232.8672"/><text fill="#000000" font-family="sans-serif" font-size="14" lengthAdjust="spacing" textLength="42" x="20" y="79.5332">Parent</text><ellipse cx="44" cy="13.5" fill="#E2E2F0" rx="8" ry="8" style="stroke:#181818;stroke-width:0.5;"/><path d="M44,21.5 L44,48.5 M31,29.5 L57,29.5 M44,48.5 L31,63.5 M44,48.5 L57,63.5 " fill="none" style="stroke:#181818;stroke-width:0.5;"/><text fill="#000000" font-family="sans-serif" font-size="14" lengthAdjust="spacing" textLength="61" x="137.5" y="61.9238">MealTime</text><text fill="#000000" font-family="sans-serif" font-size="14" lengthAdjust="spacing" textLength="111" x="112.5" y="79.5332">ManagementView</text><path d="M150.5,19.3906 L150.5,43.3906 M150.5,31.3906 L167.5,31.3906 " fill="none" style="stroke:#181818;stroke-width:0.5;"/><ellipse cx="179.5" cy="31.3906" fill="#E2E2F0" rx="12" ry="12" style="stroke:#181818;stroke-width:0.5;"/><text fill="#000000" font-family="sans-serif" font-size="14" lengthAdjust="spacing" textLength="61" x="258.5" y="61.9238">MealTime</text><text fill="#000000" font-family="sans-serif" font-size="14" lengthAdjust="spacing" textLength="99" x="239.5" y="79.5332">InformationView</text><path d="M271.5,19.3906 L271.5,43.3906 M271.5,31.3906 L288.5,31.3906 " fill="none" style="stroke:#181818;stroke-width:0.5;"/><ellipse cx="300.5" cy="31.3906" fill="#E2E2F0" rx="12" ry="12" style="stroke:#181818;stroke-width:0.5;"/><text fill="#000000" font-family="sans-serif" font-size="14" lengthAdjust="spacing" textLength="123" x="436.5" y="79.5332">MealTimeController</text><ellipse cx="501" cy="49" fill="#E2E2F0" rx="12" ry="12" style="stroke:#181818;stroke-width:0.5;"/><polygon fill="#181818" points="497,37,503,32,501,37,503,42,497,37" style="stroke:#181818;stroke-width:1.0;"/><text fill="#000000" font-family="sans-serif" font-size="14" lengthAdjust="spacing" textLength="69" x="676.5" y="79.5332">MEALTIME</text><ellipse cx="714" cy="49" fill="#E2E2F0" rx="12" ry="12" style="stroke:#181818;stroke-width:0.5;"/><line style="stroke:#181818;stroke-width:0.5;" x1="702" x2="726" y1="63" y2="63"/><rect fill="#FFFFFF" height="473.7031" style="stroke:#181818;stroke-width:1.0;" width="10" x="39" y="210.1094"/><rect fill="#FFFFFF" height="990.7578" style="stroke:#181818;stroke-width:1.0;" width="10" x="166" y="210.1094"/><rect fill="#FFFFFF" height="832" style="stroke:#181818;stroke-width:1.0;" width="10" x="287" y="331.5156"/><rect fill="#FFFFFF" height="28" style="stroke:#181818;stroke-width:1.0;" width="10" x="292" y="369.8672"/><rect fill="#FFFFFF" height="28" style="stroke:#181818;stroke-width:1.0;" width="10" x="292" y="473.5703"/><rect fill="#FFFFFF" height="28" style="stroke:#181818;stroke-width:1.0;" width="10" x="292" y="602.625"/><rect fill="#FFFFFF" height="28" style="stroke:#181818;stroke-width:1.0;" width="10" x="292" y="942.2734"/><rect fill="#FFFFFF" height="91.0547" style="stroke:#181818;stroke-width:1.0;" width="10" x="496" y="240.4609"/><rect fill="#FFFFFF" height="486.7031" style="stroke:#181818;stroke-width:1.0;" width="10" x="496" y="714.1641"/><rect fill="#FFFFFF" height="30.3516" style="stroke:#181818;stroke-width:1.0;" width="10" x="709" y="270.8125"/><rect fill="#FFFFFF" height="352.2969" style="stroke:#181818;stroke-width:1.0;" width="10" x="709" y="744.5156"/><rect fill="#FFFFFF" height="28" style="stroke:#181818;stroke-width:1.0;" width="10" x="714" y="782.8672"/><rect fill="#FFFFFF" height="28" style="stroke:#181818;stroke-width:1.0;" width="10" x="714" y="1031.4609"/><path d="M10,99.6094 L75,99.6094 L75,107.9609 L65,117.9609 L10,117.9609 L10,99.6094 " fill="#EEEEEE" style="stroke:#000000;stroke-width:1.5;"/><rect fill="none" height="64.7969" style="stroke:#000000;stroke-width:1.5;" width="751.5" x="10" y="99.6094"/><text fill="#000000" font-family="sans-serif" font-size="13" font-weight="bold" lengthAdjust="spacing" textLength="20" x="25" y="114.1045">opt</text><text fill="#000000" font-family="sans-serif" font-size="11" font-weight="bold" lengthAdjust="spacing" textLength="46" x="90" y="113.0283">[Search]</text><rect fill="none" height="41.4453" style="stroke:#000000;stroke-width:1.5;" width="737.5" x="17" y="117.9609"/><path d="M17,117.9609 L79,117.9609 L79,125.9609 L69,135.9609 L17,135.9609 L17,117.9609 " fill="#EEEEEE" style="stroke:#000000;stroke-width:2.0;"/><text fill="#000000" font-family="sans-serif" font-size="13" font-weight="bold" lengthAdjust="spacing" textLength="17" x="30" y="133.4561">ref</text><text fill="#000000" font-family="sans-serif" font-size="12" lengthAdjust="spacing" textLength="155" x="308.25" y="152.418">Sequence Search MealTime</text><polygon fill="#181818" points="154,206.1094,164,210.1094,154,214.1094,158,210.1094" style="stroke:#181818;stroke-width:1.0;"/><line style="stroke:#181818;stroke-width:1.0;" x1="49" x2="160" y1="210.1094" y2="210.1094"/><text fill="#000000" font-family="sans-serif" font-size="13" font-weight="bold" lengthAdjust="spacing" textLength="7" x="56" y="197.0771">1</text><text fill="#000000" font-family="sans-serif" font-size="13" lengthAdjust="spacing" textLength="69" x="67" y="188.9014">Select meal</text><text fill="#000000" font-family="sans-serif" font-size="13" lengthAdjust="spacing" textLength="88" x="71" y="205.2529">needs updating</text><polygon fill="#181818" points="484,236.4609,494,240.4609,484,244.4609,488,240.4609" style="stroke:#181818;stroke-width:1.0;"/><line style="stroke:#181818;stroke-width:1.0;" x1="176" x2="490" y1="240.4609" y2="240.4609"/><text fill="#000000" font-family="sans-serif" font-size="13" font-weight="bold" lengthAdjust="spacing" textLength="7" x="183" y="235.6045">2</text><text fill="#000000" font-family="sans-serif" font-size="13" lengthAdjust="spacing" textLength="173" x="194" y="235.6045">Get selected meal information</text><polygon fill="#181818" points="697,266.8125,707,270.8125,697,274.8125,701,270.8125" style="stroke:#181818;stroke-width:1.0;"/><line style="stroke:#181818;stroke-width:1.0;" x1="506" x2="703" y1="270.8125" y2="270.8125"/><text fill="#000000" font-family="sans-serif" font-size="13" font-weight="bold" lengthAdjust="spacing" textLength="7" x="513" y="265.9561">3</text><text fill="#000000" font-family="sans-serif" font-size="13" lengthAdjust="spacing" textLength="173" x="524" y="265.9561">Get selected meal information</text><polygon fill="#181818" points="517,297.1641,507,301.1641,517,305.1641,513,301.1641" style="stroke:#181818;stroke-width:1.0;"/><line style="stroke:#181818;stroke-width:1.0;stroke-dasharray:2.0,2.0;" x1="511" x2="713" y1="301.1641" y2="301.1641"/><text fill="#000000" font-family="sans-serif" font-size="13" font-weight="bold" lengthAdjust="spacing" textLength="7" x="523" y="296.3076">4</text><text fill="#000000" font-family="sans-serif" font-size="13" lengthAdjust="spacing" textLength="150" x="534" y="296.3076">Selected meal information</text><polygon fill="#181818" points="308,327.5156,298,331.5156,308,335.5156,304,331.5156" style="stroke:#181818;stroke-width:1.0;"/><line style="stroke:#181818;stroke-width:1.0;stroke-dasharray:2.0,2.0;" x1="302" x2="500" y1="331.5156" y2="331.5156"/><text fill="#000000" font-family="sans-serif" font-size="13" font-weight="bold" lengthAdjust="spacing" textLength="7" x="314" y="326.6592">5</text><text fill="#000000" font-family="sans-serif" font-size="13" lengthAdjust="spacing" textLength="150" x="325" y="326.6592">Selected meal information</text><line style="stroke:#181818;stroke-width:1.0;" x1="302" x2="344" y1="361.8672" y2="361.8672"/><line style="stroke:#181818;stroke-width:1.0;" x1="344" x2="344" y1="361.8672" y2="374.8672"/><line style="stroke:#181818;stroke-width:1.0;" x1="303" x2="344" y1="374.8672" y2="374.8672"/><polygon fill="#181818" points="313,370.8672,303,374.8672,313,378.8672,309,374.8672" style="stroke:#181818;stroke-width:1.0;"/><text fill="#000000" font-family="sans-serif" font-size="13" font-weight="bold" lengthAdjust="spacing" textLength="7" x="309" y="357.0107">6</text><text fill="#000000" font-family="sans-serif" font-size="13" lengthAdjust="spacing" textLength="142" x="320" y="357.0107">Display meal information</text><polygon fill="#181818" points="275,431.2188,285,435.2188,275,439.2188,279,435.2188" style="stroke:#181818;stroke-width:1.0;"/><line style="stroke:#181818;stroke-width:1.0;" x1="49" x2="281" y1="435.2188" y2="435.2188"/><text fill="#000000" font-family="sans-serif" font-size="13" font-weight="bold" lengthAdjust="spacing" textLength="7" x="56" y="430.3623">7</text><text fill="#000000" font-family="sans-serif" font-size="13" lengthAdjust="spacing" textLength="130" x="67" y="430.3623">Enter meal information</text><line style="stroke:#181818;stroke-width:1.0;" x1="302" x2="344" y1="465.5703" y2="465.5703"/><line style="stroke:#181818;stroke-width:1.0;" x1="344" x2="344" y1="465.5703" y2="478.5703"/><line style="stroke:#181818;stroke-width:1.0;" x1="303" x2="344" y1="478.5703" y2="478.5703"/><polygon fill="#181818" points="313,474.5703,303,478.5703,313,482.5703,309,478.5703" style="stroke:#181818;stroke-width:1.0;"/><text fill="#000000" font-family="sans-serif" font-size="13" font-weight="bold" lengthAdjust="spacing" textLength="7" x="309" y="460.7139">8</text><text fill="#000000" font-family="sans-serif" font-size="13" lengthAdjust="spacing" textLength="76" x="320" y="460.7139">Validate data</text><path d="M10,523.5703 L71,523.5703 L71,531.9219 L61,541.9219 L10,541.9219 L10,523.5703 " fill="#EEEEEE" style="stroke:#000000;stroke-width:1.5;"/><rect fill="none" height="692.2969" style="stroke:#000000;stroke-width:1.5;" width="827" x="10" y="523.5703"/><text fill="#000000" font-family="sans-serif" font-size="13" font-weight="bold" lengthAdjust="spacing" textLength="16" x="25" y="538.0654">alt</text><text fill="#000000" font-family="sans-serif" font-size="11" font-weight="bold" lengthAdjust="spacing" textLength="69" x="86" y="536.9893">[Invalid data]</text><polygon fill="#181818" points="60,560.2734,50,564.2734,60,568.2734,56,564.2734" style="stroke:#181818;stroke-width:1.0;"/><line style="stroke:#181818;stroke-width:1.0;stroke-dasharray:2.0,2.0;" x1="54" x2="286" y1="564.2734" y2="564.2734"/><text fill="#000000" font-family="sans-serif" font-size="13" font-weight="bold" lengthAdjust="spacing" textLength="7" x="66" y="559.417">9</text><text fill="#000000" font-family="sans-serif" font-size="13" lengthAdjust="spacing" textLength="94" x="77" y="559.417">Error notification</text><line style="stroke:#181818;stroke-width:1.0;" x1="302" x2="344" y1="594.625" y2="594.625"/><line style="stroke:#181818;stroke-width:1.0;" x1="344" x2="344" y1="594.625" y2="607.625"/><line style="stroke:#181818;stroke-width:1.0;" x1="303" x2="344" y1="607.625" y2="607.625"/><polygon fill="#181818" points="313,603.625,303,607.625,313,611.625,309,607.625" style="stroke:#181818;stroke-width:1.0;"/><text fill="#000000" font-family="sans-serif" font-size="13" font-weight="bold" lengthAdjust="spacing" textLength="14" x="309" y="589.7686">10</text><text fill="#000000" font-family="sans-serif" font-size="13" lengthAdjust="spacing" textLength="139" x="327" y="589.7686">Display error notification</text><line style="stroke:#000000;stroke-width:1.0;stroke-dasharray:2.0,2.0;" x1="10" x2="837" y1="646.625" y2="646.625"/><text fill="#000000" font-family="sans-serif" font-size="11" font-weight="bold" lengthAdjust="spacing" textLength="61" x="15" y="658.0439">[Valid data]</text><polygon fill="#181818" points="275,679.8125,285,683.8125,275,687.8125,279,683.8125" style="stroke:#181818;stroke-width:1.0;"/><line style="stroke:#181818;stroke-width:1.0;" x1="44" x2="281" y1="683.8125" y2="683.8125"/><text fill="#000000" font-family="sans-serif" font-size="13" font-weight="bold" lengthAdjust="spacing" textLength="14" x="51" y="678.9561">11</text><text fill="#000000" font-family="sans-serif" font-size="13" lengthAdjust="spacing" textLength="172" x="69" y="678.9561">Click button "Save" to confirm</text><polygon fill="#181818" points="484,710.1641,494,714.1641,484,718.1641,488,714.1641" style="stroke:#181818;stroke-width:1.0;"/><line style="stroke:#181818;stroke-width:1.0;" x1="297" x2="490" y1="714.1641" y2="714.1641"/><text fill="#000000" font-family="sans-serif" font-size="13" font-weight="bold" lengthAdjust="spacing" textLength="14" x="304" y="709.3076">12</text><text fill="#000000" font-family="sans-serif" font-size="13" lengthAdjust="spacing" textLength="162" x="322" y="709.3076">Send updating meal request</text><polygon fill="#181818" points="697,740.5156,707,744.5156,697,748.5156,701,744.5156" style="stroke:#181818;stroke-width:1.0;"/><line style="stroke:#181818;stroke-width:1.0;" x1="506" x2="703" y1="744.5156" y2="744.5156"/><text fill="#000000" font-family="sans-serif" font-size="13" font-weight="bold" lengthAdjust="spacing" textLength="14" x="513" y="739.6592">13</text><text fill="#000000" font-family="sans-serif" font-size="13" lengthAdjust="spacing" textLength="97" x="531" y="739.6592">Send information</text><line style="stroke:#181818;stroke-width:1.0;" x1="724" x2="766" y1="774.8672" y2="774.8672"/><line style="stroke:#181818;stroke-width:1.0;" x1="766" x2="766" y1="774.8672" y2="787.8672"/><line style="stroke:#181818;stroke-width:1.0;" x1="725" x2="766" y1="787.8672" y2="787.8672"/><polygon fill="#181818" points="735,783.8672,725,787.8672,735,791.8672,731,787.8672" style="stroke:#181818;stroke-width:1.0;"/><text fill="#000000" font-family="sans-serif" font-size="13" font-weight="bold" lengthAdjust="spacing" textLength="14" x="731" y="770.0107">14</text><text fill="#000000" font-family="sans-serif" font-size="13" lengthAdjust="spacing" textLength="76" x="749" y="770.0107">Validate data</text><path d="M102.5,832.8672 L163.5,832.8672 L163.5,841.2188 L153.5,851.2188 L102.5,851.2188 L102.5,832.8672 " fill="#EEEEEE" style="stroke:#000000;stroke-width:1.5;"/><rect fill="none" height="376" style="stroke:#000000;stroke-width:1.5;" width="718.5" x="102.5" y="832.8672"/><text fill="#000000" font-family="sans-serif" font-size="13" font-weight="bold" lengthAdjust="spacing" textLength="16" x="117.5" y="847.3623">alt</text><text fill="#000000" font-family="sans-serif" font-size="11" font-weight="bold" lengthAdjust="spacing" textLength="69" x="178.5" y="846.2861">[Invalid data]</text><polygon fill="#181818" points="517,869.5703,507,873.5703,517,877.5703,513,873.5703" style="stroke:#181818;stroke-width:1.0;"/><line style="stroke:#181818;stroke-width:1.0;stroke-dasharray:2.0,2.0;" x1="511" x2="708" y1="873.5703" y2="873.5703"/><text fill="#000000" font-family="sans-serif" font-size="13" font-weight="bold" lengthAdjust="spacing" textLength="14" x="523" y="868.7139">15</text><text fill="#000000" font-family="sans-serif" font-size="13" lengthAdjust="spacing" textLength="94" x="541" y="868.7139">Error notification</text><polygon fill="#181818" points="308,899.9219,298,903.9219,308,907.9219,304,903.9219" style="stroke:#181818;stroke-width:1.0;"/><line style="stroke:#181818;stroke-width:1.0;stroke-dasharray:2.0,2.0;" x1="302" x2="495" y1="903.9219" y2="903.9219"/><text fill="#000000" font-family="sans-serif" font-size="13" font-weight="bold" lengthAdjust="spacing" textLength="14" x="314" y="899.0654">16</text><text fill="#000000" font-family="sans-serif" font-size="13" lengthAdjust="spacing" textLength="94" x="332" y="899.0654">Error notification</text><line style="stroke:#181818;stroke-width:1.0;" x1="302" x2="344" y1="934.2734" y2="934.2734"/><line style="stroke:#181818;stroke-width:1.0;" x1="344" x2="344" y1="934.2734" y2="947.2734"/><line style="stroke:#181818;stroke-width:1.0;" x1="303" x2="344" y1="947.2734" y2="947.2734"/><polygon fill="#181818" points="313,943.2734,303,947.2734,313,951.2734,309,947.2734" style="stroke:#181818;stroke-width:1.0;"/><text fill="#000000" font-family="sans-serif" font-size="13" font-weight="bold" lengthAdjust="spacing" textLength="14" x="309" y="929.417">17</text><text fill="#000000" font-family="sans-serif" font-size="13" lengthAdjust="spacing" textLength="139" x="327" y="929.417">Display error notification</text><line style="stroke:#000000;stroke-width:1.0;stroke-dasharray:2.0,2.0;" x1="102.5" x2="821" y1="986.2734" y2="986.2734"/><text fill="#000000" font-family="sans-serif" font-size="11" font-weight="bold" lengthAdjust="spacing" textLength="61" x="107.5" y="997.6924">[Valid data]</text><line style="stroke:#181818;stroke-width:1.0;" x1="724" x2="766" y1="1023.4609" y2="1023.4609"/><line style="stroke:#181818;stroke-width:1.0;" x1="766" x2="766" y1="1023.4609" y2="1036.4609"/><line style="stroke:#181818;stroke-width:1.0;" x1="725" x2="766" y1="1036.4609" y2="1036.4609"/><polygon fill="#181818" points="735,1032.4609,725,1036.4609,735,1040.4609,731,1036.4609" style="stroke:#181818;stroke-width:1.0;"/><text fill="#000000" font-family="sans-serif" font-size="13" font-weight="bold" lengthAdjust="spacing" textLength="14" x="731" y="1018.6045">18</text><text fill="#000000" font-family="sans-serif" font-size="13" lengthAdjust="spacing" textLength="60" x="749" y="1018.6045">Store data</text><polygon fill="#181818" points="517,1092.8125,507,1096.8125,517,1100.8125,513,1096.8125" style="stroke:#181818;stroke-width:1.0;"/><line style="stroke:#181818;stroke-width:1.0;stroke-dasharray:2.0,2.0;" x1="511" x2="713" y1="1096.8125" y2="1096.8125"/><text fill="#000000" font-family="sans-serif" font-size="13" font-weight="bold" lengthAdjust="spacing" textLength="14" x="523" y="1091.9561">19</text><text fill="#000000" font-family="sans-serif" font-size="13" lengthAdjust="spacing" textLength="117" x="541" y="1091.9561">Success notification</text><polygon fill="#181818" points="308,1123.1641,298,1127.1641,308,1131.1641,304,1127.1641" style="stroke:#181818;stroke-width:1.0;"/><line style="stroke:#181818;stroke-width:1.0;stroke-dasharray:2.0,2.0;" x1="302" x2="495" y1="1127.1641" y2="1127.1641"/><text fill="#000000" font-family="sans-serif" font-size="13" font-weight="bold" lengthAdjust="spacing" textLength="14" x="314" y="1122.3076">20</text><text fill="#000000" font-family="sans-serif" font-size="13" lengthAdjust="spacing" textLength="117" x="332" y="1122.3076">Success notification</text><line style="stroke:#181818;stroke-width:1.0;" x1="297" x2="339" y1="1162.5156" y2="1162.5156"/><line style="stroke:#181818;stroke-width:1.0;" x1="339" x2="339" y1="1162.5156" y2="1175.5156"/><line style="stroke:#181818;stroke-width:1.0;" x1="292" x2="339" y1="1175.5156" y2="1175.5156"/><polygon fill="#181818" points="302,1171.5156,292,1175.5156,302,1179.5156,298,1175.5156" style="stroke:#181818;stroke-width:1.0;"/><text fill="#000000" font-family="sans-serif" font-size="13" font-weight="bold" lengthAdjust="spacing" textLength="14" x="304" y="1157.6592">21</text><text fill="#000000" font-family="sans-serif" font-size="13" lengthAdjust="spacing" textLength="61" x="322" y="1157.6592">Close view</text><polygon fill="#181818" points="182,1196.8672,172,1200.8672,182,1204.8672,178,1200.8672" style="stroke:#181818;stroke-width:1.0;"/><line style="stroke:#181818;stroke-width:1.0;" x1="176" x2="500" y1="1200.8672" y2="1200.8672"/><text fill="#000000" font-family="sans-serif" font-size="13" font-weight="bold" lengthAdjust="spacing" textLength="14" x="188" y="1196.0107">22</text><text fill="#000000" font-family="sans-serif" font-size="13" lengthAdjust="spacing" textLength="261" x="206" y="1196.0107">Display success notification and list of meals</text><!--MD5=[25d4d27c013070c13a29bee121a63fac]
@startuml UpdateMealTimeSeq
autonumber
hide footbox

actor Parent
boundary "MealTime\nManagementView" as MealTimeManagementView
boundary "MealTime\nInformationView" as MealTimeInformationView
control MealTimeController
entity MEALTIME

opt Search
ref over Parent, MealTimeManagementView, MealTimeInformationView, MealTimeController, MEALTIME: Sequence Search MealTime
end 

Parent -> MealTimeManagementView: Select meal\n needs updating
activate Parent
activate MealTimeManagementView
MealTimeManagementView -> MealTimeController: Get selected meal information
activate MealTimeController
MealTimeController -> MEALTIME: Get selected meal information
activate MEALTIME
MEALTIME - -> MealTimeController: Selected meal information
deactivate MEALTIME
MealTimeController - -> MealTimeInformationView: Selected meal information
deactivate MealTimeController
activate MealTimeInformationView
MealTimeInformationView -> MealTimeInformationView: Display meal information
activate MealTimeInformationView
deactivate MealTimeInformationView
Parent -> MealTimeInformationView: Enter meal information  
MealTimeInformationView -> MealTimeInformationView: Validate data
activate MealTimeInformationView
deactivate MealTimeInformationView
alt Invalid data
    MealTimeInformationView - -> Parent: Error notification
    MealTimeInformationView -> MealTimeInformationView: Display error notification
    activate MealTimeInformationView
    deactivate MealTimeInformationView
else Valid data
    Parent -> MealTimeInformationView: Click button "Save" to confirm
    deactivate Parent
    MealTimeInformationView -> MealTimeController: Send updating meal request
    activate MealTimeController
    MealTimeController -> MEALTIME: Send information
    activate MEALTIME
    MEALTIME -> MEALTIME: Validate data
    activate MEALTIME
    deactivate MEALTIME
    alt Invalid data
        MEALTIME - -> MealTimeController: Error notification
        MealTimeController - -> MealTimeInformationView: Error notification
        MealTimeInformationView -> MealTimeInformationView: Display error notification
        activate MealTimeInformationView
        deactivate MealTimeInformationView
    else Valid data
        MEALTIME -> MEALTIME: Store data
        activate MEALTIME
        deactivate MEALTIME
        MEALTIME - -> MealTimeController: Success notification
        deactivate MEALTIME
        MealTimeController - -> MealTimeInformationView: Success notification
        MealTimeInformationView -> MealTimeInformationView: Close view
        deactivate MealTimeInformationView
        MealTimeController -> MealTimeManagementView: Display success notification and list of meals
        deactivate MealTimeManagementView
        deactivate MealTimeController
    end
end
@enduml

PlantUML version 1.2022.7(Tue Aug 23 00:01:30 ICT 2022)
(GPL source distribution)
Java Runtime: Java(TM) SE Runtime Environment
JVM: Java HotSpot(TM) 64-Bit Server VM
Default Encoding: Cp1252
Language: en
Country: US
--></g></svg>