<?xml version="1.0" encoding="UTF-8" standalone="no"?><svg xmlns="http://www.w3.org/2000/svg" xmlns:xlink="http://www.w3.org/1999/xlink" contentStyleType="text/css" height="465px" preserveAspectRatio="none" style="width:411px;height:465px;background:#FFFFFF;" version="1.1" viewBox="0 0 411 465" width="411px" zoomAndPan="magnify"><defs/><g><rect fill="#F1F1F1" height="65.2813" rx="12.5" ry="12.5" style="stroke:#181818;stroke-width:0.5;" width="102" x="30.5" y="150.2832"/><text fill="#000000" font-family="sans-serif" font-size="12" lengthAdjust="spacing" textLength="82" x="40.5" y="172.7402">(2) Click on the</text><text fill="#000000" font-family="sans-serif" font-size="12" lengthAdjust="spacing" textLength="71" x="40.5" y="187.834">event want to</text><text fill="#000000" font-family="sans-serif" font-size="12" lengthAdjust="spacing" textLength="57" x="40.5" y="202.9277">view detail</text><line style="stroke:#000000;stroke-width:1.5;" x1="15" x2="15" y1="12.4551" y2="453.0332"/><ellipse cx="216.5" cy="50.0957" fill="#222222" rx="10" ry="10" style="stroke:#222222;stroke-width:1.0;"/><rect fill="#F1F1F1" height="50.1875" rx="12.5" ry="12.5" style="stroke:#181818;stroke-width:0.5;" width="108" x="162.5" y="80.0957"/><text fill="#000000" font-family="sans-serif" font-size="12" lengthAdjust="spacing" textLength="88" x="172.5" y="102.5527">(1) Display child</text><text fill="#000000" font-family="sans-serif" font-size="12" lengthAdjust="spacing" textLength="83" x="172.5" y="117.6465">events as chart</text><rect fill="#F1F1F1" height="50.1875" rx="12.5" ry="12.5" style="stroke:#181818;stroke-width:0.5;" width="114" x="159.5" y="235.5645"/><text fill="#000000" font-family="sans-serif" font-size="12" lengthAdjust="spacing" textLength="87" x="169.5" y="258.0215">(3) Get selected</text><text fill="#000000" font-family="sans-serif" font-size="12" lengthAdjust="spacing" textLength="94" x="169.5" y="273.1152">event information</text><rect fill="#F1F1F1" height="50.1875" rx="12.5" ry="12.5" style="stroke:#181818;stroke-width:0.5;" width="129" x="152" y="360.8457"/><text fill="#000000" font-family="sans-serif" font-size="12" lengthAdjust="spacing" textLength="109" x="162" y="383.3027">(5) Display selected</text><text fill="#000000" font-family="sans-serif" font-size="12" lengthAdjust="spacing" textLength="94" x="162" y="398.3965">event information</text><ellipse cx="216.5" cy="442.0332" fill="none" rx="11" ry="11" style="stroke:#222222;stroke-width:1.0;"/><ellipse cx="216.5" cy="442.0332" fill="#222222" rx="6" ry="6" style="stroke:#111111;stroke-width:1.0;"/><line style="stroke:#000000;stroke-width:1.5;" x1="146" x2="146" y1="12.4551" y2="453.0332"/><rect fill="#F1F1F1" height="35.0938" rx="12.5" ry="12.5" style="stroke:#181818;stroke-width:0.5;" width="97" x="291" y="305.752"/><text fill="#000000" font-family="sans-serif" font-size="12" lengthAdjust="spacing" textLength="77" x="301" y="328.209">(4) Query data</text><line style="stroke:#000000;stroke-width:1.5;" x1="285" x2="285" y1="12.4551" y2="453.0332"/><line style="stroke:#000000;stroke-width:1.5;" x1="392" x2="392" y1="12.4551" y2="453.0332"/><line style="stroke:#181818;stroke-width:1.0;" x1="216.5" x2="216.5" y1="60.0957" y2="80.0957"/><polygon fill="#181818" points="212.5,70.0957,216.5,80.0957,220.5,70.0957,216.5,74.0957" style="stroke:#181818;stroke-width:1.0;"/><line style="stroke:#181818;stroke-width:1.0;" x1="216.5" x2="216.5" y1="411.0332" y2="431.0332"/><polygon fill="#181818" points="212.5,421.0332,216.5,431.0332,220.5,421.0332,216.5,425.0332" style="stroke:#181818;stroke-width:1.0;"/><line style="stroke:#181818;stroke-width:1.0;" x1="216.5" x2="216.5" y1="130.2832" y2="135.2832"/><line style="stroke:#181818;stroke-width:1.0;" x1="216.5" x2="81.5" y1="135.2832" y2="135.2832"/><line style="stroke:#181818;stroke-width:1.0;" x1="81.5" x2="81.5" y1="135.2832" y2="150.2832"/><polygon fill="#181818" points="77.5,140.2832,81.5,150.2832,85.5,140.2832,81.5,144.2832" style="stroke:#181818;stroke-width:1.0;"/><line style="stroke:#181818;stroke-width:1.0;" x1="81.5" x2="81.5" y1="215.5645" y2="220.5645"/><line style="stroke:#181818;stroke-width:1.0;" x1="81.5" x2="216.5" y1="220.5645" y2="220.5645"/><line style="stroke:#181818;stroke-width:1.0;" x1="216.5" x2="216.5" y1="220.5645" y2="235.5645"/><polygon fill="#181818" points="212.5,225.5645,216.5,235.5645,220.5,225.5645,216.5,229.5645" style="stroke:#181818;stroke-width:1.0;"/><line style="stroke:#181818;stroke-width:1.0;" x1="216.5" x2="216.5" y1="285.752" y2="290.752"/><line style="stroke:#181818;stroke-width:1.0;" x1="216.5" x2="339.5" y1="290.752" y2="290.752"/><line style="stroke:#181818;stroke-width:1.0;" x1="339.5" x2="339.5" y1="290.752" y2="305.752"/><polygon fill="#181818" points="335.5,295.752,339.5,305.752,343.5,295.752,339.5,299.752" style="stroke:#181818;stroke-width:1.0;"/><line style="stroke:#181818;stroke-width:1.0;" x1="339.5" x2="339.5" y1="340.8457" y2="345.8457"/><line style="stroke:#181818;stroke-width:1.0;" x1="339.5" x2="216.5" y1="345.8457" y2="345.8457"/><line style="stroke:#181818;stroke-width:1.0;" x1="216.5" x2="216.5" y1="345.8457" y2="360.8457"/><polygon fill="#181818" points="212.5,350.8457,216.5,360.8457,220.5,350.8457,216.5,354.8457" style="stroke:#181818;stroke-width:1.0;"/><text fill="#000000" font-family="sans-serif" font-size="18" lengthAdjust="spacing" textLength="121" x="20" y="31.1406">Parent / Doctor</text><text fill="#000000" font-family="sans-serif" font-size="18" lengthAdjust="spacing" textLength="59" x="186" y="31.1406">System</text><text fill="#000000" font-family="sans-serif" font-size="18" lengthAdjust="spacing" textLength="77" x="300" y="31.1406">Database</text><!--MD5=[dda51266955abaac819120531779142e]
@startuml MonitorChildEventsActi
|Parent / Doctor|
|System|
|Database|
|System|
start
:(1) Display child\nevents as chart;
    |Parent / Doctor|
    :(2) Click on the\nevent want to\nview detail;
    |System|
    :(3) Get selected\nevent information;
    |Database|
    :(4) Query data;
    |System|    
    :(5) Display selected\nevent information;
|System|
stop
@enduml

PlantUML version 1.2022.7(Tue Aug 23 00:01:30 ICT 2022)
(GPL source distribution)
Java Runtime: Java(TM) SE Runtime Environment
JVM: Java HotSpot(TM) 64-Bit Server VM
Default Encoding: Cp1252
Language: en
Country: US
--></g></svg>