<?xml version="1.0" encoding="UTF-8" standalone="no"?><svg xmlns="http://www.w3.org/2000/svg" xmlns:xlink="http://www.w3.org/1999/xlink" contentStyleType="text/css" height="530px" preserveAspectRatio="none" style="width:469px;height:530px;background:#FFFFFF;" version="1.1" viewBox="0 0 469 530" width="469px" zoomAndPan="magnify"><defs/><g><rect fill="#F1F1F1" height="50.1875" rx="12.5" ry="12.5" style="stroke:#181818;stroke-width:0.5;" width="143" x="64.5" y="150.2832"/><text fill="#000000" font-family="sans-serif" font-size="12" lengthAdjust="spacing" textLength="123" x="74.5" y="172.7402">(2) Select child want to</text><text fill="#000000" font-family="sans-serif" font-size="12" lengthAdjust="spacing" textLength="95" x="74.5" y="187.834">view heath status</text><rect fill="#F1F1F1" height="35.0938" rx="12.5" ry="12.5" style="stroke:#181818;stroke-width:0.5;" width="128" x="72" y="220.4707"/><text fill="#000000" font-family="sans-serif" font-size="12" lengthAdjust="spacing" textLength="108" x="82" y="242.9277">(3) Choose function</text><polygon fill="#F1F1F1" points="51,275.5645,51,275.5645,63,287.5645,51,299.5645,51,299.5645,39,287.5645,51,275.5645" style="stroke:#181818;stroke-width:0.5;"/><text fill="#000000" font-family="sans-serif" font-size="11" lengthAdjust="spacing" textLength="35" x="55" y="310.9834">Monitor</text><text fill="#000000" font-family="sans-serif" font-size="11" lengthAdjust="spacing" textLength="23" x="55" y="324.8193">Child</text><text fill="#000000" font-family="sans-serif" font-size="11" lengthAdjust="spacing" textLength="33" x="55" y="338.6553">Events</text><rect fill="#F1F1F1" height="95.4688" rx="12.5" ry="12.5" style="stroke:#181818;stroke-width:0.5;" width="60" x="21" y="361.0723"/><text fill="#000000" font-family="sans-serif" font-size="12" lengthAdjust="spacing" textLength="25" x="31" y="383.5293">(3.1)</text><text fill="#000000" font-family="sans-serif" font-size="12" lengthAdjust="spacing" textLength="35" x="31" y="398.623">Activity</text><text fill="#000000" font-family="sans-serif" font-size="12" lengthAdjust="spacing" textLength="40" x="31" y="413.7168">Monitor</text><text fill="#000000" font-family="sans-serif" font-size="12" lengthAdjust="spacing" textLength="29" x="31" y="428.8105">Child</text><text fill="#000000" font-family="sans-serif" font-size="12" lengthAdjust="spacing" textLength="37" x="31" y="443.9043">Events</text><polygon fill="#F1F1F1" points="136,275.5645,136,275.5645,148,287.5645,136,299.5645,136,299.5645,124,287.5645,136,275.5645" style="stroke:#181818;stroke-width:0.5;"/><text fill="#000000" font-family="sans-serif" font-size="11" lengthAdjust="spacing" textLength="35" x="140" y="310.9834">Monitor</text><text fill="#000000" font-family="sans-serif" font-size="11" lengthAdjust="spacing" textLength="22" x="140" y="324.8193">Meal</text><text fill="#000000" font-family="sans-serif" font-size="11" lengthAdjust="spacing" textLength="28" x="140" y="338.6553">Times</text><text fill="#000000" font-family="sans-serif" font-size="11" lengthAdjust="spacing" textLength="96" x="148" y="285.1475">Monitor Sleep Times</text><rect fill="#F1F1F1" height="95.4688" rx="12.5" ry="12.5" style="stroke:#181818;stroke-width:0.5;" width="60" x="106" y="361.0723"/><text fill="#000000" font-family="sans-serif" font-size="12" lengthAdjust="spacing" textLength="25" x="116" y="383.5293">(3.2)</text><text fill="#000000" font-family="sans-serif" font-size="12" lengthAdjust="spacing" textLength="35" x="116" y="398.623">Activity</text><text fill="#000000" font-family="sans-serif" font-size="12" lengthAdjust="spacing" textLength="40" x="116" y="413.7168">Monitor</text><text fill="#000000" font-family="sans-serif" font-size="12" lengthAdjust="spacing" textLength="26" x="116" y="428.8105">Meal</text><text fill="#000000" font-family="sans-serif" font-size="12" lengthAdjust="spacing" textLength="35" x="116" y="443.9043">Times</text><rect fill="#F1F1F1" height="95.4688" rx="12.5" ry="12.5" style="stroke:#181818;stroke-width:0.5;" width="60" x="191" y="343.3184"/><text fill="#000000" font-family="sans-serif" font-size="12" lengthAdjust="spacing" textLength="25" x="201" y="365.7754">(3.3)</text><text fill="#000000" font-family="sans-serif" font-size="12" lengthAdjust="spacing" textLength="35" x="201" y="380.8691">Activity</text><text fill="#000000" font-family="sans-serif" font-size="12" lengthAdjust="spacing" textLength="40" x="201" y="395.9629">Monitor</text><text fill="#000000" font-family="sans-serif" font-size="12" lengthAdjust="spacing" textLength="32" x="201" y="411.0566">Sleep</text><text fill="#000000" font-family="sans-serif" font-size="12" lengthAdjust="spacing" textLength="35" x="201" y="426.1504">Times</text><line style="stroke:#000000;stroke-width:1.5;" x1="15" x2="15" y1="12.4551" y2="518.541"/><ellipse cx="310" cy="50.0957" fill="#222222" rx="10" ry="10" style="stroke:#222222;stroke-width:1.0;"/><rect fill="#F1F1F1" height="50.1875" rx="12.5" ry="12.5" style="stroke:#181818;stroke-width:0.5;" width="98" x="261" y="80.0957"/><text fill="#000000" font-family="sans-serif" font-size="12" lengthAdjust="spacing" textLength="78" x="271" y="102.5527">(1) Display list</text><text fill="#000000" font-family="sans-serif" font-size="12" lengthAdjust="spacing" textLength="57" x="271" y="117.6465">of children</text><ellipse cx="310" cy="507.541" fill="none" rx="11" ry="11" style="stroke:#222222;stroke-width:1.0;"/><ellipse cx="310" cy="507.541" fill="#222222" rx="6" ry="6" style="stroke:#111111;stroke-width:1.0;"/><line style="stroke:#000000;stroke-width:1.5;" x1="255" x2="255" y1="12.4551" y2="518.541"/><line style="stroke:#000000;stroke-width:1.5;" x1="363" x2="363" y1="12.4551" y2="518.541"/><line style="stroke:#000000;stroke-width:1.5;" x1="450" x2="450" y1="12.4551" y2="518.541"/><line style="stroke:#181818;stroke-width:1.0;" x1="136" x2="136" y1="200.4707" y2="220.4707"/><polygon fill="#181818" points="132,210.4707,136,220.4707,140,210.4707,136,214.4707" style="stroke:#181818;stroke-width:1.0;"/><line style="stroke:#181818;stroke-width:1.0;" x1="51" x2="51" y1="299.5645" y2="361.0723"/><polygon fill="#181818" points="47,351.0723,51,361.0723,55,351.0723,51,355.0723" style="stroke:#181818;stroke-width:1.0;"/><line style="stroke:#181818;stroke-width:1.0;" x1="51" x2="51" y1="456.541" y2="476.541"/><polygon fill="#181818" points="47,466.541,51,476.541,55,466.541,51,470.541" style="stroke:#181818;stroke-width:1.0;"/><line style="stroke:#181818;stroke-width:1.0;" x1="136" x2="136" y1="299.5645" y2="361.0723"/><polygon fill="#181818" points="132,351.0723,136,361.0723,140,351.0723,136,355.0723" style="stroke:#181818;stroke-width:1.0;"/><line style="stroke:#181818;stroke-width:1.0;" x1="136" x2="136" y1="456.541" y2="481.541"/><line style="stroke:#181818;stroke-width:1.0;" x1="136" x2="310" y1="481.541" y2="481.541"/><line style="stroke:#181818;stroke-width:1.0;" x1="310" x2="310" y1="481.541" y2="496.541"/><polygon fill="#181818" points="306,486.541,310,496.541,314,486.541,310,490.541" style="stroke:#181818;stroke-width:1.0;"/><line style="stroke:#181818;stroke-width:1.0;" x1="63" x2="124" y1="287.5645" y2="287.5645"/><polygon fill="#181818" points="114,283.5645,124,287.5645,114,291.5645,118,287.5645" style="stroke:#181818;stroke-width:1.0;"/><line style="stroke:#181818;stroke-width:1.0;" x1="136" x2="136" y1="255.5645" y2="260.5645"/><line style="stroke:#181818;stroke-width:1.0;" x1="136" x2="51" y1="260.5645" y2="260.5645"/><line style="stroke:#181818;stroke-width:1.0;" x1="51" x2="51" y1="260.5645" y2="275.5645"/><polygon fill="#181818" points="47,265.5645,51,275.5645,55,265.5645,51,269.5645" style="stroke:#181818;stroke-width:1.0;"/><line style="stroke:#181818;stroke-width:1.0;" x1="148" x2="221" y1="287.5645" y2="287.5645"/><line style="stroke:#181818;stroke-width:1.0;" x1="221" x2="221" y1="287.5645" y2="343.3184"/><polygon fill="#181818" points="217,333.3184,221,343.3184,225,333.3184,221,337.3184" style="stroke:#181818;stroke-width:1.0;"/><line style="stroke:#181818;stroke-width:1.0;" x1="221" x2="221" y1="438.7871" y2="476.541"/><polygon fill="#181818" points="217,466.541,221,476.541,225,466.541,221,470.541" style="stroke:#181818;stroke-width:1.0;"/><line style="stroke:#181818;stroke-width:1.0;" x1="51" x2="221" y1="476.541" y2="476.541"/><line style="stroke:#181818;stroke-width:1.0;" x1="310" x2="310" y1="60.0957" y2="80.0957"/><polygon fill="#181818" points="306,70.0957,310,80.0957,314,70.0957,310,74.0957" style="stroke:#181818;stroke-width:1.0;"/><line style="stroke:#181818;stroke-width:1.0;" x1="310" x2="310" y1="130.2832" y2="135.2832"/><line style="stroke:#181818;stroke-width:1.0;" x1="310" x2="136" y1="135.2832" y2="135.2832"/><line style="stroke:#181818;stroke-width:1.0;" x1="136" x2="136" y1="135.2832" y2="150.2832"/><polygon fill="#181818" points="132,140.2832,136,150.2832,140,140.2832,136,144.2832" style="stroke:#181818;stroke-width:1.0;"/><text fill="#000000" font-family="sans-serif" font-size="18" lengthAdjust="spacing" textLength="121" x="74.5" y="31.1406">Parent / Parent</text><text fill="#000000" font-family="sans-serif" font-size="18" lengthAdjust="spacing" textLength="59" x="279.5" y="31.1406">System</text><text fill="#000000" font-family="sans-serif" font-size="18" lengthAdjust="spacing" textLength="77" x="368" y="31.1406">Database</text><!--MD5=[a2013025e65a5623987e163a8e0b9ec6]
@startuml MonitorChildHeathStatusActi
|Parent / Parent|
|System|
|Database|
|System|
start
:(1) Display list\nof children;
|Parent / Parent|
:(2) Select child want to\nview heath status;
:(3) Choose function;
if () then (Monitor\nChild\nEvents)
  :(3.1)\nActivity\nMonitor\nChild\nEvents; 
elseif () then (Monitor\nMeal\nTimes) 
  :(3.2)\nActivity\nMonitor\nMeal\nTimes; 
else (Monitor Sleep Times) 
  :(3.3)\nActivity\nMonitor\nSleep\nTimes; 
endif
|System|
stop
@enduml

PlantUML version 1.2022.7(Tue Aug 23 00:01:30 ICT 2022)
(GPL source distribution)
Java Runtime: Java(TM) SE Runtime Environment
JVM: Java HotSpot(TM) 64-Bit Server VM
Default Encoding: Cp1252
Language: en
Country: US
--></g></svg>