<?xml version="1.0" encoding="UTF-8" standalone="no"?><svg xmlns="http://www.w3.org/2000/svg" xmlns:xlink="http://www.w3.org/1999/xlink" contentStyleType="text/css" height="465px" preserveAspectRatio="none" style="width:425px;height:465px;background:#FFFFFF;" version="1.1" viewBox="0 0 425 465" width="425px" zoomAndPan="magnify"><defs/><g><rect fill="#F1F1F1" height="65.2813" rx="12.5" ry="12.5" style="stroke:#181818;stroke-width:0.5;" width="107" x="28" y="150.2832"/><text fill="#000000" font-family="sans-serif" font-size="12" lengthAdjust="spacing" textLength="82" x="38" y="172.7402">(2) Click on the</text><text fill="#000000" font-family="sans-serif" font-size="12" lengthAdjust="spacing" textLength="87" x="38" y="187.834">sleep time want</text><text fill="#000000" font-family="sans-serif" font-size="12" lengthAdjust="spacing" textLength="70" x="38" y="202.9277">to view detail</text><line style="stroke:#000000;stroke-width:1.5;" x1="15" x2="15" y1="12.4551" y2="453.0332"/><ellipse cx="223.5" cy="50.0957" fill="#222222" rx="10" ry="10" style="stroke:#222222;stroke-width:1.0;"/><rect fill="#F1F1F1" height="50.1875" rx="12.5" ry="12.5" style="stroke:#181818;stroke-width:0.5;" width="132" x="157.5" y="80.0957"/><text fill="#000000" font-family="sans-serif" font-size="12" lengthAdjust="spacing" textLength="88" x="167.5" y="102.5527">(1) Display child</text><text fill="#000000" font-family="sans-serif" font-size="12" lengthAdjust="spacing" textLength="112" x="167.5" y="117.6465">sleep times as chart</text><rect fill="#F1F1F1" height="50.1875" rx="12.5" ry="12.5" style="stroke:#181818;stroke-width:0.5;" width="143" x="152" y="235.5645"/><text fill="#000000" font-family="sans-serif" font-size="12" lengthAdjust="spacing" textLength="87" x="162" y="258.0215">(3) Get selected</text><text fill="#000000" font-family="sans-serif" font-size="12" lengthAdjust="spacing" textLength="123" x="162" y="273.1152">sleep time information</text><rect fill="#F1F1F1" height="50.1875" rx="12.5" ry="12.5" style="stroke:#181818;stroke-width:0.5;" width="143" x="152" y="360.8457"/><text fill="#000000" font-family="sans-serif" font-size="12" lengthAdjust="spacing" textLength="109" x="162" y="383.3027">(5) Display selected</text><text fill="#000000" font-family="sans-serif" font-size="12" lengthAdjust="spacing" textLength="123" x="162" y="398.3965">sleep time information</text><ellipse cx="223.5" cy="442.0332" fill="none" rx="11" ry="11" style="stroke:#222222;stroke-width:1.0;"/><ellipse cx="223.5" cy="442.0332" fill="#222222" rx="6" ry="6" style="stroke:#111111;stroke-width:1.0;"/><line style="stroke:#000000;stroke-width:1.5;" x1="146" x2="146" y1="12.4551" y2="453.0332"/><rect fill="#F1F1F1" height="35.0938" rx="12.5" ry="12.5" style="stroke:#181818;stroke-width:0.5;" width="97" x="305" y="305.752"/><text fill="#000000" font-family="sans-serif" font-size="12" lengthAdjust="spacing" textLength="77" x="315" y="328.209">(4) Query data</text><line style="stroke:#000000;stroke-width:1.5;" x1="299" x2="299" y1="12.4551" y2="453.0332"/><line style="stroke:#000000;stroke-width:1.5;" x1="406" x2="406" y1="12.4551" y2="453.0332"/><line style="stroke:#181818;stroke-width:1.0;" x1="223.5" x2="223.5" y1="60.0957" y2="80.0957"/><polygon fill="#181818" points="219.5,70.0957,223.5,80.0957,227.5,70.0957,223.5,74.0957" style="stroke:#181818;stroke-width:1.0;"/><line style="stroke:#181818;stroke-width:1.0;" x1="223.5" x2="223.5" y1="411.0332" y2="431.0332"/><polygon fill="#181818" points="219.5,421.0332,223.5,431.0332,227.5,421.0332,223.5,425.0332" style="stroke:#181818;stroke-width:1.0;"/><line style="stroke:#181818;stroke-width:1.0;" x1="223.5" x2="223.5" y1="130.2832" y2="135.2832"/><line style="stroke:#181818;stroke-width:1.0;" x1="223.5" x2="81.5" y1="135.2832" y2="135.2832"/><line style="stroke:#181818;stroke-width:1.0;" x1="81.5" x2="81.5" y1="135.2832" y2="150.2832"/><polygon fill="#181818" points="77.5,140.2832,81.5,150.2832,85.5,140.2832,81.5,144.2832" style="stroke:#181818;stroke-width:1.0;"/><line style="stroke:#181818;stroke-width:1.0;" x1="81.5" x2="81.5" y1="215.5645" y2="220.5645"/><line style="stroke:#181818;stroke-width:1.0;" x1="81.5" x2="223.5" y1="220.5645" y2="220.5645"/><line style="stroke:#181818;stroke-width:1.0;" x1="223.5" x2="223.5" y1="220.5645" y2="235.5645"/><polygon fill="#181818" points="219.5,225.5645,223.5,235.5645,227.5,225.5645,223.5,229.5645" style="stroke:#181818;stroke-width:1.0;"/><line style="stroke:#181818;stroke-width:1.0;" x1="223.5" x2="223.5" y1="285.752" y2="290.752"/><line style="stroke:#181818;stroke-width:1.0;" x1="223.5" x2="353.5" y1="290.752" y2="290.752"/><line style="stroke:#181818;stroke-width:1.0;" x1="353.5" x2="353.5" y1="290.752" y2="305.752"/><polygon fill="#181818" points="349.5,295.752,353.5,305.752,357.5,295.752,353.5,299.752" style="stroke:#181818;stroke-width:1.0;"/><line style="stroke:#181818;stroke-width:1.0;" x1="353.5" x2="353.5" y1="340.8457" y2="345.8457"/><line style="stroke:#181818;stroke-width:1.0;" x1="353.5" x2="223.5" y1="345.8457" y2="345.8457"/><line style="stroke:#181818;stroke-width:1.0;" x1="223.5" x2="223.5" y1="345.8457" y2="360.8457"/><polygon fill="#181818" points="219.5,350.8457,223.5,360.8457,227.5,350.8457,223.5,354.8457" style="stroke:#181818;stroke-width:1.0;"/><text fill="#000000" font-family="sans-serif" font-size="18" lengthAdjust="spacing" textLength="121" x="20" y="31.1406">Parent / Doctor</text><text fill="#000000" font-family="sans-serif" font-size="18" lengthAdjust="spacing" textLength="59" x="193" y="31.1406">System</text><text fill="#000000" font-family="sans-serif" font-size="18" lengthAdjust="spacing" textLength="77" x="314" y="31.1406">Database</text><!--MD5=[9c0d2d9cf5c7c9ae5f38551bfa17b7ed]
@startuml MonitorSleepTimesActi
|Parent / Doctor|
|System|
|Database|
|System|
start
:(1) Display child\nsleep times as chart;
    |Parent / Doctor|
    :(2) Click on the\nsleep time want\nto view detail;
    |System|
    :(3) Get selected\nsleep time information;
    |Database|
    :(4) Query data;
    |System|
    :(5) Display selected\nsleep time information;
|System|
stop
@enduml

PlantUML version 1.2022.7(Tue Aug 23 00:01:30 ICT 2022)
(GPL source distribution)
Java Runtime: Java(TM) SE Runtime Environment
JVM: Java HotSpot(TM) 64-Bit Server VM
Default Encoding: Cp1252
Language: en
Country: US
--></g></svg>