<?xml version="1.0" encoding="UTF-8" standalone="no"?><svg xmlns="http://www.w3.org/2000/svg" xmlns:xlink="http://www.w3.org/1999/xlink" contentStyleType="text/css" height="465px" preserveAspectRatio="none" style="width:422px;height:465px;background:#FFFFFF;" version="1.1" viewBox="0 0 422 465" width="422px" zoomAndPan="magnify"><defs/><g><rect fill="#F1F1F1" height="65.2813" rx="12.5" ry="12.5" style="stroke:#181818;stroke-width:0.5;" width="104" x="29.5" y="150.2832"/><text fill="#000000" font-family="sans-serif" font-size="12" lengthAdjust="spacing" textLength="82" x="39.5" y="172.7402">(2) Click on the</text><text fill="#000000" font-family="sans-serif" font-size="12" lengthAdjust="spacing" textLength="84" x="39.5" y="187.834">meal time want</text><text fill="#000000" font-family="sans-serif" font-size="12" lengthAdjust="spacing" textLength="70" x="39.5" y="202.9277">to view detail</text><line style="stroke:#000000;stroke-width:1.5;" x1="15" x2="15" y1="12.4551" y2="453.0332"/><ellipse cx="222" cy="50.0957" fill="#222222" rx="10" ry="10" style="stroke:#222222;stroke-width:1.0;"/><rect fill="#F1F1F1" height="50.1875" rx="12.5" ry="12.5" style="stroke:#181818;stroke-width:0.5;" width="129" x="157.5" y="80.0957"/><text fill="#000000" font-family="sans-serif" font-size="12" lengthAdjust="spacing" textLength="88" x="167.5" y="102.5527">(1) Display child</text><text fill="#000000" font-family="sans-serif" font-size="12" lengthAdjust="spacing" textLength="109" x="167.5" y="117.6465">meal times as chart</text><rect fill="#F1F1F1" height="50.1875" rx="12.5" ry="12.5" style="stroke:#181818;stroke-width:0.5;" width="140" x="152" y="235.5645"/><text fill="#000000" font-family="sans-serif" font-size="12" lengthAdjust="spacing" textLength="87" x="162" y="258.0215">(3) Get selected</text><text fill="#000000" font-family="sans-serif" font-size="12" lengthAdjust="spacing" textLength="120" x="162" y="273.1152">meal time information</text><rect fill="#F1F1F1" height="50.1875" rx="12.5" ry="12.5" style="stroke:#181818;stroke-width:0.5;" width="140" x="152" y="360.8457"/><text fill="#000000" font-family="sans-serif" font-size="12" lengthAdjust="spacing" textLength="109" x="162" y="383.3027">(5) Display selected</text><text fill="#000000" font-family="sans-serif" font-size="12" lengthAdjust="spacing" textLength="120" x="162" y="398.3965">meal time information</text><ellipse cx="222" cy="442.0332" fill="none" rx="11" ry="11" style="stroke:#222222;stroke-width:1.0;"/><ellipse cx="222" cy="442.0332" fill="#222222" rx="6" ry="6" style="stroke:#111111;stroke-width:1.0;"/><line style="stroke:#000000;stroke-width:1.5;" x1="146" x2="146" y1="12.4551" y2="453.0332"/><rect fill="#F1F1F1" height="35.0938" rx="12.5" ry="12.5" style="stroke:#181818;stroke-width:0.5;" width="97" x="302" y="305.752"/><text fill="#000000" font-family="sans-serif" font-size="12" lengthAdjust="spacing" textLength="77" x="312" y="328.209">(4) Query data</text><line style="stroke:#000000;stroke-width:1.5;" x1="296" x2="296" y1="12.4551" y2="453.0332"/><line style="stroke:#000000;stroke-width:1.5;" x1="403" x2="403" y1="12.4551" y2="453.0332"/><line style="stroke:#181818;stroke-width:1.0;" x1="222" x2="222" y1="60.0957" y2="80.0957"/><polygon fill="#181818" points="218,70.0957,222,80.0957,226,70.0957,222,74.0957" style="stroke:#181818;stroke-width:1.0;"/><line style="stroke:#181818;stroke-width:1.0;" x1="222" x2="222" y1="411.0332" y2="431.0332"/><polygon fill="#181818" points="218,421.0332,222,431.0332,226,421.0332,222,425.0332" style="stroke:#181818;stroke-width:1.0;"/><line style="stroke:#181818;stroke-width:1.0;" x1="222" x2="222" y1="130.2832" y2="135.2832"/><line style="stroke:#181818;stroke-width:1.0;" x1="222" x2="81.5" y1="135.2832" y2="135.2832"/><line style="stroke:#181818;stroke-width:1.0;" x1="81.5" x2="81.5" y1="135.2832" y2="150.2832"/><polygon fill="#181818" points="77.5,140.2832,81.5,150.2832,85.5,140.2832,81.5,144.2832" style="stroke:#181818;stroke-width:1.0;"/><line style="stroke:#181818;stroke-width:1.0;" x1="81.5" x2="81.5" y1="215.5645" y2="220.5645"/><line style="stroke:#181818;stroke-width:1.0;" x1="81.5" x2="222" y1="220.5645" y2="220.5645"/><line style="stroke:#181818;stroke-width:1.0;" x1="222" x2="222" y1="220.5645" y2="235.5645"/><polygon fill="#181818" points="218,225.5645,222,235.5645,226,225.5645,222,229.5645" style="stroke:#181818;stroke-width:1.0;"/><line style="stroke:#181818;stroke-width:1.0;" x1="222" x2="222" y1="285.752" y2="290.752"/><line style="stroke:#181818;stroke-width:1.0;" x1="222" x2="350.5" y1="290.752" y2="290.752"/><line style="stroke:#181818;stroke-width:1.0;" x1="350.5" x2="350.5" y1="290.752" y2="305.752"/><polygon fill="#181818" points="346.5,295.752,350.5,305.752,354.5,295.752,350.5,299.752" style="stroke:#181818;stroke-width:1.0;"/><line style="stroke:#181818;stroke-width:1.0;" x1="350.5" x2="350.5" y1="340.8457" y2="345.8457"/><line style="stroke:#181818;stroke-width:1.0;" x1="350.5" x2="222" y1="345.8457" y2="345.8457"/><line style="stroke:#181818;stroke-width:1.0;" x1="222" x2="222" y1="345.8457" y2="360.8457"/><polygon fill="#181818" points="218,350.8457,222,360.8457,226,350.8457,222,354.8457" style="stroke:#181818;stroke-width:1.0;"/><text fill="#000000" font-family="sans-serif" font-size="18" lengthAdjust="spacing" textLength="121" x="20" y="31.1406">Parent / Doctor</text><text fill="#000000" font-family="sans-serif" font-size="18" lengthAdjust="spacing" textLength="59" x="191.5" y="31.1406">System</text><text fill="#000000" font-family="sans-serif" font-size="18" lengthAdjust="spacing" textLength="77" x="311" y="31.1406">Database</text><!--MD5=[9b7188bb59240cd02f623cf3f95587c4]
@startuml MonitorMealTimesActi
|Parent / Doctor|
|System|
|Database|
|System|
start
:(1) Display child\nmeal times as chart;
    |Parent / Doctor|
    :(2) Click on the\nmeal time want\nto view detail;
    |System|
    :(3) Get selected\nmeal time information;
    |Database|
    :(4) Query data;
    |System|
    :(5) Display selected\nmeal time information;
|System|
stop
@enduml

PlantUML version 1.2022.7(Tue Aug 23 00:01:30 ICT 2022)
(GPL source distribution)
Java Runtime: Java(TM) SE Runtime Environment
JVM: Java HotSpot(TM) 64-Bit Server VM
Default Encoding: Cp1252
Language: en
Country: US
--></g></svg>