<?xml version="1.0" encoding="UTF-8" standalone="no"?><svg xmlns="http://www.w3.org/2000/svg" xmlns:xlink="http://www.w3.org/1999/xlink" contentStyleType="text/css" height="417px" preserveAspectRatio="none" style="width:531px;height:417px;background:#FFFFFF;" version="1.1" viewBox="0 0 531 417" width="531px" zoomAndPan="magnify"><defs/><g><rect fill="#F1F1F1" height="35.0938" rx="12.5" ry="12.5" style="stroke:#181818;stroke-width:0.5;" width="128" x="108" y="150.2832"/><text fill="#000000" font-family="sans-serif" font-size="12" lengthAdjust="spacing" textLength="108" x="118" y="172.7402">(2) Choose function</text><polygon fill="#F1F1F1" points="49.5,205.377,49.5,205.377,61.5,217.377,49.5,229.377,49.5,229.377,37.5,217.377,49.5,205.377" style="stroke:#181818;stroke-width:0.5;"/><text fill="#000000" font-family="sans-serif" font-size="11" lengthAdjust="spacing" textLength="32" x="53.5" y="240.7959">Create</text><rect fill="#F1F1F1" height="80.375" rx="12.5" ry="12.5" style="stroke:#181818;stroke-width:0.5;" width="57" x="21" y="263.2129"/><text fill="#000000" font-family="sans-serif" font-size="12" lengthAdjust="spacing" textLength="25" x="31" y="285.6699">(2.1)</text><text fill="#000000" font-family="sans-serif" font-size="12" lengthAdjust="spacing" textLength="35" x="31" y="300.7637">Activity</text><text fill="#000000" font-family="sans-serif" font-size="12" lengthAdjust="spacing" textLength="37" x="31" y="315.8574">Create</text><text fill="#000000" font-family="sans-serif" font-size="12" lengthAdjust="spacing" textLength="26" x="31" y="330.9512">Chat</text><polygon fill="#F1F1F1" points="123.5,205.377,123.5,205.377,135.5,217.377,123.5,229.377,123.5,229.377,111.5,217.377,123.5,205.377" style="stroke:#181818;stroke-width:0.5;"/><text fill="#000000" font-family="sans-serif" font-size="11" lengthAdjust="spacing" textLength="30" x="127.5" y="240.7959">Delete</text><rect fill="#F1F1F1" height="80.375" rx="12.5" ry="12.5" style="stroke:#181818;stroke-width:0.5;" width="56" x="95.5" y="263.2129"/><text fill="#000000" font-family="sans-serif" font-size="12" lengthAdjust="spacing" textLength="25" x="105.5" y="285.6699">(2.2)</text><text fill="#000000" font-family="sans-serif" font-size="12" lengthAdjust="spacing" textLength="35" x="105.5" y="300.7637">Activity</text><text fill="#000000" font-family="sans-serif" font-size="12" lengthAdjust="spacing" textLength="36" x="105.5" y="315.8574">Delete</text><text fill="#000000" font-family="sans-serif" font-size="12" lengthAdjust="spacing" textLength="26" x="105.5" y="330.9512">Chat</text><polygon fill="#F1F1F1" points="203,205.377,203,205.377,215,217.377,203,229.377,203,229.377,191,217.377,203,205.377" style="stroke:#181818;stroke-width:0.5;"/><text fill="#000000" font-family="sans-serif" font-size="11" lengthAdjust="spacing" textLength="35" x="207" y="240.7959">Search</text><text fill="#000000" font-family="sans-serif" font-size="11" lengthAdjust="spacing" textLength="74" x="215" y="214.96">Reply Message</text><rect fill="#F1F1F1" height="80.375" rx="12.5" ry="12.5" style="stroke:#181818;stroke-width:0.5;" width="59" x="173.5" y="263.2129"/><text fill="#000000" font-family="sans-serif" font-size="12" lengthAdjust="spacing" textLength="25" x="183.5" y="285.6699">(2.3)</text><text fill="#000000" font-family="sans-serif" font-size="12" lengthAdjust="spacing" textLength="35" x="183.5" y="300.7637">Activity</text><text fill="#000000" font-family="sans-serif" font-size="12" lengthAdjust="spacing" textLength="39" x="183.5" y="315.8574">Search</text><text fill="#000000" font-family="sans-serif" font-size="12" lengthAdjust="spacing" textLength="26" x="183.5" y="330.9512">Chat</text><rect fill="#F1F1F1" height="80.375" rx="12.5" ry="12.5" style="stroke:#181818;stroke-width:0.5;" width="71" x="258" y="259.2949"/><text fill="#000000" font-family="sans-serif" font-size="12" lengthAdjust="spacing" textLength="25" x="268" y="281.752">(2.4)</text><text fill="#000000" font-family="sans-serif" font-size="12" lengthAdjust="spacing" textLength="35" x="268" y="296.8457">Activity</text><text fill="#000000" font-family="sans-serif" font-size="12" lengthAdjust="spacing" textLength="31" x="268" y="311.9395">Reply</text><text fill="#000000" font-family="sans-serif" font-size="12" lengthAdjust="spacing" textLength="51" x="268" y="327.0332">Message</text><line style="stroke:#000000;stroke-width:1.5;" x1="15" x2="15" y1="12.4551" y2="405.5879"/><ellipse cx="380" cy="50.0957" fill="#222222" rx="10" ry="10" style="stroke:#222222;stroke-width:1.0;"/><rect fill="#F1F1F1" height="50.1875" rx="12.5" ry="12.5" style="stroke:#181818;stroke-width:0.5;" width="82" x="339" y="80.0957"/><text fill="#000000" font-family="sans-serif" font-size="12" lengthAdjust="spacing" textLength="59" x="349" y="102.5527">(1) Display</text><text fill="#000000" font-family="sans-serif" font-size="12" lengthAdjust="spacing" textLength="62" x="349" y="117.6465">list of chats</text><ellipse cx="380" cy="394.5879" fill="none" rx="11" ry="11" style="stroke:#222222;stroke-width:1.0;"/><ellipse cx="380" cy="394.5879" fill="#222222" rx="6" ry="6" style="stroke:#111111;stroke-width:1.0;"/><line style="stroke:#000000;stroke-width:1.5;" x1="333" x2="333" y1="12.4551" y2="405.5879"/><line style="stroke:#000000;stroke-width:1.5;" x1="425" x2="425" y1="12.4551" y2="405.5879"/><line style="stroke:#000000;stroke-width:1.5;" x1="512" x2="512" y1="12.4551" y2="405.5879"/><line style="stroke:#181818;stroke-width:1.0;" x1="49.5" x2="49.5" y1="229.377" y2="263.2129"/><polygon fill="#181818" points="45.5,253.2129,49.5,263.2129,53.5,253.2129,49.5,257.2129" style="stroke:#181818;stroke-width:1.0;"/><line style="stroke:#181818;stroke-width:1.0;" x1="49.5" x2="49.5" y1="343.5879" y2="363.5879"/><polygon fill="#181818" points="45.5,353.5879,49.5,363.5879,53.5,353.5879,49.5,357.5879" style="stroke:#181818;stroke-width:1.0;"/><line style="stroke:#181818;stroke-width:1.0;" x1="123.5" x2="123.5" y1="229.377" y2="263.2129"/><polygon fill="#181818" points="119.5,253.2129,123.5,263.2129,127.5,253.2129,123.5,257.2129" style="stroke:#181818;stroke-width:1.0;"/><line style="stroke:#181818;stroke-width:1.0;" x1="123.5" x2="123.5" y1="343.5879" y2="363.5879"/><polygon fill="#181818" points="119.5,353.5879,123.5,363.5879,127.5,353.5879,123.5,357.5879" style="stroke:#181818;stroke-width:1.0;"/><line style="stroke:#181818;stroke-width:1.0;" x1="203" x2="203" y1="229.377" y2="263.2129"/><polygon fill="#181818" points="199,253.2129,203,263.2129,207,253.2129,203,257.2129" style="stroke:#181818;stroke-width:1.0;"/><line style="stroke:#181818;stroke-width:1.0;" x1="203" x2="203" y1="343.5879" y2="363.5879"/><polygon fill="#181818" points="199,353.5879,203,363.5879,207,353.5879,203,357.5879" style="stroke:#181818;stroke-width:1.0;"/><line style="stroke:#181818;stroke-width:1.0;" x1="61.5" x2="111.5" y1="217.377" y2="217.377"/><polygon fill="#181818" points="101.5,213.377,111.5,217.377,101.5,221.377,105.5,217.377" style="stroke:#181818;stroke-width:1.0;"/><line style="stroke:#181818;stroke-width:1.0;" x1="135.5" x2="191" y1="217.377" y2="217.377"/><polygon fill="#181818" points="181,213.377,191,217.377,181,221.377,185,217.377" style="stroke:#181818;stroke-width:1.0;"/><line style="stroke:#181818;stroke-width:1.0;" x1="172" x2="172" y1="185.377" y2="190.377"/><line style="stroke:#181818;stroke-width:1.0;" x1="172" x2="49.5" y1="190.377" y2="190.377"/><line style="stroke:#181818;stroke-width:1.0;" x1="49.5" x2="49.5" y1="190.377" y2="205.377"/><polygon fill="#181818" points="45.5,195.377,49.5,205.377,53.5,195.377,49.5,199.377" style="stroke:#181818;stroke-width:1.0;"/><line style="stroke:#181818;stroke-width:1.0;" x1="215" x2="293.5" y1="217.377" y2="217.377"/><line style="stroke:#181818;stroke-width:1.0;" x1="293.5" x2="293.5" y1="217.377" y2="259.2949"/><polygon fill="#181818" points="289.5,249.2949,293.5,259.2949,297.5,249.2949,293.5,253.2949" style="stroke:#181818;stroke-width:1.0;"/><line style="stroke:#181818;stroke-width:1.0;" x1="293.5" x2="293.5" y1="339.6699" y2="363.5879"/><polygon fill="#181818" points="289.5,353.5879,293.5,363.5879,297.5,353.5879,293.5,357.5879" style="stroke:#181818;stroke-width:1.0;"/><line style="stroke:#181818;stroke-width:1.0;" x1="49.5" x2="293.5" y1="363.5879" y2="363.5879"/><line style="stroke:#181818;stroke-width:1.0;" x1="380" x2="380" y1="60.0957" y2="80.0957"/><polygon fill="#181818" points="376,70.0957,380,80.0957,384,70.0957,380,74.0957" style="stroke:#181818;stroke-width:1.0;"/><line style="stroke:#181818;stroke-width:1.0;" x1="380" x2="380" y1="130.2832" y2="135.2832"/><line style="stroke:#181818;stroke-width:1.0;" x1="380" x2="172" y1="135.2832" y2="135.2832"/><line style="stroke:#181818;stroke-width:1.0;" x1="172" x2="172" y1="135.2832" y2="150.2832"/><polygon fill="#181818" points="168,140.2832,172,150.2832,176,140.2832,172,144.2832" style="stroke:#181818;stroke-width:1.0;"/><line style="stroke:#181818;stroke-width:1.0;" x1="172" x2="172" y1="363.5879" y2="368.5879"/><line style="stroke:#181818;stroke-width:1.0;" x1="172" x2="380" y1="368.5879" y2="368.5879"/><line style="stroke:#181818;stroke-width:1.0;" x1="380" x2="380" y1="368.5879" y2="383.5879"/><polygon fill="#181818" points="376,373.5879,380,383.5879,384,373.5879,380,377.5879" style="stroke:#181818;stroke-width:1.0;"/><text fill="#000000" font-family="sans-serif" font-size="18" lengthAdjust="spacing" textLength="121" x="113.5" y="31.1406">Doctor / Parent</text><text fill="#000000" font-family="sans-serif" font-size="18" lengthAdjust="spacing" textLength="59" x="349.5" y="31.1406">System</text><text fill="#000000" font-family="sans-serif" font-size="18" lengthAdjust="spacing" textLength="77" x="430" y="31.1406">Database</text><!--MD5=[65e9f7c06afbe10e00f37a091f1a71f2]
@startuml ChatActi
|Doctor / Parent|
|System|
|Database|
|System|
start
:(1) Display\nlist of chats;    
|Doctor / Parent|
:(2) Choose function;
if () then (Create)
  :(2.1)\nActivity\nCreate\nChat; 
elseif () then (Delete)
  :(2.2)\nActivity\nDelete\nChat; 
elseif () then (Search)
  :(2.3)\nActivity\nSearch\nChat; 
else (Reply Message)
  :(2.4)\nActivity\nReply\nMessage;
endif
|System|
stop
@enduml

PlantUML version 1.2022.7(Tue Aug 23 00:01:30 ICT 2022)
(GPL source distribution)
Java Runtime: Java(TM) SE Runtime Environment
JVM: Java HotSpot(TM) 64-Bit Server VM
Default Encoding: Cp1252
Language: en
Country: US
--></g></svg>