<?xml version="1.0" encoding="UTF-8" standalone="no"?><svg xmlns="http://www.w3.org/2000/svg" xmlns:xlink="http://www.w3.org/1999/xlink" contentStyleType="text/css" height="349px" preserveAspectRatio="none" style="width:533px;height:349px;background:#FFFFFF;" version="1.1" viewBox="0 0 533 349" width="533px" zoomAndPan="magnify"><defs/><g><ellipse cx="123.5" cy="50.0957" fill="#222222" rx="10" ry="10" style="stroke:#222222;stroke-width:1.0;"/><rect fill="#F1F1F1" height="35.0938" rx="12.5" ry="12.5" style="stroke:#181818;stroke-width:0.5;" width="205" x="21" y="80.0957"/><text fill="#000000" font-family="sans-serif" font-size="12" lengthAdjust="spacing" textLength="185" x="31" y="102.5527">(1) Click "Create new Chat" button</text><rect fill="#F1F1F1" height="35.0938" rx="12.5" ry="12.5" style="stroke:#181818;stroke-width:0.5;" width="168" x="39.5" y="135.1895"/><text fill="#000000" font-family="sans-serif" font-size="12" lengthAdjust="spacing" textLength="148" x="49.5" y="157.6465">(2) Select user want to chat</text><line style="stroke:#000000;stroke-width:1.5;" x1="15" x2="15" y1="12.4551" y2="337.5645"/><rect fill="#F1F1F1" height="35.0938" rx="12.5" ry="12.5" style="stroke:#181818;stroke-width:0.5;" width="187" x="236" y="190.2832"/><text fill="#000000" font-family="sans-serif" font-size="12" lengthAdjust="spacing" textLength="167" x="246" y="212.7402">(3) Connect with selected user</text><rect fill="#F1F1F1" height="50.1875" rx="12.5" ry="12.5" style="stroke:#181818;stroke-width:0.5;" width="120" x="269.5" y="245.377"/><text fill="#000000" font-family="sans-serif" font-size="12" lengthAdjust="spacing" textLength="85" x="279.5" y="267.834">(4) Display chat</text><text fill="#000000" font-family="sans-serif" font-size="12" lengthAdjust="spacing" textLength="100" x="279.5" y="282.9277">with selected user</text><ellipse cx="329.5" cy="326.5645" fill="none" rx="11" ry="11" style="stroke:#222222;stroke-width:1.0;"/><ellipse cx="329.5" cy="326.5645" fill="#222222" rx="6" ry="6" style="stroke:#111111;stroke-width:1.0;"/><line style="stroke:#000000;stroke-width:1.5;" x1="230" x2="230" y1="12.4551" y2="337.5645"/><line style="stroke:#000000;stroke-width:1.5;" x1="427" x2="427" y1="12.4551" y2="337.5645"/><line style="stroke:#000000;stroke-width:1.5;" x1="514" x2="514" y1="12.4551" y2="337.5645"/><line style="stroke:#181818;stroke-width:1.0;" x1="123.5" x2="123.5" y1="60.0957" y2="80.0957"/><polygon fill="#181818" points="119.5,70.0957,123.5,80.0957,127.5,70.0957,123.5,74.0957" style="stroke:#181818;stroke-width:1.0;"/><line style="stroke:#181818;stroke-width:1.0;" x1="123.5" x2="123.5" y1="115.1895" y2="135.1895"/><polygon fill="#181818" points="119.5,125.1895,123.5,135.1895,127.5,125.1895,123.5,129.1895" style="stroke:#181818;stroke-width:1.0;"/><line style="stroke:#181818;stroke-width:1.0;" x1="329.5" x2="329.5" y1="225.377" y2="245.377"/><polygon fill="#181818" points="325.5,235.377,329.5,245.377,333.5,235.377,329.5,239.377" style="stroke:#181818;stroke-width:1.0;"/><line style="stroke:#181818;stroke-width:1.0;" x1="329.5" x2="329.5" y1="295.5645" y2="315.5645"/><polygon fill="#181818" points="325.5,305.5645,329.5,315.5645,333.5,305.5645,329.5,309.5645" style="stroke:#181818;stroke-width:1.0;"/><line style="stroke:#181818;stroke-width:1.0;" x1="123.5" x2="123.5" y1="170.2832" y2="175.2832"/><line style="stroke:#181818;stroke-width:1.0;" x1="123.5" x2="329.5" y1="175.2832" y2="175.2832"/><line style="stroke:#181818;stroke-width:1.0;" x1="329.5" x2="329.5" y1="175.2832" y2="190.2832"/><polygon fill="#181818" points="325.5,180.2832,329.5,190.2832,333.5,180.2832,329.5,184.2832" style="stroke:#181818;stroke-width:1.0;"/><text fill="#000000" font-family="sans-serif" font-size="18" lengthAdjust="spacing" textLength="121" x="62" y="31.1406">Parent / Doctor</text><text fill="#000000" font-family="sans-serif" font-size="18" lengthAdjust="spacing" textLength="59" x="299" y="31.1406">System</text><text fill="#000000" font-family="sans-serif" font-size="18" lengthAdjust="spacing" textLength="77" x="432" y="31.1406">Database</text><!--MD5=[a29fff193063a63c5e39d438a73aede1]
@startuml CreateChatActi
|Parent / Doctor|
|System|
|Database|
|Parent / Doctor|
start
:(1) Click "Create new Chat" button;
:(2) Select user want to chat;  
|System|
:(3) Connect with selected user;
:(4) Display chat\nwith selected user;         
stop
@enduml

PlantUML version 1.2022.7(Tue Aug 23 00:01:30 ICT 2022)
(GPL source distribution)
Java Runtime: Java(TM) SE Runtime Environment
JVM: Java HotSpot(TM) 64-Bit Server VM
Default Encoding: Cp1252
Language: en
Country: US
--></g></svg>