<?xml version="1.0" encoding="UTF-8" standalone="no"?><svg xmlns="http://www.w3.org/2000/svg" xmlns:xlink="http://www.w3.org/1999/xlink" contentStyleType="text/css" height="600px" preserveAspectRatio="none" style="width:472px;height:600px;background:#FFFFFF;" version="1.1" viewBox="0 0 472 600" width="472px" zoomAndPan="magnify"><defs/><g><ellipse cx="82.5" cy="50.0957" fill="#222222" rx="10" ry="10" style="stroke:#222222;stroke-width:1.0;"/><rect fill="#F1F1F1" height="50.1875" rx="12.5" ry="12.5" style="stroke:#181818;stroke-width:0.5;" width="98" x="33.5" y="80.0957"/><text fill="#000000" font-family="sans-serif" font-size="12" lengthAdjust="spacing" textLength="78" x="43.5" y="102.5527">(1) Select chat</text><text fill="#000000" font-family="sans-serif" font-size="12" lengthAdjust="spacing" textLength="68" x="43.5" y="117.6465">want to reply</text><rect fill="#F1F1F1" height="35.0938" rx="12.5" ry="12.5" style="stroke:#181818;stroke-width:0.5;" width="123" x="21" y="345.752"/><text fill="#000000" font-family="sans-serif" font-size="12" lengthAdjust="spacing" textLength="103" x="31" y="368.209">(5) Send message</text><line style="stroke:#000000;stroke-width:1.5;" x1="15" x2="15" y1="12.4551" y2="588.127"/><rect fill="#F1F1F1" height="50.1875" rx="12.5" ry="12.5" style="stroke:#181818;stroke-width:0.5;" width="108" x="194" y="150.2832"/><text fill="#000000" font-family="sans-serif" font-size="12" lengthAdjust="spacing" textLength="87" x="204" y="172.7402">(2) Get selected</text><text fill="#000000" font-family="sans-serif" font-size="12" lengthAdjust="spacing" textLength="88" x="204" y="187.834">chat information</text><rect fill="#F1F1F1" height="50.1875" rx="12.5" ry="12.5" style="stroke:#181818;stroke-width:0.5;" width="93" x="201.5" y="275.5645"/><text fill="#000000" font-family="sans-serif" font-size="12" lengthAdjust="spacing" textLength="59" x="211.5" y="298.0215">(4) Display</text><text fill="#000000" font-family="sans-serif" font-size="12" lengthAdjust="spacing" textLength="73" x="211.5" y="313.1152">selected chat</text><rect fill="#F1F1F1" height="35.0938" rx="12.5" ry="12.5" style="stroke:#181818;stroke-width:0.5;" width="188" x="154" y="400.8457"/><text fill="#000000" font-family="sans-serif" font-size="12" lengthAdjust="spacing" textLength="168" x="164" y="423.3027">(6) Process sending message</text><rect fill="#F1F1F1" height="35.0938" rx="12.5" ry="12.5" style="stroke:#181818;stroke-width:0.5;" width="162" x="167" y="511.0332"/><text fill="#000000" font-family="sans-serif" font-size="12" lengthAdjust="spacing" textLength="142" x="177" y="533.4902">(8) Display sent message</text><ellipse cx="248" cy="577.127" fill="none" rx="11" ry="11" style="stroke:#222222;stroke-width:1.0;"/><ellipse cx="248" cy="577.127" fill="#222222" rx="6" ry="6" style="stroke:#111111;stroke-width:1.0;"/><line style="stroke:#000000;stroke-width:1.5;" x1="148" x2="148" y1="12.4551" y2="588.127"/><rect fill="#F1F1F1" height="35.0938" rx="12.5" ry="12.5" style="stroke:#181818;stroke-width:0.5;" width="97" x="352" y="220.4707"/><text fill="#000000" font-family="sans-serif" font-size="12" lengthAdjust="spacing" textLength="77" x="362" y="242.9277">(3) Query data</text><rect fill="#F1F1F1" height="35.0938" rx="12.5" ry="12.5" style="stroke:#181818;stroke-width:0.5;" width="94" x="353.5" y="455.9395"/><text fill="#000000" font-family="sans-serif" font-size="12" lengthAdjust="spacing" textLength="74" x="363.5" y="478.3965">(7) Store data</text><line style="stroke:#000000;stroke-width:1.5;" x1="346" x2="346" y1="12.4551" y2="588.127"/><line style="stroke:#000000;stroke-width:1.5;" x1="453" x2="453" y1="12.4551" y2="588.127"/><line style="stroke:#181818;stroke-width:1.0;" x1="82.5" x2="82.5" y1="60.0957" y2="80.0957"/><polygon fill="#181818" points="78.5,70.0957,82.5,80.0957,86.5,70.0957,82.5,74.0957" style="stroke:#181818;stroke-width:1.0;"/><line style="stroke:#181818;stroke-width:1.0;" x1="248" x2="248" y1="546.127" y2="566.127"/><polygon fill="#181818" points="244,556.127,248,566.127,252,556.127,248,560.127" style="stroke:#181818;stroke-width:1.0;"/><line style="stroke:#181818;stroke-width:1.0;" x1="82.5" x2="82.5" y1="130.2832" y2="135.2832"/><line style="stroke:#181818;stroke-width:1.0;" x1="82.5" x2="248" y1="135.2832" y2="135.2832"/><line style="stroke:#181818;stroke-width:1.0;" x1="248" x2="248" y1="135.2832" y2="150.2832"/><polygon fill="#181818" points="244,140.2832,248,150.2832,252,140.2832,248,144.2832" style="stroke:#181818;stroke-width:1.0;"/><line style="stroke:#181818;stroke-width:1.0;" x1="248" x2="248" y1="200.4707" y2="205.4707"/><line style="stroke:#181818;stroke-width:1.0;" x1="248" x2="400.5" y1="205.4707" y2="205.4707"/><line style="stroke:#181818;stroke-width:1.0;" x1="400.5" x2="400.5" y1="205.4707" y2="220.4707"/><polygon fill="#181818" points="396.5,210.4707,400.5,220.4707,404.5,210.4707,400.5,214.4707" style="stroke:#181818;stroke-width:1.0;"/><line style="stroke:#181818;stroke-width:1.0;" x1="400.5" x2="400.5" y1="255.5645" y2="260.5645"/><line style="stroke:#181818;stroke-width:1.0;" x1="400.5" x2="248" y1="260.5645" y2="260.5645"/><line style="stroke:#181818;stroke-width:1.0;" x1="248" x2="248" y1="260.5645" y2="275.5645"/><polygon fill="#181818" points="244,265.5645,248,275.5645,252,265.5645,248,269.5645" style="stroke:#181818;stroke-width:1.0;"/><line style="stroke:#181818;stroke-width:1.0;" x1="248" x2="248" y1="325.752" y2="330.752"/><line style="stroke:#181818;stroke-width:1.0;" x1="248" x2="82.5" y1="330.752" y2="330.752"/><line style="stroke:#181818;stroke-width:1.0;" x1="82.5" x2="82.5" y1="330.752" y2="345.752"/><polygon fill="#181818" points="78.5,335.752,82.5,345.752,86.5,335.752,82.5,339.752" style="stroke:#181818;stroke-width:1.0;"/><line style="stroke:#181818;stroke-width:1.0;" x1="82.5" x2="82.5" y1="380.8457" y2="385.8457"/><line style="stroke:#181818;stroke-width:1.0;" x1="82.5" x2="248" y1="385.8457" y2="385.8457"/><line style="stroke:#181818;stroke-width:1.0;" x1="248" x2="248" y1="385.8457" y2="400.8457"/><polygon fill="#181818" points="244,390.8457,248,400.8457,252,390.8457,248,394.8457" style="stroke:#181818;stroke-width:1.0;"/><line style="stroke:#181818;stroke-width:1.0;" x1="248" x2="248" y1="435.9395" y2="440.9395"/><line style="stroke:#181818;stroke-width:1.0;" x1="248" x2="400.5" y1="440.9395" y2="440.9395"/><line style="stroke:#181818;stroke-width:1.0;" x1="400.5" x2="400.5" y1="440.9395" y2="455.9395"/><polygon fill="#181818" points="396.5,445.9395,400.5,455.9395,404.5,445.9395,400.5,449.9395" style="stroke:#181818;stroke-width:1.0;"/><line style="stroke:#181818;stroke-width:1.0;" x1="400.5" x2="400.5" y1="491.0332" y2="496.0332"/><line style="stroke:#181818;stroke-width:1.0;" x1="400.5" x2="248" y1="496.0332" y2="496.0332"/><line style="stroke:#181818;stroke-width:1.0;" x1="248" x2="248" y1="496.0332" y2="511.0332"/><polygon fill="#181818" points="244,501.0332,248,511.0332,252,501.0332,248,505.0332" style="stroke:#181818;stroke-width:1.0;"/><text fill="#000000" font-family="sans-serif" font-size="18" lengthAdjust="spacing" textLength="121" x="21" y="31.1406">Parent / Doctor</text><text fill="#000000" font-family="sans-serif" font-size="18" lengthAdjust="spacing" textLength="59" x="217.5" y="31.1406">System</text><text fill="#000000" font-family="sans-serif" font-size="18" lengthAdjust="spacing" textLength="77" x="361" y="31.1406">Database</text><!--MD5=[8e12938e4d567d4d36513afedab42d46]
@startuml ReplyMessageActi
|Parent / Doctor|
start
:(1) Select chat\nwant to reply;      
|System|
:(2) Get selected\nchat information;
|Database|
:(3) Query data;
|System|
:(4) Display\nselected chat;
|Parent / Doctor|
:(5) Send message;    
|System|
:(6) Process sending message;     
|Database|
:(7) Store data;
|System|
:(8) Display sent message;   
stop
@enduml

PlantUML version 1.2022.7(Tue Aug 23 00:01:30 ICT 2022)
(GPL source distribution)
Java Runtime: Java(TM) SE Runtime Environment
JVM: Java HotSpot(TM) 64-Bit Server VM
Default Encoding: Cp1252
Language: en
Country: US
--></g></svg>