<?xml version="1.0" encoding="UTF-8" standalone="no"?><svg xmlns="http://www.w3.org/2000/svg" xmlns:xlink="http://www.w3.org/1999/xlink" contentStyleType="text/css" height="728px" preserveAspectRatio="none" style="width:903px;height:728px;background:#FFFFFF;" version="1.1" viewBox="0 0 903 728" width="903px" zoomAndPan="magnify"><defs/><g><ellipse cx="178" cy="50.0957" fill="#222222" rx="10" ry="10" style="stroke:#222222;stroke-width:1.0;"/><rect fill="#F1F1F1" height="50.1875" rx="12.5" ry="12.5" style="stroke:#181818;stroke-width:0.5;" width="140" x="108" y="80.0957"/><text fill="#000000" font-family="sans-serif" font-size="12" lengthAdjust="spacing" textLength="120" x="118" y="102.5527">(1) Select prescription</text><text fill="#000000" font-family="sans-serif" font-size="12" lengthAdjust="spacing" textLength="82" x="118" y="117.6465">needs deleting</text><rect fill="#F1F1F1" height="50.1875" rx="12.5" ry="12.5" style="stroke:#181818;stroke-width:0.5;" width="104" x="21" y="264.4707"/><text fill="#000000" font-family="sans-serif" font-size="12" lengthAdjust="spacing" textLength="55" x="31" y="286.9277">(2.1) Click</text><text fill="#000000" font-family="sans-serif" font-size="12" lengthAdjust="spacing" textLength="84" x="31" y="302.0215">"Cancel" button</text><ellipse cx="73" cy="344.6582" fill="none" rx="10" ry="10" style="stroke:#222222;stroke-width:1.5;"/><line style="stroke:#222222;stroke-width:2.5;" x1="66.8128" x2="79.1872" y1="338.471" y2="350.8454"/><line style="stroke:#222222;stroke-width:2.5;" x1="79.1872" x2="66.8128" y1="338.471" y2="350.8454"/><rect fill="#F1F1F1" height="50.1875" rx="12.5" ry="12.5" style="stroke:#181818;stroke-width:0.5;" width="109" x="228.5" y="264.4707"/><text fill="#000000" font-family="sans-serif" font-size="12" lengthAdjust="spacing" textLength="55" x="238.5" y="286.9277">(2.2) Click</text><text fill="#000000" font-family="sans-serif" font-size="12" lengthAdjust="spacing" textLength="89" x="238.5" y="302.0215">"Confirm" button</text><line style="stroke:#000000;stroke-width:1.5;" x1="15" x2="15" y1="12.4551" y2="716.2207"/><rect fill="#F1F1F1" height="50.1875" rx="12.5" ry="12.5" style="stroke:#181818;stroke-width:0.5;" width="150" x="347.5" y="150.2832"/><text fill="#000000" font-family="sans-serif" font-size="12" lengthAdjust="spacing" textLength="130" x="357.5" y="172.7402">(2) Display confirmation</text><text fill="#000000" font-family="sans-serif" font-size="12" lengthAdjust="spacing" textLength="72" x="357.5" y="187.834">messagebox</text><polygon fill="#F1F1F1" points="422.5,220.4707,422.5,220.4707,434.5,232.4707,422.5,244.4707,422.5,244.4707,410.5,232.4707,422.5,220.4707" style="stroke:#181818;stroke-width:0.5;"/><text fill="#000000" font-family="sans-serif" font-size="11" lengthAdjust="spacing" textLength="33" x="377.5" y="230.0537">Cancel</text><text fill="#000000" font-family="sans-serif" font-size="11" lengthAdjust="spacing" textLength="37" x="434.5" y="230.0537">Confirm</text><rect fill="#F1F1F1" height="35.0938" rx="12.5" ry="12.5" style="stroke:#181818;stroke-width:0.5;" width="176" x="439.5" y="334.6582"/><text fill="#000000" font-family="sans-serif" font-size="12" lengthAdjust="spacing" textLength="156" x="449.5" y="357.1152">(3) Process deleting request</text><rect fill="#F1F1F1" height="50.1875" rx="12.5" ry="12.5" style="stroke:#181818;stroke-width:0.5;" width="108" x="399.5" y="488.8457"/><text fill="#000000" font-family="sans-serif" font-size="12" lengthAdjust="spacing" textLength="69" x="409.5" y="511.3027">(4.1) Display</text><text fill="#000000" font-family="sans-serif" font-size="12" lengthAdjust="spacing" textLength="88" x="409.5" y="526.3965">error notification</text><rect fill="#F1F1F1" height="65.2813" rx="12.5" ry="12.5" style="stroke:#181818;stroke-width:0.5;" width="148" x="527.5" y="558.9395"/><text fill="#000000" font-family="sans-serif" font-size="12" lengthAdjust="spacing" textLength="109" x="537.5" y="581.3965">(5) Display success</text><text fill="#000000" font-family="sans-serif" font-size="12" lengthAdjust="spacing" textLength="59" x="537.5" y="596.4902">notification</text><text fill="#000000" font-family="sans-serif" font-size="12" lengthAdjust="spacing" textLength="128" x="537.5" y="611.584">and list of prescriptions</text><line style="stroke:#000000;stroke-width:1.5;" x1="341.5" x2="341.5" y1="12.4551" y2="716.2207"/><rect fill="#F1F1F1" height="35.0938" rx="12.5" ry="12.5" style="stroke:#181818;stroke-width:0.5;" width="109" x="696" y="389.752"/><text fill="#000000" font-family="sans-serif" font-size="12" lengthAdjust="spacing" textLength="89" x="706" y="412.209">(4) Validate data</text><polygon fill="#F1F1F1" points="750.5,444.8457,750.5,444.8457,762.5,456.8457,750.5,468.8457,750.5,468.8457,738.5,456.8457,750.5,444.8457" style="stroke:#181818;stroke-width:0.5;"/><text fill="#000000" font-family="sans-serif" font-size="11" lengthAdjust="spacing" textLength="54" x="684.5" y="454.4287">Invalid data</text><text fill="#000000" font-family="sans-serif" font-size="11" lengthAdjust="spacing" textLength="48" x="762.5" y="454.4287">Valid data</text><rect fill="#F1F1F1" height="35.0938" rx="12.5" ry="12.5" style="stroke:#181818;stroke-width:0.5;" width="111" x="769" y="488.8457"/><text fill="#000000" font-family="sans-serif" font-size="12" lengthAdjust="spacing" textLength="91" x="779" y="511.3027">(4.2) Delete data</text><polygon fill="#F1F1F1" points="750.5,634.2207,762.5,646.2207,750.5,658.2207,738.5,646.2207,750.5,634.2207" style="stroke:#181818;stroke-width:0.5;"/><ellipse cx="750.5" cy="689.2207" fill="none" rx="11" ry="11" style="stroke:#222222;stroke-width:1.0;"/><ellipse cx="750.5" cy="689.2207" fill="#222222" rx="6" ry="6" style="stroke:#111111;stroke-width:1.0;"/><line style="stroke:#000000;stroke-width:1.5;" x1="679.5" x2="679.5" y1="12.4551" y2="716.2207"/><line style="stroke:#000000;stroke-width:1.5;" x1="884" x2="884" y1="12.4551" y2="716.2207"/><line style="stroke:#181818;stroke-width:1.0;" x1="178" x2="178" y1="60.0957" y2="80.0957"/><polygon fill="#181818" points="174,70.0957,178,80.0957,182,70.0957,178,74.0957" style="stroke:#181818;stroke-width:1.0;"/><line style="stroke:#181818;stroke-width:1.0;" x1="73" x2="73" y1="314.6582" y2="334.6582"/><polygon fill="#181818" points="69,324.6582,73,334.6582,77,324.6582,73,328.6582" style="stroke:#181818;stroke-width:1.0;"/><line style="stroke:#181818;stroke-width:1.0;" x1="422.5" x2="422.5" y1="200.4707" y2="220.4707"/><polygon fill="#181818" points="418.5,210.4707,422.5,220.4707,426.5,210.4707,422.5,214.4707" style="stroke:#181818;stroke-width:1.0;"/><line style="stroke:#181818;stroke-width:1.0;" x1="762.5" x2="824.5" y1="456.8457" y2="456.8457"/><line style="stroke:#181818;stroke-width:1.0;" x1="824.5" x2="824.5" y1="456.8457" y2="488.8457"/><polygon fill="#181818" points="820.5,478.8457,824.5,488.8457,828.5,478.8457,824.5,482.8457" style="stroke:#181818;stroke-width:1.0;"/><line style="stroke:#181818;stroke-width:1.0;" x1="750.5" x2="750.5" y1="424.8457" y2="444.8457"/><polygon fill="#181818" points="746.5,434.8457,750.5,444.8457,754.5,434.8457,750.5,438.8457" style="stroke:#181818;stroke-width:1.0;"/><line style="stroke:#181818;stroke-width:1.0;" x1="750.5" x2="750.5" y1="658.2207" y2="678.2207"/><polygon fill="#181818" points="746.5,668.2207,750.5,678.2207,754.5,668.2207,750.5,672.2207" style="stroke:#181818;stroke-width:1.0;"/><line style="stroke:#181818;stroke-width:1.0;" x1="178" x2="178" y1="130.2832" y2="135.2832"/><line style="stroke:#181818;stroke-width:1.0;" x1="178" x2="422.5" y1="135.2832" y2="135.2832"/><line style="stroke:#181818;stroke-width:1.0;" x1="422.5" x2="422.5" y1="135.2832" y2="150.2832"/><polygon fill="#181818" points="418.5,140.2832,422.5,150.2832,426.5,140.2832,422.5,144.2832" style="stroke:#181818;stroke-width:1.0;"/><line style="stroke:#181818;stroke-width:1.0;" x1="283" x2="283" y1="314.6582" y2="319.6582"/><line style="stroke:#181818;stroke-width:1.0;" x1="283" x2="527.5" y1="319.6582" y2="319.6582"/><line style="stroke:#181818;stroke-width:1.0;" x1="527.5" x2="527.5" y1="319.6582" y2="334.6582"/><polygon fill="#181818" points="523.5,324.6582,527.5,334.6582,531.5,324.6582,527.5,328.6582" style="stroke:#181818;stroke-width:1.0;"/><line style="stroke:#181818;stroke-width:1.0;" x1="527.5" x2="527.5" y1="369.752" y2="374.752"/><line style="stroke:#181818;stroke-width:1.0;" x1="527.5" x2="750.5" y1="374.752" y2="374.752"/><line style="stroke:#181818;stroke-width:1.0;" x1="750.5" x2="750.5" y1="374.752" y2="389.752"/><polygon fill="#181818" points="746.5,379.752,750.5,389.752,754.5,379.752,750.5,383.752" style="stroke:#181818;stroke-width:1.0;"/><line style="stroke:#181818;stroke-width:1.0;" x1="824.5" x2="824.5" y1="523.9395" y2="541.4395"/><line style="stroke:#181818;stroke-width:1.0;" x1="824.5" x2="601.5" y1="541.4395" y2="541.4395"/><line style="stroke:#181818;stroke-width:1.0;" x1="601.5" x2="601.5" y1="541.4395" y2="558.9395"/><polygon fill="#181818" points="597.5,548.9395,601.5,558.9395,605.5,548.9395,601.5,552.9395" style="stroke:#181818;stroke-width:1.0;"/><line style="stroke:#181818;stroke-width:1.0;" x1="738.5" x2="453.5" y1="456.8457" y2="456.8457"/><line style="stroke:#181818;stroke-width:1.0;" x1="453.5" x2="453.5" y1="456.8457" y2="488.8457"/><polygon fill="#181818" points="449.5,478.8457,453.5,488.8457,457.5,478.8457,453.5,482.8457" style="stroke:#181818;stroke-width:1.0;"/><line style="stroke:#181818;stroke-width:1.0;" x1="453.5" x2="453.5" y1="539.0332" y2="646.2207"/><line style="stroke:#181818;stroke-width:1.0;" x1="453.5" x2="738.5" y1="646.2207" y2="646.2207"/><polygon fill="#181818" points="728.5,642.2207,738.5,646.2207,728.5,650.2207,732.5,646.2207" style="stroke:#181818;stroke-width:1.0;"/><line style="stroke:#181818;stroke-width:1.0;" x1="601.5" x2="601.5" y1="624.2207" y2="628.2207"/><line style="stroke:#181818;stroke-width:1.0;" x1="601.5" x2="780.5" y1="628.2207" y2="628.2207"/><line style="stroke:#181818;stroke-width:1.0;" x1="780.5" x2="780.5" y1="628.2207" y2="646.2207"/><line style="stroke:#181818;stroke-width:1.0;" x1="780.5" x2="762.5" y1="646.2207" y2="646.2207"/><polygon fill="#181818" points="772.5,642.2207,762.5,646.2207,772.5,650.2207,768.5,646.2207" style="stroke:#181818;stroke-width:1.0;"/><line style="stroke:#181818;stroke-width:1.0;" x1="410.5" x2="73" y1="232.4707" y2="232.4707"/><line style="stroke:#181818;stroke-width:1.0;" x1="73" x2="73" y1="232.4707" y2="264.4707"/><polygon fill="#181818" points="69,254.4707,73,264.4707,77,254.4707,73,258.4707" style="stroke:#181818;stroke-width:1.0;"/><line style="stroke:#181818;stroke-width:1.0;" x1="434.5" x2="446.5" y1="232.4707" y2="232.4707"/><line style="stroke:#181818;stroke-width:1.0;" x1="446.5" x2="446.5" y1="232.4707" y2="250.4707"/><line style="stroke:#181818;stroke-width:1.0;" x1="446.5" x2="283" y1="250.4707" y2="250.4707"/><line style="stroke:#181818;stroke-width:1.0;" x1="283" x2="283" y1="250.4707" y2="264.4707"/><polygon fill="#181818" points="279,254.4707,283,264.4707,287,254.4707,283,258.4707" style="stroke:#181818;stroke-width:1.0;"/><text fill="#000000" font-family="sans-serif" font-size="18" lengthAdjust="spacing" textLength="53" x="151.75" y="31.1406">Doctor</text><text fill="#000000" font-family="sans-serif" font-size="18" lengthAdjust="spacing" textLength="59" x="481" y="31.1406">System</text><text fill="#000000" font-family="sans-serif" font-size="18" lengthAdjust="spacing" textLength="77" x="743.25" y="31.1406">Database</text><!--MD5=[16ad1441562fec3f529c6c73e35e5090]
@startuml DeletePrescriptionActi
|Doctor|
start
:(1) Select prescription\nneeds deleting;
|System|
:(2) Display confirmation\nmessagebox;      
if () then (Cancel)
    |Doctor|
    :(2.1) Click\n"Cancel" button;
    end
else (Confirm)
    |Doctor|
    :(2.2) Click\n"Confirm" button;
    |System|
    :(3) Process deleting request;
    |Database|
    :(4) Validate data;
    if () then (Invalid data)
        |System|
        :(4.1) Display\nerror notification;
    else (Valid data)
        |Database|  
        :(4.2) Delete data;
        |System|
        :(5) Display success\nnotification\nand list of prescriptions;
        endif
    |Database|
stop
@enduml

PlantUML version 1.2022.7(Tue Aug 23 00:01:30 ICT 2022)
(GPL source distribution)
Java Runtime: Java(TM) SE Runtime Environment
JVM: Java HotSpot(TM) 64-Bit Server VM
Default Encoding: Cp1252
Language: en
Country: US
--></g></svg>