<?xml version="1.0" encoding="UTF-8" standalone="no"?><svg xmlns="http://www.w3.org/2000/svg" xmlns:xlink="http://www.w3.org/1999/xlink" contentStyleType="text/css" height="417px" preserveAspectRatio="none" style="width:676px;height:417px;background:#FFFFFF;" version="1.1" viewBox="0 0 676 417" width="676px" zoomAndPan="magnify"><defs/><g><rect fill="#F1F1F1" height="35.0938" rx="12.5" ry="12.5" style="stroke:#181818;stroke-width:0.5;" width="128" x="149" y="150.2832"/><text fill="#000000" font-family="sans-serif" font-size="12" lengthAdjust="spacing" textLength="108" x="159" y="172.7402">(2) Choose function</text><polygon fill="#F1F1F1" points="64,205.377,64,205.377,76,217.377,64,229.377,64,229.377,52,217.377,64,205.377" style="stroke:#181818;stroke-width:0.5;"/><text fill="#000000" font-family="sans-serif" font-size="11" lengthAdjust="spacing" textLength="32" x="68" y="240.7959">Create</text><rect fill="#F1F1F1" height="80.375" rx="12.5" ry="12.5" style="stroke:#181818;stroke-width:0.5;" width="86" x="21" y="263.2129"/><text fill="#000000" font-family="sans-serif" font-size="12" lengthAdjust="spacing" textLength="25" x="31" y="285.6699">(2.1)</text><text fill="#000000" font-family="sans-serif" font-size="12" lengthAdjust="spacing" textLength="35" x="31" y="300.7637">Activity</text><text fill="#000000" font-family="sans-serif" font-size="12" lengthAdjust="spacing" textLength="37" x="31" y="315.8574">Create</text><text fill="#000000" font-family="sans-serif" font-size="12" lengthAdjust="spacing" textLength="66" x="31" y="330.9512">Prescription</text><polygon fill="#F1F1F1" points="160,205.377,160,205.377,172,217.377,160,229.377,160,229.377,148,217.377,160,205.377" style="stroke:#181818;stroke-width:0.5;"/><text fill="#000000" font-family="sans-serif" font-size="11" lengthAdjust="spacing" textLength="34" x="164" y="240.7959">Update</text><rect fill="#F1F1F1" height="80.375" rx="12.5" ry="12.5" style="stroke:#181818;stroke-width:0.5;" width="86" x="117" y="263.2129"/><text fill="#000000" font-family="sans-serif" font-size="12" lengthAdjust="spacing" textLength="25" x="127" y="285.6699">(2.2)</text><text fill="#000000" font-family="sans-serif" font-size="12" lengthAdjust="spacing" textLength="35" x="127" y="300.7637">Activity</text><text fill="#000000" font-family="sans-serif" font-size="12" lengthAdjust="spacing" textLength="40" x="127" y="315.8574">Update</text><text fill="#000000" font-family="sans-serif" font-size="12" lengthAdjust="spacing" textLength="66" x="127" y="330.9512">Prescription</text><polygon fill="#F1F1F1" points="266,205.377,266,205.377,278,217.377,266,229.377,266,229.377,254,217.377,266,205.377" style="stroke:#181818;stroke-width:0.5;"/><text fill="#000000" font-family="sans-serif" font-size="11" lengthAdjust="spacing" textLength="30" x="270" y="240.7959">Delete</text><text fill="#000000" font-family="sans-serif" font-size="11" lengthAdjust="spacing" textLength="35" x="278" y="214.96">Search</text><rect fill="#F1F1F1" height="80.375" rx="12.5" ry="12.5" style="stroke:#181818;stroke-width:0.5;" width="86" x="223" y="263.2129"/><text fill="#000000" font-family="sans-serif" font-size="12" lengthAdjust="spacing" textLength="25" x="233" y="285.6699">(2.3)</text><text fill="#000000" font-family="sans-serif" font-size="12" lengthAdjust="spacing" textLength="35" x="233" y="300.7637">Activity</text><text fill="#000000" font-family="sans-serif" font-size="12" lengthAdjust="spacing" textLength="36" x="233" y="315.8574">Delete</text><text fill="#000000" font-family="sans-serif" font-size="12" lengthAdjust="spacing" textLength="66" x="233" y="330.9512">Prescription</text><rect fill="#F1F1F1" height="80.375" rx="12.5" ry="12.5" style="stroke:#181818;stroke-width:0.5;" width="86" x="323" y="259.2949"/><text fill="#000000" font-family="sans-serif" font-size="12" lengthAdjust="spacing" textLength="25" x="333" y="281.752">(2.4)</text><text fill="#000000" font-family="sans-serif" font-size="12" lengthAdjust="spacing" textLength="35" x="333" y="296.8457">Activity</text><text fill="#000000" font-family="sans-serif" font-size="12" lengthAdjust="spacing" textLength="39" x="333" y="311.9395">Search</text><text fill="#000000" font-family="sans-serif" font-size="12" lengthAdjust="spacing" textLength="66" x="333" y="327.0332">Prescription</text><line style="stroke:#000000;stroke-width:1.5;" x1="15" x2="15" y1="12.4551" y2="405.5879"/><ellipse cx="492.5" cy="50.0957" fill="#222222" rx="10" ry="10" style="stroke:#222222;stroke-width:1.0;"/><rect fill="#F1F1F1" height="50.1875" rx="12.5" ry="12.5" style="stroke:#181818;stroke-width:0.5;" width="147" x="419" y="80.0957"/><text fill="#000000" font-family="sans-serif" font-size="12" lengthAdjust="spacing" textLength="127" x="429" y="102.5527">(1) Display prescription</text><text fill="#000000" font-family="sans-serif" font-size="12" lengthAdjust="spacing" textLength="101" x="429" y="117.6465">management view</text><ellipse cx="492.5" cy="394.5879" fill="none" rx="11" ry="11" style="stroke:#222222;stroke-width:1.0;"/><ellipse cx="492.5" cy="394.5879" fill="#222222" rx="6" ry="6" style="stroke:#111111;stroke-width:1.0;"/><line style="stroke:#000000;stroke-width:1.5;" x1="413" x2="413" y1="12.4551" y2="405.5879"/><line style="stroke:#000000;stroke-width:1.5;" x1="570" x2="570" y1="12.4551" y2="405.5879"/><line style="stroke:#000000;stroke-width:1.5;" x1="657" x2="657" y1="12.4551" y2="405.5879"/><line style="stroke:#181818;stroke-width:1.0;" x1="64" x2="64" y1="229.377" y2="263.2129"/><polygon fill="#181818" points="60,253.2129,64,263.2129,68,253.2129,64,257.2129" style="stroke:#181818;stroke-width:1.0;"/><line style="stroke:#181818;stroke-width:1.0;" x1="64" x2="64" y1="343.5879" y2="363.5879"/><polygon fill="#181818" points="60,353.5879,64,363.5879,68,353.5879,64,357.5879" style="stroke:#181818;stroke-width:1.0;"/><line style="stroke:#181818;stroke-width:1.0;" x1="160" x2="160" y1="229.377" y2="263.2129"/><polygon fill="#181818" points="156,253.2129,160,263.2129,164,253.2129,160,257.2129" style="stroke:#181818;stroke-width:1.0;"/><line style="stroke:#181818;stroke-width:1.0;" x1="160" x2="160" y1="343.5879" y2="363.5879"/><polygon fill="#181818" points="156,353.5879,160,363.5879,164,353.5879,160,357.5879" style="stroke:#181818;stroke-width:1.0;"/><line style="stroke:#181818;stroke-width:1.0;" x1="266" x2="266" y1="229.377" y2="263.2129"/><polygon fill="#181818" points="262,253.2129,266,263.2129,270,253.2129,266,257.2129" style="stroke:#181818;stroke-width:1.0;"/><line style="stroke:#181818;stroke-width:1.0;" x1="266" x2="266" y1="343.5879" y2="363.5879"/><polygon fill="#181818" points="262,353.5879,266,363.5879,270,353.5879,266,357.5879" style="stroke:#181818;stroke-width:1.0;"/><line style="stroke:#181818;stroke-width:1.0;" x1="76" x2="148" y1="217.377" y2="217.377"/><polygon fill="#181818" points="138,213.377,148,217.377,138,221.377,142,217.377" style="stroke:#181818;stroke-width:1.0;"/><line style="stroke:#181818;stroke-width:1.0;" x1="172" x2="254" y1="217.377" y2="217.377"/><polygon fill="#181818" points="244,213.377,254,217.377,244,221.377,248,217.377" style="stroke:#181818;stroke-width:1.0;"/><line style="stroke:#181818;stroke-width:1.0;" x1="213" x2="213" y1="185.377" y2="190.377"/><line style="stroke:#181818;stroke-width:1.0;" x1="213" x2="64" y1="190.377" y2="190.377"/><line style="stroke:#181818;stroke-width:1.0;" x1="64" x2="64" y1="190.377" y2="205.377"/><polygon fill="#181818" points="60,195.377,64,205.377,68,195.377,64,199.377" style="stroke:#181818;stroke-width:1.0;"/><line style="stroke:#181818;stroke-width:1.0;" x1="278" x2="366" y1="217.377" y2="217.377"/><line style="stroke:#181818;stroke-width:1.0;" x1="366" x2="366" y1="217.377" y2="259.2949"/><polygon fill="#181818" points="362,249.2949,366,259.2949,370,249.2949,366,253.2949" style="stroke:#181818;stroke-width:1.0;"/><line style="stroke:#181818;stroke-width:1.0;" x1="366" x2="366" y1="339.6699" y2="363.5879"/><polygon fill="#181818" points="362,353.5879,366,363.5879,370,353.5879,366,357.5879" style="stroke:#181818;stroke-width:1.0;"/><line style="stroke:#181818;stroke-width:1.0;" x1="64" x2="366" y1="363.5879" y2="363.5879"/><line style="stroke:#181818;stroke-width:1.0;" x1="492.5" x2="492.5" y1="60.0957" y2="80.0957"/><polygon fill="#181818" points="488.5,70.0957,492.5,80.0957,496.5,70.0957,492.5,74.0957" style="stroke:#181818;stroke-width:1.0;"/><line style="stroke:#181818;stroke-width:1.0;" x1="492.5" x2="492.5" y1="130.2832" y2="135.2832"/><line style="stroke:#181818;stroke-width:1.0;" x1="492.5" x2="213" y1="135.2832" y2="135.2832"/><line style="stroke:#181818;stroke-width:1.0;" x1="213" x2="213" y1="135.2832" y2="150.2832"/><polygon fill="#181818" points="209,140.2832,213,150.2832,217,140.2832,213,144.2832" style="stroke:#181818;stroke-width:1.0;"/><line style="stroke:#181818;stroke-width:1.0;" x1="213" x2="213" y1="363.5879" y2="368.5879"/><line style="stroke:#181818;stroke-width:1.0;" x1="213" x2="492.5" y1="368.5879" y2="368.5879"/><line style="stroke:#181818;stroke-width:1.0;" x1="492.5" x2="492.5" y1="368.5879" y2="383.5879"/><polygon fill="#181818" points="488.5,373.5879,492.5,383.5879,496.5,373.5879,492.5,377.5879" style="stroke:#181818;stroke-width:1.0;"/><text fill="#000000" font-family="sans-serif" font-size="18" lengthAdjust="spacing" textLength="53" x="187.5" y="31.1406">Doctor</text><text fill="#000000" font-family="sans-serif" font-size="18" lengthAdjust="spacing" textLength="59" x="462" y="31.1406">System</text><text fill="#000000" font-family="sans-serif" font-size="18" lengthAdjust="spacing" textLength="77" x="575" y="31.1406">Database</text><!--MD5=[15a82cf86a5fddf9fb04506531dd0b69]
@startuml SupervisePrescriptionActi
|Doctor|
|System|
|Database|
|System|
start
:(1) Display prescription\nmanagement view;
|Doctor|
:(2) Choose function;
if () then (Create)
  :(2.1)\nActivity\nCreate\nPrescription; 
elseif () then (Update) 
  :(2.2)\nActivity\nUpdate\nPrescription; 
elseif () then (Delete)
  :(2.3)\nActivity\nDelete\nPrescription; 
else (Search)
  :(2.4)\nActivity\nSearch\nPrescription; 
endif
|System|
stop
@enduml

PlantUML version 1.2022.7(Tue Aug 23 00:01:30 ICT 2022)
(GPL source distribution)
Java Runtime: Java(TM) SE Runtime Environment
JVM: Java HotSpot(TM) 64-Bit Server VM
Default Encoding: Cp1252
Language: en
Country: US
--></g></svg>