<?xml version="1.0" encoding="UTF-8" standalone="no"?><svg xmlns="http://www.w3.org/2000/svg" xmlns:xlink="http://www.w3.org/1999/xlink" contentStyleType="text/css" height="1019px" preserveAspectRatio="none" style="width:750px;height:1019px;background:#FFFFFF;" version="1.1" viewBox="0 0 750 1019" width="750px" zoomAndPan="magnify"><defs/><g><ellipse cx="91" cy="50.0957" fill="#222222" rx="10" ry="10" style="stroke:#222222;stroke-width:1.0;"/><rect fill="#F1F1F1" height="50.1875" rx="12.5" ry="12.5" style="stroke:#181818;stroke-width:0.5;" width="140" x="21" y="80.0957"/><text fill="#000000" font-family="sans-serif" font-size="12" lengthAdjust="spacing" textLength="120" x="31" y="102.5527">(1) Select prescription</text><text fill="#000000" font-family="sans-serif" font-size="12" lengthAdjust="spacing" textLength="86" x="31" y="117.6465">needs updating</text><rect fill="#F1F1F1" height="50.1875" rx="12.5" ry="12.5" style="stroke:#181818;stroke-width:0.5;" width="135" x="23.5" y="389.752"/><text fill="#000000" font-family="sans-serif" font-size="12" lengthAdjust="spacing" textLength="115" x="33.5" y="412.209">(5) Enter prescription</text><text fill="#000000" font-family="sans-serif" font-size="12" lengthAdjust="spacing" textLength="62" x="33.5" y="427.3027">information</text><polygon fill="#F1F1F1" points="91,345.752,103,357.752,91,369.752,79,357.752,91,345.752" style="stroke:#181818;stroke-width:0.5;"/><rect fill="#F1F1F1" height="50.1875" rx="12.5" ry="12.5" style="stroke:#181818;stroke-width:0.5;" width="112" x="35" y="586.9521"/><text fill="#000000" font-family="sans-serif" font-size="12" lengthAdjust="spacing" textLength="92" x="45" y="609.4092">(6.2) Click button</text><text fill="#000000" font-family="sans-serif" font-size="12" lengthAdjust="spacing" textLength="92" x="45" y="624.5029">"Save" to confirm</text><line style="stroke:#000000;stroke-width:1.5;" x1="15" x2="15" y1="12.4551" y2="1007.6084"/><rect fill="#F1F1F1" height="50.1875" rx="12.5" ry="12.5" style="stroke:#181818;stroke-width:0.5;" width="150" x="234.75" y="150.2832"/><text fill="#000000" font-family="sans-serif" font-size="12" lengthAdjust="spacing" textLength="87" x="244.75" y="172.7402">(2) Get selected</text><text fill="#000000" font-family="sans-serif" font-size="12" lengthAdjust="spacing" textLength="130" x="244.75" y="187.834">prescription information</text><rect fill="#F1F1F1" height="50.1875" rx="12.5" ry="12.5" style="stroke:#181818;stroke-width:0.5;" width="147" x="236.25" y="275.5645"/><text fill="#000000" font-family="sans-serif" font-size="12" lengthAdjust="spacing" textLength="127" x="246.25" y="298.0215">(4) Display prescription</text><text fill="#000000" font-family="sans-serif" font-size="12" lengthAdjust="spacing" textLength="89" x="246.25" y="313.1152">information view</text><rect fill="#F1F1F1" height="35.0938" rx="12.5" ry="12.5" style="stroke:#181818;stroke-width:0.5;" width="147" x="236.25" y="474.9395"/><text fill="#000000" font-family="sans-serif" font-size="12" lengthAdjust="spacing" textLength="127" x="246.25" y="497.3965">(6) Validate data format</text><polygon fill="#F1F1F1" points="309.75,530.0332,309.75,530.0332,321.75,542.0332,309.75,554.0332,309.75,554.0332,297.75,542.0332,309.75,530.0332" style="stroke:#181818;stroke-width:0.5;"/><text fill="#000000" font-family="sans-serif" font-size="11" lengthAdjust="spacing" textLength="48" x="313.75" y="565.4521">Valid data</text><text fill="#000000" font-family="sans-serif" font-size="11" lengthAdjust="spacing" textLength="54" x="321.75" y="539.6162">Invalid data</text><rect fill="#F1F1F1" height="50.1875" rx="12.5" ry="12.5" style="stroke:#181818;stroke-width:0.5;" width="108" x="407.25" y="424.7988"/><text fill="#000000" font-family="sans-serif" font-size="12" lengthAdjust="spacing" textLength="69" x="417.25" y="447.2559">(6.1) Display</text><text fill="#000000" font-family="sans-serif" font-size="12" lengthAdjust="spacing" textLength="88" x="417.25" y="462.3496">error notification</text><rect fill="#F1F1F1" height="35.0938" rx="12.5" ry="12.5" style="stroke:#181818;stroke-width:0.5;" width="180" x="219.75" y="657.1396"/><text fill="#000000" font-family="sans-serif" font-size="12" lengthAdjust="spacing" textLength="160" x="229.75" y="679.5967">(7) Process updating request</text><rect fill="#F1F1F1" height="50.1875" rx="12.5" ry="12.5" style="stroke:#181818;stroke-width:0.5;" width="108" x="171" y="811.3271"/><text fill="#000000" font-family="sans-serif" font-size="12" lengthAdjust="spacing" textLength="69" x="181" y="833.7842">(8.1) Display</text><text fill="#000000" font-family="sans-serif" font-size="12" lengthAdjust="spacing" textLength="88" x="181" y="848.8779">error notification</text><rect fill="#F1F1F1" height="50.1875" rx="12.5" ry="12.5" style="stroke:#181818;stroke-width:0.5;" width="191" x="299" y="881.4209"/><text fill="#000000" font-family="sans-serif" font-size="12" lengthAdjust="spacing" textLength="171" x="309" y="903.8779">(9) Display success notification</text><text fill="#000000" font-family="sans-serif" font-size="12" lengthAdjust="spacing" textLength="128" x="309" y="918.9717">and list of prescriptions</text><line style="stroke:#000000;stroke-width:1.5;" x1="165" x2="165" y1="12.4551" y2="1007.6084"/><rect fill="#F1F1F1" height="35.0938" rx="12.5" ry="12.5" style="stroke:#181818;stroke-width:0.5;" width="97" x="541.75" y="220.4707"/><text fill="#000000" font-family="sans-serif" font-size="12" lengthAdjust="spacing" textLength="77" x="551.75" y="242.9277">(3) Query data</text><rect fill="#F1F1F1" height="35.0938" rx="12.5" ry="12.5" style="stroke:#181818;stroke-width:0.5;" width="109" x="535.75" y="712.2334"/><text fill="#000000" font-family="sans-serif" font-size="12" lengthAdjust="spacing" textLength="89" x="545.75" y="734.6904">(8) Validate data</text><polygon fill="#F1F1F1" points="590.25,767.3271,590.25,767.3271,602.25,779.3271,590.25,791.3271,590.25,791.3271,578.25,779.3271,590.25,767.3271" style="stroke:#181818;stroke-width:0.5;"/><text fill="#000000" font-family="sans-serif" font-size="11" lengthAdjust="spacing" textLength="54" x="524.25" y="776.9102">Invalid data</text><text fill="#000000" font-family="sans-serif" font-size="11" lengthAdjust="spacing" textLength="48" x="602.25" y="776.9102">Valid data</text><rect fill="#F1F1F1" height="35.0938" rx="12.5" ry="12.5" style="stroke:#181818;stroke-width:0.5;" width="104" x="623" y="811.3271"/><text fill="#000000" font-family="sans-serif" font-size="12" lengthAdjust="spacing" textLength="84" x="633" y="833.7842">(8.2) Store data</text><polygon fill="#F1F1F1" points="590.25,941.6084,602.25,953.6084,590.25,965.6084,578.25,953.6084,590.25,941.6084" style="stroke:#181818;stroke-width:0.5;"/><ellipse cx="590.25" cy="996.6084" fill="none" rx="11" ry="11" style="stroke:#222222;stroke-width:1.0;"/><ellipse cx="590.25" cy="996.6084" fill="#222222" rx="6" ry="6" style="stroke:#111111;stroke-width:1.0;"/><line style="stroke:#000000;stroke-width:1.5;" x1="519.25" x2="519.25" y1="12.4551" y2="1007.6084"/><line style="stroke:#000000;stroke-width:1.5;" x1="731" x2="731" y1="12.4551" y2="1007.6084"/><line style="stroke:#181818;stroke-width:1.0;" x1="91" x2="91" y1="60.0957" y2="80.0957"/><polygon fill="#181818" points="87,70.0957,91,80.0957,95,70.0957,91,74.0957" style="stroke:#181818;stroke-width:1.0;"/><line style="stroke:#181818;stroke-width:1.0;" x1="91" x2="91" y1="369.752" y2="389.752"/><polygon fill="#181818" points="87,379.752,91,389.752,95,379.752,91,383.752" style="stroke:#181818;stroke-width:1.0;"/><line style="stroke:#181818;stroke-width:1.0;" x1="321.75" x2="461.25" y1="542.0332" y2="542.0332"/><line style="stroke:#181818;stroke-width:1.0;" x1="461.25" x2="461.25" y1="474.9863" y2="542.0332"/><polygon fill="#181818" points="457.25,484.9863,461.25,474.9863,465.25,484.9863,461.25,480.9863" style="stroke:#181818;stroke-width:1.0;"/><line style="stroke:#181818;stroke-width:1.0;" x1="309.75" x2="309.75" y1="510.0332" y2="530.0332"/><polygon fill="#181818" points="305.75,520.0332,309.75,530.0332,313.75,520.0332,309.75,524.0332" style="stroke:#181818;stroke-width:1.0;"/><line style="stroke:#181818;stroke-width:1.0;" x1="602.25" x2="675" y1="779.3271" y2="779.3271"/><line style="stroke:#181818;stroke-width:1.0;" x1="675" x2="675" y1="779.3271" y2="811.3271"/><polygon fill="#181818" points="671,801.3271,675,811.3271,679,801.3271,675,805.3271" style="stroke:#181818;stroke-width:1.0;"/><line style="stroke:#181818;stroke-width:1.0;" x1="590.25" x2="590.25" y1="747.3271" y2="767.3271"/><polygon fill="#181818" points="586.25,757.3271,590.25,767.3271,594.25,757.3271,590.25,761.3271" style="stroke:#181818;stroke-width:1.0;"/><line style="stroke:#181818;stroke-width:1.0;" x1="590.25" x2="590.25" y1="965.6084" y2="985.6084"/><polygon fill="#181818" points="586.25,975.6084,590.25,985.6084,594.25,975.6084,590.25,979.6084" style="stroke:#181818;stroke-width:1.0;"/><line style="stroke:#181818;stroke-width:1.0;" x1="91" x2="91" y1="130.2832" y2="135.2832"/><line style="stroke:#181818;stroke-width:1.0;" x1="91" x2="309.75" y1="135.2832" y2="135.2832"/><line style="stroke:#181818;stroke-width:1.0;" x1="309.75" x2="309.75" y1="135.2832" y2="150.2832"/><polygon fill="#181818" points="305.75,140.2832,309.75,150.2832,313.75,140.2832,309.75,144.2832" style="stroke:#181818;stroke-width:1.0;"/><line style="stroke:#181818;stroke-width:1.0;" x1="309.75" x2="309.75" y1="200.4707" y2="205.4707"/><line style="stroke:#181818;stroke-width:1.0;" x1="309.75" x2="590.25" y1="205.4707" y2="205.4707"/><line style="stroke:#181818;stroke-width:1.0;" x1="590.25" x2="590.25" y1="205.4707" y2="220.4707"/><polygon fill="#181818" points="586.25,210.4707,590.25,220.4707,594.25,210.4707,590.25,214.4707" style="stroke:#181818;stroke-width:1.0;"/><line style="stroke:#181818;stroke-width:1.0;" x1="590.25" x2="590.25" y1="255.5645" y2="260.5645"/><line style="stroke:#181818;stroke-width:1.0;" x1="590.25" x2="309.75" y1="260.5645" y2="260.5645"/><line style="stroke:#181818;stroke-width:1.0;" x1="309.75" x2="309.75" y1="260.5645" y2="275.5645"/><polygon fill="#181818" points="305.75,265.5645,309.75,275.5645,313.75,265.5645,309.75,269.5645" style="stroke:#181818;stroke-width:1.0;"/><line style="stroke:#181818;stroke-width:1.0;" x1="91" x2="91" y1="439.9395" y2="457.4395"/><line style="stroke:#181818;stroke-width:1.0;" x1="91" x2="309.75" y1="457.4395" y2="457.4395"/><line style="stroke:#181818;stroke-width:1.0;" x1="309.75" x2="309.75" y1="457.4395" y2="474.9395"/><polygon fill="#181818" points="305.75,464.9395,309.75,474.9395,313.75,464.9395,309.75,468.9395" style="stroke:#181818;stroke-width:1.0;"/><line style="stroke:#181818;stroke-width:1.0;" x1="461.25" x2="461.25" y1="357.752" y2="424.7988"/><line style="stroke:#181818;stroke-width:1.0;" x1="461.25" x2="103" y1="357.752" y2="357.752"/><polygon fill="#181818" points="113,353.752,103,357.752,113,361.752,109,357.752" style="stroke:#181818;stroke-width:1.0;"/><line style="stroke:#181818;stroke-width:1.0;" x1="309.75" x2="309.75" y1="325.752" y2="330.752"/><line style="stroke:#181818;stroke-width:1.0;" x1="309.75" x2="91" y1="330.752" y2="330.752"/><line style="stroke:#181818;stroke-width:1.0;" x1="91" x2="91" y1="330.752" y2="345.752"/><polygon fill="#181818" points="87,335.752,91,345.752,95,335.752,91,339.752" style="stroke:#181818;stroke-width:1.0;"/><line style="stroke:#181818;stroke-width:1.0;" x1="309.75" x2="309.75" y1="554.0332" y2="571.5332"/><line style="stroke:#181818;stroke-width:1.0;" x1="309.75" x2="91" y1="571.5332" y2="571.5332"/><line style="stroke:#181818;stroke-width:1.0;" x1="91" x2="91" y1="571.5332" y2="586.9521"/><polygon fill="#181818" points="87,576.9521,91,586.9521,95,576.9521,91,580.9521" style="stroke:#181818;stroke-width:1.0;"/><line style="stroke:#181818;stroke-width:1.0;" x1="91" x2="91" y1="637.1396" y2="642.1396"/><line style="stroke:#181818;stroke-width:1.0;" x1="91" x2="309.75" y1="642.1396" y2="642.1396"/><line style="stroke:#181818;stroke-width:1.0;" x1="309.75" x2="309.75" y1="642.1396" y2="657.1396"/><polygon fill="#181818" points="305.75,647.1396,309.75,657.1396,313.75,647.1396,309.75,651.1396" style="stroke:#181818;stroke-width:1.0;"/><line style="stroke:#181818;stroke-width:1.0;" x1="309.75" x2="309.75" y1="692.2334" y2="697.2334"/><line style="stroke:#181818;stroke-width:1.0;" x1="309.75" x2="590.25" y1="697.2334" y2="697.2334"/><line style="stroke:#181818;stroke-width:1.0;" x1="590.25" x2="590.25" y1="697.2334" y2="712.2334"/><polygon fill="#181818" points="586.25,702.2334,590.25,712.2334,594.25,702.2334,590.25,706.2334" style="stroke:#181818;stroke-width:1.0;"/><line style="stroke:#181818;stroke-width:1.0;" x1="675" x2="675" y1="846.4209" y2="863.9209"/><line style="stroke:#181818;stroke-width:1.0;" x1="675" x2="394.5" y1="863.9209" y2="863.9209"/><line style="stroke:#181818;stroke-width:1.0;" x1="394.5" x2="394.5" y1="863.9209" y2="881.4209"/><polygon fill="#181818" points="390.5,871.4209,394.5,881.4209,398.5,871.4209,394.5,875.4209" style="stroke:#181818;stroke-width:1.0;"/><line style="stroke:#181818;stroke-width:1.0;" x1="578.25" x2="225" y1="779.3271" y2="779.3271"/><line style="stroke:#181818;stroke-width:1.0;" x1="225" x2="225" y1="779.3271" y2="811.3271"/><polygon fill="#181818" points="221,801.3271,225,811.3271,229,801.3271,225,805.3271" style="stroke:#181818;stroke-width:1.0;"/><line style="stroke:#181818;stroke-width:1.0;" x1="225" x2="225" y1="861.5146" y2="953.6084"/><line style="stroke:#181818;stroke-width:1.0;" x1="225" x2="578.25" y1="953.6084" y2="953.6084"/><polygon fill="#181818" points="568.25,949.6084,578.25,953.6084,568.25,957.6084,572.25,953.6084" style="stroke:#181818;stroke-width:1.0;"/><line style="stroke:#181818;stroke-width:1.0;" x1="394.5" x2="394.5" y1="931.6084" y2="935.6084"/><line style="stroke:#181818;stroke-width:1.0;" x1="394.5" x2="620.25" y1="935.6084" y2="935.6084"/><line style="stroke:#181818;stroke-width:1.0;" x1="620.25" x2="620.25" y1="935.6084" y2="953.6084"/><line style="stroke:#181818;stroke-width:1.0;" x1="620.25" x2="602.25" y1="953.6084" y2="953.6084"/><polygon fill="#181818" points="612.25,949.6084,602.25,953.6084,612.25,957.6084,608.25,953.6084" style="stroke:#181818;stroke-width:1.0;"/><text fill="#000000" font-family="sans-serif" font-size="18" lengthAdjust="spacing" textLength="53" x="63.5" y="31.1406">Doctor</text><text fill="#000000" font-family="sans-serif" font-size="18" lengthAdjust="spacing" textLength="59" x="312.625" y="31.1406">System</text><text fill="#000000" font-family="sans-serif" font-size="18" lengthAdjust="spacing" textLength="77" x="586.625" y="31.1406">Database</text><!--MD5=[543727e56fd5541a74b5e554dac133f0]
@startuml UpdatePrescriptionActi
|Doctor|
start
:(1) Select prescription\nneeds updating;
|System|
:(2) Get selected\nprescription information;
|Database| 
:(3) Query data;
|System|
:(4) Display prescription\ninformation view;
repeat
    |Doctor|
    :(5) Enter prescription\ninformation;
    |System|
    :(6) Validate data format;
    backward :(6.1) Display\nerror notification;
repeat while () is (Invalid data) not (Valid data)
    |Doctor|
    :(6.2) Click button\n"Save" to confirm;
    |System|
    :(7) Process updating request;
    |Database|
    :(8) Validate data;
    if () then (Invalid data)
        |System|
        :(8.1) Display\nerror notification;
    else (Valid data)
        |Database|  
        :(8.2) Store data;
        |System|
        :(9) Display success notification\nand list of prescriptions;
        endif
    |Database|
stop
@enduml

PlantUML version 1.2022.7(Tue Aug 23 00:01:30 ICT 2022)
(GPL source distribution)
Java Runtime: Java(TM) SE Runtime Environment
JVM: Java HotSpot(TM) 64-Bit Server VM
Default Encoding: Cp1252
Language: en
Country: US
--></g></svg>