<?xml version="1.0" encoding="UTF-8" standalone="no"?><svg xmlns="http://www.w3.org/2000/svg" xmlns:xlink="http://www.w3.org/1999/xlink" contentStyleType="text/css" height="629px" preserveAspectRatio="none" style="width:784px;height:629px;background:#FFFFFF;" version="1.1" viewBox="0 0 784 629" width="784px" zoomAndPan="magnify"><defs/><g><rect fill="#FFFFFF" height="30" style="stroke:#181818;stroke-width:1.0;" width="10" x="66" y="337.4219"/><rect fill="#FFFFFF" height="222.1094" style="stroke:#181818;stroke-width:1.0;" width="10" x="218" y="175.6641"/><rect fill="#FFFFFF" height="28" style="stroke:#181818;stroke-width:1.0;" width="10" x="223" y="230.3672"/><rect fill="#FFFFFF" height="52.7031" style="stroke:#181818;stroke-width:1.0;" width="10" x="376.5" y="537.8828"/><rect fill="#FFFFFF" height="60.7031" style="stroke:#181818;stroke-width:1.0;" width="10" x="566.5" y="114.9609"/><rect fill="#FFFFFF" height="140.1094" style="stroke:#181818;stroke-width:1.0;" width="10" x="566.5" y="397.7734"/><rect fill="#FFFFFF" height="30.3516" style="stroke:#181818;stroke-width:1.0;" width="10" x="725.5" y="114.9609"/><rect fill="#FFFFFF" height="46.7031" style="stroke:#181818;stroke-width:1.0;" width="10" x="725.5" y="444.4766"/><rect fill="none" height="325.2188" style="stroke:#000000;stroke-width:1.5;" width="768" x="10" y="280.3672"/><line style="stroke:#181818;stroke-width:0.5;stroke-dasharray:5.0,5.0;" x1="71" x2="71" y1="82.6094" y2="622.5859"/><line style="stroke:#181818;stroke-width:0.5;stroke-dasharray:5.0,5.0;" x1="222.5" x2="222.5" y1="82.6094" y2="622.5859"/><line style="stroke:#181818;stroke-width:0.5;stroke-dasharray:5.0,5.0;" x1="381.5" x2="381.5" y1="82.6094" y2="622.5859"/><line style="stroke:#181818;stroke-width:0.5;stroke-dasharray:5.0,5.0;" x1="571" x2="571" y1="82.6094" y2="622.5859"/><line style="stroke:#181818;stroke-width:0.5;stroke-dasharray:5.0,5.0;" x1="730" x2="730" y1="82.6094" y2="622.5859"/><text fill="#000000" font-family="sans-serif" font-size="14" lengthAdjust="spacing" textLength="96" x="20" y="79.5332">Parent / Doctor</text><ellipse cx="71" cy="13.5" fill="#E2E2F0" rx="8" ry="8" style="stroke:#181818;stroke-width:0.5;"/><path d="M71,21.5 L71,48.5 M58,29.5 L84,29.5 M71,48.5 L58,63.5 M71,48.5 L84,63.5 " fill="none" style="stroke:#181818;stroke-width:0.5;"/><text fill="#000000" font-family="sans-serif" font-size="14" lengthAdjust="spacing" textLength="125" x="157.5" y="79.5332">MealTimeChartView</text><path d="M202.5,37 L202.5,61 M202.5,49 L219.5,49 " fill="none" style="stroke:#181818;stroke-width:0.5;"/><ellipse cx="231.5" cy="49" fill="#E2E2F0" rx="12" ry="12" style="stroke:#181818;stroke-width:0.5;"/><text fill="#000000" font-family="sans-serif" font-size="14" lengthAdjust="spacing" textLength="160" x="298.5" y="79.5332">MealTimeInformationView</text><path d="M361,37 L361,61 M361,49 L378,49 " fill="none" style="stroke:#181818;stroke-width:0.5;"/><ellipse cx="390" cy="49" fill="#E2E2F0" rx="12" ry="12" style="stroke:#181818;stroke-width:0.5;"/><text fill="#000000" font-family="sans-serif" font-size="14" lengthAdjust="spacing" textLength="109" x="514" y="79.5332">MonitorController</text><ellipse cx="571.5" cy="49" fill="#E2E2F0" rx="12" ry="12" style="stroke:#181818;stroke-width:0.5;"/><polygon fill="#181818" points="567.5,37,573.5,32,571.5,37,573.5,42,567.5,37" style="stroke:#181818;stroke-width:1.0;"/><text fill="#000000" font-family="sans-serif" font-size="14" lengthAdjust="spacing" textLength="69" x="693" y="79.5332">MEALTIME</text><ellipse cx="730.5" cy="49" fill="#E2E2F0" rx="12" ry="12" style="stroke:#181818;stroke-width:0.5;"/><line style="stroke:#181818;stroke-width:0.5;" x1="718.5" x2="742.5" y1="63" y2="63"/><rect fill="#FFFFFF" height="30" style="stroke:#181818;stroke-width:1.0;" width="10" x="66" y="337.4219"/><rect fill="#FFFFFF" height="222.1094" style="stroke:#181818;stroke-width:1.0;" width="10" x="218" y="175.6641"/><rect fill="#FFFFFF" height="28" style="stroke:#181818;stroke-width:1.0;" width="10" x="223" y="230.3672"/><rect fill="#FFFFFF" height="52.7031" style="stroke:#181818;stroke-width:1.0;" width="10" x="376.5" y="537.8828"/><rect fill="#FFFFFF" height="60.7031" style="stroke:#181818;stroke-width:1.0;" width="10" x="566.5" y="114.9609"/><rect fill="#FFFFFF" height="140.1094" style="stroke:#181818;stroke-width:1.0;" width="10" x="566.5" y="397.7734"/><rect fill="#FFFFFF" height="30.3516" style="stroke:#181818;stroke-width:1.0;" width="10" x="725.5" y="114.9609"/><rect fill="#FFFFFF" height="46.7031" style="stroke:#181818;stroke-width:1.0;" width="10" x="725.5" y="444.4766"/><polygon fill="#181818" points="713.5,110.9609,723.5,114.9609,713.5,118.9609,717.5,114.9609" style="stroke:#181818;stroke-width:1.0;"/><line style="stroke:#181818;stroke-width:1.0;" x1="576.5" x2="719.5" y1="114.9609" y2="114.9609"/><text fill="#000000" font-family="sans-serif" font-size="13" font-weight="bold" lengthAdjust="spacing" textLength="7" x="583.5" y="110.1045">1</text><text fill="#000000" font-family="sans-serif" font-size="13" lengthAdjust="spacing" textLength="124" x="594.5" y="110.1045">Get list of meal times</text><polygon fill="#181818" points="587.5,141.3125,577.5,145.3125,587.5,149.3125,583.5,145.3125" style="stroke:#181818;stroke-width:1.0;"/><line style="stroke:#181818;stroke-width:1.0;stroke-dasharray:2.0,2.0;" x1="581.5" x2="729.5" y1="145.3125" y2="145.3125"/><text fill="#000000" font-family="sans-serif" font-size="13" font-weight="bold" lengthAdjust="spacing" textLength="7" x="593.5" y="140.4561">2</text><text fill="#000000" font-family="sans-serif" font-size="13" lengthAdjust="spacing" textLength="103" x="604.5" y="140.4561">List of meal times</text><polygon fill="#181818" points="239,171.6641,229,175.6641,239,179.6641,235,175.6641" style="stroke:#181818;stroke-width:1.0;"/><line style="stroke:#181818;stroke-width:1.0;stroke-dasharray:2.0,2.0;" x1="233" x2="570.5" y1="175.6641" y2="175.6641"/><text fill="#000000" font-family="sans-serif" font-size="13" font-weight="bold" lengthAdjust="spacing" textLength="7" x="245" y="170.8076">3</text><text fill="#000000" font-family="sans-serif" font-size="13" lengthAdjust="spacing" textLength="103" x="256" y="170.8076">List of meal times</text><line style="stroke:#181818;stroke-width:1.0;" x1="233" x2="275" y1="222.3672" y2="222.3672"/><line style="stroke:#181818;stroke-width:1.0;" x1="275" x2="275" y1="222.3672" y2="235.3672"/><line style="stroke:#181818;stroke-width:1.0;" x1="234" x2="275" y1="235.3672" y2="235.3672"/><polygon fill="#181818" points="244,231.3672,234,235.3672,244,239.3672,240,235.3672" style="stroke:#181818;stroke-width:1.0;"/><text fill="#000000" font-family="sans-serif" font-size="13" font-weight="bold" lengthAdjust="spacing" textLength="7" x="240" y="209.335">4</text><text fill="#000000" font-family="sans-serif" font-size="13" lengthAdjust="spacing" textLength="74" x="251" y="201.1592">Display child</text><text fill="#000000" font-family="sans-serif" font-size="13" lengthAdjust="spacing" textLength="86" x="251" y="217.5107">meals as chart</text><path d="M10,280.3672 L75,280.3672 L75,288.7188 L65,298.7188 L10,298.7188 L10,280.3672 " fill="#EEEEEE" style="stroke:#000000;stroke-width:1.5;"/><rect fill="none" height="325.2188" style="stroke:#000000;stroke-width:1.5;" width="768" x="10" y="280.3672"/><text fill="#000000" font-family="sans-serif" font-size="13" font-weight="bold" lengthAdjust="spacing" textLength="20" x="25" y="294.8623">opt</text><text fill="#000000" font-family="sans-serif" font-size="11" font-weight="bold" lengthAdjust="spacing" textLength="120" x="90" y="293.7861">[View details of meal]</text><polygon fill="#181818" points="206,333.4219,216,337.4219,206,341.4219,210,337.4219" style="stroke:#181818;stroke-width:1.0;"/><line style="stroke:#181818;stroke-width:1.0;" x1="76" x2="212" y1="337.4219" y2="337.4219"/><text fill="#000000" font-family="sans-serif" font-size="13" font-weight="bold" lengthAdjust="spacing" textLength="7" x="83" y="324.3896">5</text><text fill="#000000" font-family="sans-serif" font-size="13" lengthAdjust="spacing" textLength="101" x="94" y="316.2139">Click on the meal</text><text fill="#000000" font-family="sans-serif" font-size="13" lengthAdjust="spacing" textLength="112" x="94" y="332.5654">want to view details</text><polygon fill="#181818" points="554.5,393.7734,564.5,397.7734,554.5,401.7734,558.5,397.7734" style="stroke:#181818;stroke-width:1.0;"/><line style="stroke:#181818;stroke-width:1.0;" x1="223" x2="560.5" y1="397.7734" y2="397.7734"/><text fill="#000000" font-family="sans-serif" font-size="13" font-weight="bold" lengthAdjust="spacing" textLength="7" x="230" y="392.917">6</text><text fill="#000000" font-family="sans-serif" font-size="13" lengthAdjust="spacing" textLength="173" x="241" y="392.917">Get selected meal information</text><polygon fill="#181818" points="713.5,440.4766,723.5,444.4766,713.5,448.4766,717.5,444.4766" style="stroke:#181818;stroke-width:1.0;"/><line style="stroke:#181818;stroke-width:1.0;" x1="576.5" x2="719.5" y1="444.4766" y2="444.4766"/><text fill="#000000" font-family="sans-serif" font-size="13" font-weight="bold" lengthAdjust="spacing" textLength="7" x="583.5" y="431.4443">7</text><text fill="#000000" font-family="sans-serif" font-size="13" lengthAdjust="spacing" textLength="74" x="594.5" y="423.2686">Get selected</text><text fill="#000000" font-family="sans-serif" font-size="13" lengthAdjust="spacing" textLength="95" x="594.5" y="439.6201">meal information</text><polygon fill="#181818" points="587.5,487.1797,577.5,491.1797,587.5,495.1797,583.5,491.1797" style="stroke:#181818;stroke-width:1.0;"/><line style="stroke:#181818;stroke-width:1.0;stroke-dasharray:2.0,2.0;" x1="581.5" x2="729.5" y1="491.1797" y2="491.1797"/><text fill="#000000" font-family="sans-serif" font-size="13" font-weight="bold" lengthAdjust="spacing" textLength="7" x="593.5" y="478.1475">8</text><text fill="#000000" font-family="sans-serif" font-size="13" lengthAdjust="spacing" textLength="51" x="604.5" y="469.9717">Selected</text><text fill="#000000" font-family="sans-serif" font-size="13" lengthAdjust="spacing" textLength="95" x="604.5" y="486.3232">meal information</text><polygon fill="#181818" points="397.5,533.8828,387.5,537.8828,397.5,541.8828,393.5,537.8828" style="stroke:#181818;stroke-width:1.0;"/><line style="stroke:#181818;stroke-width:1.0;stroke-dasharray:2.0,2.0;" x1="391.5" x2="570.5" y1="537.8828" y2="537.8828"/><text fill="#000000" font-family="sans-serif" font-size="13" font-weight="bold" lengthAdjust="spacing" textLength="7" x="403.5" y="524.8506">9</text><text fill="#000000" font-family="sans-serif" font-size="13" lengthAdjust="spacing" textLength="83" x="414.5" y="516.6748">Selected meal</text><text fill="#000000" font-family="sans-serif" font-size="13" lengthAdjust="spacing" textLength="63" x="414.5" y="533.0264">information</text><line style="stroke:#181818;stroke-width:1.0;" x1="386.5" x2="428.5" y1="589.5859" y2="589.5859"/><line style="stroke:#181818;stroke-width:1.0;" x1="428.5" x2="428.5" y1="589.5859" y2="602.5859"/><line style="stroke:#181818;stroke-width:1.0;" x1="381.5" x2="428.5" y1="602.5859" y2="602.5859"/><polygon fill="#181818" points="391.5,598.5859,381.5,602.5859,391.5,606.5859,387.5,602.5859" style="stroke:#181818;stroke-width:1.0;"/><text fill="#000000" font-family="sans-serif" font-size="13" font-weight="bold" lengthAdjust="spacing" textLength="14" x="393.5" y="576.5537">10</text><text fill="#000000" font-family="sans-serif" font-size="13" lengthAdjust="spacing" textLength="98" x="411.5" y="568.3779">Display view with</text><text fill="#000000" font-family="sans-serif" font-size="13" lengthAdjust="spacing" textLength="148" x="411.5" y="584.7295">selected meal information</text><!--MD5=[312a4ccaf424d312fd1bc8e8db61c1bf]
@startuml MonitorMealTimeSeq
autonumber
hide footbox

actor "Parent / Doctor" as ParentDoctor
boundary MealTimeChartView
boundary MealTimeInformationView
control MonitorController
entity MEALTIME

MonitorController -> MEALTIME: Get list of meal times
activate MonitorController
activate MEALTIME
MEALTIME - -> MonitorController: List of meal times
deactivate MEALTIME
MonitorController - -> MealTimeChartView: List of meal times
deactivate MonitorController
activate MealTimeChartView
MealTimeChartView -> MealTimeChartView: Display child\nmeals as chart
activate MealTimeChartView
deactivate MealTimeChartView

opt View details of meal
    ParentDoctor -> MealTimeChartView: Click on the meal\nwant to view details
    activate ParentDoctor
    deactivate ParentDoctor
    MealTimeChartView -> MonitorController: Get selected meal information
    deactivate MealTimeChartView
    activate MonitorController
    MonitorController -> MEALTIME: Get selected\nmeal information
    activate MEALTIME
    MEALTIME - -> MonitorController: Selected\nmeal information
    deactivate MEALTIME
    MonitorController - -> MealTimeInformationView: Selected meal\ninformation
    deactivate MonitorController
    activate MealTimeInformationView
    MealTimeInformationView -> MealTimeInformationView: Display view with\nselected meal information
    deactivate MealTimeInformationView
    deactivate MonitorController
    deactivate ParentDoctor
end
@enduml

PlantUML version 1.2022.7(Tue Aug 23 00:01:30 ICT 2022)
(GPL source distribution)
Java Runtime: Java(TM) SE Runtime Environment
JVM: Java HotSpot(TM) 64-Bit Server VM
Default Encoding: Cp1252
Language: en
Country: US
--></g></svg>