<?xml version="1.0" encoding="UTF-8" standalone="no"?><svg xmlns="http://www.w3.org/2000/svg" xmlns:xlink="http://www.w3.org/1999/xlink" contentStyleType="text/css" height="587px" preserveAspectRatio="none" style="width:804px;height:587px;background:#FFFFFF;" version="1.1" viewBox="0 0 804 587" width="804px" zoomAndPan="magnify"><defs/><g><rect fill="#FFFFFF" height="275.7422" style="stroke:#181818;stroke-width:1.0;" width="10" x="66" y="295.7188"/><rect fill="#FFFFFF" height="395.7969" style="stroke:#181818;stroke-width:1.0;" width="10" x="220" y="175.6641"/><rect fill="#FFFFFF" height="28" style="stroke:#181818;stroke-width:1.0;" width="10" x="225" y="214.0156"/><rect fill="#FFFFFF" height="60.7031" style="stroke:#181818;stroke-width:1.0;" width="10" x="382" y="114.9609"/><rect fill="#FFFFFF" height="30.3516" style="stroke:#181818;stroke-width:1.0;" width="10" x="522" y="114.9609"/><rect fill="none" height="64.7969" style="stroke:#000000;stroke-width:1.5;" width="788" x="10" y="341.0703"/><rect fill="none" height="64.7969" style="stroke:#000000;stroke-width:1.5;" width="788" x="10" y="419.8672"/><rect fill="none" height="64.7969" style="stroke:#000000;stroke-width:1.5;" width="788" x="10" y="498.6641"/><line style="stroke:#181818;stroke-width:0.5;stroke-dasharray:5.0,5.0;" x1="71" x2="71" y1="82.6094" y2="580.4609"/><line style="stroke:#181818;stroke-width:0.5;stroke-dasharray:5.0,5.0;" x1="224.5" x2="224.5" y1="82.6094" y2="580.4609"/><line style="stroke:#181818;stroke-width:0.5;stroke-dasharray:5.0,5.0;" x1="386.5" x2="386.5" y1="82.6094" y2="580.4609"/><line style="stroke:#181818;stroke-width:0.5;stroke-dasharray:5.0,5.0;" x1="527" x2="527" y1="82.6094" y2="580.4609"/><line style="stroke:#181818;stroke-width:0.5;stroke-dasharray:5.0,5.0;" x1="585" x2="585" y1="82.6094" y2="580.4609"/><line style="stroke:#181818;stroke-width:0.5;stroke-dasharray:5.0,5.0;" x1="658" x2="658" y1="82.6094" y2="580.4609"/><line style="stroke:#181818;stroke-width:0.5;stroke-dasharray:5.0,5.0;" x1="747" x2="747" y1="82.6094" y2="580.4609"/><text fill="#000000" font-family="sans-serif" font-size="14" lengthAdjust="spacing" textLength="96" x="20" y="79.5332">Parent / Doctor</text><ellipse cx="71" cy="13.5" fill="#E2E2F0" rx="8" ry="8" style="stroke:#181818;stroke-width:0.5;"/><path d="M71,21.5 L71,48.5 M58,29.5 L84,29.5 M71,48.5 L58,63.5 M71,48.5 L84,63.5 " fill="none" style="stroke:#181818;stroke-width:0.5;"/><text fill="#000000" font-family="sans-serif" font-size="14" lengthAdjust="spacing" textLength="101" x="171.5" y="79.5332">ChildHealthView</text><path d="M204.5,37 L204.5,61 M204.5,49 L221.5,49 " fill="none" style="stroke:#181818;stroke-width:0.5;"/><ellipse cx="233.5" cy="49" fill="#E2E2F0" rx="12" ry="12" style="stroke:#181818;stroke-width:0.5;"/><text fill="#000000" font-family="sans-serif" font-size="14" lengthAdjust="spacing" textLength="109" x="329.5" y="79.5332">MonitorController</text><ellipse cx="387" cy="49" fill="#E2E2F0" rx="12" ry="12" style="stroke:#181818;stroke-width:0.5;"/><polygon fill="#181818" points="383,37,389,32,387,37,389,42,383,37" style="stroke:#181818;stroke-width:1.0;"/><text fill="#000000" font-family="sans-serif" font-size="14" lengthAdjust="spacing" textLength="40" x="504" y="79.5332">CHILD</text><ellipse cx="527" cy="49" fill="#E2E2F0" rx="12" ry="12" style="stroke:#181818;stroke-width:0.5;"/><line style="stroke:#181818;stroke-width:0.5;" x1="515" x2="539" y1="63" y2="63"/><text fill="#000000" font-family="sans-serif" font-size="14" lengthAdjust="spacing" textLength="45" x="560" y="79.5332">EVENT</text><ellipse cx="585.5" cy="49" fill="#E2E2F0" rx="12" ry="12" style="stroke:#181818;stroke-width:0.5;"/><line style="stroke:#181818;stroke-width:0.5;" x1="573.5" x2="597.5" y1="63" y2="63"/><text fill="#000000" font-family="sans-serif" font-size="14" lengthAdjust="spacing" textLength="69" x="621" y="79.5332">MEALTIME</text><ellipse cx="658.5" cy="49" fill="#E2E2F0" rx="12" ry="12" style="stroke:#181818;stroke-width:0.5;"/><line style="stroke:#181818;stroke-width:0.5;" x1="646.5" x2="670.5" y1="63" y2="63"/><text fill="#000000" font-family="sans-serif" font-size="14" lengthAdjust="spacing" textLength="76" x="706" y="79.5332">SLEEPTIME</text><ellipse cx="747" cy="49" fill="#E2E2F0" rx="12" ry="12" style="stroke:#181818;stroke-width:0.5;"/><line style="stroke:#181818;stroke-width:0.5;" x1="735" x2="759" y1="63" y2="63"/><rect fill="#FFFFFF" height="275.7422" style="stroke:#181818;stroke-width:1.0;" width="10" x="66" y="295.7188"/><rect fill="#FFFFFF" height="395.7969" style="stroke:#181818;stroke-width:1.0;" width="10" x="220" y="175.6641"/><rect fill="#FFFFFF" height="28" style="stroke:#181818;stroke-width:1.0;" width="10" x="225" y="214.0156"/><rect fill="#FFFFFF" height="60.7031" style="stroke:#181818;stroke-width:1.0;" width="10" x="382" y="114.9609"/><rect fill="#FFFFFF" height="30.3516" style="stroke:#181818;stroke-width:1.0;" width="10" x="522" y="114.9609"/><polygon fill="#181818" points="510,110.9609,520,114.9609,510,118.9609,514,114.9609" style="stroke:#181818;stroke-width:1.0;"/><line style="stroke:#181818;stroke-width:1.0;" x1="392" x2="516" y1="114.9609" y2="114.9609"/><text fill="#000000" font-family="sans-serif" font-size="13" font-weight="bold" lengthAdjust="spacing" textLength="7" x="399" y="110.1045">1</text><text fill="#000000" font-family="sans-serif" font-size="13" lengthAdjust="spacing" textLength="105" x="410" y="110.1045">Get list of children</text><polygon fill="#181818" points="403,141.3125,393,145.3125,403,149.3125,399,145.3125" style="stroke:#181818;stroke-width:1.0;"/><line style="stroke:#181818;stroke-width:1.0;stroke-dasharray:2.0,2.0;" x1="397" x2="526" y1="145.3125" y2="145.3125"/><text fill="#000000" font-family="sans-serif" font-size="13" font-weight="bold" lengthAdjust="spacing" textLength="7" x="409" y="140.4561">2</text><text fill="#000000" font-family="sans-serif" font-size="13" lengthAdjust="spacing" textLength="84" x="420" y="140.4561">List of children</text><polygon fill="#181818" points="241,171.6641,231,175.6641,241,179.6641,237,175.6641" style="stroke:#181818;stroke-width:1.0;"/><line style="stroke:#181818;stroke-width:1.0;stroke-dasharray:2.0,2.0;" x1="235" x2="386" y1="175.6641" y2="175.6641"/><text fill="#000000" font-family="sans-serif" font-size="13" font-weight="bold" lengthAdjust="spacing" textLength="7" x="247" y="170.8076">3</text><text fill="#000000" font-family="sans-serif" font-size="13" lengthAdjust="spacing" textLength="84" x="258" y="170.8076">List of children</text><line style="stroke:#181818;stroke-width:1.0;" x1="235" x2="277" y1="206.0156" y2="206.0156"/><line style="stroke:#181818;stroke-width:1.0;" x1="277" x2="277" y1="206.0156" y2="219.0156"/><line style="stroke:#181818;stroke-width:1.0;" x1="236" x2="277" y1="219.0156" y2="219.0156"/><polygon fill="#181818" points="246,215.0156,236,219.0156,246,223.0156,242,219.0156" style="stroke:#181818;stroke-width:1.0;"/><text fill="#000000" font-family="sans-serif" font-size="13" font-weight="bold" lengthAdjust="spacing" textLength="7" x="242" y="201.1592">4</text><text fill="#000000" font-family="sans-serif" font-size="13" lengthAdjust="spacing" textLength="127" x="253" y="201.1592">Display list of children</text><polygon fill="#181818" points="208,291.7188,218,295.7188,208,299.7188,212,295.7188" style="stroke:#181818;stroke-width:1.0;"/><line style="stroke:#181818;stroke-width:1.0;" x1="76" x2="214" y1="295.7188" y2="295.7188"/><text fill="#000000" font-family="sans-serif" font-size="13" font-weight="bold" lengthAdjust="spacing" textLength="7" x="83" y="282.6865">5</text><text fill="#000000" font-family="sans-serif" font-size="13" lengthAdjust="spacing" textLength="114" x="94" y="274.5107">Select child want to</text><text fill="#000000" font-family="sans-serif" font-size="13" lengthAdjust="spacing" textLength="103" x="94" y="290.8623">view health status</text><polygon fill="#181818" points="208,322.0703,218,326.0703,208,330.0703,212,326.0703" style="stroke:#181818;stroke-width:1.0;"/><line style="stroke:#181818;stroke-width:1.0;" x1="76" x2="214" y1="326.0703" y2="326.0703"/><text fill="#000000" font-family="sans-serif" font-size="13" font-weight="bold" lengthAdjust="spacing" textLength="7" x="83" y="321.2139">6</text><text fill="#000000" font-family="sans-serif" font-size="13" lengthAdjust="spacing" textLength="93" x="94" y="321.2139">Choose function</text><path d="M10,341.0703 L75,341.0703 L75,349.4219 L65,359.4219 L10,359.4219 L10,341.0703 " fill="#EEEEEE" style="stroke:#000000;stroke-width:1.5;"/><rect fill="none" height="64.7969" style="stroke:#000000;stroke-width:1.5;" width="788" x="10" y="341.0703"/><text fill="#000000" font-family="sans-serif" font-size="13" font-weight="bold" lengthAdjust="spacing" textLength="20" x="25" y="355.5654">opt</text><text fill="#000000" font-family="sans-serif" font-size="11" font-weight="bold" lengthAdjust="spacing" textLength="122" x="90" y="354.4893">[Monitor Child Events]</text><rect fill="none" height="41.4453" style="stroke:#000000;stroke-width:1.5;" width="774" x="17" y="359.4219"/><path d="M17,359.4219 L79,359.4219 L79,367.4219 L69,377.4219 L17,377.4219 L17,359.4219 " fill="#EEEEEE" style="stroke:#000000;stroke-width:2.0;"/><text fill="#000000" font-family="sans-serif" font-size="13" font-weight="bold" lengthAdjust="spacing" textLength="17" x="30" y="374.917">ref</text><text fill="#000000" font-family="sans-serif" font-size="12" lengthAdjust="spacing" textLength="171" x="318.5" y="393.8789">Sequence Monitor Child Events</text><path d="M10,419.8672 L75,419.8672 L75,428.2188 L65,438.2188 L10,438.2188 L10,419.8672 " fill="#EEEEEE" style="stroke:#000000;stroke-width:1.5;"/><rect fill="none" height="64.7969" style="stroke:#000000;stroke-width:1.5;" width="788" x="10" y="419.8672"/><text fill="#000000" font-family="sans-serif" font-size="13" font-weight="bold" lengthAdjust="spacing" textLength="20" x="25" y="434.3623">opt</text><text fill="#000000" font-family="sans-serif" font-size="11" font-weight="bold" lengthAdjust="spacing" textLength="149" x="90" y="433.2861">[Monitor Child Meal Times]</text><rect fill="none" height="41.4453" style="stroke:#000000;stroke-width:1.5;" width="774" x="17" y="438.2188"/><path d="M17,438.2188 L79,438.2188 L79,446.2188 L69,456.2188 L17,456.2188 L17,438.2188 " fill="#EEEEEE" style="stroke:#000000;stroke-width:2.0;"/><text fill="#000000" font-family="sans-serif" font-size="13" font-weight="bold" lengthAdjust="spacing" textLength="17" x="30" y="453.7139">ref</text><text fill="#000000" font-family="sans-serif" font-size="12" lengthAdjust="spacing" textLength="198" x="305" y="472.6758">Sequence Monitor Child Meal Times</text><path d="M10,498.6641 L75,498.6641 L75,507.0156 L65,517.0156 L10,517.0156 L10,498.6641 " fill="#EEEEEE" style="stroke:#000000;stroke-width:1.5;"/><rect fill="none" height="64.7969" style="stroke:#000000;stroke-width:1.5;" width="788" x="10" y="498.6641"/><text fill="#000000" font-family="sans-serif" font-size="13" font-weight="bold" lengthAdjust="spacing" textLength="20" x="25" y="513.1592">opt</text><text fill="#000000" font-family="sans-serif" font-size="11" font-weight="bold" lengthAdjust="spacing" textLength="154" x="90" y="512.083">[Monitor Child Sleep Times]</text><rect fill="none" height="41.4453" style="stroke:#000000;stroke-width:1.5;" width="774" x="17" y="517.0156"/><path d="M17,517.0156 L79,517.0156 L79,525.0156 L69,535.0156 L17,535.0156 L17,517.0156 " fill="#EEEEEE" style="stroke:#000000;stroke-width:2.0;"/><text fill="#000000" font-family="sans-serif" font-size="13" font-weight="bold" lengthAdjust="spacing" textLength="17" x="30" y="532.5107">ref</text><text fill="#000000" font-family="sans-serif" font-size="12" lengthAdjust="spacing" textLength="204" x="302" y="551.4727">Sequence Monitor Child Sleep Times</text><!--MD5=[2f13b10f9b9ac145fac157d43d263aaa]
@startuml MonitorChildHealthStatus
autonumber
hide footbox

actor "Parent / Doctor" as ParentDoctor
boundary ChildHealthView
control MonitorController
entity CHILD
entity EVENT
entity MEALTIME
entity SLEEPTIME

MonitorController -> CHILD: Get list of children
activate CHILD
activate MonitorController
CHILD - - -> MonitorController: List of children
deactivate CHILD
MonitorController - -> ChildHealthView: List of children
deactivate MonitorController
activate ChildHealthView
ChildHealthView -> ChildHealthView: Display list of children
activate ChildHealthView
deactivate ChildHealthView
ParentDoctor -> ChildHealthView: Select child want to\nview health status 
activate ParentDoctor
ParentDoctor -> ChildHealthView: Choose function

opt Monitor Child Events
    ref over ParentDoctor, ChildHealthView, MonitorController, EVENT, MEALTIME, SLEEPTIME: Sequence Monitor Child Events
end 

opt Monitor Child Meal Times
    ref over ParentDoctor, ChildHealthView, MonitorController, EVENT, MEALTIME, SLEEPTIME: Sequence Monitor Child Meal Times
end 

opt Monitor Child Sleep Times
    ref over ParentDoctor, ChildHealthView, MonitorController, EVENT, MEALTIME, SLEEPTIME: Sequence Monitor Child Sleep Times
end 

@enduml

PlantUML version 1.2022.7(Tue Aug 23 00:01:30 ICT 2022)
(GPL source distribution)
Java Runtime: Java(TM) SE Runtime Environment
JVM: Java HotSpot(TM) 64-Bit Server VM
Default Encoding: Cp1252
Language: en
Country: US
--></g></svg>