<?xml version="1.0" encoding="UTF-8" standalone="no"?><svg xmlns="http://www.w3.org/2000/svg" xmlns:xlink="http://www.w3.org/1999/xlink" contentStyleType="text/css" height="629px" preserveAspectRatio="none" style="width:764px;height:629px;background:#FFFFFF;" version="1.1" viewBox="0 0 764 629" width="764px" zoomAndPan="magnify"><defs/><g><rect fill="#FFFFFF" height="30" style="stroke:#181818;stroke-width:1.0;" width="10" x="66" y="337.4219"/><rect fill="#FFFFFF" height="222.1094" style="stroke:#181818;stroke-width:1.0;" width="10" x="218" y="175.6641"/><rect fill="#FFFFFF" height="28" style="stroke:#181818;stroke-width:1.0;" width="10" x="223" y="230.3672"/><rect fill="#FFFFFF" height="52.7031" style="stroke:#181818;stroke-width:1.0;" width="10" x="383.5" y="537.8828"/><rect fill="#FFFFFF" height="60.7031" style="stroke:#181818;stroke-width:1.0;" width="10" x="575.5" y="114.9609"/><rect fill="#FFFFFF" height="140.1094" style="stroke:#181818;stroke-width:1.0;" width="10" x="575.5" y="397.7734"/><rect fill="#FFFFFF" height="30.3516" style="stroke:#181818;stroke-width:1.0;" width="10" x="717.5" y="114.9609"/><rect fill="#FFFFFF" height="46.7031" style="stroke:#181818;stroke-width:1.0;" width="10" x="717.5" y="444.4766"/><rect fill="none" height="325.2188" style="stroke:#000000;stroke-width:1.5;" width="748" x="10" y="280.3672"/><line style="stroke:#181818;stroke-width:0.5;stroke-dasharray:5.0,5.0;" x1="71" x2="71" y1="82.6094" y2="622.5859"/><line style="stroke:#181818;stroke-width:0.5;stroke-dasharray:5.0,5.0;" x1="223" x2="223" y1="82.6094" y2="622.5859"/><line style="stroke:#181818;stroke-width:0.5;stroke-dasharray:5.0,5.0;" x1="388" x2="388" y1="82.6094" y2="622.5859"/><line style="stroke:#181818;stroke-width:0.5;stroke-dasharray:5.0,5.0;" x1="580" x2="580" y1="82.6094" y2="622.5859"/><line style="stroke:#181818;stroke-width:0.5;stroke-dasharray:5.0,5.0;" x1="722" x2="722" y1="82.6094" y2="622.5859"/><text fill="#000000" font-family="sans-serif" font-size="14" lengthAdjust="spacing" textLength="96" x="20" y="79.5332">Parent / Doctor</text><ellipse cx="71" cy="13.5" fill="#E2E2F0" rx="8" ry="8" style="stroke:#181818;stroke-width:0.5;"/><path d="M71,21.5 L71,48.5 M58,29.5 L84,29.5 M71,48.5 L58,63.5 M71,48.5 L84,63.5 " fill="none" style="stroke:#181818;stroke-width:0.5;"/><text fill="#000000" font-family="sans-serif" font-size="14" lengthAdjust="spacing" textLength="132" x="154" y="79.5332">ChildEventChartView</text><path d="M202.5,37 L202.5,61 M202.5,49 L219.5,49 " fill="none" style="stroke:#181818;stroke-width:0.5;"/><ellipse cx="231.5" cy="49" fill="#E2E2F0" rx="12" ry="12" style="stroke:#181818;stroke-width:0.5;"/><text fill="#000000" font-family="sans-serif" font-size="14" lengthAdjust="spacing" textLength="167" x="302" y="79.5332">ChildEventInformationView</text><path d="M368,37 L368,61 M368,49 L385,49 " fill="none" style="stroke:#181818;stroke-width:0.5;"/><ellipse cx="397" cy="49" fill="#E2E2F0" rx="12" ry="12" style="stroke:#181818;stroke-width:0.5;"/><text fill="#000000" font-family="sans-serif" font-size="14" lengthAdjust="spacing" textLength="109" x="523" y="79.5332">MonitorController</text><ellipse cx="580.5" cy="49" fill="#E2E2F0" rx="12" ry="12" style="stroke:#181818;stroke-width:0.5;"/><polygon fill="#181818" points="576.5,37,582.5,32,580.5,37,582.5,42,576.5,37" style="stroke:#181818;stroke-width:1.0;"/><text fill="#000000" font-family="sans-serif" font-size="14" lengthAdjust="spacing" textLength="45" x="697" y="79.5332">EVENT</text><ellipse cx="722.5" cy="49" fill="#E2E2F0" rx="12" ry="12" style="stroke:#181818;stroke-width:0.5;"/><line style="stroke:#181818;stroke-width:0.5;" x1="710.5" x2="734.5" y1="63" y2="63"/><rect fill="#FFFFFF" height="30" style="stroke:#181818;stroke-width:1.0;" width="10" x="66" y="337.4219"/><rect fill="#FFFFFF" height="222.1094" style="stroke:#181818;stroke-width:1.0;" width="10" x="218" y="175.6641"/><rect fill="#FFFFFF" height="28" style="stroke:#181818;stroke-width:1.0;" width="10" x="223" y="230.3672"/><rect fill="#FFFFFF" height="52.7031" style="stroke:#181818;stroke-width:1.0;" width="10" x="383.5" y="537.8828"/><rect fill="#FFFFFF" height="60.7031" style="stroke:#181818;stroke-width:1.0;" width="10" x="575.5" y="114.9609"/><rect fill="#FFFFFF" height="140.1094" style="stroke:#181818;stroke-width:1.0;" width="10" x="575.5" y="397.7734"/><rect fill="#FFFFFF" height="30.3516" style="stroke:#181818;stroke-width:1.0;" width="10" x="717.5" y="114.9609"/><rect fill="#FFFFFF" height="46.7031" style="stroke:#181818;stroke-width:1.0;" width="10" x="717.5" y="444.4766"/><polygon fill="#181818" points="705.5,110.9609,715.5,114.9609,705.5,118.9609,709.5,114.9609" style="stroke:#181818;stroke-width:1.0;"/><line style="stroke:#181818;stroke-width:1.0;" x1="585.5" x2="711.5" y1="114.9609" y2="114.9609"/><text fill="#000000" font-family="sans-serif" font-size="13" font-weight="bold" lengthAdjust="spacing" textLength="7" x="592.5" y="110.1045">1</text><text fill="#000000" font-family="sans-serif" font-size="13" lengthAdjust="spacing" textLength="97" x="603.5" y="110.1045">Get list of events</text><polygon fill="#181818" points="596.5,141.3125,586.5,145.3125,596.5,149.3125,592.5,145.3125" style="stroke:#181818;stroke-width:1.0;"/><line style="stroke:#181818;stroke-width:1.0;stroke-dasharray:2.0,2.0;" x1="590.5" x2="721.5" y1="145.3125" y2="145.3125"/><text fill="#000000" font-family="sans-serif" font-size="13" font-weight="bold" lengthAdjust="spacing" textLength="7" x="602.5" y="140.4561">2</text><text fill="#000000" font-family="sans-serif" font-size="13" lengthAdjust="spacing" textLength="76" x="613.5" y="140.4561">List of events</text><polygon fill="#181818" points="239,171.6641,229,175.6641,239,179.6641,235,175.6641" style="stroke:#181818;stroke-width:1.0;"/><line style="stroke:#181818;stroke-width:1.0;stroke-dasharray:2.0,2.0;" x1="233" x2="579.5" y1="175.6641" y2="175.6641"/><text fill="#000000" font-family="sans-serif" font-size="13" font-weight="bold" lengthAdjust="spacing" textLength="7" x="245" y="170.8076">3</text><text fill="#000000" font-family="sans-serif" font-size="13" lengthAdjust="spacing" textLength="76" x="256" y="170.8076">List of events</text><line style="stroke:#181818;stroke-width:1.0;" x1="233" x2="275" y1="222.3672" y2="222.3672"/><line style="stroke:#181818;stroke-width:1.0;" x1="275" x2="275" y1="222.3672" y2="235.3672"/><line style="stroke:#181818;stroke-width:1.0;" x1="234" x2="275" y1="235.3672" y2="235.3672"/><polygon fill="#181818" points="244,231.3672,234,235.3672,244,239.3672,240,235.3672" style="stroke:#181818;stroke-width:1.0;"/><text fill="#000000" font-family="sans-serif" font-size="13" font-weight="bold" lengthAdjust="spacing" textLength="7" x="240" y="209.335">4</text><text fill="#000000" font-family="sans-serif" font-size="13" lengthAdjust="spacing" textLength="74" x="251" y="201.1592">Display child</text><text fill="#000000" font-family="sans-serif" font-size="13" lengthAdjust="spacing" textLength="88" x="251" y="217.5107">events as chart</text><path d="M10,280.3672 L75,280.3672 L75,288.7188 L65,298.7188 L10,298.7188 L10,280.3672 " fill="#EEEEEE" style="stroke:#000000;stroke-width:1.5;"/><rect fill="none" height="325.2188" style="stroke:#000000;stroke-width:1.5;" width="748" x="10" y="280.3672"/><text fill="#000000" font-family="sans-serif" font-size="13" font-weight="bold" lengthAdjust="spacing" textLength="20" x="25" y="294.8623">opt</text><text fill="#000000" font-family="sans-serif" font-size="11" font-weight="bold" lengthAdjust="spacing" textLength="124" x="90" y="293.7861">[View details of event]</text><polygon fill="#181818" points="206,333.4219,216,337.4219,206,341.4219,210,337.4219" style="stroke:#181818;stroke-width:1.0;"/><line style="stroke:#181818;stroke-width:1.0;" x1="76" x2="212" y1="337.4219" y2="337.4219"/><text fill="#000000" font-family="sans-serif" font-size="13" font-weight="bold" lengthAdjust="spacing" textLength="7" x="83" y="324.3896">5</text><text fill="#000000" font-family="sans-serif" font-size="13" lengthAdjust="spacing" textLength="103" x="94" y="316.2139">Click on the event</text><text fill="#000000" font-family="sans-serif" font-size="13" lengthAdjust="spacing" textLength="112" x="94" y="332.5654">want to view details</text><polygon fill="#181818" points="563.5,393.7734,573.5,397.7734,563.5,401.7734,567.5,397.7734" style="stroke:#181818;stroke-width:1.0;"/><line style="stroke:#181818;stroke-width:1.0;" x1="223" x2="569.5" y1="397.7734" y2="397.7734"/><text fill="#000000" font-family="sans-serif" font-size="13" font-weight="bold" lengthAdjust="spacing" textLength="7" x="230" y="392.917">6</text><text fill="#000000" font-family="sans-serif" font-size="13" lengthAdjust="spacing" textLength="175" x="241" y="392.917">Get selected event information</text><polygon fill="#181818" points="705.5,440.4766,715.5,444.4766,705.5,448.4766,709.5,444.4766" style="stroke:#181818;stroke-width:1.0;"/><line style="stroke:#181818;stroke-width:1.0;" x1="585.5" x2="711.5" y1="444.4766" y2="444.4766"/><text fill="#000000" font-family="sans-serif" font-size="13" font-weight="bold" lengthAdjust="spacing" textLength="7" x="592.5" y="431.4443">7</text><text fill="#000000" font-family="sans-serif" font-size="13" lengthAdjust="spacing" textLength="74" x="603.5" y="423.2686">Get selected</text><text fill="#000000" font-family="sans-serif" font-size="13" lengthAdjust="spacing" textLength="97" x="603.5" y="439.6201">event information</text><polygon fill="#181818" points="596.5,487.1797,586.5,491.1797,596.5,495.1797,592.5,491.1797" style="stroke:#181818;stroke-width:1.0;"/><line style="stroke:#181818;stroke-width:1.0;stroke-dasharray:2.0,2.0;" x1="590.5" x2="721.5" y1="491.1797" y2="491.1797"/><text fill="#000000" font-family="sans-serif" font-size="13" font-weight="bold" lengthAdjust="spacing" textLength="7" x="602.5" y="478.1475">8</text><text fill="#000000" font-family="sans-serif" font-size="13" lengthAdjust="spacing" textLength="51" x="613.5" y="469.9717">Selected</text><text fill="#000000" font-family="sans-serif" font-size="13" lengthAdjust="spacing" textLength="97" x="613.5" y="486.3232">event information</text><polygon fill="#181818" points="404.5,533.8828,394.5,537.8828,404.5,541.8828,400.5,537.8828" style="stroke:#181818;stroke-width:1.0;"/><line style="stroke:#181818;stroke-width:1.0;stroke-dasharray:2.0,2.0;" x1="398.5" x2="579.5" y1="537.8828" y2="537.8828"/><text fill="#000000" font-family="sans-serif" font-size="13" font-weight="bold" lengthAdjust="spacing" textLength="7" x="410.5" y="524.8506">9</text><text fill="#000000" font-family="sans-serif" font-size="13" lengthAdjust="spacing" textLength="85" x="421.5" y="516.6748">Selected event</text><text fill="#000000" font-family="sans-serif" font-size="13" lengthAdjust="spacing" textLength="63" x="421.5" y="533.0264">information</text><line style="stroke:#181818;stroke-width:1.0;" x1="393.5" x2="435.5" y1="589.5859" y2="589.5859"/><line style="stroke:#181818;stroke-width:1.0;" x1="435.5" x2="435.5" y1="589.5859" y2="602.5859"/><line style="stroke:#181818;stroke-width:1.0;" x1="388.5" x2="435.5" y1="602.5859" y2="602.5859"/><polygon fill="#181818" points="398.5,598.5859,388.5,602.5859,398.5,606.5859,394.5,602.5859" style="stroke:#181818;stroke-width:1.0;"/><text fill="#000000" font-family="sans-serif" font-size="13" font-weight="bold" lengthAdjust="spacing" textLength="14" x="400.5" y="576.5537">10</text><text fill="#000000" font-family="sans-serif" font-size="13" lengthAdjust="spacing" textLength="98" x="418.5" y="568.3779">Display view with</text><text fill="#000000" font-family="sans-serif" font-size="13" lengthAdjust="spacing" textLength="150" x="418.5" y="584.7295">selected event information</text><!--MD5=[c0c043a4a383d84a6f7405db2182ee47]
@startuml MonitorChildEventSeq
autonumber
hide footbox

actor "Parent / Doctor" as ParentDoctor
boundary ChildEventChartView
boundary ChildEventInformationView
control MonitorController
entity EVENT

MonitorController -> EVENT: Get list of events
activate MonitorController
activate EVENT
EVENT - -> MonitorController: List of events
deactivate EVENT
MonitorController - -> ChildEventChartView: List of events
deactivate MonitorController
activate ChildEventChartView
ChildEventChartView -> ChildEventChartView: Display child\nevents as chart
activate ChildEventChartView
deactivate ChildEventChartView

opt View details of event
    ParentDoctor -> ChildEventChartView: Click on the event\nwant to view details
    activate ParentDoctor
    deactivate ParentDoctor
    ChildEventChartView -> MonitorController: Get selected event information
    deactivate ChildEventChartView
    activate MonitorController
    MonitorController -> EVENT: Get selected\nevent information
    activate EVENT
    EVENT - -> MonitorController: Selected\nevent information
    deactivate EVENT
    MonitorController - -> ChildEventInformationView: Selected event\ninformation
    deactivate MonitorController
    activate ChildEventInformationView
    ChildEventInformationView -> ChildEventInformationView: Display view with\nselected event information
    deactivate ChildEventInformationView
    deactivate MonitorController
    deactivate ParentDoctor
end
@enduml

PlantUML version 1.2022.7(Tue Aug 23 00:01:30 ICT 2022)
(GPL source distribution)
Java Runtime: Java(TM) SE Runtime Environment
JVM: Java HotSpot(TM) 64-Bit Server VM
Default Encoding: Cp1252
Language: en
Country: US
--></g></svg>